<?xml version="1.0" encoding="UTF-8"?>
<svg width="720px" height="383px" viewBox="0 0 720 383" version="1.1" xmlns="http://www.w3.org/2000/svg" xmlns:xlink="http://www.w3.org/1999/xlink">
    <!-- Generator: Sketch 52.5 (67469) - http://www.bohemiancoding.com/sketch -->
    <title>1</title>
    <desc>Created with Sketch.</desc>
    <g id="1" stroke="none" stroke-width="1" fill="none" fill-rule="evenodd">
        <g id="Group-3" transform="translate(187.000000, 226.000000)">
            <g id="Group">
                <text id="Engine-1" font-family="OpenSans-Bold, Open Sans" font-size="12" font-weight="bold" line-spacing="10" fill="#595959">
                    <tspan x="20" y="35">Engine 1</tspan>
                </text>
                <text id="indexing" font-family="OpenSans, Open Sans" font-size="18" font-weight="normal" fill="#000000">
                    <tspan x="20" y="66">indexing</tspan>
                </text>
                <text id="checkpoint" font-family="OpenSans, Open Sans" font-size="18" font-weight="normal" fill="#000000">
                    <tspan x="20" y="98">checkpoint</tspan>
                </text>
                <text id="storage-mgmt" font-family="OpenSans, Open Sans" font-size="18" font-weight="normal" fill="#000000">
                    <tspan x="20" y="130">storage mgmt</tspan>
                </text>
                <path d="M6,0.5 C2.96243388,0.5 0.5,2.96243388 0.5,6 L0.5,151 C0.5,154.037566 2.96243388,156.5 6,156.5 L152,156.5 C155.037566,156.5 157.5,154.037566 157.5,151 L157.5,6 C157.5,2.96243388 155.037566,0.5 152,0.5 L6,0.5 Z" id="Rectangle" stroke="#E1E1E1"></path>
                <text id="Engine-2" font-family="OpenSans-Bold, Open Sans" font-size="12" font-weight="bold" line-spacing="10" fill="#595959">
                    <tspan x="208" y="35">Engine 2</tspan>
                </text>
                <text id="..." font-family="OpenSans, Open Sans" font-size="18" font-weight="normal" fill="#000000">
                    <tspan x="208" y="66">...</tspan>
                </text>
                <text id="…" font-family="OpenSans, Open Sans" font-size="18" font-weight="normal" fill="#000000">
                    <tspan x="208" y="98">…</tspan>
                </text>
                <text id="…" font-family="OpenSans, Open Sans" font-size="18" font-weight="normal" fill="#000000">
                    <tspan x="208" y="130">…</tspan>
                </text>
                <path d="M194,0.5 C190.962434,0.5 188.5,2.96243388 188.5,6 L188.5,151 C188.5,154.037566 190.962434,156.5 194,156.5 L340,156.5 C343.037566,156.5 345.5,154.037566 345.5,151 L345.5,6 C345.5,2.96243388 343.037566,0.5 340,0.5 L194,0.5 Z" id="Rectangle" stroke="#E1E1E1"></path>
            </g>
        </g>
        <path d="M0.5,201.5 L719.5,201.5 L0.5,201.5 Z" id="Rectangle-2" stroke="#D7D7D7"></path>
        <g id="Group-6" transform="translate(21.000000, 20.000000)">
            <text id="I/O" font-family="OpenSans-Bold, Open Sans" font-size="12" font-weight="bold" line-spacing="10" fill="#595959">
                <tspan x="20" y="35">I/O</tspan>
            </text>
            <text id="–-session" font-family="OpenSans, Open Sans" font-size="18" font-weight="normal" fill="#000000">
                <tspan x="20" y="66">– session</tspan>
            </text>
            <text id="–-parser" font-family="OpenSans, Open Sans" font-size="18" font-weight="normal" fill="#000000">
                <tspan x="20" y="98">– parser</tspan>
            </text>
            <rect id="Rectangle" stroke="#E1E1E1" x="0.5" y="0.5" width="116" height="156" rx="6"></rect>
        </g>
        <g id="Group-4" transform="translate(162.000000, 0.000000)">
            <g id="Group-2" transform="translate(25.000000, 20.000000)">
                <text id="Transaction-Control" font-family="OpenSans-Bold, Open Sans" font-size="12" font-weight="bold" line-spacing="10" fill="#595959">
                    <tspan x="20" y="35">Transaction Control</tspan>
                </text>
                <text id="–-read-your-own-writ" font-family="OpenSans, Open Sans" font-size="18" font-weight="normal" fill="#000000">
                    <tspan x="20" y="66">– read your own writes</tspan>
                </text>
                <text id="–-multi-engine" font-family="OpenSans, Open Sans" font-size="18" font-weight="normal" fill="#000000">
                    <tspan x="20" y="98">– multi-engine</tspan>
                </text>
                <text id="–-undo-log" font-family="OpenSans, Open Sans" font-size="18" font-weight="normal" fill="#000000">
                    <tspan x="20" y="130">– undo log</tspan>
                </text>
                <path d="M6,0.5 C2.96243388,0.5 0.5,2.96243388 0.5,6 L0.5,151 C0.5,154.037566 2.96243388,156.5 6,156.5 L225,156.5 C228.037566,156.5 230.5,154.037566 230.5,151 L230.5,6 C230.5,2.96243388 228.037566,0.5 225,0.5 L6,0.5 Z" id="Rectangle" stroke="#E1E1E1"></path>
            </g>
            <path d="M0.5,0.5 L0.5,201.5 L0.5,0.5 Z" id="Rectangle-2-Copy" stroke="#D7D7D7"></path>
            <path d="M280.5,0.5 L280.5,201.5 L280.5,0.5 Z" id="Rectangle-2-Copy-2" stroke="#D7D7D7"></path>
        </g>
        <g id="Group-5" transform="translate(467.000000, 20.000000)">
            <text id="Write-ahead-log" font-family="OpenSans-Bold, Open Sans" font-size="12" font-weight="bold" line-spacing="10" fill="#595959">
                <tspan x="20" y="35">Write ahead log</tspan>
            </text>
            <text id="–-redo-log" font-family="OpenSans, Open Sans" font-size="18" font-weight="normal" fill="#000000">
                <tspan x="20" y="66">– redo log</tspan>
            </text>
            <text id="–-async-relay" font-family="OpenSans, Open Sans" font-size="18" font-weight="normal" fill="#000000">
                <tspan x="20" y="98">– async relay</tspan>
            </text>
            <text id="–-group-replication" font-family="OpenSans, Open Sans" font-size="18" font-weight="normal" fill="#000000">
                <tspan x="20" y="130">– group replication</tspan>
            </text>
            <path d="M6,0.5 C2.96243388,0.5 0.5,2.96243388 0.5,6 L0.5,151 C0.5,154.037566 2.96243388,156.5 6,156.5 L225,156.5 C228.037566,156.5 230.5,154.037566 230.5,151 L230.5,6 C230.5,2.96243388 228.037566,0.5 225,0.5 L6,0.5 Z" id="Rectangle" stroke="#E1E1E1"></path>
        </g>
    </g>
</svg>