<?xml version="1.0" encoding="UTF-8" standalone="no"?><!-- Generator: Gravit.io --><svg xmlns="http://www.w3.org/2000/svg" xmlns:xlink="http://www.w3.org/1999/xlink" style="isolation:isolate" viewBox="0 0 600 101" width="600pt" height="101pt"><defs><clipPath id="_clipPath_iOr241XagNnfoDEkfX2GbDU08VHX3l5w"><rect width="600" height="101"/></clipPath></defs><g clip-path="url(#_clipPath_iOr241XagNnfoDEkfX2GbDU08VHX3l5w)"><rect x="202.806" y="34.448" width="398.44" height="33.963" transform="matrix(1,0,0,1,0,0)" fill="rgb(134,240,135)"/><rect x="202.806" y="68.41" width="199.634" height="33.134" transform="matrix(1,0,0,1,0,0)" fill="rgb(134,240,135)"/><rect x="402.44" y="68.41" width="198.806" height="33.134" transform="matrix(1,0,0,1,0,0)" fill="rgb(242,73,67)" fill-opacity="0.9"/><line x1="-1" y1="34.448" x2="600.418" y2="34.448" vector-effect="non-scaling-stroke" stroke-width="1" stroke="rgb(46,46,46)" stroke-linejoin="miter" stroke-linecap="square" stroke-miterlimit="3"/><line x1="202.806" y1="-2" x2="202.806" y2="109" vector-effect="non-scaling-stroke" stroke-width="1" stroke="rgb(46,46,46)" stroke-linejoin="miter" stroke-linecap="square" stroke-miterlimit="3"/><line x1="402.44" y1="-2" x2="402.44" y2="105.687" vector-effect="non-scaling-stroke" stroke-width="1" stroke="rgb(46,46,46)" stroke-linejoin="miter" stroke-linecap="square" stroke-miterlimit="3"/><text transform="matrix(0.828,0,0,0.828,211.09,23.991)" style="font-family:'Open Sans';font-weight:400;font-size:20px;font-style:normal;fill:#000000;stroke:none;">Arena_used_ratio &#x3E; 0.5</text><line x1="1" y1="68.41" x2="600.418" y2="68.41" vector-effect="non-scaling-stroke" stroke-width="1" stroke="rgb(46,46,46)" stroke-linejoin="miter" stroke-linecap="square" stroke-miterlimit="3"/><text transform="matrix(0.828,0,0,0.828,412.381,23.991)" style="font-family:'Open Sans';font-weight:400;font-size:20px;font-style:normal;fill:#000000;stroke:none;">Arena_used_ratio &#x3E; 0.9</text><text transform="matrix(0.828,0,0,0.828,10.94,58.27)" style="font-family:'Open Sans';font-weight:400;font-size:20px;font-style:normal;fill:#000000;stroke:none;">Quota_used_ratio &#x3E; 0.5</text><text transform="matrix(0.828,0,0,0.828,10.94,91.405)" style="font-family:'Open Sans';font-weight:400;font-size:20px;font-style:normal;fill:#000000;stroke:none;">Quota_used_ratio &#x3E; 0.9</text></g></svg>