
<svg width="591px" height="340px" viewBox="0 0 591 340" version="1.1" xmlns="http://www.w3.org/2000/svg" xmlns:xlink="http://www.w3.org/1999/xlink">
    <g id="Page-1" stroke="none" stroke-width="1" fill="none" fill-rule="evenodd">
        <g id="netbox">
            <g id="Round_block-Copy-28" transform="translate(308.000000, 112.000000)" fill-rule="nonzero">
                <rect id="Rectangle-Copy-14" fill="#E1E1E1" x="0" y="-2.84217094e-14" width="123" height="32" rx="14"></rect>
                <path d="M53.5117187,20.1171875 L53.2363281,19.2148437 L53.1894531,19.2148437 C52.8769515,19.609377 52.5625015,19.877929 52.2460937,20.0205078 C51.9296859,20.1630867 51.5234399,20.234375 51.0273437,20.234375 C50.3906218,20.234375 49.8935564,20.0625017 49.5361328,19.71875 C49.1787091,19.3749983 49,18.888675 49,18.2597656 C49,17.5917935 49.2480444,17.0878923 49.7441406,16.7480469 C50.2402368,16.4082014 50.9960886,16.2226564 52.0117187,16.1914063 L53.1308593,16.15625 L53.1308593,15.8105469 C53.1308593,15.3964823 53.0341806,15.0869151 52.8408203,14.8818359 C52.6474599,14.6767568 52.3476582,14.5742187 51.9414062,14.5742187 C51.6093733,14.5742187 51.2910171,14.6230464 50.9863281,14.7207031 C50.6816391,14.8183599 50.3886732,14.9335931 50.1074218,15.0664063 L49.6621093,14.0820313 C50.0136736,13.8984366 50.3984354,13.7587895 50.8164062,13.6630859 C51.2343771,13.5673823 51.6289044,13.5195313 52,13.5195313 C52.8242228,13.5195313 53.4462869,13.699217 53.8662109,14.0585937 C54.2861349,14.4179705 54.4960937,14.982418 54.4960937,15.7519531 L54.4960937,20.1171875 L53.5117187,20.1171875 Z M51.4609375,19.1796875 C51.96094,19.1796875 52.3623031,19.0400405 52.665039,18.7607422 C52.9677749,18.4814439 53.1191406,18.0898463 53.1191406,17.5859375 L53.1191406,17.0234375 L52.2871093,17.0585937 C51.6386686,17.0820314 51.1669936,17.1904287 50.8720703,17.3837891 C50.5771469,17.5771494 50.4296875,17.8730449 50.4296875,18.2714844 C50.4296875,18.5605483 50.5156241,18.7841789 50.6875,18.9423828 C50.8593758,19.1005867 51.1171857,19.1796875 51.4609375,19.1796875 Z M60.9882812,20.1171875 L60.7949218,19.2675781 L60.7246093,19.2675781 C60.5332021,19.5683609 60.2607439,19.8046866 59.9072265,19.9765625 C59.5537091,20.1484384 59.1503929,20.234375 58.6972656,20.234375 C57.9121054,20.234375 57.3261738,20.0390645 56.9394531,19.6484375 C56.5527324,19.2578105 56.359375,18.6660196 56.359375,17.8730469 L56.359375,13.6367187 L57.7480468,13.6367187 L57.7480468,17.6328125 C57.7480468,18.1289087 57.8496083,18.5009753 58.0527343,18.7490234 C58.2558604,18.9970716 58.5742165,19.1210937 59.0078125,19.1210937 C59.5859404,19.1210937 60.0107408,18.9482439 60.2822265,18.6025391 C60.5537123,18.2568342 60.6894531,17.6777384 60.6894531,16.8652344 L60.6894531,13.6367187 L62.0722656,13.6367187 L62.0722656,20.1171875 L60.9882812,20.1171875 Z M66.4492187,19.1210937 C66.7851579,19.1210937 67.121092,19.0683599 67.4570312,18.9628906 L67.4570312,20 C67.3046867,20.0664066 67.1083996,20.1220701 66.868164,20.1669922 C66.6279284,20.2119143 66.3789075,20.234375 66.1210937,20.234375 C64.8163997,20.234375 64.1640625,19.5468819 64.1640625,18.171875 L64.1640625,14.6796875 L63.2792968,14.6796875 L63.2792968,14.0703125 L64.2285156,13.5664063 L64.6972656,12.1953125 L65.546875,12.1953125 L65.546875,13.6367187 L67.3925781,13.6367187 L67.3925781,14.6796875 L65.546875,14.6796875 L65.546875,18.1484375 C65.546875,18.4804704 65.6298819,18.7255851 65.7958984,18.8837891 C65.9619149,19.041993 66.1796861,19.1210937 66.4492187,19.1210937 Z M74.453125,20.1171875 L73.0703125,20.1171875 L73.0703125,16.1328125 C73.0703125,15.63281 72.9697275,15.2597669 72.7685547,15.0136719 C72.5673818,14.7675769 72.248049,14.6445313 71.8105468,14.6445313 C71.2324189,14.6445313 70.8076185,14.8173811 70.5361328,15.1630859 C70.264647,15.5087908 70.1289062,16.0878866 70.1289062,16.9003906 L70.1289062,20.1171875 L68.7519531,20.1171875 L68.7519531,11 L70.1289062,11 L70.1289062,13.3144531 C70.1289062,13.6855487 70.1054689,14.0820291 70.0585937,14.5039063 L70.1464843,14.5039063 C70.3339853,14.1914047 70.5947249,13.9492196 70.9287109,13.7773437 C71.2626969,13.6054679 71.6523415,13.5195313 72.0976562,13.5195313 C73.6679766,13.5195313 74.453125,14.310539 74.453125,15.8925781 L74.453125,20.1171875 Z" id="text" fill="#1F1E1E"></path>
            </g>
            <g id="Round_block-Copy-25" transform="translate(154.000000, 0.000000)" fill-rule="nonzero">
                <rect id="Rectangle-Copy-14" fill="#E1E1E1" x="0" y="0" width="124" height="32" rx="14"></rect>
                <path d="M54.2541436,19.8857868 L53.9944751,19.0063451 L53.9502762,19.0063451 C53.6556154,19.3908649 53.3591174,19.6526009 53.0607734,19.7915609 C52.7624294,19.930521 52.3793761,20 51.9116022,20 C51.3112309,20 50.8425431,19.832489 50.5055249,19.4974619 C50.1685066,19.1624349 50,18.6884548 50,18.0755076 C50,17.4244891 50.2338835,16.9333773 50.7016574,16.6021574 C51.1694314,16.2709374 51.8821314,16.0901017 52.839779,16.0596447 L53.8950276,16.0253807 L53.8950276,15.6884518 C53.8950276,15.2848965 53.8038683,14.9831863 53.6215469,14.7833121 C53.4392255,14.5834381 53.1565396,14.4835025 52.7734806,14.4835025 C52.4604036,14.4835025 52.1602224,14.5310909 51.8729282,14.626269 C51.5856339,14.7214472 51.3093935,14.8337557 51.0441988,14.963198 L50.6243093,14.0038072 C50.9558027,13.8248722 51.3185984,13.6887695 51.7127071,13.5954949 C52.106816,13.5022203 52.4788196,13.4555838 52.8287293,13.4555838 C53.605897,13.4555838 54.1924473,13.630709 54.5883978,13.9809644 C54.9843482,14.33122 55.1823204,14.8813414 55.1823204,15.6313452 L55.1823204,19.8857868 L54.2541436,19.8857868 Z M52.320442,18.9720812 C52.7918992,18.9720812 53.1703484,18.8359786 53.455801,18.563769 C53.7412537,18.2915595 53.8839779,17.909901 53.8839779,17.4187817 L53.8839779,16.8705584 L53.0994474,16.9048223 C52.4880264,16.9276651 52.0432794,17.0333112 51.7651934,17.221764 C51.4871072,17.4102167 51.3480663,17.6986021 51.3480663,18.086929 C51.3480663,18.3686562 51.4290968,18.5866109 51.5911602,18.7407995 C51.7532236,18.8949881 51.9963151,18.9720812 52.320442,18.9720812 Z M61.3038674,19.8857868 L61.1215469,19.0577411 L61.0552485,19.0577411 C60.8747688,19.3508898 60.6178653,19.5812174 60.2845303,19.748731 C59.9511953,19.9162445 59.5709045,20 59.1436464,20 C58.4033112,20 57.8508305,19.8096466 57.4861878,19.428934 C57.1215451,19.0482214 56.9392265,18.4714506 56.9392265,17.6986041 L56.9392265,13.5697969 L58.2486187,13.5697969 L58.2486187,17.464467 C58.2486187,17.9479719 58.344382,18.3105952 58.5359115,18.5523477 C58.7274411,18.7941002 59.0276222,18.9149746 59.4364641,18.9149746 C59.9815865,18.9149746 60.382135,18.7465118 60.6381215,18.4095813 C60.8941081,18.0726506 61.0220994,17.5082527 61.0220994,16.7163706 L61.0220994,13.5697969 L62.3259668,13.5697969 L62.3259668,19.8857868 L61.3038674,19.8857868 Z M66.4530386,18.9149746 C66.769799,18.9149746 67.0865545,18.8635792 67.4033149,18.7607868 L67.4033149,19.7715736 C67.2596678,19.8362948 67.0745867,19.8905455 66.8480662,19.9343274 C66.6215457,19.9781094 66.3867415,20 66.1436464,20 C64.9134377,20 64.2983425,19.329956 64.2983425,17.9898477 L64.2983425,14.5862944 L63.4640883,14.5862944 L63.4640883,13.9923858 L64.359116,13.5012691 L64.8011049,12.1649746 L65.6022099,12.1649746 L65.6022099,13.5697969 L67.3425414,13.5697969 L67.3425414,14.5862944 L65.6022099,14.5862944 L65.6022099,17.9670051 C65.6022099,18.2906107 65.680478,18.5295043 65.8370165,18.6836929 C65.9935551,18.8378815 66.1988937,18.9149746 66.4530386,18.9149746 Z M74,19.8857868 L72.6961326,19.8857868 L72.6961326,16.0025381 C72.6961326,15.515226 72.60129,15.151651 72.4116022,14.9118021 C72.2219143,14.6719531 71.9208123,14.5520305 71.5082872,14.5520305 C70.9631648,14.5520305 70.5626163,14.7204933 70.3066298,15.0574238 C70.0506432,15.3943545 69.9226519,15.9587524 69.9226519,16.7506345 L69.9226519,19.8857868 L68.6243094,19.8857868 L68.6243094,11 L69.9226519,11 L69.9226519,13.2557106 C69.9226519,13.6173876 69.9005526,14.003805 69.8563535,14.4149747 L69.9392264,14.4149747 C70.116023,14.1104046 70.3618769,13.8743663 70.6767955,13.7068527 C70.9917142,13.5393393 71.3591139,13.4555838 71.7790055,13.4555838 C73.2596759,13.4555838 74,14.2265152 74,15.768401 L74,19.8857868 Z" id="text" fill="#1F1E1E"></path>
            </g>
            <g id="Round_block-Copy-29" transform="translate(309.000000, 176.000000)" fill-rule="nonzero">
                <rect id="Rectangle-Copy-14" fill="#E1E1E1" x="0" y="0" width="123" height="32" rx="14"></rect>
                <path d="M50.5517578,20.1171875 C49.5439403,20.1171875 48.7558622,19.8232451 48.1875,19.2353516 C47.6191378,18.647458 47.3349609,17.8378958 47.3349609,16.8066406 C47.3349609,15.7480416 47.5986302,14.9160187 48.1259766,14.3105469 C48.6533229,13.7050751 49.3779251,13.4023438 50.2998047,13.4023438 C51.1552777,13.4023438 51.8310522,13.6621068 52.3271484,14.1816406 C52.8232447,14.7011745 53.0712891,15.4160111 53.0712891,16.3261719 L53.0712891,17.0703125 L48.7529297,17.0703125 C48.772461,17.6992219 48.9423812,18.1826155 49.2626953,18.5205078 C49.5830094,18.8584001 50.0341768,19.0273438 50.6162109,19.0273438 C50.9990254,19.0273438 51.3554671,18.9912113 51.6855469,18.9189453 C52.0156267,18.8466793 52.3701153,18.7265633 52.7490234,18.5585938 L52.7490234,19.6777344 C52.4130843,19.8378914 52.0732439,19.9511715 51.7294922,20.0175781 C51.3857405,20.0839847 50.9931663,20.1171875 50.5517578,20.1171875 Z M50.2998047,14.4453125 C49.8623025,14.4453125 49.5117201,14.583983 49.2480469,14.8613281 C48.9843737,15.1386733 48.8271487,15.5429661 48.7763672,16.0742188 L51.7177734,16.0742188 C51.7099609,15.5390598 51.5810559,15.1337904 51.3310547,14.8583984 C51.0810534,14.5830064 50.7373069,14.4453125 50.2998047,14.4453125 Z M57.9228516,13.4023438 C58.2001967,13.4023438 58.42871,13.4218748 58.6083984,13.4609375 L58.4736328,14.7441406 C58.2783193,14.6972654 58.0751964,14.6738281 57.8642578,14.6738281 C57.3134738,14.6738281 56.8671892,14.8535138 56.5253906,15.2128906 C56.183592,15.5722674 56.0126953,16.0390596 56.0126953,16.6132812 L56.0126953,20 L54.6357422,20 L54.6357422,13.5195312 L55.7138672,13.5195312 L55.8955078,14.6621094 L55.9658203,14.6621094 C56.1806651,14.2753887 56.4609358,13.9687511 56.8066406,13.7421875 C57.1523455,13.5156239 57.5244121,13.4023438 57.9228516,13.4023438 Z M63.0966797,13.4023438 C63.3740248,13.4023438 63.6025382,13.4218748 63.7822266,13.4609375 L63.6474609,14.7441406 C63.4521475,14.6972654 63.2490245,14.6738281 63.0380859,14.6738281 C62.4873019,14.6738281 62.0410173,14.8535138 61.6992188,15.2128906 C61.3574202,15.5722674 61.1865234,16.0390596 61.1865234,16.6132812 L61.1865234,20 L59.8095703,20 L59.8095703,13.5195312 L60.8876953,13.5195312 L61.0693359,14.6621094 L61.1396484,14.6621094 C61.3544933,14.2753887 61.6347639,13.9687511 61.9804688,13.7421875 C62.3261736,13.5156239 62.6982402,13.4023438 63.0966797,13.4023438 Z M70.4912109,16.7480469 C70.4912109,17.8066459 70.2197293,18.6328095 69.6767578,19.2265625 C69.1337863,19.8203155 68.3779345,20.1171875 67.4091797,20.1171875 C66.8037079,20.1171875 66.268557,19.9804701 65.8037109,19.7070312 C65.3388649,19.4335924 64.9814466,19.0410182 64.7314453,18.5292969 C64.4814441,18.0175756 64.3564453,17.4238315 64.3564453,16.7480469 C64.3564453,15.6972604 64.6259739,14.8769561 65.1650391,14.2871094 C65.7041043,13.6972627 66.4638623,13.4023438 67.4443359,13.4023438 C68.3818406,13.4023438 69.1240207,13.7040985 69.6708984,14.3076172 C70.2177762,14.9111358 70.4912109,15.7246043 70.4912109,16.7480469 Z M65.7744141,16.7480469 C65.7744141,18.2441481 66.3271429,18.9921875 67.4326172,18.9921875 C68.5263727,18.9921875 69.0732422,18.2441481 69.0732422,16.7480469 C69.0732422,15.2675707 68.5224664,14.5273438 67.4208984,14.5273438 C66.8427705,14.5273438 66.4238294,14.7187481 66.1640625,15.1015625 C65.9042956,15.4843769 65.7744141,16.0331996 65.7744141,16.7480469 Z M75.3603516,13.4023438 C75.6376967,13.4023438 75.86621,13.4218748 76.0458984,13.4609375 L75.9111328,14.7441406 C75.7158193,14.6972654 75.5126964,14.6738281 75.3017578,14.6738281 C74.7509738,14.6738281 74.3046892,14.8535138 73.9628906,15.2128906 C73.621092,15.5722674 73.4501953,16.0390596 73.4501953,16.6132812 L73.4501953,20 L72.0732422,20 L72.0732422,13.5195312 L73.1513672,13.5195312 L73.3330078,14.6621094 L73.4033203,14.6621094 C73.6181651,14.2753887 73.8984358,13.9687511 74.2441406,13.7421875 C74.5898455,13.5156239 74.9619121,13.4023438 75.3603516,13.4023438 Z" id="text" fill="#1F1E1E"></path>
            </g>
            <g id="Round_block-Copy-26" transform="translate(308.000000, 0.000000)" fill-rule="nonzero">
                <rect id="Rectangle-Copy-14" fill="#E1E1E1" x="0" y="0" width="123" height="32" rx="14"></rect>
                <path d="M26.015625,14.5625 L24.4335938,14.5625 L24.4335938,20 L23.0507813,20 L23.0507813,14.5625 L21.984375,14.5625 L21.984375,13.9179688 L23.0507813,13.4960938 L23.0507813,13.0742188 C23.0507813,12.3085899 23.230467,11.7412128 23.5898438,11.3720703 C23.9492205,11.0029278 24.4980432,10.8183594 25.2363281,10.8183594 C25.7207055,10.8183594 26.1972633,10.8984367 26.6660156,11.0585938 L26.3027344,12.1015625 C25.9628889,11.992187 25.6386734,11.9375 25.3300781,11.9375 C25.0175766,11.9375 24.7900398,12.0341787 24.6474609,12.2275391 C24.5048821,12.4208994 24.4335938,12.7109356 24.4335938,13.0976562 L24.4335938,13.5195312 L26.015625,13.5195312 L26.015625,14.5625 Z M29.9472656,20.1171875 C28.9394481,20.1171875 28.15137,19.8232451 27.5830078,19.2353516 C27.0146456,18.647458 26.7304688,17.8378958 26.7304688,16.8066406 C26.7304688,15.7480416 26.994138,14.9160187 27.5214844,14.3105469 C28.0488308,13.7050751 28.7734329,13.4023438 29.6953125,13.4023438 C30.5507855,13.4023438 31.22656,13.6621068 31.7226563,14.1816406 C32.2187525,14.7011745 32.4667969,15.4160111 32.4667969,16.3261719 L32.4667969,17.0703125 L28.1484375,17.0703125 C28.1679688,17.6992219 28.337889,18.1826155 28.6582031,18.5205078 C28.9785172,18.8584001 29.4296846,19.0273438 30.0117188,19.0273438 C30.3945332,19.0273438 30.7509749,18.9912113 31.0810547,18.9189453 C31.4111345,18.8466793 31.7656231,18.7265633 32.1445313,18.5585938 L32.1445313,19.6777344 C31.8085921,19.8378914 31.4687517,19.9511715 31.125,20.0175781 C30.7812483,20.0839847 30.3886741,20.1171875 29.9472656,20.1171875 Z M29.6953125,14.4453125 C29.2578103,14.4453125 28.9072279,14.583983 28.6435547,14.8613281 C28.3798815,15.1386733 28.2226565,15.5429661 28.171875,16.0742188 L31.1132813,16.0742188 C31.1054687,15.5390598 30.9765638,15.1337904 30.7265625,14.8583984 C30.4765613,14.5830064 30.1328147,14.4453125 29.6953125,14.4453125 Z M36.4453125,19.0039062 C36.7812517,19.0039062 37.1171858,18.9511724 37.453125,18.8457031 L37.453125,19.8828125 C37.3007805,19.9492191 37.1044934,20.0048826 36.8642578,20.0498047 C36.6240222,20.0947268 36.3750013,20.1171875 36.1171875,20.1171875 C34.8124935,20.1171875 34.1601563,19.4296944 34.1601563,18.0546875 L34.1601563,14.5625 L33.2753906,14.5625 L33.2753906,13.953125 L34.2246094,13.4492188 L34.6933594,12.078125 L35.5429688,12.078125 L35.5429688,13.5195312 L37.3886719,13.5195312 L37.3886719,14.5625 L35.5429688,14.5625 L35.5429688,18.03125 C35.5429688,18.3632829 35.6259757,18.6083976 35.7919922,18.7666016 C35.9580086,18.9248055 36.1757799,19.0039062 36.4453125,19.0039062 Z M41.3613281,20.1171875 C40.3808545,20.1171875 39.6357447,19.8310575 39.1259766,19.2587891 C38.6162084,18.6865206 38.3613281,17.8652397 38.3613281,16.7949219 C38.3613281,15.7050727 38.627927,14.8671904 39.1611328,14.28125 C39.6943386,13.6953096 40.4648387,13.4023438 41.4726563,13.4023438 C42.1562534,13.4023438 42.7714816,13.5292956 43.3183594,13.7832031 L42.9023438,14.890625 C42.3203096,14.6640614 41.8398456,14.5507812 41.4609375,14.5507812 C40.3398381,14.5507812 39.7792969,15.2949144 39.7792969,16.7832031 C39.7792969,17.5097693 39.9189439,18.0556622 40.1982422,18.4208984 C40.4775405,18.7861346 40.8867161,18.96875 41.4257813,18.96875 C42.0390656,18.96875 42.6191379,18.8164078 43.1660156,18.5117188 L43.1660156,19.7128906 C42.9199206,19.8574226 42.657228,19.9609372 42.3779297,20.0234375 C42.0986314,20.0859378 41.7597676,20.1171875 41.3613281,20.1171875 Z M50.390625,20 L49.0078125,20 L49.0078125,16.015625 C49.0078125,15.5156225 48.9072276,15.1425794 48.7060547,14.8964844 C48.5048818,14.6503894 48.1855491,14.5273438 47.7480469,14.5273438 C47.169919,14.5273438 46.7451185,14.7001936 46.4736328,15.0458984 C46.2021471,15.3916033 46.0664063,15.9706991 46.0664063,16.7832031 L46.0664063,20 L44.6894531,20 L44.6894531,10.8828125 L46.0664063,10.8828125 L46.0664063,13.1972656 C46.0664063,13.5683612 46.042969,13.9648416 45.9960938,14.3867188 L46.0839844,14.3867188 C46.2714853,14.0742172 46.5322249,13.8320321 46.8662109,13.6601562 C47.200197,13.4882804 47.5898415,13.4023438 48.0351563,13.4023438 C49.6054766,13.4023438 50.390625,14.1933515 50.390625,15.7753906 L50.390625,20 Z M56.4960938,21.8691406 L51.2988281,21.8691406 L51.2988281,21.078125 L56.4960938,21.078125 L56.4960938,21.8691406 Z M61.8105469,18.1542969 C61.8105469,18.7871125 61.5800804,19.2724592 61.1191406,19.6103516 C60.6582008,19.9482439 59.9980512,20.1171875 59.1386719,20.1171875 C58.2753863,20.1171875 57.5820339,19.9863294 57.0585938,19.7246094 L57.0585938,18.5351562 C57.8203163,18.8867205 58.5292936,19.0625 59.1855469,19.0625 C60.0332074,19.0625 60.4570313,18.8066432 60.4570313,18.2949219 C60.4570313,18.1308586 60.4101567,17.9941412 60.3164063,17.8847656 C60.2226558,17.7753901 60.0683604,17.66211 59.8535156,17.5449219 C59.6386708,17.4277338 59.3398457,17.2949226 58.9570313,17.1464844 C58.2109338,16.8574204 57.706056,16.5683608 57.4423828,16.2792969 C57.1787096,15.9902329 57.046875,15.6152367 57.046875,15.1542969 C57.046875,14.5996066 57.2705056,14.1689468 57.7177734,13.8623047 C58.1650413,13.5556625 58.7734337,13.4023438 59.5429688,13.4023438 C60.3046913,13.4023438 61.0253872,13.5566391 61.7050781,13.8652344 L61.2597656,14.9023438 C60.5605434,14.6132798 59.9726586,14.46875 59.4960938,14.46875 C58.7695276,14.46875 58.40625,14.6757792 58.40625,15.0898438 C58.40625,15.2929698 58.5009756,15.464843 58.6904297,15.6054688 C58.8798838,15.7460945 59.2929656,15.9394519 59.9296875,16.1855469 C60.4648464,16.3925792 60.8535144,16.5820304 61.0957031,16.7539062 C61.3378918,16.9257821 61.5175775,17.1240223 61.6347656,17.3486328 C61.7519537,17.5732433 61.8105469,17.8417953 61.8105469,18.1542969 Z M65.9121094,20.1171875 C64.9316357,20.1171875 64.186526,19.8310575 63.6767578,19.2587891 C63.1669896,18.6865206 62.9121094,17.8652397 62.9121094,16.7949219 C62.9121094,15.7050727 63.1787083,14.8671904 63.7119141,14.28125 C64.2451199,13.6953096 65.01562,13.4023438 66.0234375,13.4023438 C66.7070347,13.4023438 67.3222629,13.5292956 67.8691406,13.7832031 L67.453125,14.890625 C66.8710908,14.6640614 66.3906269,14.5507812 66.0117188,14.5507812 C64.8906194,14.5507812 64.3300781,15.2949144 64.3300781,16.7832031 C64.3300781,17.5097693 64.4697252,18.0556622 64.7490234,18.4208984 C65.0283217,18.7861346 65.4374973,18.96875 65.9765625,18.96875 C66.5898468,18.96875 67.1699191,18.8164078 67.7167969,18.5117188 L67.7167969,19.7128906 C67.4707019,19.8574226 67.2080092,19.9609372 66.9287109,20.0234375 C66.6494127,20.0859378 66.3105489,20.1171875 65.9121094,20.1171875 Z M74.9414062,20 L73.5585938,20 L73.5585938,16.015625 C73.5585938,15.5156225 73.4580088,15.1425794 73.2568359,14.8964844 C73.0556631,14.6503894 72.7363303,14.5273438 72.2988281,14.5273438 C71.7207002,14.5273438 71.2958998,14.7001936 71.0244141,15.0458984 C70.7529283,15.3916033 70.6171875,15.9706991 70.6171875,16.7832031 L70.6171875,20 L69.2402344,20 L69.2402344,10.8828125 L70.6171875,10.8828125 L70.6171875,13.1972656 C70.6171875,13.5683612 70.5937502,13.9648416 70.546875,14.3867188 L70.6347656,14.3867188 C70.8222666,14.0742172 71.0830061,13.8320321 71.4169922,13.6601562 C71.7509782,13.4882804 72.1406228,13.4023438 72.5859375,13.4023438 C74.1562579,13.4023438 74.9414062,14.1933515 74.9414062,15.7753906 L74.9414062,20 Z M79.6875,20.1171875 C78.6796825,20.1171875 77.8916044,19.8232451 77.3232422,19.2353516 C76.75488,18.647458 76.4707031,17.8378958 76.4707031,16.8066406 C76.4707031,15.7480416 76.7343724,14.9160187 77.2617188,14.3105469 C77.7890651,13.7050751 78.5136673,13.4023438 79.4355469,13.4023438 C80.2910199,13.4023438 80.9667944,13.6621068 81.4628906,14.1816406 C81.9589869,14.7011745 82.2070312,15.4160111 82.2070312,16.3261719 L82.2070312,17.0703125 L77.8886719,17.0703125 C77.9082032,17.6992219 78.0781234,18.1826155 78.3984375,18.5205078 C78.7187516,18.8584001 79.169919,19.0273438 79.7519531,19.0273438 C80.1347675,19.0273438 80.4912093,18.9912113 80.8212891,18.9189453 C81.1513688,18.8466793 81.5058575,18.7265633 81.8847656,18.5585938 L81.8847656,19.6777344 C81.5488264,19.8378914 81.2089861,19.9511715 80.8652344,20.0175781 C80.5214827,20.0839847 80.1289085,20.1171875 79.6875,20.1171875 Z M79.4355469,14.4453125 C78.9980447,14.4453125 78.6474623,14.583983 78.3837891,14.8613281 C78.1201159,15.1386733 77.9628909,15.5429661 77.9121094,16.0742188 L80.8535156,16.0742188 C80.8457031,15.5390598 80.7167981,15.1337904 80.4667969,14.8583984 C80.2167956,14.5830064 79.8730491,14.4453125 79.4355469,14.4453125 Z M89.2324219,20 L87.8496094,20 L87.8496094,16.0039062 C87.8496094,15.50781 87.7558603,15.1376965 87.5683594,14.8935547 C87.3808584,14.6494128 87.0878926,14.5273438 86.6894531,14.5273438 C86.1582005,14.5273438 85.7685559,14.7001936 85.5205078,15.0458984 C85.2724597,15.3916033 85.1484375,15.9667929 85.1484375,16.7714844 L85.1484375,20 L83.7714844,20 L83.7714844,13.5195312 L84.8496094,13.5195312 L85.0429688,14.3691406 L85.1132812,14.3691406 C85.2929696,14.0605453 85.5537092,13.8222665 85.8955078,13.6542969 C86.2373064,13.4863273 86.6132792,13.4023438 87.0234375,13.4023438 C88.0195362,13.4023438 88.6796859,13.7421841 89.0039063,14.421875 L89.0976562,14.421875 C89.2890635,14.1015609 89.558592,13.8515634 89.90625,13.671875 C90.253908,13.4921866 90.6523415,13.4023438 91.1015625,13.4023438 C91.8750039,13.4023438 92.4384748,13.5976543 92.7919922,13.9882812 C93.1455096,14.3789082 93.3222656,14.9746054 93.3222656,15.7753906 L93.3222656,20 L91.9453125,20 L91.9453125,16.0039062 C91.9453125,15.50781 91.8505869,15.1376965 91.6611328,14.8935547 C91.4716787,14.6494128 91.1777364,14.5273438 90.7792969,14.5273438 C90.2441379,14.5273438 89.8525403,14.6943343 89.6044922,15.0283203 C89.3564441,15.3623064 89.2324219,15.8749965 89.2324219,16.5664062 L89.2324219,20 Z M99.2988281,20 L99.0234375,19.0976562 L98.9765625,19.0976562 C98.6640609,19.4921895 98.349611,19.7607415 98.0332031,19.9033203 C97.7167953,20.0458992 97.3105494,20.1171875 96.8144531,20.1171875 C96.1777312,20.1171875 95.6806658,19.9453142 95.3232422,19.6015625 C94.9658185,19.2578108 94.7871094,18.7714875 94.7871094,18.1425781 C94.7871094,17.474606 95.0351538,16.9707048 95.53125,16.6308594 C96.0273462,16.2910139 96.783198,16.1054689 97.7988281,16.0742188 L98.9179688,16.0390625 L98.9179688,15.6933594 C98.9179688,15.2792948 98.82129,14.9697276 98.6279297,14.7646484 C98.4345693,14.5595693 98.1347677,14.4570312 97.7285156,14.4570312 C97.3964827,14.4570312 97.0781265,14.5058589 96.7734375,14.6035156 C96.4687485,14.7011724 96.1757827,14.8164056 95.8945312,14.9492188 L95.4492188,13.9648438 C95.800783,13.7812491 96.1855448,13.641602 96.6035156,13.5458984 C97.0214865,13.4501948 97.4160138,13.4023438 97.7871094,13.4023438 C98.6113322,13.4023438 99.2333963,13.5820295 99.6533203,13.9414062 C100.073244,14.300783 100.283203,14.8652305 100.283203,15.6347656 L100.283203,20 L99.2988281,20 Z M97.2480469,19.0625 C97.7480494,19.0625 98.1494125,18.922853 98.4521484,18.6435547 C98.7548843,18.3642564 98.90625,17.9726588 98.90625,17.46875 L98.90625,16.90625 L98.0742188,16.9414062 C97.425778,16.9648439 96.954103,17.0732412 96.6591797,17.2666016 C96.3642563,17.4599619 96.2167969,17.7558574 96.2167969,18.1542969 C96.2167969,18.4433608 96.3027335,18.6669914 96.4746094,18.8251953 C96.6464852,18.9833992 96.9042952,19.0625 97.2480469,19.0625 Z" id="text" fill="#1F1E1E"></path>
            </g>
            <g id="Round_block-Copy-27" transform="translate(468.000000, 0.000000)" fill-rule="nonzero">
                <rect id="Rectangle-Copy-14" fill="#E1E1E1" x="0" y="0" width="123" height="32" rx="14"></rect>
                <path d="M49.3886719,20 L49.1132812,19.0976562 L49.0664062,19.0976562 C48.7539047,19.4921895 48.4394547,19.7607415 48.1230469,19.9033203 C47.806639,20.0458992 47.4003931,20.1171875 46.9042969,20.1171875 C46.2675749,20.1171875 45.7705096,19.9453142 45.4130859,19.6015625 C45.0556623,19.2578108 44.8769531,18.7714875 44.8769531,18.1425781 C44.8769531,17.474606 45.1249975,16.9707048 45.6210938,16.6308594 C46.11719,16.2910139 46.8730418,16.1054689 47.8886719,16.0742188 L49.0078125,16.0390625 L49.0078125,15.6933594 C49.0078125,15.2792948 48.9111338,14.9697276 48.7177734,14.7646484 C48.5244131,14.5595693 48.2246114,14.4570312 47.8183594,14.4570312 C47.4863265,14.4570312 47.1679703,14.5058589 46.8632812,14.6035156 C46.5585922,14.7011724 46.2656264,14.8164056 45.984375,14.9492188 L45.5390625,13.9648438 C45.8906268,13.7812491 46.2753885,13.641602 46.6933594,13.5458984 C47.1113302,13.4501948 47.5058575,13.4023438 47.8769531,13.4023438 C48.701176,13.4023438 49.3232401,13.5820295 49.7431641,13.9414062 C50.163088,14.300783 50.3730469,14.8652305 50.3730469,15.6347656 L50.3730469,20 L49.3886719,20 Z M47.3378906,19.0625 C47.8378931,19.0625 48.2392563,18.922853 48.5419922,18.6435547 C48.8447281,18.3642564 48.9960938,17.9726588 48.9960938,17.46875 L48.9960938,16.90625 L48.1640625,16.9414062 C47.5156218,16.9648439 47.0439468,17.0732412 46.7490234,17.2666016 C46.4541001,17.4599619 46.3066406,17.7558574 46.3066406,18.1542969 C46.3066406,18.4433608 46.3925773,18.6669914 46.5644531,18.8251953 C46.736329,18.9833992 46.9941389,19.0625 47.3378906,19.0625 Z M54.9082031,20.1171875 C53.9277295,20.1171875 53.1826197,19.8310575 52.6728516,19.2587891 C52.1630834,18.6865206 51.9082031,17.8652397 51.9082031,16.7949219 C51.9082031,15.7050727 52.174802,14.8671904 52.7080078,14.28125 C53.2412136,13.6953096 54.0117137,13.4023438 55.0195312,13.4023438 C55.7031284,13.4023438 56.3183566,13.5292956 56.8652344,13.7832031 L56.4492188,14.890625 C55.8671846,14.6640614 55.3867206,14.5507812 55.0078125,14.5507812 C53.8867131,14.5507812 53.3261719,15.2949144 53.3261719,16.7832031 C53.3261719,17.5097693 53.4658189,18.0556622 53.7451172,18.4208984 C54.0244155,18.7861346 54.4335911,18.96875 54.9726562,18.96875 C55.5859406,18.96875 56.1660129,18.8164078 56.7128906,18.5117188 L56.7128906,19.7128906 C56.4667956,19.8574226 56.204103,19.9609372 55.9248047,20.0234375 C55.6455064,20.0859378 55.3066426,20.1171875 54.9082031,20.1171875 Z M60.6503906,19.0039062 C60.9863298,19.0039062 61.3222639,18.9511724 61.6582031,18.8457031 L61.6582031,19.8828125 C61.5058586,19.9492191 61.3095715,20.0048826 61.0693359,20.0498047 C60.8291004,20.0947268 60.5800794,20.1171875 60.3222656,20.1171875 C59.0175716,20.1171875 58.3652344,19.4296944 58.3652344,18.0546875 L58.3652344,14.5625 L57.4804688,14.5625 L57.4804688,13.953125 L58.4296875,13.4492188 L58.8984375,12.078125 L59.7480469,12.078125 L59.7480469,13.5195312 L61.59375,13.5195312 L61.59375,14.5625 L59.7480469,14.5625 L59.7480469,18.03125 C59.7480469,18.3632829 59.8310539,18.6083976 59.9970703,18.7666016 C60.1630868,18.9248055 60.380858,19.0039062 60.6503906,19.0039062 Z M64.3300781,20 L62.953125,20 L62.953125,13.5195312 L64.3300781,13.5195312 L64.3300781,20 Z M62.8710938,11.8027344 C62.8710938,11.5566394 62.9384759,11.3671882 63.0732422,11.234375 C63.2080085,11.1015618 63.4003894,11.0351562 63.6503906,11.0351562 C63.8925793,11.0351562 64.081054,11.1015618 64.2158203,11.234375 C64.3505866,11.3671882 64.4179688,11.5566394 64.4179688,11.8027344 C64.4179688,12.0371105 64.3505866,12.221679 64.2158203,12.3564453 C64.081054,12.4912116 63.8925793,12.5585938 63.6503906,12.5585938 C63.4003894,12.5585938 63.2080085,12.4912116 63.0732422,12.3564453 C62.9384759,12.221679 62.8710938,12.0371105 62.8710938,11.8027344 Z M67.7753906,20 L65.3144531,13.5195312 L66.7675781,13.5195312 L68.0859375,17.2871094 C68.3125011,17.919925 68.4492185,18.4316387 68.4960938,18.8222656 L68.5429688,18.8222656 C68.5781252,18.5410142 68.7148426,18.0293006 68.953125,17.2871094 L70.2714844,13.5195312 L71.7363281,13.5195312 L69.2636719,20 L67.7753906,20 Z M75.5507812,20.1171875 C74.5429637,20.1171875 73.7548857,19.8232451 73.1865234,19.2353516 C72.6181612,18.647458 72.3339844,17.8378958 72.3339844,16.8066406 C72.3339844,15.7480416 72.5976536,14.9160187 73.125,14.3105469 C73.6523464,13.7050751 74.3769485,13.4023438 75.2988281,13.4023438 C76.1543012,13.4023438 76.8300756,13.6621068 77.3261719,14.1816406 C77.8222681,14.7011745 78.0703125,15.4160111 78.0703125,16.3261719 L78.0703125,17.0703125 L73.7519531,17.0703125 C73.7714845,17.6992219 73.9414046,18.1826155 74.2617188,18.5205078 C74.5820329,18.8584001 75.0332002,19.0273438 75.6152344,19.0273438 C75.9980488,19.0273438 76.3544905,18.9912113 76.6845703,18.9189453 C77.0146501,18.8466793 77.3691387,18.7265633 77.7480469,18.5585938 L77.7480469,19.6777344 C77.4121077,19.8378914 77.0722673,19.9511715 76.7285156,20.0175781 C76.3847639,20.0839847 75.9921897,20.1171875 75.5507812,20.1171875 Z M75.2988281,14.4453125 C74.8613259,14.4453125 74.5107435,14.583983 74.2470703,14.8613281 C73.9833971,15.1386733 73.8261721,15.5429661 73.7753906,16.0742188 L76.7167969,16.0742188 C76.7089843,15.5390598 76.5800794,15.1337904 76.3300781,14.8583984 C76.0800769,14.5830064 75.7363303,14.4453125 75.2988281,14.4453125 Z" id="text" fill="#1F1E1E"></path>
            </g>
            <g id="Round_block-Copy-42" fill-rule="nonzero">
                <rect id="Rectangle-Copy-14" fill="#E1E1E1" x="0" y="0" width="117" height="32" rx="14"></rect>
                <path d="M45.0224609,21 L43.6455078,21 L43.6455078,14.5195312 L45.0224609,14.5195312 L45.0224609,21 Z M43.5634766,12.8027344 C43.5634766,12.5566394 43.6308587,12.3671882 43.765625,12.234375 C43.9003913,12.1015618 44.0927722,12.0351562 44.3427734,12.0351562 C44.5849621,12.0351562 44.7734368,12.1015618 44.9082031,12.234375 C45.0429694,12.3671882 45.1103516,12.5566394 45.1103516,12.8027344 C45.1103516,13.0371105 45.0429694,13.221679 44.9082031,13.3564453 C44.7734368,13.4912116 44.5849621,13.5585938 44.3427734,13.5585938 C44.0927722,13.5585938 43.9003913,13.4912116 43.765625,13.3564453 C43.6308587,13.221679 43.5634766,13.0371105 43.5634766,12.8027344 Z M52.6923828,21 L51.3095703,21 L51.3095703,17.015625 C51.3095703,16.5156225 51.2089854,16.1425794 51.0078125,15.8964844 C50.8066396,15.6503894 50.4873069,15.5273438 50.0498047,15.5273438 C49.4677705,15.5273438 49.0419935,15.699217 48.7724609,16.0429688 C48.5029283,16.3867205 48.3681641,16.9628866 48.3681641,17.7714844 L48.3681641,21 L46.9912109,21 L46.9912109,14.5195312 L48.0693359,14.5195312 L48.2626953,15.3691406 L48.3330078,15.3691406 C48.5283213,15.0605453 48.8056623,14.8222665 49.1650391,14.6542969 C49.5244159,14.4863273 49.9228494,14.4023438 50.3603516,14.4023438 C51.9150468,14.4023438 52.6923828,15.1933515 52.6923828,16.7753906 L52.6923828,21 Z M55.9853516,21 L54.6083984,21 L54.6083984,14.5195312 L55.9853516,14.5195312 L55.9853516,21 Z M54.5263672,12.8027344 C54.5263672,12.5566394 54.5937493,12.3671882 54.7285156,12.234375 C54.8632819,12.1015618 55.0556628,12.0351562 55.3056641,12.0351562 C55.5478528,12.0351562 55.7363275,12.1015618 55.8710938,12.234375 C56.00586,12.3671882 56.0732422,12.5566394 56.0732422,12.8027344 C56.0732422,13.0371105 56.00586,13.221679 55.8710938,13.3564453 C55.7363275,13.4912116 55.5478528,13.5585938 55.3056641,13.5585938 C55.0556628,13.5585938 54.8632819,13.4912116 54.7285156,13.3564453 C54.5937493,13.221679 54.5263672,13.0371105 54.5263672,12.8027344 Z M60.3681641,20.0039062 C60.7041032,20.0039062 61.0400374,19.9511724 61.3759766,19.8457031 L61.3759766,20.8828125 C61.2236321,20.9492191 61.027345,21.0048826 60.7871094,21.0498047 C60.5468738,21.0947268 60.2978529,21.1171875 60.0400391,21.1171875 C58.735345,21.1171875 58.0830078,20.4296944 58.0830078,19.0546875 L58.0830078,15.5625 L57.1982422,15.5625 L57.1982422,14.953125 L58.1474609,14.4492188 L58.6162109,13.078125 L59.4658203,13.078125 L59.4658203,14.5195312 L61.3115234,14.5195312 L61.3115234,15.5625 L59.4658203,15.5625 L59.4658203,19.03125 C59.4658203,19.3632829 59.5488273,19.6083976 59.7148438,19.7666016 C59.8808602,19.9248055 60.0986315,20.0039062 60.3681641,20.0039062 Z M64.0478516,21 L62.6708984,21 L62.6708984,14.5195312 L64.0478516,14.5195312 L64.0478516,21 Z M62.5888672,12.8027344 C62.5888672,12.5566394 62.6562493,12.3671882 62.7910156,12.234375 C62.9257819,12.1015618 63.1181628,12.0351562 63.3681641,12.0351562 C63.6103528,12.0351562 63.7988275,12.1015618 63.9335938,12.234375 C64.06836,12.3671882 64.1357422,12.5566394 64.1357422,12.8027344 C64.1357422,13.0371105 64.06836,13.221679 63.9335938,13.3564453 C63.7988275,13.4912116 63.6103528,13.5585938 63.3681641,13.5585938 C63.1181628,13.5585938 62.9257819,13.4912116 62.7910156,13.3564453 C62.6562493,13.221679 62.5888672,13.0371105 62.5888672,12.8027344 Z M70.0712891,21 L69.7958984,20.0976562 L69.7490234,20.0976562 C69.4365219,20.4921895 69.1220719,20.7607415 68.8056641,20.9033203 C68.4892562,21.0458992 68.0830103,21.1171875 67.5869141,21.1171875 C66.9501921,21.1171875 66.4531268,20.9453142 66.0957031,20.6015625 C65.7382795,20.2578108 65.5595703,19.7714875 65.5595703,19.1425781 C65.5595703,18.474606 65.8076147,17.9707048 66.3037109,17.6308594 C66.7998072,17.2910139 67.555659,17.1054689 68.5712891,17.0742188 L69.6904297,17.0390625 L69.6904297,16.6933594 C69.6904297,16.2792948 69.593751,15.9697276 69.4003906,15.7646484 C69.2070303,15.5595693 68.9072286,15.4570312 68.5009766,15.4570312 C68.1689437,15.4570312 67.8505875,15.5058589 67.5458984,15.6035156 C67.2412094,15.7011724 66.9482436,15.8164056 66.6669922,15.9492188 L66.2216797,14.9648438 C66.5732439,14.7812491 66.9580057,14.641602 67.3759766,14.5458984 C67.7939474,14.4501948 68.1884747,14.4023438 68.5595703,14.4023438 C69.3837932,14.4023438 70.0058573,14.5820295 70.4257812,14.9414062 C70.8457052,15.300783 71.0556641,15.8652305 71.0556641,16.6347656 L71.0556641,21 L70.0712891,21 Z M68.0205078,20.0625 C68.5205103,20.0625 68.9218735,19.922853 69.2246094,19.6435547 C69.5273453,19.3642564 69.6787109,18.9726588 69.6787109,18.46875 L69.6787109,17.90625 L68.8466797,17.9414062 C68.1982389,17.9648439 67.726564,18.0732412 67.4316406,18.2666016 C67.1367173,18.4599619 66.9892578,18.7558574 66.9892578,19.1542969 C66.9892578,19.4433608 67.0751945,19.6669914 67.2470703,19.8251953 C67.4189462,19.9833992 67.6767561,20.0625 68.0205078,20.0625 Z M74.3544922,21 L72.9775391,21 L72.9775391,11.8828125 L74.3544922,11.8828125 L74.3544922,21 Z" id="text" fill="#1F1E1E"></path>
            </g>
            <g id="Round_block-Copy-44" transform="translate(1.000000, 134.000000)" fill-rule="nonzero">
                <rect id="Rectangle-Copy-14" fill="#E1E1E1" x="0" y="0" width="117" height="52" rx="22"></rect>
                <path d="M35.796875,23 L35.5214844,22.0976562 L35.4746094,22.0976562 C35.1621078,22.4921895 34.8476578,22.7607415 34.53125,22.9033203 C34.2148422,23.0458992 33.8085962,23.1171875 33.3125,23.1171875 C32.6757781,23.1171875 32.1787127,22.9453142 31.8212891,22.6015625 C31.4638654,22.2578108 31.2851562,21.7714875 31.2851562,21.1425781 C31.2851562,20.474606 31.5332006,19.9707048 32.0292969,19.6308594 C32.5253931,19.2910139 33.2812449,19.1054689 34.296875,19.0742188 L35.4160156,19.0390625 L35.4160156,18.6933594 C35.4160156,18.2792948 35.3193369,17.9697276 35.1259766,17.7646484 C34.9326162,17.5595693 34.6328145,17.4570312 34.2265625,17.4570312 C33.8945296,17.4570312 33.5761734,17.5058589 33.2714844,17.6035156 C32.9667954,17.7011724 32.6738295,17.8164056 32.3925781,17.9492188 L31.9472656,16.9648438 C32.2988299,16.7812491 32.6835917,16.641602 33.1015625,16.5458984 C33.5195333,16.4501948 33.9140606,16.4023438 34.2851562,16.4023438 C35.1093791,16.4023438 35.7314432,16.5820295 36.1513672,16.9414062 C36.5712912,17.300783 36.78125,17.8652305 36.78125,18.6347656 L36.78125,23 L35.796875,23 Z M33.7460938,22.0625 C34.2460963,22.0625 34.6474594,21.922853 34.9501953,21.6435547 C35.2529312,21.3642564 35.4042969,20.9726588 35.4042969,20.46875 L35.4042969,19.90625 L34.5722656,19.9414062 C33.9238249,19.9648439 33.4521499,20.0732412 33.1572266,20.2666016 C32.8623032,20.4599619 32.7148438,20.7558574 32.7148438,21.1542969 C32.7148438,21.4433608 32.8007804,21.6669914 32.9726562,21.8251953 C33.1445321,21.9833992 33.402342,22.0625 33.7460938,22.0625 Z M44.4042969,23 L43.0214844,23 L43.0214844,19.015625 C43.0214844,18.5156225 42.9208994,18.1425794 42.7197266,17.8964844 C42.5185537,17.6503894 42.1992209,17.5273438 41.7617188,17.5273438 C41.1796846,17.5273438 40.7539076,17.699217 40.484375,18.0429688 C40.2148424,18.3867205 40.0800781,18.9628866 40.0800781,19.7714844 L40.0800781,23 L38.703125,23 L38.703125,16.5195312 L39.78125,16.5195312 L39.9746094,17.3691406 L40.0449219,17.3691406 C40.2402354,17.0605453 40.5175763,16.8222665 40.8769531,16.6542969 C41.2363299,16.4863273 41.6347634,16.4023438 42.0722656,16.4023438 C43.6269609,16.4023438 44.4042969,17.1933515 44.4042969,18.7753906 L44.4042969,23 Z M45.3359375,16.5195312 L46.8359375,16.5195312 L48.1542969,20.1933594 C48.3535166,20.7167995 48.4863278,21.2089821 48.5527344,21.6699219 L48.5996094,21.6699219 C48.6347658,21.4550771 48.6992183,21.1943375 48.7929688,20.8876953 C48.8867192,20.5810532 49.382808,19.125013 50.28125,16.5195312 L51.7695312,16.5195312 L48.9980469,23.8613281 C48.4941381,25.2089911 47.6543028,25.8828125 46.4785156,25.8828125 C46.1738266,25.8828125 45.8769546,25.8496097 45.5878906,25.7832031 L45.5878906,24.6933594 C45.7949229,24.7402346 46.0312487,24.7636719 46.296875,24.7636719 C46.9609408,24.7636719 47.427733,24.3789101 47.6972656,23.609375 L47.9375,23 L45.3359375,16.5195312 Z M60.2246094,21.1542969 C60.2246094,21.7871125 59.9941429,22.2724592 59.5332031,22.6103516 C59.0722633,22.9482439 58.4121137,23.1171875 57.5527344,23.1171875 C56.6894488,23.1171875 55.9960964,22.9863294 55.4726562,22.7246094 L55.4726562,21.5351562 C56.2343788,21.8867205 56.9433561,22.0625 57.5996094,22.0625 C58.4472699,22.0625 58.8710938,21.8066432 58.8710938,21.2949219 C58.8710938,21.1308586 58.8242192,20.9941412 58.7304688,20.8847656 C58.6367183,20.7753901 58.4824229,20.66211 58.2675781,20.5449219 C58.0527333,20.4277338 57.7539082,20.2949226 57.3710938,20.1464844 C56.6249963,19.8574204 56.1201185,19.5683608 55.8564453,19.2792969 C55.5927721,18.9902329 55.4609375,18.6152367 55.4609375,18.1542969 C55.4609375,17.5996066 55.6845681,17.1689468 56.1318359,16.8623047 C56.5791038,16.5556625 57.1874962,16.4023438 57.9570312,16.4023438 C58.7187538,16.4023438 59.4394497,16.5566391 60.1191406,16.8652344 L59.6738281,17.9023438 C58.9746059,17.6132798 58.3867211,17.46875 57.9101562,17.46875 C57.1835901,17.46875 56.8203125,17.6757792 56.8203125,18.0898438 C56.8203125,18.2929698 56.9150381,18.464843 57.1044922,18.6054688 C57.2939463,18.7460945 57.7070281,18.9394519 58.34375,19.1855469 C58.8789089,19.3925792 59.2675769,19.5820304 59.5097656,19.7539062 C59.7519543,19.9257821 59.93164,20.1240223 60.0488281,20.3486328 C60.1660162,20.5732433 60.2246094,20.8417953 60.2246094,21.1542969 Z M64.1269531,22.0039062 C64.4628923,22.0039062 64.7988264,21.9511724 65.1347656,21.8457031 L65.1347656,22.8828125 C64.9824211,22.9492191 64.786134,23.0048826 64.5458984,23.0498047 C64.3056629,23.0947268 64.0566419,23.1171875 63.7988281,23.1171875 C62.4941341,23.1171875 61.8417969,22.4296944 61.8417969,21.0546875 L61.8417969,17.5625 L60.9570312,17.5625 L60.9570312,16.953125 L61.90625,16.4492188 L62.375,15.078125 L63.2246094,15.078125 L63.2246094,16.5195312 L65.0703125,16.5195312 L65.0703125,17.5625 L63.2246094,17.5625 L63.2246094,21.03125 C63.2246094,21.3632829 63.3076164,21.6083976 63.4736328,21.7666016 C63.6396493,21.9248055 63.8574205,22.0039062 64.1269531,22.0039062 Z M70.484375,23 L70.2089844,22.0976562 L70.1621094,22.0976562 C69.8496078,22.4921895 69.5351578,22.7607415 69.21875,22.9033203 C68.9023422,23.0458992 68.4960962,23.1171875 68,23.1171875 C67.3632781,23.1171875 66.8662127,22.9453142 66.5087891,22.6015625 C66.1513654,22.2578108 65.9726562,21.7714875 65.9726562,21.1425781 C65.9726562,20.474606 66.2207006,19.9707048 66.7167969,19.6308594 C67.2128931,19.2910139 67.9687449,19.1054689 68.984375,19.0742188 L70.1035156,19.0390625 L70.1035156,18.6933594 C70.1035156,18.2792948 70.0068369,17.9697276 69.8134766,17.7646484 C69.6201162,17.5595693 69.3203145,17.4570312 68.9140625,17.4570312 C68.5820296,17.4570312 68.2636734,17.5058589 67.9589844,17.6035156 C67.6542954,17.7011724 67.3613295,17.8164056 67.0800781,17.9492188 L66.6347656,16.9648438 C66.9863299,16.7812491 67.3710917,16.641602 67.7890625,16.5458984 C68.2070333,16.4501948 68.6015606,16.4023438 68.9726562,16.4023438 C69.7968791,16.4023438 70.4189432,16.5820295 70.8388672,16.9414062 C71.2587912,17.300783 71.46875,17.8652305 71.46875,18.6347656 L71.46875,23 L70.484375,23 Z M68.4335938,22.0625 C68.9335962,22.0625 69.3349594,21.922853 69.6376953,21.6435547 C69.9404312,21.3642564 70.0917969,20.9726588 70.0917969,20.46875 L70.0917969,19.90625 L69.2597656,19.9414062 C68.6113249,19.9648439 68.1396499,20.0732412 67.8447266,20.2666016 C67.5498032,20.4599619 67.4023438,20.7558574 67.4023438,21.1542969 C67.4023438,21.4433608 67.4882804,21.6669914 67.6601562,21.8251953 C67.8320321,21.9833992 68.089842,22.0625 68.4335938,22.0625 Z M75.8046875,22.0039062 C76.1406267,22.0039062 76.4765608,21.9511724 76.8125,21.8457031 L76.8125,22.8828125 C76.6601555,22.9492191 76.4638684,23.0048826 76.2236328,23.0498047 C75.9833972,23.0947268 75.7343763,23.1171875 75.4765625,23.1171875 C74.1718685,23.1171875 73.5195312,22.4296944 73.5195312,21.0546875 L73.5195312,17.5625 L72.6347656,17.5625 L72.6347656,16.953125 L73.5839844,16.4492188 L74.0527344,15.078125 L74.9023438,15.078125 L74.9023438,16.5195312 L76.7480469,16.5195312 L76.7480469,17.5625 L74.9023438,17.5625 L74.9023438,21.03125 C74.9023438,21.3632829 74.9853507,21.6083976 75.1513672,21.7666016 C75.3173836,21.9248055 75.5351549,22.0039062 75.8046875,22.0039062 Z M80.9375,23.1171875 C79.9296825,23.1171875 79.1416044,22.8232451 78.5732422,22.2353516 C78.00488,21.647458 77.7207031,20.8378958 77.7207031,19.8066406 C77.7207031,18.7480416 77.9843724,17.9160187 78.5117188,17.3105469 C79.0390651,16.7050751 79.7636673,16.4023438 80.6855469,16.4023438 C81.5410199,16.4023438 82.2167944,16.6621068 82.7128906,17.1816406 C83.2089869,17.7011745 83.4570312,18.4160111 83.4570312,19.3261719 L83.4570312,20.0703125 L79.1386719,20.0703125 C79.1582032,20.6992219 79.3281234,21.1826155 79.6484375,21.5205078 C79.9687516,21.8584001 80.419919,22.0273438 81.0019531,22.0273438 C81.3847675,22.0273438 81.7412093,21.9912113 82.0712891,21.9189453 C82.4013688,21.8466793 82.7558575,21.7265633 83.1347656,21.5585938 L83.1347656,22.6777344 C82.7988264,22.8378914 82.4589861,22.9511715 82.1152344,23.0175781 C81.7714827,23.0839847 81.3789085,23.1171875 80.9375,23.1171875 Z M80.6855469,17.4453125 C80.2480447,17.4453125 79.8974623,17.583983 79.6337891,17.8613281 C79.3701159,18.1386733 79.2128909,18.5429661 79.1621094,19.0742188 L82.1035156,19.0742188 C82.0957031,18.5390598 81.9667981,18.1337904 81.7167969,17.8583984 C81.4667956,17.5830064 81.1230491,17.4453125 80.6855469,17.4453125 Z M86.4511719,21.7402344 C86.2636709,22.4668005 85.9199244,23.402338 85.4199219,24.546875 L84.40625,24.546875 C84.6757826,23.4921822 84.8769525,22.5117233 85.0097656,21.6054688 L86.3632812,21.6054688 L86.4511719,21.7402344 Z M41.9375,35.7480469 C41.9375,36.8066459 41.6660183,37.6328095 41.1230469,38.2265625 C40.5800754,38.8203155 39.8242236,39.1171875 38.8554688,39.1171875 C38.249997,39.1171875 37.7148461,38.9804701 37.25,38.7070312 C36.7851539,38.4335924 36.4277356,38.0410182 36.1777344,37.5292969 C35.9277331,37.0175756 35.8027344,36.4238315 35.8027344,35.7480469 C35.8027344,34.6972604 36.0722629,33.8769561 36.6113281,33.2871094 C37.1503933,32.6972627 37.9101513,32.4023438 38.890625,32.4023438 C39.8281297,32.4023438 40.5703098,32.7040985 41.1171875,33.3076172 C41.6640652,33.9111358 41.9375,34.7246043 41.9375,35.7480469 Z M37.2207031,35.7480469 C37.2207031,37.2441481 37.773432,37.9921875 38.8789062,37.9921875 C39.9726617,37.9921875 40.5195312,37.2441481 40.5195312,35.7480469 C40.5195312,34.2675707 39.9687555,33.5273438 38.8671875,33.5273438 C38.2890596,33.5273438 37.8701185,33.7187481 37.6103516,34.1015625 C37.3505846,34.4843769 37.2207031,35.0331996 37.2207031,35.7480469 Z M49.2207031,39 L47.8378906,39 L47.8378906,35.015625 C47.8378906,34.5156225 47.7373057,34.1425794 47.5361328,33.8964844 C47.3349599,33.6503894 47.0156272,33.5273438 46.578125,33.5273438 C45.9960908,33.5273438 45.5703138,33.699217 45.3007812,34.0429688 C45.0312487,34.3867205 44.8964844,34.9628866 44.8964844,35.7714844 L44.8964844,39 L43.5195312,39 L43.5195312,32.5195312 L44.5976562,32.5195312 L44.7910156,33.3691406 L44.8613281,33.3691406 C45.0566416,33.0605453 45.3339826,32.8222665 45.6933594,32.6542969 C46.0527362,32.4863273 46.4511697,32.4023438 46.8886719,32.4023438 C48.4433671,32.4023438 49.2207031,33.1933515 49.2207031,34.7753906 L49.2207031,39 Z M57.0839844,39.1171875 C56.0761668,39.1171875 55.2880888,38.8232451 54.7197266,38.2353516 C54.1513643,37.647458 53.8671875,36.8378958 53.8671875,35.8066406 C53.8671875,34.7480416 54.1308567,33.9160187 54.6582031,33.3105469 C55.1855495,32.7050751 55.9101516,32.4023438 56.8320312,32.4023438 C57.6875043,32.4023438 58.3632788,32.6621068 58.859375,33.1816406 C59.3554712,33.7011745 59.6035156,34.4160111 59.6035156,35.3261719 L59.6035156,36.0703125 L55.2851562,36.0703125 C55.3046876,36.6992219 55.4746078,37.1826155 55.7949219,37.5205078 C56.115236,37.8584001 56.5664033,38.0273438 57.1484375,38.0273438 C57.5312519,38.0273438 57.8876937,37.9912113 58.2177734,37.9189453 C58.5478532,37.8466793 58.9023419,37.7265633 59.28125,37.5585938 L59.28125,38.6777344 C58.9453108,38.8378914 58.6054705,38.9511715 58.2617188,39.0175781 C57.917967,39.0839847 57.5253928,39.1171875 57.0839844,39.1171875 Z M56.8320312,33.4453125 C56.3945291,33.4453125 56.0439466,33.583983 55.7802734,33.8613281 C55.5166002,34.1386733 55.3593753,34.5429661 55.3085938,35.0742188 L58.25,35.0742188 C58.2421875,34.5390598 58.1132825,34.1337904 57.8632812,33.8583984 C57.61328,33.5830064 57.2695334,33.4453125 56.8320312,33.4453125 Z M64.4550781,32.4023438 C64.7324233,32.4023438 64.9609366,32.4218748 65.140625,32.4609375 L65.0058594,33.7441406 C64.8105459,33.6972654 64.6074229,33.6738281 64.3964844,33.6738281 C63.8457004,33.6738281 63.3994158,33.8535138 63.0576172,34.2128906 C62.7158186,34.5722674 62.5449219,35.0390596 62.5449219,35.6132812 L62.5449219,39 L61.1679688,39 L61.1679688,32.5195312 L62.2460938,32.5195312 L62.4277344,33.6621094 L62.4980469,33.6621094 C62.7128917,33.2753887 62.9931623,32.9687511 63.3388672,32.7421875 C63.684572,32.5156239 64.0566386,32.4023438 64.4550781,32.4023438 Z M69.6289062,32.4023438 C69.9062514,32.4023438 70.1347647,32.4218748 70.3144531,32.4609375 L70.1796875,33.7441406 C69.984374,33.6972654 69.7812511,33.6738281 69.5703125,33.6738281 C69.0195285,33.6738281 68.5732439,33.8535138 68.2314453,34.2128906 C67.8896467,34.5722674 67.71875,35.0390596 67.71875,35.6132812 L67.71875,39 L66.3417969,39 L66.3417969,32.5195312 L67.4199219,32.5195312 L67.6015625,33.6621094 L67.671875,33.6621094 C67.8867198,33.2753887 68.1669905,32.9687511 68.5126953,32.7421875 C68.8584002,32.5156239 69.2304668,32.4023438 69.6289062,32.4023438 Z M77.0234375,35.7480469 C77.0234375,36.8066459 76.7519558,37.6328095 76.2089844,38.2265625 C75.6660129,38.8203155 74.9101611,39.1171875 73.9414062,39.1171875 C73.3359345,39.1171875 72.8007836,38.9804701 72.3359375,38.7070312 C71.8710914,38.4335924 71.5136731,38.0410182 71.2636719,37.5292969 C71.0136706,37.0175756 70.8886719,36.4238315 70.8886719,35.7480469 C70.8886719,34.6972604 71.1582004,33.8769561 71.6972656,33.2871094 C72.2363308,32.6972627 72.9960888,32.4023438 73.9765625,32.4023438 C74.9140672,32.4023438 75.6562473,32.7040985 76.203125,33.3076172 C76.7500027,33.9111358 77.0234375,34.7246043 77.0234375,35.7480469 Z M72.3066406,35.7480469 C72.3066406,37.2441481 72.8593695,37.9921875 73.9648438,37.9921875 C75.0585992,37.9921875 75.6054688,37.2441481 75.6054688,35.7480469 C75.6054688,34.2675707 75.054693,33.5273438 73.953125,33.5273438 C73.3749971,33.5273438 72.956056,33.7187481 72.6962891,34.1015625 C72.4365221,34.4843769 72.3066406,35.0331996 72.3066406,35.7480469 Z M81.8925781,32.4023438 C82.1699233,32.4023438 82.3984366,32.4218748 82.578125,32.4609375 L82.4433594,33.7441406 C82.2480459,33.6972654 82.0449229,33.6738281 81.8339844,33.6738281 C81.2832004,33.6738281 80.8369158,33.8535138 80.4951172,34.2128906 C80.1533186,34.5722674 79.9824219,35.0390596 79.9824219,35.6132812 L79.9824219,39 L78.6054688,39 L78.6054688,32.5195312 L79.6835938,32.5195312 L79.8652344,33.6621094 L79.9355469,33.6621094 C80.1503917,33.2753887 80.4306623,32.9687511 80.7763672,32.7421875 C81.122072,32.5156239 81.4941386,32.4023438 81.8925781,32.4023438 Z" id="text" fill="#1F1E1E"></path>
            </g>
            <g id="Round_block-Copy-46" transform="translate(1.000000, 288.000000)" fill-rule="nonzero">
                <rect id="Rectangle-Copy-14" fill="#E1E1E1" x="0" y="0" width="117" height="52" rx="22"></rect>
                <path d="M35.796875,23 L35.5214844,22.0976562 L35.4746094,22.0976562 C35.1621078,22.4921895 34.8476578,22.7607415 34.53125,22.9033203 C34.2148422,23.0458992 33.8085962,23.1171875 33.3125,23.1171875 C32.6757781,23.1171875 32.1787127,22.9453142 31.8212891,22.6015625 C31.4638654,22.2578108 31.2851562,21.7714875 31.2851562,21.1425781 C31.2851562,20.474606 31.5332006,19.9707048 32.0292969,19.6308594 C32.5253931,19.2910139 33.2812449,19.1054689 34.296875,19.0742188 L35.4160156,19.0390625 L35.4160156,18.6933594 C35.4160156,18.2792948 35.3193369,17.9697276 35.1259766,17.7646484 C34.9326162,17.5595693 34.6328145,17.4570312 34.2265625,17.4570312 C33.8945296,17.4570312 33.5761734,17.5058589 33.2714844,17.6035156 C32.9667954,17.7011724 32.6738295,17.8164056 32.3925781,17.9492188 L31.9472656,16.9648438 C32.2988299,16.7812491 32.6835917,16.641602 33.1015625,16.5458984 C33.5195333,16.4501948 33.9140606,16.4023438 34.2851562,16.4023438 C35.1093791,16.4023438 35.7314432,16.5820295 36.1513672,16.9414062 C36.5712912,17.300783 36.78125,17.8652305 36.78125,18.6347656 L36.78125,23 L35.796875,23 Z M33.7460938,22.0625 C34.2460963,22.0625 34.6474594,21.922853 34.9501953,21.6435547 C35.2529312,21.3642564 35.4042969,20.9726588 35.4042969,20.46875 L35.4042969,19.90625 L34.5722656,19.9414062 C33.9238249,19.9648439 33.4521499,20.0732412 33.1572266,20.2666016 C32.8623032,20.4599619 32.7148438,20.7558574 32.7148438,21.1542969 C32.7148438,21.4433608 32.8007804,21.6669914 32.9726562,21.8251953 C33.1445321,21.9833992 33.402342,22.0625 33.7460938,22.0625 Z M44.4042969,23 L43.0214844,23 L43.0214844,19.015625 C43.0214844,18.5156225 42.9208994,18.1425794 42.7197266,17.8964844 C42.5185537,17.6503894 42.1992209,17.5273438 41.7617188,17.5273438 C41.1796846,17.5273438 40.7539076,17.699217 40.484375,18.0429688 C40.2148424,18.3867205 40.0800781,18.9628866 40.0800781,19.7714844 L40.0800781,23 L38.703125,23 L38.703125,16.5195312 L39.78125,16.5195312 L39.9746094,17.3691406 L40.0449219,17.3691406 C40.2402354,17.0605453 40.5175763,16.8222665 40.8769531,16.6542969 C41.2363299,16.4863273 41.6347634,16.4023438 42.0722656,16.4023438 C43.6269609,16.4023438 44.4042969,17.1933515 44.4042969,18.7753906 L44.4042969,23 Z M45.3359375,16.5195312 L46.8359375,16.5195312 L48.1542969,20.1933594 C48.3535166,20.7167995 48.4863278,21.2089821 48.5527344,21.6699219 L48.5996094,21.6699219 C48.6347658,21.4550771 48.6992183,21.1943375 48.7929688,20.8876953 C48.8867192,20.5810532 49.382808,19.125013 50.28125,16.5195312 L51.7695312,16.5195312 L48.9980469,23.8613281 C48.4941381,25.2089911 47.6543028,25.8828125 46.4785156,25.8828125 C46.1738266,25.8828125 45.8769546,25.8496097 45.5878906,25.7832031 L45.5878906,24.6933594 C45.7949229,24.7402346 46.0312487,24.7636719 46.296875,24.7636719 C46.9609408,24.7636719 47.427733,24.3789101 47.6972656,23.609375 L47.9375,23 L45.3359375,16.5195312 Z M60.2246094,21.1542969 C60.2246094,21.7871125 59.9941429,22.2724592 59.5332031,22.6103516 C59.0722633,22.9482439 58.4121137,23.1171875 57.5527344,23.1171875 C56.6894488,23.1171875 55.9960964,22.9863294 55.4726562,22.7246094 L55.4726562,21.5351562 C56.2343788,21.8867205 56.9433561,22.0625 57.5996094,22.0625 C58.4472699,22.0625 58.8710938,21.8066432 58.8710938,21.2949219 C58.8710938,21.1308586 58.8242192,20.9941412 58.7304688,20.8847656 C58.6367183,20.7753901 58.4824229,20.66211 58.2675781,20.5449219 C58.0527333,20.4277338 57.7539082,20.2949226 57.3710938,20.1464844 C56.6249963,19.8574204 56.1201185,19.5683608 55.8564453,19.2792969 C55.5927721,18.9902329 55.4609375,18.6152367 55.4609375,18.1542969 C55.4609375,17.5996066 55.6845681,17.1689468 56.1318359,16.8623047 C56.5791038,16.5556625 57.1874962,16.4023438 57.9570312,16.4023438 C58.7187538,16.4023438 59.4394497,16.5566391 60.1191406,16.8652344 L59.6738281,17.9023438 C58.9746059,17.6132798 58.3867211,17.46875 57.9101562,17.46875 C57.1835901,17.46875 56.8203125,17.6757792 56.8203125,18.0898438 C56.8203125,18.2929698 56.9150381,18.464843 57.1044922,18.6054688 C57.2939463,18.7460945 57.7070281,18.9394519 58.34375,19.1855469 C58.8789089,19.3925792 59.2675769,19.5820304 59.5097656,19.7539062 C59.7519543,19.9257821 59.93164,20.1240223 60.0488281,20.3486328 C60.1660162,20.5732433 60.2246094,20.8417953 60.2246094,21.1542969 Z M64.1269531,22.0039062 C64.4628923,22.0039062 64.7988264,21.9511724 65.1347656,21.8457031 L65.1347656,22.8828125 C64.9824211,22.9492191 64.786134,23.0048826 64.5458984,23.0498047 C64.3056629,23.0947268 64.0566419,23.1171875 63.7988281,23.1171875 C62.4941341,23.1171875 61.8417969,22.4296944 61.8417969,21.0546875 L61.8417969,17.5625 L60.9570312,17.5625 L60.9570312,16.953125 L61.90625,16.4492188 L62.375,15.078125 L63.2246094,15.078125 L63.2246094,16.5195312 L65.0703125,16.5195312 L65.0703125,17.5625 L63.2246094,17.5625 L63.2246094,21.03125 C63.2246094,21.3632829 63.3076164,21.6083976 63.4736328,21.7666016 C63.6396493,21.9248055 63.8574205,22.0039062 64.1269531,22.0039062 Z M70.484375,23 L70.2089844,22.0976562 L70.1621094,22.0976562 C69.8496078,22.4921895 69.5351578,22.7607415 69.21875,22.9033203 C68.9023422,23.0458992 68.4960962,23.1171875 68,23.1171875 C67.3632781,23.1171875 66.8662127,22.9453142 66.5087891,22.6015625 C66.1513654,22.2578108 65.9726562,21.7714875 65.9726562,21.1425781 C65.9726562,20.474606 66.2207006,19.9707048 66.7167969,19.6308594 C67.2128931,19.2910139 67.9687449,19.1054689 68.984375,19.0742188 L70.1035156,19.0390625 L70.1035156,18.6933594 C70.1035156,18.2792948 70.0068369,17.9697276 69.8134766,17.7646484 C69.6201162,17.5595693 69.3203145,17.4570312 68.9140625,17.4570312 C68.5820296,17.4570312 68.2636734,17.5058589 67.9589844,17.6035156 C67.6542954,17.7011724 67.3613295,17.8164056 67.0800781,17.9492188 L66.6347656,16.9648438 C66.9863299,16.7812491 67.3710917,16.641602 67.7890625,16.5458984 C68.2070333,16.4501948 68.6015606,16.4023438 68.9726562,16.4023438 C69.7968791,16.4023438 70.4189432,16.5820295 70.8388672,16.9414062 C71.2587912,17.300783 71.46875,17.8652305 71.46875,18.6347656 L71.46875,23 L70.484375,23 Z M68.4335938,22.0625 C68.9335962,22.0625 69.3349594,21.922853 69.6376953,21.6435547 C69.9404312,21.3642564 70.0917969,20.9726588 70.0917969,20.46875 L70.0917969,19.90625 L69.2597656,19.9414062 C68.6113249,19.9648439 68.1396499,20.0732412 67.8447266,20.2666016 C67.5498032,20.4599619 67.4023438,20.7558574 67.4023438,21.1542969 C67.4023438,21.4433608 67.4882804,21.6669914 67.6601562,21.8251953 C67.8320321,21.9833992 68.089842,22.0625 68.4335938,22.0625 Z M75.8046875,22.0039062 C76.1406267,22.0039062 76.4765608,21.9511724 76.8125,21.8457031 L76.8125,22.8828125 C76.6601555,22.9492191 76.4638684,23.0048826 76.2236328,23.0498047 C75.9833972,23.0947268 75.7343763,23.1171875 75.4765625,23.1171875 C74.1718685,23.1171875 73.5195312,22.4296944 73.5195312,21.0546875 L73.5195312,17.5625 L72.6347656,17.5625 L72.6347656,16.953125 L73.5839844,16.4492188 L74.0527344,15.078125 L74.9023438,15.078125 L74.9023438,16.5195312 L76.7480469,16.5195312 L76.7480469,17.5625 L74.9023438,17.5625 L74.9023438,21.03125 C74.9023438,21.3632829 74.9853507,21.6083976 75.1513672,21.7666016 C75.3173836,21.9248055 75.5351549,22.0039062 75.8046875,22.0039062 Z M80.9375,23.1171875 C79.9296825,23.1171875 79.1416044,22.8232451 78.5732422,22.2353516 C78.00488,21.647458 77.7207031,20.8378958 77.7207031,19.8066406 C77.7207031,18.7480416 77.9843724,17.9160187 78.5117188,17.3105469 C79.0390651,16.7050751 79.7636673,16.4023438 80.6855469,16.4023438 C81.5410199,16.4023438 82.2167944,16.6621068 82.7128906,17.1816406 C83.2089869,17.7011745 83.4570312,18.4160111 83.4570312,19.3261719 L83.4570312,20.0703125 L79.1386719,20.0703125 C79.1582032,20.6992219 79.3281234,21.1826155 79.6484375,21.5205078 C79.9687516,21.8584001 80.419919,22.0273438 81.0019531,22.0273438 C81.3847675,22.0273438 81.7412093,21.9912113 82.0712891,21.9189453 C82.4013688,21.8466793 82.7558575,21.7265633 83.1347656,21.5585938 L83.1347656,22.6777344 C82.7988264,22.8378914 82.4589861,22.9511715 82.1152344,23.0175781 C81.7714827,23.0839847 81.3789085,23.1171875 80.9375,23.1171875 Z M80.6855469,17.4453125 C80.2480447,17.4453125 79.8974623,17.583983 79.6337891,17.8613281 C79.3701159,18.1386733 79.2128909,18.5429661 79.1621094,19.0742188 L82.1035156,19.0742188 C82.0957031,18.5390598 81.9667981,18.1337904 81.7167969,17.8583984 C81.4667956,17.5830064 81.1230491,17.4453125 80.6855469,17.4453125 Z M86.4511719,21.7402344 C86.2636709,22.4668005 85.9199244,23.402338 85.4199219,24.546875 L84.40625,24.546875 C84.6757826,23.4921822 84.8769525,22.5117233 85.0097656,21.6054688 L86.3632812,21.6054688 L86.4511719,21.7402344 Z M37.0683594,32.4023438 C37.8769572,32.4023438 38.5068337,32.6953096 38.9580078,33.28125 C39.4091819,33.8671904 39.6347656,34.6894478 39.6347656,35.7480469 C39.6347656,36.8105522 39.4062523,37.6376924 38.9492188,38.2294922 C38.4921852,38.821292 37.8574259,39.1171875 37.0449219,39.1171875 C36.2246053,39.1171875 35.5878929,38.8222686 35.1347656,38.2324219 L35.0410156,38.2324219 L34.7890625,39 L33.7578125,39 L33.7578125,29.8828125 L35.1347656,29.8828125 L35.1347656,32.0507812 C35.1347656,32.2109383 35.1269532,32.4492172 35.1113281,32.765625 C35.095703,33.0820328 35.0839844,33.2832027 35.0761719,33.3691406 L35.1347656,33.3691406 C35.5722678,32.7246062 36.2167926,32.4023438 37.0683594,32.4023438 Z M36.7109375,33.5273438 C36.1562472,33.5273438 35.7568372,33.6904281 35.5126953,34.0166016 C35.2685535,34.3427751 35.1425782,34.888668 35.1347656,35.6542969 L35.1347656,35.7480469 C35.1347656,36.5371133 35.2597644,37.1083967 35.5097656,37.4619141 C35.7597669,37.8154315 36.1679659,37.9921875 36.734375,37.9921875 C37.2226587,37.9921875 37.5927722,37.7988301 37.8447266,37.4121094 C38.0966809,37.0253887 38.2226562,36.4668005 38.2226562,35.7363281 C38.2226562,34.2636645 37.718755,33.5273438 36.7109375,33.5273438 Z M45.8046875,39 L45.6113281,38.1503906 L45.5410156,38.1503906 C45.3496084,38.4511734 45.0771502,38.6874991 44.7236328,38.859375 C44.3701154,39.0312509 43.9667991,39.1171875 43.5136719,39.1171875 C42.7285117,39.1171875 42.1425801,38.921877 41.7558594,38.53125 C41.3691387,38.140623 41.1757812,37.5488321 41.1757812,36.7558594 L41.1757812,32.5195312 L42.5644531,32.5195312 L42.5644531,36.515625 C42.5644531,37.0117212 42.6660146,37.3837878 42.8691406,37.6318359 C43.0722666,37.8798841 43.3906228,38.0039062 43.8242188,38.0039062 C44.4023466,38.0039062 44.8271471,37.8310564 45.0986328,37.4853516 C45.3701185,37.1396467 45.5058594,36.5605509 45.5058594,35.7480469 L45.5058594,32.5195312 L46.8886719,32.5195312 L46.8886719,39 L45.8046875,39 Z M51.265625,38.0039062 C51.6015642,38.0039062 51.9374983,37.9511724 52.2734375,37.8457031 L52.2734375,38.8828125 C52.121093,38.9492191 51.9248059,39.0048826 51.6845703,39.0498047 C51.4443347,39.0947268 51.1953138,39.1171875 50.9375,39.1171875 C49.632806,39.1171875 48.9804688,38.4296944 48.9804688,37.0546875 L48.9804688,33.5625 L48.0957031,33.5625 L48.0957031,32.953125 L49.0449219,32.4492188 L49.5136719,31.078125 L50.3632812,31.078125 L50.3632812,32.5195312 L52.2089844,32.5195312 L52.2089844,33.5625 L50.3632812,33.5625 L50.3632812,37.03125 C50.3632812,37.3632829 50.4462882,37.6083976 50.6123047,37.7666016 C50.7783211,37.9248055 50.9960924,38.0039062 51.265625,38.0039062 Z M59.515625,39.1171875 C58.5078075,39.1171875 57.7197294,38.8232451 57.1513672,38.2353516 C56.583005,37.647458 56.2988281,36.8378958 56.2988281,35.8066406 C56.2988281,34.7480416 56.5624974,33.9160187 57.0898438,33.3105469 C57.6171901,32.7050751 58.3417923,32.4023438 59.2636719,32.4023438 C60.1191449,32.4023438 60.7949194,32.6621068 61.2910156,33.1816406 C61.7871119,33.7011745 62.0351562,34.4160111 62.0351562,35.3261719 L62.0351562,36.0703125 L57.7167969,36.0703125 C57.7363282,36.6992219 57.9062484,37.1826155 58.2265625,37.5205078 C58.5468766,37.8584001 58.998044,38.0273438 59.5800781,38.0273438 C59.9628925,38.0273438 60.3193343,37.9912113 60.6494141,37.9189453 C60.9794938,37.8466793 61.3339825,37.7265633 61.7128906,37.5585938 L61.7128906,38.6777344 C61.3769514,38.8378914 61.0371111,38.9511715 60.6933594,39.0175781 C60.3496077,39.0839847 59.9570335,39.1171875 59.515625,39.1171875 Z M59.2636719,33.4453125 C58.8261697,33.4453125 58.4755873,33.583983 58.2119141,33.8613281 C57.9482409,34.1386733 57.7910159,34.5429661 57.7402344,35.0742188 L60.6816406,35.0742188 C60.6738281,34.5390598 60.5449231,34.1337904 60.2949219,33.8583984 C60.0449206,33.5830064 59.7011741,33.4453125 59.2636719,33.4453125 Z M66.8867188,32.4023438 C67.1640639,32.4023438 67.3925772,32.4218748 67.5722656,32.4609375 L67.4375,33.7441406 C67.2421865,33.6972654 67.0390636,33.6738281 66.828125,33.6738281 C66.277341,33.6738281 65.8310564,33.8535138 65.4892578,34.2128906 C65.1474592,34.5722674 64.9765625,35.0390596 64.9765625,35.6132812 L64.9765625,39 L63.5996094,39 L63.5996094,32.5195312 L64.6777344,32.5195312 L64.859375,33.6621094 L64.9296875,33.6621094 C65.1445323,33.2753887 65.424803,32.9687511 65.7705078,32.7421875 C66.1162127,32.5156239 66.4882793,32.4023438 66.8867188,32.4023438 Z M72.0605469,32.4023438 C72.337892,32.4023438 72.5664054,32.4218748 72.7460938,32.4609375 L72.6113281,33.7441406 C72.4160146,33.6972654 72.2128917,33.6738281 72.0019531,33.6738281 C71.4511691,33.6738281 71.0048845,33.8535138 70.6630859,34.2128906 C70.3212874,34.5722674 70.1503906,35.0390596 70.1503906,35.6132812 L70.1503906,39 L68.7734375,39 L68.7734375,32.5195312 L69.8515625,32.5195312 L70.0332031,33.6621094 L70.1035156,33.6621094 C70.3183604,33.2753887 70.5986311,32.9687511 70.9443359,32.7421875 C71.2900408,32.5156239 71.6621074,32.4023438 72.0605469,32.4023438 Z M79.4550781,35.7480469 C79.4550781,36.8066459 79.1835965,37.6328095 78.640625,38.2265625 C78.0976535,38.8203155 77.3418017,39.1171875 76.3730469,39.1171875 C75.7675751,39.1171875 75.2324242,38.9804701 74.7675781,38.7070312 C74.3027321,38.4335924 73.9453137,38.0410182 73.6953125,37.5292969 C73.4453113,37.0175756 73.3203125,36.4238315 73.3203125,35.7480469 C73.3203125,34.6972604 73.5898411,33.8769561 74.1289062,33.2871094 C74.6679714,32.6972627 75.4277295,32.4023438 76.4082031,32.4023438 C77.3457078,32.4023438 78.0878879,32.7040985 78.6347656,33.3076172 C79.1816434,33.9111358 79.4550781,34.7246043 79.4550781,35.7480469 Z M74.7382812,35.7480469 C74.7382812,37.2441481 75.2910101,37.9921875 76.3964844,37.9921875 C77.4902398,37.9921875 78.0371094,37.2441481 78.0371094,35.7480469 C78.0371094,34.2675707 77.4863336,33.5273438 76.3847656,33.5273438 C75.8066377,33.5273438 75.3876966,33.7187481 75.1279297,34.1015625 C74.8681628,34.4843769 74.7382812,35.0331996 74.7382812,35.7480469 Z M84.3242188,32.4023438 C84.6015639,32.4023438 84.8300772,32.4218748 85.0097656,32.4609375 L84.875,33.7441406 C84.6796865,33.6972654 84.4765636,33.6738281 84.265625,33.6738281 C83.714841,33.6738281 83.2685564,33.8535138 82.9267578,34.2128906 C82.5849592,34.5722674 82.4140625,35.0390596 82.4140625,35.6132812 L82.4140625,39 L81.0371094,39 L81.0371094,32.5195312 L82.1152344,32.5195312 L82.296875,33.6621094 L82.3671875,33.6621094 C82.5820323,33.2753887 82.862303,32.9687511 83.2080078,32.7421875 C83.5537127,32.5156239 83.9257793,32.4023438 84.3242188,32.4023438 Z" id="text" fill="#1F1E1E"></path>
            </g>
            <g id="Round_block-Copy-45" transform="translate(155.000000, 144.000000)" fill-rule="nonzero">
                <rect id="Rectangle-Copy-14" fill="#E1E1E1" x="0" y="0" width="124" height="32" rx="14"></rect>
                <path d="M19.5136719,20.1171875 C18.5058543,20.1171875 17.7177763,19.8232451 17.1494141,19.2353516 C16.5810518,18.647458 16.296875,17.8378958 16.296875,16.8066406 C16.296875,15.7480416 16.5605442,14.9160187 17.0878906,14.3105469 C17.615237,13.7050751 18.3398391,13.4023438 19.2617188,13.4023438 C20.1171918,13.4023438 20.7929663,13.6621068 21.2890625,14.1816406 C21.7851587,14.7011745 22.0332031,15.4160111 22.0332031,16.3261719 L22.0332031,17.0703125 L17.7148438,17.0703125 C17.7343751,17.6992219 17.9042953,18.1826155 18.2246094,18.5205078 C18.5449235,18.8584001 18.9960908,19.0273438 19.578125,19.0273438 C19.9609394,19.0273438 20.3173812,18.9912113 20.6474609,18.9189453 C20.9775407,18.8466793 21.3320294,18.7265633 21.7109375,18.5585938 L21.7109375,19.6777344 C21.3749983,19.8378914 21.035158,19.9511715 20.6914063,20.0175781 C20.3476545,20.0839847 19.9550803,20.1171875 19.5136719,20.1171875 Z M19.2617188,14.4453125 C18.8242166,14.4453125 18.4736341,14.583983 18.2099609,14.8613281 C17.9462877,15.1386733 17.7890628,15.5429661 17.7382813,16.0742188 L20.6796875,16.0742188 C20.671875,15.5390598 20.54297,15.1337904 20.2929688,14.8583984 C20.0429675,14.5830064 19.6992209,14.4453125 19.2617188,14.4453125 Z M26.8847656,13.4023438 C27.1621108,13.4023438 27.3906241,13.4218748 27.5703125,13.4609375 L27.4355469,14.7441406 C27.2402334,14.6972654 27.0371104,14.6738281 26.8261719,14.6738281 C26.2753879,14.6738281 25.8291033,14.8535138 25.4873047,15.2128906 C25.1455061,15.5722674 24.9746094,16.0390596 24.9746094,16.6132812 L24.9746094,20 L23.5976562,20 L23.5976562,13.5195312 L24.6757812,13.5195312 L24.8574219,14.6621094 L24.9277344,14.6621094 C25.1425792,14.2753887 25.4228498,13.9687511 25.7685547,13.7421875 C26.1142595,13.5156239 26.4863261,13.4023438 26.8847656,13.4023438 Z M32.0585938,13.4023438 C32.3359389,13.4023438 32.5644522,13.4218748 32.7441406,13.4609375 L32.609375,14.7441406 C32.4140615,14.6972654 32.2109386,14.6738281 32,14.6738281 C31.449216,14.6738281 31.0029314,14.8535138 30.6611328,15.2128906 C30.3193342,15.5722674 30.1484375,16.0390596 30.1484375,16.6132812 L30.1484375,20 L28.7714844,20 L28.7714844,13.5195312 L29.8496094,13.5195312 L30.03125,14.6621094 L30.1015625,14.6621094 C30.3164073,14.2753887 30.596678,13.9687511 30.9423828,13.7421875 C31.2880877,13.5156239 31.6601543,13.4023438 32.0585938,13.4023438 Z M39.453125,16.7480469 C39.453125,17.8066459 39.1816433,18.6328095 38.6386719,19.2265625 C38.0957004,19.8203155 37.3398486,20.1171875 36.3710938,20.1171875 C35.765622,20.1171875 35.2304711,19.9804701 34.765625,19.7070312 C34.3007789,19.4335924 33.9433606,19.0410182 33.6933594,18.5292969 C33.4433581,18.0175756 33.3183594,17.4238315 33.3183594,16.7480469 C33.3183594,15.6972604 33.5878879,14.8769561 34.1269531,14.2871094 C34.6660183,13.6972627 35.4257763,13.4023438 36.40625,13.4023438 C37.3437547,13.4023438 38.0859348,13.7040985 38.6328125,14.3076172 C39.1796902,14.9111358 39.453125,15.7246043 39.453125,16.7480469 Z M34.7363281,16.7480469 C34.7363281,18.2441481 35.289057,18.9921875 36.3945312,18.9921875 C37.4882867,18.9921875 38.0351562,18.2441481 38.0351562,16.7480469 C38.0351562,15.2675707 37.4843805,14.5273438 36.3828125,14.5273438 C35.8046846,14.5273438 35.3857435,14.7187481 35.1259766,15.1015625 C34.8662096,15.4843769 34.7363281,16.0331996 34.7363281,16.7480469 Z M44.3222656,13.4023438 C44.5996108,13.4023438 44.8281241,13.4218748 45.0078125,13.4609375 L44.8730469,14.7441406 C44.6777334,14.6972654 44.4746104,14.6738281 44.2636719,14.6738281 C43.7128879,14.6738281 43.2666033,14.8535138 42.9248047,15.2128906 C42.5830061,15.5722674 42.4121094,16.0390596 42.4121094,16.6132812 L42.4121094,20 L41.0351562,20 L41.0351562,13.5195312 L42.1132812,13.5195312 L42.2949219,14.6621094 L42.3652344,14.6621094 C42.5800792,14.2753887 42.8603498,13.9687511 43.2060547,13.7421875 C43.5517595,13.5156239 43.9238261,13.4023438 44.3222656,13.4023438 Z M50.3984375,21.8691406 L45.2011719,21.8691406 L45.2011719,21.078125 L50.3984375,21.078125 L50.3984375,21.8691406 Z M54.6464844,13.4023438 C54.9238295,13.4023438 55.1523429,13.4218748 55.3320312,13.4609375 L55.1972656,14.7441406 C55.0019521,14.6972654 54.7988292,14.6738281 54.5878906,14.6738281 C54.0371066,14.6738281 53.590822,14.8535138 53.2490234,15.2128906 C52.9072249,15.5722674 52.7363281,16.0390596 52.7363281,16.6132812 L52.7363281,20 L51.359375,20 L51.359375,13.5195312 L52.4375,13.5195312 L52.6191406,14.6621094 L52.6894531,14.6621094 C52.9042979,14.2753887 53.1845686,13.9687511 53.5302734,13.7421875 C53.8759783,13.5156239 54.2480449,13.4023438 54.6464844,13.4023438 Z M59.1230469,20.1171875 C58.1152293,20.1171875 57.3271513,19.8232451 56.7587891,19.2353516 C56.1904268,18.647458 55.90625,17.8378958 55.90625,16.8066406 C55.90625,15.7480416 56.1699192,14.9160187 56.6972656,14.3105469 C57.224612,13.7050751 57.9492141,13.4023438 58.8710938,13.4023438 C59.7265668,13.4023438 60.4023413,13.6621068 60.8984375,14.1816406 C61.3945337,14.7011745 61.6425781,15.4160111 61.6425781,16.3261719 L61.6425781,17.0703125 L57.3242188,17.0703125 C57.3437501,17.6992219 57.5136703,18.1826155 57.8339844,18.5205078 C58.1542985,18.8584001 58.6054658,19.0273438 59.1875,19.0273438 C59.5703144,19.0273438 59.9267562,18.9912113 60.2568359,18.9189453 C60.5869157,18.8466793 60.9414044,18.7265633 61.3203125,18.5585938 L61.3203125,19.6777344 C60.9843733,19.8378914 60.644533,19.9511715 60.3007812,20.0175781 C59.9570295,20.0839847 59.5644553,20.1171875 59.1230469,20.1171875 Z M58.8710938,14.4453125 C58.4335916,14.4453125 58.0830091,14.583983 57.8193359,14.8613281 C57.5556627,15.1386733 57.3984378,15.5429661 57.3476562,16.0742188 L60.2890625,16.0742188 C60.28125,15.5390598 60.152345,15.1337904 59.9023438,14.8583984 C59.6523425,14.5830064 59.3085959,14.4453125 58.8710938,14.4453125 Z M65.8203125,20.1171875 C64.8398388,20.1171875 64.0947291,19.8310575 63.5849609,19.2587891 C63.0751928,18.6865206 62.8203125,17.8652397 62.8203125,16.7949219 C62.8203125,15.7050727 63.0869114,14.8671904 63.6201172,14.28125 C64.153323,13.6953096 64.9238231,13.4023438 65.9316406,13.4023438 C66.6152378,13.4023438 67.230466,13.5292956 67.7773438,13.7832031 L67.3613281,14.890625 C66.779294,14.6640614 66.29883,14.5507812 65.9199219,14.5507812 C64.7988225,14.5507812 64.2382812,15.2949144 64.2382812,16.7832031 C64.2382812,17.5097693 64.3779283,18.0556622 64.6572266,18.4208984 C64.9365248,18.7861346 65.3457004,18.96875 65.8847656,18.96875 C66.4980499,18.96875 67.0781223,18.8164078 67.625,18.5117188 L67.625,19.7128906 C67.378905,19.8574226 67.1162123,19.9609372 66.8369141,20.0234375 C66.5576158,20.0859378 66.218752,20.1171875 65.8203125,20.1171875 Z M74.8964844,16.7480469 C74.8964844,17.8066459 74.6250027,18.6328095 74.0820312,19.2265625 C73.5390598,19.8203155 72.783208,20.1171875 71.8144531,20.1171875 C71.2089813,20.1171875 70.6738304,19.9804701 70.2089844,19.7070312 C69.7441383,19.4335924 69.38672,19.0410182 69.1367188,18.5292969 C68.8867175,18.0175756 68.7617188,17.4238315 68.7617188,16.7480469 C68.7617188,15.6972604 69.0312473,14.8769561 69.5703125,14.2871094 C70.1093777,13.6972627 70.8691357,13.4023438 71.8496094,13.4023438 C72.7871141,13.4023438 73.5292941,13.7040985 74.0761719,14.3076172 C74.6230496,14.9111358 74.8964844,15.7246043 74.8964844,16.7480469 Z M70.1796875,16.7480469 C70.1796875,18.2441481 70.7324163,18.9921875 71.8378906,18.9921875 C72.9316461,18.9921875 73.4785156,18.2441481 73.4785156,16.7480469 C73.4785156,15.2675707 72.9277399,14.5273438 71.8261719,14.5273438 C71.248044,14.5273438 70.8291029,14.7187481 70.5693359,15.1015625 C70.309569,15.4843769 70.1796875,16.0331996 70.1796875,16.7480469 Z M82.1796875,20 L80.796875,20 L80.796875,16.015625 C80.796875,15.5156225 80.6962901,15.1425794 80.4951172,14.8964844 C80.2939443,14.6503894 79.9746116,14.5273438 79.5371094,14.5273438 C78.9550752,14.5273438 78.5292982,14.699217 78.2597656,15.0429688 C77.990233,15.3867205 77.8554688,15.9628866 77.8554688,16.7714844 L77.8554688,20 L76.4785156,20 L76.4785156,13.5195312 L77.5566406,13.5195312 L77.75,14.3691406 L77.8203125,14.3691406 C78.015626,14.0605453 78.292967,13.8222665 78.6523438,13.6542969 C79.0117205,13.4863273 79.4101541,13.4023438 79.8476563,13.4023438 C81.4023515,13.4023438 82.1796875,14.1933515 82.1796875,15.7753906 L82.1796875,20 Z M89.796875,20 L88.4140625,20 L88.4140625,16.015625 C88.4140625,15.5156225 88.3134776,15.1425794 88.1123047,14.8964844 C87.9111318,14.6503894 87.5917991,14.5273438 87.1542969,14.5273438 C86.5722627,14.5273438 86.1464857,14.699217 85.8769531,15.0429688 C85.6074205,15.3867205 85.4726562,15.9628866 85.4726562,16.7714844 L85.4726562,20 L84.0957031,20 L84.0957031,13.5195312 L85.1738281,13.5195312 L85.3671875,14.3691406 L85.4375,14.3691406 C85.6328135,14.0605453 85.9101545,13.8222665 86.2695312,13.6542969 C86.628908,13.4863273 87.0273416,13.4023438 87.4648438,13.4023438 C89.019539,13.4023438 89.796875,14.1933515 89.796875,15.7753906 L89.796875,20 Z M94.5429688,20.1171875 C93.5351512,20.1171875 92.7470732,19.8232451 92.1787109,19.2353516 C91.6103487,18.647458 91.3261719,17.8378958 91.3261719,16.8066406 C91.3261719,15.7480416 91.5898411,14.9160187 92.1171875,14.3105469 C92.6445339,13.7050751 93.369136,13.4023438 94.2910156,13.4023438 C95.1464887,13.4023438 95.8222631,13.6621068 96.3183594,14.1816406 C96.8144556,14.7011745 97.0625,15.4160111 97.0625,16.3261719 L97.0625,17.0703125 L92.7441406,17.0703125 C92.763672,17.6992219 92.9335921,18.1826155 93.2539062,18.5205078 C93.5742204,18.8584001 94.0253877,19.0273438 94.6074219,19.0273438 C94.9902363,19.0273438 95.346678,18.9912113 95.6767578,18.9189453 C96.0068376,18.8466793 96.3613262,18.7265633 96.7402344,18.5585938 L96.7402344,19.6777344 C96.4042952,19.8378914 96.0644548,19.9511715 95.7207031,20.0175781 C95.3769514,20.0839847 94.9843772,20.1171875 94.5429688,20.1171875 Z M94.2910156,14.4453125 C93.8535134,14.4453125 93.502931,14.583983 93.2392578,14.8613281 C92.9755846,15.1386733 92.8183596,15.5429661 92.7675781,16.0742188 L95.7089844,16.0742188 C95.7011718,15.5390598 95.5722669,15.1337904 95.3222656,14.8583984 C95.0722644,14.5830064 94.7285178,14.4453125 94.2910156,14.4453125 Z M101.240234,20.1171875 C100.259761,20.1171875 99.514651,19.8310575 99.0048828,19.2587891 C98.4951146,18.6865206 98.2402344,17.8652397 98.2402344,16.7949219 C98.2402344,15.7050727 98.5068333,14.8671904 99.0400391,14.28125 C99.5732449,13.6953096 100.343745,13.4023438 101.351562,13.4023438 C102.03516,13.4023438 102.650388,13.5292956 103.197266,13.7832031 L102.78125,14.890625 C102.199216,14.6640614 101.718752,14.5507812 101.339844,14.5507812 C100.218744,14.5507812 99.6582031,15.2949144 99.6582031,16.7832031 C99.6582031,17.5097693 99.7978502,18.0556622 100.077148,18.4208984 C100.356447,18.7861346 100.765622,18.96875 101.304688,18.96875 C101.917972,18.96875 102.498044,18.8164078 103.044922,18.5117188 L103.044922,19.7128906 C102.798827,19.8574226 102.536134,19.9609372 102.256836,20.0234375 C101.977538,20.0859378 101.638674,20.1171875 101.240234,20.1171875 Z M106.982422,19.0039062 C107.318361,19.0039062 107.654295,18.9511724 107.990234,18.8457031 L107.990234,19.8828125 C107.83789,19.9492191 107.641603,20.0048826 107.401367,20.0498047 C107.161132,20.0947268 106.912111,20.1171875 106.654297,20.1171875 C105.349603,20.1171875 104.697266,19.4296944 104.697266,18.0546875 L104.697266,14.5625 L103.8125,14.5625 L103.8125,13.953125 L104.761719,13.4492188 L105.230469,12.078125 L106.080078,12.078125 L106.080078,13.5195312 L107.925781,13.5195312 L107.925781,14.5625 L106.080078,14.5625 L106.080078,18.03125 C106.080078,18.3632829 106.163085,18.6083976 106.329102,18.7666016 C106.495118,18.9248055 106.712889,19.0039062 106.982422,19.0039062 Z" id="text" fill="#1F1E1E"></path>
            </g>
            <g id="Round_block-Copy-47" transform="translate(155.000000, 298.000000)" fill-rule="nonzero">
                <rect id="Rectangle-Copy-14" fill="#E1E1E1" x="0" y="0" width="124" height="32" rx="14"></rect>
                <path d="M47.1728516,21.1171875 C46.1923779,21.1171875 45.4472682,20.8310575 44.9375,20.2587891 C44.4277318,19.6865206 44.1728516,18.8652397 44.1728516,17.7949219 C44.1728516,16.7050727 44.4394505,15.8671904 44.9726562,15.28125 C45.505862,14.6953096 46.2763621,14.4023438 47.2841797,14.4023438 C47.9677769,14.4023438 48.5830051,14.5292956 49.1298828,14.7832031 L48.7138672,15.890625 C48.131833,15.6640614 47.6513691,15.5507812 47.2724609,15.5507812 C46.1513616,15.5507812 45.5908203,16.2949144 45.5908203,17.7832031 C45.5908203,18.5097693 45.7304674,19.0556622 46.0097656,19.4208984 C46.2890639,19.7861346 46.6982395,19.96875 47.2373047,19.96875 C47.850589,19.96875 48.4306613,19.8164078 48.9775391,19.5117188 L48.9775391,20.7128906 C48.7314441,20.8574226 48.4687514,20.9609372 48.1894531,21.0234375 C47.9101549,21.0859378 47.5712911,21.1171875 47.1728516,21.1171875 Z M51.8779297,21 L50.5009766,21 L50.5009766,11.8828125 L51.8779297,11.8828125 L51.8779297,21 Z M59.5947266,17.7480469 C59.5947266,18.8066459 59.3232449,19.6328095 58.7802734,20.2265625 C58.237302,20.8203155 57.4814502,21.1171875 56.5126953,21.1171875 C55.9072235,21.1171875 55.3720726,20.9804701 54.9072266,20.7070312 C54.4423805,20.4335924 54.0849622,20.0410182 53.8349609,19.5292969 C53.5849597,19.0175756 53.4599609,18.4238315 53.4599609,17.7480469 C53.4599609,16.6972604 53.7294895,15.8769561 54.2685547,15.2871094 C54.8076199,14.6972627 55.5673779,14.4023438 56.5478516,14.4023438 C57.4853562,14.4023438 58.2275363,14.7040985 58.7744141,15.3076172 C59.3212918,15.9111358 59.5947266,16.7246043 59.5947266,17.7480469 Z M54.8779297,17.7480469 C54.8779297,19.2441481 55.4306585,19.9921875 56.5361328,19.9921875 C57.6298883,19.9921875 58.1767578,19.2441481 58.1767578,17.7480469 C58.1767578,16.2675707 57.6259821,15.5273438 56.5244141,15.5273438 C55.9462862,15.5273438 55.527345,15.7187481 55.2675781,16.1015625 C55.0078112,16.4843769 54.8779297,17.0331996 54.8779297,17.7480469 Z M65.5302734,19.1542969 C65.5302734,19.7871125 65.299807,20.2724592 64.8388672,20.6103516 C64.3779274,20.9482439 63.7177777,21.1171875 62.8583984,21.1171875 C61.9951129,21.1171875 61.3017604,20.9863294 60.7783203,20.7246094 L60.7783203,19.5351562 C61.5400429,19.8867205 62.2490202,20.0625 62.9052734,20.0625 C63.7529339,20.0625 64.1767578,19.8066432 64.1767578,19.2949219 C64.1767578,19.1308586 64.1298833,18.9941412 64.0361328,18.8847656 C63.9423823,18.7753901 63.788087,18.66211 63.5732422,18.5449219 C63.3583974,18.4277338 63.0595722,18.2949226 62.6767578,18.1464844 C61.9306603,17.8574204 61.4257826,17.5683608 61.1621094,17.2792969 C60.8984362,16.9902329 60.7666016,16.6152367 60.7666016,16.1542969 C60.7666016,15.5996066 60.9902321,15.1689468 61.4375,14.8623047 C61.8847679,14.5556625 62.4931602,14.4023438 63.2626953,14.4023438 C64.0244179,14.4023438 64.7451138,14.5566391 65.4248047,14.8652344 L64.9794922,15.9023438 C64.2802699,15.6132798 63.6923852,15.46875 63.2158203,15.46875 C62.4892542,15.46875 62.1259766,15.6757792 62.1259766,16.0898438 C62.1259766,16.2929698 62.2207022,16.464843 62.4101562,16.6054688 C62.5996103,16.7460945 63.0126921,16.9394519 63.6494141,17.1855469 C64.184573,17.3925792 64.573241,17.5820304 64.8154297,17.7539062 C65.0576184,17.9257821 65.2373041,18.1240223 65.3544922,18.3486328 C65.4716803,18.5732433 65.5302734,18.8417953 65.5302734,19.1542969 Z M69.8486328,21.1171875 C68.8408153,21.1171875 68.0527372,20.8232451 67.484375,20.2353516 C66.9160128,19.647458 66.6318359,18.8378958 66.6318359,17.8066406 C66.6318359,16.7480416 66.8955052,15.9160187 67.4228516,15.3105469 C67.9501979,14.7050751 68.6748001,14.4023438 69.5966797,14.4023438 C70.4521527,14.4023438 71.1279272,14.6621068 71.6240234,15.1816406 C72.1201197,15.7011745 72.3681641,16.4160111 72.3681641,17.3261719 L72.3681641,18.0703125 L68.0498047,18.0703125 C68.069336,18.6992219 68.2392562,19.1826155 68.5595703,19.5205078 C68.8798844,19.8584001 69.3310518,20.0273438 69.9130859,20.0273438 C70.2959004,20.0273438 70.6523421,19.9912113 70.9824219,19.9189453 C71.3125017,19.8466793 71.6669903,19.7265633 72.0458984,19.5585938 L72.0458984,20.6777344 C71.7099593,20.8378914 71.3701189,20.9511715 71.0263672,21.0175781 C70.6826155,21.0839847 70.2900413,21.1171875 69.8486328,21.1171875 Z M69.5966797,15.4453125 C69.1591775,15.4453125 68.8085951,15.583983 68.5449219,15.8613281 C68.2812487,16.1386733 68.1240237,16.5429661 68.0732422,17.0742188 L71.0146484,17.0742188 C71.0068359,16.5390598 70.8779309,16.1337904 70.6279297,15.8583984 C70.3779284,15.5830064 70.0341819,15.4453125 69.5966797,15.4453125 Z M76.1181641,21.1171875 C75.3095663,21.1171875 74.6787132,20.8242217 74.2255859,20.2382812 C73.7724587,19.6523408 73.5458984,18.8300834 73.5458984,17.7714844 C73.5458984,16.7089791 73.7753883,15.8818389 74.234375,15.2900391 C74.6933617,14.6982392 75.3290975,14.4023438 76.1416016,14.4023438 C76.9931683,14.4023438 77.6415993,14.7167937 78.0869141,15.3457031 L78.1572266,15.3457031 C78.09082,14.8808571 78.0576172,14.5136732 78.0576172,14.2441406 L78.0576172,11.8828125 L79.4404297,11.8828125 L79.4404297,21 L78.3623047,21 L78.1220703,20.1503906 L78.0576172,20.1503906 C77.6162087,20.7949251 76.9697308,21.1171875 76.1181641,21.1171875 Z M76.4873047,20.0039062 C77.0537138,20.0039062 77.465819,19.8447282 77.7236328,19.5263672 C77.9814466,19.2080062 78.1142578,18.6914098 78.1220703,17.9765625 L78.1220703,17.7832031 C78.1220703,16.9667928 77.9892591,16.3867205 77.7236328,16.0429688 C77.4580065,15.699217 77.041995,15.5273438 76.4755859,15.5273438 C75.9912085,15.5273438 75.6181654,15.7236308 75.3564453,16.1162109 C75.0947253,16.508791 74.9638672,17.0683557 74.9638672,17.7949219 C74.9638672,18.5136755 75.090819,19.0615216 75.3447266,19.4384766 C75.5986341,19.8154316 75.9794896,20.0039062 76.4873047,20.0039062 Z" id="text" fill="#1F1E1E"></path>
            </g>
            <g id="Arrow1-Copy-3" transform="translate(120.500000, 156.000000)" stroke="#FF2E2F">
                <g id="Arrow_red" stroke-linejoin="round" transform="translate(27.000000, 0.000000)" fill="#FF2E2F" fill-rule="nonzero">
                    <polygon id="Path-14-Copy-14" transform="translate(2.500000, 4.000000) rotate(90.000000) translate(-2.500000, -4.000000) " points="-1.5 6.5 2.5 1.5 6.5 6.5"></polygon>
                </g>
                <line x1="0" y1="4" x2="29.5" y2="4" id="Path-15-Copy" stroke-linecap="round"></line>
            </g>
            <g id="Arrow1-Copy-5" transform="translate(120.500000, 310.000000)" stroke="#FF2E2F">
                <g id="Arrow_red" stroke-linejoin="round" transform="translate(27.000000, 0.000000)" fill="#FF2E2F" fill-rule="nonzero">
                    <polygon id="Path-14-Copy-14" transform="translate(2.500000, 4.000000) rotate(90.000000) translate(-2.500000, -4.000000) " points="-1.5 6.5 2.5 1.5 6.5 6.5"></polygon>
                </g>
                <line x1="0" y1="4" x2="29.5" y2="4" id="Path-15-Copy" stroke-linecap="round"></line>
            </g>
            <g id="Round_block-Copy-30" transform="translate(468.000000, 112.000000)" fill-rule="nonzero">
                <rect id="Rectangle-Copy-14" fill="#E1E1E1" x="0" y="0" width="123" height="32" rx="14"></rect>
                <path d="M57.3310547,19.2675781 C57.3310547,18.9824204 57.4052727,18.7636726 57.5537109,18.6113281 C57.7021492,18.4589836 57.9169908,18.3828125 58.1982422,18.3828125 C58.4833999,18.3828125 58.7001946,18.4619133 58.8486328,18.6201172 C58.9970711,18.7783211 59.0712891,18.9941393 59.0712891,19.2675781 C59.0712891,19.5449233 58.9960945,19.7646476 58.8457031,19.9267578 C58.6953117,20.088868 58.4794936,20.1699219 58.1982422,20.1699219 C57.9169908,20.1699219 57.7021492,20.0898446 57.5537109,19.9296875 C57.4052727,19.7695304 57.3310547,19.5488295 57.3310547,19.2675781 Z M60.6298828,19.2675781 C60.6298828,18.9824204 60.7041008,18.7636726 60.8525391,18.6113281 C61.0009773,18.4589836 61.2158189,18.3828125 61.4970703,18.3828125 C61.782228,18.3828125 61.9990227,18.4619133 62.1474609,18.6201172 C62.2958992,18.7783211 62.3701172,18.9941393 62.3701172,19.2675781 C62.3701172,19.5449233 62.2949226,19.7646476 62.1445312,19.9267578 C61.9941399,20.088868 61.7783217,20.1699219 61.4970703,20.1699219 C61.2158189,20.1699219 61.0009773,20.0898446 60.8525391,19.9296875 C60.7041008,19.7695304 60.6298828,19.5488295 60.6298828,19.2675781 Z M63.9287109,19.2675781 C63.9287109,18.9824204 64.0029289,18.7636726 64.1513672,18.6113281 C64.2998054,18.4589836 64.514647,18.3828125 64.7958984,18.3828125 C65.0810561,18.3828125 65.2978508,18.4619133 65.4462891,18.6201172 C65.5947273,18.7783211 65.6689453,18.9941393 65.6689453,19.2675781 C65.6689453,19.5449233 65.5937508,19.7646476 65.4433594,19.9267578 C65.292968,20.088868 65.0771498,20.1699219 64.7958984,20.1699219 C64.514647,20.1699219 64.2998054,20.0898446 64.1513672,19.9296875 C64.0029289,19.7695304 63.9287109,19.5488295 63.9287109,19.2675781 Z" id="text" fill="#1F1E1E"></path>
            </g>
            <g id="Arrow1-Copy-4" transform="translate(433.500000, 124.000000)" stroke="#FF2E2F">
                <g id="Arrow_red" stroke-linejoin="round" transform="translate(27.000000, 0.000000)" fill="#FF2E2F" fill-rule="nonzero">
                    <polygon id="Path-14-Copy-14" transform="translate(2.500000, 4.000000) rotate(90.000000) translate(-2.500000, -4.000000) " points="-1.5 6.5 2.5 1.5 6.5 6.5"></polygon>
                </g>
                <line x1="0" y1="4" x2="29.5" y2="4" id="Path-15-Copy" stroke-linecap="round"></line>
            </g>
            <g id="Arrow1-Copy-2" transform="translate(433.000000, 12.000000)" stroke="#FF2E2F">
                <g id="Arrow_red" stroke-linejoin="round" transform="translate(29.000000, 0.000000)" fill="#FF2E2F" fill-rule="nonzero">
                    <polygon id="Path-14-Copy-14" transform="translate(2.000000, 4.000000) rotate(90.000000) translate(-2.000000, -4.000000) " points="-2 6 2 2 6 6"></polygon>
                </g>
                <g id="Arrow_red" stroke-linejoin="round" transform="translate(2.000000, 4.000000) scale(-1, 1) translate(-2.000000, -4.000000) " fill="#FF2E2F" fill-rule="nonzero">
                    <polygon id="Path-14-Copy-14" transform="translate(2.000000, 4.000000) rotate(90.000000) translate(-2.000000, -4.000000) " points="-2 6 2 2 6 6"></polygon>
                </g>
                <line x1="1" y1="3.5" x2="28" y2="3.5" id="Path-15-Copy" stroke-linecap="round"></line>
            </g>
            <g id="Group-Copy" transform="translate(281.000000, 124.000000)" stroke="#FF2E2F">
                <g id="Arrow2" transform="translate(0.000000, 36.000000)">
                    <path d="M-6.73291956e-16,0 L-6.73291956e-16,0 L-6.73291956e-16,0 C4.69442037,0 8.5,3.80557963 8.5,8.5 L8.5,22 L8.49657232,22 C8.49657232,27.5228475 12.9737248,32 18.4965723,32 C18.4977151,32 18.4988578,32 18.5,32 L19,31.9964003" id="Path-8-Copy-19" stroke-linecap="round"></path>
                    <g id="Arrow_red" stroke-linejoin="round" transform="translate(19.500000, 28.000000)" fill="#FF2E2F" fill-rule="nonzero">
                        <polygon id="Path-14-Copy-14" transform="translate(2.500000, 4.000000) rotate(90.000000) translate(-2.500000, -4.000000) " points="-1.5 6.5 2.5 1.5 6.5 6.5"></polygon>
                    </g>
                </g>
                <g id="Arrow1">
                    <path d="M1.77635684e-15,4 L1.77635684e-15,4 L1.77635684e-15,4 C4.69442037,4 8.5,7.80557963 8.5,12.5 L8.5,26 L8.5,26 C8.5,31.5228475 12.9771525,36 18.5,36 L19,36" id="Path-8-Copy-20" stroke-linecap="round" transform="translate(9.500000, 20.000000) scale(-1, 1) rotate(-180.000000) translate(-9.500000, -20.000000) "></path>
                    <g id="Arrow_red" stroke-linejoin="round" transform="translate(19.500000, 0.000000)" fill="#FF2E2F" fill-rule="nonzero">
                        <polygon id="Path-14-Copy-14" transform="translate(2.500000, 4.000000) rotate(90.000000) translate(-2.500000, -4.000000) " points="-1.5 6.5 2.5 1.5 6.5 6.5"></polygon>
                    </g>
                </g>
            </g>
            <g id="Arrow1-Copy-3" transform="translate(119.500000, 12.000000)" stroke="#FF2E2F">
                <g id="Arrow_red" stroke-linejoin="round" transform="translate(27.000000, 0.000000)" fill="#FF2E2F" fill-rule="nonzero">
                    <polygon id="Path-14-Copy-14" transform="translate(2.500000, 4.000000) rotate(90.000000) translate(-2.500000, -4.000000) " points="-1.5 6.5 2.5 1.5 6.5 6.5"></polygon>
                </g>
                <line x1="0" y1="4" x2="29.5" y2="4" id="Path-15-Copy" stroke-linecap="round"></line>
            </g>
            <g id="Arrow1-Copy-3" transform="translate(280.000000, 12.000000)" stroke="#FF2E2F">
                <g id="Arrow_red" stroke-linejoin="round" transform="translate(22.000000, 0.000000)" fill="#FF2E2F" fill-rule="nonzero">
                    <polygon id="Path-14-Copy-14" transform="translate(2.000000, 4.000000) rotate(90.000000) translate(-2.000000, -4.000000) " points="-2 6 2 2 6 6"></polygon>
                </g>
                <line x1="0" y1="4.5" x2="24" y2="4.5" id="Path-15-Copy" stroke-linecap="round"></line>
            </g>
        </g>
    </g>
</svg>