<?xml version="1.0" encoding="UTF-8" standalone="no"?>
<!-- Created by Syntax-Trax http://kevinpt.github.io/syntax-trax -->
<svg xmlns="http://www.w3.org/2000/svg"
xmlns:xlink="http://www.w3.org/1999/xlink"
xml:space="preserve"
width="402" height="228" version="1.1">
<style type="text/css">
<![CDATA[
.box_font {fill:#000000; text-anchor:middle;
    font-family:Courier; font-size:14pt; font-weight:regular; font-style:normal;}
.name_font {fill:#000000; text-anchor:middle;
    font-family:Courier; font-size:14pt; font-weight:regular; font-style:normal;}
.title_font {fill:#000000; text-anchor:middle;
    font-family:Sans; font-size:22pt; font-weight:bold; font-style:normal;}
.bubble_font {fill:#000000; text-anchor:middle;
    font-family:Courier; font-size:14pt; font-weight:bold; font-style:normal;}
.token_font {fill:#000000; text-anchor:middle;
    font-family:Courier; font-size:14pt; font-weight:bold; font-style:normal;}
.label {fill:#000;
  text-anchor:middle;
  font-size:16pt; font-weight:bold; font-family:Sans;}
.link {fill: #0D47A1;}
.link:hover {fill: #0D47A1; text-decoration:underline;}
.link:visited {fill: #4A148C;}
]]>
</style>
<defs>
  <marker id="arrow" markerWidth="5" markerHeight="4" refX="2.5" refY="2" orient="auto" markerUnits="strokeWidth">
    <path d="M0,0 L0.5,2 L0,4 L4.5,2 z" fill="#FF0000" />
  </marker>
</defs>
<rect width="100%" height="100%" fill="white"/><path d="M69.0,41.0 A13.0,13.0 0 0,1 69.0,15.0 H195.0 A13.0,13.0 0 0,1 195.0,41.0 z" stroke="none" fill-opacity="0.498039215686" fill="#000000"/>
<rect x="225.0" y="15.0" width="56.0" height="26.0" stroke="none" fill-opacity="0.498039215686" fill="#000000"/>
<path d="M105.0,105.0 A13.0,13.0 0 0,1 105.0,79.0 H198.0 A13.0,13.0 0 0,1 198.0,105.0 z" stroke="none" fill-opacity="0.498039215686" fill="#000000"/>
<path d="M241.0,105.0 A13.0,13.0 0 0,1 241.0,79.0 H290.0 A13.0,13.0 0 0,1 290.0,105.0 z" stroke="none" fill-opacity="0.498039215686" fill="#000000"/>
<path d="M105.0,135.0 A13.0,13.0 0 0,1 105.0,109.0 H209.0 A13.0,13.0 0 0,1 209.0,135.0 z" stroke="none" fill-opacity="0.498039215686" fill="#000000"/>
<path d="M105.0,165.0 A13.0,13.0 0 0,1 105.0,139.0 H187.0 A13.0,13.0 0 0,1 187.0,165.0 z" stroke="none" fill-opacity="0.498039215686" fill="#000000"/>
<path d="M105.0,195.0 A13.0,13.0 0 0,1 105.0,169.0 H198.0 A13.0,13.0 0 0,1 198.0,195.0 z" stroke="none" fill-opacity="0.498039215686" fill="#000000"/>
<rect x="228.0" y="169.0" width="122.0" height="26.0" stroke="none" fill-opacity="0.498039215686" fill="#000000"/>
<rect x="92.0" y="199.0" width="210.0" height="26.0" stroke="none" fill-opacity="0.498039215686" fill="#000000"/>
<circle cx="7" cy="7" r="2" stroke="#FF0000" stroke-width="1" fill="#FFFFFF"/>
<line x1="166.0" y1="7" x2="167.0" y2="7" stroke="#FF0000" stroke-width="1" />
<path d="M67.0,39.0 A13.0,13.0 0 0,1 67.0,13.0 H193.0 A13.0,13.0 0 0,1 193.0,39.0 z" stroke="#FF0000" stroke-width="1" fill="#D3D3D3"/>
<text class="token_font" x="130.0" y="32.0"> CONSTRAINT </text>
<rect x="223.0" y="13.0" width="56.0" height="26.0" stroke="#FF0000" stroke-width="1" fill="#D3D3D3"/>
<text class="box_font" x="251.0" y="32.0">name</text>
<line x1="205.0" y1="25" x2="219.0" y2="25.0" stroke="#FF0000" stroke-width="1" marker-end="url(#arrow)" />
<line x1="26" y1="7" x2="162.0" y2="7.0" stroke="#FF0000" stroke-width="1" marker-end="url(#arrow)" />
<line x1="167.0" y1="7" x2="308.0" y2="7" stroke="#FF0000" stroke-width="1" />
<path d="M35.0,16.0 A9,9 0 0,0 26.0,7.0" stroke="#FF0000" stroke-width="1" fill="none"/>
<line x1="44" y1="25" x2="50.0" y2="25.0" stroke="#FF0000" stroke-width="1" marker-end="url(#arrow)" />
<line x1="279.0" y1="25" x2="285.0" y2="25.0" stroke="#FF0000" stroke-width="1" marker-end="url(#arrow)" />
<path d="M35.0,16.0 A9,9 0 0,0 44.0,25.0" stroke="#FF0000" stroke-width="1" fill="none"/>
<path d="M289.0,25.0 A9.0,9.0 0 0,0 298.0,16.0" stroke="#FF0000" stroke-width="1" fill="none"/>
<path d="M307.0,7.0 A9.0,9.0 0 0,0 298.0,16.0" stroke="#FF0000" stroke-width="1" fill="none"/>
<line x1="35" y1="16" x2="35" y2="16" stroke="#FF0000" stroke-width="1" />
<line x1="298.0" y1="16" x2="298.0" y2="16" stroke="#FF0000" stroke-width="1" />
<path d="M103.0,103.0 A13.0,13.0 0 0,1 103.0,77.0 H196.0 A13.0,13.0 0 0,1 196.0,103.0 z" stroke="#FF0000" stroke-width="1" fill="#D3D3D3"/>
<text class="token_font" x="149.5" y="96.0"> PRIMARY </text>
<path d="M239.0,103.0 A13.0,13.0 0 0,1 239.0,77.0 H288.0 A13.0,13.0 0 0,1 288.0,103.0 z" stroke="#FF0000" stroke-width="1" fill="#D3D3D3"/>
<text class="token_font" x="263.5" y="96.0"> KEY </text>
<line x1="208.0" y1="89.0" x2="222.0" y2="89.0" stroke="#FF0000" stroke-width="1" marker-end="url(#arrow)" />
<path d="M103.0,133.0 A13.0,13.0 0 0,1 103.0,107.0 H207.0 A13.0,13.0 0 0,1 207.0,133.0 z" stroke="#FF0000" stroke-width="1" fill="#D3D3D3"/>
<text class="token_font" x="155.0" y="126.0"> NOT NULL </text>
<path d="M103.0,163.0 A13.0,13.0 0 0,1 103.0,137.0 H185.0 A13.0,13.0 0 0,1 185.0,163.0 z" stroke="#FF0000" stroke-width="1" fill="#D3D3D3"/>
<text class="token_font" x="144.0" y="156.0"> UNIQUE </text>
<path d="M103.0,193.0 A13.0,13.0 0 0,1 103.0,167.0 H196.0 A13.0,13.0 0 0,1 196.0,193.0 z" stroke="#FF0000" stroke-width="1" fill="#D3D3D3"/>
<text class="token_font" x="149.5" y="186.0"> DEFAULT </text>
<rect x="226.0" y="167.0" width="122.0" height="26.0" stroke="#FF0000" stroke-width="1" fill="#D3D3D3"/>
<text class="box_font" x="287.0" y="186.0">expression</text>
<line x1="208.0" y1="179.0" x2="222.0" y2="179.0" stroke="#FF0000" stroke-width="1" marker-end="url(#arrow)" />
<rect x="90.0" y="197.0" width="210.0" height="26.0" stroke="#FF0000" stroke-width="1" fill="#D3D3D3"/>
<text class="box_font" x="195.0" y="216.0">foreign-key-clause</text>
<line x1="62" y1="89.0" x2="86.0" y2="89.0" stroke="#FF0000" stroke-width="1" marker-end="url(#arrow)" />
<line x1="301.0" y1="89.0" x2="377.0" y2="89.0" stroke="#FF0000" stroke-width="1" />
<path d="M71.0,98.0 A9,9 0 0,0 62.0,89.0" stroke="#FF0000" stroke-width="1" fill="none"/>
<line x1="80" y1="119.0" x2="86.0" y2="119.0" stroke="#FF0000" stroke-width="1" marker-end="url(#arrow)" />
<line x1="220.0" y1="119.0" x2="354.0" y2="119.0" stroke="#FF0000" stroke-width="1" marker-end="url(#arrow)" />
<path d="M71.0,110.0 A9,9 0 0,0 80.0,119.0" stroke="#FF0000" stroke-width="1" fill="none"/>
<path d="M358.0,119.0 A9.0,9.0 0 0,0 367.0,110.0" stroke="#FF0000" stroke-width="1" fill="none"/>
<line x1="80" y1="149.0" x2="86.0" y2="149.0" stroke="#FF0000" stroke-width="1" marker-end="url(#arrow)" />
<line x1="198.0" y1="149.0" x2="354.0" y2="149.0" stroke="#FF0000" stroke-width="1" marker-end="url(#arrow)" />
<path d="M71.0,140.0 A9,9 0 0,0 80.0,149.0" stroke="#FF0000" stroke-width="1" fill="none"/>
<path d="M358.0,149.0 A9.0,9.0 0 0,0 367.0,140.0" stroke="#FF0000" stroke-width="1" fill="none"/>
<line x1="80" y1="179.0" x2="86.0" y2="179.0" stroke="#FF0000" stroke-width="1" marker-end="url(#arrow)" />
<line x1="348.0" y1="179.0" x2="354.0" y2="179.0" stroke="#FF0000" stroke-width="1" marker-end="url(#arrow)" />
<path d="M71.0,170.0 A9,9 0 0,0 80.0,179.0" stroke="#FF0000" stroke-width="1" fill="none"/>
<path d="M358.0,179.0 A9.0,9.0 0 0,0 367.0,170.0" stroke="#FF0000" stroke-width="1" fill="none"/>
<line x1="80" y1="209.0" x2="86.0" y2="209.0" stroke="#FF0000" stroke-width="1" marker-end="url(#arrow)" />
<line x1="300.0" y1="209.0" x2="354.0" y2="209.0" stroke="#FF0000" stroke-width="1" marker-end="url(#arrow)" />
<path d="M71.0,200.0 A9,9 0 0,0 80.0,209.0" stroke="#FF0000" stroke-width="1" fill="none"/>
<path d="M358.0,209.0 A9.0,9.0 0 0,0 367.0,200.0" stroke="#FF0000" stroke-width="1" fill="none"/>
<path d="M376.0,89.0 A9.0,9.0 0 0,0 367.0,98.0" stroke="#FF0000" stroke-width="1" fill="none"/>
<line x1="71" y1="200.0" x2="71" y2="98.0" stroke="#FF0000" stroke-width="1" />
<line x1="367.0" y1="200.0" x2="367.0" y2="98.0" stroke="#FF0000" stroke-width="1" />
<line x1="307.0" y1="7" x2="325.0" y2="7" stroke="#FF0000" stroke-width="1" />
<path d="M334.0,16.0 A9.0,9.0 0 0,0 325.0,7.0" stroke="#FF0000" stroke-width="1" fill="none"/>
<line x1="334.0" y1="16" x2="334.0" y2="28.5" stroke="#FF0000" stroke-width="1" marker-end="url(#arrow)" />
<line x1="334.0" y1="32.5" x2="334.0" y2="49.0" stroke="#FF0000" stroke-width="1" />
<path d="M325.0,58.0 A9.0,9.0 0 0,0 334.0,49.0" stroke="#FF0000" stroke-width="1" fill="none"/>
<line x1="325.0" y1="58.0" x2="188.5" y2="58.0" stroke="#FF0000" stroke-width="1" marker-end="url(#arrow)" />
<line x1="184.5" y1="58.0" x2="44" y2="58.0" stroke="#FF0000" stroke-width="1" />
<path d="M44.0,58.0 A9,9 0 0,0 35.0,67.0" stroke="#FF0000" stroke-width="1" fill="none"/>
<line x1="35" y1="67.0" x2="35" y2="80.0" stroke="#FF0000" stroke-width="1" />
<path d="M35.0,80.0 A9,9 0 0,0 44.0,89.0" stroke="#FF0000" stroke-width="1" fill="none"/>
<line x1="44" y1="89.0" x2="58.0" y2="89.0" stroke="#FF0000" stroke-width="1" marker-end="url(#arrow)" />
<line x1="8" y1="7" x2="22.0" y2="7.0" stroke="#FF0000" stroke-width="1" marker-end="url(#arrow)" />
<circle cx="395.0" cy="89.0" r="2.0" stroke="#FF0000" stroke-width="1" fill="#FFFFFF"/>
<line x1="375.0" y1="89.0" x2="389.0" y2="89.0" stroke="#FF0000" stroke-width="1" marker-end="url(#arrow)" />
</svg>