<?xml version="1.0" encoding="UTF-8" standalone="no"?>
<!-- Created by Syntax-Trax http://kevinpt.github.io/syntax-trax -->
<svg xmlns="http://www.w3.org/2000/svg"
xmlns:xlink="http://www.w3.org/1999/xlink"
xml:space="preserve"
width="951" height="208" version="1.1">
<style type="text/css">
<![CDATA[
.box_font {fill:#000000; text-anchor:middle;
    font-family:Courier; font-size:14pt; font-weight:regular; font-style:normal;}
.name_font {fill:#000000; text-anchor:middle;
    font-family:Courier; font-size:14pt; font-weight:regular; font-style:normal;}
.title_font {fill:#000000; text-anchor:middle;
    font-family:Sans; font-size:22pt; font-weight:bold; font-style:normal;}
.bubble_font {fill:#000000; text-anchor:middle;
    font-family:Courier; font-size:14pt; font-weight:bold; font-style:normal;}
.token_font {fill:#000000; text-anchor:middle;
    font-family:Courier; font-size:14pt; font-weight:bold; font-style:normal;}
.label {fill:#000;
  text-anchor:middle;
  font-size:16pt; font-weight:bold; font-family:Sans;}
.link {fill: #0D47A1;}
.link:hover {fill: #0D47A1; text-decoration:underline;}
.link:visited {fill: #4A148C;}
]]>
</style>
<defs>
  <marker id="arrow" markerWidth="5" markerHeight="4" refX="2.5" refY="2" orient="auto" markerUnits="strokeWidth">
    <path d="M0,0 L0.5,2 L0,4 L4.5,2 z" fill="#FF0000" />
  </marker>
</defs>
<rect width="100%" height="100%" fill="white"/><path d="M41.0,33.0 A13.0,13.0 0 0,1 41.0,7.0 H123.0 A13.0,13.0 0 0,1 123.0,33.0 z" stroke="none" fill-opacity="0.498039215686" fill="#000000"/>
<path d="M194.0,51.0 A13.0,13.0 0 0,1 194.0,25.0 H276.0 A13.0,13.0 0 0,1 276.0,51.0 z" stroke="none" fill-opacity="0.498039215686" fill="#000000"/>
<path d="M347.0,33.0 A13.0,13.0 0 0,1 347.0,7.0 H418.0 A13.0,13.0 0 0,1 418.0,33.0 z" stroke="none" fill-opacity="0.498039215686" fill="#000000"/>
<path d="M489.0,51.0 A13.0,13.0 0 0,1 489.0,25.0 H527.0 A13.0,13.0 0 0,1 527.0,51.0 z" stroke="none" fill-opacity="0.498039215686" fill="#000000"/>
<path d="M570.0,51.0 A13.0,13.0 0 0,1 570.0,25.0 H619.0 A13.0,13.0 0 0,1 619.0,51.0 z" stroke="none" fill-opacity="0.498039215686" fill="#000000"/>
<path d="M662.0,51.0 A13.0,13.0 0 0,1 662.0,25.0 H733.0 A13.0,13.0 0 0,1 733.0,51.0 z" stroke="none" fill-opacity="0.498039215686" fill="#000000"/>
<path d="M804.0,33.0 A13.0,13.0 0 0,1 804.0,7.0 H908.0 A13.0,13.0 0 0,1 908.0,33.0 z" stroke="none" fill-opacity="0.498039215686" fill="#000000"/>
<path d="M77.0,115.0 A13.0,13.0 0 0,1 77.0,89.0 H115.0 A13.0,13.0 0 0,1 115.0,115.0 z" stroke="none" fill-opacity="0.498039215686" fill="#000000"/>
<path d="M158.0,115.0 A13.0,13.0 0 0,1 158.0,89.0 H262.0 A13.0,13.0 0 0,1 262.0,115.0 z" stroke="none" fill-opacity="0.498039215686" fill="#000000"/>
<path d="M77.0,179.0 A13.0,13.0 0 0,1 77.0,153.0 H82.0 A13.0,13.0 0 0,1 82.0,179.0 z" stroke="none" fill-opacity="0.498039215686" fill="#000000"/>
<path d="M142.0,179.0 A13.0,13.0 0 0,1 142.0,153.0 H257.0 A13.0,13.0 0 0,1 257.0,179.0 z" stroke="none" fill-opacity="0.498039215686" fill="#000000"/>
<path d="M197.0,205.0 A13.0,13.0 0 0,1 197.0,179.0 H202.0 A13.0,13.0 0 0,1 202.0,205.0 z" stroke="none" fill-opacity="0.498039215686" fill="#000000"/>
<path d="M309.0,179.0 A13.0,13.0 0 0,1 309.0,153.0 H314.0 A13.0,13.0 0 0,1 314.0,179.0 z" stroke="none" fill-opacity="0.498039215686" fill="#000000"/>
<circle cx="7" cy="17.0" r="2" stroke="#FF0000" stroke-width="1" fill="#FFFFFF"/>
<path d="M39.0,31.0 A13.0,13.0 0 0,1 39.0,5.0 H121.0 A13.0,13.0 0 0,1 121.0,31.0 z" stroke="#FF0000" stroke-width="1" fill="#D3D3D3"/>
<text class="token_font" x="80.0" y="24.0"> CREATE </text>
<line x1="232.5" y1="17.0" x2="233.5" y2="17.0" stroke="#FF0000" stroke-width="1" />
<path d="M192.0,49.0 A13.0,13.0 0 0,1 192.0,23.0 H274.0 A13.0,13.0 0 0,1 274.0,49.0 z" stroke="#FF0000" stroke-width="1" fill="#D3D3D3"/>
<text class="token_font" x="233.0" y="42.0"> UNIQUE </text>
<line x1="151.0" y1="17.0" x2="228.5" y2="17.0" stroke="#FF0000" stroke-width="1" marker-end="url(#arrow)" />
<line x1="233.5" y1="17.0" x2="316.0" y2="17.0" stroke="#FF0000" stroke-width="1" />
<path d="M160.0,26.0 A9.0,9.0 0 0,0 151.0,17.0" stroke="#FF0000" stroke-width="1" fill="none"/>
<line x1="169.0" y1="35.0" x2="175.0" y2="35.0" stroke="#FF0000" stroke-width="1" marker-end="url(#arrow)" />
<line x1="287.0" y1="35.0" x2="293.0" y2="35.0" stroke="#FF0000" stroke-width="1" marker-end="url(#arrow)" />
<path d="M160.0,26.0 A9.0,9.0 0 0,0 169.0,35.0" stroke="#FF0000" stroke-width="1" fill="none"/>
<path d="M297.0,35.0 A9.0,9.0 0 0,0 306.0,26.0" stroke="#FF0000" stroke-width="1" fill="none"/>
<path d="M315.0,17.0 A9.0,9.0 0 0,0 306.0,26.0" stroke="#FF0000" stroke-width="1" fill="none"/>
<line x1="160.0" y1="26.0" x2="160.0" y2="26.0" stroke="#FF0000" stroke-width="1" />
<line x1="306.0" y1="26.0" x2="306.0" y2="26.0" stroke="#FF0000" stroke-width="1" />
<line x1="133.0" y1="17.0" x2="147.0" y2="17.0" stroke="#FF0000" stroke-width="1" marker-end="url(#arrow)" />
<path d="M345.0,31.0 A13.0,13.0 0 0,1 345.0,5.0 H416.0 A13.0,13.0 0 0,1 416.0,31.0 z" stroke="#FF0000" stroke-width="1" fill="#D3D3D3"/>
<text class="token_font" x="380.5" y="24.0"> INDEX </text>
<line x1="314.0" y1="17.0" x2="328.0" y2="17.0" stroke="#FF0000" stroke-width="1" marker-end="url(#arrow)" />
<line x1="608.5" y1="17.0" x2="609.5" y2="17.0" stroke="#FF0000" stroke-width="1" />
<path d="M487.0,49.0 A13.0,13.0 0 0,1 487.0,23.0 H525.0 A13.0,13.0 0 0,1 525.0,49.0 z" stroke="#FF0000" stroke-width="1" fill="#D3D3D3"/>
<text class="token_font" x="506.0" y="42.0"> IF </text>
<path d="M568.0,49.0 A13.0,13.0 0 0,1 568.0,23.0 H617.0 A13.0,13.0 0 0,1 617.0,49.0 z" stroke="#FF0000" stroke-width="1" fill="#D3D3D3"/>
<text class="token_font" x="592.5" y="42.0"> NOT </text>
<line x1="537.0" y1="35.0" x2="551.0" y2="35.0" stroke="#FF0000" stroke-width="1" marker-end="url(#arrow)" />
<path d="M660.0,49.0 A13.0,13.0 0 0,1 660.0,23.0 H731.0 A13.0,13.0 0 0,1 731.0,49.0 z" stroke="#FF0000" stroke-width="1" fill="#D3D3D3"/>
<text class="bubble_font" x="695.5" y="42.0">EXISTS </text>
<line x1="629.0" y1="35.0" x2="643.0" y2="35.0" stroke="#FF0000" stroke-width="1" marker-end="url(#arrow)" />
<line x1="446.0" y1="17.0" x2="604.5" y2="17.0" stroke="#FF0000" stroke-width="1" marker-end="url(#arrow)" />
<line x1="609.5" y1="17.0" x2="773.0" y2="17.0" stroke="#FF0000" stroke-width="1" />
<path d="M455.0,26.0 A9.0,9.0 0 0,0 446.0,17.0" stroke="#FF0000" stroke-width="1" fill="none"/>
<line x1="464.0" y1="35.0" x2="470.0" y2="35.0" stroke="#FF0000" stroke-width="1" marker-end="url(#arrow)" />
<line x1="744.0" y1="35.0" x2="750.0" y2="35.0" stroke="#FF0000" stroke-width="1" marker-end="url(#arrow)" />
<path d="M455.0,26.0 A9.0,9.0 0 0,0 464.0,35.0" stroke="#FF0000" stroke-width="1" fill="none"/>
<path d="M754.0,35.0 A9.0,9.0 0 0,0 763.0,26.0" stroke="#FF0000" stroke-width="1" fill="none"/>
<path d="M772.0,17.0 A9.0,9.0 0 0,0 763.0,26.0" stroke="#FF0000" stroke-width="1" fill="none"/>
<line x1="455.0" y1="26.0" x2="455.0" y2="26.0" stroke="#FF0000" stroke-width="1" />
<line x1="763.0" y1="26.0" x2="763.0" y2="26.0" stroke="#FF0000" stroke-width="1" />
<line x1="428.0" y1="17.0" x2="442.0" y2="17.0" stroke="#FF0000" stroke-width="1" marker-end="url(#arrow)" />
<path d="M802.0,31.0 A13.0,13.0 0 0,1 802.0,5.0 H906.0 A13.0,13.0 0 0,1 906.0,31.0 z" stroke="#FF0000" stroke-width="1" fill="#D3D3D3"/>
<text class="name_font" x="854.0" y="24.0">index-name</text>
<line x1="771.0" y1="17.0" x2="785.0" y2="17.0" stroke="#FF0000" stroke-width="1" marker-end="url(#arrow)" />
<path d="M75.0,113.0 A13.0,13.0 0 0,1 75.0,87.0 H113.0 A13.0,13.0 0 0,1 113.0,113.0 z" stroke="#FF0000" stroke-width="1" fill="#D3D3D3"/>
<text class="token_font" x="94.0" y="106.0"> ON </text>
<path d="M156.0,113.0 A13.0,13.0 0 0,1 156.0,87.0 H260.0 A13.0,13.0 0 0,1 260.0,113.0 z" stroke="#FF0000" stroke-width="1" fill="#D3D3D3"/>
<text class="name_font" x="208.0" y="106.0">table-name</text>
<line x1="125.0" y1="99.0" x2="139.0" y2="99.0" stroke="#FF0000" stroke-width="1" marker-end="url(#arrow)" />
<line x1="919.0" y1="17.0" x2="937.0" y2="17.0" stroke="#FF0000" stroke-width="1" />
<path d="M946.0,26.0 A9.0,9.0 0 0,0 937.0,17.0" stroke="#FF0000" stroke-width="1" fill="none"/>
<line x1="946.0" y1="26.0" x2="946.0" y2="38.5" stroke="#FF0000" stroke-width="1" marker-end="url(#arrow)" />
<line x1="946.0" y1="42.5" x2="946.0" y2="59.0" stroke="#FF0000" stroke-width="1" />
<path d="M937.0,68.0 A9.0,9.0 0 0,0 946.0,59.0" stroke="#FF0000" stroke-width="1" fill="none"/>
<line x1="937.0" y1="68.0" x2="494.5" y2="68.0" stroke="#FF0000" stroke-width="1" marker-end="url(#arrow)" />
<line x1="490.5" y1="68.0" x2="44" y2="68.0" stroke="#FF0000" stroke-width="1" />
<path d="M44.0,68.0 A9,9 0 0,0 35.0,77.0" stroke="#FF0000" stroke-width="1" fill="none"/>
<line x1="35" y1="77.0" x2="35" y2="90.0" stroke="#FF0000" stroke-width="1" />
<path d="M35.0,90.0 A9,9 0 0,0 44.0,99.0" stroke="#FF0000" stroke-width="1" fill="none"/>
<line x1="44" y1="99.0" x2="58.0" y2="99.0" stroke="#FF0000" stroke-width="1" marker-end="url(#arrow)" />
<path d="M75.0,177.0 A13.0,13.0 0 0,1 75.0,151.0 H80.0 A13.0,13.0 0 0,1 80.0,177.0 z" stroke="#FF0000" stroke-width="1" fill="#D3D3D3"/>
<text class="name_font" x="77.5" y="170.0">(</text>
<path d="M140.0,177.0 A13.0,13.0 0 0,1 140.0,151.0 H255.0 A13.0,13.0 0 0,1 255.0,177.0 z" stroke="#FF0000" stroke-width="1" fill="#D3D3D3"/>
<text class="name_font" x="197.5" y="170.0">column-name</text>
<path d="M195.0,203.0 A13.0,13.0 0 0,1 195.0,177.0 H200.0 A13.0,13.0 0 0,1 200.0,203.0 z" stroke="#FF0000" stroke-width="1" fill="#D3D3D3"/>
<text class="name_font" x="197.5" y="196.0">,</text>
<line x1="127.0" y1="189.0" x2="182.0" y2="189.0" stroke="#FF0000" stroke-width="1" />
<line x1="268.0" y1="189.0" x2="217.0" y2="189.0" stroke="#FF0000" stroke-width="1" marker-end="url(#arrow)" />
<line x1="110.0" y1="163.0" x2="127.0" y2="163.0" stroke="#FF0000" stroke-width="1" />
<path d="M127.0,163.0 A13.0,13.0 0 0,0 127.0,189.0" stroke="#FF0000" stroke-width="1" fill="none"/>
<path d="M268.0,189.0 A13.0,13.0 0 0,0 268.0,163.0" stroke="#FF0000" stroke-width="1" fill="none"/>
<line x1="268.0" y1="163.0" x2="277.0" y2="163.0" stroke="#FF0000" stroke-width="1" />
<line x1="92.0" y1="163.0" x2="106.0" y2="163.0" stroke="#FF0000" stroke-width="1" marker-end="url(#arrow)" />
<path d="M307.0,177.0 A13.0,13.0 0 0,1 307.0,151.0 H312.0 A13.0,13.0 0 0,1 312.0,177.0 z" stroke="#FF0000" stroke-width="1" fill="#D3D3D3"/>
<text class="name_font" x="309.5" y="170.0">)</text>
<line x1="276.0" y1="163.0" x2="290.0" y2="163.0" stroke="#FF0000" stroke-width="1" marker-end="url(#arrow)" />
<line x1="273.0" y1="99.0" x2="291.0" y2="99.0" stroke="#FF0000" stroke-width="1" />
<path d="M300.0,108.0 A9.0,9.0 0 0,0 291.0,99.0" stroke="#FF0000" stroke-width="1" fill="none"/>
<line x1="300.0" y1="108.0" x2="300.0" y2="123.0" stroke="#FF0000" stroke-width="1" />
<path d="M291.0,132.0 A9.0,9.0 0 0,0 300.0,123.0" stroke="#FF0000" stroke-width="1" fill="none"/>
<line x1="291.0" y1="132.0" x2="171.5" y2="132.0" stroke="#FF0000" stroke-width="1" marker-end="url(#arrow)" />
<line x1="167.5" y1="132.0" x2="44" y2="132.0" stroke="#FF0000" stroke-width="1" />
<path d="M44.0,132.0 A9,9 0 0,0 35.0,141.0" stroke="#FF0000" stroke-width="1" fill="none"/>
<line x1="35" y1="141.0" x2="35" y2="154.0" stroke="#FF0000" stroke-width="1" />
<path d="M35.0,154.0 A9,9 0 0,0 44.0,163.0" stroke="#FF0000" stroke-width="1" fill="none"/>
<line x1="44" y1="163.0" x2="58.0" y2="163.0" stroke="#FF0000" stroke-width="1" marker-end="url(#arrow)" />
<line x1="8" y1="17.0" x2="22.0" y2="17.0" stroke="#FF0000" stroke-width="1" marker-end="url(#arrow)" />
<circle cx="344.0" cy="163.0" r="2.0" stroke="#FF0000" stroke-width="1" fill="#FFFFFF"/>
<line x1="324.0" y1="163.0" x2="338.0" y2="163.0" stroke="#FF0000" stroke-width="1" marker-end="url(#arrow)" />
</svg>