<?xml version="1.0" encoding="UTF-8" standalone="no"?>
<!-- Created by Syntax-Trax http://kevinpt.github.io/syntax-trax -->
<svg xmlns="http://www.w3.org/2000/svg"
xmlns:xlink="http://www.w3.org/1999/xlink"
xml:space="preserve"
width="781" height="244" version="1.1">
<style type="text/css">
<![CDATA[
.box_font {fill:#000000; text-anchor:middle;
    font-family:Courier; font-size:14pt; font-weight:regular; font-style:normal;}
.name_font {fill:#000000; text-anchor:middle;
    font-family:Courier; font-size:14pt; font-weight:regular; font-style:normal;}
.title_font {fill:#000000; text-anchor:middle;
    font-family:Sans; font-size:22pt; font-weight:bold; font-style:normal;}
.bubble_font {fill:#000000; text-anchor:middle;
    font-family:Courier; font-size:14pt; font-weight:bold; font-style:normal;}
.token_font {fill:#000000; text-anchor:middle;
    font-family:Courier; font-size:14pt; font-weight:bold; font-style:normal;}
.label {fill:#000;
  text-anchor:middle;
  font-size:16pt; font-weight:bold; font-family:Sans;}
.link {fill: #0D47A1;}
.link:hover {fill: #0D47A1; text-decoration:underline;}
.link:visited {fill: #4A148C;}
]]>
</style>
<defs>
  <marker id="arrow" markerWidth="5" markerHeight="4" refX="2.5" refY="2" orient="auto" markerUnits="strokeWidth">
    <path d="M0,0 L0.5,2 L0,4 L4.5,2 z" fill="#FF0000" />
  </marker>
</defs>
<rect width="100%" height="100%" fill="white"/><path d="M41.0,33.0 A13.0,13.0 0 0,1 41.0,7.0 H123.0 A13.0,13.0 0 0,1 123.0,33.0 z" stroke="none" fill-opacity="0.498039215686" fill="#000000"/>
<path d="M166.0,33.0 A13.0,13.0 0 0,1 166.0,7.0 H237.0 A13.0,13.0 0 0,1 237.0,33.0 z" stroke="none" fill-opacity="0.498039215686" fill="#000000"/>
<path d="M308.0,51.0 A13.0,13.0 0 0,1 308.0,25.0 H346.0 A13.0,13.0 0 0,1 346.0,51.0 z" stroke="none" fill-opacity="0.498039215686" fill="#000000"/>
<path d="M389.0,51.0 A13.0,13.0 0 0,1 389.0,25.0 H438.0 A13.0,13.0 0 0,1 438.0,51.0 z" stroke="none" fill-opacity="0.498039215686" fill="#000000"/>
<path d="M481.0,51.0 A13.0,13.0 0 0,1 481.0,25.0 H563.0 A13.0,13.0 0 0,1 563.0,51.0 z" stroke="none" fill-opacity="0.498039215686" fill="#000000"/>
<path d="M634.0,33.0 A13.0,13.0 0 0,1 634.0,7.0 H738.0 A13.0,13.0 0 0,1 738.0,33.0 z" stroke="none" fill-opacity="0.498039215686" fill="#000000"/>
<path d="M77.0,115.0 A13.0,13.0 0 0,1 77.0,89.0 H82.0 A13.0,13.0 0 0,1 82.0,115.0 z" stroke="none" fill-opacity="0.498039215686" fill="#000000"/>
<rect x="151.5" y="89.0" width="199.0" height="26.0" stroke="none" fill-opacity="0.498039215686" fill="#000000"/>
<rect x="157.0" y="119.0" width="188.0" height="26.0" stroke="none" fill-opacity="0.498039215686" fill="#000000"/>
<path d="M248.5,171.0 A13.0,13.0 0 0,1 248.5,145.0 H253.5 A13.0,13.0 0 0,1 253.5,171.0 z" stroke="none" fill-opacity="0.498039215686" fill="#000000"/>
<path d="M412.0,115.0 A13.0,13.0 0 0,1 412.0,89.0 H417.0 A13.0,13.0 0 0,1 417.0,115.0 z" stroke="none" fill-opacity="0.498039215686" fill="#000000"/>
<path d="M105.0,241.5 A13.0,13.0 0 0,1 105.0,215.5 H165.0 A13.0,13.0 0 0,1 165.0,241.5 z" stroke="none" fill-opacity="0.498039215686" fill="#000000"/>
<path d="M208.0,241.5 A13.0,13.0 0 0,1 208.0,215.5 H290.0 A13.0,13.0 0 0,1 290.0,241.5 z" stroke="none" fill-opacity="0.498039215686" fill="#000000"/>
<path d="M333.0,241.5 A13.0,13.0 0 0,1 333.0,215.5 H360.0 A13.0,13.0 0 0,1 360.0,241.5 z" stroke="none" fill-opacity="0.498039215686" fill="#000000"/>
<rect x="390.0" y="215.5" width="78.0" height="26.0" stroke="none" fill-opacity="0.498039215686" fill="#000000"/>
<circle cx="7" cy="17.0" r="2" stroke="#FF0000" stroke-width="1" fill="#FFFFFF"/>
<path d="M39.0,31.0 A13.0,13.0 0 0,1 39.0,5.0 H121.0 A13.0,13.0 0 0,1 121.0,31.0 z" stroke="#FF0000" stroke-width="1" fill="#D3D3D3"/>
<text class="token_font" x="80.0" y="24.0"> CREATE </text>
<path d="M164.0,31.0 A13.0,13.0 0 0,1 164.0,5.0 H235.0 A13.0,13.0 0 0,1 235.0,31.0 z" stroke="#FF0000" stroke-width="1" fill="#D3D3D3"/>
<text class="token_font" x="199.5" y="24.0"> TABLE </text>
<line x1="133.0" y1="17.0" x2="147.0" y2="17.0" stroke="#FF0000" stroke-width="1" marker-end="url(#arrow)" />
<line x1="433.0" y1="17.0" x2="434.0" y2="17.0" stroke="#FF0000" stroke-width="1" />
<path d="M306.0,49.0 A13.0,13.0 0 0,1 306.0,23.0 H344.0 A13.0,13.0 0 0,1 344.0,49.0 z" stroke="#FF0000" stroke-width="1" fill="#D3D3D3"/>
<text class="token_font" x="325.0" y="42.0"> IF </text>
<path d="M387.0,49.0 A13.0,13.0 0 0,1 387.0,23.0 H436.0 A13.0,13.0 0 0,1 436.0,49.0 z" stroke="#FF0000" stroke-width="1" fill="#D3D3D3"/>
<text class="token_font" x="411.5" y="42.0"> NOT </text>
<line x1="356.0" y1="35.0" x2="370.0" y2="35.0" stroke="#FF0000" stroke-width="1" marker-end="url(#arrow)" />
<path d="M479.0,49.0 A13.0,13.0 0 0,1 479.0,23.0 H561.0 A13.0,13.0 0 0,1 561.0,49.0 z" stroke="#FF0000" stroke-width="1" fill="#D3D3D3"/>
<text class="token_font" x="520.0" y="42.0"> EXISTS </text>
<line x1="448.0" y1="35.0" x2="462.0" y2="35.0" stroke="#FF0000" stroke-width="1" marker-end="url(#arrow)" />
<line x1="265.0" y1="17.0" x2="429.0" y2="17.0" stroke="#FF0000" stroke-width="1" marker-end="url(#arrow)" />
<line x1="434.0" y1="17.0" x2="603.0" y2="17.0" stroke="#FF0000" stroke-width="1" />
<path d="M274.0,26.0 A9.0,9.0 0 0,0 265.0,17.0" stroke="#FF0000" stroke-width="1" fill="none"/>
<line x1="283.0" y1="35.0" x2="289.0" y2="35.0" stroke="#FF0000" stroke-width="1" marker-end="url(#arrow)" />
<line x1="574.0" y1="35.0" x2="580.0" y2="35.0" stroke="#FF0000" stroke-width="1" marker-end="url(#arrow)" />
<path d="M274.0,26.0 A9.0,9.0 0 0,0 283.0,35.0" stroke="#FF0000" stroke-width="1" fill="none"/>
<path d="M584.0,35.0 A9.0,9.0 0 0,0 593.0,26.0" stroke="#FF0000" stroke-width="1" fill="none"/>
<path d="M602.0,17.0 A9.0,9.0 0 0,0 593.0,26.0" stroke="#FF0000" stroke-width="1" fill="none"/>
<line x1="274.0" y1="26.0" x2="274.0" y2="26.0" stroke="#FF0000" stroke-width="1" />
<line x1="593.0" y1="26.0" x2="593.0" y2="26.0" stroke="#FF0000" stroke-width="1" />
<line x1="247.0" y1="17.0" x2="261.0" y2="17.0" stroke="#FF0000" stroke-width="1" marker-end="url(#arrow)" />
<path d="M632.0,31.0 A13.0,13.0 0 0,1 632.0,5.0 H736.0 A13.0,13.0 0 0,1 736.0,31.0 z" stroke="#FF0000" stroke-width="1" fill="#D3D3D3"/>
<text class="name_font" x="684.0" y="24.0">table-name</text>
<line x1="601.0" y1="17.0" x2="615.0" y2="17.0" stroke="#FF0000" stroke-width="1" marker-end="url(#arrow)" />
<path d="M75.0,113.0 A13.0,13.0 0 0,1 75.0,87.0 H80.0 A13.0,13.0 0 0,1 80.0,113.0 z" stroke="#FF0000" stroke-width="1" fill="#D3D3D3"/>
<text class="name_font" x="77.5" y="106.0">(</text>
<rect x="149.5" y="87.0" width="199.0" height="26.0" stroke="#FF0000" stroke-width="1" fill="#D3D3D3"/>
<text class="box_font" x="249.0" y="106.0">column-definition</text>
<rect x="155.0" y="117.0" width="188.0" height="26.0" stroke="#FF0000" stroke-width="1" fill="#D3D3D3"/>
<text class="box_font" x="249.0" y="136.0">table-constraint</text>
<line x1="127.0" y1="99.0" x2="145.5" y2="99.0" stroke="#FF0000" stroke-width="1" marker-end="url(#arrow)" />
<line x1="348.5" y1="99.0" x2="372.0" y2="99.0" stroke="#FF0000" stroke-width="1" />
<path d="M136.0,108.0 A9.0,9.0 0 0,0 127.0,99.0" stroke="#FF0000" stroke-width="1" fill="none"/>
<line x1="145.0" y1="129.0" x2="151.0" y2="129.0" stroke="#FF0000" stroke-width="1" marker-end="url(#arrow)" />
<line x1="343.0" y1="129.0" x2="349.0" y2="129.0" stroke="#FF0000" stroke-width="1" marker-end="url(#arrow)" />
<path d="M136.0,120.0 A9.0,9.0 0 0,0 145.0,129.0" stroke="#FF0000" stroke-width="1" fill="none"/>
<path d="M353.0,129.0 A9.0,9.0 0 0,0 362.0,120.0" stroke="#FF0000" stroke-width="1" fill="none"/>
<path d="M371.0,99.0 A9.0,9.0 0 0,0 362.0,108.0" stroke="#FF0000" stroke-width="1" fill="none"/>
<line x1="136.0" y1="120.0" x2="136.0" y2="108.0" stroke="#FF0000" stroke-width="1" />
<line x1="362.0" y1="120.0" x2="362.0" y2="108.0" stroke="#FF0000" stroke-width="1" />
<path d="M246.5,169.0 A13.0,13.0 0 0,1 246.5,143.0 H251.5 A13.0,13.0 0 0,1 251.5,169.0 z" stroke="#FF0000" stroke-width="1" fill="#D3D3D3"/>
<text class="name_font" x="249.0" y="162.0">,</text>
<line x1="127.0" y1="155.0" x2="233.5" y2="155.0" stroke="#FF0000" stroke-width="1" />
<line x1="371.0" y1="155.0" x2="268.5" y2="155.0" stroke="#FF0000" stroke-width="1" marker-end="url(#arrow)" />
<line x1="110.0" y1="99.0" x2="127.0" y2="99.0" stroke="#FF0000" stroke-width="1" />
<path d="M127.0,99.0 A9.0,9.0 0 0,0 118.0,108.0" stroke="#FF0000" stroke-width="1" fill="none"/>
<line x1="118.0" y1="146.0" x2="118.0" y2="131.0" stroke="#FF0000" stroke-width="1" marker-end="url(#arrow)" />
<line x1="118.0" y1="127.0" x2="118.0" y2="108.0" stroke="#FF0000" stroke-width="1" />
<path d="M118.0,146.0 A9.0,9.0 0 0,0 127.0,155.0" stroke="#FF0000" stroke-width="1" fill="none"/>
<path d="M380.0,108.0 A9.0,9.0 0 0,0 371.0,99.0" stroke="#FF0000" stroke-width="1" fill="none"/>
<line x1="380.0" y1="108.0" x2="380.0" y2="123.0" stroke="#FF0000" stroke-width="1" marker-end="url(#arrow)" />
<line x1="380.0" y1="127.0" x2="380.0" y2="146.0" stroke="#FF0000" stroke-width="1" />
<path d="M371.0,155.0 A9.0,9.0 0 0,0 380.0,146.0" stroke="#FF0000" stroke-width="1" fill="none"/>
<line x1="371.0" y1="99.0" x2="380.0" y2="99.0" stroke="#FF0000" stroke-width="1" />
<line x1="92.0" y1="99.0" x2="106.0" y2="99.0" stroke="#FF0000" stroke-width="1" marker-end="url(#arrow)" />
<path d="M410.0,113.0 A13.0,13.0 0 0,1 410.0,87.0 H415.0 A13.0,13.0 0 0,1 415.0,113.0 z" stroke="#FF0000" stroke-width="1" fill="#D3D3D3"/>
<text class="name_font" x="412.5" y="106.0">)</text>
<line x1="379.0" y1="99.0" x2="393.0" y2="99.0" stroke="#FF0000" stroke-width="1" marker-end="url(#arrow)" />
<line x1="749.0" y1="17.0" x2="767.0" y2="17.0" stroke="#FF0000" stroke-width="1" />
<path d="M776.0,26.0 A9.0,9.0 0 0,0 767.0,17.0" stroke="#FF0000" stroke-width="1" fill="none"/>
<line x1="776.0" y1="26.0" x2="776.0" y2="38.5" stroke="#FF0000" stroke-width="1" marker-end="url(#arrow)" />
<line x1="776.0" y1="42.5" x2="776.0" y2="59.0" stroke="#FF0000" stroke-width="1" />
<path d="M767.0,68.0 A9.0,9.0 0 0,0 776.0,59.0" stroke="#FF0000" stroke-width="1" fill="none"/>
<line x1="767.0" y1="68.0" x2="409.5" y2="68.0" stroke="#FF0000" stroke-width="1" marker-end="url(#arrow)" />
<line x1="405.5" y1="68.0" x2="44" y2="68.0" stroke="#FF0000" stroke-width="1" />
<path d="M44.0,68.0 A9,9 0 0,0 35.0,77.0" stroke="#FF0000" stroke-width="1" fill="none"/>
<line x1="35" y1="77.0" x2="35" y2="90.0" stroke="#FF0000" stroke-width="1" />
<path d="M35.0,90.0 A9,9 0 0,0 44.0,99.0" stroke="#FF0000" stroke-width="1" fill="none"/>
<line x1="44" y1="99.0" x2="58.0" y2="99.0" stroke="#FF0000" stroke-width="1" marker-end="url(#arrow)" />
<line x1="277.5" y1="207.5" x2="278.5" y2="207.5" stroke="#FF0000" stroke-width="1" />
<path d="M103.0,239.5 A13.0,13.0 0 0,1 103.0,213.5 H163.0 A13.0,13.0 0 0,1 163.0,239.5 z" stroke="#FF0000" stroke-width="1" fill="#D3D3D3"/>
<text class="token_font" x="133.0" y="232.5"> WITH </text>
<path d="M206.0,239.5 A13.0,13.0 0 0,1 206.0,213.5 H288.0 A13.0,13.0 0 0,1 288.0,239.5 z" stroke="#FF0000" stroke-width="1" fill="#D3D3D3"/>
<text class="token_font" x="247.0" y="232.5"> ENGINE </text>
<line x1="175.0" y1="225.5" x2="189.0" y2="225.5" stroke="#FF0000" stroke-width="1" marker-end="url(#arrow)" />
<path d="M331.0,239.5 A13.0,13.0 0 0,1 331.0,213.5 H358.0 A13.0,13.0 0 0,1 358.0,239.5 z" stroke="#FF0000" stroke-width="1" fill="#D3D3D3"/>
<text class="token_font" x="344.5" y="232.5"> = </text>
<line x1="300.0" y1="225.5" x2="314.0" y2="225.5" stroke="#FF0000" stroke-width="1" marker-end="url(#arrow)" />
<rect x="388.0" y="213.5" width="78.0" height="26.0" stroke="#FF0000" stroke-width="1" fill="#D3D3D3"/>
<text class="box_font" x="427.0" y="232.5">string</text>
<line x1="370.0" y1="225.5" x2="384.0" y2="225.5" stroke="#FF0000" stroke-width="1" marker-end="url(#arrow)" />
<line x1="62" y1="207.5" x2="273.5" y2="207.5" stroke="#FF0000" stroke-width="1" marker-end="url(#arrow)" />
<line x1="278.5" y1="207.5" x2="495.0" y2="207.5" stroke="#FF0000" stroke-width="1" />
<path d="M71.0,216.5 A9,9 0 0,0 62.0,207.5" stroke="#FF0000" stroke-width="1" fill="none"/>
<line x1="80" y1="225.5" x2="86.0" y2="225.5" stroke="#FF0000" stroke-width="1" marker-end="url(#arrow)" />
<line x1="466.0" y1="225.5" x2="472.0" y2="225.5" stroke="#FF0000" stroke-width="1" marker-end="url(#arrow)" />
<path d="M71.0,216.5 A9,9 0 0,0 80.0,225.5" stroke="#FF0000" stroke-width="1" fill="none"/>
<path d="M476.0,225.5 A9.0,9.0 0 0,0 485.0,216.5" stroke="#FF0000" stroke-width="1" fill="none"/>
<path d="M494.0,207.5 A9.0,9.0 0 0,0 485.0,216.5" stroke="#FF0000" stroke-width="1" fill="none"/>
<line x1="71" y1="216.5" x2="71" y2="216.5" stroke="#FF0000" stroke-width="1" />
<line x1="485.0" y1="216.5" x2="485.0" y2="216.5" stroke="#FF0000" stroke-width="1" />
<line x1="428.0" y1="99.0" x2="446.0" y2="99.0" stroke="#FF0000" stroke-width="1" />
<path d="M455.0,108.0 A9.0,9.0 0 0,0 446.0,99.0" stroke="#FF0000" stroke-width="1" fill="none"/>
<line x1="455.0" y1="108.0" x2="455.0" y2="139.5" stroke="#FF0000" stroke-width="1" marker-end="url(#arrow)" />
<line x1="455.0" y1="143.5" x2="455.0" y2="179.0" stroke="#FF0000" stroke-width="1" />
<path d="M446.0,188.0 A9.0,9.0 0 0,0 455.0,179.0" stroke="#FF0000" stroke-width="1" fill="none"/>
<line x1="446.0" y1="188.0" x2="249.0" y2="188.0" stroke="#FF0000" stroke-width="1" marker-end="url(#arrow)" />
<line x1="245.0" y1="188.0" x2="44" y2="188.0" stroke="#FF0000" stroke-width="1" />
<path d="M44.0,188.0 A9.75,9.75 0 0,0 44.0,207.5" stroke="#FF0000" stroke-width="1" fill="none"/>
<line x1="44" y1="207.5" x2="58.0" y2="207.5" stroke="#FF0000" stroke-width="1" marker-end="url(#arrow)" />
<line x1="8" y1="17.0" x2="22.0" y2="17.0" stroke="#FF0000" stroke-width="1" marker-end="url(#arrow)" />
<circle cx="513.0" cy="207.5" r="2.0" stroke="#FF0000" stroke-width="1" fill="#FFFFFF"/>
<line x1="493.0" y1="207.5" x2="507.0" y2="207.5" stroke="#FF0000" stroke-width="1" marker-end="url(#arrow)" />
</svg>