<?xml version="1.0" encoding="UTF-8" standalone="no"?>
<!-- Created by Syntax-Trax http://kevinpt.github.io/syntax-trax -->
<svg xmlns="http://www.w3.org/2000/svg"
xmlns:xlink="http://www.w3.org/1999/xlink"
xml:space="preserve"
width="691" height="579" version="1.1">
<style type="text/css">
<![CDATA[
.title_font {fill:#000000; text-anchor:middle;
    font-family:Sans; font-size:22pt; font-weight:bold; font-style:normal;}
.name_font {fill:#000000; text-anchor:middle;
    font-family:Courier; font-size:14pt; font-weight:regular; font-style:normal;}
.bubble_font {fill:#000000; text-anchor:middle;
    font-family:Courier; font-size:14pt; font-weight:bold; font-style:normal;}
.box_font {fill:#000000; text-anchor:middle;
    font-family:Courier; font-size:14pt; font-weight:regular; font-style:normal;}
.token_font {fill:#000000; text-anchor:middle;
    font-family:Courier; font-size:14pt; font-weight:bold; font-style:normal;}
.label {fill:#000;
  text-anchor:middle;
  font-size:16pt; font-weight:bold; font-family:Sans;}
.link {fill: #0D47A1;}
.link:hover {fill: #0D47A1; text-decoration:underline;}
.link:visited {fill: #4A148C;}
]]>
</style>
<defs>
  <marker id="arrow" markerWidth="5" markerHeight="4" refX="2.5" refY="2" orient="auto" markerUnits="strokeWidth">
    <path d="M0,0 L0.5,2 L0,4 L4.5,2 z" fill="#FF0000" />
  </marker>
</defs>
<rect width="100%" height="100%" fill="white"/><path d="M69.0,31.5 A12.0,12.0 0 0,1 69.0,7.5 H118.0 A12.0,12.0 0 0,1 118.0,31.5 z" stroke="none" fill="#000000" fill-opacity="0.4980392156862745"/>
<path d="M69.0,61.0 A12.0,12.0 0 0,1 69.0,37.0 H140.0 A12.0,12.0 0 0,1 140.0,61.0 z" stroke="none" fill="#000000" fill-opacity="0.4980392156862745"/>
<path d="M69.0,90.5 A12.0,12.0 0 0,1 69.0,66.5 H129.0 A12.0,12.0 0 0,1 129.0,90.5 z" stroke="none" fill="#000000" fill-opacity="0.4980392156862745"/>
<path d="M69.0,120.0 A12.0,12.0 0 0,1 69.0,96.0 H162.0 A12.0,12.0 0 0,1 162.0,120.0 z" stroke="none" fill="#000000" fill-opacity="0.4980392156862745"/>
<path d="M69.0,149.5 A12.0,12.0 0 0,1 69.0,125.5 H162.0 A12.0,12.0 0 0,1 162.0,149.5 z" stroke="none" fill="#000000" fill-opacity="0.4980392156862745"/>
<path d="M69.0,179.0 A12.0,12.0 0 0,1 69.0,155.0 H151.0 A12.0,12.0 0 0,1 151.0,179.0 z" stroke="none" fill="#000000" fill-opacity="0.4980392156862745"/>
<path d="M69.0,208.5 A12.0,12.0 0 0,1 69.0,184.5 H118.0 A12.0,12.0 0 0,1 118.0,208.5 z" stroke="none" fill="#000000" fill-opacity="0.4980392156862745"/>
<path d="M69.0,238.0 A12.0,12.0 0 0,1 69.0,214.0 H162.0 A12.0,12.0 0 0,1 162.0,238.0 z" stroke="none" fill="#000000" fill-opacity="0.4980392156862745"/>
<path d="M69.0,267.5 A12.0,12.0 0 0,1 69.0,243.5 H118.0 A12.0,12.0 0 0,1 118.0,267.5 z" stroke="none" fill="#000000" fill-opacity="0.4980392156862745"/>
<path d="M69.0,297.0 A12.0,12.0 0 0,1 69.0,273.0 H151.0 A12.0,12.0 0 0,1 151.0,297.0 z" stroke="none" fill="#000000" fill-opacity="0.4980392156862745"/>
<path d="M69.0,326.5 A12.0,12.0 0 0,1 69.0,302.5 H151.0 A12.0,12.0 0 0,1 151.0,326.5 z" stroke="none" fill="#000000" fill-opacity="0.4980392156862745"/>
<rect x="209.0" y="320.5" width="188.0" height="24.0" stroke="none" fill="#000000" fill-opacity="0.4980392156862745"/>
<path d="M69.0,374.0 A12.0,12.0 0 0,1 69.0,350.0 H151.0 A12.0,12.0 0 0,1 151.0,374.0 z" stroke="none" fill="#000000" fill-opacity="0.4980392156862745"/>
<rect x="209.0" y="368.0" width="188.0" height="24.0" stroke="none" fill="#000000" fill-opacity="0.4980392156862745"/>
<path d="M69.0,421.5 A12.0,12.0 0 0,1 69.0,397.5 H129.0 A12.0,12.0 0 0,1 129.0,421.5 z" stroke="none" fill="#000000" fill-opacity="0.4980392156862745"/>
<rect x="187.0" y="415.5" width="188.0" height="24.0" stroke="none" fill="#000000" fill-opacity="0.4980392156862745"/>
<path d="M69.0,469.0 A12.0,12.0 0 0,1 69.0,445.0 H173.0 A12.0,12.0 0 0,1 173.0,469.0 z" stroke="none" fill="#000000" fill-opacity="0.4980392156862745"/>
<path d="M69.0,498.5 A12.0,12.0 0 0,1 69.0,474.5 H129.0 A12.0,12.0 0 0,1 129.0,498.5 z" stroke="none" fill="#000000" fill-opacity="0.4980392156862745"/>
<path d="M69.0,528.0 A12.0,12.0 0 0,1 69.0,504.0 H184.0 A12.0,12.0 0 0,1 184.0,528.0 z" stroke="none" fill="#000000" fill-opacity="0.4980392156862745"/>
<path d="M69.0,557.5 A12.0,12.0 0 0,1 69.0,533.5 H162.0 A12.0,12.0 0 0,1 162.0,557.5 z" stroke="none" fill="#000000" fill-opacity="0.4980392156862745"/>
<path d="M204.0,557.5 A12.0,12.0 0 0,1 204.0,533.5 H209.0 A12.0,12.0 0 0,1 209.0,557.5 z" stroke="none" fill="#000000" fill-opacity="0.4980392156862745"/>
<rect x="239.0" y="533.5" width="89.0" height="24.0" stroke="none" fill="#000000" fill-opacity="0.4980392156862745"/>
<path d="M358.0,557.5 A12.0,12.0 0 0,1 358.0,533.5 H363.0 A12.0,12.0 0 0,1 363.0,557.5 z" stroke="none" fill="#000000" fill-opacity="0.4980392156862745"/>
<rect x="421.0" y="551.5" width="188.0" height="24.0" stroke="none" fill="#000000" fill-opacity="0.4980392156862745"/>
<circle cx="7.5" cy="16.5" r="2.0" stroke="#FF0000" fill="#FFFFFF" stroke-width="1"/>
<path d="M67.0,29.5 A12.0,12.0 0 0,1 67.0,5.5 H116.0 A12.0,12.0 0 0,1 116.0,29.5 z" stroke="#FF0000" fill="#D3D3D3" stroke-width="1"/>
<text class="token_font" x="91.5" y="23.0"> ANY </text>
<path d="M67.0,59.0 A12.0,12.0 0 0,1 67.0,35.0 H138.0 A12.0,12.0 0 0,1 138.0,59.0 z" stroke="#FF0000" fill="#D3D3D3" stroke-width="1"/>
<text class="token_font" x="102.5" y="52.5"> ARRAY </text>
<path d="M67.0,88.5 A12.0,12.0 0 0,1 67.0,64.5 H127.0 A12.0,12.0 0 0,1 127.0,88.5 z" stroke="#FF0000" fill="#D3D3D3" stroke-width="1"/>
<text class="token_font" x="97.0" y="82.0"> BOOL </text>
<path d="M67.0,118.0 A12.0,12.0 0 0,1 67.0,94.0 H160.0 A12.0,12.0 0 0,1 160.0,118.0 z" stroke="#FF0000" fill="#D3D3D3" stroke-width="1"/>
<text class="token_font" x="113.5" y="111.5"> BOOLEAN </text>
<path d="M67.0,147.5 A12.0,12.0 0 0,1 67.0,123.5 H160.0 A12.0,12.0 0 0,1 160.0,147.5 z" stroke="#FF0000" fill="#D3D3D3" stroke-width="1"/>
<text class="token_font" x="113.5" y="141.0"> DECIMAL </text>
<path d="M67.0,177.0 A12.0,12.0 0 0,1 67.0,153.0 H149.0 A12.0,12.0 0 0,1 149.0,177.0 z" stroke="#FF0000" fill="#D3D3D3" stroke-width="1"/>
<text class="token_font" x="108.0" y="170.5"> DOUBLE </text>
<path d="M67.0,206.5 A12.0,12.0 0 0,1 67.0,182.5 H116.0 A12.0,12.0 0 0,1 116.0,206.5 z" stroke="#FF0000" fill="#D3D3D3" stroke-width="1"/>
<text class="token_font" x="91.5" y="200.0"> INT </text>
<path d="M67.0,236.0 A12.0,12.0 0 0,1 67.0,212.0 H160.0 A12.0,12.0 0 0,1 160.0,236.0 z" stroke="#FF0000" fill="#D3D3D3" stroke-width="1"/>
<text class="token_font" x="113.5" y="229.5"> INTEGER </text>
<path d="M67.0,265.5 A12.0,12.0 0 0,1 67.0,241.5 H116.0 A12.0,12.0 0 0,1 116.0,265.5 z" stroke="#FF0000" fill="#D3D3D3" stroke-width="1"/>
<text class="token_font" x="91.5" y="259.0"> MAP </text>
<path d="M67.0,295.0 A12.0,12.0 0 0,1 67.0,271.0 H149.0 A12.0,12.0 0 0,1 149.0,295.0 z" stroke="#FF0000" fill="#D3D3D3" stroke-width="1"/>
<text class="token_font" x="108.0" y="288.5"> NUMBER </text>
<path d="M67.0,324.5 A12.0,12.0 0 0,1 67.0,300.5 H149.0 A12.0,12.0 0 0,1 149.0,324.5 z" stroke="#FF0000" fill="#D3D3D3" stroke-width="1"/>
<text class="token_font" x="108.0" y="318.0"> SCALAR </text>
<line x1="300.0" y1="311.5" x2="301.0" y2="311.5" stroke="#FF0000" stroke-width="1" />
<rect x="207.0" y="318.5" width="188.0" height="24.0" stroke="#FF0000" fill="#D3D3D3" stroke-width="1"/>
<text class="box_font" x="301.0" y="336.0">collation-clause</text>
<line x1="178.5" y1="311.5" x2="296.0" y2="311.5" stroke="#FF0000" stroke-width="1" marker-end="url(#arrow)" />
<line x1="301.0" y1="311.5" x2="424.5" y2="311.5" stroke="#FF0000" stroke-width="1" />
<path d="M187.5,320.5 A9.0,9.0 0 0,0 178.5,311.5" stroke="#FF0000" fill="none" stroke-width="1"/>
<line x1="196.5" y1="329.5" x2="202.5" y2="329.5" stroke="#FF0000" stroke-width="1" marker-end="url(#arrow)" />
<line x1="395.5" y1="329.5" x2="401.5" y2="329.5" stroke="#FF0000" stroke-width="1" marker-end="url(#arrow)" />
<path d="M187.5,320.5 A9.0,9.0 0 0,0 196.5,329.5" stroke="#FF0000" fill="none" stroke-width="1"/>
<path d="M405.5,329.5 A9.0,9.0 0 0,0 414.5,320.5" stroke="#FF0000" fill="none" stroke-width="1"/>
<path d="M423.5,311.5 A9.0,9.0 0 0,0 414.5,320.5" stroke="#FF0000" fill="none" stroke-width="1"/>
<line x1="187.5" y1="320.5" x2="187.5" y2="320.5" stroke="#FF0000" stroke-width="1" />
<line x1="414.5" y1="320.5" x2="414.5" y2="320.5" stroke="#FF0000" stroke-width="1" />
<line x1="160.5" y1="311.5" x2="174.5" y2="311.5" stroke="#FF0000" stroke-width="1" marker-end="url(#arrow)" />
<path d="M67.0,372.0 A12.0,12.0 0 0,1 67.0,348.0 H149.0 A12.0,12.0 0 0,1 149.0,372.0 z" stroke="#FF0000" fill="#D3D3D3" stroke-width="1"/>
<text class="token_font" x="108.0" y="365.5"> STRING </text>
<line x1="300.0" y1="359.0" x2="301.0" y2="359.0" stroke="#FF0000" stroke-width="1" />
<rect x="207.0" y="366.0" width="188.0" height="24.0" stroke="#FF0000" fill="#D3D3D3" stroke-width="1"/>
<text class="box_font" x="301.0" y="383.5">collation-clause</text>
<line x1="178.5" y1="359.0" x2="296.0" y2="359.0" stroke="#FF0000" stroke-width="1" marker-end="url(#arrow)" />
<line x1="301.0" y1="359.0" x2="424.5" y2="359.0" stroke="#FF0000" stroke-width="1" />
<path d="M187.5,368.0 A9.0,9.0 0 0,0 178.5,359.0" stroke="#FF0000" fill="none" stroke-width="1"/>
<line x1="196.5" y1="377.0" x2="202.5" y2="377.0" stroke="#FF0000" stroke-width="1" marker-end="url(#arrow)" />
<line x1="395.5" y1="377.0" x2="401.5" y2="377.0" stroke="#FF0000" stroke-width="1" marker-end="url(#arrow)" />
<path d="M187.5,368.0 A9.0,9.0 0 0,0 196.5,377.0" stroke="#FF0000" fill="none" stroke-width="1"/>
<path d="M405.5,377.0 A9.0,9.0 0 0,0 414.5,368.0" stroke="#FF0000" fill="none" stroke-width="1"/>
<path d="M423.5,359.0 A9.0,9.0 0 0,0 414.5,368.0" stroke="#FF0000" fill="none" stroke-width="1"/>
<line x1="187.5" y1="368.0" x2="187.5" y2="368.0" stroke="#FF0000" stroke-width="1" />
<line x1="414.5" y1="368.0" x2="414.5" y2="368.0" stroke="#FF0000" stroke-width="1" />
<line x1="160.5" y1="359.0" x2="174.5" y2="359.0" stroke="#FF0000" stroke-width="1" marker-end="url(#arrow)" />
<path d="M67.0,419.5 A12.0,12.0 0 0,1 67.0,395.5 H127.0 A12.0,12.0 0 0,1 127.0,419.5 z" stroke="#FF0000" fill="#D3D3D3" stroke-width="1"/>
<text class="token_font" x="97.0" y="413.0"> TEXT </text>
<line x1="278.0" y1="406.5" x2="279.0" y2="406.5" stroke="#FF0000" stroke-width="1" />
<rect x="185.0" y="413.5" width="188.0" height="24.0" stroke="#FF0000" fill="#D3D3D3" stroke-width="1"/>
<text class="box_font" x="279.0" y="431.0">collation-clause</text>
<line x1="156.5" y1="406.5" x2="274.0" y2="406.5" stroke="#FF0000" stroke-width="1" marker-end="url(#arrow)" />
<line x1="279.0" y1="406.5" x2="402.5" y2="406.5" stroke="#FF0000" stroke-width="1" />
<path d="M165.5,415.5 A9.0,9.0 0 0,0 156.5,406.5" stroke="#FF0000" fill="none" stroke-width="1"/>
<line x1="174.5" y1="424.5" x2="180.5" y2="424.5" stroke="#FF0000" stroke-width="1" marker-end="url(#arrow)" />
<line x1="373.5" y1="424.5" x2="379.5" y2="424.5" stroke="#FF0000" stroke-width="1" marker-end="url(#arrow)" />
<path d="M165.5,415.5 A9.0,9.0 0 0,0 174.5,424.5" stroke="#FF0000" fill="none" stroke-width="1"/>
<path d="M383.5,424.5 A9.0,9.0 0 0,0 392.5,415.5" stroke="#FF0000" fill="none" stroke-width="1"/>
<path d="M401.5,406.5 A9.0,9.0 0 0,0 392.5,415.5" stroke="#FF0000" fill="none" stroke-width="1"/>
<line x1="165.5" y1="415.5" x2="165.5" y2="415.5" stroke="#FF0000" stroke-width="1" />
<line x1="392.5" y1="415.5" x2="392.5" y2="415.5" stroke="#FF0000" stroke-width="1" />
<line x1="138.5" y1="406.5" x2="152.5" y2="406.5" stroke="#FF0000" stroke-width="1" marker-end="url(#arrow)" />
<path d="M67.0,467.0 A12.0,12.0 0 0,1 67.0,443.0 H171.0 A12.0,12.0 0 0,1 171.0,467.0 z" stroke="#FF0000" fill="#D3D3D3" stroke-width="1"/>
<text class="token_font" x="119.0" y="460.5"> UNSIGNED </text>
<path d="M67.0,496.5 A12.0,12.0 0 0,1 67.0,472.5 H127.0 A12.0,12.0 0 0,1 127.0,496.5 z" stroke="#FF0000" fill="#D3D3D3" stroke-width="1"/>
<text class="token_font" x="97.0" y="490.0"> UUID </text>
<path d="M67.0,526.0 A12.0,12.0 0 0,1 67.0,502.0 H182.0 A12.0,12.0 0 0,1 182.0,526.0 z" stroke="#FF0000" fill="#D3D3D3" stroke-width="1"/>
<text class="token_font" x="124.5" y="519.5"> VARBINARY </text>
<path d="M67.0,555.5 A12.0,12.0 0 0,1 67.0,531.5 H160.0 A12.0,12.0 0 0,1 160.0,555.5 z" stroke="#FF0000" fill="#D3D3D3" stroke-width="1"/>
<text class="token_font" x="113.5" y="549.0"> VARCHAR </text>
<path d="M202.0,555.5 A12.0,12.0 0 0,1 202.0,531.5 H207.0 A12.0,12.0 0 0,1 207.0,555.5 z" stroke="#FF0000" fill="#D3D3D3" stroke-width="1"/>
<text class="name_font" x="204.5" y="549.0">(</text>
<line x1="171.5" y1="542.5" x2="185.5" y2="542.5" stroke="#FF0000" stroke-width="1" marker-end="url(#arrow)" />
<rect x="237.0" y="531.5" width="89.0" height="24.0" stroke="#FF0000" fill="#D3D3D3" stroke-width="1"/>
<text class="box_font" x="281.5" y="549.0">integer</text>
<line x1="218.5" y1="542.5" x2="232.5" y2="542.5" stroke="#FF0000" stroke-width="1" marker-end="url(#arrow)" />
<path d="M356.0,555.5 A12.0,12.0 0 0,1 356.0,531.5 H361.0 A12.0,12.0 0 0,1 361.0,555.5 z" stroke="#FF0000" fill="#D3D3D3" stroke-width="1"/>
<text class="name_font" x="358.5" y="549.0">)</text>
<line x1="325.5" y1="542.5" x2="339.5" y2="542.5" stroke="#FF0000" stroke-width="1" marker-end="url(#arrow)" />
<line x1="512.0" y1="542.5" x2="513.0" y2="542.5" stroke="#FF0000" stroke-width="1" />
<rect x="419.0" y="549.5" width="188.0" height="24.0" stroke="#FF0000" fill="#D3D3D3" stroke-width="1"/>
<text class="box_font" x="513.0" y="567.0">collation-clause</text>
<line x1="390.5" y1="542.5" x2="508.0" y2="542.5" stroke="#FF0000" stroke-width="1" marker-end="url(#arrow)" />
<line x1="513.0" y1="542.5" x2="636.5" y2="542.5" stroke="#FF0000" stroke-width="1" />
<path d="M399.5,551.5 A9.0,9.0 0 0,0 390.5,542.5" stroke="#FF0000" fill="none" stroke-width="1"/>
<line x1="408.5" y1="560.5" x2="414.5" y2="560.5" stroke="#FF0000" stroke-width="1" marker-end="url(#arrow)" />
<line x1="607.5" y1="560.5" x2="613.5" y2="560.5" stroke="#FF0000" stroke-width="1" marker-end="url(#arrow)" />
<path d="M399.5,551.5 A9.0,9.0 0 0,0 408.5,560.5" stroke="#FF0000" fill="none" stroke-width="1"/>
<path d="M617.5,560.5 A9.0,9.0 0 0,0 626.5,551.5" stroke="#FF0000" fill="none" stroke-width="1"/>
<path d="M635.5,542.5 A9.0,9.0 0 0,0 626.5,551.5" stroke="#FF0000" fill="none" stroke-width="1"/>
<line x1="399.5" y1="551.5" x2="399.5" y2="551.5" stroke="#FF0000" stroke-width="1" />
<line x1="626.5" y1="551.5" x2="626.5" y2="551.5" stroke="#FF0000" stroke-width="1" />
<line x1="372.5" y1="542.5" x2="386.5" y2="542.5" stroke="#FF0000" stroke-width="1" marker-end="url(#arrow)" />
<line x1="26.5" y1="16.5" x2="50.5" y2="16.5" stroke="#FF0000" stroke-width="1" marker-end="url(#arrow)" />
<line x1="128.5" y1="16.5" x2="666.0" y2="16.5" stroke="#FF0000" stroke-width="1" />
<path d="M35.5,25.5 A9.0,9.0 0 0,0 26.5,16.5" stroke="#FF0000" fill="none" stroke-width="1"/>
<line x1="44.5" y1="46.0" x2="50.5" y2="46.0" stroke="#FF0000" stroke-width="1" marker-end="url(#arrow)" />
<line x1="150.5" y1="46.0" x2="643.0" y2="46.0" stroke="#FF0000" stroke-width="1" marker-end="url(#arrow)" />
<path d="M35.5,37.0 A9.0,9.0 0 0,0 44.5,46.0" stroke="#FF0000" fill="none" stroke-width="1"/>
<path d="M647.0,46.0 A9.0,9.0 0 0,0 656.0,37.0" stroke="#FF0000" fill="none" stroke-width="1"/>
<line x1="44.5" y1="75.5" x2="50.5" y2="75.5" stroke="#FF0000" stroke-width="1" marker-end="url(#arrow)" />
<line x1="139.5" y1="75.5" x2="643.0" y2="75.5" stroke="#FF0000" stroke-width="1" marker-end="url(#arrow)" />
<path d="M35.5,66.5 A9.0,9.0 0 0,0 44.5,75.5" stroke="#FF0000" fill="none" stroke-width="1"/>
<path d="M647.0,75.5 A9.0,9.0 0 0,0 656.0,66.5" stroke="#FF0000" fill="none" stroke-width="1"/>
<line x1="44.5" y1="105.0" x2="50.5" y2="105.0" stroke="#FF0000" stroke-width="1" marker-end="url(#arrow)" />
<line x1="172.5" y1="105.0" x2="643.0" y2="105.0" stroke="#FF0000" stroke-width="1" marker-end="url(#arrow)" />
<path d="M35.5,96.0 A9.0,9.0 0 0,0 44.5,105.0" stroke="#FF0000" fill="none" stroke-width="1"/>
<path d="M647.0,105.0 A9.0,9.0 0 0,0 656.0,96.0" stroke="#FF0000" fill="none" stroke-width="1"/>
<line x1="44.5" y1="134.5" x2="50.5" y2="134.5" stroke="#FF0000" stroke-width="1" marker-end="url(#arrow)" />
<line x1="172.5" y1="134.5" x2="643.0" y2="134.5" stroke="#FF0000" stroke-width="1" marker-end="url(#arrow)" />
<path d="M35.5,125.5 A9.0,9.0 0 0,0 44.5,134.5" stroke="#FF0000" fill="none" stroke-width="1"/>
<path d="M647.0,134.5 A9.0,9.0 0 0,0 656.0,125.5" stroke="#FF0000" fill="none" stroke-width="1"/>
<line x1="44.5" y1="164.0" x2="50.5" y2="164.0" stroke="#FF0000" stroke-width="1" marker-end="url(#arrow)" />
<line x1="161.5" y1="164.0" x2="643.0" y2="164.0" stroke="#FF0000" stroke-width="1" marker-end="url(#arrow)" />
<path d="M35.5,155.0 A9.0,9.0 0 0,0 44.5,164.0" stroke="#FF0000" fill="none" stroke-width="1"/>
<path d="M647.0,164.0 A9.0,9.0 0 0,0 656.0,155.0" stroke="#FF0000" fill="none" stroke-width="1"/>
<line x1="44.5" y1="193.5" x2="50.5" y2="193.5" stroke="#FF0000" stroke-width="1" marker-end="url(#arrow)" />
<line x1="128.5" y1="193.5" x2="643.0" y2="193.5" stroke="#FF0000" stroke-width="1" marker-end="url(#arrow)" />
<path d="M35.5,184.5 A9.0,9.0 0 0,0 44.5,193.5" stroke="#FF0000" fill="none" stroke-width="1"/>
<path d="M647.0,193.5 A9.0,9.0 0 0,0 656.0,184.5" stroke="#FF0000" fill="none" stroke-width="1"/>
<line x1="44.5" y1="223.0" x2="50.5" y2="223.0" stroke="#FF0000" stroke-width="1" marker-end="url(#arrow)" />
<line x1="172.5" y1="223.0" x2="643.0" y2="223.0" stroke="#FF0000" stroke-width="1" marker-end="url(#arrow)" />
<path d="M35.5,214.0 A9.0,9.0 0 0,0 44.5,223.0" stroke="#FF0000" fill="none" stroke-width="1"/>
<path d="M647.0,223.0 A9.0,9.0 0 0,0 656.0,214.0" stroke="#FF0000" fill="none" stroke-width="1"/>
<line x1="44.5" y1="252.5" x2="50.5" y2="252.5" stroke="#FF0000" stroke-width="1" marker-end="url(#arrow)" />
<line x1="128.5" y1="252.5" x2="643.0" y2="252.5" stroke="#FF0000" stroke-width="1" marker-end="url(#arrow)" />
<path d="M35.5,243.5 A9.0,9.0 0 0,0 44.5,252.5" stroke="#FF0000" fill="none" stroke-width="1"/>
<path d="M647.0,252.5 A9.0,9.0 0 0,0 656.0,243.5" stroke="#FF0000" fill="none" stroke-width="1"/>
<line x1="44.5" y1="282.0" x2="50.5" y2="282.0" stroke="#FF0000" stroke-width="1" marker-end="url(#arrow)" />
<line x1="161.5" y1="282.0" x2="643.0" y2="282.0" stroke="#FF0000" stroke-width="1" marker-end="url(#arrow)" />
<path d="M35.5,273.0 A9.0,9.0 0 0,0 44.5,282.0" stroke="#FF0000" fill="none" stroke-width="1"/>
<path d="M647.0,282.0 A9.0,9.0 0 0,0 656.0,273.0" stroke="#FF0000" fill="none" stroke-width="1"/>
<line x1="44.5" y1="311.5" x2="50.5" y2="311.5" stroke="#FF0000" stroke-width="1" marker-end="url(#arrow)" />
<line x1="423.5" y1="311.5" x2="643.0" y2="311.5" stroke="#FF0000" stroke-width="1" marker-end="url(#arrow)" />
<path d="M35.5,302.5 A9.0,9.0 0 0,0 44.5,311.5" stroke="#FF0000" fill="none" stroke-width="1"/>
<path d="M647.0,311.5 A9.0,9.0 0 0,0 656.0,302.5" stroke="#FF0000" fill="none" stroke-width="1"/>
<line x1="44.5" y1="359.0" x2="50.5" y2="359.0" stroke="#FF0000" stroke-width="1" marker-end="url(#arrow)" />
<line x1="423.5" y1="359.0" x2="643.0" y2="359.0" stroke="#FF0000" stroke-width="1" marker-end="url(#arrow)" />
<path d="M35.5,350.0 A9.0,9.0 0 0,0 44.5,359.0" stroke="#FF0000" fill="none" stroke-width="1"/>
<path d="M647.0,359.0 A9.0,9.0 0 0,0 656.0,350.0" stroke="#FF0000" fill="none" stroke-width="1"/>
<line x1="44.5" y1="406.5" x2="50.5" y2="406.5" stroke="#FF0000" stroke-width="1" marker-end="url(#arrow)" />
<line x1="401.5" y1="406.5" x2="643.0" y2="406.5" stroke="#FF0000" stroke-width="1" marker-end="url(#arrow)" />
<path d="M35.5,397.5 A9.0,9.0 0 0,0 44.5,406.5" stroke="#FF0000" fill="none" stroke-width="1"/>
<path d="M647.0,406.5 A9.0,9.0 0 0,0 656.0,397.5" stroke="#FF0000" fill="none" stroke-width="1"/>
<line x1="44.5" y1="454.0" x2="50.5" y2="454.0" stroke="#FF0000" stroke-width="1" marker-end="url(#arrow)" />
<line x1="183.5" y1="454.0" x2="643.0" y2="454.0" stroke="#FF0000" stroke-width="1" marker-end="url(#arrow)" />
<path d="M35.5,445.0 A9.0,9.0 0 0,0 44.5,454.0" stroke="#FF0000" fill="none" stroke-width="1"/>
<path d="M647.0,454.0 A9.0,9.0 0 0,0 656.0,445.0" stroke="#FF0000" fill="none" stroke-width="1"/>
<line x1="44.5" y1="483.5" x2="50.5" y2="483.5" stroke="#FF0000" stroke-width="1" marker-end="url(#arrow)" />
<line x1="139.5" y1="483.5" x2="643.0" y2="483.5" stroke="#FF0000" stroke-width="1" marker-end="url(#arrow)" />
<path d="M35.5,474.5 A9.0,9.0 0 0,0 44.5,483.5" stroke="#FF0000" fill="none" stroke-width="1"/>
<path d="M647.0,483.5 A9.0,9.0 0 0,0 656.0,474.5" stroke="#FF0000" fill="none" stroke-width="1"/>
<line x1="44.5" y1="513.0" x2="50.5" y2="513.0" stroke="#FF0000" stroke-width="1" marker-end="url(#arrow)" />
<line x1="194.5" y1="513.0" x2="643.0" y2="513.0" stroke="#FF0000" stroke-width="1" marker-end="url(#arrow)" />
<path d="M35.5,504.0 A9.0,9.0 0 0,0 44.5,513.0" stroke="#FF0000" fill="none" stroke-width="1"/>
<path d="M647.0,513.0 A9.0,9.0 0 0,0 656.0,504.0" stroke="#FF0000" fill="none" stroke-width="1"/>
<line x1="44.5" y1="542.5" x2="50.5" y2="542.5" stroke="#FF0000" stroke-width="1" marker-end="url(#arrow)" />
<line x1="635.5" y1="542.5" x2="643.0" y2="542.5" stroke="#FF0000" stroke-width="1" marker-end="url(#arrow)" />
<path d="M35.5,533.5 A9.0,9.0 0 0,0 44.5,542.5" stroke="#FF0000" fill="none" stroke-width="1"/>
<path d="M647.0,542.5 A9.0,9.0 0 0,0 656.0,533.5" stroke="#FF0000" fill="none" stroke-width="1"/>
<path d="M665.0,16.5 A9.0,9.0 0 0,0 656.0,25.5" stroke="#FF0000" fill="none" stroke-width="1"/>
<line x1="35.5" y1="533.5" x2="35.5" y2="25.5" stroke="#FF0000" stroke-width="1" />
<line x1="656.0" y1="533.5" x2="656.0" y2="25.5" stroke="#FF0000" stroke-width="1" />
<line x1="8.5" y1="16.5" x2="22.5" y2="16.5" stroke="#FF0000" stroke-width="1" marker-end="url(#arrow)" />
<circle cx="684.0" cy="16.5" r="2.0" stroke="#FF0000" fill="#FFFFFF" stroke-width="1"/>
<line x1="664.0" y1="16.5" x2="678.0" y2="16.5" stroke="#FF0000" stroke-width="1" marker-end="url(#arrow)" />
</svg>