<?xml version="1.0" encoding="UTF-8" standalone="no"?>
<!-- Created by Syntax-Trax http://kevinpt.github.io/syntax-trax -->
<svg xmlns="http://www.w3.org/2000/svg"
xmlns:xlink="http://www.w3.org/1999/xlink"
xml:space="preserve"
width="639" height="54" version="1.1">
<style type="text/css">
<![CDATA[
.box_font {fill:#000000; text-anchor:middle;
    font-family:Courier; font-size:14pt; font-weight:regular; font-style:normal;}
.name_font {fill:#000000; text-anchor:middle;
    font-family:Courier; font-size:14pt; font-weight:regular; font-style:normal;}
.title_font {fill:#000000; text-anchor:middle;
    font-family:Sans; font-size:22pt; font-weight:bold; font-style:normal;}
.bubble_font {fill:#000000; text-anchor:middle;
    font-family:Courier; font-size:14pt; font-weight:bold; font-style:normal;}
.token_font {fill:#000000; text-anchor:middle;
    font-family:Courier; font-size:14pt; font-weight:bold; font-style:normal;}
.label {fill:#000;
  text-anchor:middle;
  font-size:16pt; font-weight:bold; font-family:Sans;}
.link {fill: #0D47A1;}
.link:hover {fill: #0D47A1; text-decoration:underline;}
.link:visited {fill: #4A148C;}
]]>
</style>
<defs>
  <marker id="arrow" markerWidth="5" markerHeight="4" refX="2.5" refY="2" orient="auto" markerUnits="strokeWidth">
    <path d="M0,0 L0.5,2 L0,4 L4.5,2 z" fill="#FF0000" />
  </marker>
</defs>
<rect width="100%" height="100%" fill="white"/><path d="M41.0,33.0 A13.0,13.0 0 0,1 41.0,7.0 H101.0 A13.0,13.0 0 0,1 101.0,33.0 z" stroke="none" fill-opacity="0.498039215686" fill="#000000"/>
<path d="M144.0,33.0 A13.0,13.0 0 0,1 144.0,7.0 H204.0 A13.0,13.0 0 0,1 204.0,33.0 z" stroke="none" fill-opacity="0.498039215686" fill="#000000"/>
<path d="M275.0,51.0 A13.0,13.0 0 0,1 275.0,25.0 H313.0 A13.0,13.0 0 0,1 313.0,51.0 z" stroke="none" fill-opacity="0.498039215686" fill="#000000"/>
<path d="M356.0,51.0 A13.0,13.0 0 0,1 356.0,25.0 H438.0 A13.0,13.0 0 0,1 438.0,51.0 z" stroke="none" fill-opacity="0.498039215686" fill="#000000"/>
<path d="M509.0,33.0 A13.0,13.0 0 0,1 509.0,7.0 H602.0 A13.0,13.0 0 0,1 602.0,33.0 z" stroke="none" fill-opacity="0.498039215686" fill="#000000"/>
<circle cx="7" cy="17.0" r="2" stroke="#FF0000" stroke-width="1" fill="#FFFFFF"/>
<path d="M39.0,31.0 A13.0,13.0 0 0,1 39.0,5.0 H99.0 A13.0,13.0 0 0,1 99.0,31.0 z" stroke="#FF0000" stroke-width="1" fill="#D3D3D3"/>
<text class="token_font" x="69.0" y="24.0"> DROP </text>
<path d="M142.0,31.0 A13.0,13.0 0 0,1 142.0,5.0 H202.0 A13.0,13.0 0 0,1 202.0,31.0 z" stroke="#FF0000" stroke-width="1" fill="#D3D3D3"/>
<text class="token_font" x="172.0" y="24.0"> VIEW </text>
<line x1="111.0" y1="17.0" x2="125.0" y2="17.0" stroke="#FF0000" stroke-width="1" marker-end="url(#arrow)" />
<line x1="354.0" y1="17.0" x2="355.0" y2="17.0" stroke="#FF0000" stroke-width="1" />
<path d="M273.0,49.0 A13.0,13.0 0 0,1 273.0,23.0 H311.0 A13.0,13.0 0 0,1 311.0,49.0 z" stroke="#FF0000" stroke-width="1" fill="#D3D3D3"/>
<text class="token_font" x="292.0" y="42.0"> IF </text>
<path d="M354.0,49.0 A13.0,13.0 0 0,1 354.0,23.0 H436.0 A13.0,13.0 0 0,1 436.0,49.0 z" stroke="#FF0000" stroke-width="1" fill="#D3D3D3"/>
<text class="token_font" x="395.0" y="42.0"> EXISTS </text>
<line x1="323.0" y1="35.0" x2="337.0" y2="35.0" stroke="#FF0000" stroke-width="1" marker-end="url(#arrow)" />
<line x1="232.0" y1="17.0" x2="350.0" y2="17.0" stroke="#FF0000" stroke-width="1" marker-end="url(#arrow)" />
<line x1="355.0" y1="17.0" x2="478.0" y2="17.0" stroke="#FF0000" stroke-width="1" />
<path d="M241.0,26.0 A9.0,9.0 0 0,0 232.0,17.0" stroke="#FF0000" stroke-width="1" fill="none"/>
<line x1="250.0" y1="35.0" x2="256.0" y2="35.0" stroke="#FF0000" stroke-width="1" marker-end="url(#arrow)" />
<line x1="449.0" y1="35.0" x2="455.0" y2="35.0" stroke="#FF0000" stroke-width="1" marker-end="url(#arrow)" />
<path d="M241.0,26.0 A9.0,9.0 0 0,0 250.0,35.0" stroke="#FF0000" stroke-width="1" fill="none"/>
<path d="M459.0,35.0 A9.0,9.0 0 0,0 468.0,26.0" stroke="#FF0000" stroke-width="1" fill="none"/>
<path d="M477.0,17.0 A9.0,9.0 0 0,0 468.0,26.0" stroke="#FF0000" stroke-width="1" fill="none"/>
<line x1="241.0" y1="26.0" x2="241.0" y2="26.0" stroke="#FF0000" stroke-width="1" />
<line x1="468.0" y1="26.0" x2="468.0" y2="26.0" stroke="#FF0000" stroke-width="1" />
<line x1="214.0" y1="17.0" x2="228.0" y2="17.0" stroke="#FF0000" stroke-width="1" marker-end="url(#arrow)" />
<path d="M507.0,31.0 A13.0,13.0 0 0,1 507.0,5.0 H600.0 A13.0,13.0 0 0,1 600.0,31.0 z" stroke="#FF0000" stroke-width="1" fill="#D3D3D3"/>
<text class="name_font" x="553.5" y="24.0">view-name</text>
<line x1="476.0" y1="17.0" x2="490.0" y2="17.0" stroke="#FF0000" stroke-width="1" marker-end="url(#arrow)" />
<line x1="8" y1="17.0" x2="22.0" y2="17.0" stroke="#FF0000" stroke-width="1" marker-end="url(#arrow)" />
<circle cx="632.0" cy="17.0" r="2.0" stroke="#FF0000" stroke-width="1" fill="#FFFFFF"/>
<line x1="612.0" y1="17.0" x2="626.0" y2="17.0" stroke="#FF0000" stroke-width="1" marker-end="url(#arrow)" />
</svg>