<?xml version="1.0" encoding="UTF-8" standalone="no"?>
<!-- Created by Syntax-Trax http://kevinpt.github.io/syntax-trax -->
<svg xmlns="http://www.w3.org/2000/svg"
xmlns:xlink="http://www.w3.org/1999/xlink"
xml:space="preserve"
width="979" height="180" version="1.1">
<style type="text/css">
<![CDATA[
.box_font {fill:#000000; text-anchor:middle;
    font-family:Courier; font-size:14pt; font-weight:regular; font-style:normal;}
.name_font {fill:#000000; text-anchor:middle;
    font-family:Courier; font-size:14pt; font-weight:regular; font-style:normal;}
.title_font {fill:#000000; text-anchor:middle;
    font-family:Sans; font-size:22pt; font-weight:bold; font-style:normal;}
.bubble_font {fill:#000000; text-anchor:middle;
    font-family:Courier; font-size:14pt; font-weight:bold; font-style:normal;}
.token_font {fill:#000000; text-anchor:middle;
    font-family:Courier; font-size:14pt; font-weight:bold; font-style:normal;}
.label {fill:#000;
  text-anchor:middle;
  font-size:16pt; font-weight:bold; font-family:Sans;}
.link {fill: #0D47A1;}
.link:hover {fill: #0D47A1; text-decoration:underline;}
.link:visited {fill: #4A148C;}
]]>
</style>
<defs>
  <marker id="arrow" markerWidth="5" markerHeight="4" refX="2.5" refY="2" orient="auto" markerUnits="strokeWidth">
    <path d="M0,0 L0.5,2 L0,4 L4.5,2 z" fill="#FF0000" />
  </marker>
</defs>
<rect width="100%" height="100%" fill="white"/><path d="M59.0,33.0 A13.0,13.0 0 0,1 59.0,7.0 H163.0 A13.0,13.0 0 0,1 163.0,33.0 z" stroke="none" fill-opacity="0.498039215686" fill="#000000"/>
<path d="M262.0,69.0 A13.0,13.0 0 0,1 262.0,43.0 H300.0 A13.0,13.0 0 0,1 300.0,69.0 z" stroke="none" fill-opacity="0.498039215686" fill="#000000"/>
<path d="M371.0,51.0 A13.0,13.0 0 0,1 371.0,25.0 H475.0 A13.0,13.0 0 0,1 475.0,51.0 z" stroke="none" fill-opacity="0.498039215686" fill="#000000"/>
<path d="M574.0,51.0 A13.0,13.0 0 0,1 574.0,25.0 H667.0 A13.0,13.0 0 0,1 667.0,51.0 z" stroke="none" fill-opacity="0.498039215686" fill="#000000"/>
<path d="M710.0,51.0 A13.0,13.0 0 0,1 710.0,25.0 H748.0 A13.0,13.0 0 0,1 748.0,51.0 z" stroke="none" fill-opacity="0.498039215686" fill="#000000"/>
<path d="M791.0,51.0 A13.0,13.0 0 0,1 791.0,25.0 H895.0 A13.0,13.0 0 0,1 895.0,51.0 z" stroke="none" fill-opacity="0.498039215686" fill="#000000"/>
<path d="M574.0,81.0 A13.0,13.0 0 0,1 574.0,55.0 H623.0 A13.0,13.0 0 0,1 623.0,81.0 z" stroke="none" fill-opacity="0.498039215686" fill="#000000"/>
<path d="M666.0,81.0 A13.0,13.0 0 0,1 666.0,55.0 H759.0 A13.0,13.0 0 0,1 759.0,81.0 z" stroke="none" fill-opacity="0.498039215686" fill="#000000"/>
<path d="M69.0,111.0 A13.0,13.0 0 0,1 69.0,85.0 H74.0 A13.0,13.0 0 0,1 74.0,111.0 z" stroke="none" fill-opacity="0.498039215686" fill="#000000"/>
<rect x="104.0" y="85.0" width="188.0" height="26.0" stroke="none" fill-opacity="0.498039215686" fill="#000000"/>
<path d="M322.0,111.0 A13.0,13.0 0 0,1 322.0,85.0 H327.0 A13.0,13.0 0 0,1 327.0,111.0 z" stroke="none" fill-opacity="0.498039215686" fill="#000000"/>
<path d="M426.0,147.0 A13.0,13.0 0 0,1 426.0,121.0 H464.0 A13.0,13.0 0 0,1 464.0,147.0 z" stroke="none" fill-opacity="0.498039215686" fill="#000000"/>
<path d="M535.0,129.0 A13.0,13.0 0 0,1 535.0,103.0 H639.0 A13.0,13.0 0 0,1 639.0,129.0 z" stroke="none" fill-opacity="0.498039215686" fill="#000000"/>
<path d="M69.0,177.0 A13.0,13.0 0 0,1 69.0,151.0 H74.0 A13.0,13.0 0 0,1 74.0,177.0 z" stroke="none" fill-opacity="0.498039215686" fill="#000000"/>
<rect x="104.0" y="151.0" width="133.0" height="26.0" stroke="none" fill-opacity="0.498039215686" fill="#000000"/>
<path d="M267.0,177.0 A13.0,13.0 0 0,1 267.0,151.0 H272.0 A13.0,13.0 0 0,1 272.0,177.0 z" stroke="none" fill-opacity="0.498039215686" fill="#000000"/>
<circle cx="7" cy="17.0" r="2" stroke="#FF0000" stroke-width="1" fill="#FFFFFF"/>
<path d="M57.0,31.0 A13.0,13.0 0 0,1 57.0,5.0 H161.0 A13.0,13.0 0 0,1 161.0,31.0 z" stroke="#FF0000" stroke-width="1" fill="#D3D3D3"/>
<text class="name_font" x="109.0" y="24.0">table-name</text>
<line x1="352.0" y1="17.0" x2="353.0" y2="17.0" stroke="#FF0000" stroke-width="1" />
<line x1="278.5" y1="35.0" x2="279.5" y2="35.0" stroke="#FF0000" stroke-width="1" />
<path d="M260.0,67.0 A13.0,13.0 0 0,1 260.0,41.0 H298.0 A13.0,13.0 0 0,1 298.0,67.0 z" stroke="#FF0000" stroke-width="1" fill="#D3D3D3"/>
<text class="token_font" x="279.0" y="60.0"> AS </text>
<line x1="219.0" y1="35.0" x2="274.5" y2="35.0" stroke="#FF0000" stroke-width="1" marker-end="url(#arrow)" />
<line x1="279.5" y1="35.0" x2="340.0" y2="35.0" stroke="#FF0000" stroke-width="1" />
<path d="M228.0,44.0 A9.0,9.0 0 0,0 219.0,35.0" stroke="#FF0000" stroke-width="1" fill="none"/>
<line x1="237.0" y1="53.0" x2="243.0" y2="53.0" stroke="#FF0000" stroke-width="1" marker-end="url(#arrow)" />
<line x1="311.0" y1="53.0" x2="317.0" y2="53.0" stroke="#FF0000" stroke-width="1" marker-end="url(#arrow)" />
<path d="M228.0,44.0 A9.0,9.0 0 0,0 237.0,53.0" stroke="#FF0000" stroke-width="1" fill="none"/>
<path d="M321.0,53.0 A9.0,9.0 0 0,0 330.0,44.0" stroke="#FF0000" stroke-width="1" fill="none"/>
<path d="M339.0,35.0 A9.0,9.0 0 0,0 330.0,44.0" stroke="#FF0000" stroke-width="1" fill="none"/>
<line x1="228.0" y1="44.0" x2="228.0" y2="44.0" stroke="#FF0000" stroke-width="1" />
<line x1="330.0" y1="44.0" x2="330.0" y2="44.0" stroke="#FF0000" stroke-width="1" />
<path d="M369.0,49.0 A13.0,13.0 0 0,1 369.0,23.0 H473.0 A13.0,13.0 0 0,1 473.0,49.0 z" stroke="#FF0000" stroke-width="1" fill="#D3D3D3"/>
<text class="name_font" x="421.0" y="42.0">table-name</text>
<line x1="338.0" y1="35.0" x2="352.0" y2="35.0" stroke="#FF0000" stroke-width="1" marker-end="url(#arrow)" />
<line x1="191.0" y1="17.0" x2="348.0" y2="17.0" stroke="#FF0000" stroke-width="1" marker-end="url(#arrow)" />
<line x1="353.0" y1="17.0" x2="515.0" y2="17.0" stroke="#FF0000" stroke-width="1" />
<path d="M200.0,26.0 A9.0,9.0 0 0,0 191.0,17.0" stroke="#FF0000" stroke-width="1" fill="none"/>
<line x1="209.0" y1="35.0" x2="215.0" y2="35.0" stroke="#FF0000" stroke-width="1" marker-end="url(#arrow)" />
<line x1="486.0" y1="35.0" x2="492.0" y2="35.0" stroke="#FF0000" stroke-width="1" marker-end="url(#arrow)" />
<path d="M200.0,26.0 A9.0,9.0 0 0,0 209.0,35.0" stroke="#FF0000" stroke-width="1" fill="none"/>
<path d="M496.0,35.0 A9.0,9.0 0 0,0 505.0,26.0" stroke="#FF0000" stroke-width="1" fill="none"/>
<path d="M514.0,17.0 A9.0,9.0 0 0,0 505.0,26.0" stroke="#FF0000" stroke-width="1" fill="none"/>
<line x1="200.0" y1="26.0" x2="200.0" y2="26.0" stroke="#FF0000" stroke-width="1" />
<line x1="505.0" y1="26.0" x2="505.0" y2="26.0" stroke="#FF0000" stroke-width="1" />
<line x1="173.0" y1="17.0" x2="187.0" y2="17.0" stroke="#FF0000" stroke-width="1" marker-end="url(#arrow)" />
<line x1="732.0" y1="17.0" x2="733.0" y2="17.0" stroke="#FF0000" stroke-width="1" />
<path d="M572.0,49.0 A13.0,13.0 0 0,1 572.0,23.0 H665.0 A13.0,13.0 0 0,1 665.0,49.0 z" stroke="#FF0000" stroke-width="1" fill="#D3D3D3"/>
<text class="token_font" x="618.5" y="42.0"> INDEXED </text>
<path d="M708.0,49.0 A13.0,13.0 0 0,1 708.0,23.0 H746.0 A13.0,13.0 0 0,1 746.0,49.0 z" stroke="#FF0000" stroke-width="1" fill="#D3D3D3"/>
<text class="token_font" x="727.0" y="42.0"> BY </text>
<line x1="677.0" y1="35.0" x2="691.0" y2="35.0" stroke="#FF0000" stroke-width="1" marker-end="url(#arrow)" />
<path d="M789.0,49.0 A13.0,13.0 0 0,1 789.0,23.0 H893.0 A13.0,13.0 0 0,1 893.0,49.0 z" stroke="#FF0000" stroke-width="1" fill="#D3D3D3"/>
<text class="name_font" x="841.0" y="42.0">index-name</text>
<line x1="758.0" y1="35.0" x2="772.0" y2="35.0" stroke="#FF0000" stroke-width="1" marker-end="url(#arrow)" />
<path d="M572.0,79.0 A13.0,13.0 0 0,1 572.0,53.0 H621.0 A13.0,13.0 0 0,1 621.0,79.0 z" stroke="#FF0000" stroke-width="1" fill="#D3D3D3"/>
<text class="token_font" x="596.5" y="72.0"> NOT </text>
<path d="M664.0,79.0 A13.0,13.0 0 0,1 664.0,53.0 H757.0 A13.0,13.0 0 0,1 757.0,79.0 z" stroke="#FF0000" stroke-width="1" fill="#D3D3D3"/>
<text class="token_font" x="710.5" y="72.0"> INDEXED </text>
<line x1="633.0" y1="65.0" x2="647.0" y2="65.0" stroke="#FF0000" stroke-width="1" marker-end="url(#arrow)" />
<line x1="531.0" y1="17.0" x2="728.0" y2="17.0" stroke="#FF0000" stroke-width="1" marker-end="url(#arrow)" />
<line x1="733.0" y1="17.0" x2="935.0" y2="17.0" stroke="#FF0000" stroke-width="1" />
<path d="M540.0,26.0 A9.0,9.0 0 0,0 531.0,17.0" stroke="#FF0000" stroke-width="1" fill="none"/>
<line x1="549.0" y1="35.0" x2="555.0" y2="35.0" stroke="#FF0000" stroke-width="1" marker-end="url(#arrow)" />
<line x1="906.0" y1="35.0" x2="912.0" y2="35.0" stroke="#FF0000" stroke-width="1" marker-end="url(#arrow)" />
<path d="M540.0,26.0 A9.0,9.0 0 0,0 549.0,35.0" stroke="#FF0000" stroke-width="1" fill="none"/>
<path d="M916.0,35.0 A9.0,9.0 0 0,0 925.0,26.0" stroke="#FF0000" stroke-width="1" fill="none"/>
<line x1="549.0" y1="65.0" x2="555.0" y2="65.0" stroke="#FF0000" stroke-width="1" marker-end="url(#arrow)" />
<line x1="770.0" y1="65.0" x2="912.0" y2="65.0" stroke="#FF0000" stroke-width="1" marker-end="url(#arrow)" />
<path d="M540.0,56.0 A9.0,9.0 0 0,0 549.0,65.0" stroke="#FF0000" stroke-width="1" fill="none"/>
<path d="M916.0,65.0 A9.0,9.0 0 0,0 925.0,56.0" stroke="#FF0000" stroke-width="1" fill="none"/>
<path d="M934.0,17.0 A9.0,9.0 0 0,0 925.0,26.0" stroke="#FF0000" stroke-width="1" fill="none"/>
<line x1="540.0" y1="56.0" x2="540.0" y2="26.0" stroke="#FF0000" stroke-width="1" />
<line x1="925.0" y1="56.0" x2="925.0" y2="26.0" stroke="#FF0000" stroke-width="1" />
<line x1="513.0" y1="17.0" x2="527.0" y2="17.0" stroke="#FF0000" stroke-width="1" marker-end="url(#arrow)" />
<path d="M67.0,109.0 A13.0,13.0 0 0,1 67.0,83.0 H72.0 A13.0,13.0 0 0,1 72.0,109.0 z" stroke="#FF0000" stroke-width="1" fill="#D3D3D3"/>
<text class="name_font" x="69.5" y="102.0">(</text>
<rect x="102.0" y="83.0" width="188.0" height="26.0" stroke="#FF0000" stroke-width="1" fill="#D3D3D3"/>
<text class="box_font" x="196.0" y="102.0">select-statement</text>
<line x1="84.0" y1="95.0" x2="98.0" y2="95.0" stroke="#FF0000" stroke-width="1" marker-end="url(#arrow)" />
<path d="M320.0,109.0 A13.0,13.0 0 0,1 320.0,83.0 H325.0 A13.0,13.0 0 0,1 325.0,109.0 z" stroke="#FF0000" stroke-width="1" fill="#D3D3D3"/>
<text class="name_font" x="322.5" y="102.0">)</text>
<line x1="289.0" y1="95.0" x2="303.0" y2="95.0" stroke="#FF0000" stroke-width="1" marker-end="url(#arrow)" />
<line x1="516.0" y1="95.0" x2="517.0" y2="95.0" stroke="#FF0000" stroke-width="1" />
<line x1="442.5" y1="113.0" x2="443.5" y2="113.0" stroke="#FF0000" stroke-width="1" />
<path d="M424.0,145.0 A13.0,13.0 0 0,1 424.0,119.0 H462.0 A13.0,13.0 0 0,1 462.0,145.0 z" stroke="#FF0000" stroke-width="1" fill="#D3D3D3"/>
<text class="token_font" x="443.0" y="138.0"> AS </text>
<line x1="383.0" y1="113.0" x2="438.5" y2="113.0" stroke="#FF0000" stroke-width="1" marker-end="url(#arrow)" />
<line x1="443.5" y1="113.0" x2="504.0" y2="113.0" stroke="#FF0000" stroke-width="1" />
<path d="M392.0,122.0 A9.0,9.0 0 0,0 383.0,113.0" stroke="#FF0000" stroke-width="1" fill="none"/>
<line x1="401.0" y1="131.0" x2="407.0" y2="131.0" stroke="#FF0000" stroke-width="1" marker-end="url(#arrow)" />
<line x1="475.0" y1="131.0" x2="481.0" y2="131.0" stroke="#FF0000" stroke-width="1" marker-end="url(#arrow)" />
<path d="M392.0,122.0 A9.0,9.0 0 0,0 401.0,131.0" stroke="#FF0000" stroke-width="1" fill="none"/>
<path d="M485.0,131.0 A9.0,9.0 0 0,0 494.0,122.0" stroke="#FF0000" stroke-width="1" fill="none"/>
<path d="M503.0,113.0 A9.0,9.0 0 0,0 494.0,122.0" stroke="#FF0000" stroke-width="1" fill="none"/>
<line x1="392.0" y1="122.0" x2="392.0" y2="122.0" stroke="#FF0000" stroke-width="1" />
<line x1="494.0" y1="122.0" x2="494.0" y2="122.0" stroke="#FF0000" stroke-width="1" />
<path d="M533.0,127.0 A13.0,13.0 0 0,1 533.0,101.0 H637.0 A13.0,13.0 0 0,1 637.0,127.0 z" stroke="#FF0000" stroke-width="1" fill="#D3D3D3"/>
<text class="name_font" x="585.0" y="120.0">table-name</text>
<line x1="502.0" y1="113.0" x2="516.0" y2="113.0" stroke="#FF0000" stroke-width="1" marker-end="url(#arrow)" />
<line x1="355.0" y1="95.0" x2="512.0" y2="95.0" stroke="#FF0000" stroke-width="1" marker-end="url(#arrow)" />
<line x1="517.0" y1="95.0" x2="679.0" y2="95.0" stroke="#FF0000" stroke-width="1" />
<path d="M364.0,104.0 A9.0,9.0 0 0,0 355.0,95.0" stroke="#FF0000" stroke-width="1" fill="none"/>
<line x1="373.0" y1="113.0" x2="379.0" y2="113.0" stroke="#FF0000" stroke-width="1" marker-end="url(#arrow)" />
<line x1="650.0" y1="113.0" x2="656.0" y2="113.0" stroke="#FF0000" stroke-width="1" marker-end="url(#arrow)" />
<path d="M364.0,104.0 A9.0,9.0 0 0,0 373.0,113.0" stroke="#FF0000" stroke-width="1" fill="none"/>
<path d="M660.0,113.0 A9.0,9.0 0 0,0 669.0,104.0" stroke="#FF0000" stroke-width="1" fill="none"/>
<path d="M678.0,95.0 A9.0,9.0 0 0,0 669.0,104.0" stroke="#FF0000" stroke-width="1" fill="none"/>
<line x1="364.0" y1="104.0" x2="364.0" y2="104.0" stroke="#FF0000" stroke-width="1" />
<line x1="669.0" y1="104.0" x2="669.0" y2="104.0" stroke="#FF0000" stroke-width="1" />
<line x1="337.0" y1="95.0" x2="351.0" y2="95.0" stroke="#FF0000" stroke-width="1" marker-end="url(#arrow)" />
<path d="M67.0,175.0 A13.0,13.0 0 0,1 67.0,149.0 H72.0 A13.0,13.0 0 0,1 72.0,175.0 z" stroke="#FF0000" stroke-width="1" fill="#D3D3D3"/>
<text class="name_font" x="69.5" y="168.0">(</text>
<rect x="102.0" y="149.0" width="133.0" height="26.0" stroke="#FF0000" stroke-width="1" fill="#D3D3D3"/>
<text class="box_font" x="168.5" y="168.0">join-source</text>
<line x1="84.0" y1="161.0" x2="98.0" y2="161.0" stroke="#FF0000" stroke-width="1" marker-end="url(#arrow)" />
<path d="M265.0,175.0 A13.0,13.0 0 0,1 265.0,149.0 H270.0 A13.0,13.0 0 0,1 270.0,175.0 z" stroke="#FF0000" stroke-width="1" fill="#D3D3D3"/>
<text class="name_font" x="267.5" y="168.0">)</text>
<line x1="234.0" y1="161.0" x2="248.0" y2="161.0" stroke="#FF0000" stroke-width="1" marker-end="url(#arrow)" />
<line x1="26" y1="17.0" x2="40.0" y2="17.0" stroke="#FF0000" stroke-width="1" marker-end="url(#arrow)" />
<line x1="934.0" y1="17.0" x2="954.0" y2="17.0" stroke="#FF0000" stroke-width="1" />
<path d="M35.0,26.0 A9,9 0 0,0 26.0,17.0" stroke="#FF0000" stroke-width="1" fill="none"/>
<line x1="44" y1="95.0" x2="50.0" y2="95.0" stroke="#FF0000" stroke-width="1" marker-end="url(#arrow)" />
<line x1="678.0" y1="95.0" x2="931.0" y2="95.0" stroke="#FF0000" stroke-width="1" marker-end="url(#arrow)" />
<path d="M35.0,86.0 A9,9 0 0,0 44.0,95.0" stroke="#FF0000" stroke-width="1" fill="none"/>
<path d="M935.0,95.0 A9.0,9.0 0 0,0 944.0,86.0" stroke="#FF0000" stroke-width="1" fill="none"/>
<line x1="44" y1="161.0" x2="50.0" y2="161.0" stroke="#FF0000" stroke-width="1" marker-end="url(#arrow)" />
<line x1="283.0" y1="161.0" x2="931.0" y2="161.0" stroke="#FF0000" stroke-width="1" marker-end="url(#arrow)" />
<path d="M35.0,152.0 A9,9 0 0,0 44.0,161.0" stroke="#FF0000" stroke-width="1" fill="none"/>
<path d="M935.0,161.0 A9.0,9.0 0 0,0 944.0,152.0" stroke="#FF0000" stroke-width="1" fill="none"/>
<path d="M953.0,17.0 A9.0,9.0 0 0,0 944.0,26.0" stroke="#FF0000" stroke-width="1" fill="none"/>
<line x1="35" y1="152.0" x2="35" y2="26.0" stroke="#FF0000" stroke-width="1" />
<line x1="944.0" y1="152.0" x2="944.0" y2="26.0" stroke="#FF0000" stroke-width="1" />
<line x1="8" y1="17.0" x2="22.0" y2="17.0" stroke="#FF0000" stroke-width="1" marker-end="url(#arrow)" />
<circle cx="972.0" cy="17.0" r="2.0" stroke="#FF0000" stroke-width="1" fill="#FFFFFF"/>
<line x1="952.0" y1="17.0" x2="966.0" y2="17.0" stroke="#FF0000" stroke-width="1" marker-end="url(#arrow)" />
</svg>