<?xml version="1.0" encoding="UTF-8" standalone="no"?>
<!-- Created by Syntax-Trax http://kevinpt.github.io/syntax-trax -->
<svg xmlns="http://www.w3.org/2000/svg"
xmlns:xlink="http://www.w3.org/1999/xlink"
xml:space="preserve"
width="1087" height="177" version="1.1">
<style type="text/css">
<![CDATA[
.title_font {fill:#000000; text-anchor:middle;
    font-family:Sans; font-size:22pt; font-weight:bold; font-style:normal;}
.name_font {fill:#000000; text-anchor:middle;
    font-family:Courier; font-size:14pt; font-weight:regular; font-style:normal;}
.bubble_font {fill:#000000; text-anchor:middle;
    font-family:Courier; font-size:14pt; font-weight:bold; font-style:normal;}
.box_font {fill:#000000; text-anchor:middle;
    font-family:Courier; font-size:14pt; font-weight:regular; font-style:normal;}
.token_font {fill:#000000; text-anchor:middle;
    font-family:Courier; font-size:14pt; font-weight:bold; font-style:normal;}
.label {fill:#000;
  text-anchor:middle;
  font-size:16pt; font-weight:bold; font-family:Sans;}
.link {fill: #0D47A1;}
.link:hover {fill: #0D47A1; text-decoration:underline;}
.link:visited {fill: #4A148C;}
]]>
</style>
<defs>
  <marker id="arrow" markerWidth="5" markerHeight="4" refX="2.5" refY="2" orient="auto" markerUnits="strokeWidth">
    <path d="M0,0 L0.5,2 L0,4 L4.5,2 z" fill="#FF0000" />
  </marker>
</defs>
<rect width="100%" height="100%" fill="white"/><path d="M87.0,49.5 A12.0,12.0 0 0,1 87.0,25.5 H181.0 A12.0,12.0 0 0,1 181.0,49.5 z" stroke="none" fill="#000000" fill-opacity="0.4980392156862745"/>
<path d="M251.0,31.5 A12.0,12.0 0 0,1 251.0,7.5 H336.0 A12.0,12.0 0 0,1 336.0,31.5 z" stroke="none" fill="#000000" fill-opacity="0.4980392156862745"/>
<path d="M434.0,67.5 A12.0,12.0 0 0,1 434.0,43.5 H463.0 A12.0,12.0 0 0,1 463.0,67.5 z" stroke="none" fill="#000000" fill-opacity="0.4980392156862745"/>
<path d="M533.0,49.5 A12.0,12.0 0 0,1 533.0,25.5 H618.0 A12.0,12.0 0 0,1 618.0,49.5 z" stroke="none" fill="#000000" fill-opacity="0.4980392156862745"/>
<path d="M716.5,49.5 A12.0,12.0 0 0,1 716.5,25.5 H800.5 A12.0,12.0 0 0,1 800.5,49.5 z" stroke="none" fill="#000000" fill-opacity="0.4980392156862745"/>
<path d="M842.5,49.5 A12.0,12.0 0 0,1 842.5,25.5 H871.5 A12.0,12.0 0 0,1 871.5,49.5 z" stroke="none" fill="#000000" fill-opacity="0.4980392156862745"/>
<path d="M913.5,49.5 A12.0,12.0 0 0,1 913.5,25.5 H1002.5 A12.0,12.0 0 0,1 1002.5,49.5 z" stroke="none" fill="#000000" fill-opacity="0.4980392156862745"/>
<path d="M716.5,79.0 A12.0,12.0 0 0,1 716.5,55.0 H759.5 A12.0,12.0 0 0,1 759.5,79.0 z" stroke="none" fill="#000000" fill-opacity="0.4980392156862745"/>
<path d="M801.5,79.0 A12.0,12.0 0 0,1 801.5,55.0 H885.5 A12.0,12.0 0 0,1 885.5,79.0 z" stroke="none" fill="#000000" fill-opacity="0.4980392156862745"/>
<circle cx="69.0" cy="96.5" r="12.0" stroke="none" fill="#000000" fill-opacity="0.4980392156862745"/>
<rect x="99.0" y="84.5" width="145.0" height="24.0" stroke="none" fill="#000000" fill-opacity="0.4980392156862745"/>
<circle cx="274.0" cy="96.5" r="12.0" stroke="none" fill="#000000" fill-opacity="0.4980392156862745"/>
<path d="M372.0,144.5 A12.0,12.0 0 0,1 372.0,120.5 H401.0 A12.0,12.0 0 0,1 401.0,144.5 z" stroke="none" fill="#000000" fill-opacity="0.4980392156862745"/>
<path d="M471.0,126.5 A12.0,12.0 0 0,1 471.0,102.5 H556.0 A12.0,12.0 0 0,1 556.0,126.5 z" stroke="none" fill="#000000" fill-opacity="0.4980392156862745"/>
<circle cx="69.0" cy="162.0" r="12.0" stroke="none" fill="#000000" fill-opacity="0.4980392156862745"/>
<rect x="99.0" y="150.0" width="100.0" height="24.0" stroke="none" fill="#000000" fill-opacity="0.4980392156862745"/>
<circle cx="229.0" cy="162.0" r="12.0" stroke="none" fill="#000000" fill-opacity="0.4980392156862745"/>
<circle cx="7.5" cy="16.5" r="2.0" stroke="#FF0000" fill="#FFFFFF" stroke-width="1"/>
<line x1="131.0" y1="16.5" x2="132.0" y2="16.5" stroke="#FF0000" stroke-width="1" />
<path d="M85.0,47.5 A12.0,12.0 0 0,1 85.0,23.5 H179.0 A12.0,12.0 0 0,1 179.0,47.5 z" stroke="#FF0000" fill="#D3D3D3" stroke-width="1"/>
<text class="token_font" x="132.0" y="41.0"> SEQSCAN </text>
<line x1="44.5" y1="16.5" x2="127.0" y2="16.5" stroke="#FF0000" stroke-width="1" marker-end="url(#arrow)" />
<line x1="132.0" y1="16.5" x2="220.5" y2="16.5" stroke="#FF0000" stroke-width="1" />
<path d="M53.5,25.5 A9.0,9.0 0 0,0 44.5,16.5" stroke="#FF0000" fill="none" stroke-width="1"/>
<line x1="62.5" y1="34.5" x2="68.5" y2="34.5" stroke="#FF0000" stroke-width="1" marker-end="url(#arrow)" />
<line x1="191.5" y1="34.5" x2="201.5" y2="34.5" stroke="#FF0000" stroke-width="1" />
<path d="M53.5,25.5 A9.0,9.0 0 0,0 62.5,34.5" stroke="#FF0000" fill="none" stroke-width="1"/>
<path d="M201.5,34.5 A9.0,9.0 0 0,0 210.5,25.5" stroke="#FF0000" fill="none" stroke-width="1"/>
<path d="M219.5,16.5 A9.0,9.0 0 0,0 210.5,25.5" stroke="#FF0000" fill="none" stroke-width="1"/>
<line x1="53.5" y1="25.5" x2="53.5" y2="25.5" stroke="#FF0000" stroke-width="1" />
<line x1="210.5" y1="25.5" x2="210.5" y2="25.5" stroke="#FF0000" stroke-width="1" />
<path d="M249.0,29.5 A12.0,12.0 0 0,1 249.0,5.5 H334.0 A12.0,12.0 0 0,1 334.0,29.5 z" stroke="#FF0000" fill="#D3D3D3" stroke-width="1"/>
<text class="name_font" x="291.5" y="23.0">table-name</text>
<line x1="218.5" y1="16.5" x2="232.5" y2="16.5" stroke="#FF0000" stroke-width="1" marker-end="url(#arrow)" />
<line x1="509.25" y1="16.5" x2="510.25" y2="16.5" stroke="#FF0000" stroke-width="1" />
<line x1="445.5" y1="34.5" x2="446.5" y2="34.5" stroke="#FF0000" stroke-width="1" />
<path d="M432.0,65.5 A12.0,12.0 0 0,1 432.0,41.5 H461.0 A12.0,12.0 0 0,1 461.0,65.5 z" stroke="#FF0000" fill="#D3D3D3" stroke-width="1"/>
<text class="token_font" x="446.5" y="59.0"> AS </text>
<line x1="391.5" y1="34.5" x2="441.5" y2="34.5" stroke="#FF0000" stroke-width="1" marker-end="url(#arrow)" />
<line x1="446.5" y1="34.5" x2="502.5" y2="34.5" stroke="#FF0000" stroke-width="1" />
<path d="M400.5,43.5 A9.0,9.0 0 0,0 391.5,34.5" stroke="#FF0000" fill="none" stroke-width="1"/>
<line x1="409.5" y1="52.5" x2="415.5" y2="52.5" stroke="#FF0000" stroke-width="1" marker-end="url(#arrow)" />
<line x1="473.5" y1="52.5" x2="483.5" y2="52.5" stroke="#FF0000" stroke-width="1" />
<path d="M400.5,43.5 A9.0,9.0 0 0,0 409.5,52.5" stroke="#FF0000" fill="none" stroke-width="1"/>
<path d="M483.5,52.5 A9.0,9.0 0 0,0 492.5,43.5" stroke="#FF0000" fill="none" stroke-width="1"/>
<path d="M501.5,34.5 A9.0,9.0 0 0,0 492.5,43.5" stroke="#FF0000" fill="none" stroke-width="1"/>
<line x1="400.5" y1="43.5" x2="400.5" y2="43.5" stroke="#FF0000" stroke-width="1" />
<line x1="492.5" y1="43.5" x2="492.5" y2="43.5" stroke="#FF0000" stroke-width="1" />
<path d="M531.0,47.5 A12.0,12.0 0 0,1 531.0,23.5 H616.0 A12.0,12.0 0 0,1 616.0,47.5 z" stroke="#FF0000" fill="#D3D3D3" stroke-width="1"/>
<text class="name_font" x="573.5" y="41.0">table-name</text>
<line x1="500.5" y1="34.5" x2="514.5" y2="34.5" stroke="#FF0000" stroke-width="1" marker-end="url(#arrow)" />
<line x1="363.5" y1="16.5" x2="505.25" y2="16.5" stroke="#FF0000" stroke-width="1" marker-end="url(#arrow)" />
<line x1="510.25" y1="16.5" x2="658.0" y2="16.5" stroke="#FF0000" stroke-width="1" />
<path d="M372.5,25.5 A9.0,9.0 0 0,0 363.5,16.5" stroke="#FF0000" fill="none" stroke-width="1"/>
<line x1="381.5" y1="34.5" x2="387.5" y2="34.5" stroke="#FF0000" stroke-width="1" marker-end="url(#arrow)" />
<line x1="628.5" y1="34.5" x2="639.0" y2="34.5" stroke="#FF0000" stroke-width="1" />
<path d="M372.5,25.5 A9.0,9.0 0 0,0 381.5,34.5" stroke="#FF0000" fill="none" stroke-width="1"/>
<path d="M639.0,34.5 A9.0,9.0 0 0,0 648.0,25.5" stroke="#FF0000" fill="none" stroke-width="1"/>
<path d="M657.0,16.5 A9.0,9.0 0 0,0 648.0,25.5" stroke="#FF0000" fill="none" stroke-width="1"/>
<line x1="372.5" y1="25.5" x2="372.5" y2="25.5" stroke="#FF0000" stroke-width="1" />
<line x1="648.0" y1="25.5" x2="648.0" y2="25.5" stroke="#FF0000" stroke-width="1" />
<line x1="345.5" y1="16.5" x2="359.5" y2="16.5" stroke="#FF0000" stroke-width="1" marker-end="url(#arrow)" />
<line x1="856.5" y1="16.5" x2="857.5" y2="16.5" stroke="#FF0000" stroke-width="1" />
<path d="M714.5,47.5 A12.0,12.0 0 0,1 714.5,23.5 H798.5 A12.0,12.0 0 0,1 798.5,47.5 z" stroke="#FF0000" fill="#D3D3D3" stroke-width="1"/>
<text class="token_font" x="756.5" y="41.0"> INDEXED </text>
<path d="M840.5,47.5 A12.0,12.0 0 0,1 840.5,23.5 H869.5 A12.0,12.0 0 0,1 869.5,47.5 z" stroke="#FF0000" fill="#D3D3D3" stroke-width="1"/>
<text class="token_font" x="855.0" y="41.0"> BY </text>
<line x1="810.0" y1="34.5" x2="824.0" y2="34.5" stroke="#FF0000" stroke-width="1" marker-end="url(#arrow)" />
<path d="M911.5,47.5 A12.0,12.0 0 0,1 911.5,23.5 H1000.5 A12.0,12.0 0 0,1 1000.5,47.5 z" stroke="#FF0000" fill="#D3D3D3" stroke-width="1"/>
<text class="name_font" x="956.0" y="41.0">index-name</text>
<line x1="881.0" y1="34.5" x2="895.0" y2="34.5" stroke="#FF0000" stroke-width="1" marker-end="url(#arrow)" />
<path d="M714.5,77.0 A12.0,12.0 0 0,1 714.5,53.0 H757.5 A12.0,12.0 0 0,1 757.5,77.0 z" stroke="#FF0000" fill="#D3D3D3" stroke-width="1"/>
<text class="token_font" x="736.0" y="70.5"> NOT </text>
<path d="M799.5,77.0 A12.0,12.0 0 0,1 799.5,53.0 H883.5 A12.0,12.0 0 0,1 883.5,77.0 z" stroke="#FF0000" fill="#D3D3D3" stroke-width="1"/>
<text class="token_font" x="841.5" y="70.5"> INDEXED </text>
<line x1="769.0" y1="64.0" x2="783.0" y2="64.0" stroke="#FF0000" stroke-width="1" marker-end="url(#arrow)" />
<line x1="674.0" y1="16.5" x2="852.5" y2="16.5" stroke="#FF0000" stroke-width="1" marker-end="url(#arrow)" />
<line x1="857.5" y1="16.5" x2="1042.0" y2="16.5" stroke="#FF0000" stroke-width="1" />
<path d="M683.0,25.5 A9.0,9.0 0 0,0 674.0,16.5" stroke="#FF0000" fill="none" stroke-width="1"/>
<line x1="692.0" y1="34.5" x2="698.0" y2="34.5" stroke="#FF0000" stroke-width="1" marker-end="url(#arrow)" />
<line x1="1013.0" y1="34.5" x2="1023.0" y2="34.5" stroke="#FF0000" stroke-width="1" />
<path d="M683.0,25.5 A9.0,9.0 0 0,0 692.0,34.5" stroke="#FF0000" fill="none" stroke-width="1"/>
<path d="M1023.0,34.5 A9.0,9.0 0 0,0 1032.0,25.5" stroke="#FF0000" fill="none" stroke-width="1"/>
<line x1="692.0" y1="64.0" x2="698.0" y2="64.0" stroke="#FF0000" stroke-width="1" marker-end="url(#arrow)" />
<line x1="896.0" y1="64.0" x2="1023.0" y2="64.0" stroke="#FF0000" stroke-width="1" />
<path d="M683.0,55.0 A9.0,9.0 0 0,0 692.0,64.0" stroke="#FF0000" fill="none" stroke-width="1"/>
<path d="M1023.0,64.0 A9.0,9.0 0 0,0 1032.0,55.0" stroke="#FF0000" fill="none" stroke-width="1"/>
<path d="M1041.0,16.5 A9.0,9.0 0 0,0 1032.0,25.5" stroke="#FF0000" fill="none" stroke-width="1"/>
<line x1="683.0" y1="55.0" x2="683.0" y2="25.5" stroke="#FF0000" stroke-width="1" />
<line x1="1032.0" y1="55.0" x2="1032.0" y2="25.5" stroke="#FF0000" stroke-width="1" />
<line x1="656.0" y1="16.5" x2="670.0" y2="16.5" stroke="#FF0000" stroke-width="1" marker-end="url(#arrow)" />
<circle cx="67.0" cy="94.5" r="12.0" stroke="#FF0000" fill="#D3D3D3" stroke-width="1"/>
<text class="name_font" x="67.0" y="100.0">(</text>
<rect x="97.0" y="82.5" width="145.0" height="24.0" stroke="#FF0000" fill="#D3D3D3" stroke-width="1"/>
<text class="box_font" x="169.5" y="100.0">select-statement</text>
<line x1="78.5" y1="93.5" x2="92.5" y2="93.5" stroke="#FF0000" stroke-width="1" marker-end="url(#arrow)" />
<circle cx="272.0" cy="94.5" r="12.0" stroke="#FF0000" fill="#D3D3D3" stroke-width="1"/>
<text class="name_font" x="272.0" y="100.0">)</text>
<line x1="241.5" y1="93.5" x2="255.5" y2="93.5" stroke="#FF0000" stroke-width="1" marker-end="url(#arrow)" />
<line x1="447.25" y1="93.5" x2="448.25" y2="93.5" stroke="#FF0000" stroke-width="1" />
<line x1="383.5" y1="111.5" x2="384.5" y2="111.5" stroke="#FF0000" stroke-width="1" />
<path d="M370.0,142.5 A12.0,12.0 0 0,1 370.0,118.5 H399.0 A12.0,12.0 0 0,1 399.0,142.5 z" stroke="#FF0000" fill="#D3D3D3" stroke-width="1"/>
<text class="token_font" x="384.5" y="136.0"> AS </text>
<line x1="329.5" y1="111.5" x2="379.5" y2="111.5" stroke="#FF0000" stroke-width="1" marker-end="url(#arrow)" />
<line x1="384.5" y1="111.5" x2="440.5" y2="111.5" stroke="#FF0000" stroke-width="1" />
<path d="M338.5,120.5 A9.0,9.0 0 0,0 329.5,111.5" stroke="#FF0000" fill="none" stroke-width="1"/>
<line x1="347.5" y1="129.5" x2="353.5" y2="129.5" stroke="#FF0000" stroke-width="1" marker-end="url(#arrow)" />
<line x1="411.5" y1="129.5" x2="421.5" y2="129.5" stroke="#FF0000" stroke-width="1" />
<path d="M338.5,120.5 A9.0,9.0 0 0,0 347.5,129.5" stroke="#FF0000" fill="none" stroke-width="1"/>
<path d="M421.5,129.5 A9.0,9.0 0 0,0 430.5,120.5" stroke="#FF0000" fill="none" stroke-width="1"/>
<path d="M439.5,111.5 A9.0,9.0 0 0,0 430.5,120.5" stroke="#FF0000" fill="none" stroke-width="1"/>
<line x1="338.5" y1="120.5" x2="338.5" y2="120.5" stroke="#FF0000" stroke-width="1" />
<line x1="430.5" y1="120.5" x2="430.5" y2="120.5" stroke="#FF0000" stroke-width="1" />
<path d="M469.0,124.5 A12.0,12.0 0 0,1 469.0,100.5 H554.0 A12.0,12.0 0 0,1 554.0,124.5 z" stroke="#FF0000" fill="#D3D3D3" stroke-width="1"/>
<text class="name_font" x="511.5" y="118.0">table-name</text>
<line x1="438.5" y1="111.5" x2="452.5" y2="111.5" stroke="#FF0000" stroke-width="1" marker-end="url(#arrow)" />
<line x1="301.5" y1="93.5" x2="443.25" y2="93.5" stroke="#FF0000" stroke-width="1" marker-end="url(#arrow)" />
<line x1="448.25" y1="93.5" x2="596.0" y2="93.5" stroke="#FF0000" stroke-width="1" />
<path d="M310.5,102.5 A9.0,9.0 0 0,0 301.5,93.5" stroke="#FF0000" fill="none" stroke-width="1"/>
<line x1="319.5" y1="111.5" x2="325.5" y2="111.5" stroke="#FF0000" stroke-width="1" marker-end="url(#arrow)" />
<line x1="566.5" y1="111.5" x2="577.0" y2="111.5" stroke="#FF0000" stroke-width="1" />
<path d="M310.5,102.5 A9.0,9.0 0 0,0 319.5,111.5" stroke="#FF0000" fill="none" stroke-width="1"/>
<path d="M577.0,111.5 A9.0,9.0 0 0,0 586.0,102.5" stroke="#FF0000" fill="none" stroke-width="1"/>
<path d="M595.0,93.5 A9.0,9.0 0 0,0 586.0,102.5" stroke="#FF0000" fill="none" stroke-width="1"/>
<line x1="310.5" y1="102.5" x2="310.5" y2="102.5" stroke="#FF0000" stroke-width="1" />
<line x1="586.0" y1="102.5" x2="586.0" y2="102.5" stroke="#FF0000" stroke-width="1" />
<line x1="283.5" y1="93.5" x2="297.5" y2="93.5" stroke="#FF0000" stroke-width="1" marker-end="url(#arrow)" />
<circle cx="67.0" cy="160.0" r="12.0" stroke="#FF0000" fill="#D3D3D3" stroke-width="1"/>
<text class="name_font" x="67.0" y="165.5">(</text>
<rect x="97.0" y="148.0" width="100.0" height="24.0" stroke="#FF0000" fill="#D3D3D3" stroke-width="1"/>
<text class="box_font" x="147.0" y="165.5">join-source</text>
<line x1="78.5" y1="159.0" x2="92.5" y2="159.0" stroke="#FF0000" stroke-width="1" marker-end="url(#arrow)" />
<circle cx="227.0" cy="160.0" r="12.0" stroke="#FF0000" fill="#D3D3D3" stroke-width="1"/>
<text class="name_font" x="227.0" y="165.5">)</text>
<line x1="196.5" y1="159.0" x2="210.5" y2="159.0" stroke="#FF0000" stroke-width="1" marker-end="url(#arrow)" />
<line x1="26.5" y1="16.5" x2="44.5" y2="16.5" stroke="#FF0000" stroke-width="1" />
<line x1="1041.0" y1="16.5" x2="1062.0" y2="16.5" stroke="#FF0000" stroke-width="1" />
<path d="M35.5,25.5 A9.0,9.0 0 0,0 26.5,16.5" stroke="#FF0000" fill="none" stroke-width="1"/>
<line x1="44.5" y1="93.5" x2="50.5" y2="93.5" stroke="#FF0000" stroke-width="1" marker-end="url(#arrow)" />
<line x1="595.0" y1="93.5" x2="1043.0" y2="93.5" stroke="#FF0000" stroke-width="1" />
<path d="M35.5,84.5 A9.0,9.0 0 0,0 44.5,93.5" stroke="#FF0000" fill="none" stroke-width="1"/>
<path d="M1043.0,93.5 A9.0,9.0 0 0,0 1052.0,84.5" stroke="#FF0000" fill="none" stroke-width="1"/>
<line x1="44.5" y1="159.0" x2="50.5" y2="159.0" stroke="#FF0000" stroke-width="1" marker-end="url(#arrow)" />
<line x1="239.5" y1="159.0" x2="1043.0" y2="159.0" stroke="#FF0000" stroke-width="1" />
<path d="M35.5,150.0 A9.0,9.0 0 0,0 44.5,159.0" stroke="#FF0000" fill="none" stroke-width="1"/>
<path d="M1043.0,159.0 A9.0,9.0 0 0,0 1052.0,150.0" stroke="#FF0000" fill="none" stroke-width="1"/>
<path d="M1061.0,16.5 A9.0,9.0 0 0,0 1052.0,25.5" stroke="#FF0000" fill="none" stroke-width="1"/>
<line x1="35.5" y1="150.0" x2="35.5" y2="25.5" stroke="#FF0000" stroke-width="1" />
<line x1="1052.0" y1="150.0" x2="1052.0" y2="25.5" stroke="#FF0000" stroke-width="1" />
<line x1="8.5" y1="16.5" x2="22.5" y2="16.5" stroke="#FF0000" stroke-width="1" marker-end="url(#arrow)" />
<circle cx="1080.0" cy="16.5" r="2.0" stroke="#FF0000" fill="#FFFFFF" stroke-width="1"/>
<line x1="1060.0" y1="16.5" x2="1074.0" y2="16.5" stroke="#FF0000" stroke-width="1" marker-end="url(#arrow)" />
</svg>