<?xml version="1.0" encoding="UTF-8" standalone="no"?>
<!-- Created by Syntax-Trax http://kevinpt.github.io/syntax-trax -->
<svg xmlns="http://www.w3.org/2000/svg"
xmlns:xlink="http://www.w3.org/1999/xlink"
xml:space="preserve"
width="578" height="84" version="1.1">
<style type="text/css">
<![CDATA[
.box_font {fill:#000000; text-anchor:middle;
    font-family:Courier; font-size:14pt; font-weight:regular; font-style:normal;}
.name_font {fill:#000000; text-anchor:middle;
    font-family:Courier; font-size:14pt; font-weight:regular; font-style:normal;}
.title_font {fill:#000000; text-anchor:middle;
    font-family:Sans; font-size:22pt; font-weight:bold; font-style:normal;}
.bubble_font {fill:#000000; text-anchor:middle;
    font-family:Courier; font-size:14pt; font-weight:bold; font-style:normal;}
.token_font {fill:#000000; text-anchor:middle;
    font-family:Courier; font-size:14pt; font-weight:bold; font-style:normal;}
.label {fill:#000;
  text-anchor:middle;
  font-size:16pt; font-weight:bold; font-family:Sans;}
.link {fill: #0D47A1;}
.link:hover {fill: #0D47A1; text-decoration:underline;}
.link:visited {fill: #4A148C;}
]]>
</style>
<defs>
  <marker id="arrow" markerWidth="5" markerHeight="4" refX="2.5" refY="2" orient="auto" markerUnits="strokeWidth">
    <path d="M0,0 L0.5,2 L0,4 L4.5,2 z" fill="#FF0000" />
  </marker>
</defs>
<rect width="100%" height="100%" fill="white"/><path d="M41.0,33.0 A13.0,13.0 0 0,1 41.0,7.0 H112.0 A13.0,13.0 0 0,1 112.0,33.0 z" stroke="none" fill-opacity="0.498039215686" fill="#000000"/>
<rect x="142.0" y="7.0" width="89.0" height="26.0" stroke="none" fill-opacity="0.498039215686" fill="#000000"/>
<path d="M307.0,51.0 A13.0,13.0 0 0,1 307.0,25.0 H389.0 A13.0,13.0 0 0,1 389.0,51.0 z" stroke="none" fill-opacity="0.498039215686" fill="#000000"/>
<path d="M317.0,81.0 A13.0,13.0 0 0,1 317.0,55.0 H322.0 A13.0,13.0 0 0,1 322.0,81.0 z" stroke="none" fill-opacity="0.498039215686" fill="#000000"/>
<rect x="437.0" y="25.0" width="89.0" height="26.0" stroke="none" fill-opacity="0.498039215686" fill="#000000"/>
<circle cx="7" cy="17.0" r="2" stroke="#FF0000" stroke-width="1" fill="#FFFFFF"/>
<path d="M39.0,31.0 A13.0,13.0 0 0,1 39.0,5.0 H110.0 A13.0,13.0 0 0,1 110.0,31.0 z" stroke="#FF0000" stroke-width="1" fill="#D3D3D3"/>
<text class="token_font" x="74.5" y="24.0"> LIMIT </text>
<rect x="140.0" y="5.0" width="89.0" height="26.0" stroke="#FF0000" stroke-width="1" fill="#D3D3D3"/>
<text class="box_font" x="184.5" y="24.0">integer</text>
<line x1="122.0" y1="17.0" x2="136.0" y2="17.0" stroke="#FF0000" stroke-width="1" marker-end="url(#arrow)" />
<line x1="398.5" y1="17.0" x2="399.5" y2="17.0" stroke="#FF0000" stroke-width="1" />
<path d="M305.0,49.0 A13.0,13.0 0 0,1 305.0,23.0 H387.0 A13.0,13.0 0 0,1 387.0,49.0 z" stroke="#FF0000" stroke-width="1" fill="#D3D3D3"/>
<text class="token_font" x="346.0" y="42.0"> OFFSET </text>
<path d="M315.0,79.0 A13.0,13.0 0 0,1 315.0,53.0 H320.0 A13.0,13.0 0 0,1 320.0,79.0 z" stroke="#FF0000" stroke-width="1" fill="#D3D3D3"/>
<text class="name_font" x="317.5" y="72.0">,</text>
<line x1="274.0" y1="35.0" x2="288.0" y2="35.0" stroke="#FF0000" stroke-width="1" marker-end="url(#arrow)" />
<line x1="400.0" y1="35.0" x2="419.0" y2="35.0" stroke="#FF0000" stroke-width="1" />
<path d="M283.0,44.0 A9.0,9.0 0 0,0 274.0,35.0" stroke="#FF0000" stroke-width="1" fill="none"/>
<line x1="292.0" y1="65.0" x2="298.0" y2="65.0" stroke="#FF0000" stroke-width="1" marker-end="url(#arrow)" />
<line x1="333.0" y1="65.0" x2="396.0" y2="65.0" stroke="#FF0000" stroke-width="1" marker-end="url(#arrow)" />
<path d="M283.0,56.0 A9.0,9.0 0 0,0 292.0,65.0" stroke="#FF0000" stroke-width="1" fill="none"/>
<path d="M400.0,65.0 A9.0,9.0 0 0,0 409.0,56.0" stroke="#FF0000" stroke-width="1" fill="none"/>
<path d="M418.0,35.0 A9.0,9.0 0 0,0 409.0,44.0" stroke="#FF0000" stroke-width="1" fill="none"/>
<line x1="283.0" y1="56.0" x2="283.0" y2="44.0" stroke="#FF0000" stroke-width="1" />
<line x1="409.0" y1="56.0" x2="409.0" y2="44.0" stroke="#FF0000" stroke-width="1" />
<rect x="435.0" y="23.0" width="89.0" height="26.0" stroke="#FF0000" stroke-width="1" fill="#D3D3D3"/>
<text class="box_font" x="479.5" y="42.0">integer</text>
<line x1="417.0" y1="35.0" x2="431.0" y2="35.0" stroke="#FF0000" stroke-width="1" marker-end="url(#arrow)" />
<line x1="246.0" y1="17.0" x2="394.5" y2="17.0" stroke="#FF0000" stroke-width="1" marker-end="url(#arrow)" />
<line x1="399.5" y1="17.0" x2="553.0" y2="17.0" stroke="#FF0000" stroke-width="1" />
<path d="M255.0,26.0 A9.0,9.0 0 0,0 246.0,17.0" stroke="#FF0000" stroke-width="1" fill="none"/>
<line x1="264.0" y1="35.0" x2="270.0" y2="35.0" stroke="#FF0000" stroke-width="1" marker-end="url(#arrow)" />
<line x1="524.0" y1="35.0" x2="530.0" y2="35.0" stroke="#FF0000" stroke-width="1" marker-end="url(#arrow)" />
<path d="M255.0,26.0 A9.0,9.0 0 0,0 264.0,35.0" stroke="#FF0000" stroke-width="1" fill="none"/>
<path d="M534.0,35.0 A9.0,9.0 0 0,0 543.0,26.0" stroke="#FF0000" stroke-width="1" fill="none"/>
<path d="M552.0,17.0 A9.0,9.0 0 0,0 543.0,26.0" stroke="#FF0000" stroke-width="1" fill="none"/>
<line x1="255.0" y1="26.0" x2="255.0" y2="26.0" stroke="#FF0000" stroke-width="1" />
<line x1="543.0" y1="26.0" x2="543.0" y2="26.0" stroke="#FF0000" stroke-width="1" />
<line x1="228.0" y1="17.0" x2="242.0" y2="17.0" stroke="#FF0000" stroke-width="1" marker-end="url(#arrow)" />
<line x1="8" y1="17.0" x2="22.0" y2="17.0" stroke="#FF0000" stroke-width="1" marker-end="url(#arrow)" />
<circle cx="571.0" cy="17.0" r="2.0" stroke="#FF0000" stroke-width="1" fill="#FFFFFF"/>
<line x1="551.0" y1="17.0" x2="565.0" y2="17.0" stroke="#FF0000" stroke-width="1" marker-end="url(#arrow)" />
</svg>