<?xml version="1.0" encoding="UTF-8" standalone="no"?>
<!-- Created by Syntax-Trax http://kevinpt.github.io/syntax-trax -->
<svg xmlns="http://www.w3.org/2000/svg"
xmlns:xlink="http://www.w3.org/1999/xlink"
xml:space="preserve"
width="688" height="102" version="1.1">
<style type="text/css">
<![CDATA[
.box_font {fill:#000000; text-anchor:middle;
    font-family:Courier; font-size:14pt; font-weight:regular; font-style:normal;}
.name_font {fill:#000000; text-anchor:middle;
    font-family:Courier; font-size:14pt; font-weight:regular; font-style:normal;}
.title_font {fill:#000000; text-anchor:middle;
    font-family:Sans; font-size:22pt; font-weight:bold; font-style:normal;}
.bubble_font {fill:#000000; text-anchor:middle;
    font-family:Courier; font-size:14pt; font-weight:bold; font-style:normal;}
.token_font {fill:#000000; text-anchor:middle;
    font-family:Courier; font-size:14pt; font-weight:bold; font-style:normal;}
.label {fill:#000;
  text-anchor:middle;
  font-size:16pt; font-weight:bold; font-family:Sans;}
.link {fill: #0D47A1;}
.link:hover {fill: #0D47A1; text-decoration:underline;}
.link:visited {fill: #4A148C;}
]]>
</style>
<defs>
  <marker id="arrow" markerWidth="5" markerHeight="4" refX="2.5" refY="2" orient="auto" markerUnits="strokeWidth">
    <path d="M0,0 L0.5,2 L0,4 L4.5,2 z" fill="#FF0000" />
  </marker>
</defs>
<rect width="100%" height="100%" fill="white"/><path d="M41.0,33.0 A13.0,13.0 0 0,1 41.0,7.0 H123.0 A13.0,13.0 0 0,1 123.0,33.0 z" stroke="none" fill-opacity="0.498039215686" fill="#000000"/>
<path d="M194.0,51.0 A13.0,13.0 0 0,1 194.0,25.0 H309.0 A13.0,13.0 0 0,1 309.0,51.0 z" stroke="none" fill-opacity="0.498039215686" fill="#000000"/>
<path d="M380.0,69.0 A13.0,13.0 0 0,1 380.0,43.0 H385.0 A13.0,13.0 0 0,1 385.0,69.0 z" stroke="none" fill-opacity="0.498039215686" fill="#000000"/>
<rect x="415.0" y="43.0" width="144.0" height="26.0" stroke="none" fill-opacity="0.498039215686" fill="#000000"/>
<path d="M380.0,99.0 A13.0,13.0 0 0,1 380.0,73.0 H385.0 A13.0,13.0 0 0,1 385.0,99.0 z" stroke="none" fill-opacity="0.498039215686" fill="#000000"/>
<rect x="415.0" y="73.0" width="144.0" height="26.0" stroke="none" fill-opacity="0.498039215686" fill="#000000"/>
<path d="M589.0,99.0 A13.0,13.0 0 0,1 589.0,73.0 H594.0 A13.0,13.0 0 0,1 594.0,99.0 z" stroke="none" fill-opacity="0.498039215686" fill="#000000"/>
<circle cx="7" cy="17.0" r="2" stroke="#FF0000" stroke-width="1" fill="#FFFFFF"/>
<path d="M39.0,31.0 A13.0,13.0 0 0,1 39.0,5.0 H121.0 A13.0,13.0 0 0,1 121.0,31.0 z" stroke="#FF0000" stroke-width="1" fill="#D3D3D3"/>
<text class="token_font" x="80.0" y="24.0"> PRAGMA </text>
<line x1="406.0" y1="17.0" x2="407.0" y2="17.0" stroke="#FF0000" stroke-width="1" />
<path d="M192.0,49.0 A13.0,13.0 0 0,1 192.0,23.0 H307.0 A13.0,13.0 0 0,1 307.0,49.0 z" stroke="#FF0000" stroke-width="1" fill="#D3D3D3"/>
<text class="name_font" x="249.5" y="42.0">pragma-name</text>
<line x1="484.5" y1="35.0" x2="485.5" y2="35.0" stroke="#FF0000" stroke-width="1" />
<path d="M378.0,67.0 A13.0,13.0 0 0,1 378.0,41.0 H383.0 A13.0,13.0 0 0,1 383.0,67.0 z" stroke="#FF0000" stroke-width="1" fill="#D3D3D3"/>
<text class="name_font" x="380.5" y="60.0">=</text>
<rect x="413.0" y="41.0" width="144.0" height="26.0" stroke="#FF0000" stroke-width="1" fill="#D3D3D3"/>
<text class="box_font" x="485.0" y="60.0">pragma-value</text>
<line x1="395.0" y1="53.0" x2="409.0" y2="53.0" stroke="#FF0000" stroke-width="1" marker-end="url(#arrow)" />
<path d="M378.0,97.0 A13.0,13.0 0 0,1 378.0,71.0 H383.0 A13.0,13.0 0 0,1 383.0,97.0 z" stroke="#FF0000" stroke-width="1" fill="#D3D3D3"/>
<text class="name_font" x="380.5" y="90.0">(</text>
<rect x="413.0" y="71.0" width="144.0" height="26.0" stroke="#FF0000" stroke-width="1" fill="#D3D3D3"/>
<text class="box_font" x="485.0" y="90.0">pragma-value</text>
<line x1="395.0" y1="83.0" x2="409.0" y2="83.0" stroke="#FF0000" stroke-width="1" marker-end="url(#arrow)" />
<path d="M587.0,97.0 A13.0,13.0 0 0,1 587.0,71.0 H592.0 A13.0,13.0 0 0,1 592.0,97.0 z" stroke="#FF0000" stroke-width="1" fill="#D3D3D3"/>
<text class="name_font" x="589.5" y="90.0">)</text>
<line x1="556.0" y1="83.0" x2="570.0" y2="83.0" stroke="#FF0000" stroke-width="1" marker-end="url(#arrow)" />
<line x1="337.0" y1="35.0" x2="480.5" y2="35.0" stroke="#FF0000" stroke-width="1" marker-end="url(#arrow)" />
<line x1="485.5" y1="35.0" x2="634.0" y2="35.0" stroke="#FF0000" stroke-width="1" />
<path d="M346.0,44.0 A9.0,9.0 0 0,0 337.0,35.0" stroke="#FF0000" stroke-width="1" fill="none"/>
<line x1="355.0" y1="53.0" x2="361.0" y2="53.0" stroke="#FF0000" stroke-width="1" marker-end="url(#arrow)" />
<line x1="557.0" y1="53.0" x2="611.0" y2="53.0" stroke="#FF0000" stroke-width="1" marker-end="url(#arrow)" />
<path d="M346.0,44.0 A9.0,9.0 0 0,0 355.0,53.0" stroke="#FF0000" stroke-width="1" fill="none"/>
<path d="M615.0,53.0 A9.0,9.0 0 0,0 624.0,44.0" stroke="#FF0000" stroke-width="1" fill="none"/>
<line x1="355.0" y1="83.0" x2="361.0" y2="83.0" stroke="#FF0000" stroke-width="1" marker-end="url(#arrow)" />
<line x1="605.0" y1="83.0" x2="611.0" y2="83.0" stroke="#FF0000" stroke-width="1" marker-end="url(#arrow)" />
<path d="M346.0,74.0 A9.0,9.0 0 0,0 355.0,83.0" stroke="#FF0000" stroke-width="1" fill="none"/>
<path d="M615.0,83.0 A9.0,9.0 0 0,0 624.0,74.0" stroke="#FF0000" stroke-width="1" fill="none"/>
<path d="M633.0,35.0 A9.0,9.0 0 0,0 624.0,44.0" stroke="#FF0000" stroke-width="1" fill="none"/>
<line x1="346.0" y1="74.0" x2="346.0" y2="44.0" stroke="#FF0000" stroke-width="1" />
<line x1="624.0" y1="74.0" x2="624.0" y2="44.0" stroke="#FF0000" stroke-width="1" />
<line x1="319.0" y1="35.0" x2="333.0" y2="35.0" stroke="#FF0000" stroke-width="1" marker-end="url(#arrow)" />
<line x1="151.0" y1="17.0" x2="402.0" y2="17.0" stroke="#FF0000" stroke-width="1" marker-end="url(#arrow)" />
<line x1="407.0" y1="17.0" x2="663.0" y2="17.0" stroke="#FF0000" stroke-width="1" />
<path d="M160.0,26.0 A9.0,9.0 0 0,0 151.0,17.0" stroke="#FF0000" stroke-width="1" fill="none"/>
<line x1="169.0" y1="35.0" x2="175.0" y2="35.0" stroke="#FF0000" stroke-width="1" marker-end="url(#arrow)" />
<line x1="633.0" y1="35.0" x2="640.0" y2="35.0" stroke="#FF0000" stroke-width="1" marker-end="url(#arrow)" />
<path d="M160.0,26.0 A9.0,9.0 0 0,0 169.0,35.0" stroke="#FF0000" stroke-width="1" fill="none"/>
<path d="M644.0,35.0 A9.0,9.0 0 0,0 653.0,26.0" stroke="#FF0000" stroke-width="1" fill="none"/>
<path d="M662.0,17.0 A9.0,9.0 0 0,0 653.0,26.0" stroke="#FF0000" stroke-width="1" fill="none"/>
<line x1="160.0" y1="26.0" x2="160.0" y2="26.0" stroke="#FF0000" stroke-width="1" />
<line x1="653.0" y1="26.0" x2="653.0" y2="26.0" stroke="#FF0000" stroke-width="1" />
<line x1="133.0" y1="17.0" x2="147.0" y2="17.0" stroke="#FF0000" stroke-width="1" marker-end="url(#arrow)" />
<line x1="8" y1="17.0" x2="22.0" y2="17.0" stroke="#FF0000" stroke-width="1" marker-end="url(#arrow)" />
<circle cx="681.0" cy="17.0" r="2.0" stroke="#FF0000" stroke-width="1" fill="#FFFFFF"/>
<line x1="661.0" y1="17.0" x2="675.0" y2="17.0" stroke="#FF0000" stroke-width="1" marker-end="url(#arrow)" />
</svg>