<?xml version="1.0" encoding="UTF-8" standalone="no"?>
<!-- Created by Syntax-Trax http://kevinpt.github.io/syntax-trax -->
<svg xmlns="http://www.w3.org/2000/svg"
xmlns:xlink="http://www.w3.org/1999/xlink"
xml:space="preserve"
width="631" height="54" version="1.1">
<style type="text/css">
<![CDATA[
.box_font {fill:#000000; text-anchor:middle;
    font-family:Courier; font-size:14pt; font-weight:regular; font-style:normal;}
.name_font {fill:#000000; text-anchor:middle;
    font-family:Courier; font-size:14pt; font-weight:regular; font-style:normal;}
.title_font {fill:#000000; text-anchor:middle;
    font-family:Sans; font-size:22pt; font-weight:bold; font-style:normal;}
.bubble_font {fill:#000000; text-anchor:middle;
    font-family:Courier; font-size:14pt; font-weight:bold; font-style:normal;}
.token_font {fill:#000000; text-anchor:middle;
    font-family:Courier; font-size:14pt; font-weight:bold; font-style:normal;}
.label {fill:#000;
  text-anchor:middle;
  font-size:16pt; font-weight:bold; font-family:Sans;}
.link {fill: #0D47A1;}
.link:hover {fill: #0D47A1; text-decoration:underline;}
.link:visited {fill: #4A148C;}
]]>
</style>
<defs>
  <marker id="arrow" markerWidth="5" markerHeight="4" refX="2.5" refY="2" orient="auto" markerUnits="strokeWidth">
    <path d="M0,0 L0.5,2 L0,4 L4.5,2 z" fill="#FF0000" />
  </marker>
</defs>
<rect width="100%" height="100%" fill="white"/><path d="M41.0,33.0 A13.0,13.0 0 0,1 41.0,7.0 H123.0 A13.0,13.0 0 0,1 123.0,33.0 z" stroke="none" fill-opacity="0.498039215686" fill="#000000"/>
<path d="M166.0,33.0 A13.0,13.0 0 0,1 166.0,7.0 H281.0 A13.0,13.0 0 0,1 281.0,33.0 z" stroke="none" fill-opacity="0.498039215686" fill="#000000"/>
<path d="M352.0,51.0 A13.0,13.0 0 0,1 352.0,25.0 H357.0 A13.0,13.0 0 0,1 357.0,51.0 z" stroke="none" fill-opacity="0.498039215686" fill="#000000"/>
<rect x="387.0" y="25.0" width="144.0" height="26.0" stroke="none" fill-opacity="0.498039215686" fill="#000000"/>
<path d="M561.0,51.0 A13.0,13.0 0 0,1 561.0,25.0 H566.0 A13.0,13.0 0 0,1 566.0,51.0 z" stroke="none" fill-opacity="0.498039215686" fill="#000000"/>
<circle cx="7" cy="17.0" r="2" stroke="#FF0000" stroke-width="1" fill="#FFFFFF"/>
<path d="M39.0,31.0 A13.0,13.0 0 0,1 39.0,5.0 H121.0 A13.0,13.0 0 0,1 121.0,31.0 z" stroke="#FF0000" stroke-width="1" fill="#D3D3D3"/>
<text class="token_font" x="80.0" y="24.0"> PRAGMA </text>
<path d="M164.0,31.0 A13.0,13.0 0 0,1 164.0,5.0 H279.0 A13.0,13.0 0 0,1 279.0,31.0 z" stroke="#FF0000" stroke-width="1" fill="#D3D3D3"/>
<text class="name_font" x="221.5" y="24.0">pragma-name</text>
<line x1="133.0" y1="17.0" x2="147.0" y2="17.0" stroke="#FF0000" stroke-width="1" marker-end="url(#arrow)" />
<line x1="456.5" y1="17.0" x2="457.5" y2="17.0" stroke="#FF0000" stroke-width="1" />
<path d="M350.0,49.0 A13.0,13.0 0 0,1 350.0,23.0 H355.0 A13.0,13.0 0 0,1 355.0,49.0 z" stroke="#FF0000" stroke-width="1" fill="#D3D3D3"/>
<text class="name_font" x="352.5" y="42.0">(</text>
<rect x="385.0" y="23.0" width="144.0" height="26.0" stroke="#FF0000" stroke-width="1" fill="#D3D3D3"/>
<text class="box_font" x="457.0" y="42.0">pragma-value</text>
<line x1="367.0" y1="35.0" x2="381.0" y2="35.0" stroke="#FF0000" stroke-width="1" marker-end="url(#arrow)" />
<path d="M559.0,49.0 A13.0,13.0 0 0,1 559.0,23.0 H564.0 A13.0,13.0 0 0,1 564.0,49.0 z" stroke="#FF0000" stroke-width="1" fill="#D3D3D3"/>
<text class="name_font" x="561.5" y="42.0">)</text>
<line x1="528.0" y1="35.0" x2="542.0" y2="35.0" stroke="#FF0000" stroke-width="1" marker-end="url(#arrow)" />
<line x1="309.0" y1="17.0" x2="452.5" y2="17.0" stroke="#FF0000" stroke-width="1" marker-end="url(#arrow)" />
<line x1="457.5" y1="17.0" x2="606.0" y2="17.0" stroke="#FF0000" stroke-width="1" />
<path d="M318.0,26.0 A9.0,9.0 0 0,0 309.0,17.0" stroke="#FF0000" stroke-width="1" fill="none"/>
<line x1="327.0" y1="35.0" x2="333.0" y2="35.0" stroke="#FF0000" stroke-width="1" marker-end="url(#arrow)" />
<line x1="577.0" y1="35.0" x2="583.0" y2="35.0" stroke="#FF0000" stroke-width="1" marker-end="url(#arrow)" />
<path d="M318.0,26.0 A9.0,9.0 0 0,0 327.0,35.0" stroke="#FF0000" stroke-width="1" fill="none"/>
<path d="M587.0,35.0 A9.0,9.0 0 0,0 596.0,26.0" stroke="#FF0000" stroke-width="1" fill="none"/>
<path d="M605.0,17.0 A9.0,9.0 0 0,0 596.0,26.0" stroke="#FF0000" stroke-width="1" fill="none"/>
<line x1="318.0" y1="26.0" x2="318.0" y2="26.0" stroke="#FF0000" stroke-width="1" />
<line x1="596.0" y1="26.0" x2="596.0" y2="26.0" stroke="#FF0000" stroke-width="1" />
<line x1="291.0" y1="17.0" x2="305.0" y2="17.0" stroke="#FF0000" stroke-width="1" marker-end="url(#arrow)" />
<line x1="8" y1="17.0" x2="22.0" y2="17.0" stroke="#FF0000" stroke-width="1" marker-end="url(#arrow)" />
<circle cx="624.0" cy="17.0" r="2.0" stroke="#FF0000" stroke-width="1" fill="#FFFFFF"/>
<line x1="604.0" y1="17.0" x2="618.0" y2="17.0" stroke="#FF0000" stroke-width="1" marker-end="url(#arrow)" />
</svg>