<?xml version="1.0" encoding="UTF-8" standalone="no"?>
<!-- Created by Syntax-Trax http://kevinpt.github.io/syntax-trax -->
<svg xmlns="http://www.w3.org/2000/svg"
xmlns:xlink="http://www.w3.org/1999/xlink"
xml:space="preserve"
width="592" height="306" version="1.1">
<style type="text/css">
<![CDATA[
.box_font {fill:#000000; text-anchor:middle;
    font-family:Courier; font-size:14pt; font-weight:regular; font-style:normal;}
.name_font {fill:#000000; text-anchor:middle;
    font-family:Courier; font-size:14pt; font-weight:regular; font-style:normal;}
.title_font {fill:#000000; text-anchor:middle;
    font-family:Sans; font-size:22pt; font-weight:bold; font-style:normal;}
.bubble_font {fill:#000000; text-anchor:middle;
    font-family:Courier; font-size:14pt; font-weight:bold; font-style:normal;}
.token_font {fill:#000000; text-anchor:middle;
    font-family:Courier; font-size:14pt; font-weight:bold; font-style:normal;}
.label {fill:#000;
  text-anchor:middle;
  font-size:16pt; font-weight:bold; font-family:Sans;}
.link {fill: #0D47A1;}
.link:hover {fill: #0D47A1; text-decoration:underline;}
.link:visited {fill: #4A148C;}
]]>
</style>
<defs>
  <marker id="arrow" markerWidth="5" markerHeight="4" refX="2.5" refY="2" orient="auto" markerUnits="strokeWidth">
    <path d="M0,0 L0.5,2 L0,4 L4.5,2 z" fill="#FF0000" />
  </marker>
</defs>
<rect width="100%" height="100%" fill="white"/><path d="M41.0,33.0 A13.0,13.0 0 0,1 41.0,7.0 H134.0 A13.0,13.0 0 0,1 134.0,33.0 z" stroke="none" fill-opacity="0.498039215686" fill="#000000"/>
<path d="M177.0,33.0 A13.0,13.0 0 0,1 177.0,7.0 H237.0 A13.0,13.0 0 0,1 237.0,33.0 z" stroke="none" fill-opacity="0.498039215686" fill="#000000"/>
<path d="M280.0,33.0 A13.0,13.0 0 0,1 280.0,7.0 H384.0 A13.0,13.0 0 0,1 384.0,33.0 z" stroke="none" fill-opacity="0.498039215686" fill="#000000"/>
<path d="M113.0,97.0 A13.0,13.0 0 0,1 113.0,71.0 H118.0 A13.0,13.0 0 0,1 118.0,97.0 z" stroke="none" fill-opacity="0.498039215686" fill="#000000"/>
<path d="M178.0,97.0 A13.0,13.0 0 0,1 178.0,71.0 H293.0 A13.0,13.0 0 0,1 293.0,97.0 z" stroke="none" fill-opacity="0.498039215686" fill="#000000"/>
<path d="M233.0,123.0 A13.0,13.0 0 0,1 233.0,97.0 H238.0 A13.0,13.0 0 0,1 238.0,123.0 z" stroke="none" fill-opacity="0.498039215686" fill="#000000"/>
<path d="M345.0,97.0 A13.0,13.0 0 0,1 345.0,71.0 H350.0 A13.0,13.0 0 0,1 350.0,97.0 z" stroke="none" fill-opacity="0.498039215686" fill="#000000"/>
<path d="M149.0,191.5 A13.0,13.0 0 0,1 149.0,165.5 H231.0 A13.0,13.0 0 0,1 231.0,191.5 z" stroke="none" fill-opacity="0.498039215686" fill="#000000"/>
<path d="M291.0,191.5 A13.0,13.0 0 0,1 291.0,165.5 H296.0 A13.0,13.0 0 0,1 296.0,191.5 z" stroke="none" fill-opacity="0.498039215686" fill="#000000"/>
<rect x="343.0" y="165.5" width="122.0" height="26.0" stroke="none" fill-opacity="0.498039215686" fill="#000000"/>
<path d="M401.5,217.5 A13.0,13.0 0 0,1 401.5,191.5 H406.5 A13.0,13.0 0 0,1 406.5,217.5 z" stroke="none" fill-opacity="0.498039215686" fill="#000000"/>
<path d="M504.0,191.5 A13.0,13.0 0 0,1 504.0,165.5 H509.0 A13.0,13.0 0 0,1 509.0,191.5 z" stroke="none" fill-opacity="0.498039215686" fill="#000000"/>
<path d="M397.5,243.5 A13.0,13.0 0 0,1 397.5,217.5 H402.5 A13.0,13.0 0 0,1 402.5,243.5 z" stroke="none" fill-opacity="0.498039215686" fill="#000000"/>
<rect x="146.0" y="247.5" width="188.0" height="26.0" stroke="none" fill-opacity="0.498039215686" fill="#000000"/>
<path d="M105.0,303.5 A13.0,13.0 0 0,1 105.0,277.5 H198.0 A13.0,13.0 0 0,1 198.0,303.5 z" stroke="none" fill-opacity="0.498039215686" fill="#000000"/>
<path d="M241.0,303.5 A13.0,13.0 0 0,1 241.0,277.5 H323.0 A13.0,13.0 0 0,1 323.0,303.5 z" stroke="none" fill-opacity="0.498039215686" fill="#000000"/>
<circle cx="7" cy="17.0" r="2" stroke="#FF0000" stroke-width="1" fill="#FFFFFF"/>
<path d="M39.0,31.0 A13.0,13.0 0 0,1 39.0,5.0 H132.0 A13.0,13.0 0 0,1 132.0,31.0 z" stroke="#FF0000" stroke-width="1" fill="#D3D3D3"/>
<text class="token_font" x="85.5" y="24.0"> REPLACE </text>
<path d="M175.0,31.0 A13.0,13.0 0 0,1 175.0,5.0 H235.0 A13.0,13.0 0 0,1 235.0,31.0 z" stroke="#FF0000" stroke-width="1" fill="#D3D3D3"/>
<text class="token_font" x="205.0" y="24.0"> INTO </text>
<line x1="144.0" y1="17.0" x2="158.0" y2="17.0" stroke="#FF0000" stroke-width="1" marker-end="url(#arrow)" />
<path d="M278.0,31.0 A13.0,13.0 0 0,1 278.0,5.0 H382.0 A13.0,13.0 0 0,1 382.0,31.0 z" stroke="#FF0000" stroke-width="1" fill="#D3D3D3"/>
<text class="name_font" x="330.0" y="24.0">table-name</text>
<line x1="247.0" y1="17.0" x2="261.0" y2="17.0" stroke="#FF0000" stroke-width="1" marker-end="url(#arrow)" />
<path d="M111.0,95.0 A13.0,13.0 0 0,1 111.0,69.0 H116.0 A13.0,13.0 0 0,1 116.0,95.0 z" stroke="#FF0000" stroke-width="1" fill="#D3D3D3"/>
<text class="name_font" x="113.5" y="88.0">(</text>
<path d="M176.0,95.0 A13.0,13.0 0 0,1 176.0,69.0 H291.0 A13.0,13.0 0 0,1 291.0,95.0 z" stroke="#FF0000" stroke-width="1" fill="#D3D3D3"/>
<text class="name_font" x="233.5" y="88.0">column-name</text>
<path d="M231.0,121.0 A13.0,13.0 0 0,1 231.0,95.0 H236.0 A13.0,13.0 0 0,1 236.0,121.0 z" stroke="#FF0000" stroke-width="1" fill="#D3D3D3"/>
<text class="name_font" x="233.5" y="114.0">,</text>
<line x1="163.0" y1="107.0" x2="218.0" y2="107.0" stroke="#FF0000" stroke-width="1" />
<line x1="304.0" y1="107.0" x2="253.0" y2="107.0" stroke="#FF0000" stroke-width="1" marker-end="url(#arrow)" />
<line x1="146.0" y1="81.0" x2="163.0" y2="81.0" stroke="#FF0000" stroke-width="1" />
<path d="M163.0,81.0 A13.0,13.0 0 0,0 163.0,107.0" stroke="#FF0000" stroke-width="1" fill="none"/>
<path d="M304.0,107.0 A13.0,13.0 0 0,0 304.0,81.0" stroke="#FF0000" stroke-width="1" fill="none"/>
<line x1="304.0" y1="81.0" x2="313.0" y2="81.0" stroke="#FF0000" stroke-width="1" />
<line x1="128.0" y1="81.0" x2="142.0" y2="81.0" stroke="#FF0000" stroke-width="1" marker-end="url(#arrow)" />
<path d="M343.0,95.0 A13.0,13.0 0 0,1 343.0,69.0 H348.0 A13.0,13.0 0 0,1 348.0,95.0 z" stroke="#FF0000" stroke-width="1" fill="#D3D3D3"/>
<text class="name_font" x="345.5" y="88.0">)</text>
<line x1="312.0" y1="81.0" x2="326.0" y2="81.0" stroke="#FF0000" stroke-width="1" marker-end="url(#arrow)" />
<line x1="229.0" y1="125.0" x2="230.0" y2="125.0" stroke="#FF0000" stroke-width="1" />
<line x1="80.0" y1="81.0" x2="94.0" y2="81.0" stroke="#FF0000" stroke-width="1" marker-end="url(#arrow)" />
<line x1="361.0" y1="81.0" x2="380.0" y2="81.0" stroke="#FF0000" stroke-width="1" />
<path d="M89.0,90.0 A9.0,9.0 0 0,0 80.0,81.0" stroke="#FF0000" stroke-width="1" fill="none"/>
<line x1="98.0" y1="125.0" x2="225.0" y2="125.0" stroke="#FF0000" stroke-width="1" marker-end="url(#arrow)" />
<line x1="230.0" y1="125.0" x2="357.0" y2="125.0" stroke="#FF0000" stroke-width="1" marker-end="url(#arrow)" />
<path d="M89.0,116.0 A9.0,9.0 0 0,0 98.0,125.0" stroke="#FF0000" stroke-width="1" fill="none"/>
<path d="M361.0,125.0 A9.0,9.0 0 0,0 370.0,116.0" stroke="#FF0000" stroke-width="1" fill="none"/>
<path d="M379.0,81.0 A9.0,9.0 0 0,0 370.0,90.0" stroke="#FF0000" stroke-width="1" fill="none"/>
<line x1="89.0" y1="116.0" x2="89.0" y2="90.0" stroke="#FF0000" stroke-width="1" />
<line x1="370.0" y1="116.0" x2="370.0" y2="90.0" stroke="#FF0000" stroke-width="1" />
<path d="M147.0,189.5 A13.0,13.0 0 0,1 147.0,163.5 H229.0 A13.0,13.0 0 0,1 229.0,189.5 z" stroke="#FF0000" stroke-width="1" fill="#D3D3D3"/>
<text class="token_font" x="188.0" y="182.5"> VALUES </text>
<path d="M289.0,189.5 A13.0,13.0 0 0,1 289.0,163.5 H294.0 A13.0,13.0 0 0,1 294.0,189.5 z" stroke="#FF0000" stroke-width="1" fill="#D3D3D3"/>
<text class="name_font" x="291.5" y="182.5">(</text>
<rect x="341.0" y="163.5" width="122.0" height="26.0" stroke="#FF0000" stroke-width="1" fill="#D3D3D3"/>
<text class="box_font" x="402.0" y="182.5">expression</text>
<path d="M399.5,215.5 A13.0,13.0 0 0,1 399.5,189.5 H404.5 A13.0,13.0 0 0,1 404.5,215.5 z" stroke="#FF0000" stroke-width="1" fill="#D3D3D3"/>
<text class="name_font" x="402.0" y="208.5">,</text>
<line x1="341.0" y1="201.5" x2="386.5" y2="201.5" stroke="#FF0000" stroke-width="1" />
<line x1="463.0" y1="201.5" x2="421.5" y2="201.5" stroke="#FF0000" stroke-width="1" marker-end="url(#arrow)" />
<line x1="324.0" y1="175.5" x2="341.0" y2="175.5" stroke="#FF0000" stroke-width="1" />
<path d="M341.0,175.5 A13.0,13.0 0 0,0 341.0,201.5" stroke="#FF0000" stroke-width="1" fill="none"/>
<path d="M463.0,201.5 A13.0,13.0 0 0,0 463.0,175.5" stroke="#FF0000" stroke-width="1" fill="none"/>
<line x1="463.0" y1="175.5" x2="472.0" y2="175.5" stroke="#FF0000" stroke-width="1" />
<line x1="306.0" y1="175.5" x2="320.0" y2="175.5" stroke="#FF0000" stroke-width="1" marker-end="url(#arrow)" />
<path d="M502.0,189.5 A13.0,13.0 0 0,1 502.0,163.5 H507.0 A13.0,13.0 0 0,1 507.0,189.5 z" stroke="#FF0000" stroke-width="1" fill="#D3D3D3"/>
<text class="name_font" x="504.5" y="182.5">)</text>
<line x1="471.0" y1="175.5" x2="485.0" y2="175.5" stroke="#FF0000" stroke-width="1" marker-end="url(#arrow)" />
<path d="M395.5,241.5 A13.0,13.0 0 0,1 395.5,215.5 H400.5 A13.0,13.0 0 0,1 400.5,241.5 z" stroke="#FF0000" stroke-width="1" fill="#D3D3D3"/>
<text class="name_font" x="398.0" y="234.5">,</text>
<line x1="276.0" y1="227.5" x2="382.5" y2="227.5" stroke="#FF0000" stroke-width="1" />
<line x1="520.0" y1="227.5" x2="417.5" y2="227.5" stroke="#FF0000" stroke-width="1" marker-end="url(#arrow)" />
<line x1="259.0" y1="175.5" x2="276.0" y2="175.5" stroke="#FF0000" stroke-width="1" />
<path d="M276.0,175.5 A9.0,9.0 0 0,0 267.0,184.5" stroke="#FF0000" stroke-width="1" fill="none"/>
<line x1="267.0" y1="218.5" x2="267.0" y2="205.5" stroke="#FF0000" stroke-width="1" marker-end="url(#arrow)" />
<line x1="267.0" y1="201.5" x2="267.0" y2="184.5" stroke="#FF0000" stroke-width="1" />
<path d="M267.0,218.5 A9.0,9.0 0 0,0 276.0,227.5" stroke="#FF0000" stroke-width="1" fill="none"/>
<path d="M529.0,184.5 A9.0,9.0 0 0,0 520.0,175.5" stroke="#FF0000" stroke-width="1" fill="none"/>
<line x1="529.0" y1="184.5" x2="529.0" y2="197.5" stroke="#FF0000" stroke-width="1" marker-end="url(#arrow)" />
<line x1="529.0" y1="201.5" x2="529.0" y2="218.5" stroke="#FF0000" stroke-width="1" />
<path d="M520.0,227.5 A9.0,9.0 0 0,0 529.0,218.5" stroke="#FF0000" stroke-width="1" fill="none"/>
<line x1="520.0" y1="175.5" x2="529.0" y2="175.5" stroke="#FF0000" stroke-width="1" />
<line x1="241.0" y1="175.5" x2="255.0" y2="175.5" stroke="#FF0000" stroke-width="1" marker-end="url(#arrow)" />
<rect x="144.0" y="245.5" width="188.0" height="26.0" stroke="#FF0000" stroke-width="1" fill="#D3D3D3"/>
<text class="box_font" x="238.0" y="264.5">select-statement</text>
<line x1="116.0" y1="175.5" x2="130.0" y2="175.5" stroke="#FF0000" stroke-width="1" marker-end="url(#arrow)" />
<line x1="529.0" y1="175.5" x2="548.5" y2="175.5" stroke="#FF0000" stroke-width="1" />
<path d="M125.0,184.5 A9.0,9.0 0 0,0 116.0,175.5" stroke="#FF0000" stroke-width="1" fill="none"/>
<line x1="134.0" y1="257.5" x2="140.0" y2="257.5" stroke="#FF0000" stroke-width="1" marker-end="url(#arrow)" />
<line x1="332.0" y1="257.5" x2="525.5" y2="257.5" stroke="#FF0000" stroke-width="1" marker-end="url(#arrow)" />
<path d="M125.0,248.5 A9.0,9.0 0 0,0 134.0,257.5" stroke="#FF0000" stroke-width="1" fill="none"/>
<path d="M529.5,257.5 A9.0,9.0 0 0,0 538.5,248.5" stroke="#FF0000" stroke-width="1" fill="none"/>
<path d="M547.5,175.5 A9.0,9.0 0 0,0 538.5,184.5" stroke="#FF0000" stroke-width="1" fill="none"/>
<line x1="125.0" y1="248.5" x2="125.0" y2="184.5" stroke="#FF0000" stroke-width="1" />
<line x1="538.5" y1="248.5" x2="538.5" y2="184.5" stroke="#FF0000" stroke-width="1" />
<line x1="379.0" y1="81.0" x2="397.0" y2="81.0" stroke="#FF0000" stroke-width="1" />
<path d="M406.0,90.0 A9.0,9.0 0 0,0 397.0,81.0" stroke="#FF0000" stroke-width="1" fill="none"/>
<line x1="406.0" y1="90.0" x2="406.0" y2="108.75" stroke="#FF0000" stroke-width="1" marker-end="url(#arrow)" />
<line x1="406.0" y1="112.75" x2="406.0" y2="135.5" stroke="#FF0000" stroke-width="1" />
<path d="M397.0,144.5 A9.0,9.0 0 0,0 406.0,135.5" stroke="#FF0000" stroke-width="1" fill="none"/>
<line x1="397.0" y1="144.5" x2="251.5" y2="144.5" stroke="#FF0000" stroke-width="1" marker-end="url(#arrow)" />
<line x1="247.5" y1="144.5" x2="98.0" y2="144.5" stroke="#FF0000" stroke-width="1" />
<path d="M98.0,144.5 A9.0,9.0 0 0,0 89.0,153.5" stroke="#FF0000" stroke-width="1" fill="none"/>
<line x1="89.0" y1="153.5" x2="89.0" y2="166.5" stroke="#FF0000" stroke-width="1" />
<path d="M89.0,166.5 A9.0,9.0 0 0,0 98.0,175.5" stroke="#FF0000" stroke-width="1" fill="none"/>
<line x1="98.0" y1="175.5" x2="112.0" y2="175.5" stroke="#FF0000" stroke-width="1" marker-end="url(#arrow)" />
<path d="M103.0,301.5 A13.0,13.0 0 0,1 103.0,275.5 H196.0 A13.0,13.0 0 0,1 196.0,301.5 z" stroke="#FF0000" stroke-width="1" fill="#D3D3D3"/>
<text class="token_font" x="149.5" y="294.5"> DEFAULT </text>
<path d="M239.0,301.5 A13.0,13.0 0 0,1 239.0,275.5 H321.0 A13.0,13.0 0 0,1 321.0,301.5 z" stroke="#FF0000" stroke-width="1" fill="#D3D3D3"/>
<text class="token_font" x="280.0" y="294.5"> VALUES </text>
<line x1="208.0" y1="287.5" x2="222.0" y2="287.5" stroke="#FF0000" stroke-width="1" marker-end="url(#arrow)" />
<line x1="62" y1="81.0" x2="76.0" y2="81.0" stroke="#FF0000" stroke-width="1" marker-end="url(#arrow)" />
<line x1="547.5" y1="175.5" x2="567.5" y2="175.5" stroke="#FF0000" stroke-width="1" />
<path d="M71.0,90.0 A9,9 0 0,0 62.0,81.0" stroke="#FF0000" stroke-width="1" fill="none"/>
<line x1="80" y1="287.5" x2="86.0" y2="287.5" stroke="#FF0000" stroke-width="1" marker-end="url(#arrow)" />
<line x1="334.0" y1="287.5" x2="544.5" y2="287.5" stroke="#FF0000" stroke-width="1" marker-end="url(#arrow)" />
<path d="M71.0,278.5 A9,9 0 0,0 80.0,287.5" stroke="#FF0000" stroke-width="1" fill="none"/>
<path d="M548.5,287.5 A9.0,9.0 0 0,0 557.5,278.5" stroke="#FF0000" stroke-width="1" fill="none"/>
<path d="M566.5,175.5 A9.0,9.0 0 0,0 557.5,184.5" stroke="#FF0000" stroke-width="1" fill="none"/>
<line x1="71" y1="278.5" x2="71" y2="90.0" stroke="#FF0000" stroke-width="1" />
<line x1="557.5" y1="278.5" x2="557.5" y2="184.5" stroke="#FF0000" stroke-width="1" />
<line x1="395.0" y1="17.0" x2="413.0" y2="17.0" stroke="#FF0000" stroke-width="1" />
<path d="M422.0,26.0 A9.0,9.0 0 0,0 413.0,17.0" stroke="#FF0000" stroke-width="1" fill="none"/>
<line x1="422.0" y1="26.0" x2="422.0" y2="41.0" stroke="#FF0000" stroke-width="1" />
<path d="M413.0,50.0 A9.0,9.0 0 0,0 422.0,41.0" stroke="#FF0000" stroke-width="1" fill="none"/>
<line x1="413.0" y1="50.0" x2="232.5" y2="50.0" stroke="#FF0000" stroke-width="1" marker-end="url(#arrow)" />
<line x1="228.5" y1="50.0" x2="44" y2="50.0" stroke="#FF0000" stroke-width="1" />
<path d="M44.0,50.0 A9,9 0 0,0 35.0,59.0" stroke="#FF0000" stroke-width="1" fill="none"/>
<line x1="35" y1="59.0" x2="35" y2="72.0" stroke="#FF0000" stroke-width="1" />
<path d="M35.0,72.0 A9,9 0 0,0 44.0,81.0" stroke="#FF0000" stroke-width="1" fill="none"/>
<line x1="44" y1="81.0" x2="58.0" y2="81.0" stroke="#FF0000" stroke-width="1" marker-end="url(#arrow)" />
<line x1="8" y1="17.0" x2="22.0" y2="17.0" stroke="#FF0000" stroke-width="1" marker-end="url(#arrow)" />
<circle cx="585.5" cy="175.5" r="2.0" stroke="#FF0000" stroke-width="1" fill="#FFFFFF"/>
<line x1="565.5" y1="175.5" x2="579.5" y2="175.5" stroke="#FF0000" stroke-width="1" marker-end="url(#arrow)" />
</svg>