<?xml version="1.0" encoding="UTF-8" standalone="no"?>
<!-- Created by Syntax-Trax http://kevinpt.github.io/syntax-trax -->
<svg xmlns="http://www.w3.org/2000/svg"
xmlns:xlink="http://www.w3.org/1999/xlink"
xml:space="preserve"
width="685" height="36" version="1.1">
<style type="text/css">
<![CDATA[
.box_font {fill:#000000; text-anchor:middle;
    font-family:Courier; font-size:14pt; font-weight:regular; font-style:normal;}
.name_font {fill:#000000; text-anchor:middle;
    font-family:Courier; font-size:14pt; font-weight:regular; font-style:normal;}
.title_font {fill:#000000; text-anchor:middle;
    font-family:Sans; font-size:22pt; font-weight:bold; font-style:normal;}
.bubble_font {fill:#000000; text-anchor:middle;
    font-family:Courier; font-size:14pt; font-weight:bold; font-style:normal;}
.token_font {fill:#000000; text-anchor:middle;
    font-family:Courier; font-size:14pt; font-weight:bold; font-style:normal;}
.label {fill:#000;
  text-anchor:middle;
  font-size:16pt; font-weight:bold; font-family:Sans;}
.link {fill: #0D47A1;}
.link:hover {fill: #0D47A1; text-decoration:underline;}
.link:visited {fill: #4A148C;}
]]>
</style>
<defs>
  <marker id="arrow" markerWidth="5" markerHeight="4" refX="2.5" refY="2" orient="auto" markerUnits="strokeWidth">
    <path d="M0,0 L0.5,2 L0,4 L4.5,2 z" fill="#FF0000" />
  </marker>
</defs>
<rect width="100%" height="100%" fill="white"/><path d="M41.0,33.0 A13.0,13.0 0 0,1 41.0,7.0 H90.0 A13.0,13.0 0 0,1 90.0,33.0 z" stroke="none" fill-opacity="0.498039215686" fill="#000000"/>
<path d="M133.0,33.0 A13.0,13.0 0 0,1 133.0,7.0 H215.0 A13.0,13.0 0 0,1 215.0,33.0 z" stroke="none" fill-opacity="0.498039215686" fill="#000000"/>
<path d="M258.0,33.0 A13.0,13.0 0 0,1 258.0,7.0 H406.0 A13.0,13.0 0 0,1 406.0,33.0 z" stroke="none" fill-opacity="0.498039215686" fill="#000000"/>
<path d="M449.0,33.0 A13.0,13.0 0 0,1 449.0,7.0 H476.0 A13.0,13.0 0 0,1 476.0,33.0 z" stroke="none" fill-opacity="0.498039215686" fill="#000000"/>
<rect x="506.0" y="7.0" width="155.0" height="26.0" stroke="none" fill-opacity="0.498039215686" fill="#000000"/>
<circle cx="7" cy="17.0" r="2" stroke="#FF0000" stroke-width="1" fill="#FFFFFF"/>
<path d="M39.0,31.0 A13.0,13.0 0 0,1 39.0,5.0 H88.0 A13.0,13.0 0 0,1 88.0,31.0 z" stroke="#FF0000" stroke-width="1" fill="#D3D3D3"/>
<text class="token_font" x="63.5" y="24.0"> SET </text>
<path d="M131.0,31.0 A13.0,13.0 0 0,1 131.0,5.0 H213.0 A13.0,13.0 0 0,1 213.0,31.0 z" stroke="#FF0000" stroke-width="1" fill="#D3D3D3"/>
<text class="bubble_font" x="172.0" y="24.0">SESSION </text>
<line x1="100.0" y1="17.0" x2="114.0" y2="17.0" stroke="#FF0000" stroke-width="1" marker-end="url(#arrow)" />
<path d="M256.0,31.0 A13.0,13.0 0 0,1 256.0,5.0 H404.0 A13.0,13.0 0 0,1 404.0,31.0 z" stroke="#FF0000" stroke-width="1" fill="#D3D3D3"/>
<text class="name_font" x="330.0" y="24.0">&quot;setting-name&quot;</text>
<line x1="225.0" y1="17.0" x2="239.0" y2="17.0" stroke="#FF0000" stroke-width="1" marker-end="url(#arrow)" />
<path d="M447.0,31.0 A13.0,13.0 0 0,1 447.0,5.0 H474.0 A13.0,13.0 0 0,1 474.0,31.0 z" stroke="#FF0000" stroke-width="1" fill="#D3D3D3"/>
<text class="token_font" x="460.5" y="24.0"> = </text>
<line x1="416.0" y1="17.0" x2="430.0" y2="17.0" stroke="#FF0000" stroke-width="1" marker-end="url(#arrow)" />
<rect x="504.0" y="5.0" width="155.0" height="26.0" stroke="#FF0000" stroke-width="1" fill="#D3D3D3"/>
<text class="box_font" x="581.5" y="24.0">setting-value</text>
<line x1="486.0" y1="17.0" x2="500.0" y2="17.0" stroke="#FF0000" stroke-width="1" marker-end="url(#arrow)" />
<line x1="8" y1="17.0" x2="22.0" y2="17.0" stroke="#FF0000" stroke-width="1" marker-end="url(#arrow)" />
<circle cx="678.0" cy="17.0" r="2.0" stroke="#FF0000" stroke-width="1" fill="#FFFFFF"/>
<line x1="658.0" y1="17.0" x2="672.0" y2="17.0" stroke="#FF0000" stroke-width="1" marker-end="url(#arrow)" />
</svg>