<?xml version="1.0" encoding="UTF-8" standalone="no"?>
<!-- Created by Syntax-Trax http://kevinpt.github.io/syntax-trax -->
<svg xmlns="http://www.w3.org/2000/svg"
xmlns:xlink="http://www.w3.org/1999/xlink"
xml:space="preserve"
width="1078" height="54" version="1.1">
<style type="text/css">
<![CDATA[
.box_font {fill:#000000; text-anchor:middle;
    font-family:Courier; font-size:14pt; font-weight:regular; font-style:normal;}
.name_font {fill:#000000; text-anchor:middle;
    font-family:Courier; font-size:14pt; font-weight:regular; font-style:normal;}
.title_font {fill:#000000; text-anchor:middle;
    font-family:Sans; font-size:22pt; font-weight:bold; font-style:normal;}
.bubble_font {fill:#000000; text-anchor:middle;
    font-family:Courier; font-size:14pt; font-weight:bold; font-style:normal;}
.token_font {fill:#000000; text-anchor:middle;
    font-family:Courier; font-size:14pt; font-weight:bold; font-style:normal;}
.label {fill:#000;
  text-anchor:middle;
  font-size:16pt; font-weight:bold; font-family:Sans;}
.link {fill: #0D47A1;}
.link:hover {fill: #0D47A1; text-decoration:underline;}
.link:visited {fill: #4A148C;}
]]>
</style>
<defs>
  <marker id="arrow" markerWidth="5" markerHeight="4" refX="2.5" refY="2" orient="auto" markerUnits="strokeWidth">
    <path d="M0,0 L0.5,2 L0,4 L4.5,2 z" fill="#FF0000" />
  </marker>
</defs>
<rect width="100%" height="100%" fill="white"/><rect x="28.0" y="7.0" width="188.0" height="26.0" stroke="none" fill-opacity="0.498039215686" fill="#000000"/>
<path d="M246.0,33.0 A13.0,13.0 0 0,1 246.0,7.0 H317.0 A13.0,13.0 0 0,1 317.0,33.0 z" stroke="none" fill-opacity="0.498039215686" fill="#000000"/>
<path d="M388.0,51.0 A13.0,13.0 0 0,1 388.0,25.0 H437.0 A13.0,13.0 0 0,1 437.0,51.0 z" stroke="none" fill-opacity="0.498039215686" fill="#000000"/>
<rect x="495.0" y="7.0" width="188.0" height="26.0" stroke="none" fill-opacity="0.498039215686" fill="#000000"/>
<rect x="728.0" y="25.0" width="298.0" height="26.0" stroke="none" fill-opacity="0.498039215686" fill="#000000"/>
<circle cx="7" cy="17.0" r="2" stroke="#FF0000" stroke-width="1" fill="#FFFFFF"/>
<rect x="26.0" y="5.0" width="188.0" height="26.0" stroke="#FF0000" stroke-width="1" fill="#D3D3D3"/>
<text class="box_font" x="120.0" y="24.0">select-statement</text>
<path d="M244.0,31.0 A13.0,13.0 0 0,1 244.0,5.0 H315.0 A13.0,13.0 0 0,1 315.0,31.0 z" stroke="#FF0000" stroke-width="1" fill="#D3D3D3"/>
<text class="token_font" x="279.5" y="24.0"> UNION </text>
<line x1="213.0" y1="17.0" x2="227.0" y2="17.0" stroke="#FF0000" stroke-width="1" marker-end="url(#arrow)" />
<line x1="410.0" y1="17.0" x2="411.0" y2="17.0" stroke="#FF0000" stroke-width="1" />
<path d="M386.0,49.0 A13.0,13.0 0 0,1 386.0,23.0 H435.0 A13.0,13.0 0 0,1 435.0,49.0 z" stroke="#FF0000" stroke-width="1" fill="#D3D3D3"/>
<text class="token_font" x="410.5" y="42.0"> ALL </text>
<line x1="345.0" y1="17.0" x2="406.0" y2="17.0" stroke="#FF0000" stroke-width="1" marker-end="url(#arrow)" />
<line x1="411.0" y1="17.0" x2="477.0" y2="17.0" stroke="#FF0000" stroke-width="1" />
<path d="M354.0,26.0 A9.0,9.0 0 0,0 345.0,17.0" stroke="#FF0000" stroke-width="1" fill="none"/>
<line x1="363.0" y1="35.0" x2="369.0" y2="35.0" stroke="#FF0000" stroke-width="1" marker-end="url(#arrow)" />
<line x1="448.0" y1="35.0" x2="454.0" y2="35.0" stroke="#FF0000" stroke-width="1" marker-end="url(#arrow)" />
<path d="M354.0,26.0 A9.0,9.0 0 0,0 363.0,35.0" stroke="#FF0000" stroke-width="1" fill="none"/>
<path d="M458.0,35.0 A9.0,9.0 0 0,0 467.0,26.0" stroke="#FF0000" stroke-width="1" fill="none"/>
<path d="M476.0,17.0 A9.0,9.0 0 0,0 467.0,26.0" stroke="#FF0000" stroke-width="1" fill="none"/>
<line x1="354.0" y1="26.0" x2="354.0" y2="26.0" stroke="#FF0000" stroke-width="1" />
<line x1="467.0" y1="26.0" x2="467.0" y2="26.0" stroke="#FF0000" stroke-width="1" />
<line x1="327.0" y1="17.0" x2="341.0" y2="17.0" stroke="#FF0000" stroke-width="1" marker-end="url(#arrow)" />
<rect x="493.0" y="5.0" width="188.0" height="26.0" stroke="#FF0000" stroke-width="1" fill="#D3D3D3"/>
<text class="box_font" x="587.0" y="24.0">select-statement</text>
<line x1="475.0" y1="17.0" x2="489.0" y2="17.0" stroke="#FF0000" stroke-width="1" marker-end="url(#arrow)" />
<line x1="874.5" y1="17.0" x2="875.5" y2="17.0" stroke="#FF0000" stroke-width="1" />
<rect x="726.0" y="23.0" width="298.0" height="26.0" stroke="#FF0000" stroke-width="1" fill="#D3D3D3"/>
<text class="box_font" x="875.0" y="42.0">order-by-and-limit-clauses</text>
<line x1="698.0" y1="17.0" x2="870.5" y2="17.0" stroke="#FF0000" stroke-width="1" marker-end="url(#arrow)" />
<line x1="875.5" y1="17.0" x2="1053.0" y2="17.0" stroke="#FF0000" stroke-width="1" />
<path d="M707.0,26.0 A9.0,9.0 0 0,0 698.0,17.0" stroke="#FF0000" stroke-width="1" fill="none"/>
<line x1="716.0" y1="35.0" x2="722.0" y2="35.0" stroke="#FF0000" stroke-width="1" marker-end="url(#arrow)" />
<line x1="1024.0" y1="35.0" x2="1030.0" y2="35.0" stroke="#FF0000" stroke-width="1" marker-end="url(#arrow)" />
<path d="M707.0,26.0 A9.0,9.0 0 0,0 716.0,35.0" stroke="#FF0000" stroke-width="1" fill="none"/>
<path d="M1034.0,35.0 A9.0,9.0 0 0,0 1043.0,26.0" stroke="#FF0000" stroke-width="1" fill="none"/>
<path d="M1052.0,17.0 A9.0,9.0 0 0,0 1043.0,26.0" stroke="#FF0000" stroke-width="1" fill="none"/>
<line x1="707.0" y1="26.0" x2="707.0" y2="26.0" stroke="#FF0000" stroke-width="1" />
<line x1="1043.0" y1="26.0" x2="1043.0" y2="26.0" stroke="#FF0000" stroke-width="1" />
<line x1="680.0" y1="17.0" x2="694.0" y2="17.0" stroke="#FF0000" stroke-width="1" marker-end="url(#arrow)" />
<line x1="8" y1="17.0" x2="22.0" y2="17.0" stroke="#FF0000" stroke-width="1" marker-end="url(#arrow)" />
<circle cx="1071.0" cy="17.0" r="2.0" stroke="#FF0000" stroke-width="1" fill="#FFFFFF"/>
<line x1="1051.0" y1="17.0" x2="1065.0" y2="17.0" stroke="#FF0000" stroke-width="1" marker-end="url(#arrow)" />
</svg>