<?xml version="1.0" encoding="UTF-8" standalone="no"?>
<!-- Created by Syntax-Trax http://kevinpt.github.io/syntax-trax -->
<svg xmlns="http://www.w3.org/2000/svg"
xmlns:xlink="http://www.w3.org/1999/xlink"
xml:space="preserve"
width="447" height="88" version="1.1">
<style type="text/css">
<![CDATA[
.box_font {fill:#000000; text-anchor:middle;
    font-family:Courier; font-size:14pt; font-weight:regular; font-style:normal;}
.name_font {fill:#000000; text-anchor:middle;
    font-family:Courier; font-size:14pt; font-weight:regular; font-style:normal;}
.title_font {fill:#000000; text-anchor:middle;
    font-family:Sans; font-size:22pt; font-weight:bold; font-style:normal;}
.bubble_font {fill:#000000; text-anchor:middle;
    font-family:Courier; font-size:14pt; font-weight:bold; font-style:normal;}
.token_font {fill:#000000; text-anchor:middle;
    font-family:Courier; font-size:14pt; font-weight:bold; font-style:normal;}
.label {fill:#000;
  text-anchor:middle;
  font-size:16pt; font-weight:bold; font-family:Sans;}
.link {fill: #0D47A1;}
.link:hover {fill: #0D47A1; text-decoration:underline;}
.link:visited {fill: #4A148C;}
]]>
</style>
<defs>
  <marker id="arrow" markerWidth="5" markerHeight="4" refX="2.5" refY="2" orient="auto" markerUnits="strokeWidth">
    <path d="M0,0 L0.5,2 L0,4 L4.5,2 z" fill="#FF0000" />
  </marker>
</defs>
<rect width="100%" height="100%" fill="white"/><path d="M41.0,33.0 A13.0,13.0 0 0,1 41.0,7.0 H123.0 A13.0,13.0 0 0,1 123.0,33.0 z" stroke="none" fill-opacity="0.498039215686" fill="#000000"/>
<path d="M183.0,33.0 A13.0,13.0 0 0,1 183.0,7.0 H188.0 A13.0,13.0 0 0,1 188.0,33.0 z" stroke="none" fill-opacity="0.498039215686" fill="#000000"/>
<rect x="235.0" y="7.0" width="122.0" height="26.0" stroke="none" fill-opacity="0.498039215686" fill="#000000"/>
<path d="M293.5,59.0 A13.0,13.0 0 0,1 293.5,33.0 H298.5 A13.0,13.0 0 0,1 298.5,59.0 z" stroke="none" fill-opacity="0.498039215686" fill="#000000"/>
<path d="M396.0,33.0 A13.0,13.0 0 0,1 396.0,7.0 H401.0 A13.0,13.0 0 0,1 401.0,33.0 z" stroke="none" fill-opacity="0.498039215686" fill="#000000"/>
<path d="M289.5,85.0 A13.0,13.0 0 0,1 289.5,59.0 H294.5 A13.0,13.0 0 0,1 294.5,85.0 z" stroke="none" fill-opacity="0.498039215686" fill="#000000"/>
<circle cx="7" cy="17.0" r="2" stroke="#FF0000" stroke-width="1" fill="#FFFFFF"/>
<path d="M39.0,31.0 A13.0,13.0 0 0,1 39.0,5.0 H121.0 A13.0,13.0 0 0,1 121.0,31.0 z" stroke="#FF0000" stroke-width="1" fill="#D3D3D3"/>
<text class="token_font" x="80.0" y="24.0"> VALUES </text>
<path d="M181.0,31.0 A13.0,13.0 0 0,1 181.0,5.0 H186.0 A13.0,13.0 0 0,1 186.0,31.0 z" stroke="#FF0000" stroke-width="1" fill="#D3D3D3"/>
<text class="name_font" x="183.5" y="24.0">(</text>
<rect x="233.0" y="5.0" width="122.0" height="26.0" stroke="#FF0000" stroke-width="1" fill="#D3D3D3"/>
<text class="box_font" x="294.0" y="24.0">expression</text>
<path d="M291.5,57.0 A13.0,13.0 0 0,1 291.5,31.0 H296.5 A13.0,13.0 0 0,1 296.5,57.0 z" stroke="#FF0000" stroke-width="1" fill="#D3D3D3"/>
<text class="name_font" x="294.0" y="50.0">,</text>
<line x1="233.0" y1="43.0" x2="278.5" y2="43.0" stroke="#FF0000" stroke-width="1" />
<line x1="355.0" y1="43.0" x2="313.5" y2="43.0" stroke="#FF0000" stroke-width="1" marker-end="url(#arrow)" />
<line x1="216.0" y1="17.0" x2="233.0" y2="17.0" stroke="#FF0000" stroke-width="1" />
<path d="M233.0,17.0 A13.0,13.0 0 0,0 233.0,43.0" stroke="#FF0000" stroke-width="1" fill="none"/>
<path d="M355.0,43.0 A13.0,13.0 0 0,0 355.0,17.0" stroke="#FF0000" stroke-width="1" fill="none"/>
<line x1="355.0" y1="17.0" x2="364.0" y2="17.0" stroke="#FF0000" stroke-width="1" />
<line x1="198.0" y1="17.0" x2="212.0" y2="17.0" stroke="#FF0000" stroke-width="1" marker-end="url(#arrow)" />
<path d="M394.0,31.0 A13.0,13.0 0 0,1 394.0,5.0 H399.0 A13.0,13.0 0 0,1 399.0,31.0 z" stroke="#FF0000" stroke-width="1" fill="#D3D3D3"/>
<text class="name_font" x="396.5" y="24.0">)</text>
<line x1="363.0" y1="17.0" x2="377.0" y2="17.0" stroke="#FF0000" stroke-width="1" marker-end="url(#arrow)" />
<path d="M287.5,83.0 A13.0,13.0 0 0,1 287.5,57.0 H292.5 A13.0,13.0 0 0,1 292.5,83.0 z" stroke="#FF0000" stroke-width="1" fill="#D3D3D3"/>
<text class="name_font" x="290.0" y="76.0">,</text>
<line x1="168.0" y1="69.0" x2="274.5" y2="69.0" stroke="#FF0000" stroke-width="1" />
<line x1="412.0" y1="69.0" x2="309.5" y2="69.0" stroke="#FF0000" stroke-width="1" marker-end="url(#arrow)" />
<line x1="151.0" y1="17.0" x2="168.0" y2="17.0" stroke="#FF0000" stroke-width="1" />
<path d="M168.0,17.0 A9.0,9.0 0 0,0 159.0,26.0" stroke="#FF0000" stroke-width="1" fill="none"/>
<line x1="159.0" y1="60.0" x2="159.0" y2="47.0" stroke="#FF0000" stroke-width="1" marker-end="url(#arrow)" />
<line x1="159.0" y1="43.0" x2="159.0" y2="26.0" stroke="#FF0000" stroke-width="1" />
<path d="M159.0,60.0 A9.0,9.0 0 0,0 168.0,69.0" stroke="#FF0000" stroke-width="1" fill="none"/>
<path d="M421.0,26.0 A9.0,9.0 0 0,0 412.0,17.0" stroke="#FF0000" stroke-width="1" fill="none"/>
<line x1="421.0" y1="26.0" x2="421.0" y2="39.0" stroke="#FF0000" stroke-width="1" marker-end="url(#arrow)" />
<line x1="421.0" y1="43.0" x2="421.0" y2="60.0" stroke="#FF0000" stroke-width="1" />
<path d="M412.0,69.0 A9.0,9.0 0 0,0 421.0,60.0" stroke="#FF0000" stroke-width="1" fill="none"/>
<line x1="412.0" y1="17.0" x2="421.0" y2="17.0" stroke="#FF0000" stroke-width="1" />
<line x1="133.0" y1="17.0" x2="147.0" y2="17.0" stroke="#FF0000" stroke-width="1" marker-end="url(#arrow)" />
<line x1="8" y1="17.0" x2="22.0" y2="17.0" stroke="#FF0000" stroke-width="1" marker-end="url(#arrow)" />
<circle cx="440.0" cy="17.0" r="2.0" stroke="#FF0000" stroke-width="1" fill="#FFFFFF"/>
<line x1="420.0" y1="17.0" x2="434.0" y2="17.0" stroke="#FF0000" stroke-width="1" marker-end="url(#arrow)" />
</svg>