<?xml version="1.0" encoding="UTF-8"?>
<svg width="299px" height="42px" viewBox="0 0 299 42" version="1.1" xmlns="http://www.w3.org/2000/svg" xmlns:xlink="http://www.w3.org/1999/xlink">
    <!-- Generator: Sketch 52.5 (67469) - http://www.bohemiancoding.com/sketch -->
    <title>3</title>
    <desc>Created with Sketch.</desc>
    <g id="3" stroke="none" stroke-width="1" fill="none" fill-rule="evenodd">
        <text id="key" font-family="OpenSans, Open Sans" font-size="18" font-weight="normal" fill="#000000">
            <tspan x="16" y="28">key</tspan>
        </text>
        <text id="Isn" font-family="OpenSans, Open Sans" font-size="18" font-weight="normal" fill="#000000">
            <tspan x="75" y="28">Isn</tspan>
        </text>
        <text id="op_code" font-family="OpenSans, Open Sans" font-size="18" font-weight="normal" letter-spacing="0.400000006" fill="#000000">
            <tspan x="131" y="28">op_code</tspan>
        </text>
        <text id="value" font-family="OpenSans, Open Sans" font-size="18" font-weight="normal" letter-spacing="0.400000006" fill="#000000">
            <tspan x="236" y="28">value</tspan>
        </text>
        <path d="M150,41.5 L299,41.5 L298.5,41 L298.5,42 L299,41.5 L150,41.5 Z M150,41.5 L1,41.5 L1.5,42 L1.5,41 L1,41.5 L150,41.5 Z" id="Rectangle" stroke="#E4E4E4"></path>
        <path d="M149.5,0.5 L299,0.5 L298.5,0 L298.5,1 L299,0.5 L149.5,0.5 Z M149.5,0.5 L0,0.5 L0.5,1 L0.5,0 L0,0.5 L149.5,0.5 Z" id="Rectangle" stroke="#E4E4E4"></path>
        <path d="M59.5,21 L59.5,41 L60,40.5 L59,40.5 L59.5,41 L59.5,21 Z M59.5,21 L59.5,1 L59,1.5 L60,1.5 L59.5,1 L59.5,21 Z" id="Rectangle-Copy" stroke="#E4E4E4"></path>
        <path d="M115.5,21 L115.5,41 L116,40.5 L115,40.5 L115.5,41 L115.5,21 Z M115.5,21 L115.5,1 L115,1.5 L116,1.5 L115.5,1 L115.5,21 Z" id="Rectangle-Copy" stroke="#E4E4E4"></path>
        <path d="M220.5,21 L220.5,41 L221,40.5 L220,40.5 L220.5,41 L220.5,21 Z M220.5,21 L220.5,1 L220,1.5 L221,1.5 L220.5,1 L220.5,21 Z" id="Rectangle-Copy" stroke="#E4E4E4"></path>
        <path d="M298.5,21 L298.5,41 L299,40.5 L298,40.5 L298.5,41 L298.5,21 Z M298.5,21 L298.5,1 L298,1.5 L299,1.5 L298.5,1 L298.5,21 Z" id="Rectangle-Copy" stroke="#E4E4E4"></path>
        <path d="M0.5,21 L0.5,41 L1,40.5 L0,40.5 L0.5,41 L0.5,21 Z M0.5,21 L0.5,1 L0,1.5 L1,1.5 L0.5,1 L0.5,21 Z" id="Rectangle-Copy" stroke="#E4E4E4"></path>
    </g>
</svg>