<?xml version="1.0" encoding="UTF-8" standalone="no"?>
<!-- Created by Syntax-Trax http://kevinpt.github.io/syntax-trax -->
<svg xmlns="http://www.w3.org/2000/svg"
xmlns:xlink="http://www.w3.org/1999/xlink"
xml:space="preserve"
width="862" height="272" version="1.1">
<style type="text/css">
<![CDATA[
.box_font {fill:#000000; text-anchor:middle;
    font-family:Courier; font-size:14pt; font-weight:regular; font-style:normal;}
.name_font {fill:#000000; text-anchor:middle;
    font-family:Courier; font-size:14pt; font-weight:regular; font-style:normal;}
.title_font {fill:#000000; text-anchor:middle;
    font-family:Sans; font-size:22pt; font-weight:bold; font-style:normal;}
.bubble_font {fill:#000000; text-anchor:middle;
    font-family:Courier; font-size:14pt; font-weight:bold; font-style:normal;}
.token_font {fill:#000000; text-anchor:middle;
    font-family:Courier; font-size:14pt; font-weight:bold; font-style:normal;}
.label {fill:#000;
  text-anchor:middle;
  font-size:16pt; font-weight:bold; font-family:Sans;}
.link {fill: #0D47A1;}
.link:hover {fill: #0D47A1; text-decoration:underline;}
.link:visited {fill: #4A148C;}
]]>
</style>
<defs>
  <marker id="arrow" markerWidth="5" markerHeight="4" refX="2.5" refY="2" orient="auto" markerUnits="strokeWidth">
    <path d="M0,0 L0.5,2 L0,4 L4.5,2 z" fill="#FF0000" />
  </marker>
</defs>
<rect width="100%" height="100%" fill="white"/><path d="M59.0,33.0 A13.0,13.0 0 0,1 59.0,7.0 H185.0 A13.0,13.0 0 0,1 185.0,33.0 z" stroke="none" fill-opacity="0.498039215686" fill="#000000"/>
<rect x="215.0" y="7.0" width="56.0" height="26.0" stroke="none" fill-opacity="0.498039215686" fill="#000000"/>
<path d="M105.0,101.5 A13.0,13.0 0 0,1 105.0,75.5 H198.0 A13.0,13.0 0 0,1 198.0,101.5 z" stroke="none" fill-opacity="0.498039215686" fill="#000000"/>
<path d="M241.0,101.5 A13.0,13.0 0 0,1 241.0,75.5 H290.0 A13.0,13.0 0 0,1 290.0,101.5 z" stroke="none" fill-opacity="0.498039215686" fill="#000000"/>
<path d="M333.0,101.5 A13.0,13.0 0 0,1 333.0,75.5 H338.0 A13.0,13.0 0 0,1 338.0,101.5 z" stroke="none" fill-opacity="0.498039215686" fill="#000000"/>
<path d="M398.0,101.5 A13.0,13.0 0 0,1 398.0,75.5 H513.0 A13.0,13.0 0 0,1 513.0,101.5 z" stroke="none" fill-opacity="0.498039215686" fill="#000000"/>
<path d="M453.0,127.5 A13.0,13.0 0 0,1 453.0,101.5 H458.0 A13.0,13.0 0 0,1 458.0,127.5 z" stroke="none" fill-opacity="0.498039215686" fill="#000000"/>
<path d="M565.0,101.5 A13.0,13.0 0 0,1 565.0,75.5 H570.0 A13.0,13.0 0 0,1 570.0,101.5 z" stroke="none" fill-opacity="0.498039215686" fill="#000000"/>
<path d="M105.0,157.5 A13.0,13.0 0 0,1 105.0,131.5 H187.0 A13.0,13.0 0 0,1 187.0,157.5 z" stroke="none" fill-opacity="0.498039215686" fill="#000000"/>
<path d="M230.0,157.5 A13.0,13.0 0 0,1 230.0,131.5 H235.0 A13.0,13.0 0 0,1 235.0,157.5 z" stroke="none" fill-opacity="0.498039215686" fill="#000000"/>
<path d="M295.0,157.5 A13.0,13.0 0 0,1 295.0,131.5 H410.0 A13.0,13.0 0 0,1 410.0,157.5 z" stroke="none" fill-opacity="0.498039215686" fill="#000000"/>
<path d="M350.0,183.5 A13.0,13.0 0 0,1 350.0,157.5 H355.0 A13.0,13.0 0 0,1 355.0,183.5 z" stroke="none" fill-opacity="0.498039215686" fill="#000000"/>
<path d="M462.0,157.5 A13.0,13.0 0 0,1 462.0,131.5 H467.0 A13.0,13.0 0 0,1 467.0,157.5 z" stroke="none" fill-opacity="0.498039215686" fill="#000000"/>
<path d="M105.0,213.5 A13.0,13.0 0 0,1 105.0,187.5 H176.0 A13.0,13.0 0 0,1 176.0,213.5 z" stroke="none" fill-opacity="0.498039215686" fill="#000000"/>
<path d="M219.0,213.5 A13.0,13.0 0 0,1 219.0,187.5 H224.0 A13.0,13.0 0 0,1 224.0,213.5 z" stroke="none" fill-opacity="0.498039215686" fill="#000000"/>
<rect x="254.0" y="187.5" width="122.0" height="26.0" stroke="none" fill-opacity="0.498039215686" fill="#000000"/>
<path d="M406.0,213.5 A13.0,13.0 0 0,1 406.0,187.5 H411.0 A13.0,13.0 0 0,1 411.0,213.5 z" stroke="none" fill-opacity="0.498039215686" fill="#000000"/>
<path d="M105.0,243.5 A13.0,13.0 0 0,1 105.0,217.5 H198.0 A13.0,13.0 0 0,1 198.0,243.5 z" stroke="none" fill-opacity="0.498039215686" fill="#000000"/>
<path d="M241.0,243.5 A13.0,13.0 0 0,1 241.0,217.5 H290.0 A13.0,13.0 0 0,1 290.0,243.5 z" stroke="none" fill-opacity="0.498039215686" fill="#000000"/>
<path d="M333.0,243.5 A13.0,13.0 0 0,1 333.0,217.5 H338.0 A13.0,13.0 0 0,1 338.0,243.5 z" stroke="none" fill-opacity="0.498039215686" fill="#000000"/>
<path d="M398.0,243.5 A13.0,13.0 0 0,1 398.0,217.5 H513.0 A13.0,13.0 0 0,1 513.0,243.5 z" stroke="none" fill-opacity="0.498039215686" fill="#000000"/>
<path d="M453.0,269.5 A13.0,13.0 0 0,1 453.0,243.5 H458.0 A13.0,13.0 0 0,1 458.0,269.5 z" stroke="none" fill-opacity="0.498039215686" fill="#000000"/>
<path d="M565.0,243.5 A13.0,13.0 0 0,1 565.0,217.5 H570.0 A13.0,13.0 0 0,1 570.0,243.5 z" stroke="none" fill-opacity="0.498039215686" fill="#000000"/>
<rect x="600.0" y="217.5" width="210.0" height="26.0" stroke="none" fill-opacity="0.498039215686" fill="#000000"/>
<circle cx="7" cy="17.0" r="2" stroke="#FF0000" stroke-width="1" fill="#FFFFFF"/>
<path d="M57.0,31.0 A13.0,13.0 0 0,1 57.0,5.0 H183.0 A13.0,13.0 0 0,1 183.0,31.0 z" stroke="#FF0000" stroke-width="1" fill="#D3D3D3"/>
<text class="token_font" x="120.0" y="24.0"> CONSTRAINT </text>
<rect x="213.0" y="5.0" width="56.0" height="26.0" stroke="#FF0000" stroke-width="1" fill="#D3D3D3"/>
<text class="box_font" x="241.0" y="24.0">name</text>
<line x1="195.0" y1="17.0" x2="209.0" y2="17.0" stroke="#FF0000" stroke-width="1" marker-end="url(#arrow)" />
<line x1="156.0" y1="35.0" x2="157.0" y2="35.0" stroke="#FF0000" stroke-width="1" />
<line x1="26" y1="17.0" x2="40.0" y2="17.0" stroke="#FF0000" stroke-width="1" marker-end="url(#arrow)" />
<line x1="269.0" y1="17.0" x2="288.0" y2="17.0" stroke="#FF0000" stroke-width="1" />
<path d="M35.0,26.0 A9,9 0 0,0 26.0,17.0" stroke="#FF0000" stroke-width="1" fill="none"/>
<line x1="44" y1="35.0" x2="152.0" y2="35.0" stroke="#FF0000" stroke-width="1" marker-end="url(#arrow)" />
<line x1="157.0" y1="35.0" x2="265.0" y2="35.0" stroke="#FF0000" stroke-width="1" marker-end="url(#arrow)" />
<path d="M35.0,26.0 A9,9 0 0,0 44.0,35.0" stroke="#FF0000" stroke-width="1" fill="none"/>
<path d="M269.0,35.0 A9.0,9.0 0 0,0 278.0,26.0" stroke="#FF0000" stroke-width="1" fill="none"/>
<path d="M287.0,17.0 A9.0,9.0 0 0,0 278.0,26.0" stroke="#FF0000" stroke-width="1" fill="none"/>
<line x1="35" y1="26.0" x2="35" y2="26.0" stroke="#FF0000" stroke-width="1" />
<line x1="278.0" y1="26.0" x2="278.0" y2="26.0" stroke="#FF0000" stroke-width="1" />
<path d="M103.0,99.5 A13.0,13.0 0 0,1 103.0,73.5 H196.0 A13.0,13.0 0 0,1 196.0,99.5 z" stroke="#FF0000" stroke-width="1" fill="#D3D3D3"/>
<text class="token_font" x="149.5" y="92.5"> PRIMARY </text>
<path d="M239.0,99.5 A13.0,13.0 0 0,1 239.0,73.5 H288.0 A13.0,13.0 0 0,1 288.0,99.5 z" stroke="#FF0000" stroke-width="1" fill="#D3D3D3"/>
<text class="token_font" x="263.5" y="92.5"> KEY </text>
<line x1="208.0" y1="85.5" x2="222.0" y2="85.5" stroke="#FF0000" stroke-width="1" marker-end="url(#arrow)" />
<path d="M331.0,99.5 A13.0,13.0 0 0,1 331.0,73.5 H336.0 A13.0,13.0 0 0,1 336.0,99.5 z" stroke="#FF0000" stroke-width="1" fill="#D3D3D3"/>
<text class="name_font" x="333.5" y="92.5">(</text>
<line x1="300.0" y1="85.5" x2="314.0" y2="85.5" stroke="#FF0000" stroke-width="1" marker-end="url(#arrow)" />
<path d="M396.0,99.5 A13.0,13.0 0 0,1 396.0,73.5 H511.0 A13.0,13.0 0 0,1 511.0,99.5 z" stroke="#FF0000" stroke-width="1" fill="#D3D3D3"/>
<text class="name_font" x="453.5" y="92.5">column-name</text>
<path d="M451.0,125.5 A13.0,13.0 0 0,1 451.0,99.5 H456.0 A13.0,13.0 0 0,1 456.0,125.5 z" stroke="#FF0000" stroke-width="1" fill="#D3D3D3"/>
<text class="name_font" x="453.5" y="118.5">,</text>
<line x1="383.0" y1="111.5" x2="438.0" y2="111.5" stroke="#FF0000" stroke-width="1" />
<line x1="524.0" y1="111.5" x2="473.0" y2="111.5" stroke="#FF0000" stroke-width="1" marker-end="url(#arrow)" />
<line x1="366.0" y1="85.5" x2="383.0" y2="85.5" stroke="#FF0000" stroke-width="1" />
<path d="M383.0,85.5 A13.0,13.0 0 0,0 383.0,111.5" stroke="#FF0000" stroke-width="1" fill="none"/>
<path d="M524.0,111.5 A13.0,13.0 0 0,0 524.0,85.5" stroke="#FF0000" stroke-width="1" fill="none"/>
<line x1="524.0" y1="85.5" x2="533.0" y2="85.5" stroke="#FF0000" stroke-width="1" />
<line x1="348.0" y1="85.5" x2="362.0" y2="85.5" stroke="#FF0000" stroke-width="1" marker-end="url(#arrow)" />
<path d="M563.0,99.5 A13.0,13.0 0 0,1 563.0,73.5 H568.0 A13.0,13.0 0 0,1 568.0,99.5 z" stroke="#FF0000" stroke-width="1" fill="#D3D3D3"/>
<text class="name_font" x="565.5" y="92.5">)</text>
<line x1="532.0" y1="85.5" x2="546.0" y2="85.5" stroke="#FF0000" stroke-width="1" marker-end="url(#arrow)" />
<path d="M103.0,155.5 A13.0,13.0 0 0,1 103.0,129.5 H185.0 A13.0,13.0 0 0,1 185.0,155.5 z" stroke="#FF0000" stroke-width="1" fill="#D3D3D3"/>
<text class="token_font" x="144.0" y="148.5"> UNIQUE </text>
<path d="M228.0,155.5 A13.0,13.0 0 0,1 228.0,129.5 H233.0 A13.0,13.0 0 0,1 233.0,155.5 z" stroke="#FF0000" stroke-width="1" fill="#D3D3D3"/>
<text class="name_font" x="230.5" y="148.5">(</text>
<line x1="197.0" y1="141.5" x2="211.0" y2="141.5" stroke="#FF0000" stroke-width="1" marker-end="url(#arrow)" />
<path d="M293.0,155.5 A13.0,13.0 0 0,1 293.0,129.5 H408.0 A13.0,13.0 0 0,1 408.0,155.5 z" stroke="#FF0000" stroke-width="1" fill="#D3D3D3"/>
<text class="name_font" x="350.5" y="148.5">column-name</text>
<path d="M348.0,181.5 A13.0,13.0 0 0,1 348.0,155.5 H353.0 A13.0,13.0 0 0,1 353.0,181.5 z" stroke="#FF0000" stroke-width="1" fill="#D3D3D3"/>
<text class="name_font" x="350.5" y="174.5">,</text>
<line x1="280.0" y1="167.5" x2="335.0" y2="167.5" stroke="#FF0000" stroke-width="1" />
<line x1="421.0" y1="167.5" x2="370.0" y2="167.5" stroke="#FF0000" stroke-width="1" marker-end="url(#arrow)" />
<line x1="263.0" y1="141.5" x2="280.0" y2="141.5" stroke="#FF0000" stroke-width="1" />
<path d="M280.0,141.5 A13.0,13.0 0 0,0 280.0,167.5" stroke="#FF0000" stroke-width="1" fill="none"/>
<path d="M421.0,167.5 A13.0,13.0 0 0,0 421.0,141.5" stroke="#FF0000" stroke-width="1" fill="none"/>
<line x1="421.0" y1="141.5" x2="430.0" y2="141.5" stroke="#FF0000" stroke-width="1" />
<line x1="245.0" y1="141.5" x2="259.0" y2="141.5" stroke="#FF0000" stroke-width="1" marker-end="url(#arrow)" />
<path d="M460.0,155.5 A13.0,13.0 0 0,1 460.0,129.5 H465.0 A13.0,13.0 0 0,1 465.0,155.5 z" stroke="#FF0000" stroke-width="1" fill="#D3D3D3"/>
<text class="name_font" x="462.5" y="148.5">)</text>
<line x1="429.0" y1="141.5" x2="443.0" y2="141.5" stroke="#FF0000" stroke-width="1" marker-end="url(#arrow)" />
<path d="M103.0,211.5 A13.0,13.0 0 0,1 103.0,185.5 H174.0 A13.0,13.0 0 0,1 174.0,211.5 z" stroke="#FF0000" stroke-width="1" fill="#D3D3D3"/>
<text class="token_font" x="138.5" y="204.5"> CHECK </text>
<path d="M217.0,211.5 A13.0,13.0 0 0,1 217.0,185.5 H222.0 A13.0,13.0 0 0,1 222.0,211.5 z" stroke="#FF0000" stroke-width="1" fill="#D3D3D3"/>
<text class="name_font" x="219.5" y="204.5">(</text>
<line x1="186.0" y1="197.5" x2="200.0" y2="197.5" stroke="#FF0000" stroke-width="1" marker-end="url(#arrow)" />
<rect x="252.0" y="185.5" width="122.0" height="26.0" stroke="#FF0000" stroke-width="1" fill="#D3D3D3"/>
<text class="box_font" x="313.0" y="204.5">expression</text>
<line x1="234.0" y1="197.5" x2="248.0" y2="197.5" stroke="#FF0000" stroke-width="1" marker-end="url(#arrow)" />
<path d="M404.0,211.5 A13.0,13.0 0 0,1 404.0,185.5 H409.0 A13.0,13.0 0 0,1 409.0,211.5 z" stroke="#FF0000" stroke-width="1" fill="#D3D3D3"/>
<text class="name_font" x="406.5" y="204.5">)</text>
<line x1="373.0" y1="197.5" x2="387.0" y2="197.5" stroke="#FF0000" stroke-width="1" marker-end="url(#arrow)" />
<path d="M103.0,241.5 A13.0,13.0 0 0,1 103.0,215.5 H196.0 A13.0,13.0 0 0,1 196.0,241.5 z" stroke="#FF0000" stroke-width="1" fill="#D3D3D3"/>
<text class="token_font" x="149.5" y="234.5"> FOREIGN </text>
<path d="M239.0,241.5 A13.0,13.0 0 0,1 239.0,215.5 H288.0 A13.0,13.0 0 0,1 288.0,241.5 z" stroke="#FF0000" stroke-width="1" fill="#D3D3D3"/>
<text class="token_font" x="263.5" y="234.5"> KEY </text>
<line x1="208.0" y1="227.5" x2="222.0" y2="227.5" stroke="#FF0000" stroke-width="1" marker-end="url(#arrow)" />
<path d="M331.0,241.5 A13.0,13.0 0 0,1 331.0,215.5 H336.0 A13.0,13.0 0 0,1 336.0,241.5 z" stroke="#FF0000" stroke-width="1" fill="#D3D3D3"/>
<text class="name_font" x="333.5" y="234.5">(</text>
<line x1="300.0" y1="227.5" x2="314.0" y2="227.5" stroke="#FF0000" stroke-width="1" marker-end="url(#arrow)" />
<path d="M396.0,241.5 A13.0,13.0 0 0,1 396.0,215.5 H511.0 A13.0,13.0 0 0,1 511.0,241.5 z" stroke="#FF0000" stroke-width="1" fill="#D3D3D3"/>
<text class="name_font" x="453.5" y="234.5">column-name</text>
<path d="M451.0,267.5 A13.0,13.0 0 0,1 451.0,241.5 H456.0 A13.0,13.0 0 0,1 456.0,267.5 z" stroke="#FF0000" stroke-width="1" fill="#D3D3D3"/>
<text class="name_font" x="453.5" y="260.5">,</text>
<line x1="383.0" y1="253.5" x2="438.0" y2="253.5" stroke="#FF0000" stroke-width="1" />
<line x1="524.0" y1="253.5" x2="473.0" y2="253.5" stroke="#FF0000" stroke-width="1" marker-end="url(#arrow)" />
<line x1="366.0" y1="227.5" x2="383.0" y2="227.5" stroke="#FF0000" stroke-width="1" />
<path d="M383.0,227.5 A13.0,13.0 0 0,0 383.0,253.5" stroke="#FF0000" stroke-width="1" fill="none"/>
<path d="M524.0,253.5 A13.0,13.0 0 0,0 524.0,227.5" stroke="#FF0000" stroke-width="1" fill="none"/>
<line x1="524.0" y1="227.5" x2="533.0" y2="227.5" stroke="#FF0000" stroke-width="1" />
<line x1="348.0" y1="227.5" x2="362.0" y2="227.5" stroke="#FF0000" stroke-width="1" marker-end="url(#arrow)" />
<path d="M563.0,241.5 A13.0,13.0 0 0,1 563.0,215.5 H568.0 A13.0,13.0 0 0,1 568.0,241.5 z" stroke="#FF0000" stroke-width="1" fill="#D3D3D3"/>
<text class="name_font" x="565.5" y="234.5">)</text>
<line x1="532.0" y1="227.5" x2="546.0" y2="227.5" stroke="#FF0000" stroke-width="1" marker-end="url(#arrow)" />
<rect x="598.0" y="215.5" width="210.0" height="26.0" stroke="#FF0000" stroke-width="1" fill="#D3D3D3"/>
<text class="box_font" x="703.0" y="234.5">foreign-key-clause</text>
<line x1="580.0" y1="227.5" x2="594.0" y2="227.5" stroke="#FF0000" stroke-width="1" marker-end="url(#arrow)" />
<line x1="62" y1="85.5" x2="86.0" y2="85.5" stroke="#FF0000" stroke-width="1" marker-end="url(#arrow)" />
<line x1="581.0" y1="85.5" x2="837.0" y2="85.5" stroke="#FF0000" stroke-width="1" />
<path d="M71.0,94.5 A9,9 0 0,0 62.0,85.5" stroke="#FF0000" stroke-width="1" fill="none"/>
<line x1="80" y1="141.5" x2="86.0" y2="141.5" stroke="#FF0000" stroke-width="1" marker-end="url(#arrow)" />
<line x1="478.0" y1="141.5" x2="814.0" y2="141.5" stroke="#FF0000" stroke-width="1" marker-end="url(#arrow)" />
<path d="M71.0,132.5 A9,9 0 0,0 80.0,141.5" stroke="#FF0000" stroke-width="1" fill="none"/>
<path d="M818.0,141.5 A9.0,9.0 0 0,0 827.0,132.5" stroke="#FF0000" stroke-width="1" fill="none"/>
<line x1="80" y1="197.5" x2="86.0" y2="197.5" stroke="#FF0000" stroke-width="1" marker-end="url(#arrow)" />
<line x1="422.0" y1="197.5" x2="814.0" y2="197.5" stroke="#FF0000" stroke-width="1" marker-end="url(#arrow)" />
<path d="M71.0,188.5 A9,9 0 0,0 80.0,197.5" stroke="#FF0000" stroke-width="1" fill="none"/>
<path d="M818.0,197.5 A9.0,9.0 0 0,0 827.0,188.5" stroke="#FF0000" stroke-width="1" fill="none"/>
<line x1="80" y1="227.5" x2="86.0" y2="227.5" stroke="#FF0000" stroke-width="1" marker-end="url(#arrow)" />
<line x1="808.0" y1="227.5" x2="814.0" y2="227.5" stroke="#FF0000" stroke-width="1" marker-end="url(#arrow)" />
<path d="M71.0,218.5 A9,9 0 0,0 80.0,227.5" stroke="#FF0000" stroke-width="1" fill="none"/>
<path d="M818.0,227.5 A9.0,9.0 0 0,0 827.0,218.5" stroke="#FF0000" stroke-width="1" fill="none"/>
<path d="M836.0,85.5 A9.0,9.0 0 0,0 827.0,94.5" stroke="#FF0000" stroke-width="1" fill="none"/>
<line x1="71" y1="218.5" x2="71" y2="94.5" stroke="#FF0000" stroke-width="1" />
<line x1="827.0" y1="218.5" x2="827.0" y2="94.5" stroke="#FF0000" stroke-width="1" />
<line x1="287.0" y1="17.0" x2="305.0" y2="17.0" stroke="#FF0000" stroke-width="1" />
<path d="M314.0,26.0 A9.0,9.0 0 0,0 305.0,17.0" stroke="#FF0000" stroke-width="1" fill="none"/>
<line x1="314.0" y1="26.0" x2="314.0" y2="31.75" stroke="#FF0000" stroke-width="1" marker-end="url(#arrow)" />
<line x1="314.0" y1="35.75" x2="314.0" y2="45.5" stroke="#FF0000" stroke-width="1" />
<path d="M305.0,54.5 A9.0,9.0 0 0,0 314.0,45.5" stroke="#FF0000" stroke-width="1" fill="none"/>
<line x1="305.0" y1="54.5" x2="178.5" y2="54.5" stroke="#FF0000" stroke-width="1" marker-end="url(#arrow)" />
<line x1="174.5" y1="54.5" x2="44" y2="54.5" stroke="#FF0000" stroke-width="1" />
<path d="M44.0,54.5 A9,9 0 0,0 35.0,63.5" stroke="#FF0000" stroke-width="1" fill="none"/>
<line x1="35" y1="63.5" x2="35" y2="76.5" stroke="#FF0000" stroke-width="1" />
<path d="M35.0,76.5 A9,9 0 0,0 44.0,85.5" stroke="#FF0000" stroke-width="1" fill="none"/>
<line x1="44" y1="85.5" x2="58.0" y2="85.5" stroke="#FF0000" stroke-width="1" marker-end="url(#arrow)" />
<line x1="8" y1="17.0" x2="22.0" y2="17.0" stroke="#FF0000" stroke-width="1" marker-end="url(#arrow)" />
<circle cx="855.0" cy="85.5" r="2.0" stroke="#FF0000" stroke-width="1" fill="#FFFFFF"/>
<line x1="835.0" y1="85.5" x2="849.0" y2="85.5" stroke="#FF0000" stroke-width="1" marker-end="url(#arrow)" />
</svg>