<?xml version="1.0" encoding="UTF-8" standalone="no"?>
<!-- Created by Syntax-Trax http://kevinpt.github.io/syntax-trax -->
<svg xmlns="http://www.w3.org/2000/svg"
xmlns:xlink="http://www.w3.org/1999/xlink"
xml:space="preserve"
width="556" height="40" version="1.1">
<style type="text/css">
<![CDATA[
.box_font {fill:#000000; text-anchor:middle;
    font-family:Courier; font-size:14pt; font-weight:regular; font-style:normal;}
.name_font {fill:#000000; text-anchor:middle;
    font-family:Courier; font-size:14pt; font-weight:regular; font-style:normal;}
.title_font {fill:#000000; text-anchor:middle;
    font-family:Sans; font-size:22pt; font-weight:bold; font-style:normal;}
.bubble_font {fill:#000000; text-anchor:middle;
    font-family:Courier; font-size:14pt; font-weight:bold; font-style:normal;}
.token_font {fill:#000000; text-anchor:middle;
    font-family:Courier; font-size:14pt; font-weight:bold; font-style:normal;}
.label {fill:#000;
  text-anchor:middle;
  font-size:16pt; font-weight:bold; font-family:Sans;}
.link {fill: #0D47A1;}
.link:hover {fill: #0D47A1; text-decoration:underline;}
.link:visited {fill: #4A148C;}
]]>
</style>
<defs>
  <marker id="arrow" markerWidth="5" markerHeight="4" refX="2.5" refY="2" orient="auto" markerUnits="strokeWidth">
    <path d="M0,0 L0.5,2 L0,4 L4.5,2 z" fill="#FF0000" />
  </marker>
</defs>
<rect width="100%" height="100%" fill="white"/><path d="M41.0,33.0 A13.0,13.0 0 0,1 41.0,7.0 H134.0 A13.0,13.0 0 0,1 134.0,33.0 z" stroke="none" fill-opacity="0.498039215686" fill="#000000"/>
<path d="M195.0,33.0 A13.0,13.0 0 0,1 195.0,7.0 H310.0 A13.0,13.0 0 0,1 310.0,33.0 z" stroke="none" fill-opacity="0.498039215686" fill="#000000"/>
<path d="M371.0,33.0 A13.0,13.0 0 0,1 371.0,7.0 H519.0 A13.0,13.0 0 0,1 519.0,33.0 z" stroke="none" fill-opacity="0.498039215686" fill="#000000"/>
<circle cx="7" cy="17.0" r="2" stroke="#FF0000" stroke-width="1" fill="#FFFFFF"/>
<path d="M39.0,31.0 A13.0,13.0 0 0,1 39.0,5.0 H132.0 A13.0,13.0 0 0,1 132.0,31.0 z" stroke="#FF0000" stroke-width="1" fill="#D3D3D3"/>
<text class="token_font" x="85.5" y="24.0"> RELEASE </text>
<path d="M193.0,31.0 A13.0,13.0 0 0,1 193.0,5.0 H308.0 A13.0,13.0 0 0,1 308.0,31.0 z" stroke="#FF0000" stroke-width="1" fill="#D3D3D3"/>
<text class="token_font" x="250.5" y="24.0"> SAVEPOINT </text>
<line x1="250.0" y1="35.0" x2="251.0" y2="35.0" stroke="#FF0000" stroke-width="1" />
<line x1="162.0" y1="17.0" x2="176.0" y2="17.0" stroke="#FF0000" stroke-width="1" marker-end="url(#arrow)" />
<line x1="321.0" y1="17.0" x2="340.0" y2="17.0" stroke="#FF0000" stroke-width="1" />
<path d="M171.0,26.0 A9.0,9.0 0 0,0 162.0,17.0" stroke="#FF0000" stroke-width="1" fill="none"/>
<line x1="180.0" y1="35.0" x2="246.0" y2="35.0" stroke="#FF0000" stroke-width="1" marker-end="url(#arrow)" />
<line x1="251.0" y1="35.0" x2="317.0" y2="35.0" stroke="#FF0000" stroke-width="1" marker-end="url(#arrow)" />
<path d="M171.0,26.0 A9.0,9.0 0 0,0 180.0,35.0" stroke="#FF0000" stroke-width="1" fill="none"/>
<path d="M321.0,35.0 A9.0,9.0 0 0,0 330.0,26.0" stroke="#FF0000" stroke-width="1" fill="none"/>
<path d="M339.0,17.0 A9.0,9.0 0 0,0 330.0,26.0" stroke="#FF0000" stroke-width="1" fill="none"/>
<line x1="171.0" y1="26.0" x2="171.0" y2="26.0" stroke="#FF0000" stroke-width="1" />
<line x1="330.0" y1="26.0" x2="330.0" y2="26.0" stroke="#FF0000" stroke-width="1" />
<line x1="144.0" y1="17.0" x2="158.0" y2="17.0" stroke="#FF0000" stroke-width="1" marker-end="url(#arrow)" />
<path d="M369.0,31.0 A13.0,13.0 0 0,1 369.0,5.0 H517.0 A13.0,13.0 0 0,1 517.0,31.0 z" stroke="#FF0000" stroke-width="1" fill="#D3D3D3"/>
<text class="name_font" x="443.0" y="24.0">savepoint-name</text>
<line x1="338.0" y1="17.0" x2="352.0" y2="17.0" stroke="#FF0000" stroke-width="1" marker-end="url(#arrow)" />
<line x1="8" y1="17.0" x2="22.0" y2="17.0" stroke="#FF0000" stroke-width="1" marker-end="url(#arrow)" />
<circle cx="549.0" cy="17.0" r="2.0" stroke="#FF0000" stroke-width="1" fill="#FFFFFF"/>
<line x1="529.0" y1="17.0" x2="543.0" y2="17.0" stroke="#FF0000" stroke-width="1" marker-end="url(#arrow)" />
</svg>