<?xml version="1.0" encoding="UTF-8"?>
<svg width="400px" height="341px" viewBox="0 0 400 341" version="1.1" xmlns="http://www.w3.org/2000/svg" xmlns:xlink="http://www.w3.org/1999/xlink">
    <!-- Generator: Sketch 52.5 (67469) - http://www.bohemiancoding.com/sketch -->
    <title>8</title>
    <desc>Created with Sketch.</desc>
    <g id="8" stroke="none" stroke-width="1" fill="none" fill-rule="evenodd">
        <rect id="Rectangle-Copy-3" stroke="#E1E1E1" x="20.5" y="1.5" width="1" height="119"></rect>
        <rect id="Rectangle-Copy-3" stroke="#E1E1E1" x="20.5" y="121.5" width="1" height="99"></rect>
        <rect id="Rectangle-Copy-3" stroke="#E1E1E1" x="20.5" y="221.5" width="1" height="119"></rect>
        <rect id="Rectangle-Copy-2" stroke="#E1E1E1" x="0.5" y="320.5" width="119" height="1"></rect>
        <rect id="Rectangle-Copy-2" stroke="#E1E1E1" x="120.5" y="320.5" width="99" height="1"></rect>
        <rect id="Rectangle-Copy-2" stroke="#E1E1E1" x="220.5" y="320.5" width="99" height="1"></rect>
        <rect id="Rectangle-Copy-2" stroke="#E1E1E1" x="320.5" y="320.5" width="79" height="1"></rect>
        <text id="0" font-family="OpenSans-Bold, Open Sans" font-size="12" font-weight="bold" fill="#595959">
            <tspan x="9.15039062" y="333">0</tspan>
        </text>
        <text id="5" font-family="OpenSans-Bold, Open Sans" font-size="12" font-weight="bold" fill="#595959">
            <tspan x="9.15039062" y="217">5</tspan>
        </text>
        <text id="5-copy" font-family="OpenSans-Bold, Open Sans" font-size="12" font-weight="bold" fill="#595959">
            <tspan x="120" y="333">5</tspan>
        </text>
        <text id="10" font-family="OpenSans-Bold, Open Sans" font-size="12" font-weight="bold" fill="#595959">
            <tspan x="220" y="333">10</tspan>
        </text>
        <text id="15" font-family="OpenSans-Bold, Open Sans" font-size="12" font-weight="bold" fill="#595959">
            <tspan x="320" y="333">15</tspan>
        </text>
        <text id="10" font-family="OpenSans-Bold, Open Sans" font-size="12" font-weight="bold" fill="#595959">
            <tspan x="2.30078125" y="117">10</tspan>
        </text>
        <text id="15" font-family="OpenSans-Bold, Open Sans" font-size="12" font-weight="bold" fill="#595959">
            <tspan x="2.30078125" y="17">15</tspan>
        </text>
        <path d="M45,1.6611545 C44.1447208,59.5994981 44.1447208,98.8023808 45,119.269803 C47.7861737,185.944862 54.8672151,220.362521 68.6902093,228.538414 C83.0580374,237.03656 134.683829,195.571863 240.762795,113.957245 C269.409619,91.9170643 319.946254,54.4850342 392.372701,1.6611545" id="Path-5" stroke="#FF2E2F" stroke-width="2" stroke-linecap="round"></path>
    </g>
</svg>