<?xml version="1.0" encoding="UTF-8"?>
<svg width="528px" height="146px" viewBox="0 0 528 146" version="1.1" xmlns="http://www.w3.org/2000/svg" xmlns:xlink="http://www.w3.org/1999/xlink">
    <!-- Generator: Sketch 47.1 (45422) - http://www.bohemiancoding.com/sketch -->
    <title>cascade-to-ring copy</title>
    <desc>Created with Sketch.</desc>
    <defs></defs>
    <g id="Page-1" stroke="none" stroke-width="1" fill="none" fill-rule="evenodd">
        <g id="cascade-to-ring-copy">
            <path d="M318,77 L318,140 C318,142.209139 316.209139,144 314,144 L6,144 C3.790861,144 2,142.209139 2,140 L2,6 C2,3.790861 3.790861,2 6,2 L314,2 C316.209139,2 318,3.790861 318,6 C318,22.1727714 318,31.8667395 318,37.0819043 M318,43 C318,49.0005773 318,58.3339106 318,71" id="Rec1" stroke="#D7D7D7" stroke-linecap="round"></path>
            <path d="M353,70.9989272 L353,43.1072447 M353,37 L353,6 C353,3.790861 354.790861,2 357,2 L522,2 C524.209139,2 526,3.790861 526,6 L526,140 C526,142.209139 524.209139,144 522,144 L357,144 C354.790861,144 353,142.209139 353,140 L353,77" id="Rec2" stroke="#D7D7D7" stroke-linecap="round"></path>
            <path d="M156,74 L168,74" id="Path-5-Copy-12" stroke="#FF2E2F" stroke-linecap="round"></path>
            <path d="M299,74 L376,74" id="Path-5-Copy-13" stroke="#FF2E2F" stroke-linecap="round"></path>
            <g id="Round_block-Copy-14" transform="translate(170.000000, 58.000000)">
                <rect id="Rectangle-Copy-14" fill="#E1E1E1" x="0" y="0" width="124" height="32" rx="14"></rect>
                <path d="M31.0244141,20 L29.6474609,20 L29.6474609,13.5195312 L31.0244141,13.5195312 L31.0244141,20 Z M29.5654297,11.8027344 C29.5654297,11.5566394 29.6328118,11.3671882 29.7675781,11.234375 C29.9023444,11.1015618 30.0947253,11.0351562 30.3447266,11.0351562 C30.5869153,11.0351562 30.77539,11.1015618 30.9101562,11.234375 C31.0449225,11.3671882 31.1123047,11.5566394 31.1123047,11.8027344 C31.1123047,12.0371105 31.0449225,12.221679 30.9101562,12.3564453 C30.77539,12.4912116 30.5869153,12.5585938 30.3447266,12.5585938 C30.0947253,12.5585938 29.9023444,12.4912116 29.7675781,12.3564453 C29.6328118,12.221679 29.5654297,12.0371105 29.5654297,11.8027344 Z M38.6943359,20 L37.3115234,20 L37.3115234,16.015625 C37.3115234,15.5156225 37.2109385,15.1425794 37.0097656,14.8964844 C36.8085927,14.6503894 36.48926,14.5273438 36.0517578,14.5273438 C35.4697237,14.5273438 35.0439467,14.699217 34.7744141,15.0429688 C34.5048815,15.3867205 34.3701172,15.9628866 34.3701172,16.7714844 L34.3701172,20 L32.9931641,20 L32.9931641,13.5195312 L34.0712891,13.5195312 L34.2646484,14.3691406 L34.3349609,14.3691406 C34.5302744,14.0605453 34.8076154,13.8222665 35.1669922,13.6542969 C35.526369,13.4863273 35.9248025,13.4023438 36.3623047,13.4023438 C37.917,13.4023438 38.6943359,14.1933515 38.6943359,15.7753906 L38.6943359,20 Z M44.9638672,18.1542969 C44.9638672,18.7871125 44.7334007,19.2724592 44.2724609,19.6103516 C43.8115211,19.9482439 43.1513715,20.1171875 42.2919922,20.1171875 C41.4287066,20.1171875 40.7353542,19.9863294 40.2119141,19.7246094 L40.2119141,18.5351562 C40.9736366,18.8867205 41.6826139,19.0625 42.3388672,19.0625 C43.1865277,19.0625 43.6103516,18.8066432 43.6103516,18.2949219 C43.6103516,18.1308586 43.563477,17.9941412 43.4697266,17.8847656 C43.3759761,17.7753901 43.2216808,17.66211 43.0068359,17.5449219 C42.7919911,17.4277338 42.493166,17.2949226 42.1103516,17.1464844 C41.3642541,16.8574204 40.8593763,16.5683608 40.5957031,16.2792969 C40.3320299,15.9902329 40.2001953,15.6152367 40.2001953,15.1542969 C40.2001953,14.5996066 40.4238259,14.1689468 40.8710938,13.8623047 C41.3183616,13.5556625 41.926754,13.4023438 42.6962891,13.4023438 C43.4580116,13.4023438 44.1787075,13.5566391 44.8583984,13.8652344 L44.4130859,14.9023438 C43.7138637,14.6132798 43.1259789,14.46875 42.6494141,14.46875 C41.9228479,14.46875 41.5595703,14.6757792 41.5595703,15.0898438 C41.5595703,15.2929698 41.6542959,15.464843 41.84375,15.6054688 C42.0332041,15.7460945 42.4462859,15.9394519 43.0830078,16.1855469 C43.6181667,16.3925792 44.0068347,16.5820304 44.2490234,16.7539062 C44.4912121,16.9257821 44.6708979,17.1240223 44.7880859,17.3486328 C44.905274,17.5732433 44.9638672,17.8417953 44.9638672,18.1542969 Z M48.8662109,19.0039062 C49.2021501,19.0039062 49.5380843,18.9511724 49.8740234,18.8457031 L49.8740234,19.8828125 C49.7216789,19.9492191 49.5253918,20.0048826 49.2851562,20.0498047 C49.0449207,20.0947268 48.7958997,20.1171875 48.5380859,20.1171875 C47.2333919,20.1171875 46.5810547,19.4296944 46.5810547,18.0546875 L46.5810547,14.5625 L45.6962891,14.5625 L45.6962891,13.953125 L46.6455078,13.4492188 L47.1142578,12.078125 L47.9638672,12.078125 L47.9638672,13.5195312 L49.8095703,13.5195312 L49.8095703,14.5625 L47.9638672,14.5625 L47.9638672,18.03125 C47.9638672,18.3632829 48.0468742,18.6083976 48.2128906,18.7666016 C48.3789071,18.9248055 48.5966783,19.0039062 48.8662109,19.0039062 Z M55.2236328,20 L54.9482422,19.0976562 L54.9013672,19.0976562 C54.5888656,19.4921895 54.2744156,19.7607415 53.9580078,19.9033203 C53.6416,20.0458992 53.235354,20.1171875 52.7392578,20.1171875 C52.1025359,20.1171875 51.6054705,19.9453142 51.2480469,19.6015625 C50.8906232,19.2578108 50.7119141,18.7714875 50.7119141,18.1425781 C50.7119141,17.474606 50.9599585,16.9707048 51.4560547,16.6308594 C51.9521509,16.2910139 52.7080027,16.1054689 53.7236328,16.0742188 L54.8427734,16.0390625 L54.8427734,15.6933594 C54.8427734,15.2792948 54.7460947,14.9697276 54.5527344,14.7646484 C54.359374,14.5595693 54.0595723,14.4570312 53.6533203,14.4570312 C53.3212874,14.4570312 53.0029312,14.5058589 52.6982422,14.6035156 C52.3935532,14.7011724 52.1005873,14.8164056 51.8193359,14.9492188 L51.3740234,13.9648438 C51.7255877,13.7812491 52.1103495,13.641602 52.5283203,13.5458984 C52.9462912,13.4501948 53.3408185,13.4023438 53.7119141,13.4023438 C54.5361369,13.4023438 55.158201,13.5820295 55.578125,13.9414062 C55.998049,14.300783 56.2080078,14.8652305 56.2080078,15.6347656 L56.2080078,20 L55.2236328,20 Z M53.1728516,19.0625 C53.6728541,19.0625 54.0742172,18.922853 54.3769531,18.6435547 C54.679689,18.3642564 54.8310547,17.9726588 54.8310547,17.46875 L54.8310547,16.90625 L53.9990234,16.9414062 C53.3505827,16.9648439 52.8789077,17.0732412 52.5839844,17.2666016 C52.289061,17.4599619 52.1416016,17.7558574 52.1416016,18.1542969 C52.1416016,18.4433608 52.2275382,18.6669914 52.3994141,18.8251953 C52.5712899,18.9833992 52.8290998,19.0625 53.1728516,19.0625 Z M63.8310547,20 L62.4482422,20 L62.4482422,16.015625 C62.4482422,15.5156225 62.3476573,15.1425794 62.1464844,14.8964844 C61.9453115,14.6503894 61.6259787,14.5273438 61.1884766,14.5273438 C60.6064424,14.5273438 60.1806654,14.699217 59.9111328,15.0429688 C59.6416002,15.3867205 59.5068359,15.9628866 59.5068359,16.7714844 L59.5068359,20 L58.1298828,20 L58.1298828,13.5195312 L59.2080078,13.5195312 L59.4013672,14.3691406 L59.4716797,14.3691406 C59.6669932,14.0605453 59.9443341,13.8222665 60.3037109,13.6542969 C60.6630877,13.4863273 61.0615212,13.4023438 61.4990234,13.4023438 C63.0537187,13.4023438 63.8310547,14.1933515 63.8310547,15.7753906 L63.8310547,20 Z M68.3603516,20.1171875 C67.3798779,20.1171875 66.6347682,19.8310575 66.125,19.2587891 C65.6152318,18.6865206 65.3603516,17.8652397 65.3603516,16.7949219 C65.3603516,15.7050727 65.6269505,14.8671904 66.1601562,14.28125 C66.693362,13.6953096 67.4638621,13.4023438 68.4716797,13.4023438 C69.1552769,13.4023438 69.7705051,13.5292956 70.3173828,13.7832031 L69.9013672,14.890625 C69.319333,14.6640614 68.8388691,14.5507812 68.4599609,14.5507812 C67.3388616,14.5507812 66.7783203,15.2949144 66.7783203,16.7832031 C66.7783203,17.5097693 66.9179674,18.0556622 67.1972656,18.4208984 C67.4765639,18.7861346 67.8857395,18.96875 68.4248047,18.96875 C69.038089,18.96875 69.6181613,18.8164078 70.1650391,18.5117188 L70.1650391,19.7128906 C69.9189441,19.8574226 69.6562514,19.9609372 69.3769531,20.0234375 C69.0976549,20.0859378 68.7587911,20.1171875 68.3603516,20.1171875 Z M74.5185547,20.1171875 C73.5107371,20.1171875 72.7226591,19.8232451 72.1542969,19.2353516 C71.5859347,18.647458 71.3017578,17.8378958 71.3017578,16.8066406 C71.3017578,15.7480416 71.5654271,14.9160187 72.0927734,14.3105469 C72.6201198,13.7050751 73.344722,13.4023438 74.2666016,13.4023438 C75.1220746,13.4023438 75.7978491,13.6621068 76.2939453,14.1816406 C76.7900415,14.7011745 77.0380859,15.4160111 77.0380859,16.3261719 L77.0380859,17.0703125 L72.7197266,17.0703125 C72.7392579,17.6992219 72.9091781,18.1826155 73.2294922,18.5205078 C73.5498063,18.8584001 74.0009737,19.0273438 74.5830078,19.0273438 C74.9658222,19.0273438 75.322264,18.9912113 75.6523438,18.9189453 C75.9824235,18.8466793 76.3369122,18.7265633 76.7158203,18.5585938 L76.7158203,19.6777344 C76.3798811,19.8378914 76.0400408,19.9511715 75.6962891,20.0175781 C75.3525373,20.0839847 74.9599631,20.1171875 74.5185547,20.1171875 Z M74.2666016,14.4453125 C73.8290994,14.4453125 73.4785169,14.583983 73.2148438,14.8613281 C72.9511706,15.1386733 72.7939456,15.5429661 72.7431641,16.0742188 L75.6845703,16.0742188 C75.6767578,15.5390598 75.5478528,15.1337904 75.2978516,14.8583984 C75.0478503,14.5830064 74.7041038,14.4453125 74.2666016,14.4453125 Z M86.5302734,14.9023438 L86.2080078,16.5664062 L87.7900391,16.5664062 L87.7900391,17.5507812 L86.0146484,17.5507812 L85.5458984,20 L84.5029297,20 L84.9716797,17.5507812 L83.5185547,17.5507812 L83.0498047,20 L82.0302734,20 L82.4755859,17.5507812 L81.0107422,17.5507812 L81.0107422,16.5664062 L82.6689453,16.5664062 L83.0029297,14.9023438 L81.4560547,14.9023438 L81.4560547,13.9179688 L83.1728516,13.9179688 L83.6416016,11.4453125 L84.6962891,11.4453125 L84.2275391,13.9179688 L85.7041016,13.9179688 L86.1728516,11.4453125 L87.1923828,11.4453125 L86.7236328,13.9179688 L88.2001953,13.9179688 L88.2001953,14.9023438 L86.5302734,14.9023438 Z M83.7001953,16.5664062 L85.1650391,16.5664062 L85.4990234,14.9023438 L84.0341797,14.9023438 L83.7001953,16.5664062 Z M94.8212891,20 L89.0146484,20 L89.0146484,18.9570312 L91.2236328,16.7363281 C91.8759798,16.068356 92.3085927,15.594728 92.5214844,15.3154297 C92.7343761,15.0361314 92.8896479,14.7734387 92.9873047,14.5273438 C93.0849614,14.2812488 93.1337891,14.0175795 93.1337891,13.7363281 C93.1337891,13.3496074 93.0175793,13.044923 92.7851562,12.8222656 C92.5527332,12.5996083 92.2314474,12.4882812 91.8212891,12.4882812 C91.4931624,12.4882812 91.1757828,12.5488275 90.8691406,12.6699219 C90.5624985,12.7910162 90.2080098,13.009764 89.8056641,13.3261719 L89.0615234,12.4179688 C89.5380883,12.015623 90.0009743,11.7304696 90.4501953,11.5625 C90.8994163,11.3945304 91.3779271,11.3105469 91.8857422,11.3105469 C92.6826212,11.3105469 93.3212867,11.5185526 93.8017578,11.9345703 C94.282229,12.350588 94.5224609,12.9101527 94.5224609,13.6132812 C94.5224609,14.0000019 94.4531257,14.3671858 94.3144531,14.7148438 C94.1757806,15.0625017 93.9628921,15.4208966 93.6757812,15.7900391 C93.3886704,16.1591815 92.9111362,16.6582 92.2431641,17.2871094 L90.7548828,18.7285156 L90.7548828,18.7871094 L94.8212891,18.7871094 L94.8212891,20 Z" id="text" fill="#1F1E1E"></path>
            </g>
            <g id="Round_block-Copy-16" transform="translate(26.000000, 58.000000)">
                <rect id="Rectangle-Copy-14" fill="#E1E1E1" x="0" y="0" width="124" height="32" rx="14"></rect>
                <path d="M31.0244141,20 L29.6474609,20 L29.6474609,13.5195312 L31.0244141,13.5195312 L31.0244141,20 Z M29.5654297,11.8027344 C29.5654297,11.5566394 29.6328118,11.3671882 29.7675781,11.234375 C29.9023444,11.1015618 30.0947253,11.0351562 30.3447266,11.0351562 C30.5869153,11.0351562 30.77539,11.1015618 30.9101562,11.234375 C31.0449225,11.3671882 31.1123047,11.5566394 31.1123047,11.8027344 C31.1123047,12.0371105 31.0449225,12.221679 30.9101562,12.3564453 C30.77539,12.4912116 30.5869153,12.5585938 30.3447266,12.5585938 C30.0947253,12.5585938 29.9023444,12.4912116 29.7675781,12.3564453 C29.6328118,12.221679 29.5654297,12.0371105 29.5654297,11.8027344 Z M38.6943359,20 L37.3115234,20 L37.3115234,16.015625 C37.3115234,15.5156225 37.2109385,15.1425794 37.0097656,14.8964844 C36.8085927,14.6503894 36.48926,14.5273438 36.0517578,14.5273438 C35.4697237,14.5273438 35.0439467,14.699217 34.7744141,15.0429688 C34.5048815,15.3867205 34.3701172,15.9628866 34.3701172,16.7714844 L34.3701172,20 L32.9931641,20 L32.9931641,13.5195312 L34.0712891,13.5195312 L34.2646484,14.3691406 L34.3349609,14.3691406 C34.5302744,14.0605453 34.8076154,13.8222665 35.1669922,13.6542969 C35.526369,13.4863273 35.9248025,13.4023438 36.3623047,13.4023438 C37.917,13.4023438 38.6943359,14.1933515 38.6943359,15.7753906 L38.6943359,20 Z M44.9638672,18.1542969 C44.9638672,18.7871125 44.7334007,19.2724592 44.2724609,19.6103516 C43.8115211,19.9482439 43.1513715,20.1171875 42.2919922,20.1171875 C41.4287066,20.1171875 40.7353542,19.9863294 40.2119141,19.7246094 L40.2119141,18.5351562 C40.9736366,18.8867205 41.6826139,19.0625 42.3388672,19.0625 C43.1865277,19.0625 43.6103516,18.8066432 43.6103516,18.2949219 C43.6103516,18.1308586 43.563477,17.9941412 43.4697266,17.8847656 C43.3759761,17.7753901 43.2216808,17.66211 43.0068359,17.5449219 C42.7919911,17.4277338 42.493166,17.2949226 42.1103516,17.1464844 C41.3642541,16.8574204 40.8593763,16.5683608 40.5957031,16.2792969 C40.3320299,15.9902329 40.2001953,15.6152367 40.2001953,15.1542969 C40.2001953,14.5996066 40.4238259,14.1689468 40.8710938,13.8623047 C41.3183616,13.5556625 41.926754,13.4023438 42.6962891,13.4023438 C43.4580116,13.4023438 44.1787075,13.5566391 44.8583984,13.8652344 L44.4130859,14.9023438 C43.7138637,14.6132798 43.1259789,14.46875 42.6494141,14.46875 C41.9228479,14.46875 41.5595703,14.6757792 41.5595703,15.0898438 C41.5595703,15.2929698 41.6542959,15.464843 41.84375,15.6054688 C42.0332041,15.7460945 42.4462859,15.9394519 43.0830078,16.1855469 C43.6181667,16.3925792 44.0068347,16.5820304 44.2490234,16.7539062 C44.4912121,16.9257821 44.6708979,17.1240223 44.7880859,17.3486328 C44.905274,17.5732433 44.9638672,17.8417953 44.9638672,18.1542969 Z M48.8662109,19.0039062 C49.2021501,19.0039062 49.5380843,18.9511724 49.8740234,18.8457031 L49.8740234,19.8828125 C49.7216789,19.9492191 49.5253918,20.0048826 49.2851562,20.0498047 C49.0449207,20.0947268 48.7958997,20.1171875 48.5380859,20.1171875 C47.2333919,20.1171875 46.5810547,19.4296944 46.5810547,18.0546875 L46.5810547,14.5625 L45.6962891,14.5625 L45.6962891,13.953125 L46.6455078,13.4492188 L47.1142578,12.078125 L47.9638672,12.078125 L47.9638672,13.5195312 L49.8095703,13.5195312 L49.8095703,14.5625 L47.9638672,14.5625 L47.9638672,18.03125 C47.9638672,18.3632829 48.0468742,18.6083976 48.2128906,18.7666016 C48.3789071,18.9248055 48.5966783,19.0039062 48.8662109,19.0039062 Z M55.2236328,20 L54.9482422,19.0976562 L54.9013672,19.0976562 C54.5888656,19.4921895 54.2744156,19.7607415 53.9580078,19.9033203 C53.6416,20.0458992 53.235354,20.1171875 52.7392578,20.1171875 C52.1025359,20.1171875 51.6054705,19.9453142 51.2480469,19.6015625 C50.8906232,19.2578108 50.7119141,18.7714875 50.7119141,18.1425781 C50.7119141,17.474606 50.9599585,16.9707048 51.4560547,16.6308594 C51.9521509,16.2910139 52.7080027,16.1054689 53.7236328,16.0742188 L54.8427734,16.0390625 L54.8427734,15.6933594 C54.8427734,15.2792948 54.7460947,14.9697276 54.5527344,14.7646484 C54.359374,14.5595693 54.0595723,14.4570312 53.6533203,14.4570312 C53.3212874,14.4570312 53.0029312,14.5058589 52.6982422,14.6035156 C52.3935532,14.7011724 52.1005873,14.8164056 51.8193359,14.9492188 L51.3740234,13.9648438 C51.7255877,13.7812491 52.1103495,13.641602 52.5283203,13.5458984 C52.9462912,13.4501948 53.3408185,13.4023438 53.7119141,13.4023438 C54.5361369,13.4023438 55.158201,13.5820295 55.578125,13.9414062 C55.998049,14.300783 56.2080078,14.8652305 56.2080078,15.6347656 L56.2080078,20 L55.2236328,20 Z M53.1728516,19.0625 C53.6728541,19.0625 54.0742172,18.922853 54.3769531,18.6435547 C54.679689,18.3642564 54.8310547,17.9726588 54.8310547,17.46875 L54.8310547,16.90625 L53.9990234,16.9414062 C53.3505827,16.9648439 52.8789077,17.0732412 52.5839844,17.2666016 C52.289061,17.4599619 52.1416016,17.7558574 52.1416016,18.1542969 C52.1416016,18.4433608 52.2275382,18.6669914 52.3994141,18.8251953 C52.5712899,18.9833992 52.8290998,19.0625 53.1728516,19.0625 Z M63.8310547,20 L62.4482422,20 L62.4482422,16.015625 C62.4482422,15.5156225 62.3476573,15.1425794 62.1464844,14.8964844 C61.9453115,14.6503894 61.6259787,14.5273438 61.1884766,14.5273438 C60.6064424,14.5273438 60.1806654,14.699217 59.9111328,15.0429688 C59.6416002,15.3867205 59.5068359,15.9628866 59.5068359,16.7714844 L59.5068359,20 L58.1298828,20 L58.1298828,13.5195312 L59.2080078,13.5195312 L59.4013672,14.3691406 L59.4716797,14.3691406 C59.6669932,14.0605453 59.9443341,13.8222665 60.3037109,13.6542969 C60.6630877,13.4863273 61.0615212,13.4023438 61.4990234,13.4023438 C63.0537187,13.4023438 63.8310547,14.1933515 63.8310547,15.7753906 L63.8310547,20 Z M68.3603516,20.1171875 C67.3798779,20.1171875 66.6347682,19.8310575 66.125,19.2587891 C65.6152318,18.6865206 65.3603516,17.8652397 65.3603516,16.7949219 C65.3603516,15.7050727 65.6269505,14.8671904 66.1601562,14.28125 C66.693362,13.6953096 67.4638621,13.4023438 68.4716797,13.4023438 C69.1552769,13.4023438 69.7705051,13.5292956 70.3173828,13.7832031 L69.9013672,14.890625 C69.319333,14.6640614 68.8388691,14.5507812 68.4599609,14.5507812 C67.3388616,14.5507812 66.7783203,15.2949144 66.7783203,16.7832031 C66.7783203,17.5097693 66.9179674,18.0556622 67.1972656,18.4208984 C67.4765639,18.7861346 67.8857395,18.96875 68.4248047,18.96875 C69.038089,18.96875 69.6181613,18.8164078 70.1650391,18.5117188 L70.1650391,19.7128906 C69.9189441,19.8574226 69.6562514,19.9609372 69.3769531,20.0234375 C69.0976549,20.0859378 68.7587911,20.1171875 68.3603516,20.1171875 Z M74.5185547,20.1171875 C73.5107371,20.1171875 72.7226591,19.8232451 72.1542969,19.2353516 C71.5859347,18.647458 71.3017578,17.8378958 71.3017578,16.8066406 C71.3017578,15.7480416 71.5654271,14.9160187 72.0927734,14.3105469 C72.6201198,13.7050751 73.344722,13.4023438 74.2666016,13.4023438 C75.1220746,13.4023438 75.7978491,13.6621068 76.2939453,14.1816406 C76.7900415,14.7011745 77.0380859,15.4160111 77.0380859,16.3261719 L77.0380859,17.0703125 L72.7197266,17.0703125 C72.7392579,17.6992219 72.9091781,18.1826155 73.2294922,18.5205078 C73.5498063,18.8584001 74.0009737,19.0273438 74.5830078,19.0273438 C74.9658222,19.0273438 75.322264,18.9912113 75.6523438,18.9189453 C75.9824235,18.8466793 76.3369122,18.7265633 76.7158203,18.5585938 L76.7158203,19.6777344 C76.3798811,19.8378914 76.0400408,19.9511715 75.6962891,20.0175781 C75.3525373,20.0839847 74.9599631,20.1171875 74.5185547,20.1171875 Z M74.2666016,14.4453125 C73.8290994,14.4453125 73.4785169,14.583983 73.2148438,14.8613281 C72.9511706,15.1386733 72.7939456,15.5429661 72.7431641,16.0742188 L75.6845703,16.0742188 C75.6767578,15.5390598 75.5478528,15.1337904 75.2978516,14.8583984 C75.0478503,14.5830064 74.7041038,14.4453125 74.2666016,14.4453125 Z M86.5302734,14.9023438 L86.2080078,16.5664062 L87.7900391,16.5664062 L87.7900391,17.5507812 L86.0146484,17.5507812 L85.5458984,20 L84.5029297,20 L84.9716797,17.5507812 L83.5185547,17.5507812 L83.0498047,20 L82.0302734,20 L82.4755859,17.5507812 L81.0107422,17.5507812 L81.0107422,16.5664062 L82.6689453,16.5664062 L83.0029297,14.9023438 L81.4560547,14.9023438 L81.4560547,13.9179688 L83.1728516,13.9179688 L83.6416016,11.4453125 L84.6962891,11.4453125 L84.2275391,13.9179688 L85.7041016,13.9179688 L86.1728516,11.4453125 L87.1923828,11.4453125 L86.7236328,13.9179688 L88.2001953,13.9179688 L88.2001953,14.9023438 L86.5302734,14.9023438 Z M83.7001953,16.5664062 L85.1650391,16.5664062 L85.4990234,14.9023438 L84.0341797,14.9023438 L83.7001953,16.5664062 Z M93.0576172,20 L91.6806641,20 L91.6806641,14.46875 C91.6806641,13.8085904 91.6962889,13.2851582 91.7275391,12.8984375 C91.6376949,12.992188 91.5273444,13.0957026 91.3964844,13.2089844 C91.2656243,13.3222662 90.8271522,13.6816376 90.0810547,14.2871094 L89.3896484,13.4140625 L91.9091797,11.4335938 L93.0576172,11.4335938 L93.0576172,20 Z" id="text" fill="#1F1E1E"></path>
            </g>
            <g id="Round_block-Copy-17" transform="translate(378.000000, 58.000000)">
                <rect id="Rectangle-Copy-14" fill="#E1E1E1" x="0" y="0" width="124" height="32" rx="14"></rect>
                <path d="M31.0244141,20 L29.6474609,20 L29.6474609,13.5195312 L31.0244141,13.5195312 L31.0244141,20 Z M29.5654297,11.8027344 C29.5654297,11.5566394 29.6328118,11.3671882 29.7675781,11.234375 C29.9023444,11.1015618 30.0947253,11.0351562 30.3447266,11.0351562 C30.5869153,11.0351562 30.77539,11.1015618 30.9101562,11.234375 C31.0449225,11.3671882 31.1123047,11.5566394 31.1123047,11.8027344 C31.1123047,12.0371105 31.0449225,12.221679 30.9101562,12.3564453 C30.77539,12.4912116 30.5869153,12.5585938 30.3447266,12.5585938 C30.0947253,12.5585938 29.9023444,12.4912116 29.7675781,12.3564453 C29.6328118,12.221679 29.5654297,12.0371105 29.5654297,11.8027344 Z M38.6943359,20 L37.3115234,20 L37.3115234,16.015625 C37.3115234,15.5156225 37.2109385,15.1425794 37.0097656,14.8964844 C36.8085927,14.6503894 36.48926,14.5273438 36.0517578,14.5273438 C35.4697237,14.5273438 35.0439467,14.699217 34.7744141,15.0429688 C34.5048815,15.3867205 34.3701172,15.9628866 34.3701172,16.7714844 L34.3701172,20 L32.9931641,20 L32.9931641,13.5195312 L34.0712891,13.5195312 L34.2646484,14.3691406 L34.3349609,14.3691406 C34.5302744,14.0605453 34.8076154,13.8222665 35.1669922,13.6542969 C35.526369,13.4863273 35.9248025,13.4023438 36.3623047,13.4023438 C37.917,13.4023438 38.6943359,14.1933515 38.6943359,15.7753906 L38.6943359,20 Z M44.9638672,18.1542969 C44.9638672,18.7871125 44.7334007,19.2724592 44.2724609,19.6103516 C43.8115211,19.9482439 43.1513715,20.1171875 42.2919922,20.1171875 C41.4287066,20.1171875 40.7353542,19.9863294 40.2119141,19.7246094 L40.2119141,18.5351562 C40.9736366,18.8867205 41.6826139,19.0625 42.3388672,19.0625 C43.1865277,19.0625 43.6103516,18.8066432 43.6103516,18.2949219 C43.6103516,18.1308586 43.563477,17.9941412 43.4697266,17.8847656 C43.3759761,17.7753901 43.2216808,17.66211 43.0068359,17.5449219 C42.7919911,17.4277338 42.493166,17.2949226 42.1103516,17.1464844 C41.3642541,16.8574204 40.8593763,16.5683608 40.5957031,16.2792969 C40.3320299,15.9902329 40.2001953,15.6152367 40.2001953,15.1542969 C40.2001953,14.5996066 40.4238259,14.1689468 40.8710938,13.8623047 C41.3183616,13.5556625 41.926754,13.4023438 42.6962891,13.4023438 C43.4580116,13.4023438 44.1787075,13.5566391 44.8583984,13.8652344 L44.4130859,14.9023438 C43.7138637,14.6132798 43.1259789,14.46875 42.6494141,14.46875 C41.9228479,14.46875 41.5595703,14.6757792 41.5595703,15.0898438 C41.5595703,15.2929698 41.6542959,15.464843 41.84375,15.6054688 C42.0332041,15.7460945 42.4462859,15.9394519 43.0830078,16.1855469 C43.6181667,16.3925792 44.0068347,16.5820304 44.2490234,16.7539062 C44.4912121,16.9257821 44.6708979,17.1240223 44.7880859,17.3486328 C44.905274,17.5732433 44.9638672,17.8417953 44.9638672,18.1542969 Z M48.8662109,19.0039062 C49.2021501,19.0039062 49.5380843,18.9511724 49.8740234,18.8457031 L49.8740234,19.8828125 C49.7216789,19.9492191 49.5253918,20.0048826 49.2851562,20.0498047 C49.0449207,20.0947268 48.7958997,20.1171875 48.5380859,20.1171875 C47.2333919,20.1171875 46.5810547,19.4296944 46.5810547,18.0546875 L46.5810547,14.5625 L45.6962891,14.5625 L45.6962891,13.953125 L46.6455078,13.4492188 L47.1142578,12.078125 L47.9638672,12.078125 L47.9638672,13.5195312 L49.8095703,13.5195312 L49.8095703,14.5625 L47.9638672,14.5625 L47.9638672,18.03125 C47.9638672,18.3632829 48.0468742,18.6083976 48.2128906,18.7666016 C48.3789071,18.9248055 48.5966783,19.0039062 48.8662109,19.0039062 Z M55.2236328,20 L54.9482422,19.0976562 L54.9013672,19.0976562 C54.5888656,19.4921895 54.2744156,19.7607415 53.9580078,19.9033203 C53.6416,20.0458992 53.235354,20.1171875 52.7392578,20.1171875 C52.1025359,20.1171875 51.6054705,19.9453142 51.2480469,19.6015625 C50.8906232,19.2578108 50.7119141,18.7714875 50.7119141,18.1425781 C50.7119141,17.474606 50.9599585,16.9707048 51.4560547,16.6308594 C51.9521509,16.2910139 52.7080027,16.1054689 53.7236328,16.0742188 L54.8427734,16.0390625 L54.8427734,15.6933594 C54.8427734,15.2792948 54.7460947,14.9697276 54.5527344,14.7646484 C54.359374,14.5595693 54.0595723,14.4570312 53.6533203,14.4570312 C53.3212874,14.4570312 53.0029312,14.5058589 52.6982422,14.6035156 C52.3935532,14.7011724 52.1005873,14.8164056 51.8193359,14.9492188 L51.3740234,13.9648438 C51.7255877,13.7812491 52.1103495,13.641602 52.5283203,13.5458984 C52.9462912,13.4501948 53.3408185,13.4023438 53.7119141,13.4023438 C54.5361369,13.4023438 55.158201,13.5820295 55.578125,13.9414062 C55.998049,14.300783 56.2080078,14.8652305 56.2080078,15.6347656 L56.2080078,20 L55.2236328,20 Z M53.1728516,19.0625 C53.6728541,19.0625 54.0742172,18.922853 54.3769531,18.6435547 C54.679689,18.3642564 54.8310547,17.9726588 54.8310547,17.46875 L54.8310547,16.90625 L53.9990234,16.9414062 C53.3505827,16.9648439 52.8789077,17.0732412 52.5839844,17.2666016 C52.289061,17.4599619 52.1416016,17.7558574 52.1416016,18.1542969 C52.1416016,18.4433608 52.2275382,18.6669914 52.3994141,18.8251953 C52.5712899,18.9833992 52.8290998,19.0625 53.1728516,19.0625 Z M63.8310547,20 L62.4482422,20 L62.4482422,16.015625 C62.4482422,15.5156225 62.3476573,15.1425794 62.1464844,14.8964844 C61.9453115,14.6503894 61.6259787,14.5273438 61.1884766,14.5273438 C60.6064424,14.5273438 60.1806654,14.699217 59.9111328,15.0429688 C59.6416002,15.3867205 59.5068359,15.9628866 59.5068359,16.7714844 L59.5068359,20 L58.1298828,20 L58.1298828,13.5195312 L59.2080078,13.5195312 L59.4013672,14.3691406 L59.4716797,14.3691406 C59.6669932,14.0605453 59.9443341,13.8222665 60.3037109,13.6542969 C60.6630877,13.4863273 61.0615212,13.4023438 61.4990234,13.4023438 C63.0537187,13.4023438 63.8310547,14.1933515 63.8310547,15.7753906 L63.8310547,20 Z M68.3603516,20.1171875 C67.3798779,20.1171875 66.6347682,19.8310575 66.125,19.2587891 C65.6152318,18.6865206 65.3603516,17.8652397 65.3603516,16.7949219 C65.3603516,15.7050727 65.6269505,14.8671904 66.1601562,14.28125 C66.693362,13.6953096 67.4638621,13.4023438 68.4716797,13.4023438 C69.1552769,13.4023438 69.7705051,13.5292956 70.3173828,13.7832031 L69.9013672,14.890625 C69.319333,14.6640614 68.8388691,14.5507812 68.4599609,14.5507812 C67.3388616,14.5507812 66.7783203,15.2949144 66.7783203,16.7832031 C66.7783203,17.5097693 66.9179674,18.0556622 67.1972656,18.4208984 C67.4765639,18.7861346 67.8857395,18.96875 68.4248047,18.96875 C69.038089,18.96875 69.6181613,18.8164078 70.1650391,18.5117188 L70.1650391,19.7128906 C69.9189441,19.8574226 69.6562514,19.9609372 69.3769531,20.0234375 C69.0976549,20.0859378 68.7587911,20.1171875 68.3603516,20.1171875 Z M74.5185547,20.1171875 C73.5107371,20.1171875 72.7226591,19.8232451 72.1542969,19.2353516 C71.5859347,18.647458 71.3017578,17.8378958 71.3017578,16.8066406 C71.3017578,15.7480416 71.5654271,14.9160187 72.0927734,14.3105469 C72.6201198,13.7050751 73.344722,13.4023438 74.2666016,13.4023438 C75.1220746,13.4023438 75.7978491,13.6621068 76.2939453,14.1816406 C76.7900415,14.7011745 77.0380859,15.4160111 77.0380859,16.3261719 L77.0380859,17.0703125 L72.7197266,17.0703125 C72.7392579,17.6992219 72.9091781,18.1826155 73.2294922,18.5205078 C73.5498063,18.8584001 74.0009737,19.0273438 74.5830078,19.0273438 C74.9658222,19.0273438 75.322264,18.9912113 75.6523438,18.9189453 C75.9824235,18.8466793 76.3369122,18.7265633 76.7158203,18.5585938 L76.7158203,19.6777344 C76.3798811,19.8378914 76.0400408,19.9511715 75.6962891,20.0175781 C75.3525373,20.0839847 74.9599631,20.1171875 74.5185547,20.1171875 Z M74.2666016,14.4453125 C73.8290994,14.4453125 73.4785169,14.583983 73.2148438,14.8613281 C72.9511706,15.1386733 72.7939456,15.5429661 72.7431641,16.0742188 L75.6845703,16.0742188 C75.6767578,15.5390598 75.5478528,15.1337904 75.2978516,14.8583984 C75.0478503,14.5830064 74.7041038,14.4453125 74.2666016,14.4453125 Z M86.5302734,14.9023438 L86.2080078,16.5664062 L87.7900391,16.5664062 L87.7900391,17.5507812 L86.0146484,17.5507812 L85.5458984,20 L84.5029297,20 L84.9716797,17.5507812 L83.5185547,17.5507812 L83.0498047,20 L82.0302734,20 L82.4755859,17.5507812 L81.0107422,17.5507812 L81.0107422,16.5664062 L82.6689453,16.5664062 L83.0029297,14.9023438 L81.4560547,14.9023438 L81.4560547,13.9179688 L83.1728516,13.9179688 L83.6416016,11.4453125 L84.6962891,11.4453125 L84.2275391,13.9179688 L85.7041016,13.9179688 L86.1728516,11.4453125 L87.1923828,11.4453125 L86.7236328,13.9179688 L88.2001953,13.9179688 L88.2001953,14.9023438 L86.5302734,14.9023438 Z M83.7001953,16.5664062 L85.1650391,16.5664062 L85.4990234,14.9023438 L84.0341797,14.9023438 L83.7001953,16.5664062 Z M94.4990234,13.4023438 C94.4990234,13.9453152 94.3408219,14.3974591 94.0244141,14.7587891 C93.7080062,15.120119 93.2626982,15.3632806 92.6884766,15.4882812 L92.6884766,15.5351562 C93.37598,15.6210942 93.8915998,15.8349592 94.2353516,16.1767578 C94.5791033,16.5185564 94.7509766,16.9726534 94.7509766,17.5390625 C94.7509766,18.3632854 94.4599638,18.9990212 93.8779297,19.4462891 C93.2958955,19.8935569 92.4677788,20.1171875 91.3935547,20.1171875 C90.4443312,20.1171875 89.6435579,19.9628922 88.9912109,19.6542969 L88.9912109,18.4296875 C89.354494,18.6093759 89.7392558,18.7480464 90.1455078,18.8457031 C90.5517598,18.9433599 90.9423809,18.9921875 91.3173828,18.9921875 C91.9814486,18.9921875 92.4775374,18.8691419 92.8056641,18.6230469 C93.1337907,18.3769519 93.2978516,17.9960963 93.2978516,17.4804688 C93.2978516,17.0234352 93.1162128,16.6875011 92.7529297,16.4726562 C92.3896466,16.2578114 91.8193398,16.1503906 91.0419922,16.1503906 L90.2978516,16.1503906 L90.2978516,15.03125 L91.0537109,15.03125 C92.4209053,15.03125 93.1044922,14.5585985 93.1044922,13.6132812 C93.1044922,13.2460919 92.9853528,12.9628916 92.7470703,12.7636719 C92.5087879,12.5644521 92.1572289,12.4648438 91.6923828,12.4648438 C91.3681624,12.4648438 91.0556656,12.5107417 90.7548828,12.6025391 C90.4541001,12.6943364 90.0986349,12.8730455 89.6884766,13.1386719 L89.0146484,12.1777344 C89.7998086,11.5996065 90.7119089,11.3105469 91.7509766,11.3105469 C92.6142621,11.3105469 93.2880835,11.4960919 93.7724609,11.8671875 C94.2568384,12.2382831 94.4990234,12.7499967 94.4990234,13.4023438 Z" id="text" fill="#1F1E1E"></path>
            </g>
            <path d="M20.5615234,18.6347656 C20.5615234,20.0449289 20.1601603,21.1249963 19.3574219,21.875 C18.5546835,22.6250037 17.3955154,23 15.8798828,23 L13.4541016,23 L13.4541016,14.4335938 L16.1435547,14.4335938 C17.5419992,14.4335938 18.6279258,14.8027307 19.4013672,15.5410156 C20.1748086,16.2793006 20.5615234,17.3105403 20.5615234,18.6347656 Z M18.6748047,18.6816406 C18.6748047,16.8417877 17.8623128,15.921875 16.2373047,15.921875 L15.2705078,15.921875 L15.2705078,21.5 L16.0498047,21.5 C17.7998134,21.5 18.6748047,20.5605563 18.6748047,18.6816406 Z M25.9755859,15.8222656 C25.2919888,15.8222656 24.7626972,16.079099 24.3876953,16.5927734 C24.0126934,17.1064479 23.8251953,17.822261 23.8251953,18.7402344 C23.8251953,20.6504002 24.541985,21.6054688 25.9755859,21.6054688 C26.5771514,21.6054688 27.3056598,21.4550796 28.1611328,21.1542969 L28.1611328,22.6777344 C27.4580043,22.9707046 26.6728559,23.1171875 25.8056641,23.1171875 C24.5595641,23.1171875 23.6064486,22.7392616 22.9462891,21.9833984 C22.2861295,21.2275353 21.9560547,20.1425852 21.9560547,18.7285156 C21.9560547,17.8378862 22.1181624,17.0576205 22.4423828,16.3876953 C22.7666032,15.7177701 23.2324188,15.2041033 23.8398438,14.8466797 C24.4472687,14.489256 25.1591756,14.3105469 25.9755859,14.3105469 C26.8076213,14.3105469 27.6435505,14.5117167 28.4833984,14.9140625 L27.8974609,16.390625 C27.5771468,16.2382805 27.2548844,16.1054693 26.9306641,15.9921875 C26.6064437,15.8789057 26.2880875,15.8222656 25.9755859,15.8222656 Z M37.8759766,18.0546875 L37.6005859,19.4140625 L39.1123047,19.4140625 L39.1123047,20.6210938 L37.3720703,20.6210938 L36.9208984,23 L35.6318359,23 L36.0888672,20.6210938 L34.9521484,20.6210938 L34.5068359,23 L33.2470703,23 L33.6806641,20.6210938 L32.2861328,20.6210938 L32.2861328,19.4140625 L33.9091797,19.4140625 L34.1845703,18.0546875 L32.7080078,18.0546875 L32.7080078,16.8300781 L34.4013672,16.8300781 L34.8525391,14.4453125 L36.1357422,14.4453125 L35.6845703,16.8300781 L36.8447266,16.8300781 L37.3017578,14.4453125 L38.5615234,14.4453125 L38.1044922,16.8300781 L39.5107422,16.8300781 L39.5107422,18.0546875 L37.8759766,18.0546875 Z M35.1806641,19.4140625 L36.3291016,19.4140625 L36.6044922,18.0546875 L35.4560547,18.0546875 L35.1806641,19.4140625 Z M44.7314453,23 L42.9208984,23 L42.9208984,18.0429688 L42.9384766,17.2285156 L42.9677734,16.3378906 C42.6669907,16.6386734 42.4580084,16.835937 42.3408203,16.9296875 L41.3564453,17.7207031 L40.4833984,16.6308594 L43.2431641,14.4335938 L44.7314453,14.4335938 L44.7314453,23 Z" id="DC-#1-Copy-3" fill="#595959"></path>
            <path d="M371.561523,18.6347656 C371.561523,20.0449289 371.16016,21.1249963 370.357422,21.875 C369.554683,22.6250037 368.395515,23 366.879883,23 L364.454102,23 L364.454102,14.4335938 L367.143555,14.4335938 C368.541999,14.4335938 369.627926,14.8027307 370.401367,15.5410156 C371.174809,16.2793006 371.561523,17.3105403 371.561523,18.6347656 Z M369.674805,18.6816406 C369.674805,16.8417877 368.862313,15.921875 367.237305,15.921875 L366.270508,15.921875 L366.270508,21.5 L367.049805,21.5 C368.799813,21.5 369.674805,20.5605563 369.674805,18.6816406 Z M376.975586,15.8222656 C376.291989,15.8222656 375.762697,16.079099 375.387695,16.5927734 C375.012693,17.1064479 374.825195,17.822261 374.825195,18.7402344 C374.825195,20.6504002 375.541985,21.6054688 376.975586,21.6054688 C377.577151,21.6054688 378.30566,21.4550796 379.161133,21.1542969 L379.161133,22.6777344 C378.458004,22.9707046 377.672856,23.1171875 376.805664,23.1171875 C375.559564,23.1171875 374.606449,22.7392616 373.946289,21.9833984 C373.28613,21.2275353 372.956055,20.1425852 372.956055,18.7285156 C372.956055,17.8378862 373.118162,17.0576205 373.442383,16.3876953 C373.766603,15.7177701 374.232419,15.2041033 374.839844,14.8466797 C375.447269,14.489256 376.159176,14.3105469 376.975586,14.3105469 C377.807621,14.3105469 378.64355,14.5117167 379.483398,14.9140625 L378.897461,16.390625 C378.577147,16.2382805 378.254884,16.1054693 377.930664,15.9921875 C377.606444,15.8789057 377.288088,15.8222656 376.975586,15.8222656 Z M388.875977,18.0546875 L388.600586,19.4140625 L390.112305,19.4140625 L390.112305,20.6210938 L388.37207,20.6210938 L387.920898,23 L386.631836,23 L387.088867,20.6210938 L385.952148,20.6210938 L385.506836,23 L384.24707,23 L384.680664,20.6210938 L383.286133,20.6210938 L383.286133,19.4140625 L384.90918,19.4140625 L385.18457,18.0546875 L383.708008,18.0546875 L383.708008,16.8300781 L385.401367,16.8300781 L385.852539,14.4453125 L387.135742,14.4453125 L386.68457,16.8300781 L387.844727,16.8300781 L388.301758,14.4453125 L389.561523,14.4453125 L389.104492,16.8300781 L390.510742,16.8300781 L390.510742,18.0546875 L388.875977,18.0546875 Z M386.180664,19.4140625 L387.329102,19.4140625 L387.604492,18.0546875 L386.456055,18.0546875 L386.180664,19.4140625 Z M397.243164,23 L391.254883,23 L391.254883,21.7402344 L393.405273,19.5664062 C394.041995,18.9140592 394.458007,18.4619153 394.65332,18.2099609 C394.848634,17.9580066 394.989257,17.7246104 395.075195,17.5097656 C395.161133,17.2949208 395.204102,17.0722668 395.204102,16.8417969 C395.204102,16.4980452 395.109376,16.2421883 394.919922,16.0742188 C394.730468,15.9062492 394.477541,15.8222656 394.161133,15.8222656 C393.8291,15.8222656 393.506838,15.8984367 393.194336,16.0507812 C392.881834,16.2031258 392.555666,16.4199205 392.21582,16.7011719 L391.231445,15.5351562 C391.653322,15.1757795 392.002928,14.9218757 392.280273,14.7734375 C392.557619,14.6249993 392.86035,14.5107426 393.188477,14.4306641 C393.516603,14.3505855 393.883787,14.3105469 394.290039,14.3105469 C394.825198,14.3105469 395.29785,14.4082021 395.708008,14.6035156 C396.118166,14.7988291 396.436522,15.0722639 396.663086,15.4238281 C396.88965,15.7753924 397.00293,16.1777321 397.00293,16.6308594 C397.00293,17.0253926 396.933594,17.3955061 396.794922,17.7412109 C396.656249,18.0869158 396.441408,18.4414044 396.150391,18.8046875 C395.859374,19.1679706 395.346683,19.6855435 394.612305,20.3574219 L393.510742,21.3945312 L393.510742,21.4765625 L397.243164,21.4765625 L397.243164,23 Z" id="DC-#2-Copy" fill="#595959"></path>
            <path d="M88,55 L88,50 L88,50 C88,44.4771525 92.4771525,40 98,40 L429.998665,40 L429.998665,40.0009562 C435.521139,40.0009562 439.998136,44.477526 439.998665,50 L440,53.9673089" id="Path-13" stroke="#FF2E2F" stroke-linecap="round"></path>
            <g id="Arrow_red" transform="translate(155.000000, 74.000000) scale(-1, 1) translate(-155.000000, -74.000000) translate(152.000000, 69.500000)" stroke="#FF2E2F" fill="#FF2E2F" stroke-linejoin="round">
                <polygon id="Path-14-Copy-14" transform="translate(3.000000, 4.500000) rotate(-270.000000) translate(-3.000000, -4.500000) " points="-1 7 3 2 7 7"></polygon>
            </g>
            <g id="Arrow_red" transform="translate(440.000000, 53.000000) rotate(-270.000000) translate(-440.000000, -53.000000) translate(437.000000, 48.500000)" stroke="#FF2E2F" fill="#FF2E2F" stroke-linejoin="round">
                <polygon id="Path-14-Copy-14" transform="translate(3.000000, 4.500000) rotate(-270.000000) translate(-3.000000, -4.500000) " points="-1 7 3 2 7 7"></polygon>
            </g>
            <g id="Arrow_red" transform="translate(299.000000, 74.000000) scale(-1, 1) translate(-299.000000, -74.000000) translate(296.000000, 69.500000)" stroke="#FF2E2F" fill="#FF2E2F" stroke-linejoin="round">
                <polygon id="Path-14-Copy-14" transform="translate(3.000000, 4.500000) rotate(-270.000000) translate(-3.000000, -4.500000) " points="-1 7 3 2 7 7"></polygon>
            </g>
        </g>
    </g>
</svg>