<?xml version="1.0" encoding="UTF-8"?>
<svg width="633px" height="209px" viewBox="0 0 633 209" version="1.1" xmlns="http://www.w3.org/2000/svg" xmlns:xlink="http://www.w3.org/1999/xlink">
    <!-- Generator: Sketch 47.1 (45422) - http://www.bohemiancoding.com/sketch -->
    <title>cascade-to-ring copy</title>
    <desc>Created with Sketch.</desc>
    <defs></defs>
    <g id="Page-1" stroke="none" stroke-width="1" fill="none" fill-rule="evenodd">
        <g id="cascade-to-ring-copy">
            <path d="M371,110 L371,173 C371,175.209139 369.209139,177 367,177 L59,177 C56.790861,177 55,175.209139 55,173 L55,39 C55,36.790861 56.790861,35 59,35 L367,35 C369.209139,35 371,36.790861 371,39 C371,55.1727714 371,64.8667395 371,70.0819043 M371,76 C371,82.0005773 371,91.3339106 371,104" id="Rec1" stroke="#D7D7D7" stroke-linecap="round"></path>
            <path d="M406,103.998927 L406,76.1072447 M406,70 L406,39 C406,36.790861 407.790861,35 410,35 L575,35 C577.209139,35 579,36.790861 579,39 L579,173 C579,175.209139 577.209139,177 575,177 L410,177 C407.790861,177 406,175.209139 406,173 L406,110" id="Rec2" stroke="#D7D7D7" stroke-linecap="round"></path>
            <path d="M209,107 L221,107" id="Path-5-Copy-12" stroke="#FF2E2F" stroke-linecap="round"></path>
            <path d="M352,107 L429,107" id="Path-5-Copy-13" stroke="#FF2E2F" stroke-linecap="round"></path>
            <g id="Round_block-Copy-14" transform="translate(223.000000, 91.000000)">
                <rect id="Rectangle-Copy-14" fill="#E1E1E1" x="0" y="0" width="124" height="32" rx="14"></rect>
                <path d="M31.0244141,20 L29.6474609,20 L29.6474609,13.5195312 L31.0244141,13.5195312 L31.0244141,20 Z M29.5654297,11.8027344 C29.5654297,11.5566394 29.6328118,11.3671882 29.7675781,11.234375 C29.9023444,11.1015618 30.0947253,11.0351562 30.3447266,11.0351562 C30.5869153,11.0351562 30.77539,11.1015618 30.9101562,11.234375 C31.0449225,11.3671882 31.1123047,11.5566394 31.1123047,11.8027344 C31.1123047,12.0371105 31.0449225,12.221679 30.9101562,12.3564453 C30.77539,12.4912116 30.5869153,12.5585938 30.3447266,12.5585938 C30.0947253,12.5585938 29.9023444,12.4912116 29.7675781,12.3564453 C29.6328118,12.221679 29.5654297,12.0371105 29.5654297,11.8027344 Z M38.6943359,20 L37.3115234,20 L37.3115234,16.015625 C37.3115234,15.5156225 37.2109385,15.1425794 37.0097656,14.8964844 C36.8085927,14.6503894 36.48926,14.5273438 36.0517578,14.5273438 C35.4697237,14.5273438 35.0439467,14.699217 34.7744141,15.0429688 C34.5048815,15.3867205 34.3701172,15.9628866 34.3701172,16.7714844 L34.3701172,20 L32.9931641,20 L32.9931641,13.5195312 L34.0712891,13.5195312 L34.2646484,14.3691406 L34.3349609,14.3691406 C34.5302744,14.0605453 34.8076154,13.8222665 35.1669922,13.6542969 C35.526369,13.4863273 35.9248025,13.4023438 36.3623047,13.4023438 C37.917,13.4023438 38.6943359,14.1933515 38.6943359,15.7753906 L38.6943359,20 Z M44.9638672,18.1542969 C44.9638672,18.7871125 44.7334007,19.2724592 44.2724609,19.6103516 C43.8115211,19.9482439 43.1513715,20.1171875 42.2919922,20.1171875 C41.4287066,20.1171875 40.7353542,19.9863294 40.2119141,19.7246094 L40.2119141,18.5351562 C40.9736366,18.8867205 41.6826139,19.0625 42.3388672,19.0625 C43.1865277,19.0625 43.6103516,18.8066432 43.6103516,18.2949219 C43.6103516,18.1308586 43.563477,17.9941412 43.4697266,17.8847656 C43.3759761,17.7753901 43.2216808,17.66211 43.0068359,17.5449219 C42.7919911,17.4277338 42.493166,17.2949226 42.1103516,17.1464844 C41.3642541,16.8574204 40.8593763,16.5683608 40.5957031,16.2792969 C40.3320299,15.9902329 40.2001953,15.6152367 40.2001953,15.1542969 C40.2001953,14.5996066 40.4238259,14.1689468 40.8710938,13.8623047 C41.3183616,13.5556625 41.926754,13.4023438 42.6962891,13.4023438 C43.4580116,13.4023438 44.1787075,13.5566391 44.8583984,13.8652344 L44.4130859,14.9023438 C43.7138637,14.6132798 43.1259789,14.46875 42.6494141,14.46875 C41.9228479,14.46875 41.5595703,14.6757792 41.5595703,15.0898438 C41.5595703,15.2929698 41.6542959,15.464843 41.84375,15.6054688 C42.0332041,15.7460945 42.4462859,15.9394519 43.0830078,16.1855469 C43.6181667,16.3925792 44.0068347,16.5820304 44.2490234,16.7539062 C44.4912121,16.9257821 44.6708979,17.1240223 44.7880859,17.3486328 C44.905274,17.5732433 44.9638672,17.8417953 44.9638672,18.1542969 Z M48.8662109,19.0039062 C49.2021501,19.0039062 49.5380843,18.9511724 49.8740234,18.8457031 L49.8740234,19.8828125 C49.7216789,19.9492191 49.5253918,20.0048826 49.2851562,20.0498047 C49.0449207,20.0947268 48.7958997,20.1171875 48.5380859,20.1171875 C47.2333919,20.1171875 46.5810547,19.4296944 46.5810547,18.0546875 L46.5810547,14.5625 L45.6962891,14.5625 L45.6962891,13.953125 L46.6455078,13.4492188 L47.1142578,12.078125 L47.9638672,12.078125 L47.9638672,13.5195312 L49.8095703,13.5195312 L49.8095703,14.5625 L47.9638672,14.5625 L47.9638672,18.03125 C47.9638672,18.3632829 48.0468742,18.6083976 48.2128906,18.7666016 C48.3789071,18.9248055 48.5966783,19.0039062 48.8662109,19.0039062 Z M55.2236328,20 L54.9482422,19.0976562 L54.9013672,19.0976562 C54.5888656,19.4921895 54.2744156,19.7607415 53.9580078,19.9033203 C53.6416,20.0458992 53.235354,20.1171875 52.7392578,20.1171875 C52.1025359,20.1171875 51.6054705,19.9453142 51.2480469,19.6015625 C50.8906232,19.2578108 50.7119141,18.7714875 50.7119141,18.1425781 C50.7119141,17.474606 50.9599585,16.9707048 51.4560547,16.6308594 C51.9521509,16.2910139 52.7080027,16.1054689 53.7236328,16.0742188 L54.8427734,16.0390625 L54.8427734,15.6933594 C54.8427734,15.2792948 54.7460947,14.9697276 54.5527344,14.7646484 C54.359374,14.5595693 54.0595723,14.4570312 53.6533203,14.4570312 C53.3212874,14.4570312 53.0029312,14.5058589 52.6982422,14.6035156 C52.3935532,14.7011724 52.1005873,14.8164056 51.8193359,14.9492188 L51.3740234,13.9648438 C51.7255877,13.7812491 52.1103495,13.641602 52.5283203,13.5458984 C52.9462912,13.4501948 53.3408185,13.4023438 53.7119141,13.4023438 C54.5361369,13.4023438 55.158201,13.5820295 55.578125,13.9414062 C55.998049,14.300783 56.2080078,14.8652305 56.2080078,15.6347656 L56.2080078,20 L55.2236328,20 Z M53.1728516,19.0625 C53.6728541,19.0625 54.0742172,18.922853 54.3769531,18.6435547 C54.679689,18.3642564 54.8310547,17.9726588 54.8310547,17.46875 L54.8310547,16.90625 L53.9990234,16.9414062 C53.3505827,16.9648439 52.8789077,17.0732412 52.5839844,17.2666016 C52.289061,17.4599619 52.1416016,17.7558574 52.1416016,18.1542969 C52.1416016,18.4433608 52.2275382,18.6669914 52.3994141,18.8251953 C52.5712899,18.9833992 52.8290998,19.0625 53.1728516,19.0625 Z M63.8310547,20 L62.4482422,20 L62.4482422,16.015625 C62.4482422,15.5156225 62.3476573,15.1425794 62.1464844,14.8964844 C61.9453115,14.6503894 61.6259787,14.5273438 61.1884766,14.5273438 C60.6064424,14.5273438 60.1806654,14.699217 59.9111328,15.0429688 C59.6416002,15.3867205 59.5068359,15.9628866 59.5068359,16.7714844 L59.5068359,20 L58.1298828,20 L58.1298828,13.5195312 L59.2080078,13.5195312 L59.4013672,14.3691406 L59.4716797,14.3691406 C59.6669932,14.0605453 59.9443341,13.8222665 60.3037109,13.6542969 C60.6630877,13.4863273 61.0615212,13.4023438 61.4990234,13.4023438 C63.0537187,13.4023438 63.8310547,14.1933515 63.8310547,15.7753906 L63.8310547,20 Z M68.3603516,20.1171875 C67.3798779,20.1171875 66.6347682,19.8310575 66.125,19.2587891 C65.6152318,18.6865206 65.3603516,17.8652397 65.3603516,16.7949219 C65.3603516,15.7050727 65.6269505,14.8671904 66.1601562,14.28125 C66.693362,13.6953096 67.4638621,13.4023438 68.4716797,13.4023438 C69.1552769,13.4023438 69.7705051,13.5292956 70.3173828,13.7832031 L69.9013672,14.890625 C69.319333,14.6640614 68.8388691,14.5507812 68.4599609,14.5507812 C67.3388616,14.5507812 66.7783203,15.2949144 66.7783203,16.7832031 C66.7783203,17.5097693 66.9179674,18.0556622 67.1972656,18.4208984 C67.4765639,18.7861346 67.8857395,18.96875 68.4248047,18.96875 C69.038089,18.96875 69.6181613,18.8164078 70.1650391,18.5117188 L70.1650391,19.7128906 C69.9189441,19.8574226 69.6562514,19.9609372 69.3769531,20.0234375 C69.0976549,20.0859378 68.7587911,20.1171875 68.3603516,20.1171875 Z M74.5185547,20.1171875 C73.5107371,20.1171875 72.7226591,19.8232451 72.1542969,19.2353516 C71.5859347,18.647458 71.3017578,17.8378958 71.3017578,16.8066406 C71.3017578,15.7480416 71.5654271,14.9160187 72.0927734,14.3105469 C72.6201198,13.7050751 73.344722,13.4023438 74.2666016,13.4023438 C75.1220746,13.4023438 75.7978491,13.6621068 76.2939453,14.1816406 C76.7900415,14.7011745 77.0380859,15.4160111 77.0380859,16.3261719 L77.0380859,17.0703125 L72.7197266,17.0703125 C72.7392579,17.6992219 72.9091781,18.1826155 73.2294922,18.5205078 C73.5498063,18.8584001 74.0009737,19.0273438 74.5830078,19.0273438 C74.9658222,19.0273438 75.322264,18.9912113 75.6523438,18.9189453 C75.9824235,18.8466793 76.3369122,18.7265633 76.7158203,18.5585938 L76.7158203,19.6777344 C76.3798811,19.8378914 76.0400408,19.9511715 75.6962891,20.0175781 C75.3525373,20.0839847 74.9599631,20.1171875 74.5185547,20.1171875 Z M74.2666016,14.4453125 C73.8290994,14.4453125 73.4785169,14.583983 73.2148438,14.8613281 C72.9511706,15.1386733 72.7939456,15.5429661 72.7431641,16.0742188 L75.6845703,16.0742188 C75.6767578,15.5390598 75.5478528,15.1337904 75.2978516,14.8583984 C75.0478503,14.5830064 74.7041038,14.4453125 74.2666016,14.4453125 Z M86.5302734,14.9023438 L86.2080078,16.5664062 L87.7900391,16.5664062 L87.7900391,17.5507812 L86.0146484,17.5507812 L85.5458984,20 L84.5029297,20 L84.9716797,17.5507812 L83.5185547,17.5507812 L83.0498047,20 L82.0302734,20 L82.4755859,17.5507812 L81.0107422,17.5507812 L81.0107422,16.5664062 L82.6689453,16.5664062 L83.0029297,14.9023438 L81.4560547,14.9023438 L81.4560547,13.9179688 L83.1728516,13.9179688 L83.6416016,11.4453125 L84.6962891,11.4453125 L84.2275391,13.9179688 L85.7041016,13.9179688 L86.1728516,11.4453125 L87.1923828,11.4453125 L86.7236328,13.9179688 L88.2001953,13.9179688 L88.2001953,14.9023438 L86.5302734,14.9023438 Z M83.7001953,16.5664062 L85.1650391,16.5664062 L85.4990234,14.9023438 L84.0341797,14.9023438 L83.7001953,16.5664062 Z M94.8212891,20 L89.0146484,20 L89.0146484,18.9570312 L91.2236328,16.7363281 C91.8759798,16.068356 92.3085927,15.594728 92.5214844,15.3154297 C92.7343761,15.0361314 92.8896479,14.7734387 92.9873047,14.5273438 C93.0849614,14.2812488 93.1337891,14.0175795 93.1337891,13.7363281 C93.1337891,13.3496074 93.0175793,13.044923 92.7851562,12.8222656 C92.5527332,12.5996083 92.2314474,12.4882812 91.8212891,12.4882812 C91.4931624,12.4882812 91.1757828,12.5488275 90.8691406,12.6699219 C90.5624985,12.7910162 90.2080098,13.009764 89.8056641,13.3261719 L89.0615234,12.4179688 C89.5380883,12.015623 90.0009743,11.7304696 90.4501953,11.5625 C90.8994163,11.3945304 91.3779271,11.3105469 91.8857422,11.3105469 C92.6826212,11.3105469 93.3212867,11.5185526 93.8017578,11.9345703 C94.282229,12.350588 94.5224609,12.9101527 94.5224609,13.6132812 C94.5224609,14.0000019 94.4531257,14.3671858 94.3144531,14.7148438 C94.1757806,15.0625017 93.9628921,15.4208966 93.6757812,15.7900391 C93.3886704,16.1591815 92.9111362,16.6582 92.2431641,17.2871094 L90.7548828,18.7285156 L90.7548828,18.7871094 L94.8212891,18.7871094 L94.8212891,20 Z" id="text" fill="#1F1E1E"></path>
            </g>
            <g id="Round_block-Copy-16" transform="translate(79.000000, 91.000000)">
                <rect id="Rectangle-Copy-14" fill="#E1E1E1" x="0" y="0" width="124" height="32" rx="14"></rect>
                <path d="M31.0244141,20 L29.6474609,20 L29.6474609,13.5195312 L31.0244141,13.5195312 L31.0244141,20 Z M29.5654297,11.8027344 C29.5654297,11.5566394 29.6328118,11.3671882 29.7675781,11.234375 C29.9023444,11.1015618 30.0947253,11.0351562 30.3447266,11.0351562 C30.5869153,11.0351562 30.77539,11.1015618 30.9101562,11.234375 C31.0449225,11.3671882 31.1123047,11.5566394 31.1123047,11.8027344 C31.1123047,12.0371105 31.0449225,12.221679 30.9101562,12.3564453 C30.77539,12.4912116 30.5869153,12.5585938 30.3447266,12.5585938 C30.0947253,12.5585938 29.9023444,12.4912116 29.7675781,12.3564453 C29.6328118,12.221679 29.5654297,12.0371105 29.5654297,11.8027344 Z M38.6943359,20 L37.3115234,20 L37.3115234,16.015625 C37.3115234,15.5156225 37.2109385,15.1425794 37.0097656,14.8964844 C36.8085927,14.6503894 36.48926,14.5273438 36.0517578,14.5273438 C35.4697237,14.5273438 35.0439467,14.699217 34.7744141,15.0429688 C34.5048815,15.3867205 34.3701172,15.9628866 34.3701172,16.7714844 L34.3701172,20 L32.9931641,20 L32.9931641,13.5195312 L34.0712891,13.5195312 L34.2646484,14.3691406 L34.3349609,14.3691406 C34.5302744,14.0605453 34.8076154,13.8222665 35.1669922,13.6542969 C35.526369,13.4863273 35.9248025,13.4023438 36.3623047,13.4023438 C37.917,13.4023438 38.6943359,14.1933515 38.6943359,15.7753906 L38.6943359,20 Z M44.9638672,18.1542969 C44.9638672,18.7871125 44.7334007,19.2724592 44.2724609,19.6103516 C43.8115211,19.9482439 43.1513715,20.1171875 42.2919922,20.1171875 C41.4287066,20.1171875 40.7353542,19.9863294 40.2119141,19.7246094 L40.2119141,18.5351562 C40.9736366,18.8867205 41.6826139,19.0625 42.3388672,19.0625 C43.1865277,19.0625 43.6103516,18.8066432 43.6103516,18.2949219 C43.6103516,18.1308586 43.563477,17.9941412 43.4697266,17.8847656 C43.3759761,17.7753901 43.2216808,17.66211 43.0068359,17.5449219 C42.7919911,17.4277338 42.493166,17.2949226 42.1103516,17.1464844 C41.3642541,16.8574204 40.8593763,16.5683608 40.5957031,16.2792969 C40.3320299,15.9902329 40.2001953,15.6152367 40.2001953,15.1542969 C40.2001953,14.5996066 40.4238259,14.1689468 40.8710938,13.8623047 C41.3183616,13.5556625 41.926754,13.4023438 42.6962891,13.4023438 C43.4580116,13.4023438 44.1787075,13.5566391 44.8583984,13.8652344 L44.4130859,14.9023438 C43.7138637,14.6132798 43.1259789,14.46875 42.6494141,14.46875 C41.9228479,14.46875 41.5595703,14.6757792 41.5595703,15.0898438 C41.5595703,15.2929698 41.6542959,15.464843 41.84375,15.6054688 C42.0332041,15.7460945 42.4462859,15.9394519 43.0830078,16.1855469 C43.6181667,16.3925792 44.0068347,16.5820304 44.2490234,16.7539062 C44.4912121,16.9257821 44.6708979,17.1240223 44.7880859,17.3486328 C44.905274,17.5732433 44.9638672,17.8417953 44.9638672,18.1542969 Z M48.8662109,19.0039062 C49.2021501,19.0039062 49.5380843,18.9511724 49.8740234,18.8457031 L49.8740234,19.8828125 C49.7216789,19.9492191 49.5253918,20.0048826 49.2851562,20.0498047 C49.0449207,20.0947268 48.7958997,20.1171875 48.5380859,20.1171875 C47.2333919,20.1171875 46.5810547,19.4296944 46.5810547,18.0546875 L46.5810547,14.5625 L45.6962891,14.5625 L45.6962891,13.953125 L46.6455078,13.4492188 L47.1142578,12.078125 L47.9638672,12.078125 L47.9638672,13.5195312 L49.8095703,13.5195312 L49.8095703,14.5625 L47.9638672,14.5625 L47.9638672,18.03125 C47.9638672,18.3632829 48.0468742,18.6083976 48.2128906,18.7666016 C48.3789071,18.9248055 48.5966783,19.0039062 48.8662109,19.0039062 Z M55.2236328,20 L54.9482422,19.0976562 L54.9013672,19.0976562 C54.5888656,19.4921895 54.2744156,19.7607415 53.9580078,19.9033203 C53.6416,20.0458992 53.235354,20.1171875 52.7392578,20.1171875 C52.1025359,20.1171875 51.6054705,19.9453142 51.2480469,19.6015625 C50.8906232,19.2578108 50.7119141,18.7714875 50.7119141,18.1425781 C50.7119141,17.474606 50.9599585,16.9707048 51.4560547,16.6308594 C51.9521509,16.2910139 52.7080027,16.1054689 53.7236328,16.0742188 L54.8427734,16.0390625 L54.8427734,15.6933594 C54.8427734,15.2792948 54.7460947,14.9697276 54.5527344,14.7646484 C54.359374,14.5595693 54.0595723,14.4570312 53.6533203,14.4570312 C53.3212874,14.4570312 53.0029312,14.5058589 52.6982422,14.6035156 C52.3935532,14.7011724 52.1005873,14.8164056 51.8193359,14.9492188 L51.3740234,13.9648438 C51.7255877,13.7812491 52.1103495,13.641602 52.5283203,13.5458984 C52.9462912,13.4501948 53.3408185,13.4023438 53.7119141,13.4023438 C54.5361369,13.4023438 55.158201,13.5820295 55.578125,13.9414062 C55.998049,14.300783 56.2080078,14.8652305 56.2080078,15.6347656 L56.2080078,20 L55.2236328,20 Z M53.1728516,19.0625 C53.6728541,19.0625 54.0742172,18.922853 54.3769531,18.6435547 C54.679689,18.3642564 54.8310547,17.9726588 54.8310547,17.46875 L54.8310547,16.90625 L53.9990234,16.9414062 C53.3505827,16.9648439 52.8789077,17.0732412 52.5839844,17.2666016 C52.289061,17.4599619 52.1416016,17.7558574 52.1416016,18.1542969 C52.1416016,18.4433608 52.2275382,18.6669914 52.3994141,18.8251953 C52.5712899,18.9833992 52.8290998,19.0625 53.1728516,19.0625 Z M63.8310547,20 L62.4482422,20 L62.4482422,16.015625 C62.4482422,15.5156225 62.3476573,15.1425794 62.1464844,14.8964844 C61.9453115,14.6503894 61.6259787,14.5273438 61.1884766,14.5273438 C60.6064424,14.5273438 60.1806654,14.699217 59.9111328,15.0429688 C59.6416002,15.3867205 59.5068359,15.9628866 59.5068359,16.7714844 L59.5068359,20 L58.1298828,20 L58.1298828,13.5195312 L59.2080078,13.5195312 L59.4013672,14.3691406 L59.4716797,14.3691406 C59.6669932,14.0605453 59.9443341,13.8222665 60.3037109,13.6542969 C60.6630877,13.4863273 61.0615212,13.4023438 61.4990234,13.4023438 C63.0537187,13.4023438 63.8310547,14.1933515 63.8310547,15.7753906 L63.8310547,20 Z M68.3603516,20.1171875 C67.3798779,20.1171875 66.6347682,19.8310575 66.125,19.2587891 C65.6152318,18.6865206 65.3603516,17.8652397 65.3603516,16.7949219 C65.3603516,15.7050727 65.6269505,14.8671904 66.1601562,14.28125 C66.693362,13.6953096 67.4638621,13.4023438 68.4716797,13.4023438 C69.1552769,13.4023438 69.7705051,13.5292956 70.3173828,13.7832031 L69.9013672,14.890625 C69.319333,14.6640614 68.8388691,14.5507812 68.4599609,14.5507812 C67.3388616,14.5507812 66.7783203,15.2949144 66.7783203,16.7832031 C66.7783203,17.5097693 66.9179674,18.0556622 67.1972656,18.4208984 C67.4765639,18.7861346 67.8857395,18.96875 68.4248047,18.96875 C69.038089,18.96875 69.6181613,18.8164078 70.1650391,18.5117188 L70.1650391,19.7128906 C69.9189441,19.8574226 69.6562514,19.9609372 69.3769531,20.0234375 C69.0976549,20.0859378 68.7587911,20.1171875 68.3603516,20.1171875 Z M74.5185547,20.1171875 C73.5107371,20.1171875 72.7226591,19.8232451 72.1542969,19.2353516 C71.5859347,18.647458 71.3017578,17.8378958 71.3017578,16.8066406 C71.3017578,15.7480416 71.5654271,14.9160187 72.0927734,14.3105469 C72.6201198,13.7050751 73.344722,13.4023438 74.2666016,13.4023438 C75.1220746,13.4023438 75.7978491,13.6621068 76.2939453,14.1816406 C76.7900415,14.7011745 77.0380859,15.4160111 77.0380859,16.3261719 L77.0380859,17.0703125 L72.7197266,17.0703125 C72.7392579,17.6992219 72.9091781,18.1826155 73.2294922,18.5205078 C73.5498063,18.8584001 74.0009737,19.0273438 74.5830078,19.0273438 C74.9658222,19.0273438 75.322264,18.9912113 75.6523438,18.9189453 C75.9824235,18.8466793 76.3369122,18.7265633 76.7158203,18.5585938 L76.7158203,19.6777344 C76.3798811,19.8378914 76.0400408,19.9511715 75.6962891,20.0175781 C75.3525373,20.0839847 74.9599631,20.1171875 74.5185547,20.1171875 Z M74.2666016,14.4453125 C73.8290994,14.4453125 73.4785169,14.583983 73.2148438,14.8613281 C72.9511706,15.1386733 72.7939456,15.5429661 72.7431641,16.0742188 L75.6845703,16.0742188 C75.6767578,15.5390598 75.5478528,15.1337904 75.2978516,14.8583984 C75.0478503,14.5830064 74.7041038,14.4453125 74.2666016,14.4453125 Z M86.5302734,14.9023438 L86.2080078,16.5664062 L87.7900391,16.5664062 L87.7900391,17.5507812 L86.0146484,17.5507812 L85.5458984,20 L84.5029297,20 L84.9716797,17.5507812 L83.5185547,17.5507812 L83.0498047,20 L82.0302734,20 L82.4755859,17.5507812 L81.0107422,17.5507812 L81.0107422,16.5664062 L82.6689453,16.5664062 L83.0029297,14.9023438 L81.4560547,14.9023438 L81.4560547,13.9179688 L83.1728516,13.9179688 L83.6416016,11.4453125 L84.6962891,11.4453125 L84.2275391,13.9179688 L85.7041016,13.9179688 L86.1728516,11.4453125 L87.1923828,11.4453125 L86.7236328,13.9179688 L88.2001953,13.9179688 L88.2001953,14.9023438 L86.5302734,14.9023438 Z M83.7001953,16.5664062 L85.1650391,16.5664062 L85.4990234,14.9023438 L84.0341797,14.9023438 L83.7001953,16.5664062 Z M93.0576172,20 L91.6806641,20 L91.6806641,14.46875 C91.6806641,13.8085904 91.6962889,13.2851582 91.7275391,12.8984375 C91.6376949,12.992188 91.5273444,13.0957026 91.3964844,13.2089844 C91.2656243,13.3222662 90.8271522,13.6816376 90.0810547,14.2871094 L89.3896484,13.4140625 L91.9091797,11.4335938 L93.0576172,11.4335938 L93.0576172,20 Z" id="text" fill="#1F1E1E"></path>
            </g>
            <g id="Round_block-Copy-17" transform="translate(431.000000, 91.000000)">
                <rect id="Rectangle-Copy-14" fill="#E1E1E1" x="0" y="0" width="124" height="32" rx="14"></rect>
                <path d="M31.0244141,20 L29.6474609,20 L29.6474609,13.5195312 L31.0244141,13.5195312 L31.0244141,20 Z M29.5654297,11.8027344 C29.5654297,11.5566394 29.6328118,11.3671882 29.7675781,11.234375 C29.9023444,11.1015618 30.0947253,11.0351562 30.3447266,11.0351562 C30.5869153,11.0351562 30.77539,11.1015618 30.9101562,11.234375 C31.0449225,11.3671882 31.1123047,11.5566394 31.1123047,11.8027344 C31.1123047,12.0371105 31.0449225,12.221679 30.9101562,12.3564453 C30.77539,12.4912116 30.5869153,12.5585938 30.3447266,12.5585938 C30.0947253,12.5585938 29.9023444,12.4912116 29.7675781,12.3564453 C29.6328118,12.221679 29.5654297,12.0371105 29.5654297,11.8027344 Z M38.6943359,20 L37.3115234,20 L37.3115234,16.015625 C37.3115234,15.5156225 37.2109385,15.1425794 37.0097656,14.8964844 C36.8085927,14.6503894 36.48926,14.5273438 36.0517578,14.5273438 C35.4697237,14.5273438 35.0439467,14.699217 34.7744141,15.0429688 C34.5048815,15.3867205 34.3701172,15.9628866 34.3701172,16.7714844 L34.3701172,20 L32.9931641,20 L32.9931641,13.5195312 L34.0712891,13.5195312 L34.2646484,14.3691406 L34.3349609,14.3691406 C34.5302744,14.0605453 34.8076154,13.8222665 35.1669922,13.6542969 C35.526369,13.4863273 35.9248025,13.4023438 36.3623047,13.4023438 C37.917,13.4023438 38.6943359,14.1933515 38.6943359,15.7753906 L38.6943359,20 Z M44.9638672,18.1542969 C44.9638672,18.7871125 44.7334007,19.2724592 44.2724609,19.6103516 C43.8115211,19.9482439 43.1513715,20.1171875 42.2919922,20.1171875 C41.4287066,20.1171875 40.7353542,19.9863294 40.2119141,19.7246094 L40.2119141,18.5351562 C40.9736366,18.8867205 41.6826139,19.0625 42.3388672,19.0625 C43.1865277,19.0625 43.6103516,18.8066432 43.6103516,18.2949219 C43.6103516,18.1308586 43.563477,17.9941412 43.4697266,17.8847656 C43.3759761,17.7753901 43.2216808,17.66211 43.0068359,17.5449219 C42.7919911,17.4277338 42.493166,17.2949226 42.1103516,17.1464844 C41.3642541,16.8574204 40.8593763,16.5683608 40.5957031,16.2792969 C40.3320299,15.9902329 40.2001953,15.6152367 40.2001953,15.1542969 C40.2001953,14.5996066 40.4238259,14.1689468 40.8710938,13.8623047 C41.3183616,13.5556625 41.926754,13.4023438 42.6962891,13.4023438 C43.4580116,13.4023438 44.1787075,13.5566391 44.8583984,13.8652344 L44.4130859,14.9023438 C43.7138637,14.6132798 43.1259789,14.46875 42.6494141,14.46875 C41.9228479,14.46875 41.5595703,14.6757792 41.5595703,15.0898438 C41.5595703,15.2929698 41.6542959,15.464843 41.84375,15.6054688 C42.0332041,15.7460945 42.4462859,15.9394519 43.0830078,16.1855469 C43.6181667,16.3925792 44.0068347,16.5820304 44.2490234,16.7539062 C44.4912121,16.9257821 44.6708979,17.1240223 44.7880859,17.3486328 C44.905274,17.5732433 44.9638672,17.8417953 44.9638672,18.1542969 Z M48.8662109,19.0039062 C49.2021501,19.0039062 49.5380843,18.9511724 49.8740234,18.8457031 L49.8740234,19.8828125 C49.7216789,19.9492191 49.5253918,20.0048826 49.2851562,20.0498047 C49.0449207,20.0947268 48.7958997,20.1171875 48.5380859,20.1171875 C47.2333919,20.1171875 46.5810547,19.4296944 46.5810547,18.0546875 L46.5810547,14.5625 L45.6962891,14.5625 L45.6962891,13.953125 L46.6455078,13.4492188 L47.1142578,12.078125 L47.9638672,12.078125 L47.9638672,13.5195312 L49.8095703,13.5195312 L49.8095703,14.5625 L47.9638672,14.5625 L47.9638672,18.03125 C47.9638672,18.3632829 48.0468742,18.6083976 48.2128906,18.7666016 C48.3789071,18.9248055 48.5966783,19.0039062 48.8662109,19.0039062 Z M55.2236328,20 L54.9482422,19.0976562 L54.9013672,19.0976562 C54.5888656,19.4921895 54.2744156,19.7607415 53.9580078,19.9033203 C53.6416,20.0458992 53.235354,20.1171875 52.7392578,20.1171875 C52.1025359,20.1171875 51.6054705,19.9453142 51.2480469,19.6015625 C50.8906232,19.2578108 50.7119141,18.7714875 50.7119141,18.1425781 C50.7119141,17.474606 50.9599585,16.9707048 51.4560547,16.6308594 C51.9521509,16.2910139 52.7080027,16.1054689 53.7236328,16.0742188 L54.8427734,16.0390625 L54.8427734,15.6933594 C54.8427734,15.2792948 54.7460947,14.9697276 54.5527344,14.7646484 C54.359374,14.5595693 54.0595723,14.4570312 53.6533203,14.4570312 C53.3212874,14.4570312 53.0029312,14.5058589 52.6982422,14.6035156 C52.3935532,14.7011724 52.1005873,14.8164056 51.8193359,14.9492188 L51.3740234,13.9648438 C51.7255877,13.7812491 52.1103495,13.641602 52.5283203,13.5458984 C52.9462912,13.4501948 53.3408185,13.4023438 53.7119141,13.4023438 C54.5361369,13.4023438 55.158201,13.5820295 55.578125,13.9414062 C55.998049,14.300783 56.2080078,14.8652305 56.2080078,15.6347656 L56.2080078,20 L55.2236328,20 Z M53.1728516,19.0625 C53.6728541,19.0625 54.0742172,18.922853 54.3769531,18.6435547 C54.679689,18.3642564 54.8310547,17.9726588 54.8310547,17.46875 L54.8310547,16.90625 L53.9990234,16.9414062 C53.3505827,16.9648439 52.8789077,17.0732412 52.5839844,17.2666016 C52.289061,17.4599619 52.1416016,17.7558574 52.1416016,18.1542969 C52.1416016,18.4433608 52.2275382,18.6669914 52.3994141,18.8251953 C52.5712899,18.9833992 52.8290998,19.0625 53.1728516,19.0625 Z M63.8310547,20 L62.4482422,20 L62.4482422,16.015625 C62.4482422,15.5156225 62.3476573,15.1425794 62.1464844,14.8964844 C61.9453115,14.6503894 61.6259787,14.5273438 61.1884766,14.5273438 C60.6064424,14.5273438 60.1806654,14.699217 59.9111328,15.0429688 C59.6416002,15.3867205 59.5068359,15.9628866 59.5068359,16.7714844 L59.5068359,20 L58.1298828,20 L58.1298828,13.5195312 L59.2080078,13.5195312 L59.4013672,14.3691406 L59.4716797,14.3691406 C59.6669932,14.0605453 59.9443341,13.8222665 60.3037109,13.6542969 C60.6630877,13.4863273 61.0615212,13.4023438 61.4990234,13.4023438 C63.0537187,13.4023438 63.8310547,14.1933515 63.8310547,15.7753906 L63.8310547,20 Z M68.3603516,20.1171875 C67.3798779,20.1171875 66.6347682,19.8310575 66.125,19.2587891 C65.6152318,18.6865206 65.3603516,17.8652397 65.3603516,16.7949219 C65.3603516,15.7050727 65.6269505,14.8671904 66.1601562,14.28125 C66.693362,13.6953096 67.4638621,13.4023438 68.4716797,13.4023438 C69.1552769,13.4023438 69.7705051,13.5292956 70.3173828,13.7832031 L69.9013672,14.890625 C69.319333,14.6640614 68.8388691,14.5507812 68.4599609,14.5507812 C67.3388616,14.5507812 66.7783203,15.2949144 66.7783203,16.7832031 C66.7783203,17.5097693 66.9179674,18.0556622 67.1972656,18.4208984 C67.4765639,18.7861346 67.8857395,18.96875 68.4248047,18.96875 C69.038089,18.96875 69.6181613,18.8164078 70.1650391,18.5117188 L70.1650391,19.7128906 C69.9189441,19.8574226 69.6562514,19.9609372 69.3769531,20.0234375 C69.0976549,20.0859378 68.7587911,20.1171875 68.3603516,20.1171875 Z M74.5185547,20.1171875 C73.5107371,20.1171875 72.7226591,19.8232451 72.1542969,19.2353516 C71.5859347,18.647458 71.3017578,17.8378958 71.3017578,16.8066406 C71.3017578,15.7480416 71.5654271,14.9160187 72.0927734,14.3105469 C72.6201198,13.7050751 73.344722,13.4023438 74.2666016,13.4023438 C75.1220746,13.4023438 75.7978491,13.6621068 76.2939453,14.1816406 C76.7900415,14.7011745 77.0380859,15.4160111 77.0380859,16.3261719 L77.0380859,17.0703125 L72.7197266,17.0703125 C72.7392579,17.6992219 72.9091781,18.1826155 73.2294922,18.5205078 C73.5498063,18.8584001 74.0009737,19.0273438 74.5830078,19.0273438 C74.9658222,19.0273438 75.322264,18.9912113 75.6523438,18.9189453 C75.9824235,18.8466793 76.3369122,18.7265633 76.7158203,18.5585938 L76.7158203,19.6777344 C76.3798811,19.8378914 76.0400408,19.9511715 75.6962891,20.0175781 C75.3525373,20.0839847 74.9599631,20.1171875 74.5185547,20.1171875 Z M74.2666016,14.4453125 C73.8290994,14.4453125 73.4785169,14.583983 73.2148438,14.8613281 C72.9511706,15.1386733 72.7939456,15.5429661 72.7431641,16.0742188 L75.6845703,16.0742188 C75.6767578,15.5390598 75.5478528,15.1337904 75.2978516,14.8583984 C75.0478503,14.5830064 74.7041038,14.4453125 74.2666016,14.4453125 Z M86.5302734,14.9023438 L86.2080078,16.5664062 L87.7900391,16.5664062 L87.7900391,17.5507812 L86.0146484,17.5507812 L85.5458984,20 L84.5029297,20 L84.9716797,17.5507812 L83.5185547,17.5507812 L83.0498047,20 L82.0302734,20 L82.4755859,17.5507812 L81.0107422,17.5507812 L81.0107422,16.5664062 L82.6689453,16.5664062 L83.0029297,14.9023438 L81.4560547,14.9023438 L81.4560547,13.9179688 L83.1728516,13.9179688 L83.6416016,11.4453125 L84.6962891,11.4453125 L84.2275391,13.9179688 L85.7041016,13.9179688 L86.1728516,11.4453125 L87.1923828,11.4453125 L86.7236328,13.9179688 L88.2001953,13.9179688 L88.2001953,14.9023438 L86.5302734,14.9023438 Z M83.7001953,16.5664062 L85.1650391,16.5664062 L85.4990234,14.9023438 L84.0341797,14.9023438 L83.7001953,16.5664062 Z M94.4990234,13.4023438 C94.4990234,13.9453152 94.3408219,14.3974591 94.0244141,14.7587891 C93.7080062,15.120119 93.2626982,15.3632806 92.6884766,15.4882812 L92.6884766,15.5351562 C93.37598,15.6210942 93.8915998,15.8349592 94.2353516,16.1767578 C94.5791033,16.5185564 94.7509766,16.9726534 94.7509766,17.5390625 C94.7509766,18.3632854 94.4599638,18.9990212 93.8779297,19.4462891 C93.2958955,19.8935569 92.4677788,20.1171875 91.3935547,20.1171875 C90.4443312,20.1171875 89.6435579,19.9628922 88.9912109,19.6542969 L88.9912109,18.4296875 C89.354494,18.6093759 89.7392558,18.7480464 90.1455078,18.8457031 C90.5517598,18.9433599 90.9423809,18.9921875 91.3173828,18.9921875 C91.9814486,18.9921875 92.4775374,18.8691419 92.8056641,18.6230469 C93.1337907,18.3769519 93.2978516,17.9960963 93.2978516,17.4804688 C93.2978516,17.0234352 93.1162128,16.6875011 92.7529297,16.4726562 C92.3896466,16.2578114 91.8193398,16.1503906 91.0419922,16.1503906 L90.2978516,16.1503906 L90.2978516,15.03125 L91.0537109,15.03125 C92.4209053,15.03125 93.1044922,14.5585985 93.1044922,13.6132812 C93.1044922,13.2460919 92.9853528,12.9628916 92.7470703,12.7636719 C92.5087879,12.5644521 92.1572289,12.4648438 91.6923828,12.4648438 C91.3681624,12.4648438 91.0556656,12.5107417 90.7548828,12.6025391 C90.4541001,12.6943364 90.0986349,12.8730455 89.6884766,13.1386719 L89.0146484,12.1777344 C89.7998086,11.5996065 90.7119089,11.3105469 91.7509766,11.3105469 C92.6142621,11.3105469 93.2880835,11.4960919 93.7724609,11.8671875 C94.2568384,12.2382831 94.4990234,12.7499967 94.4990234,13.4023438 Z" id="text" fill="#1F1E1E"></path>
            </g>
            <path d="M73.5615234,51.6347656 C73.5615234,53.0449289 73.1601603,54.1249963 72.3574219,54.875 C71.5546835,55.6250037 70.3955154,56 68.8798828,56 L66.4541016,56 L66.4541016,47.4335938 L69.1435547,47.4335938 C70.5419992,47.4335938 71.6279258,47.8027307 72.4013672,48.5410156 C73.1748086,49.2793006 73.5615234,50.3105403 73.5615234,51.6347656 Z M71.6748047,51.6816406 C71.6748047,49.8417877 70.8623128,48.921875 69.2373047,48.921875 L68.2705078,48.921875 L68.2705078,54.5 L69.0498047,54.5 C70.7998134,54.5 71.6748047,53.5605563 71.6748047,51.6816406 Z M78.9755859,48.8222656 C78.2919888,48.8222656 77.7626972,49.079099 77.3876953,49.5927734 C77.0126934,50.1064479 76.8251953,50.822261 76.8251953,51.7402344 C76.8251953,53.6504002 77.541985,54.6054688 78.9755859,54.6054688 C79.5771514,54.6054688 80.3056598,54.4550796 81.1611328,54.1542969 L81.1611328,55.6777344 C80.4580043,55.9707046 79.6728559,56.1171875 78.8056641,56.1171875 C77.5595641,56.1171875 76.6064486,55.7392616 75.9462891,54.9833984 C75.2861295,54.2275353 74.9560547,53.1425852 74.9560547,51.7285156 C74.9560547,50.8378862 75.1181624,50.0576205 75.4423828,49.3876953 C75.7666032,48.7177701 76.2324188,48.2041033 76.8398438,47.8466797 C77.4472687,47.489256 78.1591756,47.3105469 78.9755859,47.3105469 C79.8076213,47.3105469 80.6435505,47.5117167 81.4833984,47.9140625 L80.8974609,49.390625 C80.5771468,49.2382805 80.2548844,49.1054693 79.9306641,48.9921875 C79.6064437,48.8789057 79.2880875,48.8222656 78.9755859,48.8222656 Z M90.8759766,51.0546875 L90.6005859,52.4140625 L92.1123047,52.4140625 L92.1123047,53.6210938 L90.3720703,53.6210938 L89.9208984,56 L88.6318359,56 L89.0888672,53.6210938 L87.9521484,53.6210938 L87.5068359,56 L86.2470703,56 L86.6806641,53.6210938 L85.2861328,53.6210938 L85.2861328,52.4140625 L86.9091797,52.4140625 L87.1845703,51.0546875 L85.7080078,51.0546875 L85.7080078,49.8300781 L87.4013672,49.8300781 L87.8525391,47.4453125 L89.1357422,47.4453125 L88.6845703,49.8300781 L89.8447266,49.8300781 L90.3017578,47.4453125 L91.5615234,47.4453125 L91.1044922,49.8300781 L92.5107422,49.8300781 L92.5107422,51.0546875 L90.8759766,51.0546875 Z M88.1806641,52.4140625 L89.3291016,52.4140625 L89.6044922,51.0546875 L88.4560547,51.0546875 L88.1806641,52.4140625 Z M97.7314453,56 L95.9208984,56 L95.9208984,51.0429688 L95.9384766,50.2285156 L95.9677734,49.3378906 C95.6669907,49.6386734 95.4580084,49.835937 95.3408203,49.9296875 L94.3564453,50.7207031 L93.4833984,49.6308594 L96.2431641,47.4335938 L97.7314453,47.4335938 L97.7314453,56 Z" id="DC-#1-Copy-3" fill="#595959"></path>
            <path d="M424.561523,51.6347656 C424.561523,53.0449289 424.16016,54.1249963 423.357422,54.875 C422.554683,55.6250037 421.395515,56 419.879883,56 L417.454102,56 L417.454102,47.4335938 L420.143555,47.4335938 C421.541999,47.4335938 422.627926,47.8027307 423.401367,48.5410156 C424.174809,49.2793006 424.561523,50.3105403 424.561523,51.6347656 Z M422.674805,51.6816406 C422.674805,49.8417877 421.862313,48.921875 420.237305,48.921875 L419.270508,48.921875 L419.270508,54.5 L420.049805,54.5 C421.799813,54.5 422.674805,53.5605563 422.674805,51.6816406 Z M429.975586,48.8222656 C429.291989,48.8222656 428.762697,49.079099 428.387695,49.5927734 C428.012693,50.1064479 427.825195,50.822261 427.825195,51.7402344 C427.825195,53.6504002 428.541985,54.6054688 429.975586,54.6054688 C430.577151,54.6054688 431.30566,54.4550796 432.161133,54.1542969 L432.161133,55.6777344 C431.458004,55.9707046 430.672856,56.1171875 429.805664,56.1171875 C428.559564,56.1171875 427.606449,55.7392616 426.946289,54.9833984 C426.28613,54.2275353 425.956055,53.1425852 425.956055,51.7285156 C425.956055,50.8378862 426.118162,50.0576205 426.442383,49.3876953 C426.766603,48.7177701 427.232419,48.2041033 427.839844,47.8466797 C428.447269,47.489256 429.159176,47.3105469 429.975586,47.3105469 C430.807621,47.3105469 431.64355,47.5117167 432.483398,47.9140625 L431.897461,49.390625 C431.577147,49.2382805 431.254884,49.1054693 430.930664,48.9921875 C430.606444,48.8789057 430.288088,48.8222656 429.975586,48.8222656 Z M441.875977,51.0546875 L441.600586,52.4140625 L443.112305,52.4140625 L443.112305,53.6210938 L441.37207,53.6210938 L440.920898,56 L439.631836,56 L440.088867,53.6210938 L438.952148,53.6210938 L438.506836,56 L437.24707,56 L437.680664,53.6210938 L436.286133,53.6210938 L436.286133,52.4140625 L437.90918,52.4140625 L438.18457,51.0546875 L436.708008,51.0546875 L436.708008,49.8300781 L438.401367,49.8300781 L438.852539,47.4453125 L440.135742,47.4453125 L439.68457,49.8300781 L440.844727,49.8300781 L441.301758,47.4453125 L442.561523,47.4453125 L442.104492,49.8300781 L443.510742,49.8300781 L443.510742,51.0546875 L441.875977,51.0546875 Z M439.180664,52.4140625 L440.329102,52.4140625 L440.604492,51.0546875 L439.456055,51.0546875 L439.180664,52.4140625 Z M450.243164,56 L444.254883,56 L444.254883,54.7402344 L446.405273,52.5664062 C447.041995,51.9140592 447.458007,51.4619153 447.65332,51.2099609 C447.848634,50.9580066 447.989257,50.7246104 448.075195,50.5097656 C448.161133,50.2949208 448.204102,50.0722668 448.204102,49.8417969 C448.204102,49.4980452 448.109376,49.2421883 447.919922,49.0742188 C447.730468,48.9062492 447.477541,48.8222656 447.161133,48.8222656 C446.8291,48.8222656 446.506838,48.8984367 446.194336,49.0507812 C445.881834,49.2031258 445.555666,49.4199205 445.21582,49.7011719 L444.231445,48.5351562 C444.653322,48.1757795 445.002928,47.9218757 445.280273,47.7734375 C445.557619,47.6249993 445.86035,47.5107426 446.188477,47.4306641 C446.516603,47.3505855 446.883787,47.3105469 447.290039,47.3105469 C447.825198,47.3105469 448.29785,47.4082021 448.708008,47.6035156 C449.118166,47.7988291 449.436522,48.0722639 449.663086,48.4238281 C449.88965,48.7753924 450.00293,49.1777321 450.00293,49.6308594 C450.00293,50.0253926 449.933594,50.3955061 449.794922,50.7412109 C449.656249,51.0869158 449.441408,51.4414044 449.150391,51.8046875 C448.859374,52.1679706 448.346683,52.6855435 447.612305,53.3574219 L446.510742,54.3945312 L446.510742,54.4765625 L450.243164,54.4765625 L450.243164,56 Z" id="DC-#2-Copy" fill="#595959"></path>
            <path d="M141,88 L141,83 L141,83 C141,77.4771525 145.477153,73 151,73 L482.998665,73 L482.998665,73.0009562 C488.521139,73.0009562 492.998136,77.477526 492.998665,83 L493,86.9673089" id="Path-13" stroke="#FF2E2F" stroke-linecap="round"></path>
            <g id="Arrow_red" transform="translate(208.000000, 107.000000) scale(-1, 1) translate(-208.000000, -107.000000) translate(205.000000, 102.500000)" stroke="#FF2E2F" fill="#FF2E2F" stroke-linejoin="round">
                <polygon id="Path-14-Copy-14" transform="translate(3.000000, 4.500000) rotate(-270.000000) translate(-3.000000, -4.500000) " points="-1 7 3 2 7 7"></polygon>
            </g>
            <g id="Arrow_red" transform="translate(493.000000, 86.000000) rotate(-270.000000) translate(-493.000000, -86.000000) translate(490.000000, 81.500000)" stroke="#FF2E2F" fill="#FF2E2F" stroke-linejoin="round">
                <polygon id="Path-14-Copy-14" transform="translate(3.000000, 4.500000) rotate(-270.000000) translate(-3.000000, -4.500000) " points="-1 7 3 2 7 7"></polygon>
            </g>
            <g id="Arrow_red" transform="translate(352.000000, 107.000000) scale(-1, 1) translate(-352.000000, -107.000000) translate(349.000000, 102.500000)" stroke="#FF2E2F" fill="#FF2E2F" stroke-linejoin="round">
                <polygon id="Path-14-Copy-14" transform="translate(3.000000, 4.500000) rotate(-270.000000) translate(-3.000000, -4.500000) " points="-1 7 3 2 7 7"></polygon>
            </g>
        </g>
    </g>
</svg>