<?xml version="1.0" encoding="UTF-8" standalone="no"?>
<!-- Created by Syntax-Trax http://kevinpt.github.io/syntax-trax -->
<svg xmlns="http://www.w3.org/2000/svg"
xmlns:xlink="http://www.w3.org/1999/xlink"
xml:space="preserve"
width="759" height="118" version="1.1">
<style type="text/css">
<![CDATA[
.box_font {fill:#000000; text-anchor:middle;
    font-family:Courier; font-size:14pt; font-weight:regular; font-style:normal;}
.name_font {fill:#000000; text-anchor:middle;
    font-family:Courier; font-size:14pt; font-weight:regular; font-style:normal;}
.title_font {fill:#000000; text-anchor:middle;
    font-family:Sans; font-size:22pt; font-weight:bold; font-style:normal;}
.bubble_font {fill:#000000; text-anchor:middle;
    font-family:Courier; font-size:14pt; font-weight:bold; font-style:normal;}
.token_font {fill:#000000; text-anchor:middle;
    font-family:Courier; font-size:14pt; font-weight:bold; font-style:normal;}
.label {fill:#000;
  text-anchor:middle;
  font-size:16pt; font-weight:bold; font-family:Sans;}
.link {fill: #0D47A1;}
.link:hover {fill: #0D47A1; text-decoration:underline;}
.link:visited {fill: #4A148C;}
]]>
</style>
<defs>
  <marker id="arrow" markerWidth="5" markerHeight="4" refX="2.5" refY="2" orient="auto" markerUnits="strokeWidth">
    <path d="M0,0 L0.5,2 L0,4 L4.5,2 z" fill="#FF0000" />
  </marker>
</defs>
<rect width="100%" height="100%" fill="white"/><path d="M41.0,33.0 A13.0,13.0 0 0,1 41.0,7.0 H123.0 A13.0,13.0 0 0,1 123.0,33.0 z" stroke="none" fill-opacity="0.498039215686" fill="#000000"/>
<path d="M166.0,33.0 A13.0,13.0 0 0,1 166.0,7.0 H226.0 A13.0,13.0 0 0,1 226.0,33.0 z" stroke="none" fill-opacity="0.498039215686" fill="#000000"/>
<path d="M297.0,51.0 A13.0,13.0 0 0,1 297.0,25.0 H335.0 A13.0,13.0 0 0,1 335.0,51.0 z" stroke="none" fill-opacity="0.498039215686" fill="#000000"/>
<path d="M378.0,51.0 A13.0,13.0 0 0,1 378.0,25.0 H427.0 A13.0,13.0 0 0,1 427.0,51.0 z" stroke="none" fill-opacity="0.498039215686" fill="#000000"/>
<path d="M470.0,51.0 A13.0,13.0 0 0,1 470.0,25.0 H552.0 A13.0,13.0 0 0,1 552.0,51.0 z" stroke="none" fill-opacity="0.498039215686" fill="#000000"/>
<path d="M623.0,33.0 A13.0,13.0 0 0,1 623.0,7.0 H716.0 A13.0,13.0 0 0,1 716.0,33.0 z" stroke="none" fill-opacity="0.498039215686" fill="#000000"/>
<path d="M77.0,115.0 A13.0,13.0 0 0,1 77.0,89.0 H115.0 A13.0,13.0 0 0,1 115.0,115.0 z" stroke="none" fill-opacity="0.498039215686" fill="#000000"/>
<rect x="145.0" y="89.0" width="188.0" height="26.0" stroke="none" fill-opacity="0.498039215686" fill="#000000"/>
<circle cx="7" cy="17.0" r="2" stroke="#FF0000" stroke-width="1" fill="#FFFFFF"/>
<path d="M39.0,31.0 A13.0,13.0 0 0,1 39.0,5.0 H121.0 A13.0,13.0 0 0,1 121.0,31.0 z" stroke="#FF0000" stroke-width="1" fill="#D3D3D3"/>
<text class="token_font" x="80.0" y="24.0"> CREATE </text>
<path d="M164.0,31.0 A13.0,13.0 0 0,1 164.0,5.0 H224.0 A13.0,13.0 0 0,1 224.0,31.0 z" stroke="#FF0000" stroke-width="1" fill="#D3D3D3"/>
<text class="token_font" x="194.0" y="24.0"> VIEW </text>
<line x1="133.0" y1="17.0" x2="147.0" y2="17.0" stroke="#FF0000" stroke-width="1" marker-end="url(#arrow)" />
<line x1="422.0" y1="17.0" x2="423.0" y2="17.0" stroke="#FF0000" stroke-width="1" />
<path d="M295.0,49.0 A13.0,13.0 0 0,1 295.0,23.0 H333.0 A13.0,13.0 0 0,1 333.0,49.0 z" stroke="#FF0000" stroke-width="1" fill="#D3D3D3"/>
<text class="token_font" x="314.0" y="42.0"> IF </text>
<path d="M376.0,49.0 A13.0,13.0 0 0,1 376.0,23.0 H425.0 A13.0,13.0 0 0,1 425.0,49.0 z" stroke="#FF0000" stroke-width="1" fill="#D3D3D3"/>
<text class="token_font" x="400.5" y="42.0"> NOT </text>
<line x1="345.0" y1="35.0" x2="359.0" y2="35.0" stroke="#FF0000" stroke-width="1" marker-end="url(#arrow)" />
<path d="M468.0,49.0 A13.0,13.0 0 0,1 468.0,23.0 H550.0 A13.0,13.0 0 0,1 550.0,49.0 z" stroke="#FF0000" stroke-width="1" fill="#D3D3D3"/>
<text class="token_font" x="509.0" y="42.0"> EXISTS </text>
<line x1="437.0" y1="35.0" x2="451.0" y2="35.0" stroke="#FF0000" stroke-width="1" marker-end="url(#arrow)" />
<line x1="254.0" y1="17.0" x2="418.0" y2="17.0" stroke="#FF0000" stroke-width="1" marker-end="url(#arrow)" />
<line x1="423.0" y1="17.0" x2="592.0" y2="17.0" stroke="#FF0000" stroke-width="1" />
<path d="M263.0,26.0 A9.0,9.0 0 0,0 254.0,17.0" stroke="#FF0000" stroke-width="1" fill="none"/>
<line x1="272.0" y1="35.0" x2="278.0" y2="35.0" stroke="#FF0000" stroke-width="1" marker-end="url(#arrow)" />
<line x1="563.0" y1="35.0" x2="569.0" y2="35.0" stroke="#FF0000" stroke-width="1" marker-end="url(#arrow)" />
<path d="M263.0,26.0 A9.0,9.0 0 0,0 272.0,35.0" stroke="#FF0000" stroke-width="1" fill="none"/>
<path d="M573.0,35.0 A9.0,9.0 0 0,0 582.0,26.0" stroke="#FF0000" stroke-width="1" fill="none"/>
<path d="M591.0,17.0 A9.0,9.0 0 0,0 582.0,26.0" stroke="#FF0000" stroke-width="1" fill="none"/>
<line x1="263.0" y1="26.0" x2="263.0" y2="26.0" stroke="#FF0000" stroke-width="1" />
<line x1="582.0" y1="26.0" x2="582.0" y2="26.0" stroke="#FF0000" stroke-width="1" />
<line x1="236.0" y1="17.0" x2="250.0" y2="17.0" stroke="#FF0000" stroke-width="1" marker-end="url(#arrow)" />
<path d="M621.0,31.0 A13.0,13.0 0 0,1 621.0,5.0 H714.0 A13.0,13.0 0 0,1 714.0,31.0 z" stroke="#FF0000" stroke-width="1" fill="#D3D3D3"/>
<text class="name_font" x="667.5" y="24.0">view-name</text>
<line x1="590.0" y1="17.0" x2="604.0" y2="17.0" stroke="#FF0000" stroke-width="1" marker-end="url(#arrow)" />
<path d="M75.0,113.0 A13.0,13.0 0 0,1 75.0,87.0 H113.0 A13.0,13.0 0 0,1 113.0,113.0 z" stroke="#FF0000" stroke-width="1" fill="#D3D3D3"/>
<text class="token_font" x="94.0" y="106.0"> AS </text>
<rect x="143.0" y="87.0" width="188.0" height="26.0" stroke="#FF0000" stroke-width="1" fill="#D3D3D3"/>
<text class="box_font" x="237.0" y="106.0">select-statement</text>
<line x1="125.0" y1="99.0" x2="139.0" y2="99.0" stroke="#FF0000" stroke-width="1" marker-end="url(#arrow)" />
<line x1="727.0" y1="17.0" x2="745.0" y2="17.0" stroke="#FF0000" stroke-width="1" />
<path d="M754.0,26.0 A9.0,9.0 0 0,0 745.0,17.0" stroke="#FF0000" stroke-width="1" fill="none"/>
<line x1="754.0" y1="26.0" x2="754.0" y2="38.5" stroke="#FF0000" stroke-width="1" marker-end="url(#arrow)" />
<line x1="754.0" y1="42.5" x2="754.0" y2="59.0" stroke="#FF0000" stroke-width="1" />
<path d="M745.0,68.0 A9.0,9.0 0 0,0 754.0,59.0" stroke="#FF0000" stroke-width="1" fill="none"/>
<line x1="745.0" y1="68.0" x2="398.5" y2="68.0" stroke="#FF0000" stroke-width="1" marker-end="url(#arrow)" />
<line x1="394.5" y1="68.0" x2="44" y2="68.0" stroke="#FF0000" stroke-width="1" />
<path d="M44.0,68.0 A9,9 0 0,0 35.0,77.0" stroke="#FF0000" stroke-width="1" fill="none"/>
<line x1="35" y1="77.0" x2="35" y2="90.0" stroke="#FF0000" stroke-width="1" />
<path d="M35.0,90.0 A9,9 0 0,0 44.0,99.0" stroke="#FF0000" stroke-width="1" fill="none"/>
<line x1="44" y1="99.0" x2="58.0" y2="99.0" stroke="#FF0000" stroke-width="1" marker-end="url(#arrow)" />
<line x1="8" y1="17.0" x2="22.0" y2="17.0" stroke="#FF0000" stroke-width="1" marker-end="url(#arrow)" />
<circle cx="350.0" cy="99.0" r="2.0" stroke="#FF0000" stroke-width="1" fill="#FFFFFF"/>
<line x1="330.0" y1="99.0" x2="344.0" y2="99.0" stroke="#FF0000" stroke-width="1" marker-end="url(#arrow)" />
</svg>