<?xml version="1.0" encoding="UTF-8" standalone="no"?>
<!-- Created by Syntax-Trax http://kevinpt.github.io/syntax-trax -->
<svg xmlns="http://www.w3.org/2000/svg"
xmlns:xlink="http://www.w3.org/1999/xlink"
xml:space="preserve"
width="785" height="54" version="1.1">
<style type="text/css">
<![CDATA[
.box_font {fill:#000000; text-anchor:middle;
    font-family:Courier; font-size:14pt; font-weight:regular; font-style:normal;}
.name_font {fill:#000000; text-anchor:middle;
    font-family:Courier; font-size:14pt; font-weight:regular; font-style:normal;}
.title_font {fill:#000000; text-anchor:middle;
    font-family:Sans; font-size:22pt; font-weight:bold; font-style:normal;}
.bubble_font {fill:#000000; text-anchor:middle;
    font-family:Courier; font-size:14pt; font-weight:bold; font-style:normal;}
.token_font {fill:#000000; text-anchor:middle;
    font-family:Courier; font-size:14pt; font-weight:bold; font-style:normal;}
.label {fill:#000;
  text-anchor:middle;
  font-size:16pt; font-weight:bold; font-family:Sans;}
.link {fill: #0D47A1;}
.link:hover {fill: #0D47A1; text-decoration:underline;}
.link:visited {fill: #4A148C;}
]]>
</style>
<defs>
  <marker id="arrow" markerWidth="5" markerHeight="4" refX="2.5" refY="2" orient="auto" markerUnits="strokeWidth">
    <path d="M0,0 L0.5,2 L0,4 L4.5,2 z" fill="#FF0000" />
  </marker>
</defs>
<rect width="100%" height="100%" fill="white"/><path d="M41.0,33.0 A13.0,13.0 0 0,1 41.0,7.0 H123.0 A13.0,13.0 0 0,1 123.0,33.0 z" stroke="none" fill-opacity="0.498039215686" fill="#000000"/>
<path d="M166.0,33.0 A13.0,13.0 0 0,1 166.0,7.0 H226.0 A13.0,13.0 0 0,1 226.0,33.0 z" stroke="none" fill-opacity="0.498039215686" fill="#000000"/>
<path d="M269.0,33.0 A13.0,13.0 0 0,1 269.0,7.0 H373.0 A13.0,13.0 0 0,1 373.0,33.0 z" stroke="none" fill-opacity="0.498039215686" fill="#000000"/>
<path d="M444.0,51.0 A13.0,13.0 0 0,1 444.0,25.0 H515.0 A13.0,13.0 0 0,1 515.0,51.0 z" stroke="none" fill-opacity="0.498039215686" fill="#000000"/>
<rect x="545.0" y="25.0" width="188.0" height="26.0" stroke="none" fill-opacity="0.498039215686" fill="#000000"/>
<circle cx="7" cy="17.0" r="2" stroke="#FF0000" stroke-width="1" fill="#FFFFFF"/>
<path d="M39.0,31.0 A13.0,13.0 0 0,1 39.0,5.0 H121.0 A13.0,13.0 0 0,1 121.0,31.0 z" stroke="#FF0000" stroke-width="1" fill="#D3D3D3"/>
<text class="token_font" x="80.0" y="24.0"> DELETE </text>
<path d="M164.0,31.0 A13.0,13.0 0 0,1 164.0,5.0 H224.0 A13.0,13.0 0 0,1 224.0,31.0 z" stroke="#FF0000" stroke-width="1" fill="#D3D3D3"/>
<text class="token_font" x="194.0" y="24.0"> FROM </text>
<line x1="133.0" y1="17.0" x2="147.0" y2="17.0" stroke="#FF0000" stroke-width="1" marker-end="url(#arrow)" />
<path d="M267.0,31.0 A13.0,13.0 0 0,1 267.0,5.0 H371.0 A13.0,13.0 0 0,1 371.0,31.0 z" stroke="#FF0000" stroke-width="1" fill="#D3D3D3"/>
<text class="name_font" x="319.0" y="24.0">table-name</text>
<line x1="236.0" y1="17.0" x2="250.0" y2="17.0" stroke="#FF0000" stroke-width="1" marker-end="url(#arrow)" />
<line x1="579.5" y1="17.0" x2="580.5" y2="17.0" stroke="#FF0000" stroke-width="1" />
<path d="M442.0,49.0 A13.0,13.0 0 0,1 442.0,23.0 H513.0 A13.0,13.0 0 0,1 513.0,49.0 z" stroke="#FF0000" stroke-width="1" fill="#D3D3D3"/>
<text class="token_font" x="477.5" y="42.0"> WHERE </text>
<rect x="543.0" y="23.0" width="188.0" height="26.0" stroke="#FF0000" stroke-width="1" fill="#D3D3D3"/>
<text class="box_font" x="637.0" y="42.0">search-condition</text>
<line x1="525.0" y1="35.0" x2="539.0" y2="35.0" stroke="#FF0000" stroke-width="1" marker-end="url(#arrow)" />
<line x1="401.0" y1="17.0" x2="575.5" y2="17.0" stroke="#FF0000" stroke-width="1" marker-end="url(#arrow)" />
<line x1="580.5" y1="17.0" x2="760.0" y2="17.0" stroke="#FF0000" stroke-width="1" />
<path d="M410.0,26.0 A9.0,9.0 0 0,0 401.0,17.0" stroke="#FF0000" stroke-width="1" fill="none"/>
<line x1="419.0" y1="35.0" x2="425.0" y2="35.0" stroke="#FF0000" stroke-width="1" marker-end="url(#arrow)" />
<line x1="731.0" y1="35.0" x2="737.0" y2="35.0" stroke="#FF0000" stroke-width="1" marker-end="url(#arrow)" />
<path d="M410.0,26.0 A9.0,9.0 0 0,0 419.0,35.0" stroke="#FF0000" stroke-width="1" fill="none"/>
<path d="M741.0,35.0 A9.0,9.0 0 0,0 750.0,26.0" stroke="#FF0000" stroke-width="1" fill="none"/>
<path d="M759.0,17.0 A9.0,9.0 0 0,0 750.0,26.0" stroke="#FF0000" stroke-width="1" fill="none"/>
<line x1="410.0" y1="26.0" x2="410.0" y2="26.0" stroke="#FF0000" stroke-width="1" />
<line x1="750.0" y1="26.0" x2="750.0" y2="26.0" stroke="#FF0000" stroke-width="1" />
<line x1="383.0" y1="17.0" x2="397.0" y2="17.0" stroke="#FF0000" stroke-width="1" marker-end="url(#arrow)" />
<line x1="8" y1="17.0" x2="22.0" y2="17.0" stroke="#FF0000" stroke-width="1" marker-end="url(#arrow)" />
<circle cx="778.0" cy="17.0" r="2.0" stroke="#FF0000" stroke-width="1" fill="#FFFFFF"/>
<line x1="758.0" y1="17.0" x2="772.0" y2="17.0" stroke="#FF0000" stroke-width="1" marker-end="url(#arrow)" />
</svg>