<?xml version="1.0" encoding="UTF-8" standalone="no"?>
<!-- Created by Syntax-Trax http://kevinpt.github.io/syntax-trax -->
<svg xmlns="http://www.w3.org/2000/svg"
xmlns:xlink="http://www.w3.org/1999/xlink"
xml:space="preserve"
width="846" height="186" version="1.1">
<style type="text/css">
<![CDATA[
.box_font {fill:#000000; text-anchor:middle;
    font-family:Courier; font-size:14pt; font-weight:regular; font-style:normal;}
.name_font {fill:#000000; text-anchor:middle;
    font-family:Courier; font-size:14pt; font-weight:regular; font-style:normal;}
.title_font {fill:#000000; text-anchor:middle;
    font-family:Sans; font-size:22pt; font-weight:bold; font-style:normal;}
.bubble_font {fill:#000000; text-anchor:middle;
    font-family:Courier; font-size:14pt; font-weight:bold; font-style:normal;}
.token_font {fill:#000000; text-anchor:middle;
    font-family:Courier; font-size:14pt; font-weight:bold; font-style:normal;}
.label {fill:#000;
  text-anchor:middle;
  font-size:16pt; font-weight:bold; font-family:Sans;}
.link {fill: #0D47A1;}
.link:hover {fill: #0D47A1; text-decoration:underline;}
.link:visited {fill: #4A148C;}
]]>
</style>
<defs>
  <marker id="arrow" markerWidth="5" markerHeight="4" refX="2.5" refY="2" orient="auto" markerUnits="strokeWidth">
    <path d="M0,0 L0.5,2 L0,4 L4.5,2 z" fill="#FF0000" />
  </marker>
</defs>
<rect width="100%" height="100%" fill="white"/><path d="M41.0,33.0 A13.0,13.0 0 0,1 41.0,7.0 H123.0 A13.0,13.0 0 0,1 123.0,33.0 z" stroke="none" fill-opacity="0.498039215686" fill="#000000"/>
<path d="M166.0,33.0 A13.0,13.0 0 0,1 166.0,7.0 H226.0 A13.0,13.0 0 0,1 226.0,33.0 z" stroke="none" fill-opacity="0.498039215686" fill="#000000"/>
<path d="M269.0,33.0 A13.0,13.0 0 0,1 269.0,7.0 H373.0 A13.0,13.0 0 0,1 373.0,33.0 z" stroke="none" fill-opacity="0.498039215686" fill="#000000"/>
<path d="M113.0,97.0 A13.0,13.0 0 0,1 113.0,71.0 H118.0 A13.0,13.0 0 0,1 118.0,97.0 z" stroke="none" fill-opacity="0.498039215686" fill="#000000"/>
<path d="M178.0,97.0 A13.0,13.0 0 0,1 178.0,71.0 H293.0 A13.0,13.0 0 0,1 293.0,97.0 z" stroke="none" fill-opacity="0.498039215686" fill="#000000"/>
<path d="M233.0,123.0 A13.0,13.0 0 0,1 233.0,97.0 H238.0 A13.0,13.0 0 0,1 238.0,123.0 z" stroke="none" fill-opacity="0.498039215686" fill="#000000"/>
<path d="M345.0,97.0 A13.0,13.0 0 0,1 345.0,71.0 H350.0 A13.0,13.0 0 0,1 350.0,97.0 z" stroke="none" fill-opacity="0.498039215686" fill="#000000"/>
<path d="M429.0,97.0 A13.0,13.0 0 0,1 429.0,71.0 H511.0 A13.0,13.0 0 0,1 511.0,97.0 z" stroke="none" fill-opacity="0.498039215686" fill="#000000"/>
<path d="M554.0,97.0 A13.0,13.0 0 0,1 554.0,71.0 H559.0 A13.0,13.0 0 0,1 559.0,97.0 z" stroke="none" fill-opacity="0.498039215686" fill="#000000"/>
<rect x="606.0" y="71.0" width="122.0" height="26.0" stroke="none" fill-opacity="0.498039215686" fill="#000000"/>
<path d="M664.5,123.0 A13.0,13.0 0 0,1 664.5,97.0 H669.5 A13.0,13.0 0 0,1 669.5,123.0 z" stroke="none" fill-opacity="0.498039215686" fill="#000000"/>
<path d="M767.0,97.0 A13.0,13.0 0 0,1 767.0,71.0 H772.0 A13.0,13.0 0 0,1 772.0,97.0 z" stroke="none" fill-opacity="0.498039215686" fill="#000000"/>
<rect x="426.0" y="127.0" width="188.0" height="26.0" stroke="none" fill-opacity="0.498039215686" fill="#000000"/>
<path d="M105.0,183.0 A13.0,13.0 0 0,1 105.0,157.0 H198.0 A13.0,13.0 0 0,1 198.0,183.0 z" stroke="none" fill-opacity="0.498039215686" fill="#000000"/>
<path d="M241.0,183.0 A13.0,13.0 0 0,1 241.0,157.0 H323.0 A13.0,13.0 0 0,1 323.0,183.0 z" stroke="none" fill-opacity="0.498039215686" fill="#000000"/>
<circle cx="7" cy="17.0" r="2" stroke="#FF0000" stroke-width="1" fill="#FFFFFF"/>
<path d="M39.0,31.0 A13.0,13.0 0 0,1 39.0,5.0 H121.0 A13.0,13.0 0 0,1 121.0,31.0 z" stroke="#FF0000" stroke-width="1" fill="#D3D3D3"/>
<text class="token_font" x="80.0" y="24.0"> INSERT </text>
<path d="M164.0,31.0 A13.0,13.0 0 0,1 164.0,5.0 H224.0 A13.0,13.0 0 0,1 224.0,31.0 z" stroke="#FF0000" stroke-width="1" fill="#D3D3D3"/>
<text class="token_font" x="194.0" y="24.0"> INTO </text>
<line x1="133.0" y1="17.0" x2="147.0" y2="17.0" stroke="#FF0000" stroke-width="1" marker-end="url(#arrow)" />
<path d="M267.0,31.0 A13.0,13.0 0 0,1 267.0,5.0 H371.0 A13.0,13.0 0 0,1 371.0,31.0 z" stroke="#FF0000" stroke-width="1" fill="#D3D3D3"/>
<text class="name_font" x="319.0" y="24.0">table-name</text>
<line x1="236.0" y1="17.0" x2="250.0" y2="17.0" stroke="#FF0000" stroke-width="1" marker-end="url(#arrow)" />
<path d="M111.0,95.0 A13.0,13.0 0 0,1 111.0,69.0 H116.0 A13.0,13.0 0 0,1 116.0,95.0 z" stroke="#FF0000" stroke-width="1" fill="#D3D3D3"/>
<text class="name_font" x="113.5" y="88.0">(</text>
<path d="M176.0,95.0 A13.0,13.0 0 0,1 176.0,69.0 H291.0 A13.0,13.0 0 0,1 291.0,95.0 z" stroke="#FF0000" stroke-width="1" fill="#D3D3D3"/>
<text class="name_font" x="233.5" y="88.0">column-name</text>
<path d="M231.0,121.0 A13.0,13.0 0 0,1 231.0,95.0 H236.0 A13.0,13.0 0 0,1 236.0,121.0 z" stroke="#FF0000" stroke-width="1" fill="#D3D3D3"/>
<text class="name_font" x="233.5" y="114.0">,</text>
<line x1="163.0" y1="107.0" x2="218.0" y2="107.0" stroke="#FF0000" stroke-width="1" />
<line x1="304.0" y1="107.0" x2="253.0" y2="107.0" stroke="#FF0000" stroke-width="1" marker-end="url(#arrow)" />
<line x1="146.0" y1="81.0" x2="163.0" y2="81.0" stroke="#FF0000" stroke-width="1" />
<path d="M163.0,81.0 A13.0,13.0 0 0,0 163.0,107.0" stroke="#FF0000" stroke-width="1" fill="none"/>
<path d="M304.0,107.0 A13.0,13.0 0 0,0 304.0,81.0" stroke="#FF0000" stroke-width="1" fill="none"/>
<line x1="304.0" y1="81.0" x2="313.0" y2="81.0" stroke="#FF0000" stroke-width="1" />
<line x1="128.0" y1="81.0" x2="142.0" y2="81.0" stroke="#FF0000" stroke-width="1" marker-end="url(#arrow)" />
<path d="M343.0,95.0 A13.0,13.0 0 0,1 343.0,69.0 H348.0 A13.0,13.0 0 0,1 348.0,95.0 z" stroke="#FF0000" stroke-width="1" fill="#D3D3D3"/>
<text class="name_font" x="345.5" y="88.0">)</text>
<line x1="312.0" y1="81.0" x2="326.0" y2="81.0" stroke="#FF0000" stroke-width="1" marker-end="url(#arrow)" />
<line x1="229.0" y1="125.0" x2="230.0" y2="125.0" stroke="#FF0000" stroke-width="1" />
<line x1="80.0" y1="81.0" x2="94.0" y2="81.0" stroke="#FF0000" stroke-width="1" marker-end="url(#arrow)" />
<line x1="361.0" y1="81.0" x2="380.0" y2="81.0" stroke="#FF0000" stroke-width="1" />
<path d="M89.0,90.0 A9.0,9.0 0 0,0 80.0,81.0" stroke="#FF0000" stroke-width="1" fill="none"/>
<line x1="98.0" y1="125.0" x2="225.0" y2="125.0" stroke="#FF0000" stroke-width="1" marker-end="url(#arrow)" />
<line x1="230.0" y1="125.0" x2="357.0" y2="125.0" stroke="#FF0000" stroke-width="1" marker-end="url(#arrow)" />
<path d="M89.0,116.0 A9.0,9.0 0 0,0 98.0,125.0" stroke="#FF0000" stroke-width="1" fill="none"/>
<path d="M361.0,125.0 A9.0,9.0 0 0,0 370.0,116.0" stroke="#FF0000" stroke-width="1" fill="none"/>
<path d="M379.0,81.0 A9.0,9.0 0 0,0 370.0,90.0" stroke="#FF0000" stroke-width="1" fill="none"/>
<line x1="89.0" y1="116.0" x2="89.0" y2="90.0" stroke="#FF0000" stroke-width="1" />
<line x1="370.0" y1="116.0" x2="370.0" y2="90.0" stroke="#FF0000" stroke-width="1" />
<path d="M427.0,95.0 A13.0,13.0 0 0,1 427.0,69.0 H509.0 A13.0,13.0 0 0,1 509.0,95.0 z" stroke="#FF0000" stroke-width="1" fill="#D3D3D3"/>
<text class="token_font" x="468.0" y="88.0"> VALUES </text>
<path d="M552.0,95.0 A13.0,13.0 0 0,1 552.0,69.0 H557.0 A13.0,13.0 0 0,1 557.0,95.0 z" stroke="#FF0000" stroke-width="1" fill="#D3D3D3"/>
<text class="name_font" x="554.5" y="88.0">(</text>
<line x1="521.0" y1="81.0" x2="535.0" y2="81.0" stroke="#FF0000" stroke-width="1" marker-end="url(#arrow)" />
<rect x="604.0" y="69.0" width="122.0" height="26.0" stroke="#FF0000" stroke-width="1" fill="#D3D3D3"/>
<text class="box_font" x="665.0" y="88.0">expression</text>
<path d="M662.5,121.0 A13.0,13.0 0 0,1 662.5,95.0 H667.5 A13.0,13.0 0 0,1 667.5,121.0 z" stroke="#FF0000" stroke-width="1" fill="#D3D3D3"/>
<text class="name_font" x="665.0" y="114.0">,</text>
<line x1="604.0" y1="107.0" x2="649.5" y2="107.0" stroke="#FF0000" stroke-width="1" />
<line x1="726.0" y1="107.0" x2="684.5" y2="107.0" stroke="#FF0000" stroke-width="1" marker-end="url(#arrow)" />
<line x1="587.0" y1="81.0" x2="604.0" y2="81.0" stroke="#FF0000" stroke-width="1" />
<path d="M604.0,81.0 A13.0,13.0 0 0,0 604.0,107.0" stroke="#FF0000" stroke-width="1" fill="none"/>
<path d="M726.0,107.0 A13.0,13.0 0 0,0 726.0,81.0" stroke="#FF0000" stroke-width="1" fill="none"/>
<line x1="726.0" y1="81.0" x2="735.0" y2="81.0" stroke="#FF0000" stroke-width="1" />
<line x1="569.0" y1="81.0" x2="583.0" y2="81.0" stroke="#FF0000" stroke-width="1" marker-end="url(#arrow)" />
<path d="M765.0,95.0 A13.0,13.0 0 0,1 765.0,69.0 H770.0 A13.0,13.0 0 0,1 770.0,95.0 z" stroke="#FF0000" stroke-width="1" fill="#D3D3D3"/>
<text class="name_font" x="767.5" y="88.0">)</text>
<line x1="734.0" y1="81.0" x2="748.0" y2="81.0" stroke="#FF0000" stroke-width="1" marker-end="url(#arrow)" />
<rect x="424.0" y="125.0" width="188.0" height="26.0" stroke="#FF0000" stroke-width="1" fill="#D3D3D3"/>
<text class="box_font" x="518.0" y="144.0">select-statement</text>
<line x1="396.0" y1="81.0" x2="410.0" y2="81.0" stroke="#FF0000" stroke-width="1" marker-end="url(#arrow)" />
<line x1="783.0" y1="81.0" x2="802.0" y2="81.0" stroke="#FF0000" stroke-width="1" />
<path d="M405.0,90.0 A9.0,9.0 0 0,0 396.0,81.0" stroke="#FF0000" stroke-width="1" fill="none"/>
<line x1="414.0" y1="137.0" x2="420.0" y2="137.0" stroke="#FF0000" stroke-width="1" marker-end="url(#arrow)" />
<line x1="612.0" y1="137.0" x2="779.0" y2="137.0" stroke="#FF0000" stroke-width="1" marker-end="url(#arrow)" />
<path d="M405.0,128.0 A9.0,9.0 0 0,0 414.0,137.0" stroke="#FF0000" stroke-width="1" fill="none"/>
<path d="M783.0,137.0 A9.0,9.0 0 0,0 792.0,128.0" stroke="#FF0000" stroke-width="1" fill="none"/>
<path d="M801.0,81.0 A9.0,9.0 0 0,0 792.0,90.0" stroke="#FF0000" stroke-width="1" fill="none"/>
<line x1="405.0" y1="128.0" x2="405.0" y2="90.0" stroke="#FF0000" stroke-width="1" />
<line x1="792.0" y1="128.0" x2="792.0" y2="90.0" stroke="#FF0000" stroke-width="1" />
<line x1="378.0" y1="81.0" x2="392.0" y2="81.0" stroke="#FF0000" stroke-width="1" marker-end="url(#arrow)" />
<path d="M103.0,181.0 A13.0,13.0 0 0,1 103.0,155.0 H196.0 A13.0,13.0 0 0,1 196.0,181.0 z" stroke="#FF0000" stroke-width="1" fill="#D3D3D3"/>
<text class="token_font" x="149.5" y="174.0"> DEFAULT </text>
<path d="M239.0,181.0 A13.0,13.0 0 0,1 239.0,155.0 H321.0 A13.0,13.0 0 0,1 321.0,181.0 z" stroke="#FF0000" stroke-width="1" fill="#D3D3D3"/>
<text class="token_font" x="280.0" y="174.0"> VALUES </text>
<line x1="208.0" y1="167.0" x2="222.0" y2="167.0" stroke="#FF0000" stroke-width="1" marker-end="url(#arrow)" />
<line x1="62" y1="81.0" x2="76.0" y2="81.0" stroke="#FF0000" stroke-width="1" marker-end="url(#arrow)" />
<line x1="801.0" y1="81.0" x2="821.0" y2="81.0" stroke="#FF0000" stroke-width="1" />
<path d="M71.0,90.0 A9,9 0 0,0 62.0,81.0" stroke="#FF0000" stroke-width="1" fill="none"/>
<line x1="80" y1="167.0" x2="86.0" y2="167.0" stroke="#FF0000" stroke-width="1" marker-end="url(#arrow)" />
<line x1="334.0" y1="167.0" x2="798.0" y2="167.0" stroke="#FF0000" stroke-width="1" marker-end="url(#arrow)" />
<path d="M71.0,158.0 A9,9 0 0,0 80.0,167.0" stroke="#FF0000" stroke-width="1" fill="none"/>
<path d="M802.0,167.0 A9.0,9.0 0 0,0 811.0,158.0" stroke="#FF0000" stroke-width="1" fill="none"/>
<path d="M820.0,81.0 A9.0,9.0 0 0,0 811.0,90.0" stroke="#FF0000" stroke-width="1" fill="none"/>
<line x1="71" y1="158.0" x2="71" y2="90.0" stroke="#FF0000" stroke-width="1" />
<line x1="811.0" y1="158.0" x2="811.0" y2="90.0" stroke="#FF0000" stroke-width="1" />
<line x1="384.0" y1="17.0" x2="402.0" y2="17.0" stroke="#FF0000" stroke-width="1" />
<path d="M411.0,26.0 A9.0,9.0 0 0,0 402.0,17.0" stroke="#FF0000" stroke-width="1" fill="none"/>
<line x1="411.0" y1="26.0" x2="411.0" y2="41.0" stroke="#FF0000" stroke-width="1" />
<path d="M402.0,50.0 A9.0,9.0 0 0,0 411.0,41.0" stroke="#FF0000" stroke-width="1" fill="none"/>
<line x1="402.0" y1="50.0" x2="227.0" y2="50.0" stroke="#FF0000" stroke-width="1" marker-end="url(#arrow)" />
<line x1="223.0" y1="50.0" x2="44" y2="50.0" stroke="#FF0000" stroke-width="1" />
<path d="M44.0,50.0 A9,9 0 0,0 35.0,59.0" stroke="#FF0000" stroke-width="1" fill="none"/>
<line x1="35" y1="59.0" x2="35" y2="72.0" stroke="#FF0000" stroke-width="1" />
<path d="M35.0,72.0 A9,9 0 0,0 44.0,81.0" stroke="#FF0000" stroke-width="1" fill="none"/>
<line x1="44" y1="81.0" x2="58.0" y2="81.0" stroke="#FF0000" stroke-width="1" marker-end="url(#arrow)" />
<line x1="8" y1="17.0" x2="22.0" y2="17.0" stroke="#FF0000" stroke-width="1" marker-end="url(#arrow)" />
<circle cx="839.0" cy="81.0" r="2.0" stroke="#FF0000" stroke-width="1" fill="#FFFFFF"/>
<line x1="819.0" y1="81.0" x2="833.0" y2="81.0" stroke="#FF0000" stroke-width="1" marker-end="url(#arrow)" />
</svg>