<?xml version="1.0" encoding="UTF-8" standalone="no"?>
<!-- Created by Syntax-Trax http://kevinpt.github.io/syntax-trax -->
<svg xmlns="http://www.w3.org/2000/svg"
xmlns:xlink="http://www.w3.org/1999/xlink"
xml:space="preserve"
width="562" height="118" version="1.1">
<style type="text/css">
<![CDATA[
.box_font {fill:#000000; text-anchor:middle;
    font-family:Courier; font-size:14pt; font-weight:regular; font-style:normal;}
.name_font {fill:#000000; text-anchor:middle;
    font-family:Courier; font-size:14pt; font-weight:regular; font-style:normal;}
.title_font {fill:#000000; text-anchor:middle;
    font-family:Sans; font-size:22pt; font-weight:bold; font-style:normal;}
.bubble_font {fill:#000000; text-anchor:middle;
    font-family:Courier; font-size:14pt; font-weight:bold; font-style:normal;}
.token_font {fill:#000000; text-anchor:middle;
    font-family:Courier; font-size:14pt; font-weight:bold; font-style:normal;}
.label {fill:#000;
  text-anchor:middle;
  font-size:16pt; font-weight:bold; font-family:Sans;}
.link {fill: #0D47A1;}
.link:hover {fill: #0D47A1; text-decoration:underline;}
.link:visited {fill: #4A148C;}
]]>
</style>
<defs>
  <marker id="arrow" markerWidth="5" markerHeight="4" refX="2.5" refY="2" orient="auto" markerUnits="strokeWidth">
    <path d="M0,0 L0.5,2 L0,4 L4.5,2 z" fill="#FF0000" />
  </marker>
</defs>
<rect width="100%" height="100%" fill="white"/><path d="M69.0,33.0 A13.0,13.0 0 0,1 69.0,7.0 H74.0 A13.0,13.0 0 0,1 74.0,33.0 z" stroke="none" fill-opacity="0.498039215686" fill="#000000"/>
<path d="M69.0,63.0 A13.0,13.0 0 0,1 69.0,37.0 H173.0 A13.0,13.0 0 0,1 173.0,63.0 z" stroke="none" fill-opacity="0.498039215686" fill="#000000"/>
<path d="M216.0,63.0 A13.0,13.0 0 0,1 216.0,37.0 H221.0 A13.0,13.0 0 0,1 221.0,63.0 z" stroke="none" fill-opacity="0.498039215686" fill="#000000"/>
<path d="M264.0,63.0 A13.0,13.0 0 0,1 264.0,37.0 H269.0 A13.0,13.0 0 0,1 269.0,63.0 z" stroke="none" fill-opacity="0.498039215686" fill="#000000"/>
<rect x="56.0" y="67.0" width="122.0" height="26.0" stroke="none" fill-opacity="0.498039215686" fill="#000000"/>
<path d="M254.0,111.0 A13.0,13.0 0 0,1 254.0,85.0 H292.0 A13.0,13.0 0 0,1 292.0,111.0 z" stroke="none" fill-opacity="0.498039215686" fill="#000000"/>
<path d="M353.0,111.0 A13.0,13.0 0 0,1 353.0,85.0 H468.0 A13.0,13.0 0 0,1 468.0,111.0 z" stroke="none" fill-opacity="0.498039215686" fill="#000000"/>
<circle cx="7" cy="17.0" r="2" stroke="#FF0000" stroke-width="1" fill="#FFFFFF"/>
<path d="M67.0,31.0 A13.0,13.0 0 0,1 67.0,5.0 H72.0 A13.0,13.0 0 0,1 72.0,31.0 z" stroke="#FF0000" stroke-width="1" fill="#D3D3D3"/>
<text class="name_font" x="69.5" y="24.0">*</text>
<path d="M67.0,61.0 A13.0,13.0 0 0,1 67.0,35.0 H171.0 A13.0,13.0 0 0,1 171.0,61.0 z" stroke="#FF0000" stroke-width="1" fill="#D3D3D3"/>
<text class="name_font" x="119.0" y="54.0">table-name</text>
<path d="M214.0,61.0 A13.0,13.0 0 0,1 214.0,35.0 H219.0 A13.0,13.0 0 0,1 219.0,61.0 z" stroke="#FF0000" stroke-width="1" fill="#D3D3D3"/>
<text class="name_font" x="216.5" y="54.0">.</text>
<line x1="183.0" y1="47.0" x2="197.0" y2="47.0" stroke="#FF0000" stroke-width="1" marker-end="url(#arrow)" />
<path d="M262.0,61.0 A13.0,13.0 0 0,1 262.0,35.0 H267.0 A13.0,13.0 0 0,1 267.0,61.0 z" stroke="#FF0000" stroke-width="1" fill="#D3D3D3"/>
<text class="name_font" x="264.5" y="54.0">*</text>
<line x1="231.0" y1="47.0" x2="245.0" y2="47.0" stroke="#FF0000" stroke-width="1" marker-end="url(#arrow)" />
<rect x="54.0" y="65.0" width="122.0" height="26.0" stroke="#FF0000" stroke-width="1" fill="#D3D3D3"/>
<text class="box_font" x="115.0" y="84.0">expression</text>
<line x1="349.5" y1="77.0" x2="350.5" y2="77.0" stroke="#FF0000" stroke-width="1" />
<path d="M252.0,109.0 A13.0,13.0 0 0,1 252.0,83.0 H290.0 A13.0,13.0 0 0,1 290.0,109.0 z" stroke="#FF0000" stroke-width="1" fill="#D3D3D3"/>
<text class="token_font" x="271.0" y="102.0"> AS </text>
<line x1="270.5" y1="113.0" x2="271.5" y2="113.0" stroke="#FF0000" stroke-width="1" />
<line x1="221.0" y1="95.0" x2="235.0" y2="95.0" stroke="#FF0000" stroke-width="1" marker-end="url(#arrow)" />
<line x1="303.0" y1="95.0" x2="322.0" y2="95.0" stroke="#FF0000" stroke-width="1" />
<path d="M230.0,104.0 A9.0,9.0 0 0,0 221.0,95.0" stroke="#FF0000" stroke-width="1" fill="none"/>
<line x1="239.0" y1="113.0" x2="266.5" y2="113.0" stroke="#FF0000" stroke-width="1" marker-end="url(#arrow)" />
<line x1="271.5" y1="113.0" x2="299.0" y2="113.0" stroke="#FF0000" stroke-width="1" marker-end="url(#arrow)" />
<path d="M230.0,104.0 A9.0,9.0 0 0,0 239.0,113.0" stroke="#FF0000" stroke-width="1" fill="none"/>
<path d="M303.0,113.0 A9.0,9.0 0 0,0 312.0,104.0" stroke="#FF0000" stroke-width="1" fill="none"/>
<path d="M321.0,95.0 A9.0,9.0 0 0,0 312.0,104.0" stroke="#FF0000" stroke-width="1" fill="none"/>
<line x1="230.0" y1="104.0" x2="230.0" y2="104.0" stroke="#FF0000" stroke-width="1" />
<line x1="312.0" y1="104.0" x2="312.0" y2="104.0" stroke="#FF0000" stroke-width="1" />
<path d="M351.0,109.0 A13.0,13.0 0 0,1 351.0,83.0 H466.0 A13.0,13.0 0 0,1 466.0,109.0 z" stroke="#FF0000" stroke-width="1" fill="#D3D3D3"/>
<text class="name_font" x="408.5" y="102.0">column-name</text>
<line x1="320.0" y1="95.0" x2="334.0" y2="95.0" stroke="#FF0000" stroke-width="1" marker-end="url(#arrow)" />
<line x1="193.0" y1="77.0" x2="345.5" y2="77.0" stroke="#FF0000" stroke-width="1" marker-end="url(#arrow)" />
<line x1="350.5" y1="77.0" x2="508.0" y2="77.0" stroke="#FF0000" stroke-width="1" />
<path d="M202.0,86.0 A9.0,9.0 0 0,0 193.0,77.0" stroke="#FF0000" stroke-width="1" fill="none"/>
<line x1="211.0" y1="95.0" x2="217.0" y2="95.0" stroke="#FF0000" stroke-width="1" marker-end="url(#arrow)" />
<line x1="479.0" y1="95.0" x2="485.0" y2="95.0" stroke="#FF0000" stroke-width="1" marker-end="url(#arrow)" />
<path d="M202.0,86.0 A9.0,9.0 0 0,0 211.0,95.0" stroke="#FF0000" stroke-width="1" fill="none"/>
<path d="M489.0,95.0 A9.0,9.0 0 0,0 498.0,86.0" stroke="#FF0000" stroke-width="1" fill="none"/>
<path d="M507.0,77.0 A9.0,9.0 0 0,0 498.0,86.0" stroke="#FF0000" stroke-width="1" fill="none"/>
<line x1="202.0" y1="86.0" x2="202.0" y2="86.0" stroke="#FF0000" stroke-width="1" />
<line x1="498.0" y1="86.0" x2="498.0" y2="86.0" stroke="#FF0000" stroke-width="1" />
<line x1="175.0" y1="77.0" x2="189.0" y2="77.0" stroke="#FF0000" stroke-width="1" marker-end="url(#arrow)" />
<line x1="26" y1="17.0" x2="50.0" y2="17.0" stroke="#FF0000" stroke-width="1" marker-end="url(#arrow)" />
<line x1="85.0" y1="17.0" x2="537.0" y2="17.0" stroke="#FF0000" stroke-width="1" />
<path d="M35.0,26.0 A9,9 0 0,0 26.0,17.0" stroke="#FF0000" stroke-width="1" fill="none"/>
<line x1="44" y1="47.0" x2="50.0" y2="47.0" stroke="#FF0000" stroke-width="1" marker-end="url(#arrow)" />
<line x1="280.0" y1="47.0" x2="514.0" y2="47.0" stroke="#FF0000" stroke-width="1" marker-end="url(#arrow)" />
<path d="M35.0,38.0 A9,9 0 0,0 44.0,47.0" stroke="#FF0000" stroke-width="1" fill="none"/>
<path d="M518.0,47.0 A9.0,9.0 0 0,0 527.0,38.0" stroke="#FF0000" stroke-width="1" fill="none"/>
<line x1="44" y1="77.0" x2="50.0" y2="77.0" stroke="#FF0000" stroke-width="1" marker-end="url(#arrow)" />
<line x1="507.0" y1="77.0" x2="514.0" y2="77.0" stroke="#FF0000" stroke-width="1" marker-end="url(#arrow)" />
<path d="M35.0,68.0 A9,9 0 0,0 44.0,77.0" stroke="#FF0000" stroke-width="1" fill="none"/>
<path d="M518.0,77.0 A9.0,9.0 0 0,0 527.0,68.0" stroke="#FF0000" stroke-width="1" fill="none"/>
<path d="M536.0,17.0 A9.0,9.0 0 0,0 527.0,26.0" stroke="#FF0000" stroke-width="1" fill="none"/>
<line x1="35" y1="68.0" x2="35" y2="26.0" stroke="#FF0000" stroke-width="1" />
<line x1="527.0" y1="68.0" x2="527.0" y2="26.0" stroke="#FF0000" stroke-width="1" />
<line x1="8" y1="17.0" x2="22.0" y2="17.0" stroke="#FF0000" stroke-width="1" marker-end="url(#arrow)" />
<circle cx="555.0" cy="17.0" r="2.0" stroke="#FF0000" stroke-width="1" fill="#FFFFFF"/>
<line x1="535.0" y1="17.0" x2="549.0" y2="17.0" stroke="#FF0000" stroke-width="1" marker-end="url(#arrow)" />
</svg>