<?xml version="1.0" encoding="UTF-8" standalone="no"?>
<!-- Created by Syntax-Trax http://kevinpt.github.io/syntax-trax -->
<svg xmlns="http://www.w3.org/2000/svg"
xmlns:xlink="http://www.w3.org/1999/xlink"
xml:space="preserve"
width="421" height="62" version="1.1">
<style type="text/css">
<![CDATA[
.box_font {fill:#000000; text-anchor:middle;
    font-family:Courier; font-size:14pt; font-weight:regular; font-style:normal;}
.name_font {fill:#000000; text-anchor:middle;
    font-family:Courier; font-size:14pt; font-weight:regular; font-style:normal;}
.title_font {fill:#000000; text-anchor:middle;
    font-family:Sans; font-size:22pt; font-weight:bold; font-style:normal;}
.bubble_font {fill:#000000; text-anchor:middle;
    font-family:Courier; font-size:14pt; font-weight:bold; font-style:normal;}
.token_font {fill:#000000; text-anchor:middle;
    font-family:Courier; font-size:14pt; font-weight:bold; font-style:normal;}
.label {fill:#000;
  text-anchor:middle;
  font-size:16pt; font-weight:bold; font-family:Sans;}
.link {fill: #0D47A1;}
.link:hover {fill: #0D47A1; text-decoration:underline;}
.link:visited {fill: #4A148C;}
]]>
</style>
<defs>
  <marker id="arrow" markerWidth="5" markerHeight="4" refX="2.5" refY="2" orient="auto" markerUnits="strokeWidth">
    <path d="M0,0 L0.5,2 L0,4 L4.5,2 z" fill="#FF0000" />
  </marker>
</defs>
<rect width="100%" height="100%" fill="white"/><path d="M41.0,33.0 A13.0,13.0 0 0,1 41.0,7.0 H123.0 A13.0,13.0 0 0,1 123.0,33.0 z" stroke="none" fill-opacity="0.498039215686" fill="#000000"/>
<path d="M166.0,33.0 A13.0,13.0 0 0,1 166.0,7.0 H171.0 A13.0,13.0 0 0,1 171.0,33.0 z" stroke="none" fill-opacity="0.498039215686" fill="#000000"/>
<rect x="218.0" y="7.0" width="122.0" height="26.0" stroke="none" fill-opacity="0.498039215686" fill="#000000"/>
<path d="M276.5,59.0 A13.0,13.0 0 0,1 276.5,33.0 H281.5 A13.0,13.0 0 0,1 281.5,59.0 z" stroke="none" fill-opacity="0.498039215686" fill="#000000"/>
<path d="M379.0,33.0 A13.0,13.0 0 0,1 379.0,7.0 H384.0 A13.0,13.0 0 0,1 384.0,33.0 z" stroke="none" fill-opacity="0.498039215686" fill="#000000"/>
<circle cx="7" cy="17.0" r="2" stroke="#FF0000" stroke-width="1" fill="#FFFFFF"/>
<path d="M39.0,31.0 A13.0,13.0 0 0,1 39.0,5.0 H121.0 A13.0,13.0 0 0,1 121.0,31.0 z" stroke="#FF0000" stroke-width="1" fill="#D3D3D3"/>
<text class="token_font" x="80.0" y="24.0"> VALUES </text>
<path d="M164.0,31.0 A13.0,13.0 0 0,1 164.0,5.0 H169.0 A13.0,13.0 0 0,1 169.0,31.0 z" stroke="#FF0000" stroke-width="1" fill="#D3D3D3"/>
<text class="name_font" x="166.5" y="24.0">(</text>
<line x1="133.0" y1="17.0" x2="147.0" y2="17.0" stroke="#FF0000" stroke-width="1" marker-end="url(#arrow)" />
<rect x="216.0" y="5.0" width="122.0" height="26.0" stroke="#FF0000" stroke-width="1" fill="#D3D3D3"/>
<text class="box_font" x="277.0" y="24.0">expression</text>
<path d="M274.5,57.0 A13.0,13.0 0 0,1 274.5,31.0 H279.5 A13.0,13.0 0 0,1 279.5,57.0 z" stroke="#FF0000" stroke-width="1" fill="#D3D3D3"/>
<text class="name_font" x="277.0" y="50.0">,</text>
<line x1="216.0" y1="43.0" x2="261.5" y2="43.0" stroke="#FF0000" stroke-width="1" />
<line x1="338.0" y1="43.0" x2="296.5" y2="43.0" stroke="#FF0000" stroke-width="1" marker-end="url(#arrow)" />
<line x1="199.0" y1="17.0" x2="216.0" y2="17.0" stroke="#FF0000" stroke-width="1" />
<path d="M216.0,17.0 A13.0,13.0 0 0,0 216.0,43.0" stroke="#FF0000" stroke-width="1" fill="none"/>
<path d="M338.0,43.0 A13.0,13.0 0 0,0 338.0,17.0" stroke="#FF0000" stroke-width="1" fill="none"/>
<line x1="338.0" y1="17.0" x2="347.0" y2="17.0" stroke="#FF0000" stroke-width="1" />
<line x1="181.0" y1="17.0" x2="195.0" y2="17.0" stroke="#FF0000" stroke-width="1" marker-end="url(#arrow)" />
<path d="M377.0,31.0 A13.0,13.0 0 0,1 377.0,5.0 H382.0 A13.0,13.0 0 0,1 382.0,31.0 z" stroke="#FF0000" stroke-width="1" fill="#D3D3D3"/>
<text class="name_font" x="379.5" y="24.0">)</text>
<line x1="346.0" y1="17.0" x2="360.0" y2="17.0" stroke="#FF0000" stroke-width="1" marker-end="url(#arrow)" />
<line x1="8" y1="17.0" x2="22.0" y2="17.0" stroke="#FF0000" stroke-width="1" marker-end="url(#arrow)" />
<circle cx="414.0" cy="17.0" r="2.0" stroke="#FF0000" stroke-width="1" fill="#FFFFFF"/>
<line x1="394.0" y1="17.0" x2="408.0" y2="17.0" stroke="#FF0000" stroke-width="1" marker-end="url(#arrow)" />
</svg>