<svg width="52" height="52" viewBox="0 0 52 52" fill="none" xmlns="http://www.w3.org/2000/svg">
<path d="M0 26C0 16.6615 0 11.9922 1.88926 8.45765C3.381 5.66681 5.66681 3.381 8.45765 1.88926C11.9922 0 16.6615 0 26 0C35.3385 0 40.0078 0 43.5423 1.88926C46.3332 3.381 48.619 5.66681 50.1107 8.45765C52 11.9922 52 16.6615 52 26C52 35.3385 52 40.0078 50.1107 43.5423C48.619 46.3332 46.3332 48.619 43.5423 50.1107C40.0078 52 35.3385 52 26 52C16.6615 52 11.9922 52 8.45765 50.1107C5.66681 48.619 3.381 46.3332 1.88926 43.5423C0 40.0078 0 35.3385 0 26Z" fill="#1E1E1E"/>
<path fill-rule="evenodd" clip-rule="evenodd" d="M26 12C18.2652 12 12 18.4228 12 26.3522C12 32.6957 16.0135 38.0701 21.574 39.9731C22.2701 40.1053 22.5279 39.6647 22.5279 39.2771C22.5279 38.9335 22.5193 38.0348 22.5107 36.8366C18.6176 37.7 17.7925 34.9159 17.7925 34.9159C17.1565 33.2596 16.237 32.8102 16.237 32.8102C14.965 31.9204 16.3315 31.938 16.3315 31.938C17.7324 32.0437 18.48 33.4182 18.48 33.4182C19.7262 35.6119 21.7544 34.9776 22.5537 34.6076C22.6826 33.6825 23.0436 33.0481 23.4389 32.6869C20.3364 32.3345 17.0706 31.101 17.0706 25.6033C17.0706 24.035 17.612 22.7575 18.5144 21.7531C18.3683 21.3831 17.887 19.9294 18.6433 17.9558C18.6433 17.9558 19.8207 17.5682 22.4936 19.4272C23.6108 19.11 24.8054 18.9514 26 18.9426C27.186 18.9514 28.3892 19.11 29.5064 19.4272C32.1793 17.5682 33.3567 17.9558 33.3567 17.9558C34.1215 19.9294 33.6403 21.3919 33.4942 21.7531C34.388 22.7575 34.9294 24.035 34.9294 25.6033C34.9294 31.1186 31.655 32.3257 28.5353 32.6869C29.0338 33.1274 29.4893 34.0084 29.4893 35.3476C29.4893 37.2683 29.4721 38.8101 29.4721 39.2859C29.4721 39.6736 29.7213 40.1141 30.4346 39.9731C35.9951 38.0701 40 32.6957 40 26.361C40 18.4228 33.7348 12 26 12Z" fill="white"/>
</svg>
