<svg width="52" height="53" viewBox="0 0 52 53" fill="none" xmlns="http://www.w3.org/2000/svg">
<path d="M0 26.377C0 17.0384 0 12.3692 1.88926 8.83461C3.381 6.04376 5.66681 3.75795 8.45765 2.26621C11.9922 0.376953 16.6615 0.376953 26 0.376953C35.3385 0.376953 40.0078 0.376953 43.5423 2.26621C46.3332 3.75795 48.619 6.04376 50.1107 8.83461C52 12.3692 52 17.0384 52 26.377C52 35.7155 52 40.3847 50.1107 43.9193C48.619 46.7101 46.3332 48.996 43.5423 50.4877C40.0078 52.377 35.3385 52.377 26 52.377C16.6615 52.377 11.9922 52.377 8.45765 50.4877C5.66681 48.996 3.381 46.7101 1.88926 43.9193C0 40.3847 0 35.7155 0 26.377Z" fill="#515151"/>
<path d="M33.5497 36.2959V29.52H35.7986V38.5448H15.5V29.52H17.7489V36.2959H33.5497Z" fill="#FAFAFA"/>
<path d="M20.2317 28.8775L31.2718 31.1848L31.7391 28.9651L20.699 26.6578L20.2317 28.8775ZM21.692 23.6203L31.9143 28.381L32.8489 26.3365L22.6266 21.5466L21.692 23.6203ZM24.5251 18.5968L33.1994 25.8108L34.6305 24.0876L25.9562 16.8736L24.5251 18.5968ZM30.1327 13.252L28.3219 14.5955L35.0394 23.6495L36.8502 22.306L30.1327 13.252ZM19.998 34.0178H31.2718V31.7689H19.998V34.0178Z" fill="#FAFAFA"/>
</svg>
