<svg width="52" height="53" viewBox="0 0 52 53" fill="none" xmlns="http://www.w3.org/2000/svg">
<path d="M0 26.377C0 17.0384 0 12.3692 1.88926 8.83461C3.381 6.04376 5.66681 3.75795 8.45765 2.26621C11.9922 0.376953 16.6615 0.376953 26 0.376953C35.3385 0.376953 40.0078 0.376953 43.5423 2.26621C46.3332 3.75795 48.619 6.04376 50.1107 8.83461C52 12.3692 52 17.0384 52 26.377C52 35.7155 52 40.3847 50.1107 43.9193C48.619 46.7101 46.3332 48.996 43.5423 50.4877C40.0078 52.377 35.3385 52.377 26 52.377C16.6615 52.377 11.9922 52.377 8.45765 50.4877C5.66681 48.996 3.381 46.7101 1.88926 43.9193C0 40.3847 0 35.7155 0 26.377Z" fill="#515151"/>
<path d="M22.3744 35.6723C21.6162 35.6723 21.7451 35.386 21.4836 34.6641L19.2544 27.3276L36.4144 17.1472" fill="#BBBBBB"/>
<path d="M22.3745 35.6722C22.9595 35.6722 23.2179 35.4047 23.5445 35.0872L26.6645 32.0534L22.7727 29.7065" fill="white"/>
<path d="M22.7724 29.7072L32.2026 36.6744C33.2788 37.2681 34.0553 36.9606 34.3234 35.6754L38.162 17.5866C38.555 16.011 37.5614 15.2961 36.5318 15.7635L13.9917 24.4549C12.4532 25.072 12.4623 25.9304 13.7113 26.3128L19.4956 28.1183L32.8869 19.6699C33.5191 19.2866 34.0994 19.4925 33.6232 19.9153" fill="white"/>
</svg>
