<svg width="52" height="53" viewBox="0 0 52 53" fill="none" xmlns="http://www.w3.org/2000/svg">
<path d="M0 26.377C0 17.0384 0 12.3692 1.88926 8.83461C3.381 6.04376 5.66681 3.75795 8.45765 2.26621C11.9922 0.376953 16.6615 0.376953 26 0.376953C35.3385 0.376953 40.0078 0.376953 43.5423 2.26621C46.3332 3.75795 48.619 6.04376 50.1107 8.83461C52 12.3692 52 17.0384 52 26.377C52 35.7155 52 40.3847 50.1107 43.9193C48.619 46.7101 46.3332 48.996 43.5423 50.4877C40.0078 52.377 35.3385 52.377 26 52.377C16.6615 52.377 11.9922 52.377 8.45765 50.4877C5.66681 48.996 3.381 46.7101 1.88926 43.9193C0 40.3847 0 35.7155 0 26.377Z" fill="#515151"/>
<path fill-rule="evenodd" clip-rule="evenodd" d="M38.2499 19.1355C37.3469 19.5383 36.378 19.8117 35.3617 19.9337C36.4 19.3055 37.197 18.3077 37.5699 17.1215C36.5974 17.7054 35.5225 18.1266 34.3782 18.3557C33.4605 17.3691 32.1553 16.752 30.7076 16.752C27.9326 16.752 25.6805 19.0283 25.6805 21.8331C25.6805 22.2322 25.7244 22.6202 25.8122 22.9897C21.6333 22.7791 17.9298 20.754 15.451 17.6795C15.0196 18.4297 14.771 19.3018 14.771 20.233C14.771 21.9957 15.6594 23.5514 17.0085 24.4605C16.1859 24.4346 15.4108 24.2055 14.7308 23.8249C14.7308 23.8471 14.7308 23.8655 14.7308 23.8877C14.7308 26.3488 16.4637 28.4035 18.7634 28.8691C18.3429 28.9836 17.8969 29.0465 17.4399 29.0465C17.1145 29.0465 16.8001 29.0132 16.493 28.9541C17.1328 30.9717 18.99 32.4425 21.1873 32.4832C19.4653 33.8467 17.301 34.6597 14.9428 34.6597C14.537 34.6597 14.1385 34.6339 13.7437 34.5895C15.9665 36.0307 18.6098 36.8733 21.4505 36.8733C30.6966 36.8733 35.7529 29.1315 35.7529 22.417C35.7529 22.1952 35.7492 21.9772 35.7382 21.7592C36.7217 21.0423 37.5736 20.148 38.2463 19.1281L38.2499 19.1355Z" fill="white"/>
</svg>
