<svg width="52" height="53" viewBox="0 0 52 53" fill="none" xmlns="http://www.w3.org/2000/svg">
<path d="M0 26.377C0 17.0384 0 12.3692 1.88926 8.83461C3.381 6.04376 5.66681 3.75795 8.45765 2.26621C11.9922 0.376953 16.6615 0.376953 26 0.376953C35.3385 0.376953 40.0078 0.376953 43.5423 2.26621C46.3332 3.75795 48.619 6.04376 50.1107 8.83461C52 12.3692 52 17.0384 52 26.377C52 35.7155 52 40.3847 50.1107 43.9193C48.619 46.7101 46.3332 48.996 43.5423 50.4877C40.0078 52.377 35.3385 52.377 26 52.377C16.6615 52.377 11.9922 52.377 8.45765 50.4877C5.66681 48.996 3.381 46.7101 1.88926 43.9193C0 40.3847 0 35.7155 0 26.377Z" fill="#515151"/>
<path fill-rule="evenodd" clip-rule="evenodd" d="M26 12.377C18.2652 12.377 12 18.7998 12 26.7291C12 33.0727 16.0135 38.447 21.574 40.3501C22.2701 40.4822 22.5279 40.0417 22.5279 39.654C22.5279 39.3104 22.5193 38.4118 22.5107 37.2136C18.6176 38.077 17.7925 35.2929 17.7925 35.2929C17.1565 33.6365 16.237 33.1872 16.237 33.1872C14.965 32.2973 16.3315 32.315 16.3315 32.315C17.7324 32.4207 18.48 33.7951 18.48 33.7951C19.7262 35.9889 21.7544 35.3545 22.5537 34.9845C22.6826 34.0594 23.0436 33.4251 23.4389 33.0638C20.3364 32.7114 17.0706 31.478 17.0706 25.9803C17.0706 24.412 17.612 23.1345 18.5144 22.1301C18.3683 21.7601 17.887 20.3063 18.6433 18.3328C18.6433 18.3328 19.8207 17.9451 22.4936 19.8041C23.6108 19.487 24.8054 19.3284 26 19.3196C27.186 19.3284 28.3892 19.487 29.5064 19.8041C32.1793 17.9451 33.3567 18.3328 33.3567 18.3328C34.1215 20.3063 33.6403 21.7689 33.4942 22.1301C34.388 23.1345 34.9294 24.412 34.9294 25.9803C34.9294 31.4956 31.655 32.7026 28.5353 33.0638C29.0338 33.5044 29.4893 34.3854 29.4893 35.7246C29.4893 37.6453 29.4721 39.1871 29.4721 39.6628C29.4721 40.0505 29.7213 40.491 30.4346 40.3501C35.9951 38.447 40 33.0726 40 26.738C40 18.7998 33.7348 12.377 26 12.377Z" fill="white"/>
</svg>
