<svg width="52" height="52" viewBox="0 0 52 52" fill="none" xmlns="http://www.w3.org/2000/svg">
<path d="M0 26C0 16.6615 0 11.9922 1.88926 8.45765C3.381 5.66681 5.66681 3.381 8.45765 1.88926C11.9922 0 16.6615 0 26 0C35.3385 0 40.0078 0 43.5423 1.88926C46.3332 3.381 48.619 5.66681 50.1107 8.45765C52 11.9922 52 16.6615 52 26C52 35.3385 52 40.0078 50.1107 43.5423C48.619 46.3332 46.3332 48.619 43.5423 50.1107C40.0078 52 35.3385 52 26 52C16.6615 52 11.9922 52 8.45765 50.1107C5.66681 48.619 3.381 46.3332 1.88926 43.5423C0 40.0078 0 35.3385 0 26Z" fill="#1E1E1E"/>
<path fill-rule="evenodd" clip-rule="evenodd" d="M38.2499 18.7585C37.3469 19.1613 36.378 19.4348 35.3617 19.5567C36.4 18.9285 37.197 17.9308 37.5699 16.7445C36.5974 17.3284 35.5225 17.7497 34.3782 17.9788C33.4605 16.9921 32.1553 16.375 30.7076 16.375C27.9326 16.375 25.6805 18.6513 25.6805 21.4561C25.6805 21.8552 25.7244 22.2433 25.8122 22.6128C21.6333 22.4022 17.9298 20.3771 15.451 17.3025C15.0196 18.0527 14.771 18.9248 14.771 19.856C14.771 21.6187 15.6594 23.1745 17.0085 24.0835C16.1859 24.0577 15.4108 23.8286 14.7308 23.4479C14.7308 23.4701 14.7308 23.4886 14.7308 23.5108C14.7308 25.9719 16.4637 28.0265 18.7634 28.4921C18.3429 28.6067 17.8969 28.6695 17.4399 28.6695C17.1145 28.6695 16.8001 28.6362 16.493 28.5771C17.1328 30.5948 18.99 32.0656 21.1873 32.1062C19.4653 33.4698 17.301 34.2828 14.9428 34.2828C14.537 34.2828 14.1385 34.2569 13.7437 34.2126C15.9665 35.6538 18.6098 36.4963 21.4505 36.4963C30.6966 36.4963 35.7529 28.7545 35.7529 22.04C35.7529 21.8183 35.7492 21.6003 35.7382 21.3822C36.7217 20.6653 37.5736 19.771 38.2463 18.7511L38.2499 18.7585Z" fill="white"/>
</svg>
