<svg width="52" height="53" viewBox="0 0 52 53" fill="none" xmlns="http://www.w3.org/2000/svg">
<path d="M0 26.377C0 17.0384 0 12.3692 1.88926 8.83461C3.381 6.04376 5.66681 3.75795 8.45765 2.26621C11.9922 0.376953 16.6615 0.376953 26 0.376953C35.3385 0.376953 40.0078 0.376953 43.5423 2.26621C46.3332 3.75795 48.619 6.04376 50.1107 8.83461C52 12.3692 52 17.0384 52 26.377C52 35.7155 52 40.3847 50.1107 43.9193C48.619 46.7101 46.3332 48.996 43.5423 50.4877C40.0078 52.377 35.3385 52.377 26 52.377C16.6615 52.377 11.9922 52.377 8.45765 50.4877C5.66681 48.996 3.381 46.7101 1.88926 43.9193C0 40.3847 0 35.7155 0 26.377Z" fill="#515151"/>
<path fill-rule="evenodd" clip-rule="evenodd" d="M27.5826 28.089H31.8628C31.8628 28.089 32.3055 26.7834 32.4531 24.8975C32.4531 24.7524 32.4531 24.6074 32.4531 24.6074C32.4531 24.4623 32.4531 24.8975 32.4531 24.7524C32.4531 24.6074 32.4531 24.4623 32.4531 24.4623C32.4531 24.3172 32.4531 24.1722 32.4531 24.0271C32.0104 24.0271 27.4351 24.0271 27.4351 24.0271C27.4351 24.0271 27.4351 19.8202 27.4351 19.385C27.4351 18.9498 28.173 18.2245 28.7634 18.2245C29.3537 18.2245 30.682 18.2245 31.8628 18.2245C31.8628 17.4992 31.8628 16.0485 31.8628 14.0176C30.3869 14.0176 29.9441 14.0176 29.2061 14.0176C23.5977 14.0176 23.1549 18.9498 23.1549 19.6751C23.1549 20.4005 23.1549 24.1722 23.1549 24.1722H20.2031V26.058V28.5242H23.1549V36.6478V38.5176H27.5826V36.6478V28.089Z" fill="white"/>
</svg>
