<svg width="52" height="52" viewBox="0 0 52 52" fill="none" xmlns="http://www.w3.org/2000/svg">
<path d="M0 26C0 16.6615 0 11.9922 1.88926 8.45765C3.381 5.66681 5.66681 3.381 8.45765 1.88926C11.9922 0 16.6615 0 26 0C35.3385 0 40.0078 0 43.5423 1.88926C46.3332 3.381 48.619 5.66681 50.1107 8.45765C52 11.9922 52 16.6615 52 26C52 35.3385 52 40.0078 50.1107 43.5423C48.619 46.3332 46.3332 48.619 43.5423 50.1107C40.0078 52 35.3385 52 26 52C16.6615 52 11.9922 52 8.45765 50.1107C5.66681 48.619 3.381 46.3332 1.88926 43.5423C0 40.0078 0 35.3385 0 26Z" fill="#1E1E1E"/>
<path fill-rule="evenodd" clip-rule="evenodd" d="M27.5826 27.712H31.8628C31.8628 27.712 32.3055 26.4064 32.4531 24.5206C32.4531 24.3755 32.4531 24.2304 32.4531 24.2304C32.4531 24.0854 32.4531 24.5206 32.4531 24.3755C32.4531 24.2304 32.4531 24.0854 32.4531 24.0854C32.4531 23.9403 32.4531 23.7952 32.4531 23.6502C32.0104 23.6502 27.4351 23.6502 27.4351 23.6502C27.4351 23.6502 27.4351 19.4433 27.4351 19.0081C27.4351 18.5729 28.173 17.8475 28.7634 17.8475C29.3537 17.8475 30.682 17.8475 31.8628 17.8475C31.8628 17.1222 31.8628 15.6715 31.8628 13.6406C30.3869 13.6406 29.9441 13.6406 29.2061 13.6406C23.5977 13.6406 23.1549 18.5729 23.1549 19.2982C23.1549 20.0235 23.1549 23.7952 23.1549 23.7952H20.2031V25.6811V28.1472H23.1549V36.2709V38.1406H27.5826V36.2709V27.712Z" fill="white"/>
</svg>
