<svg width="52" height="52" viewBox="0 0 52 52" fill="none" xmlns="http://www.w3.org/2000/svg">
<path d="M0 26C0 16.6615 0 11.9922 1.88926 8.45765C3.381 5.66681 5.66681 3.381 8.45765 1.88926C11.9922 0 16.6615 0 26 0C35.3385 0 40.0078 0 43.5423 1.88926C46.3332 3.381 48.619 5.66681 50.1107 8.45765C52 11.9922 52 16.6615 52 26C52 35.3385 52 40.0078 50.1107 43.5423C48.619 46.3332 46.3332 48.619 43.5423 50.1107C40.0078 52 35.3385 52 26 52C16.6615 52 11.9922 52 8.45765 50.1107C5.66681 48.619 3.381 46.3332 1.88926 43.5423C0 40.0078 0 35.3385 0 26Z" fill="#1E1E1E"/>
<path d="M33.5497 35.919V29.1431H35.7986V38.1679H15.5V29.1431H17.7489V35.919H33.5497Z" fill="#FAFAFA"/>
<path d="M20.2317 28.5005L31.2718 30.8078L31.7391 28.5881L20.699 26.2808L20.2317 28.5005ZM21.692 23.2433L31.9143 28.004L32.8489 25.9595L22.6266 21.1697L21.692 23.2433ZM24.5251 18.2198L33.1994 25.4338L34.6305 23.7106L25.9562 16.4966L24.5251 18.2198ZM30.1327 12.875L28.3219 14.2185L35.0394 23.2725L36.8502 21.929L30.1327 12.875ZM19.998 33.6409H31.2718V31.392H19.998V33.6409Z" fill="#FAFAFA"/>
</svg>
