<svg width="52" height="52" viewBox="0 0 52 52" fill="none" xmlns="http://www.w3.org/2000/svg">
<path d="M0 26C0 16.6615 0 11.9922 1.88926 8.45765C3.381 5.66681 5.66681 3.381 8.45765 1.88926C11.9922 0 16.6615 0 26 0C35.3385 0 40.0078 0 43.5423 1.88926C46.3332 3.381 48.619 5.66681 50.1107 8.45765C52 11.9922 52 16.6615 52 26C52 35.3385 52 40.0078 50.1107 43.5423C48.619 46.3332 46.3332 48.619 43.5423 50.1107C40.0078 52 35.3385 52 26 52C16.6615 52 11.9922 52 8.45765 50.1107C5.66681 48.619 3.381 46.3332 1.88926 43.5423C0 40.0078 0 35.3385 0 26Z" fill="#1E1E1E"/>
<path d="M17.2622 20.7873C18.7307 20.7873 19.8995 19.5925 19.8995 18.1287C19.8995 16.665 18.7307 15.5 17.2622 15.5C15.7938 15.5 14.625 16.665 14.625 18.1287C14.625 19.5925 15.7938 20.7873 17.2622 20.7873ZM19.5698 36.5V22.0718H14.9547V36.5H19.5698Z" fill="white"/>
<path d="M37.375 36.5V26.2838C37.375 23.6252 35.8766 21.7134 32.58 21.7134C30.1525 21.7134 28.4443 22.8186 27.5752 23.8343V22.0718H22.96V36.5H27.5752V27.1799C28.1147 26.5228 29.0137 25.776 30.3923 25.776C31.8308 25.776 32.7598 26.4033 32.7598 28.1657V36.5H37.375Z" fill="white"/>
</svg>
