<svg width="52" height="53" viewBox="0 0 52 53" fill="none" xmlns="http://www.w3.org/2000/svg">
<path d="M0 26.377C0 17.0384 0 12.3692 1.88926 8.83461C3.381 6.04376 5.66681 3.75795 8.45765 2.26621C11.9922 0.376953 16.6615 0.376953 26 0.376953C35.3385 0.376953 40.0078 0.376953 43.5423 2.26621C46.3332 3.75795 48.619 6.04376 50.1107 8.83461C52 12.3692 52 17.0384 52 26.377C52 35.7155 52 40.3847 50.1107 43.9193C48.619 46.7101 46.3332 48.996 43.5423 50.4877C40.0078 52.377 35.3385 52.377 26 52.377C16.6615 52.377 11.9922 52.377 8.45765 50.4877C5.66681 48.996 3.381 46.7101 1.88926 43.9193C0 40.3847 0 35.7155 0 26.377Z" fill="#515151"/>
<path d="M17.2622 21.1643C18.7307 21.1643 19.8995 19.9694 19.8995 18.5057C19.8995 17.042 18.7307 15.877 17.2622 15.877C15.7938 15.877 14.625 17.042 14.625 18.5057C14.625 19.9694 15.7938 21.1643 17.2622 21.1643ZM19.5698 36.877V22.4488H14.9547V36.877H19.5698Z" fill="white"/>
<path d="M37.375 36.877V26.6607C37.375 24.0021 35.8766 22.0903 32.58 22.0903C30.1525 22.0903 28.4443 23.1956 27.5752 24.2112V22.4488H22.96V36.877H27.5752V27.5569C28.1147 26.8997 29.0137 26.1529 30.3923 26.1529C31.8308 26.1529 32.7598 26.7802 32.7598 28.5427V36.877H37.375Z" fill="white"/>
</svg>
