<svg width="52" height="52" viewBox="0 0 52 52" fill="none" xmlns="http://www.w3.org/2000/svg">
<path d="M0 26C0 16.6615 0 11.9922 1.88926 8.45765C3.381 5.66681 5.66681 3.381 8.45765 1.88926C11.9922 0 16.6615 0 26 0C35.3385 0 40.0078 0 43.5423 1.88926C46.3332 3.381 48.619 5.66681 50.1107 8.45765C52 11.9922 52 16.6615 52 26C52 35.3385 52 40.0078 50.1107 43.5423C48.619 46.3332 46.3332 48.619 43.5423 50.1107C40.0078 52 35.3385 52 26 52C16.6615 52 11.9922 52 8.45765 50.1107C5.66681 48.619 3.381 46.3332 1.88926 43.5423C0 40.0078 0 35.3385 0 26Z" fill="#1E1E1E"/>
<path d="M22.3744 35.2953C21.6162 35.2953 21.7451 35.009 21.4836 34.2872L19.2544 26.9507L36.4144 16.7703" fill="#BBBBBB"/>
<path d="M22.3745 35.2952C22.9595 35.2952 23.2179 35.0277 23.5445 34.7102L26.6645 31.6764L22.7727 29.3296" fill="white"/>
<path d="M22.7724 29.3302L32.2026 36.2974C33.2788 36.8912 34.0553 36.5837 34.3234 35.2984L38.162 17.2096C38.555 15.634 37.5614 14.9191 36.5318 15.3865L13.9917 24.0779C12.4532 24.6951 12.4623 25.5535 13.7113 25.9359L19.4956 27.7414L32.8869 19.293C33.5191 18.9096 34.0994 19.1155 33.6232 19.5383" fill="white"/>
</svg>
