<?xml version="1.0" encoding="UTF-8"?>
<svg width="988px" height="111px" viewBox="0 0 988 111" version="1.1" xmlns="http://www.w3.org/2000/svg" xmlns:xlink="http://www.w3.org/1999/xlink">
    <!-- Generator: Sketch 50.2 (55047) - http://www.bohemiancoding.com/sketch -->
    <title>4</title>
    <desc>Created with Sketch.</desc>
    <defs>
        <polygon id="path-1" points="0.06 0.04 32 0.04 32 34 0.06 34"></polygon>
        <polygon id="path-3" points="0.06 0.04 32 0.04 32 34 0.06 34"></polygon>
        <polygon id="path-5" points="0.06 0.04 32 0.04 32 34 0.06 34"></polygon>
        <polygon id="path-7" points="0.06 0.04 32 0.04 32 34 0.06 34"></polygon>
        <polygon id="path-9" points="0.06 0.04 32 0.04 32 34 0.06 34"></polygon>
        <polygon id="path-11" points="0.06 0.04 32 0.04 32 34 0.06 34"></polygon>
        <polygon id="path-13" points="0.06 0.04 32 0.04 32 34 0.06 34"></polygon>
        <polygon id="path-15" points="0.06 0.04 32 0.04 32 34 0.06 34"></polygon>
        <polygon id="path-17" points="0.06 0.04 32 0.04 32 34 0.06 34"></polygon>
        <polygon id="path-19" points="0.06 0.04 32 0.04 32 34 0.06 34"></polygon>
        <polygon id="path-21" points="0.06 0.04 32 0.04 32 34 0.06 34"></polygon>
        <polygon id="path-23" points="0.06 0.04 32 0.04 32 34 0.06 34"></polygon>
        <polygon id="path-25" points="0.06 0.04 32 0.04 32 34 0.06 34"></polygon>
        <polygon id="path-27" points="0.06 0.04 32 0.04 32 34 0.06 34"></polygon>
        <polygon id="path-29" points="0.06 0.04 32 0.04 32 34 0.06 34"></polygon>
        <polygon id="path-31" points="0.06 0.04 32 0.04 32 34 0.06 34"></polygon>
        <polygon id="path-33" points="0.06 0.04 32 0.04 32 34 0.06 34"></polygon>
        <polygon id="path-35" points="0.06 0.04 32 0.04 32 34 0.06 34"></polygon>
        <polygon id="path-37" points="0.06 0.04 32 0.04 32 34 0.06 34"></polygon>
        <polygon id="path-39" points="0.06 0.04 32 0.04 32 34 0.06 34"></polygon>
        <polygon id="path-41" points="0.06 0.04 32 0.04 32 34 0.06 34"></polygon>
        <polygon id="path-43" points="0.06 0.04 32 0.04 32 34 0.06 34"></polygon>
        <polygon id="path-45" points="0.06 0.04 32 0.04 32 34 0.06 34"></polygon>
    </defs>
    <g id="4" stroke="none" stroke-width="1" fill="none" fill-rule="evenodd">
        <g id="DIAGRAMS-/-BLOCK-/-data-mini" transform="translate(670.000000, 52.000000)">
            <path d="M8.87640449,0 L58,0 C60.209139,-4.05812251e-16 62,1.790861 62,4 L62,40.0388641 C50.4369109,40.0388641 40.9163117,42.5870731 33.4382022,47.6834913 C25.9600928,52.7799094 16.4394936,53.4814432 4.87640449,49.7880927 L4.87640449,4 C4.87640449,1.790861 6.6672655,4.05812251e-16 8.87640449,0 Z" id="Rectangle-2" fill="#D7D7D7"></path>
            <path d="M4,6 L53.1235955,6 C55.3327345,6 57.1235955,7.790861 57.1235955,10 L57.1235955,46.0388641 C45.5605064,46.0388641 36.0399072,48.5870731 28.5617978,53.6834913 C21.0836883,58.7799094 11.5630891,59.4814432 0,55.7880927 L0,10 C-2.705415e-16,7.790861 1.790861,6 4,6 Z" id="Rectangle-1" fill="#E1E1E1"></path>
            <text id="Text" font-family="OpenSans-Semibold, Open Sans" font-size="8" font-weight="500" line-spacing="12" fill="#000000">
                <tspan x="16.0273438" y="26">replica </tspan>
                <tspan x="19.8535156" y="38">set 5</tspan>
            </text>
        </g>
        <g id="DIAGRAMS-/-BLOCK-/-data-mini" transform="translate(846.000000, 52.000000)">
            <path d="M8.87640449,0 L58,0 C60.209139,-4.05812251e-16 62,1.790861 62,4 L62,40.0388641 C50.4369109,40.0388641 40.9163117,42.5870731 33.4382022,47.6834913 C25.9600928,52.7799094 16.4394936,53.4814432 4.87640449,49.7880927 L4.87640449,4 C4.87640449,1.790861 6.6672655,4.05812251e-16 8.87640449,0 Z" id="Rectangle-2" fill="#D7D7D7"></path>
            <path d="M4,6 L53.1235955,6 C55.3327345,6 57.1235955,7.790861 57.1235955,10 L57.1235955,46.0388641 C45.5605064,46.0388641 36.0399072,48.5870731 28.5617978,53.6834913 C21.0836883,58.7799094 11.5630891,59.4814432 0,55.7880927 L0,10 C-2.705415e-16,7.790861 1.790861,6 4,6 Z" id="Rectangle-1" fill="#E1E1E1"></path>
            <text id="Text" font-family="OpenSans-Semibold, Open Sans" font-size="8" font-weight="500" line-spacing="12" fill="#000000">
                <tspan x="16.0273438" y="26">replica </tspan>
                <tspan x="19.8535156" y="38">set 6</tspan>
            </text>
        </g>
        <g id="DIAGRAMS-/-BLOCK-/-data-mini" transform="translate(532.000000, 52.000000)">
            <path d="M8.87640449,0 L58,0 C60.209139,-4.05812251e-16 62,1.790861 62,4 L62,40.0388641 C50.4369109,40.0388641 40.9163117,42.5870731 33.4382022,47.6834913 C25.9600928,52.7799094 16.4394936,53.4814432 4.87640449,49.7880927 L4.87640449,4 C4.87640449,1.790861 6.6672655,4.05812251e-16 8.87640449,0 Z" id="Rectangle-2" fill="#D7D7D7"></path>
            <path d="M4,6 L53.1235955,6 C55.3327345,6 57.1235955,7.790861 57.1235955,10 L57.1235955,46.0388641 C45.5605064,46.0388641 36.0399072,48.5870731 28.5617978,53.6834913 C21.0836883,58.7799094 11.5630891,59.4814432 0,55.7880927 L0,10 C-2.705415e-16,7.790861 1.790861,6 4,6 Z" id="Rectangle-1" fill="#E1E1E1"></path>
            <text id="Text" font-family="OpenSans-Semibold, Open Sans" font-size="8" font-weight="500" line-spacing="12" fill="#000000">
                <tspan x="16.0273438" y="26">replica </tspan>
                <tspan x="19.8535156" y="38">set 4</tspan>
            </text>
        </g>
        <g id="DIAGRAMS-/-BLOCK-/-data-mini" transform="translate(356.000000, 52.000000)">
            <path d="M8.87640449,0 L58,0 C60.209139,-4.05812251e-16 62,1.790861 62,4 L62,40.0388641 C50.4369109,40.0388641 40.9163117,42.5870731 33.4382022,47.6834913 C25.9600928,52.7799094 16.4394936,53.4814432 4.87640449,49.7880927 L4.87640449,4 C4.87640449,1.790861 6.6672655,4.05812251e-16 8.87640449,0 Z" id="Rectangle-2" fill="#D7D7D7"></path>
            <path d="M4,6 L53.1235955,6 C55.3327345,6 57.1235955,7.790861 57.1235955,10 L57.1235955,46.0388641 C45.5605064,46.0388641 36.0399072,48.5870731 28.5617978,53.6834913 C21.0836883,58.7799094 11.5630891,59.4814432 0,55.7880927 L0,10 C-2.705415e-16,7.790861 1.790861,6 4,6 Z" id="Rectangle-1" fill="#E1E1E1"></path>
            <text id="Text" font-family="OpenSans-Semibold, Open Sans" font-size="8" font-weight="500" line-spacing="12" fill="#000000">
                <tspan x="16.0273438" y="26">replica </tspan>
                <tspan x="19.8535156" y="38">set 3</tspan>
            </text>
        </g>
        <g id="DIAGRAMS-/-BLOCK-/-data-mini" transform="translate(199.000000, 52.000000)">
            <path d="M8.87640449,0 L58,0 C60.209139,-4.05812251e-16 62,1.790861 62,4 L62,40.0388641 C50.4369109,40.0388641 40.9163117,42.5870731 33.4382022,47.6834913 C25.9600928,52.7799094 16.4394936,53.4814432 4.87640449,49.7880927 L4.87640449,4 C4.87640449,1.790861 6.6672655,4.05812251e-16 8.87640449,0 Z" id="Rectangle-2" fill="#D7D7D7"></path>
            <path d="M4,6 L53.1235955,6 C55.3327345,6 57.1235955,7.790861 57.1235955,10 L57.1235955,46.0388641 C45.5605064,46.0388641 36.0399072,48.5870731 28.5617978,53.6834913 C21.0836883,58.7799094 11.5630891,59.4814432 0,55.7880927 L0,10 C-2.705415e-16,7.790861 1.790861,6 4,6 Z" id="Rectangle-1" fill="#E1E1E1"></path>
            <text id="Text" font-family="OpenSans-Semibold, Open Sans" font-size="8" font-weight="500" line-spacing="12" fill="#000000">
                <tspan x="16.0273438" y="26">replica </tspan>
                <tspan x="19.8535156" y="38">set 2</tspan>
            </text>
        </g>
        <g id="DIAGRAMS-/-BLOCK-/-data-mini" transform="translate(42.000000, 52.000000)">
            <path d="M8.87640449,0 L58,0 C60.209139,-4.05812251e-16 62,1.790861 62,4 L62,40.0388641 C50.4369109,40.0388641 40.9163117,42.5870731 33.4382022,47.6834913 C25.9600928,52.7799094 16.4394936,53.4814432 4.87640449,49.7880927 L4.87640449,4 C4.87640449,1.790861 6.6672655,4.05812251e-16 8.87640449,0 Z" id="Rectangle-2" fill="#D7D7D7"></path>
            <path d="M4,6 L53.1235955,6 C55.3327345,6 57.1235955,7.790861 57.1235955,10 L57.1235955,46.0388641 C45.5605064,46.0388641 36.0399072,48.5870731 28.5617978,53.6834913 C21.0836883,58.7799094 11.5630891,59.4814432 0,55.7880927 L0,10 C-2.705415e-16,7.790861 1.790861,6 4,6 Z" id="Rectangle-1" fill="#E1E1E1"></path>
            <text id="Text" font-family="OpenSans-Semibold, Open Sans" font-size="8" font-weight="500" line-spacing="12" fill="#000000">
                <tspan x="16.0273438" y="26">replica </tspan>
                <tspan x="19.8535156" y="38">set 1</tspan>
            </text>
        </g>
        <g id="Group-2">
            <g id="Group">
                <mask id="mask-2" fill="white">
                    <use xlink:href="#path-1"></use>
                </mask>
                <g id="Clip-2"></g>
                <path d="M30,0 L2,0 C0.898,0 0,0.898 0,2 L0,8 C0,9.102 0.898,10 2,10 L30,10 C31.102,10 32,9.102 32,8 L32,2 C32,0.898 31.102,0 30,0" id="Fill-1" fill="#E1E1E1" mask="url(#mask-2)"></path>
                <path d="M30,12 L2,12 C0.898,12 0,12.898 0,14 L0,20 C0,21.102 0.898,22 2,22 L30,22 C31.102,22 32,21.102 32,20 L32,14 C32,12.898 31.102,12 30,12" id="Fill-3" fill="#E1E1E1" mask="url(#mask-2)"></path>
                <text id="1" mask="url(#mask-2)" font-family="OpenSans-Semibold, Open Sans" font-size="7" font-weight="500" fill="#000000">
                    <tspan x="14.0021973" y="20">1</tspan>
                </text>
                <path d="M30,24 L2,24 C0.898,24 0,24.898 0,26 L0,32 C0,33.102 0.898,34 2,34 L30,34 C31.102,34 32,33.102 32,32 L32,26 C32,24.898 31.102,24 30,24" id="Fill-4" fill="#E1E1E1" mask="url(#mask-2)"></path>
            </g>
            <g id="Group" transform="translate(38.000000, 0.000000)">
                <mask id="mask-4" fill="white">
                    <use xlink:href="#path-3"></use>
                </mask>
                <g id="Clip-2"></g>
                <path d="M30,0 L2,0 C0.898,0 0,0.898 0,2 L0,8 C0,9.102 0.898,10 2,10 L30,10 C31.102,10 32,9.102 32,8 L32,2 C32,0.898 31.102,0 30,0" id="Fill-1" fill="#E1E1E1" mask="url(#mask-4)"></path>
                <path d="M30,12 L2,12 C0.898,12 0,12.898 0,14 L0,20 C0,21.102 0.898,22 2,22 L30,22 C31.102,22 32,21.102 32,20 L32,14 C32,12.898 31.102,12 30,12" id="Fill-3" fill="#E1E1E1" mask="url(#mask-4)"></path>
                <text id="2" mask="url(#mask-4)" font-family="OpenSans-Semibold, Open Sans" font-size="7" font-weight="500" fill="#000000">
                    <tspan x="14.0021973" y="20">2</tspan>
                </text>
                <path d="M30,24 L2,24 C0.898,24 0,24.898 0,26 L0,32 C0,33.102 0.898,34 2,34 L30,34 C31.102,34 32,33.102 32,32 L32,26 C32,24.898 31.102,24 30,24" id="Fill-4" fill="#E1E1E1" mask="url(#mask-4)"></path>
            </g>
            <g id="Group" transform="translate(76.000000, 0.000000)">
                <mask id="mask-6" fill="white">
                    <use xlink:href="#path-5"></use>
                </mask>
                <g id="Clip-2"></g>
                <path d="M30,0 L2,0 C0.898,0 0,0.898 0,2 L0,8 C0,9.102 0.898,10 2,10 L30,10 C31.102,10 32,9.102 32,8 L32,2 C32,0.898 31.102,0 30,0" id="Fill-1" fill="#E1E1E1" mask="url(#mask-6)"></path>
                <path d="M30,12 L2,12 C0.898,12 0,12.898 0,14 L0,20 C0,21.102 0.898,22 2,22 L30,22 C31.102,22 32,21.102 32,20 L32,14 C32,12.898 31.102,12 30,12" id="Fill-3" fill="#E1E1E1" mask="url(#mask-6)"></path>
                <text id="3" mask="url(#mask-6)" font-family="OpenSans-Semibold, Open Sans" font-size="7" font-weight="500" fill="#000000">
                    <tspan x="14.0021973" y="20">3</tspan>
                </text>
                <path d="M30,24 L2,24 C0.898,24 0,24.898 0,26 L0,32 C0,33.102 0.898,34 2,34 L30,34 C31.102,34 32,33.102 32,32 L32,26 C32,24.898 31.102,24 30,24" id="Fill-4" fill="#E1E1E1" mask="url(#mask-6)"></path>
            </g>
            <g id="Group" transform="translate(114.000000, 0.000000)">
                <mask id="mask-8" fill="white">
                    <use xlink:href="#path-7"></use>
                </mask>
                <g id="Clip-2"></g>
                <path d="M30,0 L2,0 C0.898,0 0,0.898 0,2 L0,8 C0,9.102 0.898,10 2,10 L30,10 C31.102,10 32,9.102 32,8 L32,2 C32,0.898 31.102,0 30,0" id="Fill-1" fill="#E1E1E1" mask="url(#mask-8)"></path>
                <path d="M30,12 L2,12 C0.898,12 0,12.898 0,14 L0,20 C0,21.102 0.898,22 2,22 L30,22 C31.102,22 32,21.102 32,20 L32,14 C32,12.898 31.102,12 30,12" id="Fill-3" fill="#E1E1E1" mask="url(#mask-8)"></path>
                <text id="4" mask="url(#mask-8)" font-family="OpenSans-Semibold, Open Sans" font-size="7" font-weight="500" fill="#000000">
                    <tspan x="14.0021973" y="20">4</tspan>
                </text>
                <path d="M30,24 L2,24 C0.898,24 0,24.898 0,26 L0,32 C0,33.102 0.898,34 2,34 L30,34 C31.102,34 32,33.102 32,32 L32,26 C32,24.898 31.102,24 30,24" id="Fill-4" fill="#E1E1E1" mask="url(#mask-8)"></path>
            </g>
        </g>
        <g id="Group-4" transform="translate(314.000000, 0.000000)">
            <g id="Group">
                <mask id="mask-10" fill="white">
                    <use xlink:href="#path-9"></use>
                </mask>
                <g id="Clip-2"></g>
                <path d="M30,0 L2,0 C0.898,0 0,0.898 0,2 L0,8 C0,9.102 0.898,10 2,10 L30,10 C31.102,10 32,9.102 32,8 L32,2 C32,0.898 31.102,0 30,0" id="Fill-1" fill="#E1E1E1" mask="url(#mask-10)"></path>
                <path d="M30,12 L2,12 C0.898,12 0,12.898 0,14 L0,20 C0,21.102 0.898,22 2,22 L30,22 C31.102,22 32,21.102 32,20 L32,14 C32,12.898 31.102,12 30,12" id="Fill-3" fill="#E1E1E1" mask="url(#mask-10)"></path>
                <text id="8" mask="url(#mask-10)" font-family="OpenSans-Semibold, Open Sans" font-size="7" font-weight="500" fill="#000000">
                    <tspan x="14.0021973" y="20">8</tspan>
                </text>
                <path d="M30,24 L2,24 C0.898,24 0,24.898 0,26 L0,32 C0,33.102 0.898,34 2,34 L30,34 C31.102,34 32,33.102 32,32 L32,26 C32,24.898 31.102,24 30,24" id="Fill-4" fill="#E1E1E1" mask="url(#mask-10)"></path>
            </g>
            <g id="Group" transform="translate(38.000000, 0.000000)">
                <mask id="mask-12" fill="white">
                    <use xlink:href="#path-11"></use>
                </mask>
                <g id="Clip-2"></g>
                <path d="M30,0 L2,0 C0.898,0 0,0.898 0,2 L0,8 C0,9.102 0.898,10 2,10 L30,10 C31.102,10 32,9.102 32,8 L32,2 C32,0.898 31.102,0 30,0" id="Fill-1" fill="#E1E1E1" mask="url(#mask-12)"></path>
                <path d="M30,12 L2,12 C0.898,12 0,12.898 0,14 L0,20 C0,21.102 0.898,22 2,22 L30,22 C31.102,22 32,21.102 32,20 L32,14 C32,12.898 31.102,12 30,12" id="Fill-3" fill="#E1E1E1" mask="url(#mask-12)"></path>
                <text id="9" mask="url(#mask-12)" font-family="OpenSans-Semibold, Open Sans" font-size="7" font-weight="500" fill="#000000">
                    <tspan x="14.0021973" y="20">9</tspan>
                </text>
                <path d="M30,24 L2,24 C0.898,24 0,24.898 0,26 L0,32 C0,33.102 0.898,34 2,34 L30,34 C31.102,34 32,33.102 32,32 L32,26 C32,24.898 31.102,24 30,24" id="Fill-4" fill="#E1E1E1" mask="url(#mask-12)"></path>
            </g>
            <g id="Group" transform="translate(76.000000, 0.000000)">
                <mask id="mask-14" fill="white">
                    <use xlink:href="#path-13"></use>
                </mask>
                <g id="Clip-2"></g>
                <path d="M30,0 L2,0 C0.898,0 0,0.898 0,2 L0,8 C0,9.102 0.898,10 2,10 L30,10 C31.102,10 32,9.102 32,8 L32,2 C32,0.898 31.102,0 30,0" id="Fill-1" fill="#E1E1E1" mask="url(#mask-14)"></path>
                <path d="M30,12 L2,12 C0.898,12 0,12.898 0,14 L0,20 C0,21.102 0.898,22 2,22 L30,22 C31.102,22 32,21.102 32,20 L32,14 C32,12.898 31.102,12 30,12" id="Fill-3" fill="#E1E1E1" mask="url(#mask-14)"></path>
                <text id="10" mask="url(#mask-14)" font-family="OpenSans-Semibold, Open Sans" font-size="7" font-weight="500" fill="#000000">
                    <tspan x="12.0043945" y="20">10</tspan>
                </text>
                <path d="M30,24 L2,24 C0.898,24 0,24.898 0,26 L0,32 C0,33.102 0.898,34 2,34 L30,34 C31.102,34 32,33.102 32,32 L32,26 C32,24.898 31.102,24 30,24" id="Fill-4" fill="#E1E1E1" mask="url(#mask-14)"></path>
            </g>
            <g id="Group" transform="translate(114.000000, 0.000000)">
                <mask id="mask-16" fill="white">
                    <use xlink:href="#path-15"></use>
                </mask>
                <g id="Clip-2"></g>
                <path d="M30,0 L2,0 C0.898,0 0,0.898 0,2 L0,8 C0,9.102 0.898,10 2,10 L30,10 C31.102,10 32,9.102 32,8 L32,2 C32,0.898 31.102,0 30,0" id="Fill-1" fill="#E1E1E1" mask="url(#mask-16)"></path>
                <path d="M30,12 L2,12 C0.898,12 0,12.898 0,14 L0,20 C0,21.102 0.898,22 2,22 L30,22 C31.102,22 32,21.102 32,20 L32,14 C32,12.898 31.102,12 30,12" id="Fill-3" fill="#E1E1E1" mask="url(#mask-16)"></path>
                <text id="11" mask="url(#mask-16)" font-family="OpenSans-Semibold, Open Sans" font-size="7" font-weight="500" fill="#000000">
                    <tspan x="12.0043945" y="20">11</tspan>
                </text>
                <path d="M30,24 L2,24 C0.898,24 0,24.898 0,26 L0,32 C0,33.102 0.898,34 2,34 L30,34 C31.102,34 32,33.102 32,32 L32,26 C32,24.898 31.102,24 30,24" id="Fill-4" fill="#E1E1E1" mask="url(#mask-16)"></path>
            </g>
        </g>
        <g id="Group-5" transform="translate(490.000000, 0.000000)">
            <g id="Group">
                <mask id="mask-18" fill="white">
                    <use xlink:href="#path-17"></use>
                </mask>
                <g id="Clip-2"></g>
                <path d="M30,0 L2,0 C0.898,0 0,0.898 0,2 L0,8 C0,9.102 0.898,10 2,10 L30,10 C31.102,10 32,9.102 32,8 L32,2 C32,0.898 31.102,0 30,0" id="Fill-1" fill="#E1E1E1" mask="url(#mask-18)"></path>
                <path d="M30,12 L2,12 C0.898,12 0,12.898 0,14 L0,20 C0,21.102 0.898,22 2,22 L30,22 C31.102,22 32,21.102 32,20 L32,14 C32,12.898 31.102,12 30,12" id="Fill-3" fill="#E1E1E1" mask="url(#mask-18)"></path>
                <text id="12" mask="url(#mask-18)" font-family="OpenSans-Semibold, Open Sans" font-size="7" font-weight="500" fill="#000000">
                    <tspan x="12.0043945" y="20">12</tspan>
                </text>
                <path d="M30,24 L2,24 C0.898,24 0,24.898 0,26 L0,32 C0,33.102 0.898,34 2,34 L30,34 C31.102,34 32,33.102 32,32 L32,26 C32,24.898 31.102,24 30,24" id="Fill-4" fill="#E1E1E1" mask="url(#mask-18)"></path>
            </g>
            <g id="Group" transform="translate(38.000000, 0.000000)">
                <mask id="mask-20" fill="white">
                    <use xlink:href="#path-19"></use>
                </mask>
                <g id="Clip-2"></g>
                <path d="M30,0 L2,0 C0.898,0 0,0.898 0,2 L0,8 C0,9.102 0.898,10 2,10 L30,10 C31.102,10 32,9.102 32,8 L32,2 C32,0.898 31.102,0 30,0" id="Fill-1" fill="#E1E1E1" mask="url(#mask-20)"></path>
                <path d="M30,12 L2,12 C0.898,12 0,12.898 0,14 L0,20 C0,21.102 0.898,22 2,22 L30,22 C31.102,22 32,21.102 32,20 L32,14 C32,12.898 31.102,12 30,12" id="Fill-3" fill="#E1E1E1" mask="url(#mask-20)"></path>
                <text id="13" mask="url(#mask-20)" font-family="OpenSans-Semibold, Open Sans" font-size="7" font-weight="500" fill="#000000">
                    <tspan x="12.0043945" y="20">13</tspan>
                </text>
                <path d="M30,24 L2,24 C0.898,24 0,24.898 0,26 L0,32 C0,33.102 0.898,34 2,34 L30,34 C31.102,34 32,33.102 32,32 L32,26 C32,24.898 31.102,24 30,24" id="Fill-4" fill="#E1E1E1" mask="url(#mask-20)"></path>
            </g>
            <g id="Group" transform="translate(76.000000, 0.000000)">
                <mask id="mask-22" fill="white">
                    <use xlink:href="#path-21"></use>
                </mask>
                <g id="Clip-2"></g>
                <path d="M30,0 L2,0 C0.898,0 0,0.898 0,2 L0,8 C0,9.102 0.898,10 2,10 L30,10 C31.102,10 32,9.102 32,8 L32,2 C32,0.898 31.102,0 30,0" id="Fill-1" fill="#E1E1E1" mask="url(#mask-22)"></path>
                <path d="M30,12 L2,12 C0.898,12 0,12.898 0,14 L0,20 C0,21.102 0.898,22 2,22 L30,22 C31.102,22 32,21.102 32,20 L32,14 C32,12.898 31.102,12 30,12" id="Fill-3" fill="#E1E1E1" mask="url(#mask-22)"></path>
                <text id="14" mask="url(#mask-22)" font-family="OpenSans-Semibold, Open Sans" font-size="7" font-weight="500" fill="#000000">
                    <tspan x="12.0043945" y="20">14</tspan>
                </text>
                <path d="M30,24 L2,24 C0.898,24 0,24.898 0,26 L0,32 C0,33.102 0.898,34 2,34 L30,34 C31.102,34 32,33.102 32,32 L32,26 C32,24.898 31.102,24 30,24" id="Fill-4" fill="#E1E1E1" mask="url(#mask-22)"></path>
            </g>
            <g id="Group" transform="translate(114.000000, 0.000000)">
                <mask id="mask-24" fill="white">
                    <use xlink:href="#path-23"></use>
                </mask>
                <g id="Clip-2"></g>
                <path d="M30,0 L2,0 C0.898,0 0,0.898 0,2 L0,8 C0,9.102 0.898,10 2,10 L30,10 C31.102,10 32,9.102 32,8 L32,2 C32,0.898 31.102,0 30,0" id="Fill-1" fill="#E1E1E1" mask="url(#mask-24)"></path>
                <path d="M30,12 L2,12 C0.898,12 0,12.898 0,14 L0,20 C0,21.102 0.898,22 2,22 L30,22 C31.102,22 32,21.102 32,20 L32,14 C32,12.898 31.102,12 30,12" id="Fill-3" fill="#E1E1E1" mask="url(#mask-24)"></path>
                <text id="15" mask="url(#mask-24)" font-family="OpenSans-Semibold, Open Sans" font-size="7" font-weight="500" fill="#000000">
                    <tspan x="12.0043945" y="20">15</tspan>
                </text>
                <path d="M30,24 L2,24 C0.898,24 0,24.898 0,26 L0,32 C0,33.102 0.898,34 2,34 L30,34 C31.102,34 32,33.102 32,32 L32,26 C32,24.898 31.102,24 30,24" id="Fill-4" fill="#E1E1E1" mask="url(#mask-24)"></path>
            </g>
        </g>
        <g id="Group-7" transform="translate(766.000000, 0.000000)">
            <g id="Group">
                <mask id="mask-26" fill="white">
                    <use xlink:href="#path-25"></use>
                </mask>
                <g id="Clip-2"></g>
                <path d="M30,0 L2,0 C0.898,0 0,0.898 0,2 L0,8 C0,9.102 0.898,10 2,10 L30,10 C31.102,10 32,9.102 32,8 L32,2 C32,0.898 31.102,0 30,0" id="Fill-1" fill="#E1E1E1" mask="url(#mask-26)"></path>
                <path d="M30,12 L2,12 C0.898,12 0,12.898 0,14 L0,20 C0,21.102 0.898,22 2,22 L30,22 C31.102,22 32,21.102 32,20 L32,14 C32,12.898 31.102,12 30,12" id="Fill-3" fill="#E1E1E1" mask="url(#mask-26)"></path>
                <text id="18" mask="url(#mask-26)" font-family="OpenSans-Semibold, Open Sans" font-size="7" font-weight="500" fill="#000000">
                    <tspan x="12.0043945" y="20">18</tspan>
                </text>
                <path d="M30,24 L2,24 C0.898,24 0,24.898 0,26 L0,32 C0,33.102 0.898,34 2,34 L30,34 C31.102,34 32,33.102 32,32 L32,26 C32,24.898 31.102,24 30,24" id="Fill-4" fill="#E1E1E1" mask="url(#mask-26)"></path>
            </g>
            <g id="Group" transform="translate(38.000000, 0.000000)">
                <mask id="mask-28" fill="white">
                    <use xlink:href="#path-27"></use>
                </mask>
                <g id="Clip-2"></g>
                <path d="M30,0 L2,0 C0.898,0 0,0.898 0,2 L0,8 C0,9.102 0.898,10 2,10 L30,10 C31.102,10 32,9.102 32,8 L32,2 C32,0.898 31.102,0 30,0" id="Fill-1" fill="#E1E1E1" mask="url(#mask-28)"></path>
                <path d="M30,12 L2,12 C0.898,12 0,12.898 0,14 L0,20 C0,21.102 0.898,22 2,22 L30,22 C31.102,22 32,21.102 32,20 L32,14 C32,12.898 31.102,12 30,12" id="Fill-3" fill="#E1E1E1" mask="url(#mask-28)"></path>
                <text id="19" mask="url(#mask-28)" font-family="OpenSans-Semibold, Open Sans" font-size="7" font-weight="500" fill="#000000">
                    <tspan x="12.0043945" y="20">19</tspan>
                </text>
                <path d="M30,24 L2,24 C0.898,24 0,24.898 0,26 L0,32 C0,33.102 0.898,34 2,34 L30,34 C31.102,34 32,33.102 32,32 L32,26 C32,24.898 31.102,24 30,24" id="Fill-4" fill="#E1E1E1" mask="url(#mask-28)"></path>
            </g>
            <g id="Group" transform="translate(76.000000, 0.000000)">
                <mask id="mask-30" fill="white">
                    <use xlink:href="#path-29"></use>
                </mask>
                <g id="Clip-2"></g>
                <path d="M30,0 L2,0 C0.898,0 0,0.898 0,2 L0,8 C0,9.102 0.898,10 2,10 L30,10 C31.102,10 32,9.102 32,8 L32,2 C32,0.898 31.102,0 30,0" id="Fill-1" fill="#E1E1E1" mask="url(#mask-30)"></path>
                <path d="M30,12 L2,12 C0.898,12 0,12.898 0,14 L0,20 C0,21.102 0.898,22 2,22 L30,22 C31.102,22 32,21.102 32,20 L32,14 C32,12.898 31.102,12 30,12" id="Fill-3" fill="#E1E1E1" mask="url(#mask-30)"></path>
                <text id="20" mask="url(#mask-30)" font-family="OpenSans-Semibold, Open Sans" font-size="7" font-weight="500" fill="#000000">
                    <tspan x="12.0043945" y="20">20</tspan>
                </text>
                <path d="M30,24 L2,24 C0.898,24 0,24.898 0,26 L0,32 C0,33.102 0.898,34 2,34 L30,34 C31.102,34 32,33.102 32,32 L32,26 C32,24.898 31.102,24 30,24" id="Fill-4" fill="#E1E1E1" mask="url(#mask-30)"></path>
            </g>
            <g id="Group" transform="translate(114.000000, 0.000000)">
                <mask id="mask-32" fill="white">
                    <use xlink:href="#path-31"></use>
                </mask>
                <g id="Clip-2"></g>
                <path d="M30,0 L2,0 C0.898,0 0,0.898 0,2 L0,8 C0,9.102 0.898,10 2,10 L30,10 C31.102,10 32,9.102 32,8 L32,2 C32,0.898 31.102,0 30,0" id="Fill-1" fill="#E1E1E1" mask="url(#mask-32)"></path>
                <path d="M30,12 L2,12 C0.898,12 0,12.898 0,14 L0,20 C0,21.102 0.898,22 2,22 L30,22 C31.102,22 32,21.102 32,20 L32,14 C32,12.898 31.102,12 30,12" id="Fill-3" fill="#E1E1E1" mask="url(#mask-32)"></path>
                <text id="21" mask="url(#mask-32)" font-family="OpenSans-Semibold, Open Sans" font-size="7" font-weight="500" fill="#000000">
                    <tspan x="12.0043945" y="20">21</tspan>
                </text>
                <path d="M30,24 L2,24 C0.898,24 0,24.898 0,26 L0,32 C0,33.102 0.898,34 2,34 L30,34 C31.102,34 32,33.102 32,32 L32,26 C32,24.898 31.102,24 30,24" id="Fill-4" fill="#E1E1E1" mask="url(#mask-32)"></path>
            </g>
            <g id="Group" transform="translate(152.000000, 0.000000)">
                <mask id="mask-34" fill="white">
                    <use xlink:href="#path-33"></use>
                </mask>
                <g id="Clip-2"></g>
                <path d="M30,0 L2,0 C0.898,0 0,0.898 0,2 L0,8 C0,9.102 0.898,10 2,10 L30,10 C31.102,10 32,9.102 32,8 L32,2 C32,0.898 31.102,0 30,0" id="Fill-1" fill="#E1E1E1" mask="url(#mask-34)"></path>
                <path d="M30,12 L2,12 C0.898,12 0,12.898 0,14 L0,20 C0,21.102 0.898,22 2,22 L30,22 C31.102,22 32,21.102 32,20 L32,14 C32,12.898 31.102,12 30,12" id="Fill-3" fill="#E1E1E1" mask="url(#mask-34)"></path>
                <text id="22" mask="url(#mask-34)" font-family="OpenSans-Semibold, Open Sans" font-size="7" font-weight="500" fill="#000000">
                    <tspan x="12.0043945" y="20">22</tspan>
                </text>
                <path d="M30,24 L2,24 C0.898,24 0,24.898 0,26 L0,32 C0,33.102 0.898,34 2,34 L30,34 C31.102,34 32,33.102 32,32 L32,26 C32,24.898 31.102,24 30,24" id="Fill-4" fill="#E1E1E1" mask="url(#mask-34)"></path>
            </g>
            <g id="Group" transform="translate(190.000000, 0.000000)">
                <mask id="mask-36" fill="white">
                    <use xlink:href="#path-35"></use>
                </mask>
                <g id="Clip-2"></g>
                <path d="M30,0 L2,0 C0.898,0 0,0.898 0,2 L0,8 C0,9.102 0.898,10 2,10 L30,10 C31.102,10 32,9.102 32,8 L32,2 C32,0.898 31.102,0 30,0" id="Fill-1" fill="#E1E1E1" mask="url(#mask-36)"></path>
                <path d="M30,12 L2,12 C0.898,12 0,12.898 0,14 L0,20 C0,21.102 0.898,22 2,22 L30,22 C31.102,22 32,21.102 32,20 L32,14 C32,12.898 31.102,12 30,12" id="Fill-3" fill="#E1E1E1" mask="url(#mask-36)"></path>
                <text id="23" mask="url(#mask-36)" font-family="OpenSans-Semibold, Open Sans" font-size="7" font-weight="500" fill="#000000">
                    <tspan x="12.0043945" y="20">23</tspan>
                </text>
                <path d="M30,24 L2,24 C0.898,24 0,24.898 0,26 L0,32 C0,33.102 0.898,34 2,34 L30,34 C31.102,34 32,33.102 32,32 L32,26 C32,24.898 31.102,24 30,24" id="Fill-4" fill="#E1E1E1" mask="url(#mask-36)"></path>
            </g>
        </g>
        <g id="Group-6" transform="translate(666.000000, 0.000000)">
            <g id="Group">
                <mask id="mask-38" fill="white">
                    <use xlink:href="#path-37"></use>
                </mask>
                <g id="Clip-2"></g>
                <path d="M30,0 L2,0 C0.898,0 0,0.898 0,2 L0,8 C0,9.102 0.898,10 2,10 L30,10 C31.102,10 32,9.102 32,8 L32,2 C32,0.898 31.102,0 30,0" id="Fill-1" fill="#E1E1E1" mask="url(#mask-38)"></path>
                <path d="M30,12 L2,12 C0.898,12 0,12.898 0,14 L0,20 C0,21.102 0.898,22 2,22 L30,22 C31.102,22 32,21.102 32,20 L32,14 C32,12.898 31.102,12 30,12" id="Fill-3" fill="#E1E1E1" mask="url(#mask-38)"></path>
                <text id="16" mask="url(#mask-38)" font-family="OpenSans-Semibold, Open Sans" font-size="7" font-weight="500" fill="#000000">
                    <tspan x="12.0043945" y="20">16</tspan>
                </text>
                <path d="M30,24 L2,24 C0.898,24 0,24.898 0,26 L0,32 C0,33.102 0.898,34 2,34 L30,34 C31.102,34 32,33.102 32,32 L32,26 C32,24.898 31.102,24 30,24" id="Fill-4" fill="#E1E1E1" mask="url(#mask-38)"></path>
            </g>
            <g id="Group" transform="translate(38.000000, 0.000000)">
                <mask id="mask-40" fill="white">
                    <use xlink:href="#path-39"></use>
                </mask>
                <g id="Clip-2"></g>
                <path d="M30,0 L2,0 C0.898,0 0,0.898 0,2 L0,8 C0,9.102 0.898,10 2,10 L30,10 C31.102,10 32,9.102 32,8 L32,2 C32,0.898 31.102,0 30,0" id="Fill-1" fill="#E1E1E1" mask="url(#mask-40)"></path>
                <path d="M30,12 L2,12 C0.898,12 0,12.898 0,14 L0,20 C0,21.102 0.898,22 2,22 L30,22 C31.102,22 32,21.102 32,20 L32,14 C32,12.898 31.102,12 30,12" id="Fill-3" fill="#E1E1E1" mask="url(#mask-40)"></path>
                <text id="17" mask="url(#mask-40)" font-family="OpenSans-Semibold, Open Sans" font-size="7" font-weight="500" fill="#000000">
                    <tspan x="12.0043945" y="20">17</tspan>
                </text>
                <path d="M30,24 L2,24 C0.898,24 0,24.898 0,26 L0,32 C0,33.102 0.898,34 2,34 L30,34 C31.102,34 32,33.102 32,32 L32,26 C32,24.898 31.102,24 30,24" id="Fill-4" fill="#E1E1E1" mask="url(#mask-40)"></path>
            </g>
        </g>
        <g id="Group-3" transform="translate(176.000000, 0.000000)">
            <g id="Group">
                <mask id="mask-42" fill="white">
                    <use xlink:href="#path-41"></use>
                </mask>
                <g id="Clip-2"></g>
                <path d="M30,0 L2,0 C0.898,0 0,0.898 0,2 L0,8 C0,9.102 0.898,10 2,10 L30,10 C31.102,10 32,9.102 32,8 L32,2 C32,0.898 31.102,0 30,0" id="Fill-1" fill="#E1E1E1" mask="url(#mask-42)"></path>
                <path d="M30,12 L2,12 C0.898,12 0,12.898 0,14 L0,20 C0,21.102 0.898,22 2,22 L30,22 C31.102,22 32,21.102 32,20 L32,14 C32,12.898 31.102,12 30,12" id="Fill-3" fill="#E1E1E1" mask="url(#mask-42)"></path>
                <text id="5" mask="url(#mask-42)" font-family="OpenSans-Semibold, Open Sans" font-size="7" font-weight="500" fill="#000000">
                    <tspan x="14.0021973" y="20">5</tspan>
                </text>
                <path d="M30,24 L2,24 C0.898,24 0,24.898 0,26 L0,32 C0,33.102 0.898,34 2,34 L30,34 C31.102,34 32,33.102 32,32 L32,26 C32,24.898 31.102,24 30,24" id="Fill-4" fill="#E1E1E1" mask="url(#mask-42)"></path>
            </g>
            <g id="Group" transform="translate(38.000000, 0.000000)">
                <mask id="mask-44" fill="white">
                    <use xlink:href="#path-43"></use>
                </mask>
                <g id="Clip-2"></g>
                <path d="M30,0 L2,0 C0.898,0 0,0.898 0,2 L0,8 C0,9.102 0.898,10 2,10 L30,10 C31.102,10 32,9.102 32,8 L32,2 C32,0.898 31.102,0 30,0" id="Fill-1" fill="#E1E1E1" mask="url(#mask-44)"></path>
                <path d="M30,12 L2,12 C0.898,12 0,12.898 0,14 L0,20 C0,21.102 0.898,22 2,22 L30,22 C31.102,22 32,21.102 32,20 L32,14 C32,12.898 31.102,12 30,12" id="Fill-3" fill="#E1E1E1" mask="url(#mask-44)"></path>
                <text id="6" mask="url(#mask-44)" font-family="OpenSans-Semibold, Open Sans" font-size="7" font-weight="500" fill="#000000">
                    <tspan x="14.0021973" y="20">6</tspan>
                </text>
                <path d="M30,24 L2,24 C0.898,24 0,24.898 0,26 L0,32 C0,33.102 0.898,34 2,34 L30,34 C31.102,34 32,33.102 32,32 L32,26 C32,24.898 31.102,24 30,24" id="Fill-4" fill="#E1E1E1" mask="url(#mask-44)"></path>
            </g>
            <g id="Group" transform="translate(76.000000, 0.000000)">
                <mask id="mask-46" fill="white">
                    <use xlink:href="#path-45"></use>
                </mask>
                <g id="Clip-2"></g>
                <path d="M30,0 L2,0 C0.898,0 0,0.898 0,2 L0,8 C0,9.102 0.898,10 2,10 L30,10 C31.102,10 32,9.102 32,8 L32,2 C32,0.898 31.102,0 30,0" id="Fill-1" fill="#E1E1E1" mask="url(#mask-46)"></path>
                <path d="M30,12 L2,12 C0.898,12 0,12.898 0,14 L0,20 C0,21.102 0.898,22 2,22 L30,22 C31.102,22 32,21.102 32,20 L32,14 C32,12.898 31.102,12 30,12" id="Fill-3" fill="#E1E1E1" mask="url(#mask-46)"></path>
                <text id="7" mask="url(#mask-46)" font-family="OpenSans-Semibold, Open Sans" font-size="7" font-weight="500" fill="#000000">
                    <tspan x="14.0021973" y="20">7</tspan>
                </text>
                <path d="M30,24 L2,24 C0.898,24 0,24.898 0,26 L0,32 C0,33.102 0.898,34 2,34 L30,34 C31.102,34 32,33.102 32,32 L32,26 C32,24.898 31.102,24 30,24" id="Fill-4" fill="#E1E1E1" mask="url(#mask-46)"></path>
            </g>
        </g>
    </g>
</svg>