<?xml version="1.0" encoding="UTF-8"?>
<svg width="393px" height="215px" viewBox="0 0 393 215" version="1.1" xmlns="http://www.w3.org/2000/svg" xmlns:xlink="http://www.w3.org/1999/xlink">
    <!-- Generator: Sketch 47.1 (45422) - http://www.bohemiancoding.com/sketch -->
    <title>mm-2m-mesh copy</title>
    <desc>Created with Sketch.</desc>
    <defs></defs>
    <g id="Page-1" stroke="none" stroke-width="1" fill="none" fill-rule="evenodd">
        <g id="mm-2m-mesh-copy">
            <g id="Round_block-Copy-45" transform="translate(55.000000, 84.000000)">
                <rect id="Rectangle-Copy-14" fill="#E1E1E1" x="0" y="0" width="124" height="32" rx="14"></rect>
                <path d="M39.0458984,20 L37.6630859,20 L37.6630859,16.0039062 C37.6630859,15.50781 37.5693369,15.1376965 37.3818359,14.8935547 C37.194335,14.6494128 36.9013692,14.5273438 36.5029297,14.5273438 C35.971677,14.5273438 35.5820325,14.7001936 35.3339844,15.0458984 C35.0859363,15.3916033 34.9619141,15.9667929 34.9619141,16.7714844 L34.9619141,20 L33.5849609,20 L33.5849609,13.5195312 L34.6630859,13.5195312 L34.8564453,14.3691406 L34.9267578,14.3691406 C35.1064462,14.0605453 35.3671858,13.8222665 35.7089844,13.6542969 C36.050783,13.4863273 36.4267558,13.4023438 36.8369141,13.4023438 C37.8330128,13.4023438 38.4931624,13.7421841 38.8173828,14.421875 L38.9111328,14.421875 C39.10254,14.1015609 39.3720686,13.8515634 39.7197266,13.671875 C40.0673846,13.4921866 40.4658181,13.4023438 40.9150391,13.4023438 C41.6884804,13.4023438 42.2519514,13.5976543 42.6054688,13.9882812 C42.9589861,14.3789082 43.1357422,14.9746054 43.1357422,15.7753906 L43.1357422,20 L41.7587891,20 L41.7587891,16.0039062 C41.7587891,15.50781 41.6640634,15.1376965 41.4746094,14.8935547 C41.2851553,14.6494128 40.9912129,14.5273438 40.5927734,14.5273438 C40.0576145,14.5273438 39.6660169,14.6943343 39.4179688,15.0283203 C39.1699206,15.3623064 39.0458984,15.8749965 39.0458984,16.5664062 L39.0458984,20 Z M49.1123047,20 L48.8369141,19.0976562 L48.7900391,19.0976562 C48.4775375,19.4921895 48.1630875,19.7607415 47.8466797,19.9033203 C47.5302719,20.0458992 47.1240259,20.1171875 46.6279297,20.1171875 C45.9912078,20.1171875 45.4941424,19.9453142 45.1367188,19.6015625 C44.7792951,19.2578108 44.6005859,18.7714875 44.6005859,18.1425781 C44.6005859,17.474606 44.8486303,16.9707048 45.3447266,16.6308594 C45.8408228,16.2910139 46.5966746,16.1054689 47.6123047,16.0742188 L48.7314453,16.0390625 L48.7314453,15.6933594 C48.7314453,15.2792948 48.6347666,14.9697276 48.4414062,14.7646484 C48.2480459,14.5595693 47.9482442,14.4570312 47.5419922,14.4570312 C47.2099593,14.4570312 46.8916031,14.5058589 46.5869141,14.6035156 C46.282225,14.7011724 45.9892592,14.8164056 45.7080078,14.9492188 L45.2626953,13.9648438 C45.6142596,13.7812491 45.9990213,13.641602 46.4169922,13.5458984 C46.834963,13.4501948 47.2294903,13.4023438 47.6005859,13.4023438 C48.4248088,13.4023438 49.0468729,13.5820295 49.4667969,13.9414062 C49.8867208,14.300783 50.0966797,14.8652305 50.0966797,15.6347656 L50.0966797,20 L49.1123047,20 Z M47.0615234,19.0625 C47.5615259,19.0625 47.9628891,18.922853 48.265625,18.6435547 C48.5683609,18.3642564 48.7197266,17.9726588 48.7197266,17.46875 L48.7197266,16.90625 L47.8876953,16.9414062 C47.2392546,16.9648439 46.7675796,17.0732412 46.4726562,17.2666016 C46.1777329,17.4599619 46.0302734,17.7558574 46.0302734,18.1542969 C46.0302734,18.4433608 46.1162101,18.6669914 46.2880859,18.8251953 C46.4599618,18.9833992 46.7177717,19.0625 47.0615234,19.0625 Z M56.3720703,18.1542969 C56.3720703,18.7871125 56.1416039,19.2724592 55.6806641,19.6103516 C55.2197243,19.9482439 54.5595746,20.1171875 53.7001953,20.1171875 C52.8369097,20.1171875 52.1435573,19.9863294 51.6201172,19.7246094 L51.6201172,18.5351562 C52.3818397,18.8867205 53.090817,19.0625 53.7470703,19.0625 C54.5947308,19.0625 55.0185547,18.8066432 55.0185547,18.2949219 C55.0185547,18.1308586 54.9716802,17.9941412 54.8779297,17.8847656 C54.7841792,17.7753901 54.6298839,17.66211 54.4150391,17.5449219 C54.2001942,17.4277338 53.9013691,17.2949226 53.5185547,17.1464844 C52.7724572,16.8574204 52.2675794,16.5683608 52.0039062,16.2792969 C51.7402331,15.9902329 51.6083984,15.6152367 51.6083984,15.1542969 C51.6083984,14.5996066 51.832029,14.1689468 52.2792969,13.8623047 C52.7265647,13.5556625 53.3349571,13.4023438 54.1044922,13.4023438 C54.8662147,13.4023438 55.5869107,13.5566391 56.2666016,13.8652344 L55.8212891,14.9023438 C55.1220668,14.6132798 54.5341821,14.46875 54.0576172,14.46875 C53.3310511,14.46875 52.9677734,14.6757792 52.9677734,15.0898438 C52.9677734,15.2929698 53.0624991,15.464843 53.2519531,15.6054688 C53.4414072,15.7460945 53.854489,15.9394519 54.4912109,16.1855469 C55.0263699,16.3925792 55.4150379,16.5820304 55.6572266,16.7539062 C55.8994153,16.9257821 56.079101,17.1240223 56.1962891,17.3486328 C56.3134771,17.5732433 56.3720703,17.8417953 56.3720703,18.1542969 Z M60.2744141,19.0039062 C60.6103532,19.0039062 60.9462874,18.9511724 61.2822266,18.8457031 L61.2822266,19.8828125 C61.1298821,19.9492191 60.933595,20.0048826 60.6933594,20.0498047 C60.4531238,20.0947268 60.2041029,20.1171875 59.9462891,20.1171875 C58.641595,20.1171875 57.9892578,19.4296944 57.9892578,18.0546875 L57.9892578,14.5625 L57.1044922,14.5625 L57.1044922,13.953125 L58.0537109,13.4492188 L58.5224609,12.078125 L59.3720703,12.078125 L59.3720703,13.5195312 L61.2177734,13.5195312 L61.2177734,14.5625 L59.3720703,14.5625 L59.3720703,18.03125 C59.3720703,18.3632829 59.4550773,18.6083976 59.6210938,18.7666016 C59.7871102,18.9248055 60.0048815,19.0039062 60.2744141,19.0039062 Z M65.4072266,20.1171875 C64.399409,20.1171875 63.611331,19.8232451 63.0429688,19.2353516 C62.4746065,18.647458 62.1904297,17.8378958 62.1904297,16.8066406 C62.1904297,15.7480416 62.4540989,14.9160187 62.9814453,14.3105469 C63.5087917,13.7050751 64.2333938,13.4023438 65.1552734,13.4023438 C66.0107465,13.4023438 66.686521,13.6621068 67.1826172,14.1816406 C67.6787134,14.7011745 67.9267578,15.4160111 67.9267578,16.3261719 L67.9267578,17.0703125 L63.6083984,17.0703125 C63.6279298,17.6992219 63.79785,18.1826155 64.1181641,18.5205078 C64.4384782,18.8584001 64.8896455,19.0273438 65.4716797,19.0273438 C65.8544941,19.0273438 66.2109358,18.9912113 66.5410156,18.9189453 C66.8710954,18.8466793 67.225584,18.7265633 67.6044922,18.5585938 L67.6044922,19.6777344 C67.268553,19.8378914 66.9287127,19.9511715 66.5849609,20.0175781 C66.2412092,20.0839847 65.848635,20.1171875 65.4072266,20.1171875 Z M65.1552734,14.4453125 C64.7177712,14.4453125 64.3671888,14.583983 64.1035156,14.8613281 C63.8398424,15.1386733 63.6826174,15.5429661 63.6318359,16.0742188 L66.5732422,16.0742188 C66.5654296,15.5390598 66.4365247,15.1337904 66.1865234,14.8583984 C65.9365222,14.5830064 65.5927756,14.4453125 65.1552734,14.4453125 Z M72.7783203,13.4023438 C73.0556654,13.4023438 73.2841788,13.4218748 73.4638672,13.4609375 L73.3291016,14.7441406 C73.1337881,14.6972654 72.9306651,14.6738281 72.7197266,14.6738281 C72.1689426,14.6738281 71.722658,14.8535138 71.3808594,15.2128906 C71.0390608,15.5722674 70.8681641,16.0390596 70.8681641,16.6132812 L70.8681641,20 L69.4912109,20 L69.4912109,13.5195312 L70.5693359,13.5195312 L70.7509766,14.6621094 L70.8212891,14.6621094 C71.0361339,14.2753887 71.3164045,13.9687511 71.6621094,13.7421875 C72.0078142,13.5156239 72.3798808,13.4023438 72.7783203,13.4023438 Z M82.5927734,14.9023438 L82.2705078,16.5664062 L83.8525391,16.5664062 L83.8525391,17.5507812 L82.0771484,17.5507812 L81.6083984,20 L80.5654297,20 L81.0341797,17.5507812 L79.5810547,17.5507812 L79.1123047,20 L78.0927734,20 L78.5380859,17.5507812 L77.0732422,17.5507812 L77.0732422,16.5664062 L78.7314453,16.5664062 L79.0654297,14.9023438 L77.5185547,14.9023438 L77.5185547,13.9179688 L79.2353516,13.9179688 L79.7041016,11.4453125 L80.7587891,11.4453125 L80.2900391,13.9179688 L81.7666016,13.9179688 L82.2353516,11.4453125 L83.2548828,11.4453125 L82.7861328,13.9179688 L84.2626953,13.9179688 L84.2626953,14.9023438 L82.5927734,14.9023438 Z M79.7626953,16.5664062 L81.2275391,16.5664062 L81.5615234,14.9023438 L80.0966797,14.9023438 L79.7626953,16.5664062 Z M89.1201172,20 L87.7431641,20 L87.7431641,14.46875 C87.7431641,13.8085904 87.7587889,13.2851582 87.7900391,12.8984375 C87.7001949,12.992188 87.5898444,13.0957026 87.4589844,13.2089844 C87.3281243,13.3222662 86.8896522,13.6816376 86.1435547,14.2871094 L85.4521484,13.4140625 L87.9716797,11.4335938 L89.1201172,11.4335938 L89.1201172,20 Z" id="text" fill="#1F1E1E"></path>
            </g>
            <g id="Round_block-Copy-44" transform="translate(218.000000, 84.000000)">
                <rect id="Rectangle-Copy-14" fill="#E1E1E1" x="0" y="0" width="124" height="32" rx="14"></rect>
                <path d="M39.0458984,20 L37.6630859,20 L37.6630859,16.0039062 C37.6630859,15.50781 37.5693369,15.1376965 37.3818359,14.8935547 C37.194335,14.6494128 36.9013692,14.5273438 36.5029297,14.5273438 C35.971677,14.5273438 35.5820325,14.7001936 35.3339844,15.0458984 C35.0859363,15.3916033 34.9619141,15.9667929 34.9619141,16.7714844 L34.9619141,20 L33.5849609,20 L33.5849609,13.5195312 L34.6630859,13.5195312 L34.8564453,14.3691406 L34.9267578,14.3691406 C35.1064462,14.0605453 35.3671858,13.8222665 35.7089844,13.6542969 C36.050783,13.4863273 36.4267558,13.4023438 36.8369141,13.4023438 C37.8330128,13.4023438 38.4931624,13.7421841 38.8173828,14.421875 L38.9111328,14.421875 C39.10254,14.1015609 39.3720686,13.8515634 39.7197266,13.671875 C40.0673846,13.4921866 40.4658181,13.4023438 40.9150391,13.4023438 C41.6884804,13.4023438 42.2519514,13.5976543 42.6054688,13.9882812 C42.9589861,14.3789082 43.1357422,14.9746054 43.1357422,15.7753906 L43.1357422,20 L41.7587891,20 L41.7587891,16.0039062 C41.7587891,15.50781 41.6640634,15.1376965 41.4746094,14.8935547 C41.2851553,14.6494128 40.9912129,14.5273438 40.5927734,14.5273438 C40.0576145,14.5273438 39.6660169,14.6943343 39.4179688,15.0283203 C39.1699206,15.3623064 39.0458984,15.8749965 39.0458984,16.5664062 L39.0458984,20 Z M49.1123047,20 L48.8369141,19.0976562 L48.7900391,19.0976562 C48.4775375,19.4921895 48.1630875,19.7607415 47.8466797,19.9033203 C47.5302719,20.0458992 47.1240259,20.1171875 46.6279297,20.1171875 C45.9912078,20.1171875 45.4941424,19.9453142 45.1367188,19.6015625 C44.7792951,19.2578108 44.6005859,18.7714875 44.6005859,18.1425781 C44.6005859,17.474606 44.8486303,16.9707048 45.3447266,16.6308594 C45.8408228,16.2910139 46.5966746,16.1054689 47.6123047,16.0742188 L48.7314453,16.0390625 L48.7314453,15.6933594 C48.7314453,15.2792948 48.6347666,14.9697276 48.4414062,14.7646484 C48.2480459,14.5595693 47.9482442,14.4570312 47.5419922,14.4570312 C47.2099593,14.4570312 46.8916031,14.5058589 46.5869141,14.6035156 C46.282225,14.7011724 45.9892592,14.8164056 45.7080078,14.9492188 L45.2626953,13.9648438 C45.6142596,13.7812491 45.9990213,13.641602 46.4169922,13.5458984 C46.834963,13.4501948 47.2294903,13.4023438 47.6005859,13.4023438 C48.4248088,13.4023438 49.0468729,13.5820295 49.4667969,13.9414062 C49.8867208,14.300783 50.0966797,14.8652305 50.0966797,15.6347656 L50.0966797,20 L49.1123047,20 Z M47.0615234,19.0625 C47.5615259,19.0625 47.9628891,18.922853 48.265625,18.6435547 C48.5683609,18.3642564 48.7197266,17.9726588 48.7197266,17.46875 L48.7197266,16.90625 L47.8876953,16.9414062 C47.2392546,16.9648439 46.7675796,17.0732412 46.4726562,17.2666016 C46.1777329,17.4599619 46.0302734,17.7558574 46.0302734,18.1542969 C46.0302734,18.4433608 46.1162101,18.6669914 46.2880859,18.8251953 C46.4599618,18.9833992 46.7177717,19.0625 47.0615234,19.0625 Z M56.3720703,18.1542969 C56.3720703,18.7871125 56.1416039,19.2724592 55.6806641,19.6103516 C55.2197243,19.9482439 54.5595746,20.1171875 53.7001953,20.1171875 C52.8369097,20.1171875 52.1435573,19.9863294 51.6201172,19.7246094 L51.6201172,18.5351562 C52.3818397,18.8867205 53.090817,19.0625 53.7470703,19.0625 C54.5947308,19.0625 55.0185547,18.8066432 55.0185547,18.2949219 C55.0185547,18.1308586 54.9716802,17.9941412 54.8779297,17.8847656 C54.7841792,17.7753901 54.6298839,17.66211 54.4150391,17.5449219 C54.2001942,17.4277338 53.9013691,17.2949226 53.5185547,17.1464844 C52.7724572,16.8574204 52.2675794,16.5683608 52.0039062,16.2792969 C51.7402331,15.9902329 51.6083984,15.6152367 51.6083984,15.1542969 C51.6083984,14.5996066 51.832029,14.1689468 52.2792969,13.8623047 C52.7265647,13.5556625 53.3349571,13.4023438 54.1044922,13.4023438 C54.8662147,13.4023438 55.5869107,13.5566391 56.2666016,13.8652344 L55.8212891,14.9023438 C55.1220668,14.6132798 54.5341821,14.46875 54.0576172,14.46875 C53.3310511,14.46875 52.9677734,14.6757792 52.9677734,15.0898438 C52.9677734,15.2929698 53.0624991,15.464843 53.2519531,15.6054688 C53.4414072,15.7460945 53.854489,15.9394519 54.4912109,16.1855469 C55.0263699,16.3925792 55.4150379,16.5820304 55.6572266,16.7539062 C55.8994153,16.9257821 56.079101,17.1240223 56.1962891,17.3486328 C56.3134771,17.5732433 56.3720703,17.8417953 56.3720703,18.1542969 Z M60.2744141,19.0039062 C60.6103532,19.0039062 60.9462874,18.9511724 61.2822266,18.8457031 L61.2822266,19.8828125 C61.1298821,19.9492191 60.933595,20.0048826 60.6933594,20.0498047 C60.4531238,20.0947268 60.2041029,20.1171875 59.9462891,20.1171875 C58.641595,20.1171875 57.9892578,19.4296944 57.9892578,18.0546875 L57.9892578,14.5625 L57.1044922,14.5625 L57.1044922,13.953125 L58.0537109,13.4492188 L58.5224609,12.078125 L59.3720703,12.078125 L59.3720703,13.5195312 L61.2177734,13.5195312 L61.2177734,14.5625 L59.3720703,14.5625 L59.3720703,18.03125 C59.3720703,18.3632829 59.4550773,18.6083976 59.6210938,18.7666016 C59.7871102,18.9248055 60.0048815,19.0039062 60.2744141,19.0039062 Z M65.4072266,20.1171875 C64.399409,20.1171875 63.611331,19.8232451 63.0429688,19.2353516 C62.4746065,18.647458 62.1904297,17.8378958 62.1904297,16.8066406 C62.1904297,15.7480416 62.4540989,14.9160187 62.9814453,14.3105469 C63.5087917,13.7050751 64.2333938,13.4023438 65.1552734,13.4023438 C66.0107465,13.4023438 66.686521,13.6621068 67.1826172,14.1816406 C67.6787134,14.7011745 67.9267578,15.4160111 67.9267578,16.3261719 L67.9267578,17.0703125 L63.6083984,17.0703125 C63.6279298,17.6992219 63.79785,18.1826155 64.1181641,18.5205078 C64.4384782,18.8584001 64.8896455,19.0273438 65.4716797,19.0273438 C65.8544941,19.0273438 66.2109358,18.9912113 66.5410156,18.9189453 C66.8710954,18.8466793 67.225584,18.7265633 67.6044922,18.5585938 L67.6044922,19.6777344 C67.268553,19.8378914 66.9287127,19.9511715 66.5849609,20.0175781 C66.2412092,20.0839847 65.848635,20.1171875 65.4072266,20.1171875 Z M65.1552734,14.4453125 C64.7177712,14.4453125 64.3671888,14.583983 64.1035156,14.8613281 C63.8398424,15.1386733 63.6826174,15.5429661 63.6318359,16.0742188 L66.5732422,16.0742188 C66.5654296,15.5390598 66.4365247,15.1337904 66.1865234,14.8583984 C65.9365222,14.5830064 65.5927756,14.4453125 65.1552734,14.4453125 Z M72.7783203,13.4023438 C73.0556654,13.4023438 73.2841788,13.4218748 73.4638672,13.4609375 L73.3291016,14.7441406 C73.1337881,14.6972654 72.9306651,14.6738281 72.7197266,14.6738281 C72.1689426,14.6738281 71.722658,14.8535138 71.3808594,15.2128906 C71.0390608,15.5722674 70.8681641,16.0390596 70.8681641,16.6132812 L70.8681641,20 L69.4912109,20 L69.4912109,13.5195312 L70.5693359,13.5195312 L70.7509766,14.6621094 L70.8212891,14.6621094 C71.0361339,14.2753887 71.3164045,13.9687511 71.6621094,13.7421875 C72.0078142,13.5156239 72.3798808,13.4023438 72.7783203,13.4023438 Z M82.5927734,14.9023438 L82.2705078,16.5664062 L83.8525391,16.5664062 L83.8525391,17.5507812 L82.0771484,17.5507812 L81.6083984,20 L80.5654297,20 L81.0341797,17.5507812 L79.5810547,17.5507812 L79.1123047,20 L78.0927734,20 L78.5380859,17.5507812 L77.0732422,17.5507812 L77.0732422,16.5664062 L78.7314453,16.5664062 L79.0654297,14.9023438 L77.5185547,14.9023438 L77.5185547,13.9179688 L79.2353516,13.9179688 L79.7041016,11.4453125 L80.7587891,11.4453125 L80.2900391,13.9179688 L81.7666016,13.9179688 L82.2353516,11.4453125 L83.2548828,11.4453125 L82.7861328,13.9179688 L84.2626953,13.9179688 L84.2626953,14.9023438 L82.5927734,14.9023438 Z M79.7626953,16.5664062 L81.2275391,16.5664062 L81.5615234,14.9023438 L80.0966797,14.9023438 L79.7626953,16.5664062 Z M90.8837891,20 L85.0771484,20 L85.0771484,18.9570312 L87.2861328,16.7363281 C87.9384798,16.068356 88.3710927,15.594728 88.5839844,15.3154297 C88.7968761,15.0361314 88.9521479,14.7734387 89.0498047,14.5273438 C89.1474614,14.2812488 89.1962891,14.0175795 89.1962891,13.7363281 C89.1962891,13.3496074 89.0800793,13.044923 88.8476562,12.8222656 C88.6152332,12.5996083 88.2939474,12.4882812 87.8837891,12.4882812 C87.5556624,12.4882812 87.2382828,12.5488275 86.9316406,12.6699219 C86.6249985,12.7910162 86.2705098,13.009764 85.8681641,13.3261719 L85.1240234,12.4179688 C85.6005883,12.015623 86.0634743,11.7304696 86.5126953,11.5625 C86.9619163,11.3945304 87.4404271,11.3105469 87.9482422,11.3105469 C88.7451212,11.3105469 89.3837867,11.5185526 89.8642578,11.9345703 C90.344729,12.350588 90.5849609,12.9101527 90.5849609,13.6132812 C90.5849609,14.0000019 90.5156257,14.3671858 90.3769531,14.7148438 C90.2382806,15.0625017 90.0253921,15.4208966 89.7382812,15.7900391 C89.4511704,16.1591815 88.9736362,16.6582 88.3056641,17.2871094 L86.8173828,18.7285156 L86.8173828,18.7871094 L90.8837891,18.7871094 L90.8837891,20 Z" id="text" fill="#1F1E1E"></path>
            </g>
            <g id="Arrow" transform="translate(181.000000, 95.000000)" stroke="#FF2E2F">
                <g id="Arrow_red" transform="translate(30.000000, 0.500000)" fill="#FF2E2F" stroke-linejoin="round">
                    <polygon id="Path-14-Copy-14" transform="translate(3.000000, 4.500000) rotate(-270.000000) translate(-3.000000, -4.500000) " points="-1 7 3 2 7 7"></polygon>
                </g>
                <g id="Arrow_red" transform="translate(3.000000, 5.000000) scale(-1, 1) translate(-3.000000, -5.000000) translate(0.000000, 0.500000)" fill="#FF2E2F" stroke-linejoin="round">
                    <polygon id="Path-14-Copy-14" transform="translate(3.000000, 4.500000) rotate(-270.000000) translate(-3.000000, -4.500000) " points="-1 7 3 2 7 7"></polygon>
                </g>
                <path d="M5,5 L31,5" id="Path-15-Copy-2"></path>
            </g>
        </g>
    </g>
</svg>