<?xml version="1.0" encoding="UTF-8"?>
<svg width="393px" height="207px" viewBox="0 0 393 207" version="1.1" xmlns="http://www.w3.org/2000/svg" xmlns:xlink="http://www.w3.org/1999/xlink">
    <!-- Generator: Sketch 47.1 (45422) - http://www.bohemiancoding.com/sketch -->
    <title>mr-1m-2r-mesh-add copy</title>
    <desc>Created with Sketch.</desc>
    <defs></defs>
    <g id="Page-1" stroke="none" stroke-width="1" fill="none" fill-rule="evenodd">
        <g id="mr-1m-2r-mesh-add-copy">
            <g id="Round_block-Copy-40" transform="translate(65.000000, 52.000000)">
                <rect id="Rectangle-Copy-14" fill="#E1E1E1" x="0" y="0" width="124" height="32" rx="14"></rect>
                <path d="M39.0458984,20 L37.6630859,20 L37.6630859,16.0039062 C37.6630859,15.50781 37.5693369,15.1376965 37.3818359,14.8935547 C37.194335,14.6494128 36.9013692,14.5273438 36.5029297,14.5273438 C35.971677,14.5273438 35.5820325,14.7001936 35.3339844,15.0458984 C35.0859363,15.3916033 34.9619141,15.9667929 34.9619141,16.7714844 L34.9619141,20 L33.5849609,20 L33.5849609,13.5195312 L34.6630859,13.5195312 L34.8564453,14.3691406 L34.9267578,14.3691406 C35.1064462,14.0605453 35.3671858,13.8222665 35.7089844,13.6542969 C36.050783,13.4863273 36.4267558,13.4023438 36.8369141,13.4023438 C37.8330128,13.4023438 38.4931624,13.7421841 38.8173828,14.421875 L38.9111328,14.421875 C39.10254,14.1015609 39.3720686,13.8515634 39.7197266,13.671875 C40.0673846,13.4921866 40.4658181,13.4023438 40.9150391,13.4023438 C41.6884804,13.4023438 42.2519514,13.5976543 42.6054688,13.9882812 C42.9589861,14.3789082 43.1357422,14.9746054 43.1357422,15.7753906 L43.1357422,20 L41.7587891,20 L41.7587891,16.0039062 C41.7587891,15.50781 41.6640634,15.1376965 41.4746094,14.8935547 C41.2851553,14.6494128 40.9912129,14.5273438 40.5927734,14.5273438 C40.0576145,14.5273438 39.6660169,14.6943343 39.4179688,15.0283203 C39.1699206,15.3623064 39.0458984,15.8749965 39.0458984,16.5664062 L39.0458984,20 Z M49.1123047,20 L48.8369141,19.0976562 L48.7900391,19.0976562 C48.4775375,19.4921895 48.1630875,19.7607415 47.8466797,19.9033203 C47.5302719,20.0458992 47.1240259,20.1171875 46.6279297,20.1171875 C45.9912078,20.1171875 45.4941424,19.9453142 45.1367188,19.6015625 C44.7792951,19.2578108 44.6005859,18.7714875 44.6005859,18.1425781 C44.6005859,17.474606 44.8486303,16.9707048 45.3447266,16.6308594 C45.8408228,16.2910139 46.5966746,16.1054689 47.6123047,16.0742188 L48.7314453,16.0390625 L48.7314453,15.6933594 C48.7314453,15.2792948 48.6347666,14.9697276 48.4414062,14.7646484 C48.2480459,14.5595693 47.9482442,14.4570312 47.5419922,14.4570312 C47.2099593,14.4570312 46.8916031,14.5058589 46.5869141,14.6035156 C46.282225,14.7011724 45.9892592,14.8164056 45.7080078,14.9492188 L45.2626953,13.9648438 C45.6142596,13.7812491 45.9990213,13.641602 46.4169922,13.5458984 C46.834963,13.4501948 47.2294903,13.4023438 47.6005859,13.4023438 C48.4248088,13.4023438 49.0468729,13.5820295 49.4667969,13.9414062 C49.8867208,14.300783 50.0966797,14.8652305 50.0966797,15.6347656 L50.0966797,20 L49.1123047,20 Z M47.0615234,19.0625 C47.5615259,19.0625 47.9628891,18.922853 48.265625,18.6435547 C48.5683609,18.3642564 48.7197266,17.9726588 48.7197266,17.46875 L48.7197266,16.90625 L47.8876953,16.9414062 C47.2392546,16.9648439 46.7675796,17.0732412 46.4726562,17.2666016 C46.1777329,17.4599619 46.0302734,17.7558574 46.0302734,18.1542969 C46.0302734,18.4433608 46.1162101,18.6669914 46.2880859,18.8251953 C46.4599618,18.9833992 46.7177717,19.0625 47.0615234,19.0625 Z M56.3720703,18.1542969 C56.3720703,18.7871125 56.1416039,19.2724592 55.6806641,19.6103516 C55.2197243,19.9482439 54.5595746,20.1171875 53.7001953,20.1171875 C52.8369097,20.1171875 52.1435573,19.9863294 51.6201172,19.7246094 L51.6201172,18.5351562 C52.3818397,18.8867205 53.090817,19.0625 53.7470703,19.0625 C54.5947308,19.0625 55.0185547,18.8066432 55.0185547,18.2949219 C55.0185547,18.1308586 54.9716802,17.9941412 54.8779297,17.8847656 C54.7841792,17.7753901 54.6298839,17.66211 54.4150391,17.5449219 C54.2001942,17.4277338 53.9013691,17.2949226 53.5185547,17.1464844 C52.7724572,16.8574204 52.2675794,16.5683608 52.0039062,16.2792969 C51.7402331,15.9902329 51.6083984,15.6152367 51.6083984,15.1542969 C51.6083984,14.5996066 51.832029,14.1689468 52.2792969,13.8623047 C52.7265647,13.5556625 53.3349571,13.4023438 54.1044922,13.4023438 C54.8662147,13.4023438 55.5869107,13.5566391 56.2666016,13.8652344 L55.8212891,14.9023438 C55.1220668,14.6132798 54.5341821,14.46875 54.0576172,14.46875 C53.3310511,14.46875 52.9677734,14.6757792 52.9677734,15.0898438 C52.9677734,15.2929698 53.0624991,15.464843 53.2519531,15.6054688 C53.4414072,15.7460945 53.854489,15.9394519 54.4912109,16.1855469 C55.0263699,16.3925792 55.4150379,16.5820304 55.6572266,16.7539062 C55.8994153,16.9257821 56.079101,17.1240223 56.1962891,17.3486328 C56.3134771,17.5732433 56.3720703,17.8417953 56.3720703,18.1542969 Z M60.2744141,19.0039062 C60.6103532,19.0039062 60.9462874,18.9511724 61.2822266,18.8457031 L61.2822266,19.8828125 C61.1298821,19.9492191 60.933595,20.0048826 60.6933594,20.0498047 C60.4531238,20.0947268 60.2041029,20.1171875 59.9462891,20.1171875 C58.641595,20.1171875 57.9892578,19.4296944 57.9892578,18.0546875 L57.9892578,14.5625 L57.1044922,14.5625 L57.1044922,13.953125 L58.0537109,13.4492188 L58.5224609,12.078125 L59.3720703,12.078125 L59.3720703,13.5195312 L61.2177734,13.5195312 L61.2177734,14.5625 L59.3720703,14.5625 L59.3720703,18.03125 C59.3720703,18.3632829 59.4550773,18.6083976 59.6210938,18.7666016 C59.7871102,18.9248055 60.0048815,19.0039062 60.2744141,19.0039062 Z M65.4072266,20.1171875 C64.399409,20.1171875 63.611331,19.8232451 63.0429688,19.2353516 C62.4746065,18.647458 62.1904297,17.8378958 62.1904297,16.8066406 C62.1904297,15.7480416 62.4540989,14.9160187 62.9814453,14.3105469 C63.5087917,13.7050751 64.2333938,13.4023438 65.1552734,13.4023438 C66.0107465,13.4023438 66.686521,13.6621068 67.1826172,14.1816406 C67.6787134,14.7011745 67.9267578,15.4160111 67.9267578,16.3261719 L67.9267578,17.0703125 L63.6083984,17.0703125 C63.6279298,17.6992219 63.79785,18.1826155 64.1181641,18.5205078 C64.4384782,18.8584001 64.8896455,19.0273438 65.4716797,19.0273438 C65.8544941,19.0273438 66.2109358,18.9912113 66.5410156,18.9189453 C66.8710954,18.8466793 67.225584,18.7265633 67.6044922,18.5585938 L67.6044922,19.6777344 C67.268553,19.8378914 66.9287127,19.9511715 66.5849609,20.0175781 C66.2412092,20.0839847 65.848635,20.1171875 65.4072266,20.1171875 Z M65.1552734,14.4453125 C64.7177712,14.4453125 64.3671888,14.583983 64.1035156,14.8613281 C63.8398424,15.1386733 63.6826174,15.5429661 63.6318359,16.0742188 L66.5732422,16.0742188 C66.5654296,15.5390598 66.4365247,15.1337904 66.1865234,14.8583984 C65.9365222,14.5830064 65.5927756,14.4453125 65.1552734,14.4453125 Z M72.7783203,13.4023438 C73.0556654,13.4023438 73.2841788,13.4218748 73.4638672,13.4609375 L73.3291016,14.7441406 C73.1337881,14.6972654 72.9306651,14.6738281 72.7197266,14.6738281 C72.1689426,14.6738281 71.722658,14.8535138 71.3808594,15.2128906 C71.0390608,15.5722674 70.8681641,16.0390596 70.8681641,16.6132812 L70.8681641,20 L69.4912109,20 L69.4912109,13.5195312 L70.5693359,13.5195312 L70.7509766,14.6621094 L70.8212891,14.6621094 C71.0361339,14.2753887 71.3164045,13.9687511 71.6621094,13.7421875 C72.0078142,13.5156239 72.3798808,13.4023438 72.7783203,13.4023438 Z M82.5927734,14.9023438 L82.2705078,16.5664062 L83.8525391,16.5664062 L83.8525391,17.5507812 L82.0771484,17.5507812 L81.6083984,20 L80.5654297,20 L81.0341797,17.5507812 L79.5810547,17.5507812 L79.1123047,20 L78.0927734,20 L78.5380859,17.5507812 L77.0732422,17.5507812 L77.0732422,16.5664062 L78.7314453,16.5664062 L79.0654297,14.9023438 L77.5185547,14.9023438 L77.5185547,13.9179688 L79.2353516,13.9179688 L79.7041016,11.4453125 L80.7587891,11.4453125 L80.2900391,13.9179688 L81.7666016,13.9179688 L82.2353516,11.4453125 L83.2548828,11.4453125 L82.7861328,13.9179688 L84.2626953,13.9179688 L84.2626953,14.9023438 L82.5927734,14.9023438 Z M79.7626953,16.5664062 L81.2275391,16.5664062 L81.5615234,14.9023438 L80.0966797,14.9023438 L79.7626953,16.5664062 Z M89.1201172,20 L87.7431641,20 L87.7431641,14.46875 C87.7431641,13.8085904 87.7587889,13.2851582 87.7900391,12.8984375 C87.7001949,12.992188 87.5898444,13.0957026 87.4589844,13.2089844 C87.3281243,13.3222662 86.8896522,13.6816376 86.1435547,14.2871094 L85.4521484,13.4140625 L87.9716797,11.4335938 L89.1201172,11.4335938 L89.1201172,20 Z" id="text" fill="#1F1E1E"></path>
            </g>
            <g id="Round_block-Copy-41" transform="translate(228.000000, 52.000000)">
                <rect id="Rectangle-Copy-14" fill="#E1E1E1" x="0" y="0" width="124" height="32" rx="14"></rect>
                <path d="M37.953125,13.4023438 C38.2304701,13.4023438 38.4589835,13.4218748 38.6386719,13.4609375 L38.5039062,14.7441406 C38.3085928,14.6972654 38.1054698,14.6738281 37.8945312,14.6738281 C37.3437472,14.6738281 36.8974626,14.8535138 36.5556641,15.2128906 C36.2138655,15.5722674 36.0429688,16.0390596 36.0429688,16.6132812 L36.0429688,20 L34.6660156,20 L34.6660156,13.5195312 L35.7441406,13.5195312 L35.9257812,14.6621094 L35.9960938,14.6621094 C36.2109386,14.2753887 36.4912092,13.9687511 36.8369141,13.7421875 C37.1826189,13.5156239 37.5546855,13.4023438 37.953125,13.4023438 Z M42.4296875,20.1171875 C41.42187,20.1171875 40.6337919,19.8232451 40.0654297,19.2353516 C39.4970675,18.647458 39.2128906,17.8378958 39.2128906,16.8066406 C39.2128906,15.7480416 39.4765599,14.9160187 40.0039062,14.3105469 C40.5312526,13.7050751 41.2558548,13.4023438 42.1777344,13.4023438 C43.0332074,13.4023438 43.7089819,13.6621068 44.2050781,14.1816406 C44.7011744,14.7011745 44.9492188,15.4160111 44.9492188,16.3261719 L44.9492188,17.0703125 L40.6308594,17.0703125 C40.6503907,17.6992219 40.8203109,18.1826155 41.140625,18.5205078 C41.4609391,18.8584001 41.9121065,19.0273438 42.4941406,19.0273438 C42.876955,19.0273438 43.2333968,18.9912113 43.5634766,18.9189453 C43.8935563,18.8466793 44.248045,18.7265633 44.6269531,18.5585938 L44.6269531,19.6777344 C44.2910139,19.8378914 43.9511736,19.9511715 43.6074219,20.0175781 C43.2636702,20.0839847 42.871096,20.1171875 42.4296875,20.1171875 Z M42.1777344,14.4453125 C41.7402322,14.4453125 41.3896498,14.583983 41.1259766,14.8613281 C40.8623034,15.1386733 40.7050784,15.5429661 40.6542969,16.0742188 L43.5957031,16.0742188 C43.5878906,15.5390598 43.4589856,15.1337904 43.2089844,14.8583984 C42.9589831,14.5830064 42.6152366,14.4453125 42.1777344,14.4453125 Z M49.8007812,20.1171875 C48.9804646,20.1171875 48.3437523,19.8222686 47.890625,19.2324219 L47.8085938,19.2324219 C47.8632815,19.7792996 47.890625,20.1113275 47.890625,20.2285156 L47.890625,22.8828125 L46.5136719,22.8828125 L46.5136719,13.5195312 L47.6269531,13.5195312 C47.6582033,13.6406256 47.7226558,13.9296852 47.8203125,14.3867188 L47.890625,14.3867188 C48.3203146,13.7304655 48.9648395,13.4023438 49.8242188,13.4023438 C50.6328165,13.4023438 51.2626931,13.6953096 51.7138672,14.28125 C52.1650413,14.8671904 52.390625,15.6894478 52.390625,16.7480469 C52.390625,17.8066459 52.1611351,18.6328095 51.7021484,19.2265625 C51.2431618,19.8203155 50.609379,20.1171875 49.8007812,20.1171875 Z M49.4667969,14.5273438 C48.9199191,14.5273438 48.5205091,14.6874984 48.2685547,15.0078125 C48.0166003,15.3281266 47.890625,15.8398402 47.890625,16.5429688 L47.890625,16.7480469 C47.890625,17.5371133 48.0156238,18.1083967 48.265625,18.4619141 C48.5156262,18.8154315 48.9238253,18.9921875 49.4902344,18.9921875 C49.9667993,18.9921875 50.3339831,18.796877 50.5917969,18.40625 C50.8496107,18.015623 50.9785156,17.458988 50.9785156,16.7363281 C50.9785156,16.009762 50.8505872,15.4599628 50.5947266,15.0869141 C50.3388659,14.7138653 49.9628931,14.5273438 49.4667969,14.5273438 Z M55.3671875,20 L53.9902344,20 L53.9902344,10.8828125 L55.3671875,10.8828125 L55.3671875,20 Z M58.7128906,20 L57.3359375,20 L57.3359375,13.5195312 L58.7128906,13.5195312 L58.7128906,20 Z M57.2539062,11.8027344 C57.2539062,11.5566394 57.3212884,11.3671882 57.4560547,11.234375 C57.590821,11.1015618 57.7832019,11.0351562 58.0332031,11.0351562 C58.2753918,11.0351562 58.4638665,11.1015618 58.5986328,11.234375 C58.7333991,11.3671882 58.8007812,11.5566394 58.8007812,11.8027344 C58.8007812,12.0371105 58.7333991,12.221679 58.5986328,12.3564453 C58.4638665,12.4912116 58.2753918,12.5585938 58.0332031,12.5585938 C57.7832019,12.5585938 57.590821,12.4912116 57.4560547,12.3564453 C57.3212884,12.221679 57.2539062,12.0371105 57.2539062,11.8027344 Z M63.2949219,20.1171875 C62.3144482,20.1171875 61.5693385,19.8310575 61.0595703,19.2587891 C60.5498021,18.6865206 60.2949219,17.8652397 60.2949219,16.7949219 C60.2949219,15.7050727 60.5615208,14.8671904 61.0947266,14.28125 C61.6279324,13.6953096 62.3984325,13.4023438 63.40625,13.4023438 C64.0898472,13.4023438 64.7050754,13.5292956 65.2519531,13.7832031 L64.8359375,14.890625 C64.2539033,14.6640614 63.7734394,14.5507812 63.3945312,14.5507812 C62.2734319,14.5507812 61.7128906,15.2949144 61.7128906,16.7832031 C61.7128906,17.5097693 61.8525377,18.0556622 62.1318359,18.4208984 C62.4111342,18.7861346 62.8203098,18.96875 63.359375,18.96875 C63.9726593,18.96875 64.5527316,18.8164078 65.0996094,18.5117188 L65.0996094,19.7128906 C64.8535144,19.8574226 64.5908217,19.9609372 64.3115234,20.0234375 C64.0322252,20.0859378 63.6933614,20.1171875 63.2949219,20.1171875 Z M70.6777344,20 L70.4023438,19.0976562 L70.3554688,19.0976562 C70.0429672,19.4921895 69.7285172,19.7607415 69.4121094,19.9033203 C69.0957015,20.0458992 68.6894556,20.1171875 68.1933594,20.1171875 C67.5566374,20.1171875 67.0595721,19.9453142 66.7021484,19.6015625 C66.3447248,19.2578108 66.1660156,18.7714875 66.1660156,18.1425781 C66.1660156,17.474606 66.41406,16.9707048 66.9101562,16.6308594 C67.4062525,16.2910139 68.1621043,16.1054689 69.1777344,16.0742188 L70.296875,16.0390625 L70.296875,15.6933594 C70.296875,15.2792948 70.2001963,14.9697276 70.0068359,14.7646484 C69.8134756,14.5595693 69.5136739,14.4570312 69.1074219,14.4570312 C68.775389,14.4570312 68.4570328,14.5058589 68.1523438,14.6035156 C67.8476547,14.7011724 67.5546889,14.8164056 67.2734375,14.9492188 L66.828125,13.9648438 C67.1796893,13.7812491 67.564451,13.641602 67.9824219,13.5458984 C68.4003927,13.4501948 68.79492,13.4023438 69.1660156,13.4023438 C69.9902385,13.4023438 70.6123026,13.5820295 71.0322266,13.9414062 C71.4521505,14.300783 71.6621094,14.8652305 71.6621094,15.6347656 L71.6621094,20 L70.6777344,20 Z M68.6269531,19.0625 C69.1269556,19.0625 69.5283188,18.922853 69.8310547,18.6435547 C70.1337906,18.3642564 70.2851562,17.9726588 70.2851562,17.46875 L70.2851562,16.90625 L69.453125,16.9414062 C68.8046843,16.9648439 68.3330093,17.0732412 68.0380859,17.2666016 C67.7431626,17.4599619 67.5957031,17.7558574 67.5957031,18.1542969 C67.5957031,18.4433608 67.6816398,18.6669914 67.8535156,18.8251953 C68.0253915,18.9833992 68.2832014,19.0625 68.6269531,19.0625 Z M81.5117188,14.9023438 L81.1894531,16.5664062 L82.7714844,16.5664062 L82.7714844,17.5507812 L80.9960938,17.5507812 L80.5273438,20 L79.484375,20 L79.953125,17.5507812 L78.5,17.5507812 L78.03125,20 L77.0117188,20 L77.4570312,17.5507812 L75.9921875,17.5507812 L75.9921875,16.5664062 L77.6503906,16.5664062 L77.984375,14.9023438 L76.4375,14.9023438 L76.4375,13.9179688 L78.1542969,13.9179688 L78.6230469,11.4453125 L79.6777344,11.4453125 L79.2089844,13.9179688 L80.6855469,13.9179688 L81.1542969,11.4453125 L82.1738281,11.4453125 L81.7050781,13.9179688 L83.1816406,13.9179688 L83.1816406,14.9023438 L81.5117188,14.9023438 Z M78.6816406,16.5664062 L80.1464844,16.5664062 L80.4804688,14.9023438 L79.015625,14.9023438 L78.6816406,16.5664062 Z M88.0390625,20 L86.6621094,20 L86.6621094,14.46875 C86.6621094,13.8085904 86.6777342,13.2851582 86.7089844,12.8984375 C86.6191402,12.992188 86.5087897,13.0957026 86.3779297,13.2089844 C86.2470697,13.3222662 85.8085975,13.6816376 85.0625,14.2871094 L84.3710938,13.4140625 L86.890625,11.4335938 L88.0390625,11.4335938 L88.0390625,20 Z" id="text" fill="#1F1E1E"></path>
            </g>
            <g id="Round_black" transform="translate(147.000000, 116.000000)">
                <rect id="Rectangle-Copy-16" fill="#1F1E1E" x="0" y="0" width="123" height="32" rx="14"></rect>
                <path d="M37.453125,13.4023438 C37.7304701,13.4023438 37.9589835,13.4218748 38.1386719,13.4609375 L38.0039062,14.7441406 C37.8085928,14.6972654 37.6054698,14.6738281 37.3945312,14.6738281 C36.8437472,14.6738281 36.3974626,14.8535138 36.0556641,15.2128906 C35.7138655,15.5722674 35.5429688,16.0390596 35.5429688,16.6132812 L35.5429688,20 L34.1660156,20 L34.1660156,13.5195312 L35.2441406,13.5195312 L35.4257812,14.6621094 L35.4960938,14.6621094 C35.7109386,14.2753887 35.9912092,13.9687511 36.3369141,13.7421875 C36.6826189,13.5156239 37.0546855,13.4023438 37.453125,13.4023438 Z M41.9296875,20.1171875 C40.92187,20.1171875 40.1337919,19.8232451 39.5654297,19.2353516 C38.9970675,18.647458 38.7128906,17.8378958 38.7128906,16.8066406 C38.7128906,15.7480416 38.9765599,14.9160187 39.5039062,14.3105469 C40.0312526,13.7050751 40.7558548,13.4023438 41.6777344,13.4023438 C42.5332074,13.4023438 43.2089819,13.6621068 43.7050781,14.1816406 C44.2011744,14.7011745 44.4492188,15.4160111 44.4492188,16.3261719 L44.4492188,17.0703125 L40.1308594,17.0703125 C40.1503907,17.6992219 40.3203109,18.1826155 40.640625,18.5205078 C40.9609391,18.8584001 41.4121065,19.0273438 41.9941406,19.0273438 C42.376955,19.0273438 42.7333968,18.9912113 43.0634766,18.9189453 C43.3935563,18.8466793 43.748045,18.7265633 44.1269531,18.5585938 L44.1269531,19.6777344 C43.7910139,19.8378914 43.4511736,19.9511715 43.1074219,20.0175781 C42.7636702,20.0839847 42.371096,20.1171875 41.9296875,20.1171875 Z M41.6777344,14.4453125 C41.2402322,14.4453125 40.8896498,14.583983 40.6259766,14.8613281 C40.3623034,15.1386733 40.2050784,15.5429661 40.1542969,16.0742188 L43.0957031,16.0742188 C43.0878906,15.5390598 42.9589856,15.1337904 42.7089844,14.8583984 C42.4589831,14.5830064 42.1152366,14.4453125 41.6777344,14.4453125 Z M49.3007812,20.1171875 C48.4804646,20.1171875 47.8437523,19.8222686 47.390625,19.2324219 L47.3085938,19.2324219 C47.3632815,19.7792996 47.390625,20.1113275 47.390625,20.2285156 L47.390625,22.8828125 L46.0136719,22.8828125 L46.0136719,13.5195312 L47.1269531,13.5195312 C47.1582033,13.6406256 47.2226558,13.9296852 47.3203125,14.3867188 L47.390625,14.3867188 C47.8203146,13.7304655 48.4648395,13.4023438 49.3242188,13.4023438 C50.1328165,13.4023438 50.7626931,13.6953096 51.2138672,14.28125 C51.6650413,14.8671904 51.890625,15.6894478 51.890625,16.7480469 C51.890625,17.8066459 51.6611351,18.6328095 51.2021484,19.2265625 C50.7431618,19.8203155 50.109379,20.1171875 49.3007812,20.1171875 Z M48.9667969,14.5273438 C48.4199191,14.5273438 48.0205091,14.6874984 47.7685547,15.0078125 C47.5166003,15.3281266 47.390625,15.8398402 47.390625,16.5429688 L47.390625,16.7480469 C47.390625,17.5371133 47.5156238,18.1083967 47.765625,18.4619141 C48.0156262,18.8154315 48.4238253,18.9921875 48.9902344,18.9921875 C49.4667993,18.9921875 49.8339831,18.796877 50.0917969,18.40625 C50.3496107,18.015623 50.4785156,17.458988 50.4785156,16.7363281 C50.4785156,16.009762 50.3505872,15.4599628 50.0947266,15.0869141 C49.8388659,14.7138653 49.4628931,14.5273438 48.9667969,14.5273438 Z M54.8671875,20 L53.4902344,20 L53.4902344,10.8828125 L54.8671875,10.8828125 L54.8671875,20 Z M58.2128906,20 L56.8359375,20 L56.8359375,13.5195312 L58.2128906,13.5195312 L58.2128906,20 Z M56.7539062,11.8027344 C56.7539062,11.5566394 56.8212884,11.3671882 56.9560547,11.234375 C57.090821,11.1015618 57.2832019,11.0351562 57.5332031,11.0351562 C57.7753918,11.0351562 57.9638665,11.1015618 58.0986328,11.234375 C58.2333991,11.3671882 58.3007812,11.5566394 58.3007812,11.8027344 C58.3007812,12.0371105 58.2333991,12.221679 58.0986328,12.3564453 C57.9638665,12.4912116 57.7753918,12.5585938 57.5332031,12.5585938 C57.2832019,12.5585938 57.090821,12.4912116 56.9560547,12.3564453 C56.8212884,12.221679 56.7539062,12.0371105 56.7539062,11.8027344 Z M62.7949219,20.1171875 C61.8144482,20.1171875 61.0693385,19.8310575 60.5595703,19.2587891 C60.0498021,18.6865206 59.7949219,17.8652397 59.7949219,16.7949219 C59.7949219,15.7050727 60.0615208,14.8671904 60.5947266,14.28125 C61.1279324,13.6953096 61.8984325,13.4023438 62.90625,13.4023438 C63.5898472,13.4023438 64.2050754,13.5292956 64.7519531,13.7832031 L64.3359375,14.890625 C63.7539033,14.6640614 63.2734394,14.5507812 62.8945312,14.5507812 C61.7734319,14.5507812 61.2128906,15.2949144 61.2128906,16.7832031 C61.2128906,17.5097693 61.3525377,18.0556622 61.6318359,18.4208984 C61.9111342,18.7861346 62.3203098,18.96875 62.859375,18.96875 C63.4726593,18.96875 64.0527316,18.8164078 64.5996094,18.5117188 L64.5996094,19.7128906 C64.3535144,19.8574226 64.0908217,19.9609372 63.8115234,20.0234375 C63.5322252,20.0859378 63.1933614,20.1171875 62.7949219,20.1171875 Z M70.1777344,20 L69.9023438,19.0976562 L69.8554688,19.0976562 C69.5429672,19.4921895 69.2285172,19.7607415 68.9121094,19.9033203 C68.5957015,20.0458992 68.1894556,20.1171875 67.6933594,20.1171875 C67.0566374,20.1171875 66.5595721,19.9453142 66.2021484,19.6015625 C65.8447248,19.2578108 65.6660156,18.7714875 65.6660156,18.1425781 C65.6660156,17.474606 65.91406,16.9707048 66.4101562,16.6308594 C66.9062525,16.2910139 67.6621043,16.1054689 68.6777344,16.0742188 L69.796875,16.0390625 L69.796875,15.6933594 C69.796875,15.2792948 69.7001963,14.9697276 69.5068359,14.7646484 C69.3134756,14.5595693 69.0136739,14.4570312 68.6074219,14.4570312 C68.275389,14.4570312 67.9570328,14.5058589 67.6523438,14.6035156 C67.3476547,14.7011724 67.0546889,14.8164056 66.7734375,14.9492188 L66.328125,13.9648438 C66.6796893,13.7812491 67.064451,13.641602 67.4824219,13.5458984 C67.9003927,13.4501948 68.29492,13.4023438 68.6660156,13.4023438 C69.4902385,13.4023438 70.1123026,13.5820295 70.5322266,13.9414062 C70.9521505,14.300783 71.1621094,14.8652305 71.1621094,15.6347656 L71.1621094,20 L70.1777344,20 Z M68.1269531,19.0625 C68.6269556,19.0625 69.0283188,18.922853 69.3310547,18.6435547 C69.6337906,18.3642564 69.7851562,17.9726588 69.7851562,17.46875 L69.7851562,16.90625 L68.953125,16.9414062 C68.3046843,16.9648439 67.8330093,17.0732412 67.5380859,17.2666016 C67.2431626,17.4599619 67.0957031,17.7558574 67.0957031,18.1542969 C67.0957031,18.4433608 67.1816398,18.6669914 67.3535156,18.8251953 C67.5253915,18.9833992 67.7832014,19.0625 68.1269531,19.0625 Z M81.0117188,14.9023438 L80.6894531,16.5664062 L82.2714844,16.5664062 L82.2714844,17.5507812 L80.4960938,17.5507812 L80.0273438,20 L78.984375,20 L79.453125,17.5507812 L78,17.5507812 L77.53125,20 L76.5117188,20 L76.9570312,17.5507812 L75.4921875,17.5507812 L75.4921875,16.5664062 L77.1503906,16.5664062 L77.484375,14.9023438 L75.9375,14.9023438 L75.9375,13.9179688 L77.6542969,13.9179688 L78.1230469,11.4453125 L79.1777344,11.4453125 L78.7089844,13.9179688 L80.1855469,13.9179688 L80.6542969,11.4453125 L81.6738281,11.4453125 L81.2050781,13.9179688 L82.6816406,13.9179688 L82.6816406,14.9023438 L81.0117188,14.9023438 Z M78.1816406,16.5664062 L79.6464844,16.5664062 L79.9804688,14.9023438 L78.515625,14.9023438 L78.1816406,16.5664062 Z M89.3027344,20 L83.4960938,20 L83.4960938,18.9570312 L85.7050781,16.7363281 C86.3574251,16.068356 86.790038,15.594728 87.0029297,15.3154297 C87.2158214,15.0361314 87.3710933,14.7734387 87.46875,14.5273438 C87.5664067,14.2812488 87.6152344,14.0175795 87.6152344,13.7363281 C87.6152344,13.3496074 87.4990246,13.044923 87.2666016,12.8222656 C87.0341785,12.5996083 86.7128927,12.4882812 86.3027344,12.4882812 C85.9746077,12.4882812 85.6572281,12.5488275 85.3505859,12.6699219 C85.0439438,12.7910162 84.6894551,13.009764 84.2871094,13.3261719 L83.5429688,12.4179688 C84.0195336,12.015623 84.4824196,11.7304696 84.9316406,11.5625 C85.3808616,11.3945304 85.8593725,11.3105469 86.3671875,11.3105469 C87.1640665,11.3105469 87.802732,11.5185526 88.2832031,11.9345703 C88.7636743,12.350588 89.0039062,12.9101527 89.0039062,13.6132812 C89.0039062,14.0000019 88.934571,14.3671858 88.7958984,14.7148438 C88.6572259,15.0625017 88.4443374,15.4208966 88.1572266,15.7900391 C87.8701158,16.1591815 87.3925815,16.6582 86.7246094,17.2871094 L85.2363281,18.7285156 L85.2363281,18.7871094 L89.3027344,18.7871094 L89.3027344,20 Z" id="text-copy-2" fill="#FFFFFF"></path>
            </g>
            <g id="Arrow_black2" transform="translate(272.000000, 86.000000)" stroke="#1F1E1E">
                <path d="M5,5 L5,36 L5,36 C5,41.5228475 9.4771525,46 15,46 L18,46" id="Path-8-Copy-25" transform="translate(11.500000, 25.500000) scale(-1, 1) translate(-11.500000, -25.500000) "></path>
                <g id="Arrow_Black" transform="translate(14.000000, 0.000000)" fill="#1F1E1E" stroke-linejoin="round">
                    <polygon id="Path-14-Copy-14" points="0 5.5 4 0.5 8 5.5"></polygon>
                </g>
                <g id="Arrow_Black" transform="translate(3.000000, 46.000000) rotate(-90.000000) translate(-3.000000, -46.000000) translate(-1.000000, 43.000000)" fill="#1F1E1E" stroke-linejoin="round">
                    <polygon id="Path-14-Copy-14" points="0 5.5 4 0.5 8 5.5"></polygon>
                </g>
            </g>
            <g id="Arrow_black1" transform="translate(123.000000, 86.000000)" stroke="#1F1E1E">
                <path d="M4,5 L4,36 L4,36 C4,41.5228475 8.4771525,46 14,46 L17,46" id="Path-8-Copy-26"></path>
                <g id="Arrow_Black" fill="#1F1E1E" stroke-linejoin="round">
                    <polygon id="Path-14-Copy-14" points="0 5.5 4 0.5 8 5.5"></polygon>
                </g>
                <g id="Arrow_Black" transform="translate(19.000000, 46.000000) scale(-1, 1) rotate(-90.000000) translate(-19.000000, -46.000000) translate(15.000000, 43.000000)" fill="#1F1E1E" stroke-linejoin="round">
                    <polygon id="Path-14-Copy-14" points="0 5.5 4 0.5 8 5.5"></polygon>
                </g>
            </g>
            <g id="Arrow1" transform="translate(191.000000, 63.000000)" stroke="#FF2E2F">
                <g id="Arrow_red" transform="translate(30.000000, 0.500000)" fill="#FF2E2F" stroke-linejoin="round">
                    <polygon id="Path-14-Copy-14" transform="translate(3.000000, 4.500000) rotate(-270.000000) translate(-3.000000, -4.500000) " points="-1 7 3 2 7 7"></polygon>
                </g>
                <g id="Arrow_red" transform="translate(3.000000, 5.000000) scale(-1, 1) translate(-3.000000, -5.000000) translate(0.000000, 0.500000)" fill="#FF2E2F" stroke-linejoin="round">
                    <polygon id="Path-14-Copy-14" transform="translate(3.000000, 4.500000) rotate(-270.000000) translate(-3.000000, -4.500000) " points="-1 7 3 2 7 7"></polygon>
                </g>
                <path d="M5,5 L31,5" id="Path-15"></path>
            </g>
        </g>
    </g>
</svg>