<?xml version="1.0" encoding="UTF-8"?>
<svg width="445px" height="352px" viewBox="0 0 445 352" version="1.1" xmlns="http://www.w3.org/2000/svg" xmlns:xlink="http://www.w3.org/1999/xlink">
    <!-- Generator: Sketch 52.5 (67469) - http://www.bohemiancoding.com/sketch -->
    <title>4</title>
    <desc>Created with Sketch.</desc>
    <g id="4" stroke="none" stroke-width="1" fill="none" fill-rule="evenodd">
        <text id="1" font-family="OpenSans, Open Sans" font-size="18" font-weight="normal" fill="#000000">
            <tspan x="16" y="51">1</tspan>
        </text>
        <text id="1" font-family="OpenSans, Open Sans" font-size="18" font-weight="normal" fill="#000000">
            <tspan x="16" y="92">1</tspan>
        </text>
        <text id="2" font-family="OpenSans, Open Sans" font-size="18" font-weight="normal" fill="#000000">
            <tspan x="16" y="133">2</tspan>
        </text>
        <text id="3" font-family="OpenSans, Open Sans" font-size="18" font-weight="normal" fill="#000000">
            <tspan x="16" y="174">3</tspan>
        </text>
        <text id="3" font-family="OpenSans, Open Sans" font-size="18" font-weight="normal" fill="#000000">
            <tspan x="16" y="215">3</tspan>
        </text>
        <text id="3" font-family="OpenSans, Open Sans" font-size="18" font-weight="normal" fill="#000000">
            <tspan x="16" y="256">3</tspan>
        </text>
        <text font-family="OpenSans, Open Sans" font-size="18" font-weight="normal" fill="#000000">
            <tspan x="16" y="297">4</tspan>
        </text>
        <text font-family="OpenSans, Open Sans" font-size="18" font-weight="normal" fill="#000000">
            <tspan x="16" y="338">4</tspan>
        </text>
        <text id="176" font-family="OpenSans, Open Sans" font-size="18" font-weight="normal" fill="#000000">
            <tspan x="76" y="51">176</tspan>
        </text>
        <text id="REPLACE" font-family="OpenSans, Open Sans" font-size="18" font-weight="normal" letter-spacing="0.400000006" fill="#000000">
            <tspan x="138" y="51">REPLAC</tspan>
            <tspan x="204.103125" y="51">E</tspan>
        </text>
        <text id="INSERT" font-family="OpenSans, Open Sans" font-size="18" font-weight="normal" letter-spacing="0.400000006" fill="#000000">
            <tspan x="138" y="92">INSERT</tspan>
        </text>
        <text id="REPLACE" font-family="OpenSans, Open Sans" font-size="18" font-weight="normal" letter-spacing="0.400000006" fill="#000000">
            <tspan x="138" y="133">REPLACE</tspan>
        </text>
        <text id="REPLACE" font-family="OpenSans, Open Sans" font-size="18" font-weight="normal" letter-spacing="0.400000006" fill="#000000">
            <tspan x="138" y="174">REPLACE</tspan>
        </text>
        <text id="REPLACE" font-family="OpenSans, Open Sans" font-size="18" font-weight="normal" letter-spacing="0.400000006" fill="#000000">
            <tspan x="138" y="215">REPLACE</tspan>
        </text>
        <text id="INSERT" font-family="OpenSans, Open Sans" font-size="18" font-weight="normal" letter-spacing="0.400000006" fill="#000000">
            <tspan x="138" y="256">INSERT</tspan>
        </text>
        <text id="DELETE" font-family="OpenSans, Open Sans" font-size="18" font-weight="normal" letter-spacing="0.400000006" fill="#000000">
            <tspan x="138" y="297">DELETE</tspan>
        </text>
        <text id="INSERT" font-family="OpenSans, Open Sans" font-size="18" font-weight="normal" letter-spacing="0.400000006" fill="#000000">
            <tspan x="138" y="338">INSERT</tspan>
        </text>
        <text id="2018-05-07" font-family="OpenSans, Open Sans" font-size="18" font-weight="normal" letter-spacing="0.400000006" fill="#000000">
            <tspan x="246" y="51">2018-05-07</tspan>
        </text>
        <text id="Key" font-family="OpenSans-Bold, Open Sans" font-size="16" font-weight="bold" fill="#595959">
            <tspan x="16.140625" y="13">Key</tspan>
        </text>
        <text id="Isn" font-family="OpenSans-Bold, Open Sans" font-size="16" font-weight="bold" fill="#595959">
            <tspan x="76.234375" y="13">Isn</tspan>
        </text>
        <text id="Op-code" font-family="OpenSans-Bold, Open Sans" font-size="16" font-weight="bold" fill="#595959">
            <tspan x="138.273438" y="13">Op code</tspan>
        </text>
        <text id="Value" font-family="OpenSans-Bold, Open Sans" font-size="16" font-weight="bold" fill="#595959">
            <tspan x="246.40625" y="13">Value</tspan>
        </text>
        <text id="15:00:01" font-family="OpenSans, Open Sans" font-size="18" font-weight="normal" letter-spacing="0.400000006" fill="#000000">
            <tspan x="354" y="51">15:00:01</tspan>
        </text>
        <text id="2017-12-31" font-family="OpenSans, Open Sans" font-size="18" font-weight="normal" letter-spacing="0.400000006" fill="#000000">
            <tspan x="246" y="92">2017-12-31</tspan>
        </text>
        <text id="23:59:01" font-family="OpenSans, Open Sans" font-size="18" font-weight="normal" letter-spacing="0.400000006" fill="#000000">
            <tspan x="354" y="92">23:59:01</tspan>
        </text>
        <text id="2018-05-06" font-family="OpenSans, Open Sans" font-size="18" font-weight="normal" letter-spacing="0.400000006" fill="#000000">
            <tspan x="246" y="133">2018-05-06</tspan>
        </text>
        <text id="00:00:00" font-family="OpenSans, Open Sans" font-size="18" font-weight="normal" letter-spacing="0.400000006" fill="#000000">
            <tspan x="354" y="133">00:00:00</tspan>
        </text>
        <text id="2018-05-07" font-family="OpenSans, Open Sans" font-size="18" font-weight="normal" letter-spacing="0.400000006" fill="#000000">
            <tspan x="246" y="174">2018-05-07</tspan>
        </text>
        <text id="09:04:19" font-family="OpenSans, Open Sans" font-size="18" font-weight="normal" letter-spacing="0.400000006" fill="#000000">
            <tspan x="354" y="174">09:04:19</tspan>
        </text>
        <text id="2017-01-01" font-family="OpenSans, Open Sans" font-size="18" font-weight="normal" letter-spacing="0.400000006" fill="#000000">
            <tspan x="246" y="215">2017-01-01</tspan>
        </text>
        <text id="19:25:43" font-family="OpenSans, Open Sans" font-size="18" font-weight="normal" letter-spacing="0.400000006" fill="#000000">
            <tspan x="354" y="215">19:25:43</tspan>
        </text>
        <text id="2017-01-01" font-family="OpenSans, Open Sans" font-size="18" font-weight="normal" letter-spacing="0.400000006" fill="#000000">
            <tspan x="246" y="256">2017-01-01</tspan>
        </text>
        <text id="19:22:16" font-family="OpenSans, Open Sans" font-size="18" font-weight="normal" letter-spacing="0.400000006" fill="#000000">
            <tspan x="354" y="256">19:22:16</tspan>
        </text>
        <text id="2018-05-05" font-family="OpenSans, Open Sans" font-size="18" font-weight="normal" letter-spacing="0.400000006" fill="#000000">
            <tspan x="246" y="338">2018-05-05</tspan>
        </text>
        <text id="07:40:01" font-family="OpenSans, Open Sans" font-size="18" font-weight="normal" letter-spacing="0.400000006" fill="#000000">
            <tspan x="354" y="338">07:40:01</tspan>
        </text>
        <text id="53" font-family="OpenSans, Open Sans" font-size="18" font-weight="normal" fill="#000000">
            <tspan x="76" y="92">53</tspan>
        </text>
        <text id="174" font-family="OpenSans, Open Sans" font-size="18" font-weight="normal" fill="#000000">
            <tspan x="76" y="133">174</tspan>
        </text>
        <text id="175" font-family="OpenSans, Open Sans" font-size="18" font-weight="normal" fill="#000000">
            <tspan x="76" y="174">175</tspan>
        </text>
        <text id="9" font-family="OpenSans, Open Sans" font-size="18" font-weight="normal" fill="#000000">
            <tspan x="76" y="215">9</tspan>
        </text>
        <text id="7" font-family="OpenSans, Open Sans" font-size="18" font-weight="normal" fill="#000000">
            <tspan x="76" y="256">7</tspan>
        </text>
        <text id="173" font-family="OpenSans, Open Sans" font-size="18" font-weight="normal" fill="#000000">
            <tspan x="76" y="297">173</tspan>
        </text>
        <text id="168" font-family="OpenSans, Open Sans" font-size="18" font-weight="normal" fill="#000000">
            <tspan x="76" y="338">168</tspan>
        </text>
        <path d="M222.5,64.5 L444,64.5 L443.5,64 L443.5,65 L444,64.5 L222.5,64.5 Z M222.5,64.5 L1,64.5 L1.5,65 L1.5,64 L1,64.5 L222.5,64.5 Z" id="Rectangle" stroke="#E4E4E4"></path>
        <path d="M222.5,105.5 L444,105.5 L443.5,105 L443.5,106 L444,105.5 L222.5,105.5 Z M222.5,105.5 L1,105.5 L1.5,106 L1.5,105 L1,105.5 L222.5,105.5 Z" id="Rectangle" stroke="#E4E4E4"></path>
        <path d="M222.5,146.5 L444,146.5 L443.5,146 L443.5,147 L444,146.5 L222.5,146.5 Z M222.5,146.5 L1,146.5 L1.5,147 L1.5,146 L1,146.5 L222.5,146.5 Z" id="Rectangle" stroke="#E4E4E4"></path>
        <path d="M222.5,187.5 L444,187.5 L443.5,187 L443.5,188 L444,187.5 L222.5,187.5 Z M222.5,187.5 L1,187.5 L1.5,188 L1.5,187 L1,187.5 L222.5,187.5 Z" id="Rectangle" stroke="#E4E4E4"></path>
        <path d="M222.5,228.5 L444,228.5 L443.5,228 L443.5,229 L444,228.5 L222.5,228.5 Z M222.5,228.5 L1,228.5 L1.5,229 L1.5,228 L1,228.5 L222.5,228.5 Z" id="Rectangle" stroke="#E4E4E4"></path>
        <path d="M222.5,269.5 L444,269.5 L443.5,269 L443.5,270 L444,269.5 L222.5,269.5 Z M222.5,269.5 L1,269.5 L1.5,270 L1.5,269 L1,269.5 L222.5,269.5 Z" id="Rectangle" stroke="#E4E4E4"></path>
        <path d="M222.5,310.5 L444,310.5 L443.5,310 L443.5,311 L444,310.5 L222.5,310.5 Z M222.5,310.5 L1,310.5 L1.5,311 L1.5,310 L1,310.5 L222.5,310.5 Z" id="Rectangle" stroke="#E4E4E4"></path>
        <path d="M222.5,351.5 L444,351.5 L443.5,351 L443.5,352 L444,351.5 L222.5,351.5 Z M222.5,351.5 L1,351.5 L1.5,352 L1.5,351 L1,351.5 L222.5,351.5 Z" id="Rectangle" stroke="#E4E4E4"></path>
        <path d="M222,23.5 L444,23.5 L443.5,23 L443.5,24 L444,23.5 L222,23.5 Z M222,23.5 L0,23.5 L0.5,24 L0.5,23 L0,23.5 L222,23.5 Z" id="Rectangle" stroke="#E4E4E4"></path>
        <path d="M60.5,188 L60.5,352 L61,351.5 L60,351.5 L60.5,352 L60.5,188 Z M60.5,188 L60.5,24 L60,24.5 L61,24.5 L60.5,24 L60.5,188 Z" id="Rectangle-Copy" stroke="#E4E4E4"></path>
        <path d="M122.5,188 L122.5,352 L123,351.5 L122,351.5 L122.5,352 L122.5,188 Z M122.5,188 L122.5,24 L122,24.5 L123,24.5 L122.5,24 L122.5,188 Z" id="Rectangle-Copy" stroke="#E4E4E4"></path>
        <path d="M230.5,188 L230.5,352 L231,351.5 L230,351.5 L230.5,352 L230.5,188 Z M230.5,188 L230.5,24 L230,24.5 L231,24.5 L230.5,24 L230.5,188 Z" id="Rectangle-Copy" stroke="#E4E4E4"></path>
        <path d="M444.5,188 L444.5,352 L445,351.5 L444,351.5 L444.5,352 L444.5,188 Z M444.5,188 L444.5,24 L444,24.5 L445,24.5 L444.5,24 L444.5,188 Z" id="Rectangle-Copy" stroke="#E4E4E4"></path>
        <path d="M0.5,188 L0.5,352 L1,351.5 L0,351.5 L0.5,352 L0.5,188 Z M0.5,188 L0.5,24 L0,24.5 L1,24.5 L0.5,24 L0.5,188 Z" id="Rectangle-Copy" stroke="#E4E4E4"></path>
    </g>
</svg>