<svg xmlns="http://www.w3.org/2000/svg" width="162" height="109" viewBox="0 0 162 109">
    <g fill="none" fill-rule="evenodd">
        <path stroke="#979797" stroke-linecap="square" stroke-width="2" d="M85.995 81.645l7.29 17.199M74.01 81.499l-6.856 17.198"/>
        <g stroke-width="2">
            <path stroke="#9B9B9B" stroke-linecap="round" d="M52.693 68.65v-7.452c1.61-.867 5.373-6.768 5.858-11.423 0 0 3.26-1.371 3.846-6.361.314-2.68-1.697-4.663-1.697-4.663 3.812-4.978 1.793-24.747-10.457-24.747l-2.45-4.968c-19.599 0-28.693 16.059-22.705 29.715 0 0-2.014 1.982-1.698 4.663.585 4.99 3.846 6.36 3.846 6.36.483 4.656 4.246 10.557 5.858 11.424v7.452C29.23 79.281 1.245 77.759 1.245 98.457h83.297c0-20.775-27.985-19.176-31.849-29.807z"/>
            <path fill="#262626" stroke="#9B9B9B" stroke-linecap="round" d="M53.23 68.918V61.35c1.635-.88 5.455-6.874 5.947-11.601 0 0 3.31-1.393 3.905-6.46.318-2.722-1.724-4.735-1.724-4.735 3.87-5.055 1.82-25.131-10.614-25.131l-2.487-5.045c-19.896 0-29.128 16.307-23.05 30.176 0 0-2.044 2.013-1.723 4.735.594 5.067 3.905 6.46 3.905 6.46.49 4.727 4.31 10.72 5.946 11.6v7.568c-3.922 10.796-32.33 9.25-32.33 30.27H85.56c0-21.098-28.408-19.474-32.33-30.27z"/>
            <path stroke="#9B9B9B" d="M54.47 70.982c-2.977 2.065-5.612 4.43-9.94 4.43-4.92 0-8.927-1.842-11.997-4.43"/>
            <path stroke="#979797" stroke-linecap="square" d="M13.022 81.645l7.29 17.199"/>
            <g>
                <path fill="#262626" stroke="#9B9B9B" stroke-linecap="round" d="M127.497 68.504V60.87c1.65-.889 5.506-6.935 6.003-11.704 0 0 3.341-1.405 3.941-6.517.321-2.746-1.74-4.777-1.74-4.777 3.907-5.1 1.838-25.353-10.714-25.353l-2.51-5.09c-20.084 0-29.403 16.452-23.267 30.443 0 0-2.064 2.031-1.74 4.777.6 5.112 3.941 6.517 3.941 6.517.495 4.769 4.351 10.815 6.003 11.704v7.634c-3.959 10.892-32.636 9.332-32.636 30.537h85.355c0-21.284-28.677-19.645-32.636-30.537z"/>
                <path stroke="#979797" stroke-linecap="square" d="M86.888 81.344l6.92 17.35M148.472 81.344l-6.92 17.35"/>
                <path stroke="#9B9B9B" d="M128.747 70.586c-3.004 2.084-5.663 4.47-10.033 4.47-4.966 0-9.01-1.859-12.11-4.47"/>
            </g>
        </g>
        <g stroke-width="2">
            <path fill="#262626" stroke="#9B9B9B" stroke-linecap="round" d="M92.571 71.718v-8.84c1.912-1.028 6.38-8.029 6.956-13.55 0 0 3.873-1.627 4.568-7.547.372-3.18-2.016-5.53-2.016-5.53 4.527-5.906 2.13-29.358-12.417-29.358L86.752 1C63.48 1 52.68 20.05 59.79 36.25c0 0-2.392 2.352-2.017 5.53.696 5.92 4.568 7.547 4.568 7.547.573 5.522 5.042 12.523 6.956 13.552v8.84c-4.588 12.61-37.82 10.805-37.82 35.359h98.915c0-24.646-33.233-22.748-37.82-35.36z"/>
            <path stroke="#979797" stroke-linecap="square" d="M45.51 86.585l8.019 20.09M116.879 86.585l-8.02 20.09"/>
            <path stroke="#9B9B9B" d="M94.02 74.13c-3.482 2.412-6.564 5.175-11.627 5.175-5.756 0-10.443-2.152-14.034-5.176"/>
        </g>
    </g>
</svg>
