<svg xmlns="http://www.w3.org/2000/svg" width="29" height="36" viewBox="0 0 29 36">
    <g fill="none" fill-rule="evenodd" opacity=".78">
        <path stroke="#FF2E2F" stroke-linecap="round" stroke-width="2" d="M2.492 34.564c-.82 0-1.492-.671-1.492-1.492v-17.9c0-.82.671-1.492 1.492-1.492H26.36c.82 0 1.491.671 1.491 1.492v17.9c0 .82-.671 1.492-1.491 1.492H2.492zM22.63 13.68V9.205A8.18 8.18 0 0 0 14.426 1 8.18 8.18 0 0 0 6.22 9.205v4.475"/>
        <path fill="#FF2E2F" fill-rule="nonzero" d="M16.663 22.63c0-1.268-.97-2.237-2.237-2.237-1.268 0-2.238.97-2.238 2.237 0 .671.298 1.268.746 1.641v2.089c0 .82.671 1.491 1.492 1.491.82 0 1.491-.671 1.491-1.491V24.27c.448-.373.746-.97.746-1.64z"/>
    </g>
</svg>
