<?xml version="1.0" encoding="UTF-8"?>
<svg width="212px" height="162px" viewBox="0 0 212 162" version="1.1" xmlns="http://www.w3.org/2000/svg" xmlns:xlink="http://www.w3.org/1999/xlink">
    <!-- Generator: Sketch 42 (36781) - http://www.bohemiancoding.com/sketch -->
    <title>logo-qiwi</title>
    <desc>Created with Sketch.</desc>
    <defs></defs>
    <g id="Logos" stroke="none" stroke-width="1" fill="none" fill-rule="evenodd">
        <g id="qiwi">
            <g id="Qiwi-Colorful" transform="translate(20.000000, 10.000000)">
                <g id="Group" transform="translate(63.000000, 10.000000)" fill="#0023A0">
                    <path d="M108.9595,37.5241986 C108.9595,37.9046687 108.722464,38.1412709 108.343294,38.1412709 L101.889602,38.1412709 C101.510432,38.1412709 101.272963,37.9046687 101.272963,37.5241986 L101.272963,5.11750558 C101.272963,4.73833549 101.510432,4.5 101.889602,4.5 L108.343294,4.5 C108.722464,4.5 108.9595,4.73833549 108.9595,5.11750558 L108.9595,37.5241986" id="Fill-12"></path>
                    <path d="M90.2804219,27.9392119 C89.4267475,31.2130749 88.7143411,34.3448032 88.0981355,37.570999 C88.0500351,37.9506025 87.8125662,38.1399708 87.4333961,38.1399708 L78.7501843,38.1399708 C78.3714475,38.1399708 78.1335454,37.9506025 78.086745,37.570999 C77.5645736,34.8197408 77.0424022,32.3046514 76.3776628,29.6942278 L74.9077829,23.526972 C74.6230803,22.2936942 74.2426102,20.2999095 73.9579076,18.6389278 C73.8634401,17.9750552 73.2944683,17.9750552 73.1991341,18.6389278 C72.9144315,20.2999095 72.5352614,22.2455938 72.2505589,23.526972 L70.7793789,29.6942278 C70.16274,32.3046514 69.6405686,34.8197408 69.0707301,37.570999 C69.024363,37.9506025 68.7860275,38.1399708 68.4077241,38.1399708 L59.7245123,38.1399708 C59.3444755,38.1399708 59.1070067,37.9506025 59.0597729,37.570999 C58.4427007,34.3448032 57.7315942,31.2130749 56.8774865,27.9392119 L51.0413004,5.16473934 C50.8991658,4.78470257 51.1362013,4.5 51.5634718,4.5 L58.1107643,4.5 C58.4908011,4.5 58.7282699,4.69023505 58.8227374,5.02173805 L62.0489333,17.8324872 C62.8558072,21.0591164 63.5201133,25.1870871 63.8048158,28.2711483 C63.8520496,28.8877872 64.5640227,28.9358876 64.6589235,28.2711483 C65.0853274,25.2343208 65.8454009,21.0591164 66.7463091,17.8324872 L70.2099737,5.02173805 C70.3044413,4.69023505 70.5419101,4.5 70.8738464,4.5 L76.2831953,4.5 C76.615565,4.5 76.8526005,4.69023505 76.947068,5.02173805 L80.4588331,17.8324872 C81.3597412,21.0591164 82.1193814,25.2343208 82.546652,28.2711483 C82.5938857,28.9358876 83.3062922,28.8877872 83.3530926,28.2711483 C83.5905614,25.1870871 84.3016678,21.0591164 85.1081085,17.8324872 L88.335171,5.02173805 C88.4296385,4.69023505 88.6662406,4.5 89.0467107,4.5 L95.5944366,4.5 C96.0217071,4.5 96.259176,4.78470257 96.1161747,5.16473934 L90.2804219,27.9392119" id="Fill-11"></path>
                    <path d="M44.2686807,38.1399994 L37.814989,38.1399994 C37.4358189,38.1399994 37.1983501,37.9034062 37.1983501,37.5229505 L37.1983501,5.11748225 C37.1983501,4.73832648 37.4358189,4.5 37.814989,4.5 L44.2686807,4.5 C44.6474175,4.5 44.8848863,4.73832648 44.8848863,5.11748225 L44.8848863,37.5229505 C44.8848863,37.9034062 44.6474175,38.1399994 44.2686807,38.1399994 Z" id="Fill-10"></path>
                    <path d="M28.0919441,42.3704165 C27.8072416,42.6078853 27.4744386,42.5597848 27.2382698,42.2750823 L24.9602158,39.2391215 C22.8732636,36.4393295 20.2156063,34.6843136 15.2807616,34.6843136 C5.98091088,34.6843136 0.145591447,27.9944531 0.145591447,17.3659904 C0.145591447,6.69029383 5.98091088,0 15.2807616,0 C24.5810457,0 30.3699981,6.69029383 30.3699981,17.3659904 C30.3699981,22.7749059 28.4719809,28.278289 25.2921522,30.1767395 C24.7231803,30.5095425 24.7231803,30.6512438 25.2921522,30.8410455 C28.044277,31.8372879 29.325222,33.0237653 30.7964019,34.9213491 L32.9314546,37.8151753 C33.16849,38.0998778 33.1212563,38.4313808 32.8361204,38.6697163 L28.0919441,42.3704165 Z M15.2807616,27.8514518 C19.8836699,27.8514518 22.6349281,23.8660491 22.6349281,17.3659904 C22.6349281,10.7229303 19.8836699,6.88009554 15.2807616,6.88009554 C10.7736209,6.88009554 7.88022805,10.7229303 7.88022805,17.3659904 C7.88022805,23.8660491 10.7736209,27.8514518 15.2807616,27.8514518 L15.2807616,27.8514518 Z" id="Fill-9"></path>
                </g>
                <path d="M40.4371953,42.3699989 C39.8980802,42.3699989 39.448521,42.5580072 39.1718464,42.8993282 C38.4634052,43.7726473 38.7818923,45.3102227 39.8669431,46.2582706 C40.3405223,46.6716516 41.0225712,46.919265 41.6921653,46.919265 C42.3739176,46.919265 42.9426871,46.6633484 43.293794,46.1995551 C43.925134,45.353518 43.5618688,44.1542981 42.3688764,43.1454589 C41.7781627,42.6457839 41.0922588,42.3699989 40.4371953,42.3699989 M46.3840685,37.9767781 C45.8565185,37.8225758 45.4621163,37.9373379 45.2675841,38.2931895 C44.9728204,38.831415 45.1904829,39.8963009 45.7850516,40.8241839 C46.387627,41.7642252 46.8985705,42.2407698 47.3054275,42.2407698 C47.4456924,42.2407698 47.5711301,42.1817577 47.6686927,42.0708507 C47.894955,41.811079 47.9696838,41.2669226 47.8744935,40.5786463 C47.7790067,39.8752464 47.3472401,38.4284131 46.3840685,37.9767781 M58.1651284,59.2976261 C58.710471,59.973151 57.8810402,60.659055 57.2627481,60.1110435 C51.0890196,54.6424942 45.8965518,53.0936502 40.7610203,52.878953 C38.0354936,52.7650805 35.3262769,53.0263349 32.4939948,53.2766172 C31.9284873,53.3264364 31.3579386,53.3759591 30.7808659,53.4216267 C30.5291009,53.4420882 30.2755567,53.4610669 30.0220124,53.4797491 C29.0232556,53.5873943 28.0114509,53.644627 26.9851156,53.644627 C22.1529476,53.644627 17.5933026,52.4605309 13.4310251,50.1237721 C9.25392057,47.7807859 5.93412179,44.507841 3.56444675,40.3956793 C1.19892331,36.2927105 0,31.7588647 0,26.9198762 C0,22.0859289 1.19773714,17.5328078 3.55970206,13.3874333 C5.92641167,9.23583145 9.20825295,5.93056327 13.3141872,3.56415021 C17.4201215,1.19921986 21.8988102,0 26.6268917,0 C31.564629,0 36.1797276,1.18468925 40.3440808,3.52144802 C44.5202958,5.86473073 47.850177,9.14746164 50.2420928,13.2797882 C52.6295604,17.4070736 53.8400489,21.9527811 53.8400489,26.7905834 C53.8400489,28.6582112 53.6588611,30.4819506 53.3033061,32.2555742 C53.2576384,32.5129735 53.1915094,32.8249367 53.0983949,33.1884985 C53.0290038,33.4794071 52.9548681,33.7694262 52.8756911,34.057666 L52.8534503,34.0452112 C52.3751265,35.5765592 51.4846079,37.7439919 49.8272291,40.5270478 C49.6487102,40.8197358 49.5499614,40.5967355 49.5268311,40.4330437 C48.946793,36.3398608 47.1530044,33.2314972 43.9912631,31.2239011 C43.939368,31.1909849 43.8859903,31.1592548 43.8332057,31.1272281 C43.315145,30.8084444 42.7617958,30.5187219 42.1713787,30.2577641 C41.417863,29.9259325 40.6050387,29.6397685 39.7308299,29.4037203 C39.1946802,29.2596004 37.9996119,29.3215779 38.4331578,28.8915905 C38.6119732,28.7145543 41.2007935,28.673928 44.1766024,28.8625293 C44.2344283,28.8660878 44.2922542,28.8696463 44.3506732,28.8735014 C44.4055336,28.2495749 44.4340018,27.6099317 44.4340018,26.9536821 C44.4340018,21.8463221 42.7434102,17.6819689 39.2652574,14.2236846 C35.7844358,10.7630279 31.7146798,9.08014638 26.8226101,9.08014638 C21.8131093,9.08014638 17.7510634,10.7648071 14.4051689,14.2308016 C11.0411852,17.7139956 9.40634367,21.8433567 9.40634367,26.8546367 C9.40634367,31.8555377 11.0874459,35.9674028 14.5460268,39.4253906 C18.0046077,42.883675 22.0200963,44.5653703 26.8226101,44.5653703 C27.053024,44.5653703 27.2804724,44.5582533 27.5079209,44.5511362 C27.5025831,44.4930138 27.4987281,44.4348914 27.4939834,44.3776586 C27.2179019,40.8517624 27.1594829,37.9225108 27.8839374,39.1042346 C28.139854,39.5220637 28.3945845,39.9167624 28.6484253,40.2966339 C29.5955836,41.7123302 30.5326594,42.8774476 31.4655837,43.8435847 C31.5124375,43.8919212 31.5592913,43.9390715 31.6067381,43.9865184 C35.0205411,47.4516232 38.3809662,48.3041843 41.9534196,49.1807654 C42.0296312,49.2000407 42.1055462,49.2187229 42.1814612,49.2371086 C42.766244,49.3812285 43.3569576,49.5271276 43.9547883,49.6869643 C48.2006908,50.8200551 52.7988864,52.6467599 58.1651284,59.2976261" id="Fill-13" fill="#FF8C00"></path>
            </g>
            <g id="Qiwi-Colorless" transform="translate(20.000000, 91.000000)" fill="#929292">
                <g id="Group" transform="translate(63.000000, 10.000000)">
                    <path d="M108.9595,37.5241986 C108.9595,37.9046687 108.722464,38.1412709 108.343294,38.1412709 L101.889602,38.1412709 C101.510432,38.1412709 101.272963,37.9046687 101.272963,37.5241986 L101.272963,5.11750558 C101.272963,4.73833549 101.510432,4.5 101.889602,4.5 L108.343294,4.5 C108.722464,4.5 108.9595,4.73833549 108.9595,5.11750558 L108.9595,37.5241986" id="Fill-12"></path>
                    <path d="M90.2804219,27.9392119 C89.4267475,31.2130749 88.7143411,34.3448032 88.0981355,37.570999 C88.0500351,37.9506025 87.8125662,38.1399708 87.4333961,38.1399708 L78.7501843,38.1399708 C78.3714475,38.1399708 78.1335454,37.9506025 78.086745,37.570999 C77.5645736,34.8197408 77.0424022,32.3046514 76.3776628,29.6942278 L74.9077829,23.526972 C74.6230803,22.2936942 74.2426102,20.2999095 73.9579076,18.6389278 C73.8634401,17.9750552 73.2944683,17.9750552 73.1991341,18.6389278 C72.9144315,20.2999095 72.5352614,22.2455938 72.2505589,23.526972 L70.7793789,29.6942278 C70.16274,32.3046514 69.6405686,34.8197408 69.0707301,37.570999 C69.024363,37.9506025 68.7860275,38.1399708 68.4077241,38.1399708 L59.7245123,38.1399708 C59.3444755,38.1399708 59.1070067,37.9506025 59.0597729,37.570999 C58.4427007,34.3448032 57.7315942,31.2130749 56.8774865,27.9392119 L51.0413004,5.16473934 C50.8991658,4.78470257 51.1362013,4.5 51.5634718,4.5 L58.1107643,4.5 C58.4908011,4.5 58.7282699,4.69023505 58.8227374,5.02173805 L62.0489333,17.8324872 C62.8558072,21.0591164 63.5201133,25.1870871 63.8048158,28.2711483 C63.8520496,28.8877872 64.5640227,28.9358876 64.6589235,28.2711483 C65.0853274,25.2343208 65.8454009,21.0591164 66.7463091,17.8324872 L70.2099737,5.02173805 C70.3044413,4.69023505 70.5419101,4.5 70.8738464,4.5 L76.2831953,4.5 C76.615565,4.5 76.8526005,4.69023505 76.947068,5.02173805 L80.4588331,17.8324872 C81.3597412,21.0591164 82.1193814,25.2343208 82.546652,28.2711483 C82.5938857,28.9358876 83.3062922,28.8877872 83.3530926,28.2711483 C83.5905614,25.1870871 84.3016678,21.0591164 85.1081085,17.8324872 L88.335171,5.02173805 C88.4296385,4.69023505 88.6662406,4.5 89.0467107,4.5 L95.5944366,4.5 C96.0217071,4.5 96.259176,4.78470257 96.1161747,5.16473934 L90.2804219,27.9392119" id="Fill-11"></path>
                    <path d="M44.2686807,38.1399994 L37.814989,38.1399994 C37.4358189,38.1399994 37.1983501,37.9034062 37.1983501,37.5229505 L37.1983501,5.11748225 C37.1983501,4.73832648 37.4358189,4.5 37.814989,4.5 L44.2686807,4.5 C44.6474175,4.5 44.8848863,4.73832648 44.8848863,5.11748225 L44.8848863,37.5229505 C44.8848863,37.9034062 44.6474175,38.1399994 44.2686807,38.1399994 Z" id="Fill-10"></path>
                    <path d="M28.0919441,42.3704165 C27.8072416,42.6078853 27.4744386,42.5597848 27.2382698,42.2750823 L24.9602158,39.2391215 C22.8732636,36.4393295 20.2156063,34.6843136 15.2807616,34.6843136 C5.98091088,34.6843136 0.145591447,27.9944531 0.145591447,17.3659904 C0.145591447,6.69029383 5.98091088,0 15.2807616,0 C24.5810457,0 30.3699981,6.69029383 30.3699981,17.3659904 C30.3699981,22.7749059 28.4719809,28.278289 25.2921522,30.1767395 C24.7231803,30.5095425 24.7231803,30.6512438 25.2921522,30.8410455 C28.044277,31.8372879 29.325222,33.0237653 30.7964019,34.9213491 L32.9314546,37.8151753 C33.16849,38.0998778 33.1212563,38.4313808 32.8361204,38.6697163 L28.0919441,42.3704165 Z M15.2807616,27.8514518 C19.8836699,27.8514518 22.6349281,23.8660491 22.6349281,17.3659904 C22.6349281,10.7229303 19.8836699,6.88009554 15.2807616,6.88009554 C10.7736209,6.88009554 7.88022805,10.7229303 7.88022805,17.3659904 C7.88022805,23.8660491 10.7736209,27.8514518 15.2807616,27.8514518 L15.2807616,27.8514518 Z" id="Fill-9"></path>
                </g>
                <path d="M40.4371953,42.3699989 C39.8980802,42.3699989 39.448521,42.5580072 39.1718464,42.8993282 C38.4634052,43.7726473 38.7818923,45.3102227 39.8669431,46.2582706 C40.3405223,46.6716516 41.0225712,46.919265 41.6921653,46.919265 C42.3739176,46.919265 42.9426871,46.6633484 43.293794,46.1995551 C43.925134,45.353518 43.5618688,44.1542981 42.3688764,43.1454589 C41.7781627,42.6457839 41.0922588,42.3699989 40.4371953,42.3699989 M46.3840685,37.9767781 C45.8565185,37.8225758 45.4621163,37.9373379 45.2675841,38.2931895 C44.9728204,38.831415 45.1904829,39.8963009 45.7850516,40.8241839 C46.387627,41.7642252 46.8985705,42.2407698 47.3054275,42.2407698 C47.4456924,42.2407698 47.5711301,42.1817577 47.6686927,42.0708507 C47.894955,41.811079 47.9696838,41.2669226 47.8744935,40.5786463 C47.7790067,39.8752464 47.3472401,38.4284131 46.3840685,37.9767781 M58.1651284,59.2976261 C58.710471,59.973151 57.8810402,60.659055 57.2627481,60.1110435 C51.0890196,54.6424942 45.8965518,53.0936502 40.7610203,52.878953 C38.0354936,52.7650805 35.3262769,53.0263349 32.4939948,53.2766172 C31.9284873,53.3264364 31.3579386,53.3759591 30.7808659,53.4216267 C30.5291009,53.4420882 30.2755567,53.4610669 30.0220124,53.4797491 C29.0232556,53.5873943 28.0114509,53.644627 26.9851156,53.644627 C22.1529476,53.644627 17.5933026,52.4605309 13.4310251,50.1237721 C9.25392057,47.7807859 5.93412179,44.507841 3.56444675,40.3956793 C1.19892331,36.2927105 0,31.7588647 0,26.9198762 C0,22.0859289 1.19773714,17.5328078 3.55970206,13.3874333 C5.92641167,9.23583145 9.20825295,5.93056327 13.3141872,3.56415021 C17.4201215,1.19921986 21.8988102,0 26.6268917,0 C31.564629,0 36.1797276,1.18468925 40.3440808,3.52144802 C44.5202958,5.86473073 47.850177,9.14746164 50.2420928,13.2797882 C52.6295604,17.4070736 53.8400489,21.9527811 53.8400489,26.7905834 C53.8400489,28.6582112 53.6588611,30.4819506 53.3033061,32.2555742 C53.2576384,32.5129735 53.1915094,32.8249367 53.0983949,33.1884985 C53.0290038,33.4794071 52.9548681,33.7694262 52.8756911,34.057666 L52.8534503,34.0452112 C52.3751265,35.5765592 51.4846079,37.7439919 49.8272291,40.5270478 C49.6487102,40.8197358 49.5499614,40.5967355 49.5268311,40.4330437 C48.946793,36.3398608 47.1530044,33.2314972 43.9912631,31.2239011 C43.939368,31.1909849 43.8859903,31.1592548 43.8332057,31.1272281 C43.315145,30.8084444 42.7617958,30.5187219 42.1713787,30.2577641 C41.417863,29.9259325 40.6050387,29.6397685 39.7308299,29.4037203 C39.1946802,29.2596004 37.9996119,29.3215779 38.4331578,28.8915905 C38.6119732,28.7145543 41.2007935,28.673928 44.1766024,28.8625293 C44.2344283,28.8660878 44.2922542,28.8696463 44.3506732,28.8735014 C44.4055336,28.2495749 44.4340018,27.6099317 44.4340018,26.9536821 C44.4340018,21.8463221 42.7434102,17.6819689 39.2652574,14.2236846 C35.7844358,10.7630279 31.7146798,9.08014638 26.8226101,9.08014638 C21.8131093,9.08014638 17.7510634,10.7648071 14.4051689,14.2308016 C11.0411852,17.7139956 9.40634367,21.8433567 9.40634367,26.8546367 C9.40634367,31.8555377 11.0874459,35.9674028 14.5460268,39.4253906 C18.0046077,42.883675 22.0200963,44.5653703 26.8226101,44.5653703 C27.053024,44.5653703 27.2804724,44.5582533 27.5079209,44.5511362 C27.5025831,44.4930138 27.4987281,44.4348914 27.4939834,44.3776586 C27.2179019,40.8517624 27.1594829,37.9225108 27.8839374,39.1042346 C28.139854,39.5220637 28.3945845,39.9167624 28.6484253,40.2966339 C29.5955836,41.7123302 30.5326594,42.8774476 31.4655837,43.8435847 C31.5124375,43.8919212 31.5592913,43.9390715 31.6067381,43.9865184 C35.0205411,47.4516232 38.3809662,48.3041843 41.9534196,49.1807654 C42.0296312,49.2000407 42.1055462,49.2187229 42.1814612,49.2371086 C42.766244,49.3812285 43.3569576,49.5271276 43.9547883,49.6869643 C48.2006908,50.8200551 52.7988864,52.6467599 58.1651284,59.2976261" id="Fill-13"></path>
            </g>
            <g id="Qiwi-Colorful" transform="translate(20.000000, 10.000000)">
                <g id="Group" transform="translate(63.000000, 10.000000)" fill="#168DE2">
                    <path d="M108.9595,37.5241986 C108.9595,37.9046687 108.722464,38.1412709 108.343294,38.1412709 L101.889602,38.1412709 C101.510432,38.1412709 101.272963,37.9046687 101.272963,37.5241986 L101.272963,5.11750558 C101.272963,4.73833549 101.510432,4.5 101.889602,4.5 L108.343294,4.5 C108.722464,4.5 108.9595,4.73833549 108.9595,5.11750558 L108.9595,37.5241986" id="Fill-12"></path>
                    <path d="M90.2804219,27.9392119 C89.4267475,31.2130749 88.7143411,34.3448032 88.0981355,37.570999 C88.0500351,37.9506025 87.8125662,38.1399708 87.4333961,38.1399708 L78.7501843,38.1399708 C78.3714475,38.1399708 78.1335454,37.9506025 78.086745,37.570999 C77.5645736,34.8197408 77.0424022,32.3046514 76.3776628,29.6942278 L74.9077829,23.526972 C74.6230803,22.2936942 74.2426102,20.2999095 73.9579076,18.6389278 C73.8634401,17.9750552 73.2944683,17.9750552 73.1991341,18.6389278 C72.9144315,20.2999095 72.5352614,22.2455938 72.2505589,23.526972 L70.7793789,29.6942278 C70.16274,32.3046514 69.6405686,34.8197408 69.0707301,37.570999 C69.024363,37.9506025 68.7860275,38.1399708 68.4077241,38.1399708 L59.7245123,38.1399708 C59.3444755,38.1399708 59.1070067,37.9506025 59.0597729,37.570999 C58.4427007,34.3448032 57.7315942,31.2130749 56.8774865,27.9392119 L51.0413004,5.16473934 C50.8991658,4.78470257 51.1362013,4.5 51.5634718,4.5 L58.1107643,4.5 C58.4908011,4.5 58.7282699,4.69023505 58.8227374,5.02173805 L62.0489333,17.8324872 C62.8558072,21.0591164 63.5201133,25.1870871 63.8048158,28.2711483 C63.8520496,28.8877872 64.5640227,28.9358876 64.6589235,28.2711483 C65.0853274,25.2343208 65.8454009,21.0591164 66.7463091,17.8324872 L70.2099737,5.02173805 C70.3044413,4.69023505 70.5419101,4.5 70.8738464,4.5 L76.2831953,4.5 C76.615565,4.5 76.8526005,4.69023505 76.947068,5.02173805 L80.4588331,17.8324872 C81.3597412,21.0591164 82.1193814,25.2343208 82.546652,28.2711483 C82.5938857,28.9358876 83.3062922,28.8877872 83.3530926,28.2711483 C83.5905614,25.1870871 84.3016678,21.0591164 85.1081085,17.8324872 L88.335171,5.02173805 C88.4296385,4.69023505 88.6662406,4.5 89.0467107,4.5 L95.5944366,4.5 C96.0217071,4.5 96.259176,4.78470257 96.1161747,5.16473934 L90.2804219,27.9392119" id="Fill-11"></path>
                    <path d="M44.2686807,38.1399994 L37.814989,38.1399994 C37.4358189,38.1399994 37.1983501,37.9034062 37.1983501,37.5229505 L37.1983501,5.11748225 C37.1983501,4.73832648 37.4358189,4.5 37.814989,4.5 L44.2686807,4.5 C44.6474175,4.5 44.8848863,4.73832648 44.8848863,5.11748225 L44.8848863,37.5229505 C44.8848863,37.9034062 44.6474175,38.1399994 44.2686807,38.1399994 Z" id="Fill-10"></path>
                    <path d="M28.0919441,42.3704165 C27.8072416,42.6078853 27.4744386,42.5597848 27.2382698,42.2750823 L24.9602158,39.2391215 C22.8732636,36.4393295 20.2156063,34.6843136 15.2807616,34.6843136 C5.98091088,34.6843136 0.145591447,27.9944531 0.145591447,17.3659904 C0.145591447,6.69029383 5.98091088,0 15.2807616,0 C24.5810457,0 30.3699981,6.69029383 30.3699981,17.3659904 C30.3699981,22.7749059 28.4719809,28.278289 25.2921522,30.1767395 C24.7231803,30.5095425 24.7231803,30.6512438 25.2921522,30.8410455 C28.044277,31.8372879 29.325222,33.0237653 30.7964019,34.9213491 L32.9314546,37.8151753 C33.16849,38.0998778 33.1212563,38.4313808 32.8361204,38.6697163 L28.0919441,42.3704165 Z M15.2807616,27.8514518 C19.8836699,27.8514518 22.6349281,23.8660491 22.6349281,17.3659904 C22.6349281,10.7229303 19.8836699,6.88009554 15.2807616,6.88009554 C10.7736209,6.88009554 7.88022805,10.7229303 7.88022805,17.3659904 C7.88022805,23.8660491 10.7736209,27.8514518 15.2807616,27.8514518 L15.2807616,27.8514518 Z" id="Fill-9"></path>
                </g>
                <path d="M40.4371953,42.3699989 C39.8980802,42.3699989 39.448521,42.5580072 39.1718464,42.8993282 C38.4634052,43.7726473 38.7818923,45.3102227 39.8669431,46.2582706 C40.3405223,46.6716516 41.0225712,46.919265 41.6921653,46.919265 C42.3739176,46.919265 42.9426871,46.6633484 43.293794,46.1995551 C43.925134,45.353518 43.5618688,44.1542981 42.3688764,43.1454589 C41.7781627,42.6457839 41.0922588,42.3699989 40.4371953,42.3699989 M46.3840685,37.9767781 C45.8565185,37.8225758 45.4621163,37.9373379 45.2675841,38.2931895 C44.9728204,38.831415 45.1904829,39.8963009 45.7850516,40.8241839 C46.387627,41.7642252 46.8985705,42.2407698 47.3054275,42.2407698 C47.4456924,42.2407698 47.5711301,42.1817577 47.6686927,42.0708507 C47.894955,41.811079 47.9696838,41.2669226 47.8744935,40.5786463 C47.7790067,39.8752464 47.3472401,38.4284131 46.3840685,37.9767781 M58.1651284,59.2976261 C58.710471,59.973151 57.8810402,60.659055 57.2627481,60.1110435 C51.0890196,54.6424942 45.8965518,53.0936502 40.7610203,52.878953 C38.0354936,52.7650805 35.3262769,53.0263349 32.4939948,53.2766172 C31.9284873,53.3264364 31.3579386,53.3759591 30.7808659,53.4216267 C30.5291009,53.4420882 30.2755567,53.4610669 30.0220124,53.4797491 C29.0232556,53.5873943 28.0114509,53.644627 26.9851156,53.644627 C22.1529476,53.644627 17.5933026,52.4605309 13.4310251,50.1237721 C9.25392057,47.7807859 5.93412179,44.507841 3.56444675,40.3956793 C1.19892331,36.2927105 0,31.7588647 0,26.9198762 C0,22.0859289 1.19773714,17.5328078 3.55970206,13.3874333 C5.92641167,9.23583145 9.20825295,5.93056327 13.3141872,3.56415021 C17.4201215,1.19921986 21.8988102,0 26.6268917,0 C31.564629,0 36.1797276,1.18468925 40.3440808,3.52144802 C44.5202958,5.86473073 47.850177,9.14746164 50.2420928,13.2797882 C52.6295604,17.4070736 53.8400489,21.9527811 53.8400489,26.7905834 C53.8400489,28.6582112 53.6588611,30.4819506 53.3033061,32.2555742 C53.2576384,32.5129735 53.1915094,32.8249367 53.0983949,33.1884985 C53.0290038,33.4794071 52.9548681,33.7694262 52.8756911,34.057666 L52.8534503,34.0452112 C52.3751265,35.5765592 51.4846079,37.7439919 49.8272291,40.5270478 C49.6487102,40.8197358 49.5499614,40.5967355 49.5268311,40.4330437 C48.946793,36.3398608 47.1530044,33.2314972 43.9912631,31.2239011 C43.939368,31.1909849 43.8859903,31.1592548 43.8332057,31.1272281 C43.315145,30.8084444 42.7617958,30.5187219 42.1713787,30.2577641 C41.417863,29.9259325 40.6050387,29.6397685 39.7308299,29.4037203 C39.1946802,29.2596004 37.9996119,29.3215779 38.4331578,28.8915905 C38.6119732,28.7145543 41.2007935,28.673928 44.1766024,28.8625293 C44.2344283,28.8660878 44.2922542,28.8696463 44.3506732,28.8735014 C44.4055336,28.2495749 44.4340018,27.6099317 44.4340018,26.9536821 C44.4340018,21.8463221 42.7434102,17.6819689 39.2652574,14.2236846 C35.7844358,10.7630279 31.7146798,9.08014638 26.8226101,9.08014638 C21.8131093,9.08014638 17.7510634,10.7648071 14.4051689,14.2308016 C11.0411852,17.7139956 9.40634367,21.8433567 9.40634367,26.8546367 C9.40634367,31.8555377 11.0874459,35.9674028 14.5460268,39.4253906 C18.0046077,42.883675 22.0200963,44.5653703 26.8226101,44.5653703 C27.053024,44.5653703 27.2804724,44.5582533 27.5079209,44.5511362 C27.5025831,44.4930138 27.4987281,44.4348914 27.4939834,44.3776586 C27.2179019,40.8517624 27.1594829,37.9225108 27.8839374,39.1042346 C28.139854,39.5220637 28.3945845,39.9167624 28.6484253,40.2966339 C29.5955836,41.7123302 30.5326594,42.8774476 31.4655837,43.8435847 C31.5124375,43.8919212 31.5592913,43.9390715 31.6067381,43.9865184 C35.0205411,47.4516232 38.3809662,48.3041843 41.9534196,49.1807654 C42.0296312,49.2000407 42.1055462,49.2187229 42.1814612,49.2371086 C42.766244,49.3812285 43.3569576,49.5271276 43.9547883,49.6869643 C48.2006908,50.8200551 52.7988864,52.6467599 58.1651284,59.2976261" id="Fill-13" fill="#FF8C00"></path>
            </g>
        </g>
    </g>
</svg>