<?xml version="1.0" encoding="UTF-8"?>
<svg width="213px" height="116px" viewBox="0 0 213 116" version="1.1" xmlns="http://www.w3.org/2000/svg" xmlns:xlink="http://www.w3.org/1999/xlink">
    <!-- Generator: Sketch 42 (36781) - http://www.bohemiancoding.com/sketch -->
    <title>logo-vimpelcom</title>
    <desc>Created with Sketch.</desc>
    <defs></defs>
    <g id="Logos" stroke="none" stroke-width="1" fill="none" fill-rule="evenodd">
        <g id="vimpelcom">
            <g id="VimpelCom-Colorless" transform="translate(10.000000, 68.000000)" fill="#929292">
                <path d="M140.100304,27.658439 L139.630422,28.0108511 L139.102782,28.3055069 L138.63192,28.5424062 L138.162037,28.8331462 L137.695091,29.0122891 L137.225208,29.1884952 L136.812103,29.3647012 L136.341241,29.5399284 L135.871358,29.6583781 L135.400496,29.7738909 L134.991307,29.8345842 L134.050562,29.9491181 L133.580679,30.0107902 L131.879311,30.0107902 L131.175466,29.9491181 L130.529377,29.8923406 L129.883288,29.7738909 L129.233283,29.6583781 L128.647888,29.4792352 L128.058576,29.2462516 L127.474159,29.0122891 L126.94652,28.7753898 L126.414965,28.480734 L125.948019,28.189994 L125.416464,27.7778675 L125.003358,27.4254553 L124.594169,27.01235 L124.181063,26.6031603 L123.771874,26.1332774 L123.42044,25.605638 L123.069007,25.074083 L122.774351,24.5464436 L122.18504,23.3727153 L121.952056,22.7256474 L121.719073,22.0227809 L121.542867,21.375713 L121.187518,19.8466357 L121.072984,19.0860127 L120.954534,18.2637176 L120.896778,17.4414226 L120.778328,15.6783827 L120.778328,14.2099987 L120.835105,13.5639097 L120.835105,12.9178207 L120.896778,12.3285092 L120.954534,11.6824202 L121.072984,11.0363312 L121.129761,10.4509354 L121.244295,9.80484645 L121.424417,9.22042959 L121.600623,8.56944598 L121.77585,7.98502912 L121.952056,7.39571764 L122.18504,6.81130078 L122.422918,6.22198931 L122.712679,5.69434996 L123.069007,5.10503849 L123.359747,4.57739914 L123.715096,4.10751624 L124.124286,3.63665441 L124.537391,3.16677151 L125.478136,2.34447642 L126.005775,1.93528673 L126.533415,1.64063099 L127.117831,1.28919774 L127.764899,1.05229844 L128.414904,0.81833591 L129.11777,0.581436612 L129.821616,0.466902654 L130.643911,0.348453006 L131.40845,0.230003357 L132.820056,0.230003357 L133.289939,0.290696565 L134.345218,0.410125137 L134.81608,0.524659095 L135.343719,0.581436612 L135.871358,0.757642701 L136.341241,0.87609235 L136.812103,1.05229844 L137.339742,1.22752561 L137.809625,1.46540383 L138.280487,1.69838743 L138.693593,1.93528673 L139.163475,2.16827034 L139.572665,2.46292607 L139.98577,2.75758181 L140.161977,2.87211577 L140.276511,2.99056542 L140.333288,3.10901507 L140.39496,3.16677151 L140.39496,3.28522116 L140.452717,3.34689329 L140.452717,3.46142724 L140.39496,3.51820476 L140.39496,3.57987689 L140.333288,3.75510406 L140.218754,3.93131015 L138.63192,6.04578322 L138.575143,6.10353966 L138.517386,6.16423287 L138.455714,6.22198931 L137.985831,6.22198931 L137.871297,6.16423287 L137.695091,6.10353966 L137.576642,6.04578322 L137.049002,5.69434996 L136.459691,5.34291671 L136.166014,5.16279493 L135.813602,4.98658884 L135.518946,4.81527736 L135.225269,4.69584879 L134.934529,4.57739914 L134.57918,4.45894949 L134.28844,4.34049984 L133.932112,4.28372233 L133.229246,4.16429376 L132.876834,4.10751624 L132.112295,4.10751624 L131.703105,4.16429376 L130.995344,4.28372233 L130.292478,4.52062162 L129.940066,4.63515558 L129.588632,4.75360523 L129.293977,4.92981132 L128.999321,5.16279493 L128.647888,5.34291671 L127.825593,6.16423287 L127.592609,6.45497291 L127.35571,6.74962865 L127.061054,7.1010619 L126.884848,7.45738977 L126.651864,7.80882303 L126.414965,8.21801272 L126.238759,8.63111811 L126.124225,9.10100102 L125.948019,9.51019071 L125.768876,10.0378301 L125.649447,10.5086919 L125.534913,11.0363312 L125.478136,11.5678863 L125.416464,12.1571977 L125.30193,12.7416146 L125.30193,13.3309261 L125.240258,13.9730994 L125.240258,15.3269495 L125.30193,16.0875724 L125.30193,16.7336614 L125.416464,17.3797504 L125.478136,18.0268183 L125.59267,18.6729073 L125.711119,19.2612399 L125.829569,19.7888792 L126.005775,20.3165186 L126.181002,20.8480736 L126.533415,21.7849027 L126.770314,22.198008 L127.003297,22.6071977 L127.23726,23.0203031 L127.474159,23.3727153 L127.764899,23.7241486 L128.353232,24.3124811 L128.647888,24.5464436 L128.942543,24.8410994 L129.293977,25.074083 L129.997822,25.4294319 L130.353171,25.605638 L131.057016,25.8386216 L131.466206,25.8963781 L131.879311,26.0148277 L132.230745,26.0755209 L133.932112,26.0755209 L134.521424,25.9570713 L134.81608,25.8963781 L135.10682,25.8386216 L135.400496,25.720172 L135.638375,25.605638 L135.928136,25.5439659 L136.226707,25.3687387 L136.517447,25.2532258 L136.812103,25.074083 L137.163536,24.8978769 L137.458192,24.7216708 L137.752848,24.4886872 L137.871297,24.427994 L138.043588,24.3124811 L138.218815,24.2517879 L138.337265,24.1940315 L138.575143,24.1940315 L138.63192,24.2517879 L138.75037,24.2517879 L138.864904,24.3702375 L138.926576,24.4886872 L140.39496,26.4279331 L140.51341,26.6031603 L140.571166,26.7793664 L140.631859,26.8371228 L140.631859,27.1307996 L140.571166,27.1885561 L140.571166,27.2492493 L140.51341,27.3647621 L140.39496,27.4254553 L140.333288,27.4832118 L140.218754,27.543905 L140.100304,27.658439 Z M150.968304,30.0675678 L150.378993,30.0675678 L149.851354,30.0107902 L149.263021,29.9491181 L148.796075,29.8923406 L148.26452,29.7738909 L147.794637,29.6583781 L147.327691,29.4792352 L146.853892,29.3647012 L146.444703,29.1884952 L146.035513,28.9515959 L145.622407,28.7176333 L145.213218,28.480734 L144.857869,28.2477504 L144.567129,27.9530947 L144.210801,27.6016614 L143.917124,27.3070057 L143.626384,26.9555724 L143.331728,26.6031603 L142.860867,25.7808652 L142.685639,25.3687387 L142.44874,24.959549 L142.333227,24.4886872 L142.158,24.0188043 L141.981794,23.4911649 L141.863344,23.0203031 L141.801672,22.4926638 L141.687138,21.9043312 L141.630361,21.375713 L141.568689,20.7873804 L141.568689,18.3782516 L141.630361,17.7928558 L141.687138,17.2045233 L141.801672,16.6768839 L141.863344,16.1492446 L141.981794,15.6216052 L142.685639,13.7401158 L142.860867,13.3309261 L143.098745,12.9178207 L143.389485,12.5654085 L143.683162,12.1571977 L143.917124,11.8008699 L144.272473,11.5062141 L144.567129,11.1547809 L144.918562,10.8601251 L145.269995,10.6271415 L145.679185,10.3941579 L146.09229,10.1572586 L146.505396,9.9232961 L146.972342,9.74806893 L147.442225,9.56794715 L147.913087,9.39174106 L148.38297,9.2772071 L148.910609,9.22042959 L149.49992,9.10100102 L150.02756,9.04030781 L150.611977,9.04030781 L151.201288,8.98255137 L151.7906,9.04030781 L152.378932,9.04030781 L152.902656,9.10100102 L153.434211,9.22042959 L153.96185,9.2772071 L154.432712,9.39174106 L154.902595,9.56794715 L155.373457,9.74806893 L155.782646,9.9232961 L156.195752,10.0995022 L156.604941,10.3324858 L156.96029,10.5693851 L157.307808,10.8601251 L157.664136,11.1547809 L158.015569,11.4494366 L158.310225,11.8008699 L158.600965,12.0955256 L158.837864,12.5047153 L159.074763,12.8600642 L159.54171,13.6823593 L159.720852,14.1532212 L159.897059,14.5624109 L160.069349,15.0939659 L160.187799,15.5599331 L160.306248,16.0875724 L160.424698,16.6191275 L160.481475,17.1467668 L160.543148,17.7360783 L160.600904,18.2637176 L160.657681,18.9098066 L160.657681,20.083535 L160.600904,20.6689308 L160.543148,21.2572633 L160.481475,21.7849027 L160.424698,22.3742141 L160.306248,22.9018535 L160.187799,23.3727153 L160.011593,23.9003546 L159.897059,24.3702375 L159.720852,24.8410994 L159.483953,25.2532258 L159.25097,25.720172 L159.013091,26.0755209 L158.776192,26.4847106 L158.485452,26.8371228 L158.191775,27.1885561 L157.897119,27.543905 L157.544707,27.834645 L157.193274,28.189994 L156.841841,28.4239565 L156.485513,28.6569401 L156.076323,28.8938394 L155.60644,29.126823 L155.197251,29.3030291 L154.727368,29.4792352 L154.256506,29.6583781 L153.728867,29.7738909 L153.258984,29.8923406 L152.727429,29.9491181 L152.142033,30.0107902 L151.552721,30.0675678 L150.968304,30.0675678 Z M151.143532,12.3285092 L150.555199,12.3285092 L150.264459,12.3901813 L150.02756,12.4469589 L149.732904,12.5047153 L149.49992,12.5654085 L149.205265,12.6848371 L148.972281,12.7416146 L148.734403,12.8600642 L148.497504,12.9745982 L148.26452,13.1508043 L148.031536,13.3309261 L147.85533,13.44546 L147.675208,13.6823593 L147.442225,13.8585654 L147.266019,14.091549 L147.090792,14.2677551 L146.914585,14.5624109 L146.796136,14.7993101 L146.61993,15.0939659 L146.505396,15.3269495 L146.386946,15.6216052 L146.268496,15.9730385 L146.150047,16.2676942 L146.035513,16.9705607 L145.917063,17.3797504 L145.859307,17.7360783 L145.859307,18.145268 L145.797635,18.5544577 L145.797635,20.7873804 L145.859307,21.2004858 L145.917063,21.6096755 L145.973841,21.9611087 L146.09229,22.3164577 L146.150047,22.7256474 L146.268496,23.0203031 L146.386946,23.3727153 L146.505396,23.6663921 L146.61993,23.9610479 L146.796136,24.1940315 L146.914585,24.4886872 L147.090792,24.7216708 L147.266019,24.959549 L147.442225,25.1925326 L147.618431,25.3687387 L147.85533,25.5439659 L148.031536,25.720172 L148.26452,25.8963781 L148.497504,26.0148277 L148.677625,26.1332774 L148.972281,26.251727 L149.205265,26.366261 L149.442164,26.4279331 L149.732904,26.5424671 L149.965888,26.6031603 L150.264459,26.6031603 L150.555199,26.6609167 L151.732843,26.6609167 L151.965827,26.6031603 L152.260482,26.6031603 L152.493466,26.5424671 L152.788122,26.4279331 L153.021105,26.366261 L153.96185,25.8963781 L154.195813,25.720172 L154.37104,25.5439659 L154.551162,25.3687387 L154.727368,25.1925326 L154.902595,24.959549 L155.078801,24.7216708 L155.255007,24.4886872 L155.373457,24.1940315 L155.548684,23.9610479 L155.782646,23.3727153 L155.839424,23.0203031 L155.957874,22.7256474 L156.076323,22.3164577 L156.195752,21.6096755 L156.252529,21.2004858 L156.314201,20.7873804 L156.314201,18.145268 L156.252529,17.7360783 L156.076323,16.6768839 L155.839424,15.9730385 L155.72489,15.6783827 L155.491906,15.0939659 L155.373457,14.7993101 L155.197251,14.5624109 L155.078801,14.3284483 L154.902595,14.091549 L154.727368,13.8585654 L154.551162,13.6823593 L154.37104,13.5061532 L154.138056,13.3309261 L153.96185,13.1508043 L153.728867,13.0362703 L153.491967,12.8600642 L153.258984,12.799371 L152.788122,12.5654085 L152.493466,12.5047153 L152.260482,12.4469589 L151.965827,12.3901813 L151.732843,12.3285092 L151.143532,12.3285092 Z M78.6611569,29.5976849 L78.0150679,29.5976849 L77.7243279,29.5399284 L77.3728946,29.5399284 L76.0807166,29.3030291 L75.4346276,29.1884952 L74.8453162,29.0122891 L74.2560047,28.8331462 L73.6715878,28.6569401 L73.6715878,37.2910385 L73.6099157,37.3527106 L73.6099157,37.4672446 L73.4953817,37.5279378 L73.4346885,37.5856942 L73.3191756,37.5856942 L73.1439485,37.6434507 L69.8508525,37.6434507 L69.679541,37.7041439 L69.5610913,37.6434507 L69.5033349,37.6434507 L69.3848852,37.5279378 L69.3848852,37.4672446 L69.3232131,37.3527106 L69.3232131,10.9217973 L69.3848852,10.2140361 L69.3848852,9.33496354 L69.4416628,9.22042959 L69.5033349,9.15875746 L69.6178689,9.10100102 L69.7363185,8.98255137 L71.8507916,8.98255137 L71.9663044,9.04030781 L72.0269977,9.04030781 L72.0847541,9.10100102 L72.2032037,9.22042959 L72.2599813,9.33496354 L72.4978595,9.74806893 L72.7308431,10.2757083 L73.1439485,10.0995022 L73.5531382,9.9232961 L73.9662436,9.74806893 L74.7875597,9.51019071 L75.1967494,9.39174106 L75.6098548,9.33496354 L75.962267,9.2772071 L76.7835831,9.15875746 L77.1359953,9.10100102 L77.5491007,9.04030781 L78.3136393,9.04030781 L79.0742623,8.98255137 L79.483452,9.04030781 L79.9582295,9.04030781 L80.3674192,9.10100102 L80.7188525,9.15875746 L81.1319578,9.2772071 L81.4833911,9.39174106 L81.8964965,9.51019071 L82.244993,9.62864036 L82.6003419,9.80484645 L82.8949977,9.98105254 L83.1857377,10.2140361 L83.5410867,10.4509354 L83.8318267,10.6888137 L84.3633817,11.216453 L84.5963653,11.5062141 L84.8332646,11.862542 L85.0662482,12.2139753 L85.2424543,12.5654085 L85.4754379,12.9178207 L85.6555597,13.3309261 L85.8317658,13.7401158 L85.9462998,14.2099987 L86.1225059,14.6808605 L86.2409555,15.1507434 L86.3016487,15.6216052 L86.4161827,16.1492446 L86.4778548,16.6768839 L86.5346323,17.2045233 L86.5923888,17.7928558 L86.5923888,20.2597411 L86.5346323,20.8480736 L86.4778548,21.4334694 L86.4161827,22.0227809 L86.3016487,22.5504202 L86.0647494,23.6056989 L85.9462998,24.0755818 L85.7700937,24.5464436 L85.5938876,24.959549 L85.3569883,25.3687387 L85.1817611,25.7808652 L84.9477986,26.1900549 L84.714815,26.5424671 L84.4779157,26.897816 L84.1871756,27.2492493 L83.9502763,27.543905 L83.6556206,27.834645 L83.3648806,28.0715443 L82.6571194,28.5424062 L82.3634426,28.7176333 L81.9542529,28.8938394 L81.5979251,29.0700455 L81.2504075,29.1884952 L80.8373021,29.3647012 L80.015007,29.4792352 L79.5451241,29.5399284 L79.1359344,29.5976849 L78.6611569,29.5976849 Z M78.2519672,12.2717317 L77.0214614,12.2717317 L76.3714567,12.3901813 L75.7860609,12.4469589 L75.1967494,12.5654085 L74.9637658,12.6848371 L74.6691101,12.7416146 L74.4361265,12.8600642 L74.1414707,12.9178207 L73.9084871,13.0362703 L73.6715878,13.1508043 L73.6715878,25.3109823 L74.3176768,25.5439659 L74.9030726,25.7808652 L75.4346276,25.8963781 L75.962267,26.0755209 L76.4321499,26.1332774 L76.8452553,26.1900549 L77.3122014,26.251727 L78.3713958,26.251727 L78.6611569,26.1900549 L78.8990351,26.1900549 L79.1927119,26.1332774 L79.6635738,26.0148277 L79.8965574,25.8963781 L80.129541,25.8386216 L80.3096628,25.720172 L80.5426464,25.605638 L80.7188525,25.4294319 L80.8950585,25.3109823 L81.0702857,25.1347762 L81.2504075,24.959549 L81.3649415,24.7216708 L81.5411475,24.5464436 L81.7780468,24.0755818 L81.8964965,23.7848418 L82.0110304,23.5479425 L82.1294801,23.2532867 L82.244993,22.5504202 L82.3634426,22.198008 L82.3634426,21.8465748 L82.4202201,21.4334694 L82.4818923,21.0820361 L82.4818923,20.6111743 L82.5386698,20.1412914 L82.5386698,17.9113055 L82.4818923,17.499179 L82.4818923,17.1467668 L82.244993,15.7361392 L82.1294801,15.4414835 L82.0727026,15.1507434 L81.9542529,14.8560877 L81.8358033,14.6191884 L81.5979251,14.1532212 L81.4833911,13.9153429 L81.3649415,13.6823593 L81.1887354,13.5061532 L81.0702857,13.3309261 L80.8950585,13.1508043 L80.7188525,13.0362703 L80.5426464,12.8600642 L80.3674192,12.7416146 L80.129541,12.6231649 L79.9582295,12.5654085 L79.7203513,12.4469589 L79.483452,12.3901813 L79.2504684,12.3285092 L79.0174848,12.2717317 L78.2519672,12.2717317 Z M56.9917237,8.56944598 L56.6353958,8.56944598 L56.2878782,8.63111811 L55.9325293,8.63111811 L55.6417892,8.68887455 L55.2286838,8.74565207 L54.8772506,8.8073242 L54.5209227,8.92577385 L54.1734052,8.98255137 L53.8180562,9.10100102 L53.1142108,9.33496354 L52.7617986,9.45341319 L52.0589321,9.80484645 L51.7026042,9.98105254 L51.351171,10.1572586 L50.590548,10.6888137 L50.1157705,10.2140361 L49.8250304,9.98105254 L49.5313536,9.80484645 L49.1789415,9.56794715 L48.8275082,9.39174106 L48.4721593,9.2772071 L48.1236628,9.10100102 L47.7105574,8.98255137 L47.297452,8.92577385 L46.8882623,8.8073242 L46.4183794,8.74565207 L45.4776347,8.63111811 L44.9499953,8.56944598 L44.067007,8.56944598 L43.7185105,8.63111811 L43.3631616,8.63111811 L42.6593162,8.74565207 L42.3078829,8.8073242 L41.951555,8.92577385 L41.6617939,8.98255137 L41.305466,9.10100102 L40.6025995,9.33496354 L40.2501874,9.45341319 L38.8434754,10.1572586 L38.6672693,10.2757083 L38.3686979,9.39174106 L38.3119204,9.33496354 L38.2541639,9.22042959 L38.1934707,9.15875746 L38.0779578,9.10100102 L37.9595082,9.04030781 L37.9027307,8.98255137 L35.9067073,8.98255137 L35.7305012,9.04030781 L35.6120515,9.10100102 L35.4936019,9.15875746 L35.3751522,9.39174106 L35.3173958,9.51019071 L35.3173958,28.8331462 L35.3751522,28.9515959 L35.4319297,29.126823 L35.6120515,29.3030291 L35.7305012,29.3647012 L35.9067073,29.4214788 L39.076459,29.4214788 L39.1949087,29.3647012 L39.3133583,29.3030291 L39.4278923,29.1884952 L39.5463419,29.126823 L39.6040984,28.9515959 L39.6618548,28.8331462 L39.6618548,13.3309261 L39.7803044,13.2692539 L40.1934098,13.0362703 L40.6632927,12.8600642 L41.1302389,12.7416146 L41.4239157,12.6231649 L41.6617939,12.5654085 L41.951555,12.5047153 L42.2501265,12.5047153 L42.5408665,12.4469589 L42.8922998,12.3901813 L43.2486276,12.3901813 L43.6000609,12.3285092 L44.9499953,12.3285092 L45.3631007,12.3901813 L45.7722904,12.4469589 L46.1237237,12.5047153 L46.2999297,12.5654085 L46.4761358,12.6231649 L46.5945855,12.6848371 L46.7130351,12.7416146 L46.9460187,12.8600642 L47.0644684,12.9178207 L47.4159016,13.2692539 L47.4775738,13.3877036 L47.5921077,13.6255818 L47.6537799,13.7968933 L47.7105574,14.0337926 L47.7683138,14.3284483 L47.7683138,28.7176333 L47.8250913,28.8331462 L47.8250913,28.9515959 L47.9445199,29.126823 L48.1236628,29.3030291 L48.2381967,29.3647012 L48.4144028,29.4214788 L51.5841546,29.4214788 L51.7642763,29.3647012 L51.882726,29.3030291 L52.0589321,29.126823 L52.173466,28.9515959 L52.173466,28.8331462 L52.2302436,28.7176333 L52.2302436,13.3309261 L52.2919157,13.2692539 L52.7617986,13.0362703 L53.1709883,12.8600642 L53.4088665,12.799371 L53.6986276,12.7416146 L53.9365059,12.6231649 L54.2301827,12.5654085 L54.5209227,12.5047153 L54.8194941,12.5047153 L55.1102342,12.4469589 L55.4655831,12.3901813 L55.8140796,12.3901813 L56.1694286,12.3285092 L57.519363,12.3285092 L57.9892459,12.3901813 L58.6930913,12.5047153 L58.8692974,12.5654085 L58.9877471,12.6231649 L59.1629742,12.6848371 L59.4008525,12.799371 L59.5153864,12.8600642 L59.6338361,12.9178207 L59.6915925,13.0362703 L59.8100422,13.0940268 L59.8707354,13.2124764 L59.9852693,13.2692539 L60.0469415,13.3877036 L60.103719,13.6255818 L60.2192319,13.7968933 L60.2799251,14.0337926 L60.3376815,14.3284483 L60.3376815,28.8331462 L60.394459,28.9515959 L60.4561311,29.126823 L60.5745808,29.1884952 L60.6930304,29.3030291 L60.8075644,29.3647012 L60.9260141,29.4214788 L64.0967447,29.4214788 L64.2151944,29.3647012 L64.3904215,29.3030291 L64.4520937,29.1884952 L64.5666276,29.126823 L64.6243841,28.9515959 L64.6850773,28.8331462 L64.6850773,14.2677551 L64.6243841,13.9153429 L64.5666276,13.5061532 L64.5088712,13.2124764 L64.4520937,12.8600642 L64.333644,12.5654085 L64.2151944,12.2139753 L64.0967447,11.9193195 L63.9205386,11.6824202 L63.7443326,11.3916802 L63.5681265,11.1547809 L63.2166932,10.6888137 L62.7468103,10.2140361 L62.5089321,10.0378301 L62.219171,9.86260289 L61.6298595,9.51019071 L61.3391194,9.39174106 L60.9837705,9.22042959 L60.6930304,9.10100102 L60.3376815,8.98255137 L59.9852693,8.92577385 L59.5721639,8.8073242 L59.2246464,8.74565207 L58.7508478,8.68887455 L58.3416581,8.63111811 L57.9324684,8.63111811 L57.4576909,8.56944598 L56.9917237,8.56944598 Z M185.444005,8.56944598 L185.092571,8.56944598 L184.741138,8.63111811 L184.38481,8.63111811 L184.037293,8.68887455 L183.681944,8.74565207 L183.329532,8.8073242 L182.978098,8.92577385 L182.626665,8.98255137 L182.270337,9.10100102 L181.92282,9.22042959 L181.567471,9.33496354 L181.215059,9.45341319 L179.808347,10.1572586 L179.042829,10.6888137 L178.809845,10.4509354 L178.572946,10.2140361 L178.27829,9.98105254 L177.983635,9.80484645 L177.632201,9.56794715 L177.280768,9.39174106 L176.928356,9.2772071 L176.576923,9.10100102 L176.163817,8.98255137 L175.754628,8.92577385 L175.341522,8.8073242 L174.871639,8.74565207 L174.404693,8.68887455 L173.93481,8.63111811 L173.403255,8.56944598 L172.523204,8.56944598 L172.17177,8.63111811 L171.816422,8.63111811 L171.467925,8.68887455 L171.112576,8.74565207 L170.760164,8.8073242 L170.408731,8.92577385 L170.057297,8.98255137 L169.70097,9.10100102 L169.411208,9.22042959 L169.054881,9.33496354 L168.707363,9.45341319 L168.352014,9.62864036 L167.295756,10.1572586 L167.177307,10.2757083 L166.825874,9.39174106 L166.764201,9.33496354 L166.707424,9.22042959 L166.59289,9.15875746 L166.531218,9.10100102 L166.416684,9.04030781 L166.298234,8.98255137 L164.358988,8.98255137 L164.183761,9.04030781 L164.065311,9.10100102 L163.946862,9.15875746 L163.827433,9.2772071 L163.770656,9.39174106 L163.712899,9.51019071 L163.712899,28.8331462 L163.770656,28.9515959 L163.827433,29.126823 L163.946862,29.1884952 L164.065311,29.3030291 L164.183761,29.3647012 L164.358988,29.4214788 L167.471963,29.4214788 L167.648169,29.3647012 L167.766618,29.3030291 L167.885068,29.1884952 L167.942824,29.126823 L168.061274,28.9515959 L168.061274,13.3309261 L168.645691,13.0362703 L169.116553,12.8600642 L169.353452,12.799371 L169.586436,12.7416146 L169.820398,12.6231649 L170.114075,12.5654085 L170.408731,12.5047153 L170.703386,12.5047153 L170.998042,12.4469589 L171.349475,12.3901813 L171.700909,12.3901813 L172.053321,12.3285092 L173.403255,12.3285092 L173.816361,12.3901813 L174.22555,12.4469589 L174.580899,12.5047153 L174.75319,12.5654085 L174.871639,12.6231649 L175.046867,12.6848371 L175.165316,12.7416146 L175.517728,12.9178207 L175.574506,13.0362703 L175.693934,13.0940268 L175.754628,13.2124764 L175.812384,13.2692539 L175.873077,13.3877036 L175.987611,13.6255818 L176.106061,13.7968933 L176.163817,14.0337926 L176.163817,14.3284483 L176.221574,14.5624109 L176.221574,28.8331462 L176.282267,28.9515959 L176.340023,29.126823 L176.458473,29.1884952 L176.576923,29.3030291 L176.809906,29.4214788 L180.04133,29.4214788 L180.217536,29.3647012 L180.335986,29.3030291 L180.454436,29.1884952 L180.511213,29.126823 L180.56897,28.9515959 L180.626726,28.8331462 L180.626726,13.3309261 L180.745176,13.2692539 L181.158281,13.0362703 L181.628164,12.8600642 L181.861148,12.799371 L182.155803,12.7416146 L182.388787,12.6231649 L182.683443,12.5654085 L182.916426,12.5047153 L183.272754,12.5047153 L183.563494,12.4469589 L183.918843,12.3901813 L184.270276,12.3901813 L184.622689,12.3285092 L185.914867,12.3285092 L186.384749,12.3901813 L186.793939,12.4469589 L187.150267,12.5047153 L187.264801,12.5654085 L187.441007,12.6231649 L187.559457,12.6848371 L187.734684,12.7416146 L187.968646,12.8600642 L188.205546,13.0940268 L188.380773,13.2692539 L188.442445,13.3877036 L188.556979,13.6255818 L188.618651,13.7968933 L188.675429,14.0337926 L188.733185,14.3284483 L188.733185,28.7176333 L188.789963,28.8331462 L188.851635,28.9515959 L188.909391,29.126823 L188.970084,29.1884952 L189.088534,29.3030291 L189.203068,29.3647012 L189.379274,29.4214788 L192.549026,29.4214788 L192.667475,29.3647012 L192.785925,29.3030291 L192.905354,29.1884952 L193.023803,29.126823 L193.080581,28.9515959 L193.080581,28.8331462 L193.142253,28.7176333 L193.142253,14.6191884 L193.080581,14.2677551 L193.080581,13.9153429 L193.023803,13.5061532 L192.905354,13.2124764 L192.847597,12.8600642 L192.729148,12.5654085 L192.610698,12.2139753 L192.496164,11.9193195 L192.373799,11.6824202 L192.201508,11.3916802 L192.025302,11.1547809 L191.846159,10.9217973 L191.379213,10.4509354 L191.142314,10.2140361 L190.905415,10.0378301 L190.671452,9.86260289 L190.377775,9.6863968 L190.087035,9.51019071 L189.730707,9.39174106 L189.43703,9.22042959 L189.088534,9.10100102 L188.733185,8.98255137 L188.380773,8.92577385 L188.02934,8.8073242 L187.62015,8.74565207 L186.793939,8.63111811 L186.327972,8.63111811 L185.914867,8.56944598 L185.444005,8.56944598 Z M25.2716909,2.69590968 L25.2716909,2.9337879 L25.333363,3.16677151 L25.3901405,3.34689329 L25.4518126,3.57987689 L25.5663466,3.75510406 L25.6847963,3.98906659 L26.1556581,4.45894949 L26.3886417,4.57739914 L26.5648478,4.69584879 L26.8017471,4.75360523 L27.0347307,4.87205488 L27.2677143,4.92981132 L28.2701311,4.92981132 L28.5031148,4.87205488 L28.7360984,4.75360523 L28.9739766,4.69584879 L29.3254098,4.45894949 L29.5016159,4.28372233 L29.6768431,4.16429376 L29.7952927,3.98906659 L29.9714988,3.75510406 L30.033171,3.57987689 L30.1477049,3.34689329 L30.2044824,3.16677151 L30.2044824,2.22602678 L30.1477049,1.99304317 L30.033171,1.75908064 L29.9714988,1.58385347 L29.7952927,1.40373169 L29.6768431,1.22752561 L29.3254098,0.87609235 L29.1492037,0.757642701 L28.9739766,0.643108743 L28.7360984,0.524659095 L28.2701311,0.410125137 L27.2677143,0.410125137 L26.8017471,0.524659095 L26.5648478,0.643108743 L26.3886417,0.757642701 L26.1556581,0.87609235 L25.979452,1.05229844 L25.8610023,1.22752561 L25.6847963,1.40373169 L25.5663466,1.58385347 L25.4518126,1.75908064 L25.3901405,1.99304317 L25.333363,2.22602678 L25.2716909,2.46292607 L25.2716909,2.69590968 Z M29.9147213,9.6863968 L29.9147213,9.56794715 L29.8569649,9.45341319 L29.7952927,9.33496354 L29.6768431,9.22042959 L29.5583934,9.10100102 L29.4438595,9.04030781 L29.3254098,9.04030781 L29.1492037,8.98255137 L26.3886417,8.98255137 L26.2124356,9.04030781 L26.0979016,9.04030781 L25.9187588,9.10100102 L25.8610023,9.22042959 L25.7425527,9.33496354 L25.6847963,9.45341319 L25.6280187,9.56794715 L25.6280187,28.8331462 L25.6847963,28.9515959 L25.7425527,29.126823 L25.8610023,29.1884952 L25.9187588,29.3030291 L26.0979016,29.3647012 L26.2124356,29.4214788 L29.3254098,29.4214788 L29.5583934,29.3030291 L29.6768431,29.1884952 L29.7952927,29.126823 L29.8569649,28.9515959 L29.9147213,28.8331462 L29.9147213,9.6863968 Z M116.311504,1.05229844 L116.311504,0.937764481 L116.254726,0.81833591 L116.193054,0.699886261 L116.136276,0.581436612 L115.902314,0.466902654 L115.783864,0.466902654 L115.608637,0.410125137 L112.965546,0.410125137 L112.790319,0.466902654 L112.671869,0.466902654 L112.495663,0.524659095 L112.433991,0.581436612 L112.319457,0.699886261 L112.201007,0.937764481 L112.201007,28.8331462 L112.262679,28.9515959 L112.319457,29.126823 L112.433991,29.1884952 L112.495663,29.3030291 L112.671869,29.3647012 L112.790319,29.4214788 L115.783864,29.4214788 L115.902314,29.3647012 L116.017827,29.3030291 L116.136276,29.1884952 L116.193054,29.126823 L116.254726,28.9515959 L116.311504,28.8331462 L116.311504,1.05229844 Z M90.2936956,19.3796895 L90.2936956,20.9058301 L90.351452,21.2572633 L90.4082295,21.6703687 L90.4082295,22.0795584 L90.4699016,22.4926638 L90.5883513,22.9018535 L90.6461077,23.3727153 L90.7645574,23.7848418 L90.883007,24.1940315 L91.0552974,24.6648933 L91.2305246,25.074083 L91.4106464,25.5439659 L91.64363,25.9570713 L91.9382857,26.366261 L92.175185,26.7793664 L92.5236815,27.1885561 L92.8790304,27.543905 L93.2882201,27.8963172 L93.7013255,28.189994 L94.1672927,28.5424062 L94.6420703,28.7753898 L95.2264871,29.0700455 L95.8157986,29.2462516 L96.4618876,29.4214788 L97.1040609,29.5976849 L97.8695785,29.7161345 L98.6341171,29.7738909 L100.453934,29.7738909 L101.394679,29.7161345 L101.807785,29.7161345 L102.274731,29.6583781 L102.686857,29.6583781 L103.096047,29.5976849 L103.922258,29.4792352 L104.270754,29.4214788 L104.682881,29.3647012 L105.09207,29.2462516 L105.505176,29.126823 L105.976037,29.0122891 L106.389143,28.8938394 L106.503677,28.8331462 L106.622126,28.8331462 L106.679883,28.7176333 L106.740576,28.6569401 L106.798333,28.5424062 L106.798333,28.480734 L106.859026,28.3662001 L106.859026,26.0148277 L106.798333,25.8963781 L106.740576,25.8386216 L106.740576,25.7808652 L106.679883,25.720172 L106.560454,25.605638 L106.503677,25.605638 L106.44592,25.5439659 L106.327471,25.5439659 L106.270693,25.4871884 L106.032815,25.4871884 L105.857588,25.5439659 L105.09207,25.6624155 L104.331447,25.7808652 L103.623686,25.8963781 L102.863063,25.9570713 L102.098525,26.0148277 L101.27623,26.0755209 L98.8093443,26.0755209 L98.457911,26.0148277 L98.1632553,26.0148277 L97.9302717,25.8963781 L97.6356159,25.8386216 L97.165733,25.720172 L96.9288337,25.605638 L96.6948712,25.4871884 L96.519644,25.3687387 L96.3434379,25.2532258 L96.1672319,25.074083 L95.9920047,24.959549 L95.8725761,24.7833429 L95.5788993,24.4886872 L95.4604496,24.3124811 L95.4026932,24.1372539 L95.2881593,23.9610479 L95.2264871,23.7848418 L95.1119532,23.5479425 L95.05126,23.3727153 L94.9935035,23.1387528 L94.8750539,22.7256474 L94.7566042,22.2557645 L94.6988478,21.8465748 L94.6420703,21.375713 L94.6420703,21.2572633 L107.149766,21.2572633 L107.325972,21.2004858 L107.444422,21.2004858 L107.562871,21.1388137 L107.619649,21.0242797 L107.739077,20.9058301 L107.795855,20.7873804 L107.857527,20.6689308 L107.857527,18.3782516 L107.795855,17.4414226 L107.739077,16.9705607 L107.739077,16.5006778 L107.681321,16.0875724 L107.619649,15.6216052 L107.562871,15.1507434 L107.444422,14.6808605 L107.382749,14.2677551 L107.268215,13.8585654 L107.092009,13.44546 L106.97356,13.0362703 L106.740576,12.6231649 L106.560454,12.2717317 L106.327471,11.862542 L106.094487,11.5062141 L105.857588,11.216453 L105.505176,10.9217973 L105.211499,10.6271415 L104.859087,10.3324858 L104.445981,10.0995022 L104.036792,9.86260289 L103.623686,9.62864036 L103.157719,9.45341319 L102.63008,9.2772071 L101.452436,9.04030781 L100.159279,8.92577385 L98.6341171,8.92577385 L97.8695785,8.98255137 L97.1040609,9.10100102 L96.4618876,9.2772071 L95.8157986,9.45341319 L95.2264871,9.62864036 L94.6420703,9.9232961 L94.1672927,10.1572586 L93.7013255,10.5086919 L93.2882201,10.8033476 L92.8790304,11.1547809 L92.5236815,11.5062141 L92.175185,11.9193195 L91.9382857,12.3285092 L91.64363,12.7416146 L91.4106464,13.1508043 L91.2305246,13.6255818 L91.0552974,14.0337926 L90.883007,14.5046544 L90.7645574,14.9138441 L90.6461077,15.3269495 L90.5883513,15.7968324 L90.4699016,16.2060221 L90.4082295,16.6191275 L90.4082295,17.0283172 L90.351452,17.4414226 L90.2936956,17.7928558 L90.2936956,19.3796895 Z M94.6420703,17.6176286 L94.6988478,17.0899893 L94.8133817,16.1492446 L94.9328103,15.7361392 L94.9935035,15.5021767 L95.05126,15.3269495 L95.1697096,15.0939659 L95.2264871,14.8560877 L95.3449368,14.6808605 L95.4604496,14.5046544 L95.6973489,14.1532212 L95.8157986,13.9730994 L95.9920047,13.7968933 L96.1104543,13.6823593 L96.2817658,13.5061532 L96.4618876,13.3877036 L96.6948712,13.2692539 L96.8710773,13.1508043 L97.1040609,13.0362703 L97.3409602,12.9178207 L97.5788384,12.8600642 L97.8695785,12.799371 L98.457911,12.6848371 L98.7525667,12.6231649 L100.3394,12.6231649 L100.572384,12.6848371 L100.86704,12.7416146 L101.100023,12.799371 L101.27623,12.8600642 L101.509213,12.9178207 L101.689335,12.9745982 L102.216974,13.3309261 L102.39318,13.44546 L102.63008,13.6823593 L102.744614,13.8585654 L102.863063,14.0337926 L102.92082,14.2099987 L103.039269,14.3862048 L103.096047,14.5624109 L103.157719,14.737638 L103.214496,14.9745373 L103.276169,15.2084998 L103.333925,15.383727 L103.390703,15.9113664 L103.509152,16.4429214 L103.509152,17.6176286 L103.566909,17.7360783 L94.6420703,17.7360783 L94.6420703,17.6176286 Z M21.925733,1.17074809 L21.8689555,1.05229844 L21.8689555,0.87609235 L21.7505059,0.757642701 L21.6927494,0.643108743 L21.5742998,0.581436612 L21.4558501,0.466902654 L21.279644,0.466902654 L21.2228665,0.410125137 L17.9297705,0.410125137 L17.872993,0.466902654 L17.7545433,0.466902654 L17.5783372,0.581436612 L17.4638033,0.643108743 L17.4021311,0.757642701 L17.2875972,0.87609235 L17.2875972,1.05229844 L17.226904,1.17074809 L17.1691475,1.40373169 L16.9890258,2.11149282 L16.6992646,3.16677151 L16.2861593,4.57739914 L15.8192131,6.22198931 L15.2876581,8.04180664 L14.7600187,10.0378301 L14.1716862,12.0955256 L13.5862904,14.1532212 L12.9969789,16.1492446 L12.4693396,18.0268183 L11.9994567,19.7321017 L11.590267,21.2572633 L11.2956112,22.4319706 L11.0587119,23.1965092 L10.944178,23.6056989 L10.8257283,23.0203031 L10.5878501,22.1373148 L10.2364169,20.8480736 L9.82722717,19.3189963 L9.35734426,17.5559565 L8.82578923,15.6783827 L8.29814988,13.6823593 L7.7127541,11.6824202 L7.18511475,9.62864036 L6.59580328,7.69037338 L6.12592037,5.92733357 L5.65505855,4.34049984 L5.30362529,2.99056542 L5.00896956,1.93528673 L4.83276347,1.28919774 L4.77598595,1.05229844 L4.71431382,1.05229844 L4.6575363,0.937764481 L4.59586417,0.81833591 L4.48133021,0.699886261 L4.420637,0.581436612 L4.30512412,0.524659095 L4.18667447,0.466902654 L4.07214052,0.466902654 L3.89299766,0.410125137 L0.780023419,0.410125137 L0.722266979,0.466902654 L0.547039813,0.466902654 L0.427611241,0.581436612 L0.252384075,0.643108743 L0.133934426,0.87609235 L0.0761779859,1.05229844 L0.0154847775,1.17074809 L0.252384075,1.87850921 L0.252384075,1.93528673 L0.309161593,2.04982069 L0.309161593,2.11149282 L0.370833724,2.22602678 L8.06418735,28.7176333 L8.12194379,28.8938394 L8.17872131,29.0122891 L8.17872131,29.0700455 L8.29814988,29.1884952 L8.53504918,29.1884952 L8.71027635,29.2462516 L13.1154286,29.2462516 L13.2916347,29.1884952 L13.4061686,29.1884952 L13.5246183,29.126823 L13.6430679,29.0122891 L13.70474,28.8938394 L13.7624965,28.7176333 L21.6927494,2.16827034 L21.6927494,2.04982069 L21.7505059,1.87850921 L21.925733,1.17074809 Z" id="Fill-1"></path>
            </g>
            <g id="VimpelCom-Colorful" transform="translate(10.000000, 10.000000)" fill="#CCCC99">
                <path d="M140.100304,27.6593724 L139.630422,28.0117845 L139.102782,28.3064403 L138.63192,28.5433396 L138.162037,28.8340796 L137.695091,29.0132225 L137.225208,29.1894286 L136.812103,29.3656347 L136.341241,29.5408618 L135.871358,29.6593115 L135.400496,29.7748244 L134.991307,29.8355176 L134.050562,29.9500515 L133.580679,30.0117237 L131.879311,30.0117237 L131.175466,29.9500515 L130.529377,29.893274 L129.883288,29.7748244 L129.233283,29.6593115 L128.647888,29.4801686 L128.058576,29.247185 L127.474159,29.0132225 L126.94652,28.7763232 L126.414965,28.4816674 L125.948019,28.1909274 L125.416464,27.7788009 L125.003358,27.4263888 L124.594169,27.0132834 L124.181063,26.6040937 L123.771874,26.1342108 L123.42044,25.6065714 L123.069007,25.0750164 L122.774351,24.547377 L122.18504,23.3736487 L121.952056,22.7265808 L121.719073,22.0237143 L121.542867,21.3766464 L121.187518,19.8475691 L121.072984,19.0869461 L120.954534,18.2646511 L120.896778,17.442356 L120.778328,15.6793162 L120.778328,14.2109321 L120.835105,13.5648431 L120.835105,12.9187541 L120.896778,12.3294426 L120.954534,11.6833536 L121.072984,11.0372646 L121.129761,10.4518689 L121.244295,9.80577986 L121.424417,9.221363 L121.600623,8.57037939 L121.77585,7.98596253 L121.952056,7.39665105 L122.18504,6.81223419 L122.422918,6.22292272 L122.712679,5.69528337 L123.069007,5.1059719 L123.359747,4.57833255 L123.715096,4.10844965 L124.124286,3.63758782 L124.537391,3.16770492 L125.478136,2.34540984 L126.005775,1.93622014 L126.533415,1.6415644 L127.117831,1.29013115 L127.764899,1.05323185 L128.414904,0.819269321 L129.11777,0.582370023 L129.821616,0.467836066 L130.643911,0.349386417 L131.40845,0.230936768 L132.820056,0.230936768 L133.289939,0.291629977 L134.345218,0.411058548 L134.81608,0.525592506 L135.343719,0.582370023 L135.871358,0.758576112 L136.341241,0.877025761 L136.812103,1.05323185 L137.339742,1.22845902 L137.809625,1.46633724 L138.280487,1.69932084 L138.693593,1.93622014 L139.163475,2.16920375 L139.572665,2.46385948 L139.98577,2.75851522 L140.161977,2.87304918 L140.276511,2.99149883 L140.333288,3.10994848 L140.39496,3.16770492 L140.39496,3.28615457 L140.452717,3.3478267 L140.452717,3.46236066 L140.39496,3.51913817 L140.39496,3.5808103 L140.333288,3.75603747 L140.218754,3.93224356 L138.63192,6.04671663 L138.575143,6.10447307 L138.517386,6.16516628 L138.455714,6.22292272 L137.985831,6.22292272 L137.871297,6.16516628 L137.695091,6.10447307 L137.576642,6.04671663 L137.049002,5.69528337 L136.459691,5.34385012 L136.166014,5.16372834 L135.813602,4.98752225 L135.518946,4.81621077 L135.225269,4.6967822 L134.934529,4.57833255 L134.57918,4.4598829 L134.28844,4.34143326 L133.932112,4.28465574 L133.229246,4.16522717 L132.876834,4.10844965 L132.112295,4.10844965 L131.703105,4.16522717 L130.995344,4.28465574 L130.292478,4.52155504 L129.940066,4.63608899 L129.588632,4.75453864 L129.293977,4.93074473 L128.999321,5.16372834 L128.647888,5.34385012 L127.825593,6.16516628 L127.592609,6.45590632 L127.35571,6.75056206 L127.061054,7.10199532 L126.884848,7.45832319 L126.651864,7.80975644 L126.414965,8.21894614 L126.238759,8.63205152 L126.124225,9.10193443 L125.948019,9.51112412 L125.768876,10.0387635 L125.649447,10.5096253 L125.534913,11.0372646 L125.478136,11.5688197 L125.416464,12.1581311 L125.30193,12.742548 L125.30193,13.3318595 L125.240258,13.9740328 L125.240258,15.3278829 L125.30193,16.0885059 L125.30193,16.7345948 L125.416464,17.3806838 L125.478136,18.0277518 L125.59267,18.6738407 L125.711119,19.2621733 L125.829569,19.7898126 L126.005775,20.317452 L126.181002,20.849007 L126.533415,21.7858361 L126.770314,22.1989415 L127.003297,22.6081311 L127.23726,23.0212365 L127.474159,23.3736487 L127.764899,23.725082 L128.353232,24.3134145 L128.647888,24.547377 L128.942543,24.8420328 L129.293977,25.0750164 L129.997822,25.4303653 L130.353171,25.6065714 L131.057016,25.839555 L131.466206,25.8973115 L131.879311,26.0157611 L132.230745,26.0764543 L133.932112,26.0764543 L134.521424,25.9580047 L134.81608,25.8973115 L135.10682,25.839555 L135.400496,25.7211054 L135.638375,25.6065714 L135.928136,25.5448993 L136.226707,25.3696721 L136.517447,25.2541593 L136.812103,25.0750164 L137.163536,24.8988103 L137.458192,24.7226042 L137.752848,24.4896206 L137.871297,24.4289274 L138.043588,24.3134145 L138.218815,24.2527213 L138.337265,24.1949649 L138.575143,24.1949649 L138.63192,24.2527213 L138.75037,24.2527213 L138.864904,24.371171 L138.926576,24.4896206 L140.39496,26.4288665 L140.51341,26.6040937 L140.571166,26.7802998 L140.631859,26.8380562 L140.631859,27.131733 L140.571166,27.1894895 L140.571166,27.2501827 L140.51341,27.3656956 L140.39496,27.4263888 L140.333288,27.4841452 L140.218754,27.5448384 L140.100304,27.6593724 Z M150.968304,30.0685012 L150.378993,30.0685012 L149.851354,30.0117237 L149.263021,29.9500515 L148.796075,29.893274 L148.26452,29.7748244 L147.794637,29.6593115 L147.327691,29.4801686 L146.853892,29.3656347 L146.444703,29.1894286 L146.035513,28.9525293 L145.622407,28.7185667 L145.213218,28.4816674 L144.857869,28.2486838 L144.567129,27.9540281 L144.210801,27.6025948 L143.917124,27.3079391 L143.626384,26.9565059 L143.331728,26.6040937 L142.860867,25.7817986 L142.685639,25.3696721 L142.44874,24.9604824 L142.333227,24.4896206 L142.158,24.0197377 L141.981794,23.4920984 L141.863344,23.0212365 L141.801672,22.4935972 L141.687138,21.9052646 L141.630361,21.3766464 L141.568689,20.7883138 L141.568689,18.379185 L141.630361,17.7937892 L141.687138,17.2054567 L141.801672,16.6778173 L141.863344,16.150178 L141.981794,15.6225386 L142.685639,13.7410492 L142.860867,13.3318595 L143.098745,12.9187541 L143.389485,12.5663419 L143.683162,12.1581311 L143.917124,11.8018033 L144.272473,11.5071475 L144.567129,11.1557143 L144.918562,10.8610585 L145.269995,10.6280749 L145.679185,10.3950913 L146.09229,10.158192 L146.505396,9.92422951 L146.972342,9.74900234 L147.442225,9.56888056 L147.913087,9.39267447 L148.38297,9.27814052 L148.910609,9.221363 L149.49992,9.10193443 L150.02756,9.04124122 L150.611977,9.04124122 L151.201288,8.98348478 L151.7906,9.04124122 L152.378932,9.04124122 L152.902656,9.10193443 L153.434211,9.221363 L153.96185,9.27814052 L154.432712,9.39267447 L154.902595,9.56888056 L155.373457,9.74900234 L155.782646,9.92422951 L156.195752,10.1004356 L156.604941,10.3334192 L156.96029,10.5703185 L157.307808,10.8610585 L157.664136,11.1557143 L158.015569,11.45037 L158.310225,11.8018033 L158.600965,12.096459 L158.837864,12.5056487 L159.074763,12.8609977 L159.54171,13.6832927 L159.720852,14.1541546 L159.897059,14.5633443 L160.069349,15.0948993 L160.187799,15.5608665 L160.306248,16.0885059 L160.424698,16.6200609 L160.481475,17.1477002 L160.543148,17.7370117 L160.600904,18.2646511 L160.657681,18.91074 L160.657681,20.0844684 L160.600904,20.6698642 L160.543148,21.2581967 L160.481475,21.7858361 L160.424698,22.3751475 L160.306248,22.9027869 L160.187799,23.3736487 L160.011593,23.9012881 L159.897059,24.371171 L159.720852,24.8420328 L159.483953,25.2541593 L159.25097,25.7211054 L159.013091,26.0764543 L158.776192,26.485644 L158.485452,26.8380562 L158.191775,27.1894895 L157.897119,27.5448384 L157.544707,27.8355785 L157.193274,28.1909274 L156.841841,28.4248899 L156.485513,28.6578735 L156.076323,28.8947728 L155.60644,29.1277564 L155.197251,29.3039625 L154.727368,29.4801686 L154.256506,29.6593115 L153.728867,29.7748244 L153.258984,29.893274 L152.727429,29.9500515 L152.142033,30.0117237 L151.552721,30.0685012 L150.968304,30.0685012 Z M151.143532,12.3294426 L150.555199,12.3294426 L150.264459,12.3911148 L150.02756,12.4478923 L149.732904,12.5056487 L149.49992,12.5663419 L149.205265,12.6857705 L148.972281,12.742548 L148.734403,12.8609977 L148.497504,12.9755316 L148.26452,13.1517377 L148.031536,13.3318595 L147.85533,13.4463934 L147.675208,13.6832927 L147.442225,13.8594988 L147.266019,14.0924824 L147.090792,14.2686885 L146.914585,14.5633443 L146.796136,14.8002436 L146.61993,15.0948993 L146.505396,15.3278829 L146.386946,15.6225386 L146.268496,15.9739719 L146.150047,16.2686276 L146.035513,16.9714941 L145.917063,17.3806838 L145.859307,17.7370117 L145.859307,18.1462014 L145.797635,18.5553911 L145.797635,20.7883138 L145.859307,21.2014192 L145.917063,21.6106089 L145.973841,21.9620422 L146.09229,22.3173911 L146.150047,22.7265808 L146.268496,23.0212365 L146.386946,23.3736487 L146.505396,23.6673255 L146.61993,23.9619813 L146.796136,24.1949649 L146.914585,24.4896206 L147.090792,24.7226042 L147.266019,24.9604824 L147.442225,25.193466 L147.618431,25.3696721 L147.85533,25.5448993 L148.031536,25.7211054 L148.26452,25.8973115 L148.497504,26.0157611 L148.677625,26.1342108 L148.972281,26.2526604 L149.205265,26.3671944 L149.442164,26.4288665 L149.732904,26.5434005 L149.965888,26.6040937 L150.264459,26.6040937 L150.555199,26.6618501 L151.732843,26.6618501 L151.965827,26.6040937 L152.260482,26.6040937 L152.493466,26.5434005 L152.788122,26.4288665 L153.021105,26.3671944 L153.96185,25.8973115 L154.195813,25.7211054 L154.37104,25.5448993 L154.551162,25.3696721 L154.727368,25.193466 L154.902595,24.9604824 L155.078801,24.7226042 L155.255007,24.4896206 L155.373457,24.1949649 L155.548684,23.9619813 L155.782646,23.3736487 L155.839424,23.0212365 L155.957874,22.7265808 L156.076323,22.3173911 L156.195752,21.6106089 L156.252529,21.2014192 L156.314201,20.7883138 L156.314201,18.1462014 L156.252529,17.7370117 L156.076323,16.6778173 L155.839424,15.9739719 L155.72489,15.6793162 L155.491906,15.0948993 L155.373457,14.8002436 L155.197251,14.5633443 L155.078801,14.3293817 L154.902595,14.0924824 L154.727368,13.8594988 L154.551162,13.6832927 L154.37104,13.5070867 L154.138056,13.3318595 L153.96185,13.1517377 L153.728867,13.0372037 L153.491967,12.8609977 L153.258984,12.8003044 L152.788122,12.5663419 L152.493466,12.5056487 L152.260482,12.4478923 L151.965827,12.3911148 L151.732843,12.3294426 L151.143532,12.3294426 Z M78.6611569,29.5986183 L78.0150679,29.5986183 L77.7243279,29.5408618 L77.3728946,29.5408618 L76.0807166,29.3039625 L75.4346276,29.1894286 L74.8453162,29.0132225 L74.2560047,28.8340796 L73.6715878,28.6578735 L73.6715878,37.2919719 L73.6099157,37.353644 L73.6099157,37.468178 L73.4953817,37.5288712 L73.4346885,37.5866276 L73.3191756,37.5866276 L73.1439485,37.6443841 L69.8508525,37.6443841 L69.679541,37.7050773 L69.5610913,37.6443841 L69.5033349,37.6443841 L69.3848852,37.5288712 L69.3848852,37.468178 L69.3232131,37.353644 L69.3232131,10.9227307 L69.3848852,10.2149696 L69.3848852,9.33589696 L69.4416628,9.221363 L69.5033349,9.15969087 L69.6178689,9.10193443 L69.7363185,8.98348478 L71.8507916,8.98348478 L71.9663044,9.04124122 L72.0269977,9.04124122 L72.0847541,9.10193443 L72.2032037,9.221363 L72.2599813,9.33589696 L72.4978595,9.74900234 L72.7308431,10.2766417 L73.1439485,10.1004356 L73.5531382,9.92422951 L73.9662436,9.74900234 L74.7875597,9.51112412 L75.1967494,9.39267447 L75.6098548,9.33589696 L75.962267,9.27814052 L76.7835831,9.15969087 L77.1359953,9.10193443 L77.5491007,9.04124122 L78.3136393,9.04124122 L79.0742623,8.98348478 L79.483452,9.04124122 L79.9582295,9.04124122 L80.3674192,9.10193443 L80.7188525,9.15969087 L81.1319578,9.27814052 L81.4833911,9.39267447 L81.8964965,9.51112412 L82.244993,9.62957377 L82.6003419,9.80577986 L82.8949977,9.98198595 L83.1857377,10.2149696 L83.5410867,10.4518689 L83.8318267,10.6897471 L84.3633817,11.2173864 L84.5963653,11.5071475 L84.8332646,11.8634754 L85.0662482,12.2149087 L85.2424543,12.5663419 L85.4754379,12.9187541 L85.6555597,13.3318595 L85.8317658,13.7410492 L85.9462998,14.2109321 L86.1225059,14.6817939 L86.2409555,15.1516768 L86.3016487,15.6225386 L86.4161827,16.150178 L86.4778548,16.6778173 L86.5346323,17.2054567 L86.5923888,17.7937892 L86.5923888,20.2606745 L86.5346323,20.849007 L86.4778548,21.4344028 L86.4161827,22.0237143 L86.3016487,22.5513536 L86.0647494,23.6066323 L85.9462998,24.0765152 L85.7700937,24.547377 L85.5938876,24.9604824 L85.3569883,25.3696721 L85.1817611,25.7817986 L84.9477986,26.1909883 L84.714815,26.5434005 L84.4779157,26.8987494 L84.1871756,27.2501827 L83.9502763,27.5448384 L83.6556206,27.8355785 L83.3648806,28.0724778 L82.6571194,28.5433396 L82.3634426,28.7185667 L81.9542529,28.8947728 L81.5979251,29.0709789 L81.2504075,29.1894286 L80.8373021,29.3656347 L80.015007,29.4801686 L79.5451241,29.5408618 L79.1359344,29.5986183 L78.6611569,29.5986183 Z M78.2519672,12.2726651 L77.0214614,12.2726651 L76.3714567,12.3911148 L75.7860609,12.4478923 L75.1967494,12.5663419 L74.9637658,12.6857705 L74.6691101,12.742548 L74.4361265,12.8609977 L74.1414707,12.9187541 L73.9084871,13.0372037 L73.6715878,13.1517377 L73.6715878,25.3119157 L74.3176768,25.5448993 L74.9030726,25.7817986 L75.4346276,25.8973115 L75.962267,26.0764543 L76.4321499,26.1342108 L76.8452553,26.1909883 L77.3122014,26.2526604 L78.3713958,26.2526604 L78.6611569,26.1909883 L78.8990351,26.1909883 L79.1927119,26.1342108 L79.6635738,26.0157611 L79.8965574,25.8973115 L80.129541,25.839555 L80.3096628,25.7211054 L80.5426464,25.6065714 L80.7188525,25.4303653 L80.8950585,25.3119157 L81.0702857,25.1357096 L81.2504075,24.9604824 L81.3649415,24.7226042 L81.5411475,24.547377 L81.7780468,24.0765152 L81.8964965,23.7857752 L82.0110304,23.5488759 L82.1294801,23.2542201 L82.244993,22.5513536 L82.3634426,22.1989415 L82.3634426,21.8475082 L82.4202201,21.4344028 L82.4818923,21.0829696 L82.4818923,20.6121077 L82.5386698,20.1422248 L82.5386698,17.9122389 L82.4818923,17.5001124 L82.4818923,17.1477002 L82.244993,15.7370726 L82.1294801,15.4424169 L82.0727026,15.1516768 L81.9542529,14.8570211 L81.8358033,14.6201218 L81.5979251,14.1541546 L81.4833911,13.9162763 L81.3649415,13.6832927 L81.1887354,13.5070867 L81.0702857,13.3318595 L80.8950585,13.1517377 L80.7188525,13.0372037 L80.5426464,12.8609977 L80.3674192,12.742548 L80.129541,12.6240984 L79.9582295,12.5663419 L79.7203513,12.4478923 L79.483452,12.3911148 L79.2504684,12.3294426 L79.0174848,12.2726651 L78.2519672,12.2726651 Z M56.9917237,8.57037939 L56.6353958,8.57037939 L56.2878782,8.63205152 L55.9325293,8.63205152 L55.6417892,8.68980796 L55.2286838,8.74658548 L54.8772506,8.80825761 L54.5209227,8.92670726 L54.1734052,8.98348478 L53.8180562,9.10193443 L53.1142108,9.33589696 L52.7617986,9.4543466 L52.0589321,9.80577986 L51.7026042,9.98198595 L51.351171,10.158192 L50.590548,10.6897471 L50.1157705,10.2149696 L49.8250304,9.98198595 L49.5313536,9.80577986 L49.1789415,9.56888056 L48.8275082,9.39267447 L48.4721593,9.27814052 L48.1236628,9.10193443 L47.7105574,8.98348478 L47.297452,8.92670726 L46.8882623,8.80825761 L46.4183794,8.74658548 L45.4776347,8.63205152 L44.9499953,8.57037939 L44.067007,8.57037939 L43.7185105,8.63205152 L43.3631616,8.63205152 L42.6593162,8.74658548 L42.3078829,8.80825761 L41.951555,8.92670726 L41.6617939,8.98348478 L41.305466,9.10193443 L40.6025995,9.33589696 L40.2501874,9.4543466 L38.8434754,10.158192 L38.6672693,10.2766417 L38.3686979,9.39267447 L38.3119204,9.33589696 L38.2541639,9.221363 L38.1934707,9.15969087 L38.0779578,9.10193443 L37.9595082,9.04124122 L37.9027307,8.98348478 L35.9067073,8.98348478 L35.7305012,9.04124122 L35.6120515,9.10193443 L35.4936019,9.15969087 L35.3751522,9.39267447 L35.3173958,9.51112412 L35.3173958,28.8340796 L35.3751522,28.9525293 L35.4319297,29.1277564 L35.6120515,29.3039625 L35.7305012,29.3656347 L35.9067073,29.4224122 L39.076459,29.4224122 L39.1949087,29.3656347 L39.3133583,29.3039625 L39.4278923,29.1894286 L39.5463419,29.1277564 L39.6040984,28.9525293 L39.6618548,28.8340796 L39.6618548,13.3318595 L39.7803044,13.2701874 L40.1934098,13.0372037 L40.6632927,12.8609977 L41.1302389,12.742548 L41.4239157,12.6240984 L41.6617939,12.5663419 L41.951555,12.5056487 L42.2501265,12.5056487 L42.5408665,12.4478923 L42.8922998,12.3911148 L43.2486276,12.3911148 L43.6000609,12.3294426 L44.9499953,12.3294426 L45.3631007,12.3911148 L45.7722904,12.4478923 L46.1237237,12.5056487 L46.2999297,12.5663419 L46.4761358,12.6240984 L46.5945855,12.6857705 L46.7130351,12.742548 L46.9460187,12.8609977 L47.0644684,12.9187541 L47.4159016,13.2701874 L47.4775738,13.388637 L47.5921077,13.6265152 L47.6537799,13.7978267 L47.7105574,14.034726 L47.7683138,14.3293817 L47.7683138,28.7185667 L47.8250913,28.8340796 L47.8250913,28.9525293 L47.9445199,29.1277564 L48.1236628,29.3039625 L48.2381967,29.3656347 L48.4144028,29.4224122 L51.5841546,29.4224122 L51.7642763,29.3656347 L51.882726,29.3039625 L52.0589321,29.1277564 L52.173466,28.9525293 L52.173466,28.8340796 L52.2302436,28.7185667 L52.2302436,13.3318595 L52.2919157,13.2701874 L52.7617986,13.0372037 L53.1709883,12.8609977 L53.4088665,12.8003044 L53.6986276,12.742548 L53.9365059,12.6240984 L54.2301827,12.5663419 L54.5209227,12.5056487 L54.8194941,12.5056487 L55.1102342,12.4478923 L55.4655831,12.3911148 L55.8140796,12.3911148 L56.1694286,12.3294426 L57.519363,12.3294426 L57.9892459,12.3911148 L58.6930913,12.5056487 L58.8692974,12.5663419 L58.9877471,12.6240984 L59.1629742,12.6857705 L59.4008525,12.8003044 L59.5153864,12.8609977 L59.6338361,12.9187541 L59.6915925,13.0372037 L59.8100422,13.0949602 L59.8707354,13.2134098 L59.9852693,13.2701874 L60.0469415,13.388637 L60.103719,13.6265152 L60.2192319,13.7978267 L60.2799251,14.034726 L60.3376815,14.3293817 L60.3376815,28.8340796 L60.394459,28.9525293 L60.4561311,29.1277564 L60.5745808,29.1894286 L60.6930304,29.3039625 L60.8075644,29.3656347 L60.9260141,29.4224122 L64.0967447,29.4224122 L64.2151944,29.3656347 L64.3904215,29.3039625 L64.4520937,29.1894286 L64.5666276,29.1277564 L64.6243841,28.9525293 L64.6850773,28.8340796 L64.6850773,14.2686885 L64.6243841,13.9162763 L64.5666276,13.5070867 L64.5088712,13.2134098 L64.4520937,12.8609977 L64.333644,12.5663419 L64.2151944,12.2149087 L64.0967447,11.9202529 L63.9205386,11.6833536 L63.7443326,11.3926136 L63.5681265,11.1557143 L63.2166932,10.6897471 L62.7468103,10.2149696 L62.5089321,10.0387635 L62.219171,9.8635363 L61.6298595,9.51112412 L61.3391194,9.39267447 L60.9837705,9.221363 L60.6930304,9.10193443 L60.3376815,8.98348478 L59.9852693,8.92670726 L59.5721639,8.80825761 L59.2246464,8.74658548 L58.7508478,8.68980796 L58.3416581,8.63205152 L57.9324684,8.63205152 L57.4576909,8.57037939 L56.9917237,8.57037939 Z M185.444005,8.57037939 L185.092571,8.57037939 L184.741138,8.63205152 L184.38481,8.63205152 L184.037293,8.68980796 L183.681944,8.74658548 L183.329532,8.80825761 L182.978098,8.92670726 L182.626665,8.98348478 L182.270337,9.10193443 L181.92282,9.221363 L181.567471,9.33589696 L181.215059,9.4543466 L179.808347,10.158192 L179.042829,10.6897471 L178.809845,10.4518689 L178.572946,10.2149696 L178.27829,9.98198595 L177.983635,9.80577986 L177.632201,9.56888056 L177.280768,9.39267447 L176.928356,9.27814052 L176.576923,9.10193443 L176.163817,8.98348478 L175.754628,8.92670726 L175.341522,8.80825761 L174.871639,8.74658548 L174.404693,8.68980796 L173.93481,8.63205152 L173.403255,8.57037939 L172.523204,8.57037939 L172.17177,8.63205152 L171.816422,8.63205152 L171.467925,8.68980796 L171.112576,8.74658548 L170.760164,8.80825761 L170.408731,8.92670726 L170.057297,8.98348478 L169.70097,9.10193443 L169.411208,9.221363 L169.054881,9.33589696 L168.707363,9.4543466 L168.352014,9.62957377 L167.295756,10.158192 L167.177307,10.2766417 L166.825874,9.39267447 L166.764201,9.33589696 L166.707424,9.221363 L166.59289,9.15969087 L166.531218,9.10193443 L166.416684,9.04124122 L166.298234,8.98348478 L164.358988,8.98348478 L164.183761,9.04124122 L164.065311,9.10193443 L163.946862,9.15969087 L163.827433,9.27814052 L163.770656,9.39267447 L163.712899,9.51112412 L163.712899,28.8340796 L163.770656,28.9525293 L163.827433,29.1277564 L163.946862,29.1894286 L164.065311,29.3039625 L164.183761,29.3656347 L164.358988,29.4224122 L167.471963,29.4224122 L167.648169,29.3656347 L167.766618,29.3039625 L167.885068,29.1894286 L167.942824,29.1277564 L168.061274,28.9525293 L168.061274,13.3318595 L168.645691,13.0372037 L169.116553,12.8609977 L169.353452,12.8003044 L169.586436,12.742548 L169.820398,12.6240984 L170.114075,12.5663419 L170.408731,12.5056487 L170.703386,12.5056487 L170.998042,12.4478923 L171.349475,12.3911148 L171.700909,12.3911148 L172.053321,12.3294426 L173.403255,12.3294426 L173.816361,12.3911148 L174.22555,12.4478923 L174.580899,12.5056487 L174.75319,12.5663419 L174.871639,12.6240984 L175.046867,12.6857705 L175.165316,12.742548 L175.517728,12.9187541 L175.574506,13.0372037 L175.693934,13.0949602 L175.754628,13.2134098 L175.812384,13.2701874 L175.873077,13.388637 L175.987611,13.6265152 L176.106061,13.7978267 L176.163817,14.034726 L176.163817,14.3293817 L176.221574,14.5633443 L176.221574,28.8340796 L176.282267,28.9525293 L176.340023,29.1277564 L176.458473,29.1894286 L176.576923,29.3039625 L176.809906,29.4224122 L180.04133,29.4224122 L180.217536,29.3656347 L180.335986,29.3039625 L180.454436,29.1894286 L180.511213,29.1277564 L180.56897,28.9525293 L180.626726,28.8340796 L180.626726,13.3318595 L180.745176,13.2701874 L181.158281,13.0372037 L181.628164,12.8609977 L181.861148,12.8003044 L182.155803,12.742548 L182.388787,12.6240984 L182.683443,12.5663419 L182.916426,12.5056487 L183.272754,12.5056487 L183.563494,12.4478923 L183.918843,12.3911148 L184.270276,12.3911148 L184.622689,12.3294426 L185.914867,12.3294426 L186.384749,12.3911148 L186.793939,12.4478923 L187.150267,12.5056487 L187.264801,12.5663419 L187.441007,12.6240984 L187.559457,12.6857705 L187.734684,12.742548 L187.968646,12.8609977 L188.205546,13.0949602 L188.380773,13.2701874 L188.442445,13.388637 L188.556979,13.6265152 L188.618651,13.7978267 L188.675429,14.034726 L188.733185,14.3293817 L188.733185,28.7185667 L188.789963,28.8340796 L188.851635,28.9525293 L188.909391,29.1277564 L188.970084,29.1894286 L189.088534,29.3039625 L189.203068,29.3656347 L189.379274,29.4224122 L192.549026,29.4224122 L192.667475,29.3656347 L192.785925,29.3039625 L192.905354,29.1894286 L193.023803,29.1277564 L193.080581,28.9525293 L193.080581,28.8340796 L193.142253,28.7185667 L193.142253,14.6201218 L193.080581,14.2686885 L193.080581,13.9162763 L193.023803,13.5070867 L192.905354,13.2134098 L192.847597,12.8609977 L192.729148,12.5663419 L192.610698,12.2149087 L192.496164,11.9202529 L192.373799,11.6833536 L192.201508,11.3926136 L192.025302,11.1557143 L191.846159,10.9227307 L191.379213,10.4518689 L191.142314,10.2149696 L190.905415,10.0387635 L190.671452,9.8635363 L190.377775,9.68733021 L190.087035,9.51112412 L189.730707,9.39267447 L189.43703,9.221363 L189.088534,9.10193443 L188.733185,8.98348478 L188.380773,8.92670726 L188.02934,8.80825761 L187.62015,8.74658548 L186.793939,8.63205152 L186.327972,8.63205152 L185.914867,8.57037939 L185.444005,8.57037939 Z M25.2716909,2.69684309 L25.2716909,2.93472131 L25.333363,3.16770492 L25.3901405,3.3478267 L25.4518126,3.5808103 L25.5663466,3.75603747 L25.6847963,3.99 L26.1556581,4.4598829 L26.3886417,4.57833255 L26.5648478,4.6967822 L26.8017471,4.75453864 L27.0347307,4.87298829 L27.2677143,4.93074473 L28.2701311,4.93074473 L28.5031148,4.87298829 L28.7360984,4.75453864 L28.9739766,4.6967822 L29.3254098,4.4598829 L29.5016159,4.28465574 L29.6768431,4.16522717 L29.7952927,3.99 L29.9714988,3.75603747 L30.033171,3.5808103 L30.1477049,3.3478267 L30.2044824,3.16770492 L30.2044824,2.22696019 L30.1477049,1.99397658 L30.033171,1.76001405 L29.9714988,1.58478689 L29.7952927,1.40466511 L29.6768431,1.22845902 L29.3254098,0.877025761 L29.1492037,0.758576112 L28.9739766,0.644042155 L28.7360984,0.525592506 L28.2701311,0.411058548 L27.2677143,0.411058548 L26.8017471,0.525592506 L26.5648478,0.644042155 L26.3886417,0.758576112 L26.1556581,0.877025761 L25.979452,1.05323185 L25.8610023,1.22845902 L25.6847963,1.40466511 L25.5663466,1.58478689 L25.4518126,1.76001405 L25.3901405,1.99397658 L25.333363,2.22696019 L25.2716909,2.46385948 L25.2716909,2.69684309 Z M29.9147213,9.68733021 L29.9147213,9.56888056 L29.8569649,9.4543466 L29.7952927,9.33589696 L29.6768431,9.221363 L29.5583934,9.10193443 L29.4438595,9.04124122 L29.3254098,9.04124122 L29.1492037,8.98348478 L26.3886417,8.98348478 L26.2124356,9.04124122 L26.0979016,9.04124122 L25.9187588,9.10193443 L25.8610023,9.221363 L25.7425527,9.33589696 L25.6847963,9.4543466 L25.6280187,9.56888056 L25.6280187,28.8340796 L25.6847963,28.9525293 L25.7425527,29.1277564 L25.8610023,29.1894286 L25.9187588,29.3039625 L26.0979016,29.3656347 L26.2124356,29.4224122 L29.3254098,29.4224122 L29.5583934,29.3039625 L29.6768431,29.1894286 L29.7952927,29.1277564 L29.8569649,28.9525293 L29.9147213,28.8340796 L29.9147213,9.68733021 Z M116.311504,1.05323185 L116.311504,0.938697892 L116.254726,0.819269321 L116.193054,0.700819672 L116.136276,0.582370023 L115.902314,0.467836066 L115.783864,0.467836066 L115.608637,0.411058548 L112.965546,0.411058548 L112.790319,0.467836066 L112.671869,0.467836066 L112.495663,0.525592506 L112.433991,0.582370023 L112.319457,0.700819672 L112.201007,0.938697892 L112.201007,28.8340796 L112.262679,28.9525293 L112.319457,29.1277564 L112.433991,29.1894286 L112.495663,29.3039625 L112.671869,29.3656347 L112.790319,29.4224122 L115.783864,29.4224122 L115.902314,29.3656347 L116.017827,29.3039625 L116.136276,29.1894286 L116.193054,29.1277564 L116.254726,28.9525293 L116.311504,28.8340796 L116.311504,1.05323185 Z M90.2936956,19.380623 L90.2936956,20.9067635 L90.351452,21.2581967 L90.4082295,21.6713021 L90.4082295,22.0804918 L90.4699016,22.4935972 L90.5883513,22.9027869 L90.6461077,23.3736487 L90.7645574,23.7857752 L90.883007,24.1949649 L91.0552974,24.6658267 L91.2305246,25.0750164 L91.4106464,25.5448993 L91.64363,25.9580047 L91.9382857,26.3671944 L92.175185,26.7802998 L92.5236815,27.1894895 L92.8790304,27.5448384 L93.2882201,27.8972506 L93.7013255,28.1909274 L94.1672927,28.5433396 L94.6420703,28.7763232 L95.2264871,29.0709789 L95.8157986,29.247185 L96.4618876,29.4224122 L97.1040609,29.5986183 L97.8695785,29.7170679 L98.6341171,29.7748244 L100.453934,29.7748244 L101.394679,29.7170679 L101.807785,29.7170679 L102.274731,29.6593115 L102.686857,29.6593115 L103.096047,29.5986183 L103.922258,29.4801686 L104.270754,29.4224122 L104.682881,29.3656347 L105.09207,29.247185 L105.505176,29.1277564 L105.976037,29.0132225 L106.389143,28.8947728 L106.503677,28.8340796 L106.622126,28.8340796 L106.679883,28.7185667 L106.740576,28.6578735 L106.798333,28.5433396 L106.798333,28.4816674 L106.859026,28.3671335 L106.859026,26.0157611 L106.798333,25.8973115 L106.740576,25.839555 L106.740576,25.7817986 L106.679883,25.7211054 L106.560454,25.6065714 L106.503677,25.6065714 L106.44592,25.5448993 L106.327471,25.5448993 L106.270693,25.4881218 L106.032815,25.4881218 L105.857588,25.5448993 L105.09207,25.6633489 L104.331447,25.7817986 L103.623686,25.8973115 L102.863063,25.9580047 L102.098525,26.0157611 L101.27623,26.0764543 L98.8093443,26.0764543 L98.457911,26.0157611 L98.1632553,26.0157611 L97.9302717,25.8973115 L97.6356159,25.839555 L97.165733,25.7211054 L96.9288337,25.6065714 L96.6948712,25.4881218 L96.519644,25.3696721 L96.3434379,25.2541593 L96.1672319,25.0750164 L95.9920047,24.9604824 L95.8725761,24.7842763 L95.5788993,24.4896206 L95.4604496,24.3134145 L95.4026932,24.1381874 L95.2881593,23.9619813 L95.2264871,23.7857752 L95.1119532,23.5488759 L95.05126,23.3736487 L94.9935035,23.1396862 L94.8750539,22.7265808 L94.7566042,22.2566979 L94.6988478,21.8475082 L94.6420703,21.3766464 L94.6420703,21.2581967 L107.149766,21.2581967 L107.325972,21.2014192 L107.444422,21.2014192 L107.562871,21.1397471 L107.619649,21.0252131 L107.739077,20.9067635 L107.795855,20.7883138 L107.857527,20.6698642 L107.857527,18.379185 L107.795855,17.442356 L107.739077,16.9714941 L107.739077,16.5016112 L107.681321,16.0885059 L107.619649,15.6225386 L107.562871,15.1516768 L107.444422,14.6817939 L107.382749,14.2686885 L107.268215,13.8594988 L107.092009,13.4463934 L106.97356,13.0372037 L106.740576,12.6240984 L106.560454,12.2726651 L106.327471,11.8634754 L106.094487,11.5071475 L105.857588,11.2173864 L105.505176,10.9227307 L105.211499,10.6280749 L104.859087,10.3334192 L104.445981,10.1004356 L104.036792,9.8635363 L103.623686,9.62957377 L103.157719,9.4543466 L102.63008,9.27814052 L101.452436,9.04124122 L100.159279,8.92670726 L98.6341171,8.92670726 L97.8695785,8.98348478 L97.1040609,9.10193443 L96.4618876,9.27814052 L95.8157986,9.4543466 L95.2264871,9.62957377 L94.6420703,9.92422951 L94.1672927,10.158192 L93.7013255,10.5096253 L93.2882201,10.804281 L92.8790304,11.1557143 L92.5236815,11.5071475 L92.175185,11.9202529 L91.9382857,12.3294426 L91.64363,12.742548 L91.4106464,13.1517377 L91.2305246,13.6265152 L91.0552974,14.034726 L90.883007,14.5055878 L90.7645574,14.9147775 L90.6461077,15.3278829 L90.5883513,15.7977658 L90.4699016,16.2069555 L90.4082295,16.6200609 L90.4082295,17.0292506 L90.351452,17.442356 L90.2936956,17.7937892 L90.2936956,19.380623 Z M94.6420703,17.6185621 L94.6988478,17.0909227 L94.8133817,16.150178 L94.9328103,15.7370726 L94.9935035,15.5031101 L95.05126,15.3278829 L95.1697096,15.0948993 L95.2264871,14.8570211 L95.3449368,14.6817939 L95.4604496,14.5055878 L95.6973489,14.1541546 L95.8157986,13.9740328 L95.9920047,13.7978267 L96.1104543,13.6832927 L96.2817658,13.5070867 L96.4618876,13.388637 L96.6948712,13.2701874 L96.8710773,13.1517377 L97.1040609,13.0372037 L97.3409602,12.9187541 L97.5788384,12.8609977 L97.8695785,12.8003044 L98.457911,12.6857705 L98.7525667,12.6240984 L100.3394,12.6240984 L100.572384,12.6857705 L100.86704,12.742548 L101.100023,12.8003044 L101.27623,12.8609977 L101.509213,12.9187541 L101.689335,12.9755316 L102.216974,13.3318595 L102.39318,13.4463934 L102.63008,13.6832927 L102.744614,13.8594988 L102.863063,14.034726 L102.92082,14.2109321 L103.039269,14.3871382 L103.096047,14.5633443 L103.157719,14.7385714 L103.214496,14.9754707 L103.276169,15.2094333 L103.333925,15.3846604 L103.390703,15.9122998 L103.509152,16.4438548 L103.509152,17.6185621 L103.566909,17.7370117 L94.6420703,17.7370117 L94.6420703,17.6185621 Z M21.925733,1.1716815 L21.8689555,1.05323185 L21.8689555,0.877025761 L21.7505059,0.758576112 L21.6927494,0.644042155 L21.5742998,0.582370023 L21.4558501,0.467836066 L21.279644,0.467836066 L21.2228665,0.411058548 L17.9297705,0.411058548 L17.872993,0.467836066 L17.7545433,0.467836066 L17.5783372,0.582370023 L17.4638033,0.644042155 L17.4021311,0.758576112 L17.2875972,0.877025761 L17.2875972,1.05323185 L17.226904,1.1716815 L17.1691475,1.40466511 L16.9890258,2.11242623 L16.6992646,3.16770492 L16.2861593,4.57833255 L15.8192131,6.22292272 L15.2876581,8.04274005 L14.7600187,10.0387635 L14.1716862,12.096459 L13.5862904,14.1541546 L12.9969789,16.150178 L12.4693396,18.0277518 L11.9994567,19.7330351 L11.590267,21.2581967 L11.2956112,22.432904 L11.0587119,23.1974426 L10.944178,23.6066323 L10.8257283,23.0212365 L10.5878501,22.1382482 L10.2364169,20.849007 L9.82722717,19.3199297 L9.35734426,17.5568899 L8.82578923,15.6793162 L8.29814988,13.6832927 L7.7127541,11.6833536 L7.18511475,9.62957377 L6.59580328,7.69130679 L6.12592037,5.92826698 L5.65505855,4.34143326 L5.30362529,2.99149883 L5.00896956,1.93622014 L4.83276347,1.29013115 L4.77598595,1.05323185 L4.71431382,1.05323185 L4.6575363,0.938697892 L4.59586417,0.819269321 L4.48133021,0.700819672 L4.420637,0.582370023 L4.30512412,0.525592506 L4.18667447,0.467836066 L4.07214052,0.467836066 L3.89299766,0.411058548 L0.780023419,0.411058548 L0.722266979,0.467836066 L0.547039813,0.467836066 L0.427611241,0.582370023 L0.252384075,0.644042155 L0.133934426,0.877025761 L0.0761779859,1.05323185 L0.0154847775,1.1716815 L0.252384075,1.87944262 L0.252384075,1.93622014 L0.309161593,2.0507541 L0.309161593,2.11242623 L0.370833724,2.22696019 L8.06418735,28.7185667 L8.12194379,28.8947728 L8.17872131,29.0132225 L8.17872131,29.0709789 L8.29814988,29.1894286 L8.53504918,29.1894286 L8.71027635,29.247185 L13.1154286,29.247185 L13.2916347,29.1894286 L13.4061686,29.1894286 L13.5246183,29.1277564 L13.6430679,29.0132225 L13.70474,28.8947728 L13.7624965,28.7185667 L21.6927494,2.16920375 L21.6927494,2.0507541 L21.7505059,1.87944262 L21.925733,1.1716815 Z" id="Fill-1"></path>
            </g>
        </g>
    </g>
</svg>