<?xml version="1.0" encoding="UTF-8"?>
<svg width="212px" height="228px" viewBox="0 0 212 228" version="1.1" xmlns="http://www.w3.org/2000/svg" xmlns:xlink="http://www.w3.org/1999/xlink">
    <!-- Generator: Sketch 42 (36781) - http://www.bohemiancoding.com/sketch -->
    <title>logo-wallarm</title>
    <desc>Created with Sketch.</desc>
    <defs></defs>
    <g id="Logos" stroke="none" stroke-width="1" fill="none" fill-rule="evenodd">
        <g id="wallarm">
            <g id="Wallarm-Colorless" transform="translate(10.000000, 124.000000)" fill="#929292">
                <polygon id="Fill-1" points="174.387592 25.3877551 174.387592 7.28555102 138.186449 23.3697959 138.186449 0.239673469 101.568653 16.5074286 101.568653 53.1219592 137.773061 37.0403265 137.773061 47.6323265 173.944163 31.5637551 173.944163 37.994449 191.339102 30.2674286 191.339102 17.8566531"></polygon>
                <polygon id="Fill-2" points="31.3469388 84.2729796 37.3061224 64.2958367 43.9849796 64.2958367 34.4359184 93.6555102 28.4767347 93.6555102 21.9644082 73.7319184 15.3978776 93.6555102 9.43608163 93.6555102 0 64.2958367 6.84408163 64.2958367 12.6942041 84.2729796 19.1503673 64.1835102 24.8339592 64.1835102"></polygon>
                <polygon id="Fill-3" points="75.0027755 93.4334694 81.6816327 93.4334694 81.6816327 53.1474286 75.0027755 53.1474286"></polygon>
                <polygon id="Fill-4" points="86.5201633 93.4334694 93.1990204 93.4334694 93.1990204 53.1474286 86.5201633 53.1474286"></polygon>
                <path d="M133.415837,93.4334694 L126.739592,93.4334694 L126.739592,64.2958367 L133.415837,64.2958367 L133.415837,70.8617143 C135.239837,66.5025306 138.604408,63.5226122 143.737469,63.7420408 L143.737469,70.8081633 L143.352163,70.8081633 C137.500082,70.8081633 133.415837,74.6142041 133.415837,82.3412245 L133.415837,93.4334694 Z" id="Fill-5"></path>
                <path d="M181.280653,63.6884898 C187.627755,63.6884898 191.492571,67.7165714 191.492571,74.8362449 L191.492571,93.4360816 L184.813714,93.4360816 L184.813714,76.8770612 C184.813714,72.2422857 182.660571,69.76 178.908082,69.76 C175.265306,69.76 172.670694,72.2958367 172.670694,76.9893878 L172.670694,93.4360816 L165.995102,93.4360816 L165.995102,76.8235102 C165.995102,72.2958367 163.788408,69.76 160.089469,69.76 C156.393143,69.76 153.852082,72.5178776 153.852082,77.045551 L153.852082,93.4360816 L147.175837,93.4360816 L147.175837,64.2958367 L153.852082,64.2958367 L153.852082,68.7085714 C155.729633,66.1146122 158.268082,63.6858776 162.739592,63.6858776 C166.933551,63.6858776 169.857306,65.7293061 171.403102,68.8182857 C173.775673,65.7293061 176.867265,63.6884898 181.280653,63.6884898 Z" id="Fill-6"></path>
                <path d="M110.252408,63.8517551 C106.680816,63.8517551 104.01502,64.4153469 101.548408,65.3061224 L101.548408,71.4050612 C103.98498,70.4359184 106.293551,69.813551 109.313959,69.813551 C113.951347,69.813551 116.489796,72.0202449 116.489796,76.0483265 L116.489796,76.7673469 C114.226939,76.0483265 111.964082,75.5533061 108.43102,75.5533061 C101.645714,75.5533061 96.6197551,78.6422857 96.6197551,84.9358367 L96.6197551,85.045551 C96.6197551,90.8950204 101.477224,94.0408163 106.997551,94.0408163 C111.410939,94.0408163 114.446367,92.2187755 116.433633,89.8468571 L116.433633,93.4334694 L123.056327,93.4334694 L123.056327,76.1580408 C123.056327,68.3800816 118.862367,63.8517551 110.252408,63.8517551 Z M116.59951,82.8924082 C116.59951,86.5351837 113.28849,89.0174694 108.87249,89.0174694 C105.727347,89.0174694 103.245061,87.4742857 103.245061,84.7137959 L103.245061,84.6014694 C103.245061,81.6222041 105.727347,79.9131429 109.920653,79.9131429 C112.515265,79.9131429 114.890449,80.4101224 116.59951,81.0710204 L116.59951,82.8924082 Z" id="Fill-7"></path>
                <path d="M58.1302857,63.8517551 C54.356898,63.8517551 51.5970612,64.4871837 49.012898,65.4667755 L49.012898,71.5709388 C51.604898,70.507102 54.0003265,69.813551 57.1937959,69.813551 C61.8292245,69.813551 64.3670204,72.0202449 64.3670204,76.0483265 L64.3670204,76.7647347 C62.1048163,76.0483265 59.8419592,75.5506939 56.3115102,75.5506939 C49.5229388,75.5506939 44.5002449,78.6422857 44.5002449,84.9358367 L44.5002449,85.045551 C44.5002449,90.8950204 49.3570612,94.0408163 54.8747755,94.0408163 C59.2907755,94.0408163 62.3268571,92.2187755 64.3134694,89.8468571 L64.3134694,93.4334694 L70.9361633,93.4334694 L70.9361633,76.1580408 C70.933551,68.3800816 66.7395918,63.8517551 58.1302857,63.8517551 Z M64.4767347,82.8924082 C64.4767347,86.5351837 61.1657143,89.0174694 56.7523265,89.0174694 C53.6045714,89.0174694 51.1222857,87.4742857 51.1222857,84.7137959 L51.1222857,84.6014694 C51.1222857,81.6222041 53.6045714,79.9131429 57.8011429,79.9131429 C60.3931429,79.9131429 62.7676735,80.4101224 64.4767347,81.0710204 L64.4767347,82.8924082 Z" id="Fill-8"></path>
            </g>
            <g id="Wallarm-Colorful" transform="translate(11.000000, 10.000000)">
                <polygon id="Fill-1" fill="#FF5F00" points="174.387592 25.3877551 174.387592 7.28555102 138.186449 23.3697959 138.186449 0.239673469 101.568653 16.5074286 101.568653 53.1219592 137.773061 37.0403265 137.773061 47.6323265 173.944163 31.5637551 173.944163 37.994449 191.339102 30.2674286 191.339102 17.8566531"></polygon>
                <path d="M181.280653,63.6884898 C187.627755,63.6884898 191.492571,67.7165714 191.492571,74.8362449 L191.492571,93.4360816 L184.813714,93.4360816 L184.813714,76.8770612 C184.813714,72.2422857 182.660571,69.76 178.908082,69.76 C175.265306,69.76 172.670694,72.2958367 172.670694,76.9893878 L172.670694,93.4360816 L165.995102,93.4360816 L165.995102,76.8235102 C165.995102,72.2958367 163.788408,69.76 160.089469,69.76 C156.393143,69.76 153.852082,72.5178776 153.852082,77.045551 L153.852082,93.4360816 L147.175837,93.4360816 L147.175837,64.2958367 L153.852082,64.2958367 L153.852082,68.7085714 C155.729633,66.1146122 158.268082,63.6858776 162.739592,63.6858776 C166.933551,63.6858776 169.857306,65.7293061 171.403102,68.8182857 C173.775673,65.7293061 176.867265,63.6884898 181.280653,63.6884898 Z" id="Fill-6" fill="#CCCC99"></path>
                <path d="M133.415837,93.4334694 L126.739592,93.4334694 L126.739592,64.2958367 L133.415837,64.2958367 L133.415837,70.8617143 C135.239837,66.5025306 138.604408,63.5226122 143.737469,63.7420408 L143.737469,70.8081633 L143.352163,70.8081633 C137.500082,70.8081633 133.415837,74.6142041 133.415837,82.3412245 L133.415837,93.4334694 Z" id="Fill-5" fill="#CCCC99"></path>
                <path d="M110.252408,63.8517551 C106.680816,63.8517551 104.01502,64.4153469 101.548408,65.3061224 L101.548408,71.4050612 C103.98498,70.4359184 106.293551,69.813551 109.313959,69.813551 C113.951347,69.813551 116.489796,72.0202449 116.489796,76.0483265 L116.489796,76.7673469 C114.226939,76.0483265 111.964082,75.5533061 108.43102,75.5533061 C101.645714,75.5533061 96.6197551,78.6422857 96.6197551,84.9358367 L96.6197551,85.045551 C96.6197551,90.8950204 101.477224,94.0408163 106.997551,94.0408163 C111.410939,94.0408163 114.446367,92.2187755 116.433633,89.8468571 L116.433633,93.4334694 L123.056327,93.4334694 L123.056327,76.1580408 C123.056327,68.3800816 118.862367,63.8517551 110.252408,63.8517551 Z M116.59951,82.8924082 C116.59951,86.5351837 113.28849,89.0174694 108.87249,89.0174694 C105.727347,89.0174694 103.245061,87.4742857 103.245061,84.7137959 L103.245061,84.6014694 C103.245061,81.6222041 105.727347,79.9131429 109.920653,79.9131429 C112.515265,79.9131429 114.890449,80.4101224 116.59951,81.0710204 L116.59951,82.8924082 Z" id="Fill-7" fill="#CCCC99"></path>
                <polygon id="Fill-4" fill="#CCCC99" points="86.5201633 93.4334694 93.1990204 93.4334694 93.1990204 53.1474286 86.5201633 53.1474286"></polygon>
                <polygon id="Fill-3" fill="#CCCC99" points="75.0027755 93.4334694 81.6816327 93.4334694 81.6816327 53.1474286 75.0027755 53.1474286"></polygon>
                <path d="M58.1302857,63.8517551 C54.356898,63.8517551 51.5970612,64.4871837 49.012898,65.4667755 L49.012898,71.5709388 C51.604898,70.507102 54.0003265,69.813551 57.1937959,69.813551 C61.8292245,69.813551 64.3670204,72.0202449 64.3670204,76.0483265 L64.3670204,76.7647347 C62.1048163,76.0483265 59.8419592,75.5506939 56.3115102,75.5506939 C49.5229388,75.5506939 44.5002449,78.6422857 44.5002449,84.9358367 L44.5002449,85.045551 C44.5002449,90.8950204 49.3570612,94.0408163 54.8747755,94.0408163 C59.2907755,94.0408163 62.3268571,92.2187755 64.3134694,89.8468571 L64.3134694,93.4334694 L70.9361633,93.4334694 L70.9361633,76.1580408 C70.933551,68.3800816 66.7395918,63.8517551 58.1302857,63.8517551 Z M64.4767347,82.8924082 C64.4767347,86.5351837 61.1657143,89.0174694 56.7523265,89.0174694 C53.6045714,89.0174694 51.1222857,87.4742857 51.1222857,84.7137959 L51.1222857,84.6014694 C51.1222857,81.6222041 53.6045714,79.9131429 57.8011429,79.9131429 C60.3931429,79.9131429 62.7676735,80.4101224 64.4767347,81.0710204 L64.4767347,82.8924082 Z" id="Fill-8" fill="#CCCC99"></path>
                <polygon id="Fill-2" fill="#CCCC99" points="31.3469388 84.2729796 37.3061224 64.2958367 43.9849796 64.2958367 34.4359184 93.6555102 28.4767347 93.6555102 21.9644082 73.7319184 15.3978776 93.6555102 9.43608163 93.6555102 0 64.2958367 6.84408163 64.2958367 12.6942041 84.2729796 19.1503673 64.1835102 24.8339592 64.1835102"></polygon>
            </g>
        </g>
    </g>
</svg>