<svg xmlns="http://www.w3.org/2000/svg" width="162" height="109" viewBox="0 0 162 109">
    <g fill="none" fill-rule="evenodd">
        <path fill="#FF2E2F" fill-rule="nonzero" d="M48.439 99.157h-9.935l2.484-25.978h4.967z"/>
        <g stroke="#9B9B9B" stroke-linecap="round" stroke-width="2">
            <path d="M53.406 69.09v-7.516c1.632-.874 5.447-6.827 5.939-11.522 0 0 3.305-1.383 3.9-6.417.317-2.704-1.722-4.703-1.722-4.703 3.865-5.021 1.818-24.962-10.6-24.962l-2.484-5.011c-19.87 0-29.09 16.198-23.02 29.973 0 0-2.04 2-1.72 4.703.593 5.034 3.899 6.417 3.899 6.417.49 4.695 4.304 10.648 5.939 11.522v7.517C29.62 79.814 1.248 78.279 1.248 99.157h84.446c0-20.956-28.371-19.343-32.288-30.066z"/>
            <path stroke-linejoin="round" d="M33.537 69.09s4.967 5.012 9.934 5.012c4.968 0 9.935-5.011 9.935-5.011"/>
            <path d="M57.28 73.789c0 10.335-6.358 25.368-6.358 25.368M29.662 73.789c0 10.335 6.358 25.368 6.358 25.368"/>
        </g>
        <g>
            <path fill="#FF2E2F" fill-rule="nonzero" d="M123.648 99.157h-9.934l2.483-25.978h4.968z"/>
            <g stroke="#9B9B9B" stroke-linecap="round" stroke-width="2">
                <path d="M128.616 69.09v-7.516c1.632-.874 5.447-6.827 5.938-11.522 0 0 3.306-1.383 3.9-6.417.318-2.704-1.722-4.703-1.722-4.703 3.865-5.021 1.819-24.962-10.6-24.962l-2.484-5.011c-19.87 0-29.089 16.198-23.019 29.973 0 0-2.041 2-1.72 4.703.593 5.034 3.899 6.417 3.899 6.417.489 4.695 4.304 10.648 5.938 11.522v7.517c-3.917 10.723-32.288 9.188-32.288 30.066h84.446c0-20.956-28.371-19.343-32.288-30.066z"/>
                <path stroke-linejoin="round" d="M108.746 69.09s4.968 5.012 9.935 5.012c4.967 0 9.935-5.011 9.935-5.011"/>
                <path d="M132.49 73.789c0 10.335-6.358 25.368-6.358 25.368M104.872 73.789c0 10.335 6.358 25.368 6.358 25.368"/>
            </g>
        </g>
        <g>
            <g stroke="#9B9B9B" stroke-linecap="round" stroke-width="2">
                <path fill="#262626" d="M93.316 72.333v-8.916c1.938-1.038 6.468-8.1 7.052-13.67 0 0 3.926-1.64 4.63-7.611.378-3.207-2.043-5.58-2.043-5.58 4.589-5.956 2.159-29.612-12.588-29.612L87.417 1C63.822 1 52.874 20.215 60.082 36.557c0 0-2.424 2.372-2.044 5.579.705 5.97 4.63 7.611 4.63 7.611.582 5.57 5.112 12.632 7.053 13.67v8.916C65.07 85.054 31.379 83.233 31.379 108h100.28c0-24.86-33.692-22.946-38.343-35.667z"/>
                <path stroke-linejoin="round" d="M69.721 72.333s5.899 5.945 11.798 5.945c5.898 0 11.797-5.945 11.797-5.945"/>
                <path d="M97.917 77.906c0 12.26-7.55 30.094-7.55 30.094M65.12 77.906c0 12.26 7.55 30.094 7.55 30.094"/>
            </g>
            <path fill="#FF2E2F" fill-rule="nonzero" d="M87.417 108H75.62l2.95-30.817h5.898z"/>
        </g>
    </g>
</svg>
