<svg xmlns="http://www.w3.org/2000/svg" width="183" height="190" viewBox="0 0 183 190">
    <g fill="none" fill-rule="evenodd" stroke-width="2">
        <path stroke="#9B9B9B" d="M38.259 117.996h8.767v17.041h-8.767zM60.176 117.996h8.767v17.041h-8.767z"/>
        <path fill="#FF2E2F" stroke="#FF2E2F" d="M16.342 117.996h8.767v17.041h-8.767z"/>
        <path stroke="#9B9B9B" d="M16.342 152.078h8.767v17.041h-8.767zM42.642 152.078h21.917V189H42.642z"/>
        <path stroke="#979797" d="M157.74 6.164h9.345v12.459h-9.345z"/>
        <path stroke="#979797" d="M155.677 1h14.502v5.23h-14.502z"/>
        <path stroke="#9B9B9B" d="M81.448 92.95H1v11.361h4.383V189h76.065M36.067 152.078h35.067M113.55 117.996h8.767v17.041h-8.767zM135.467 117.996h8.767v17.041h-8.767zM91.633 117.996h8.767v17.041h-8.767z"/>
        <path fill="#FF2E2F" stroke="#FF2E2F" d="M113.55 83.914h8.767v17.041h-8.767z"/>
        <path stroke="#9B9B9B" d="M135.467 83.914h8.767v17.041h-8.767zM91.633 83.914h8.767v17.041h-8.767zM113.55 49.832h8.767v17.041h-8.767zM135.467 49.832h8.767v17.041h-8.767z"/>
        <path fill="#FF2E2F" stroke="#FF2E2F" d="M91.633 49.832h8.767v17.041h-8.767z"/>
        <path stroke="#9B9B9B" d="M157.384 117.996h8.767v17.041h-8.767zM91.633 152.078h8.767v17.041h-8.767zM157.384 152.078h8.767v17.041h-8.767zM157.384 83.914h8.767v17.041h-8.767z"/>
        <path fill="#FF2E2F" stroke="#FF2E2F" d="M157.384 49.832h8.767v17.041h-8.767z"/>
        <path stroke="#9B9B9B" d="M117.934 152.078h21.917V189h-21.917z"/>
        <path stroke="#9B9B9B" d="M76.291 18.59v11.36h4.384V189h96.435V29.95h4.383V18.59z"/>
        <path stroke="#979797" stroke-linecap="square" d="M90.215 29.95h76.302M13.892 104.311h61.166"/>
        <path stroke="#9B9B9B" d="M111.359 152.078h35.067"/>
        <path stroke="#979797" stroke-linecap="square" d="M28.352 76.77v15.837M18.884 79.869h16.833M22.723 84h12.994"/>
    </g>
</svg>
