<svg xmlns="http://www.w3.org/2000/svg" width="20" height="20" viewBox="0 0 20 20">
    <path fill="#FF2E2F" fill-rule="nonzero" d="M10 0C4.477 0 0 4.478 0 10c0 4.418 2.865 8.167 6.84 9.49.5.09.682-.217.682-.482 0-.238-.009-.867-.014-1.701-2.781.604-3.368-1.341-3.368-1.341-.455-1.155-1.11-1.463-1.11-1.463-.908-.62.068-.607.068-.607 1.004.07 1.532 1.03 1.532 1.03.892 1.529 2.34 1.087 2.91.832.09-.646.35-1.087.635-1.337-2.22-.253-4.555-1.11-4.555-4.943 0-1.091.39-1.984 1.03-2.683-.103-.253-.447-1.27.097-2.647 0 0 .84-.269 2.75 1.025a9.597 9.597 0 0 1 2.504-.336c.849.004 1.705.115 2.503.336 1.91-1.294 2.748-1.025 2.748-1.025.545 1.377.202 2.394.099 2.647.64.7 1.027 1.592 1.027 2.683 0 3.842-2.338 4.687-4.566 4.934.36.309.68.92.68 1.852 0 1.337-.013 2.415-.013 2.744 0 .267.18.578.688.48 3.97-1.325 6.833-5.07 6.833-9.487C20 4.478 15.523 0 10 0z"/>
</svg>
