<?xml version="1.0" encoding="UTF-8"?>
<svg width="212px" height="160px" viewBox="0 0 212 160" version="1.1" xmlns="http://www.w3.org/2000/svg" xmlns:xlink="http://www.w3.org/1999/xlink">
    <!-- Generator: Sketch 42 (36781) - http://www.bohemiancoding.com/sketch -->
    <title>logo-mailru</title>
    <desc>Created with Sketch.</desc>
    <defs></defs>
    <g id="Logos" stroke="none" stroke-width="1" fill="none" fill-rule="evenodd">
        <g id="mailru">
            <g id="Mail.Ru-Colorless" transform="translate(11.000000, 90.000000)" fill="#929292">
                <path d="M185.612047,52.786176 C183.826854,52.786176 182.351752,51.4612405 182.11593,49.7400169 L182.11593,48.7604104 C182.351752,47.0424395 183.82848,45.7202146 185.612047,45.7202146 C187.565297,45.7202146 189.148823,47.2999454 189.148823,49.2515689 C189.148823,51.2042767 187.565297,52.786176 185.612047,52.786176 Z M185.642948,43.6509515 C184.296328,43.65312 183.048915,44.1616264 182.08774,44.9813082 L182.08774,44.6110419 C182.08774,44.1339784 181.654046,43.6466146 181.045248,43.6466146 C180.403923,43.6487831 179.933907,44.2396913 179.941496,44.6663379 L179.943123,58.2203633 C179.93716,58.8237402 180.417476,59.2731558 181.009468,59.2731558 C181.682236,59.2731558 182.109425,58.7473016 182.109425,58.1731991 L182.112136,53.5825468 C183.066805,54.3886758 184.399872,54.8635708 185.642948,54.8635708 C188.730308,54.8635708 191.230554,52.1275031 191.230554,49.2640376 C191.230554,46.1436085 188.608873,43.6466146 185.642948,43.6509515 L185.642948,43.6509515 Z" id="Fill-16"></path>
                <path d="M178.091249,43.6466146 C177.44884,43.6466146 177.034662,44.1746372 177.034662,44.6609167 L177.034662,49.2640376 C177.034662,51.0438099 175.535706,52.7780442 173.45289,52.7780442 C171.750641,52.7780442 169.9481,51.3018579 169.9481,49.2971068 L169.9481,44.6842278 C169.9481,44.2012009 169.588134,43.6466146 168.866033,43.6466146 C168.358069,43.6466146 167.837094,44.0721769 167.837094,44.6647115 L167.837094,49.2634955 C167.837094,52.2380951 170.498891,54.8614024 173.447469,54.8614024 C176.66819,54.8614024 179.139704,52.1009393 179.139704,49.27488 L179.139704,44.6620009 C179.139704,44.1464471 178.7136,43.6466146 178.091249,43.6466146" id="Fill-15"></path>
                <path d="M161.430347,52.786176 C159.490108,52.786176 157.920136,51.2259614 157.896824,49.2916856 L157.896824,49.2081995 C157.915256,47.6458165 158.944738,46.3263021 160.365628,45.8801393 C160.696862,45.7765948 161.050323,45.7223831 161.418421,45.7223831 C163.355949,45.7223831 164.931343,47.2825976 164.951401,49.2152471 L164.951401,49.3014438 C164.931885,50.8632847 163.902404,52.1800885 162.479345,52.629504 C162.149195,52.7319642 161.796819,52.786176 161.430347,52.786176 Z M167.035844,49.2450635 C167.035844,46.3805139 164.533429,43.6466146 161.449864,43.6466146 C161.413,43.6466146 161.380472,43.6509515 161.344693,43.65312 C158.405331,43.6769732 155.812382,46.1609562 155.812382,49.2640376 C155.812382,52.1275031 158.311002,54.8635708 161.401615,54.8635708 C161.434142,54.8635708 161.469922,54.8565233 161.502991,54.8565233 C164.446148,54.8277911 167.035844,52.3465186 167.035844,49.2450635 L167.035844,49.2450635 Z" id="Fill-14"></path>
                <path d="M154.729231,43.6466146 C151.70313,43.6585412 149.121566,46.3263021 149.135119,49.2640376 L149.135119,53.8411369 C149.135119,54.4374664 149.625193,54.8727868 150.139121,54.8727868 C150.748461,54.8727868 151.224983,54.4217449 151.224983,53.8720376 L151.224983,49.2233788 C151.22173,47.5601619 152.6784,45.7256358 154.715136,45.7353939 C155.381941,45.7381045 155.814008,45.2323087 155.812382,44.6750118 C155.810214,44.2315595 155.491448,43.6444461 154.729231,43.6466146" id="Fill-13"></path>
                <path d="M142.621576,52.786176 C140.666157,52.786176 139.083174,51.2042767 139.083174,49.2515689 C139.083174,47.2999454 140.666157,45.7202146 142.621576,45.7202146 C144.572115,45.7202146 146.158351,47.2999454 146.158351,49.2515689 C146.158351,51.2042767 144.572115,52.786176 142.621576,52.786176 Z M147.190001,43.6466146 C146.579576,43.6466146 146.148593,44.1339784 146.148593,44.6110419 L146.148593,44.9813082 C145.183624,44.1616264 143.939464,43.65312 142.592843,43.6509515 C139.626376,43.6466146 137.001984,46.1436085 137.001984,49.2640376 C137.001984,52.1275031 139.503315,54.8635708 142.592843,54.8635708 C143.840256,54.8635708 145.180913,54.3837967 146.137751,53.5673675 C146.137751,53.5673675 146.156725,53.9972668 146.174072,54.0780424 C146.009811,55.3737035 145.070321,56.5593148 143.459689,57.0710739 C142.37708,57.4158607 139.262615,56.6807492 139.008904,56.6346692 C138.277045,56.5051031 137.906778,57.1372122 137.913284,57.6934249 C137.913284,58.1385035 138.269455,58.4925064 138.996435,58.7234485 C139.920203,59.0172762 141.536256,59.1972593 142.950099,59.2151492 C144.012107,59.2303285 148.147923,58.3949252 148.291042,53.8666165 C148.292126,53.8416791 148.291042,44.6663379 148.291042,44.6663379 C148.3008,44.2396913 147.829158,43.6487831 147.190001,43.6466146 L147.190001,43.6466146 Z" id="Fill-17"></path>
                <path d="M188.761751,8.02569035 C187.248158,8.02569035 186.272888,9.26497129 186.272888,10.4088395 L186.273431,21.2430607 C186.273431,25.4260405 182.752376,29.5092706 177.854886,29.5092706 C173.851347,29.5092706 169.61036,26.0353807 169.61036,21.3216678 L169.61036,10.4690146 C169.61036,9.33002541 168.756525,8.02569035 167.060781,8.02569035 C165.863243,8.02569035 164.640768,9.03023435 164.640768,10.4196819 L164.640768,21.2370974 C164.640768,28.2407153 170.900058,34.4089299 177.839164,34.4089299 C185.4158,34.4089299 191.228928,27.9127341 191.228928,21.2696245 L191.228928,10.4158871 C191.228928,9.19883294 190.225468,8.02569035 188.761751,8.02569035" id="Fill-7"></path>
                <path d="M159.186522,8.02569035 C152.066349,8.05550682 145.993005,14.3316028 146.027159,21.2387238 L146.027159,32.0051802 C146.027159,33.4076386 147.174822,34.4349515 148.384286,34.4349515 C149.823066,34.4349515 150.940371,33.3713167 150.940371,32.0799925 L150.940371,21.1487322 C150.936034,17.2351849 154.356796,12.9145073 159.15508,12.9378184 C160.718005,12.9448659 161.744233,11.7592546 161.736644,10.4484141 C161.731223,9.39995859 160.977679,8.01810071 159.186522,8.02569035" id="Fill-6"></path>
                <path d="M142.481167,32.3933365 C142.468156,33.4016753 141.413737,34.4349515 139.883881,34.4349515 C138.340472,34.4349515 137.378756,33.3057205 137.378756,32.3087661 L137.380382,30.5880847 C137.398814,29.5499294 138.35782,28.4721995 139.923998,28.4721995 C141.636006,28.4721995 142.486046,29.6279944 142.486046,30.7143981 L142.481167,32.3933365" id="Fill-5"></path>
                <path d="M131.641525,29.3141082 C128.40454,29.3119398 125.518306,26.8225355 125.518306,23.1513148 L125.522101,2.82895059 C125.518306,1.42486588 124.372269,0.443090824 122.972521,0.443090824 C121.345084,0.447427765 120.407221,1.64604988 120.407221,2.82895059 L120.407221,23.1708311 C120.388789,29.4854174 125.60884,34.4349515 131.550449,34.4349515 C133.3145,34.4349515 134.165624,33.0026767 134.165624,31.7899595 C134.165624,30.6330805 133.25324,29.3151925 131.641525,29.3141082" id="Fill-12"></path>
                <path d="M114.136546,8.02785882 C115.465818,8.02352188 116.733832,9.33924141 116.733832,10.5947859 L116.722989,31.8268235 C116.722989,33.1739859 115.710856,34.4116405 114.126788,34.4116405 C112.738424,34.4116405 111.615157,33.3539689 111.626541,31.9363313 L111.620578,10.5590061 C111.622746,9.28719812 112.6094,8.03490635 114.136546,8.02785882 Z M116.709436,4.12623812 C116.709436,5.18824659 115.646344,6.06159812 114.114861,6.06159812 C112.573079,6.06159812 111.611904,5.00555294 111.611904,4.01022494 L111.612446,2.64083576 C111.630878,1.60376471 112.537299,0.443090824 114.100766,0.443090824 C115.813316,0.443090824 116.709436,1.55280565 116.709436,2.64083576 L116.709436,4.12623812 Z" id="Fill-18"></path>
                <path d="M94.5145976,29.5363765 C89.9206927,29.5363765 86.1963445,25.8141967 86.1963445,21.2230024 C86.1963445,16.6296395 89.9206927,12.908544 94.5145976,12.908544 C99.1095868,12.908544 102.833935,16.6296395 102.833935,21.2230024 C102.833935,25.8141967 99.1095868,29.5363765 94.5145976,29.5363765 Z M105.26208,8.03490635 C103.827095,8.03219576 102.812792,9.18148518 102.812792,10.3015002 L102.812792,11.1743096 C100.547283,9.24491294 97.6122579,8.04900141 94.4441224,8.04520659 C87.4730315,8.03219576 81.2993958,13.9060405 81.2993958,21.2528188 C81.2993958,27.9880885 87.1813722,34.4203144 94.4441224,34.4203144 C97.3818579,34.4203144 100.541862,33.2905412 102.787313,31.3752395 L102.793818,32.0003012 C102.793818,33.1962127 103.74144,34.4203144 105.29786,34.4203144 C107.065163,34.4203144 107.856113,33.00864 107.856113,31.8940461 L107.856113,10.4375718 C107.875087,9.43085929 106.769167,8.03599059 105.26208,8.03490635 L105.26208,8.03490635 Z" id="Fill-11"></path>
                <path d="M70.6147991,8.04520659 C67.4851539,7.99858447 65.0868254,9.81522071 63.6079285,11.0257694 C61.9658541,9.26497129 59.8635219,8.19157835 57.7042673,8.05767529 C55.4262889,7.91726682 53.2898033,8.68436329 51.9312565,9.78757271 C51.4558193,8.68436329 50.8285892,8.03490635 49.7551962,8.03490635 C48.5777167,8.03490635 47.3254249,9.04053459 47.3254249,10.6826089 C47.3254249,12.3214306 47.33952,31.9601845 47.33952,31.9601845 C47.33952,33.1815755 48.3830965,34.4203144 49.8728358,34.4203144 C51.5159944,34.4203144 52.4245835,33.1669384 52.4245835,31.9520527 L52.4245835,16.1677553 C52.4245835,14.631936 55.0500593,12.8147576 57.2694889,12.844032 C58.6876687,12.8630061 60.3731125,14.2616696 60.3731125,16.4675464 L60.3861233,31.9889167 C60.3861233,33.3615586 61.7668969,34.4132668 63.0197308,34.4132668 C64.508928,34.4132668 65.6370748,33.2878306 65.6370748,32.0051802 L65.6370748,16.3179219 C65.6370748,14.3961148 68.5569205,12.7854833 70.5562504,12.8884856 C72.1235125,12.9703454 73.5086231,14.6785581 73.5086231,16.3179219 L73.5086231,31.9829534 C73.5086231,33.3398739 74.7820574,34.4132668 76.1557835,34.4132668 C77.3614532,34.4132668 78.756864,33.6152696 78.756864,31.9601845 L78.756864,16.3629176 C78.7742118,10.6386974 73.1199247,7.96768376 70.6147991,8.04520659" id="Fill-9"></path>
                <path d="M28.5177374,20.0438965 C28.2830005,15.4825186 24.8980179,12.7399454 20.8093666,12.7399454 L20.6554052,12.7399454 C15.9373553,12.7399454 13.3205534,16.4501986 13.3205534,20.6646212 C13.3205534,25.3842974 16.4865205,28.3648602 20.6369732,28.3648602 C25.2650315,28.3648602 28.30848,24.9749986 28.5285798,20.9654965 L28.5177374,20.0438965 Z M20.6787162,8.65942588 C23.8311304,8.65942588 26.7948875,10.0526682 28.9714899,12.2341496 L28.9714899,12.2428235 C28.9714899,11.1949101 29.6762428,10.4055868 30.6553073,10.4055868 L30.9025129,10.4039605 C32.4339953,10.4039605 32.7478814,11.8530409 32.7478814,12.3116725 L32.7554711,28.5990551 C32.6475896,29.6643162 33.8559699,30.2145656 34.5260273,29.5314974 C37.1412028,26.8436781 40.2697638,15.7150871 32.9002165,9.26659765 C26.0315859,3.25505506 16.816128,4.24604612 11.9148424,7.62398118 C6.70454965,11.2176791 3.37052612,19.1700028 6.60913694,26.6392998 C10.1394071,34.7884122 20.2417694,37.2170993 26.2457224,34.7943755 C29.2859181,33.5670212 30.6905449,37.6773572 27.5327096,39.0196405 C22.7615322,41.0531238 9.48236047,40.8482033 3.27890824,30.1023473 C-0.912203294,22.8461026 -0.688850824,10.0786899 10.4267294,3.46431247 C18.9303868,-1.59527153 30.1413798,-0.193897412 36.9015868,6.86664282 C43.9680904,14.2470325 43.5560809,28.0672376 36.6630551,33.4434184 C33.5404574,35.8834899 28.9020988,33.5073882 28.9319153,29.9500122 L28.8993882,28.7866278 C26.7249544,30.9447981 23.8311304,32.2035953 20.6787162,32.2035953 C14.4492424,32.2035953 8.96843294,26.7222438 8.96843294,20.4949384 C8.96843294,14.2036631 14.4492424,8.65942588 20.6787162,8.65942588 L20.6787162,8.65942588 Z" id="Fill-4"></path>
            </g>
            <g id="Mail.Ru-Colorful" transform="translate(10.000000, 10.000000)">
                <path d="M185.612047,52.786176 C183.826854,52.786176 182.351752,51.4612405 182.11593,49.7400169 L182.11593,48.7604104 C182.351752,47.0424395 183.82848,45.7202146 185.612047,45.7202146 C187.565297,45.7202146 189.148823,47.2999454 189.148823,49.2515689 C189.148823,51.2042767 187.565297,52.786176 185.612047,52.786176 Z M185.642948,43.6509515 C184.296328,43.65312 183.048915,44.1616264 182.08774,44.9813082 L182.08774,44.6110419 C182.08774,44.1339784 181.654046,43.6466146 181.045248,43.6466146 C180.403923,43.6487831 179.933907,44.2396913 179.941496,44.6663379 L179.943123,58.2203633 C179.93716,58.8237402 180.417476,59.2731558 181.009468,59.2731558 C181.682236,59.2731558 182.109425,58.7473016 182.109425,58.1731991 L182.112136,53.5825468 C183.066805,54.3886758 184.399872,54.8635708 185.642948,54.8635708 C188.730308,54.8635708 191.230554,52.1275031 191.230554,49.2640376 C191.230554,46.1436085 188.608873,43.6466146 185.642948,43.6509515 L185.642948,43.6509515 Z" id="Fill-16" fill="#168DE2"></path>
                <path d="M178.091249,43.6466146 C177.44884,43.6466146 177.034662,44.1746372 177.034662,44.6609167 L177.034662,49.2640376 C177.034662,51.0438099 175.535706,52.7780442 173.45289,52.7780442 C171.750641,52.7780442 169.9481,51.3018579 169.9481,49.2971068 L169.9481,44.6842278 C169.9481,44.2012009 169.588134,43.6466146 168.866033,43.6466146 C168.358069,43.6466146 167.837094,44.0721769 167.837094,44.6647115 L167.837094,49.2634955 C167.837094,52.2380951 170.498891,54.8614024 173.447469,54.8614024 C176.66819,54.8614024 179.139704,52.1009393 179.139704,49.27488 L179.139704,44.6620009 C179.139704,44.1464471 178.7136,43.6466146 178.091249,43.6466146" id="Fill-15" fill="#168DE2"></path>
                <path d="M161.430347,52.786176 C159.490108,52.786176 157.920136,51.2259614 157.896824,49.2916856 L157.896824,49.2081995 C157.915256,47.6458165 158.944738,46.3263021 160.365628,45.8801393 C160.696862,45.7765948 161.050323,45.7223831 161.418421,45.7223831 C163.355949,45.7223831 164.931343,47.2825976 164.951401,49.2152471 L164.951401,49.3014438 C164.931885,50.8632847 163.902404,52.1800885 162.479345,52.629504 C162.149195,52.7319642 161.796819,52.786176 161.430347,52.786176 Z M167.035844,49.2450635 C167.035844,46.3805139 164.533429,43.6466146 161.449864,43.6466146 C161.413,43.6466146 161.380472,43.6509515 161.344693,43.65312 C158.405331,43.6769732 155.812382,46.1609562 155.812382,49.2640376 C155.812382,52.1275031 158.311002,54.8635708 161.401615,54.8635708 C161.434142,54.8635708 161.469922,54.8565233 161.502991,54.8565233 C164.446148,54.8277911 167.035844,52.3465186 167.035844,49.2450635 L167.035844,49.2450635 Z" id="Fill-14" fill="#168DE2"></path>
                <path d="M154.729231,43.6466146 C151.70313,43.6585412 149.121566,46.3263021 149.135119,49.2640376 L149.135119,53.8411369 C149.135119,54.4374664 149.625193,54.8727868 150.139121,54.8727868 C150.748461,54.8727868 151.224983,54.4217449 151.224983,53.8720376 L151.224983,49.2233788 C151.22173,47.5601619 152.6784,45.7256358 154.715136,45.7353939 C155.381941,45.7381045 155.814008,45.2323087 155.812382,44.6750118 C155.810214,44.2315595 155.491448,43.6444461 154.729231,43.6466146" id="Fill-13" fill="#168DE2"></path>
                <path d="M142.621576,52.786176 C140.666157,52.786176 139.083174,51.2042767 139.083174,49.2515689 C139.083174,47.2999454 140.666157,45.7202146 142.621576,45.7202146 C144.572115,45.7202146 146.158351,47.2999454 146.158351,49.2515689 C146.158351,51.2042767 144.572115,52.786176 142.621576,52.786176 Z M147.190001,43.6466146 C146.579576,43.6466146 146.148593,44.1339784 146.148593,44.6110419 L146.148593,44.9813082 C145.183624,44.1616264 143.939464,43.65312 142.592843,43.6509515 C139.626376,43.6466146 137.001984,46.1436085 137.001984,49.2640376 C137.001984,52.1275031 139.503315,54.8635708 142.592843,54.8635708 C143.840256,54.8635708 145.180913,54.3837967 146.137751,53.5673675 C146.137751,53.5673675 146.156725,53.9972668 146.174072,54.0780424 C146.009811,55.3737035 145.070321,56.5593148 143.459689,57.0710739 C142.37708,57.4158607 139.262615,56.6807492 139.008904,56.6346692 C138.277045,56.5051031 137.906778,57.1372122 137.913284,57.6934249 C137.913284,58.1385035 138.269455,58.4925064 138.996435,58.7234485 C139.920203,59.0172762 141.536256,59.1972593 142.950099,59.2151492 C144.012107,59.2303285 148.147923,58.3949252 148.291042,53.8666165 C148.292126,53.8416791 148.291042,44.6663379 148.291042,44.6663379 C148.3008,44.2396913 147.829158,43.6487831 147.190001,43.6466146 L147.190001,43.6466146 Z" id="Fill-17" fill="#168DE2"></path>
                <path d="M188.761751,8.02569035 C187.248158,8.02569035 186.272888,9.26497129 186.272888,10.4088395 L186.273431,21.2430607 C186.273431,25.4260405 182.752376,29.5092706 177.854886,29.5092706 C173.851347,29.5092706 169.61036,26.0353807 169.61036,21.3216678 L169.61036,10.4690146 C169.61036,9.33002541 168.756525,8.02569035 167.060781,8.02569035 C165.863243,8.02569035 164.640768,9.03023435 164.640768,10.4196819 L164.640768,21.2370974 C164.640768,28.2407153 170.900058,34.4089299 177.839164,34.4089299 C185.4158,34.4089299 191.228928,27.9127341 191.228928,21.2696245 L191.228928,10.4158871 C191.228928,9.19883294 190.225468,8.02569035 188.761751,8.02569035" id="Fill-7" fill="#FFA930"></path>
                <path d="M159.186522,8.02569035 C152.066349,8.05550682 145.993005,14.3316028 146.027159,21.2387238 L146.027159,32.0051802 C146.027159,33.4076386 147.174822,34.4349515 148.384286,34.4349515 C149.823066,34.4349515 150.940371,33.3713167 150.940371,32.0799925 L150.940371,21.1487322 C150.936034,17.2351849 154.356796,12.9145073 159.15508,12.9378184 C160.718005,12.9448659 161.744233,11.7592546 161.736644,10.4484141 C161.731223,9.39995859 160.977679,8.01810071 159.186522,8.02569035" id="Fill-6" fill="#FFA930"></path>
                <path d="M142.481167,32.3933365 C142.468156,33.4016753 141.413737,34.4349515 139.883881,34.4349515 C138.340472,34.4349515 137.378756,33.3057205 137.378756,32.3087661 L137.380382,30.5880847 C137.398814,29.5499294 138.35782,28.4721995 139.923998,28.4721995 C141.636006,28.4721995 142.486046,29.6279944 142.486046,30.7143981 L142.481167,32.3933365" id="Fill-5" fill="#FFA930"></path>
                <path d="M131.641525,29.3141082 C128.40454,29.3119398 125.518306,26.8225355 125.518306,23.1513148 L125.522101,2.82895059 C125.518306,1.42486588 124.372269,0.443090824 122.972521,0.443090824 C121.345084,0.447427765 120.407221,1.64604988 120.407221,2.82895059 L120.407221,23.1708311 C120.388789,29.4854174 125.60884,34.4349515 131.550449,34.4349515 C133.3145,34.4349515 134.165624,33.0026767 134.165624,31.7899595 C134.165624,30.6330805 133.25324,29.3151925 131.641525,29.3141082" id="Fill-12" fill="#168DE2"></path>
                <path d="M114.136546,8.02785882 C115.465818,8.02352188 116.733832,9.33924141 116.733832,10.5947859 L116.722989,31.8268235 C116.722989,33.1739859 115.710856,34.4116405 114.126788,34.4116405 C112.738424,34.4116405 111.615157,33.3539689 111.626541,31.9363313 L111.620578,10.5590061 C111.622746,9.28719812 112.6094,8.03490635 114.136546,8.02785882 Z M116.709436,4.12623812 C116.709436,5.18824659 115.646344,6.06159812 114.114861,6.06159812 C112.573079,6.06159812 111.611904,5.00555294 111.611904,4.01022494 L111.612446,2.64083576 C111.630878,1.60376471 112.537299,0.443090824 114.100766,0.443090824 C115.813316,0.443090824 116.709436,1.55280565 116.709436,2.64083576 L116.709436,4.12623812 Z" id="Fill-18" fill="#168DE2"></path>
                <path d="M94.5145976,29.5363765 C89.9206927,29.5363765 86.1963445,25.8141967 86.1963445,21.2230024 C86.1963445,16.6296395 89.9206927,12.908544 94.5145976,12.908544 C99.1095868,12.908544 102.833935,16.6296395 102.833935,21.2230024 C102.833935,25.8141967 99.1095868,29.5363765 94.5145976,29.5363765 Z M105.26208,8.03490635 C103.827095,8.03219576 102.812792,9.18148518 102.812792,10.3015002 L102.812792,11.1743096 C100.547283,9.24491294 97.6122579,8.04900141 94.4441224,8.04520659 C87.4730315,8.03219576 81.2993958,13.9060405 81.2993958,21.2528188 C81.2993958,27.9880885 87.1813722,34.4203144 94.4441224,34.4203144 C97.3818579,34.4203144 100.541862,33.2905412 102.787313,31.3752395 L102.793818,32.0003012 C102.793818,33.1962127 103.74144,34.4203144 105.29786,34.4203144 C107.065163,34.4203144 107.856113,33.00864 107.856113,31.8940461 L107.856113,10.4375718 C107.875087,9.43085929 106.769167,8.03599059 105.26208,8.03490635 L105.26208,8.03490635 Z" id="Fill-11" fill="#168DE2"></path>
                <path d="M70.6147991,8.04520659 C67.4851539,7.99858447 65.0868254,9.81522071 63.6079285,11.0257694 C61.9658541,9.26497129 59.8635219,8.19157835 57.7042673,8.05767529 C55.4262889,7.91726682 53.2898033,8.68436329 51.9312565,9.78757271 C51.4558193,8.68436329 50.8285892,8.03490635 49.7551962,8.03490635 C48.5777167,8.03490635 47.3254249,9.04053459 47.3254249,10.6826089 C47.3254249,12.3214306 47.33952,31.9601845 47.33952,31.9601845 C47.33952,33.1815755 48.3830965,34.4203144 49.8728358,34.4203144 C51.5159944,34.4203144 52.4245835,33.1669384 52.4245835,31.9520527 L52.4245835,16.1677553 C52.4245835,14.631936 55.0500593,12.8147576 57.2694889,12.844032 C58.6876687,12.8630061 60.3731125,14.2616696 60.3731125,16.4675464 L60.3861233,31.9889167 C60.3861233,33.3615586 61.7668969,34.4132668 63.0197308,34.4132668 C64.508928,34.4132668 65.6370748,33.2878306 65.6370748,32.0051802 L65.6370748,16.3179219 C65.6370748,14.3961148 68.5569205,12.7854833 70.5562504,12.8884856 C72.1235125,12.9703454 73.5086231,14.6785581 73.5086231,16.3179219 L73.5086231,31.9829534 C73.5086231,33.3398739 74.7820574,34.4132668 76.1557835,34.4132668 C77.3614532,34.4132668 78.756864,33.6152696 78.756864,31.9601845 L78.756864,16.3629176 C78.7742118,10.6386974 73.1199247,7.96768376 70.6147991,8.04520659" id="Fill-9" fill="#168DE2"></path>
                <path d="M28.5177374,20.0438965 C28.2830005,15.4825186 24.8980179,12.7399454 20.8093666,12.7399454 L20.6554052,12.7399454 C15.9373553,12.7399454 13.3205534,16.4501986 13.3205534,20.6646212 C13.3205534,25.3842974 16.4865205,28.3648602 20.6369732,28.3648602 C25.2650315,28.3648602 28.30848,24.9749986 28.5285798,20.9654965 L28.5177374,20.0438965 Z M20.6787162,8.65942588 C23.8311304,8.65942588 26.7948875,10.0526682 28.9714899,12.2341496 L28.9714899,12.2428235 C28.9714899,11.1949101 29.6762428,10.4055868 30.6553073,10.4055868 L30.9025129,10.4039605 C32.4339953,10.4039605 32.7478814,11.8530409 32.7478814,12.3116725 L32.7554711,28.5990551 C32.6475896,29.6643162 33.8559699,30.2145656 34.5260273,29.5314974 C37.1412028,26.8436781 40.2697638,15.7150871 32.9002165,9.26659765 C26.0315859,3.25505506 16.816128,4.24604612 11.9148424,7.62398118 C6.70454965,11.2176791 3.37052612,19.1700028 6.60913694,26.6392998 C10.1394071,34.7884122 20.2417694,37.2170993 26.2457224,34.7943755 C29.2859181,33.5670212 30.6905449,37.6773572 27.5327096,39.0196405 C22.7615322,41.0531238 9.48236047,40.8482033 3.27890824,30.1023473 C-0.912203294,22.8461026 -0.688850824,10.0786899 10.4267294,3.46431247 C18.9303868,-1.59527153 30.1413798,-0.193897412 36.9015868,6.86664282 C43.9680904,14.2470325 43.5560809,28.0672376 36.6630551,33.4434184 C33.5404574,35.8834899 28.9020988,33.5073882 28.9319153,29.9500122 L28.8993882,28.7866278 C26.7249544,30.9447981 23.8311304,32.2035953 20.6787162,32.2035953 C14.4492424,32.2035953 8.96843294,26.7222438 8.96843294,20.4949384 C8.96843294,14.2036631 14.4492424,8.65942588 20.6787162,8.65942588 L20.6787162,8.65942588 Z" id="Fill-4" fill="#FFA930"></path>
            </g>
        </g>
    </g>
</svg>