<?xml version="1.0" encoding="UTF-8"?>
<svg width="212px" height="152px" viewBox="0 0 212 152" version="1.1" xmlns="http://www.w3.org/2000/svg" xmlns:xlink="http://www.w3.org/1999/xlink">
    <!-- Generator: Sketch 42 (36781) - http://www.bohemiancoding.com/sketch -->
    <title>logo-badoo</title>
    <desc>Created with Sketch.</desc>
    <defs></defs>
    <g id="Logos" stroke="none" stroke-width="1" fill="none" fill-rule="evenodd">
        <g id="badoo">
            <g id="Badoo-Colorless" transform="translate(10.000000, 86.000000)" fill="#929292">
                <path d="M179.160994,19.7345325 C182.673231,19.7345325 185.853444,21.1589112 188.15574,23.4609231 C190.458036,25.7623669 191.882414,28.9431479 191.882414,32.4556686 C191.882414,35.9673373 190.458036,39.1481183 188.15574,41.4501302 C185.853444,43.752426 182.673231,45.1768047 179.160994,45.1768047 C175.648757,45.1768047 172.467976,43.752426 170.166533,41.4501302 C167.864237,39.1481183 166.439858,35.9676213 166.439858,32.4556686 C166.439858,28.943432 167.864521,25.7623669 170.166249,23.4609231 C172.46826,21.1589112 175.649041,19.7345325 179.160994,19.7345325 Z M184.39697,27.2196923 C183.056947,25.8796686 181.20568,25.0506036 179.160994,25.0506036 C177.116592,25.0506036 175.264757,25.8796686 173.924734,27.2196923 C172.585278,28.559432 171.755929,30.4112663 171.755929,32.4556686 C171.755929,34.500071 172.585278,36.3516213 173.925302,37.691645 C175.264757,39.0313846 177.116592,39.8607337 179.160994,39.8607337 C181.20568,39.8607337 183.056947,39.0313846 184.39697,37.691645 C185.736994,36.3516213 186.566343,34.499787 186.566343,32.4556686 C186.566343,30.4112663 185.736994,28.559432 184.39697,27.2196923 L184.39697,27.2196923 Z" id="Fill-5"></path>
                <g id="dotted-o" transform="translate(115.000000, 9.000000)">
                    <path d="M15.2819408,19.1427692 C17.8901302,19.1427692 20.0055385,21.2581775 20.0055385,23.8663669 C20.0055385,26.4748402 17.8901302,28.5902485 15.2819408,28.5902485 C12.6734675,28.5902485 10.5580592,26.4748402 10.5580592,23.8663669 C10.5580592,21.2581775 12.6734675,19.1427692 15.2819408,19.1427692" id="Fill-6"></path>
                    <path d="M23.4967574,0.0546745562 C29.9574438,0.0546745562 35.8077633,2.67422485 40.0428402,6.9095858 C44.2773491,11.1438107 46.8977515,16.9944142 46.8977515,23.4553846 C46.8977515,29.916071 44.2779172,35.7663905 40.0428402,40.0014675 C35.8077633,44.2365444 29.9574438,46.8560947 23.4967574,46.8560947 C17.036071,46.8560947 11.1851834,44.2356923 6.95067456,40.0014675 C2.71588166,35.7663905 0.0960473373,29.916071 0.0960473373,23.4553846 C0.0960473373,16.9944142 2.7164497,11.1438107 6.95067456,6.9095858 C11.1851834,2.67507692 17.036071,0.0546745562 23.4967574,0.0546745562 Z M36.284071,10.668071 C33.0112663,7.39526627 28.4898935,5.37074556 23.4967574,5.37074556 C18.5036213,5.37074556 13.9822485,7.3955503 10.7097278,10.668071 C7.4372071,13.9405917 5.41211834,18.4622485 5.41211834,23.4553846 C5.41211834,28.4485207 7.43663905,32.9698935 10.7097278,36.2426982 C13.9822485,39.5152189 18.5036213,41.5403077 23.4967574,41.5403077 C28.4898935,41.5403077 33.0112663,39.515503 36.284071,36.2426982 C39.5568757,32.9698935 41.5816805,28.4485207 41.5816805,23.4553846 C41.5816805,18.4622485 39.5565917,13.9405917 36.284071,10.668071 L36.284071,10.668071 Z" id="Fill-4"></path>
                </g>
                <path d="M93.1092071,20.531787 C89.7926627,20.531787 86.7893964,21.8769231 84.6160473,24.0502722 C82.4424142,26.2239053 81.0975621,29.2271716 81.0975621,32.543432 C81.0975621,35.8599763 82.4424142,38.8632426 84.6160473,41.0365917 C86.7893964,43.2102249 89.7926627,44.5550769 93.1092071,44.5550769 C96.4257515,44.5550769 99.4287337,43.2102249 101.602367,41.0365917 C103.775716,38.8632426 105.120852,35.8599763 105.120852,32.543432 C105.120852,29.2271716 103.775716,26.2239053 101.602367,24.0502722 C99.4287337,21.8769231 96.4257515,20.531787 93.1092071,20.531787 Z M105.12,4.72984615 C105.12,3.26201183 106.310059,2.07195266 107.778178,2.07195266 C109.246012,2.07195266 110.436071,3.26201183 110.436071,4.72984615 L110.436071,30.1420118 C110.436071,30.3732071 110.406533,30.5975858 110.350864,30.8111716 C110.407385,31.3812071 110.436639,31.9589112 110.436639,32.543432 C110.436639,37.3275266 108.496757,41.6597396 105.361136,44.7953609 C102.225515,47.9312663 97.8933018,49.8711479 93.1092071,49.8711479 C88.3251124,49.8711479 83.9928994,47.9312663 80.8572781,44.7953609 C77.7213728,41.6597396 75.7814911,37.3275266 75.7814911,32.543432 C75.7814911,27.7596213 77.7213728,23.4274083 80.8572781,20.291503 C83.9928994,17.1558817 88.3251124,15.216 93.1092071,15.216 C97.7720237,15.216 102.005396,17.0590296 105.12,20.0554793 L105.12,4.72984615 L105.12,4.72984615 Z" id="Fill-3"></path>
                <path d="M72.3499172,32.1100118 L72.3502012,32.1134201 L72.3502012,32.1165444 C72.3524734,32.1608521 72.3538935,32.2051598 72.3538935,32.2500355 L72.3538935,32.3423432 L72.3544615,32.4553846 L72.3538935,32.568426 L72.3538935,43.3403077 C72.3538935,44.808142 71.1638343,45.9982012 69.695716,45.9982012 C68.2278817,45.9982012 67.0378225,44.808142 67.0378225,43.3403077 L67.0378225,43.008568 C64.8539645,44.6286391 62.1494911,45.587503 59.2223432,45.587503 C55.5967811,45.587503 52.3134675,44.1171124 49.9370414,41.7404024 C47.5611834,39.3645444 46.0902249,36.0806627 46.0902249,32.4553846 C46.0902249,28.8298225 47.5611834,25.5465089 49.9370414,23.1700828 C52.3134675,20.7942249 55.5970651,19.3232663 59.2223432,19.3232663 C62.8476213,19.3232663 66.131503,20.7942249 68.507645,23.1700828 C70.8082367,25.4706746 72.2598817,28.6216331 72.3499172,32.1100118 Z M67.0378225,32.556213 L67.0378225,32.3542722 C67.0108402,30.2363077 66.1411598,28.3211361 64.7485917,26.9288521 C63.3347219,25.5146982 61.380071,24.6393373 59.2223432,24.6393373 C57.0646154,24.6393373 55.1102485,25.5146982 53.6958107,26.9288521 C52.2816568,28.3432899 51.4062959,30.2976568 51.4062959,32.4553846 C51.4062959,34.6131124 52.2816568,36.5677633 53.6958107,37.9819172 C55.1102485,39.396071 57.0643314,40.271432 59.2223432,40.271432 C61.380071,40.271432 63.3347219,39.396071 64.7485917,37.9822012 C66.1411598,36.5896331 67.0108402,34.6741775 67.0378225,32.556213 L67.0378225,32.556213 Z" id="Fill-2"></path>
                <path d="M0.0871952663,2.67607101 C0.0871952663,1.20823669 1.27725444,0.0181775148 2.74508876,0.0181775148 C4.2132071,0.0181775148 5.40326627,1.20823669 5.40326627,2.67607101 L5.40326627,17.9494438 C5.70489941,17.6066272 6.01704142,17.2734675 6.33940828,16.9505325 C10.2026982,13.0878107 15.540071,10.6977515 21.4332781,10.6977515 C27.3270533,10.6977515 32.664142,13.0878107 36.5271479,16.9505325 C40.3901538,20.8135385 42.780497,26.1509112 42.780497,32.0444024 C42.780497,37.9381775 40.3904379,43.2755503 36.5271479,47.1382722 C32.664142,51.0015621 27.3270533,53.3919053 21.4332781,53.3919053 C15.539787,53.3919053 10.2024142,51.0012781 6.33940828,47.1382722 C2.47668639,43.2755503 0.0866272189,37.9381775 0.0866272189,32.0444024 C0.0866272189,31.6865325 0.0954319527,31.3303669 0.112757396,30.9767574 C0.096,30.8557633 0.0871952663,30.732497 0.0871952663,30.6069586 L0.0871952663,2.67607101 Z M32.7683787,20.7093018 C29.867645,17.808568 25.859503,16.0135385 21.4332781,16.0135385 C17.0076213,16.0135385 12.9994793,17.808568 10.0981775,20.7093018 C7.19744379,23.6106036 5.4024142,27.6187456 5.4024142,32.0444024 C5.4024142,36.4706272 7.19744379,40.4787692 10.0981775,43.379503 C12.9994793,46.2808047 17.0073373,48.0758343 21.4332781,48.0758343 C25.859503,48.0758343 29.867645,46.2802367 32.7683787,43.379503 C35.6691124,40.4787692 37.4647101,36.4706272 37.4647101,32.0444024 C37.4647101,27.6184615 35.6696805,23.6106036 32.7683787,20.7093018 L32.7683787,20.7093018 Z" id="Fill-1"></path>
            </g>
            <g id="Badoo-Colorful" transform="translate(10.000000, 10.000000)">
                <path d="M179.160994,19.7345325 C182.673231,19.7345325 185.853444,21.1589112 188.15574,23.4609231 C190.458036,25.7623669 191.882414,28.9431479 191.882414,32.4556686 C191.882414,35.9673373 190.458036,39.1481183 188.15574,41.4501302 C185.853444,43.752426 182.673231,45.1768047 179.160994,45.1768047 C175.648757,45.1768047 172.467976,43.752426 170.166533,41.4501302 C167.864237,39.1481183 166.439858,35.9676213 166.439858,32.4556686 C166.439858,28.943432 167.864521,25.7623669 170.166249,23.4609231 C172.46826,21.1589112 175.649041,19.7345325 179.160994,19.7345325 Z M184.39697,27.2196923 C183.056947,25.8796686 181.20568,25.0506036 179.160994,25.0506036 C177.116592,25.0506036 175.264757,25.8796686 173.924734,27.2196923 C172.585278,28.559432 171.755929,30.4112663 171.755929,32.4556686 C171.755929,34.500071 172.585278,36.3516213 173.925302,37.691645 C175.264757,39.0313846 177.116592,39.8607337 179.160994,39.8607337 C181.20568,39.8607337 183.056947,39.0313846 184.39697,37.691645 C185.736994,36.3516213 186.566343,34.499787 186.566343,32.4556686 C186.566343,30.4112663 185.736994,28.559432 184.39697,27.2196923 L184.39697,27.2196923 Z" id="Fill-5" fill="#DA2F2D"></path>
                <g id="dotted-o" transform="translate(115.000000, 9.000000)">
                    <path d="M15.2819408,19.1427692 C17.8901302,19.1427692 20.0055385,21.2581775 20.0055385,23.8663669 C20.0055385,26.4748402 17.8901302,28.5902485 15.2819408,28.5902485 C12.6734675,28.5902485 10.5580592,26.4748402 10.5580592,23.8663669 C10.5580592,21.2581775 12.6734675,19.1427692 15.2819408,19.1427692" id="Fill-6" fill="#DA2F2D"></path>
                    <path d="M23.4967574,0.0546745562 C29.9574438,0.0546745562 35.8077633,2.67422485 40.0428402,6.9095858 C44.2773491,11.1438107 46.8977515,16.9944142 46.8977515,23.4553846 C46.8977515,29.916071 44.2779172,35.7663905 40.0428402,40.0014675 C35.8077633,44.2365444 29.9574438,46.8560947 23.4967574,46.8560947 C17.036071,46.8560947 11.1851834,44.2356923 6.95067456,40.0014675 C2.71588166,35.7663905 0.0960473373,29.916071 0.0960473373,23.4553846 C0.0960473373,16.9944142 2.7164497,11.1438107 6.95067456,6.9095858 C11.1851834,2.67507692 17.036071,0.0546745562 23.4967574,0.0546745562 Z M36.284071,10.668071 C33.0112663,7.39526627 28.4898935,5.37074556 23.4967574,5.37074556 C18.5036213,5.37074556 13.9822485,7.3955503 10.7097278,10.668071 C7.4372071,13.9405917 5.41211834,18.4622485 5.41211834,23.4553846 C5.41211834,28.4485207 7.43663905,32.9698935 10.7097278,36.2426982 C13.9822485,39.5152189 18.5036213,41.5403077 23.4967574,41.5403077 C28.4898935,41.5403077 33.0112663,39.515503 36.284071,36.2426982 C39.5568757,32.9698935 41.5816805,28.4485207 41.5816805,23.4553846 C41.5816805,18.4622485 39.5565917,13.9405917 36.284071,10.668071 L36.284071,10.668071 Z" id="Fill-4" fill="#E46D2F"></path>
                </g>
                <path d="M93.1092071,20.531787 C89.7926627,20.531787 86.7893964,21.8769231 84.6160473,24.0502722 C82.4424142,26.2239053 81.0975621,29.2271716 81.0975621,32.543432 C81.0975621,35.8599763 82.4424142,38.8632426 84.6160473,41.0365917 C86.7893964,43.2102249 89.7926627,44.5550769 93.1092071,44.5550769 C96.4257515,44.5550769 99.4287337,43.2102249 101.602367,41.0365917 C103.775716,38.8632426 105.120852,35.8599763 105.120852,32.543432 C105.120852,29.2271716 103.775716,26.2239053 101.602367,24.0502722 C99.4287337,21.8769231 96.4257515,20.531787 93.1092071,20.531787 Z M105.12,4.72984615 C105.12,3.26201183 106.310059,2.07195266 107.778178,2.07195266 C109.246012,2.07195266 110.436071,3.26201183 110.436071,4.72984615 L110.436071,30.1420118 C110.436071,30.3732071 110.406533,30.5975858 110.350864,30.8111716 C110.407385,31.3812071 110.436639,31.9589112 110.436639,32.543432 C110.436639,37.3275266 108.496757,41.6597396 105.361136,44.7953609 C102.225515,47.9312663 97.8933018,49.8711479 93.1092071,49.8711479 C88.3251124,49.8711479 83.9928994,47.9312663 80.8572781,44.7953609 C77.7213728,41.6597396 75.7814911,37.3275266 75.7814911,32.543432 C75.7814911,27.7596213 77.7213728,23.4274083 80.8572781,20.291503 C83.9928994,17.1558817 88.3251124,15.216 93.1092071,15.216 C97.7720237,15.216 102.005396,17.0590296 105.12,20.0554793 L105.12,4.72984615 L105.12,4.72984615 Z" id="Fill-3" fill="#52AE46"></path>
                <path d="M72.3499172,32.1100118 L72.3502012,32.1134201 L72.3502012,32.1165444 C72.3524734,32.1608521 72.3538935,32.2051598 72.3538935,32.2500355 L72.3538935,32.3423432 L72.3544615,32.4553846 L72.3538935,32.568426 L72.3538935,43.3403077 C72.3538935,44.808142 71.1638343,45.9982012 69.695716,45.9982012 C68.2278817,45.9982012 67.0378225,44.808142 67.0378225,43.3403077 L67.0378225,43.008568 C64.8539645,44.6286391 62.1494911,45.587503 59.2223432,45.587503 C55.5967811,45.587503 52.3134675,44.1171124 49.9370414,41.7404024 C47.5611834,39.3645444 46.0902249,36.0806627 46.0902249,32.4553846 C46.0902249,28.8298225 47.5611834,25.5465089 49.9370414,23.1700828 C52.3134675,20.7942249 55.5970651,19.3232663 59.2223432,19.3232663 C62.8476213,19.3232663 66.131503,20.7942249 68.507645,23.1700828 C70.8082367,25.4706746 72.2598817,28.6216331 72.3499172,32.1100118 Z M67.0378225,32.556213 L67.0378225,32.3542722 C67.0108402,30.2363077 66.1411598,28.3211361 64.7485917,26.9288521 C63.3347219,25.5146982 61.380071,24.6393373 59.2223432,24.6393373 C57.0646154,24.6393373 55.1102485,25.5146982 53.6958107,26.9288521 C52.2816568,28.3432899 51.4062959,30.2976568 51.4062959,32.4553846 C51.4062959,34.6131124 52.2816568,36.5677633 53.6958107,37.9819172 C55.1102485,39.396071 57.0643314,40.271432 59.2223432,40.271432 C61.380071,40.271432 63.3347219,39.396071 64.7485917,37.9822012 C66.1411598,36.5896331 67.0108402,34.6741775 67.0378225,32.556213 L67.0378225,32.556213 Z" id="Fill-2" fill="#62C0CC"></path>
                <path d="M0.0871952663,2.67607101 C0.0871952663,1.20823669 1.27725444,0.0181775148 2.74508876,0.0181775148 C4.2132071,0.0181775148 5.40326627,1.20823669 5.40326627,2.67607101 L5.40326627,17.9494438 C5.70489941,17.6066272 6.01704142,17.2734675 6.33940828,16.9505325 C10.2026982,13.0878107 15.540071,10.6977515 21.4332781,10.6977515 C27.3270533,10.6977515 32.664142,13.0878107 36.5271479,16.9505325 C40.3901538,20.8135385 42.780497,26.1509112 42.780497,32.0444024 C42.780497,37.9381775 40.3904379,43.2755503 36.5271479,47.1382722 C32.664142,51.0015621 27.3270533,53.3919053 21.4332781,53.3919053 C15.539787,53.3919053 10.2024142,51.0012781 6.33940828,47.1382722 C2.47668639,43.2755503 0.0866272189,37.9381775 0.0866272189,32.0444024 C0.0866272189,31.6865325 0.0954319527,31.3303669 0.112757396,30.9767574 C0.096,30.8557633 0.0871952663,30.732497 0.0871952663,30.6069586 L0.0871952663,2.67607101 Z M32.7683787,20.7093018 C29.867645,17.808568 25.859503,16.0135385 21.4332781,16.0135385 C17.0076213,16.0135385 12.9994793,17.808568 10.0981775,20.7093018 C7.19744379,23.6106036 5.4024142,27.6187456 5.4024142,32.0444024 C5.4024142,36.4706272 7.19744379,40.4787692 10.0981775,43.379503 C12.9994793,46.2808047 17.0073373,48.0758343 21.4332781,48.0758343 C25.859503,48.0758343 29.867645,46.2802367 32.7683787,43.379503 C35.6691124,40.4787692 37.4647101,36.4706272 37.4647101,32.0444024 C37.4647101,27.6184615 35.6696805,23.6106036 32.7683787,20.7093018 L32.7683787,20.7093018 Z" id="Fill-1" fill="#0081BA"></path>
            </g>
        </g>
    </g>
</svg>