<?xml version="1.0" encoding="UTF-8"?>
<svg width="212px" height="150px" viewBox="0 0 212 150" version="1.1" xmlns="http://www.w3.org/2000/svg" xmlns:xlink="http://www.w3.org/1999/xlink">
    <!-- Generator: Sketch 42 (36781) - http://www.bohemiancoding.com/sketch -->
    <title>logo-yota</title>
    <desc>Created with Sketch.</desc>
    <defs></defs>
    <g id="Logos" stroke="none" stroke-width="1" fill="none" fill-rule="evenodd">
        <g id="yota">
            <g id="Yota-Colorless" transform="translate(30.000000, 85.000000)" fill="#929292">
                <path d="M82.8419218,21.1667994 C81.2626542,19.7031374 79.0566823,18.9939543 76.3091894,19.0000388 C74.2593866,19.0000388 72.5334147,19.3110247 71.1353302,19.9607149 C69.7467105,20.6158135 68.5473866,21.6244895 67.5387105,22.9799825 C67.472457,23.0692219 67.4460908,23.1834754 67.4636682,23.2909684 C67.4819218,23.4018416 67.544795,23.4978416 67.6340344,23.5667994 L70.3484006,25.4726022 C70.5255274,25.5922642 70.7702598,25.5591374 70.904795,25.386067 C71.5064851,24.6315881 72.236626,24.0238135 73.1107668,23.5667994 C73.9754429,23.1118135 74.9117809,22.8873628 75.9596682,22.8812783 C77.5004006,22.8873628 78.5989922,23.2909684 79.3588795,24.066405 C80.0856401,24.8026304 80.5074992,26.0918698 80.5196682,27.9949684 C79.0208513,28.0105177 77.4767387,28.1477571 75.896795,28.3931656 C74.1552739,28.6710247 72.5570767,29.1415599 71.1150485,29.8115318 C69.6608513,30.4848839 68.4392175,31.4063487 67.4758373,32.5583487 C66.4881189,33.7434754 65.9979781,35.2639261 66.0000063,37.0439825 C66.0000063,38.333898 66.2460908,39.4892783 66.7484006,40.4952501 C67.2419218,41.4795881 67.8882316,42.3050529 68.6880063,42.9601515 C69.4837246,43.6159261 70.4024851,44.1094473 71.4341471,44.4454473 C72.464457,44.7773909 73.520457,44.9382923 74.6034992,44.9382923 C75.956288,44.9382923 77.2069922,44.7077571 78.356288,44.2291092 C79.2304288,43.8674191 80.0322316,43.3759261 80.756964,42.7749121 L80.8759499,44.0168275 C80.8969077,44.2230247 81.0733584,44.3879825 81.2863161,44.3879825 L84.8051894,44.3879825 C84.9126823,44.3879825 85.0140908,44.3426867 85.0925133,44.2683205 C85.1702598,44.190574 85.2114992,44.0857853 85.2114992,43.9749121 L85.2114992,28.3546304 C85.2114992,25.0804895 84.4576964,22.6534473 82.8419218,21.1667994 M80.5196682,31.8910811 L80.5196682,38.7145177 C79.8138654,39.306743 79.0147668,39.821898 78.1135837,40.2674191 C77.1833302,40.7257853 76.1719499,40.9529402 75.0557809,40.9529402 C74.5588795,40.9529402 74.0504851,40.8839825 73.5292457,40.7399825 C73.0296401,40.6054473 72.5780344,40.3809966 72.1676682,40.0605459 C71.7613584,39.7434754 71.4226542,39.3459543 71.1414147,38.8517571 C70.8838373,38.3906867 70.7465978,37.8106304 70.7465978,37.098067 C70.7465978,35.9616163 71.0548795,35.117898 71.6653584,34.458743 C72.3028795,33.7766022 73.1107668,33.2472501 74.1160626,32.8848839 C75.1362316,32.5076444 76.2496964,32.2561515 77.4611894,32.1310811 C78.5327387,32.0114191 79.5529077,31.9336726 80.5196682,31.8910811" id="Fill-6"></path>
                <path d="M62.4831549,39.7887324 C62.423662,39.6805634 62.3222535,39.6122817 62.2052958,39.5886197 C62.088338,39.5703662 61.9652958,39.5940282 61.8733521,39.6663662 C61.4271549,40.0158873 60.9397183,40.3153803 60.3948169,40.5729577 C59.879662,40.8149859 59.3388169,40.9380282 58.7607887,40.9380282 C58.1320563,40.9353239 57.6655775,40.7737465 57.2944225,40.456 C56.9983099,40.2288451 56.7556056,39.5615775 56.7616901,38.4332394 L56.7616901,23.5187606 L62.6812394,23.5187606 C62.7887324,23.5187606 62.8935211,23.4775211 62.9685634,23.3990986 C63.0490141,23.3213521 63.0909296,23.2199437 63.0909296,23.1117746 L63.0909296,19.9458028 C63.0909296,19.8383099 63.0523944,19.7328451 62.9685634,19.6584789 C62.8935211,19.5746479 62.7887324,19.5334085 62.6812394,19.5334085 L56.8069859,19.5334085 L56.8069859,13.4103662 C56.8069859,13.3028732 56.7677746,13.2007887 56.6900282,13.1230423 C56.6122817,13.0452958 56.507493,13 56.4,13 L52.5302535,13 C52.4227606,13 52.3152676,13.0452958 52.2402254,13.119662 C52.1651831,13.1974085 52.1205634,13.3028732 52.1205634,13.4103662 L52.1205634,19.5334085 L48.4130704,19.5334085 C48.299493,19.5334085 48.1940282,19.5746479 48.1230423,19.6584789 C48.0419155,19.7328451 48,19.8383099 48,19.9458028 L48,23.1117746 C48,23.2199437 48.0419155,23.3240563 48.1230423,23.3990986 C48.1974085,23.4829296 48.299493,23.5187606 48.4130704,23.5187606 L52.1205634,23.5187606 L52.1205634,38.8341408 C52.1205634,40.8089014 52.6235493,42.3530141 53.7065915,43.3799437 C54.7720563,44.3913239 56.2830423,44.8760563 58.1590986,44.8726761 C59.5659718,44.8726761 60.6787606,44.7056901 61.5163944,44.3345352 C62.3006197,43.9897465 63.0875493,43.5205634 63.8839437,42.9337465 C64.0455211,42.808 64.0969014,42.5808451 63.9921127,42.4016901 L62.4831549,39.7887324" id="Fill-5"></path>
                <path d="M43.2526197,23.0725779 C42.2953239,21.8522962 41.0804507,20.8706624 39.6228732,20.1256483 C38.1504225,19.3718455 36.4629859,18.9973103 34.5659718,19.0000145 C32.635831,19.0000145 30.9389296,19.3590005 29.4786479,20.1013103 C28.0420282,20.8287469 26.8244507,21.8042962 25.8516056,23.0191695 C24.8787606,24.2340427 24.1607887,25.6165779 23.6970141,27.1519019 C23.2305352,28.6838455 23,30.2550005 23,31.8707751 C23,33.4872258 23.2393239,35.0759582 23.7213521,36.6410286 C24.2027042,38.2088033 24.9301408,39.6150005 25.9023099,40.8427188 C26.8717746,42.0785498 28.0778592,43.0743807 29.4935211,43.8376483 L29.6909296,43.4786624 L29.5083944,43.8471131 C30.9781408,44.5833385 32.6709859,44.9416483 34.5659718,44.9416483 C36.4629859,44.9416483 38.1504225,44.5704934 39.6228732,43.8166906 C41.0804507,43.0743807 42.2953239,42.0866624 43.2526197,40.8663807 C44.204507,39.657592 44.9251831,38.265592 45.4072113,36.7153948 C45.8919437,35.1719582 46.1285634,33.5886343 46.1285634,31.9721836 C46.1285634,30.357085 45.8919437,28.773761 45.4072113,27.2269441 C44.9251831,25.6767469 44.204507,24.2881272 43.2526197,23.0725779 M27.6384225,31.8707751 C27.6384225,30.7336483 27.7844507,29.6208596 28.0778592,28.5371413 C28.3685634,27.454099 28.7992113,26.493423 29.3765634,25.6436202 C29.948507,24.8086906 30.6576901,24.1387188 31.5284507,23.6357328 C32.384338,23.1388314 33.3835493,22.8873385 34.5659718,22.8873385 C35.744338,22.8873385 36.7442254,23.1388314 37.5974085,23.6357328 C38.468169,24.1441272 39.1922254,24.8086906 39.7810704,25.6463244 C40.3712676,26.4968033 40.8113803,27.465592 41.0980282,28.5587751 C41.3941408,29.6654793 41.5381408,30.7870568 41.5381408,31.9248596 C41.5381408,33.0559019 41.3941408,34.1781554 41.0980282,35.2821554 C40.8113803,36.3834512 40.3712676,37.3475075 39.7810704,38.1912258 C39.1888451,39.0349441 38.4620845,39.717085 37.5940282,40.2376483 C36.7442254,40.7467188 35.744338,41.0042962 34.5659718,41.0042962 C33.4193803,41.0042962 32.4377465,40.7467188 31.5852394,40.2376483 C30.7117746,39.717085 29.9809577,39.0437328 29.3765634,38.2209723 C28.8019155,37.3590005 28.3685634,36.3834512 28.0778592,35.2821554 C27.7844507,34.1808596 27.6384225,33.0437328 27.6384225,31.8707751" id="Fill-4"></path>
                <path d="M28.0600643,10.2190423 C27.9911066,10.0865352 27.8477826,10 27.6949939,10 L23.3263178,10 C23.1884024,10 23.0626559,10.0655775 22.9849094,10.179831 L13.9358953,23.2412394 L5.32902207,10.1859155 C5.25127559,10.071662 5.12282489,10 4.9849094,10 L0.412740383,10 C0.259951651,10 0.122036158,10.083831 0.0503741862,10.2190423 C-0.023992011,10.3468169 -0.0152032786,10.5144789 0.0713319326,10.6409014 L11.4067686,27.9702535 L11.4067686,43.9251831 C11.4067686,44.0360563 11.448684,44.1381408 11.5298108,44.2158873 C11.6048531,44.2970141 11.7096418,44.3355493 11.8232193,44.3355493 L15.8389939,44.3355493 C15.9464869,44.3355493 16.0512756,44.2936338 16.1263178,44.2158873 C16.2067686,44.1381408 16.248684,44.0360563 16.248684,43.9251831 L16.248684,27.9249577 L28.0357263,10.6463099 C28.1195573,10.5144789 28.1317263,10.3535775 28.0600643,10.2190423" id="Fill-3"></path>
                <path d="M146.513007,18.9390575 C144.343806,21.1541078 141.542214,22.7689167 138.412403,23.4944064 L138.412403,31.3299756 C141.542214,32.0551859 144.343806,33.6713926 146.513007,35.8875612 C149.522322,38.9466398 151.380079,43.1877497 151.377563,47.8306047 L151.377563,51.1038356 C151.377563,53.1581319 149.711872,54.8249412 147.656457,54.8249412 C145.597129,54.8249412 143.932835,53.1581319 143.932835,51.1038356 L143.932835,47.8306047 C143.931438,45.1822175 142.885838,42.8237467 141.200577,41.104937 C139.508885,39.3886434 137.232888,38.3539468 134.688782,38.3514307 C132.143277,38.3539468 129.870076,39.3886434 128.175868,41.104937 C126.492844,42.8237467 125.446126,45.1822175 125.446126,47.8306047 L125.446126,51.1038356 C125.446126,53.1581319 123.779037,54.8249412 121.723622,54.8249412 C119.668208,54.8249412 118.000001,53.1581319 118.000001,51.1038356 L118.000001,47.8306047 C117.998882,43.1877497 119.85636,38.9466398 122.864556,35.8875612 C125.034036,33.6713926 127.835629,32.0551859 130.965439,31.3299756 L130.965439,23.4944064 C127.835629,22.7689167 125.034036,21.1541078 122.864556,18.9390575 C119.85636,15.8799788 117.998882,11.6360733 118.000001,6.99629355 L118.000001,3.7219443 C118.000001,1.66625013 119.668208,-3.55271368e-15 121.723622,-3.55271368e-15 C123.779037,-3.55271368e-15 125.446126,1.66625013 125.446126,3.7219443 L125.446126,6.99629355 C125.446126,9.64440114 126.492844,11.9997967 128.175868,13.7205634 C129.870076,15.4362978 132.143277,16.4715535 134.688782,16.4729514 C137.232888,16.4715535 139.508885,15.4362978 141.200577,13.7205634 C142.885838,11.9997967 143.931438,9.64440114 143.932835,6.99629355 L143.932835,3.7219443 C143.932835,1.66625013 145.597129,-3.55271368e-15 147.656457,-3.55271368e-15 C149.711872,-3.55271368e-15 151.377563,1.66625013 151.377563,3.7219443 L151.377563,6.99629355 C151.380079,11.6360733 149.522322,15.8799788 146.513007,18.9390575 Z M134.688782,54.0401821 C131.12843,54.0401821 128.242686,51.1569544 128.242686,47.5954845 C128.242686,44.0340146 131.12843,41.1482707 134.688782,41.1482707 C138.249133,41.1482707 141.134877,44.0340146 141.134877,47.5954845 C141.134877,51.1569544 138.249133,54.0401821 134.688782,54.0401821 Z" id="Combined-Shape"></path>
            </g>
            <g id="Yota-Colorful" transform="translate(30.000000, 10.000000)" fill="#00B6E0">
                <path d="M82.8419218,21.1667994 C81.2626542,19.7031374 79.0566823,18.9939543 76.3091894,19.0000388 C74.2593866,19.0000388 72.5334147,19.3110247 71.1353302,19.9607149 C69.7467105,20.6158135 68.5473866,21.6244895 67.5387105,22.9799825 C67.472457,23.0692219 67.4460908,23.1834754 67.4636682,23.2909684 C67.4819218,23.4018416 67.544795,23.4978416 67.6340344,23.5667994 L70.3484006,25.4726022 C70.5255274,25.5922642 70.7702598,25.5591374 70.904795,25.386067 C71.5064851,24.6315881 72.236626,24.0238135 73.1107668,23.5667994 C73.9754429,23.1118135 74.9117809,22.8873628 75.9596682,22.8812783 C77.5004006,22.8873628 78.5989922,23.2909684 79.3588795,24.066405 C80.0856401,24.8026304 80.5074992,26.0918698 80.5196682,27.9949684 C79.0208513,28.0105177 77.4767387,28.1477571 75.896795,28.3931656 C74.1552739,28.6710247 72.5570767,29.1415599 71.1150485,29.8115318 C69.6608513,30.4848839 68.4392175,31.4063487 67.4758373,32.5583487 C66.4881189,33.7434754 65.9979781,35.2639261 66.0000063,37.0439825 C66.0000063,38.333898 66.2460908,39.4892783 66.7484006,40.4952501 C67.2419218,41.4795881 67.8882316,42.3050529 68.6880063,42.9601515 C69.4837246,43.6159261 70.4024851,44.1094473 71.4341471,44.4454473 C72.464457,44.7773909 73.520457,44.9382923 74.6034992,44.9382923 C75.956288,44.9382923 77.2069922,44.7077571 78.356288,44.2291092 C79.2304288,43.8674191 80.0322316,43.3759261 80.756964,42.7749121 L80.8759499,44.0168275 C80.8969077,44.2230247 81.0733584,44.3879825 81.2863161,44.3879825 L84.8051894,44.3879825 C84.9126823,44.3879825 85.0140908,44.3426867 85.0925133,44.2683205 C85.1702598,44.190574 85.2114992,44.0857853 85.2114992,43.9749121 L85.2114992,28.3546304 C85.2114992,25.0804895 84.4576964,22.6534473 82.8419218,21.1667994 M80.5196682,31.8910811 L80.5196682,38.7145177 C79.8138654,39.306743 79.0147668,39.821898 78.1135837,40.2674191 C77.1833302,40.7257853 76.1719499,40.9529402 75.0557809,40.9529402 C74.5588795,40.9529402 74.0504851,40.8839825 73.5292457,40.7399825 C73.0296401,40.6054473 72.5780344,40.3809966 72.1676682,40.0605459 C71.7613584,39.7434754 71.4226542,39.3459543 71.1414147,38.8517571 C70.8838373,38.3906867 70.7465978,37.8106304 70.7465978,37.098067 C70.7465978,35.9616163 71.0548795,35.117898 71.6653584,34.458743 C72.3028795,33.7766022 73.1107668,33.2472501 74.1160626,32.8848839 C75.1362316,32.5076444 76.2496964,32.2561515 77.4611894,32.1310811 C78.5327387,32.0114191 79.5529077,31.9336726 80.5196682,31.8910811" id="Fill-6"></path>
                <path d="M62.4831549,39.7887324 C62.423662,39.6805634 62.3222535,39.6122817 62.2052958,39.5886197 C62.088338,39.5703662 61.9652958,39.5940282 61.8733521,39.6663662 C61.4271549,40.0158873 60.9397183,40.3153803 60.3948169,40.5729577 C59.879662,40.8149859 59.3388169,40.9380282 58.7607887,40.9380282 C58.1320563,40.9353239 57.6655775,40.7737465 57.2944225,40.456 C56.9983099,40.2288451 56.7556056,39.5615775 56.7616901,38.4332394 L56.7616901,23.5187606 L62.6812394,23.5187606 C62.7887324,23.5187606 62.8935211,23.4775211 62.9685634,23.3990986 C63.0490141,23.3213521 63.0909296,23.2199437 63.0909296,23.1117746 L63.0909296,19.9458028 C63.0909296,19.8383099 63.0523944,19.7328451 62.9685634,19.6584789 C62.8935211,19.5746479 62.7887324,19.5334085 62.6812394,19.5334085 L56.8069859,19.5334085 L56.8069859,13.4103662 C56.8069859,13.3028732 56.7677746,13.2007887 56.6900282,13.1230423 C56.6122817,13.0452958 56.507493,13 56.4,13 L52.5302535,13 C52.4227606,13 52.3152676,13.0452958 52.2402254,13.119662 C52.1651831,13.1974085 52.1205634,13.3028732 52.1205634,13.4103662 L52.1205634,19.5334085 L48.4130704,19.5334085 C48.299493,19.5334085 48.1940282,19.5746479 48.1230423,19.6584789 C48.0419155,19.7328451 48,19.8383099 48,19.9458028 L48,23.1117746 C48,23.2199437 48.0419155,23.3240563 48.1230423,23.3990986 C48.1974085,23.4829296 48.299493,23.5187606 48.4130704,23.5187606 L52.1205634,23.5187606 L52.1205634,38.8341408 C52.1205634,40.8089014 52.6235493,42.3530141 53.7065915,43.3799437 C54.7720563,44.3913239 56.2830423,44.8760563 58.1590986,44.8726761 C59.5659718,44.8726761 60.6787606,44.7056901 61.5163944,44.3345352 C62.3006197,43.9897465 63.0875493,43.5205634 63.8839437,42.9337465 C64.0455211,42.808 64.0969014,42.5808451 63.9921127,42.4016901 L62.4831549,39.7887324" id="Fill-5"></path>
                <path d="M43.2526197,23.0725779 C42.2953239,21.8522962 41.0804507,20.8706624 39.6228732,20.1256483 C38.1504225,19.3718455 36.4629859,18.9973103 34.5659718,19.0000145 C32.635831,19.0000145 30.9389296,19.3590005 29.4786479,20.1013103 C28.0420282,20.8287469 26.8244507,21.8042962 25.8516056,23.0191695 C24.8787606,24.2340427 24.1607887,25.6165779 23.6970141,27.1519019 C23.2305352,28.6838455 23,30.2550005 23,31.8707751 C23,33.4872258 23.2393239,35.0759582 23.7213521,36.6410286 C24.2027042,38.2088033 24.9301408,39.6150005 25.9023099,40.8427188 C26.8717746,42.0785498 28.0778592,43.0743807 29.4935211,43.8376483 L29.6909296,43.4786624 L29.5083944,43.8471131 C30.9781408,44.5833385 32.6709859,44.9416483 34.5659718,44.9416483 C36.4629859,44.9416483 38.1504225,44.5704934 39.6228732,43.8166906 C41.0804507,43.0743807 42.2953239,42.0866624 43.2526197,40.8663807 C44.204507,39.657592 44.9251831,38.265592 45.4072113,36.7153948 C45.8919437,35.1719582 46.1285634,33.5886343 46.1285634,31.9721836 C46.1285634,30.357085 45.8919437,28.773761 45.4072113,27.2269441 C44.9251831,25.6767469 44.204507,24.2881272 43.2526197,23.0725779 M27.6384225,31.8707751 C27.6384225,30.7336483 27.7844507,29.6208596 28.0778592,28.5371413 C28.3685634,27.454099 28.7992113,26.493423 29.3765634,25.6436202 C29.948507,24.8086906 30.6576901,24.1387188 31.5284507,23.6357328 C32.384338,23.1388314 33.3835493,22.8873385 34.5659718,22.8873385 C35.744338,22.8873385 36.7442254,23.1388314 37.5974085,23.6357328 C38.468169,24.1441272 39.1922254,24.8086906 39.7810704,25.6463244 C40.3712676,26.4968033 40.8113803,27.465592 41.0980282,28.5587751 C41.3941408,29.6654793 41.5381408,30.7870568 41.5381408,31.9248596 C41.5381408,33.0559019 41.3941408,34.1781554 41.0980282,35.2821554 C40.8113803,36.3834512 40.3712676,37.3475075 39.7810704,38.1912258 C39.1888451,39.0349441 38.4620845,39.717085 37.5940282,40.2376483 C36.7442254,40.7467188 35.744338,41.0042962 34.5659718,41.0042962 C33.4193803,41.0042962 32.4377465,40.7467188 31.5852394,40.2376483 C30.7117746,39.717085 29.9809577,39.0437328 29.3765634,38.2209723 C28.8019155,37.3590005 28.3685634,36.3834512 28.0778592,35.2821554 C27.7844507,34.1808596 27.6384225,33.0437328 27.6384225,31.8707751" id="Fill-4"></path>
                <path d="M28.0600643,10.2190423 C27.9911066,10.0865352 27.8477826,10 27.6949939,10 L23.3263178,10 C23.1884024,10 23.0626559,10.0655775 22.9849094,10.179831 L13.9358953,23.2412394 L5.32902207,10.1859155 C5.25127559,10.071662 5.12282489,10 4.9849094,10 L0.412740383,10 C0.259951651,10 0.122036158,10.083831 0.0503741862,10.2190423 C-0.023992011,10.3468169 -0.0152032786,10.5144789 0.0713319326,10.6409014 L11.4067686,27.9702535 L11.4067686,43.9251831 C11.4067686,44.0360563 11.448684,44.1381408 11.5298108,44.2158873 C11.6048531,44.2970141 11.7096418,44.3355493 11.8232193,44.3355493 L15.8389939,44.3355493 C15.9464869,44.3355493 16.0512756,44.2936338 16.1263178,44.2158873 C16.2067686,44.1381408 16.248684,44.0360563 16.248684,43.9251831 L16.248684,27.9249577 L28.0357263,10.6463099 C28.1195573,10.5144789 28.1317263,10.3535775 28.0600643,10.2190423" id="Fill-3"></path>
                <path d="M146.513007,18.9390575 C144.343806,21.1541078 141.542214,22.7689167 138.412403,23.4944064 L138.412403,31.3299756 C141.542214,32.0551859 144.343806,33.6713926 146.513007,35.8875612 C149.522322,38.9466398 151.380079,43.1877497 151.377563,47.8306047 L151.377563,51.1038356 C151.377563,53.1581319 149.711872,54.8249412 147.656457,54.8249412 C145.597129,54.8249412 143.932835,53.1581319 143.932835,51.1038356 L143.932835,47.8306047 C143.931438,45.1822175 142.885838,42.8237467 141.200577,41.104937 C139.508885,39.3886434 137.232888,38.3539468 134.688782,38.3514307 C132.143277,38.3539468 129.870076,39.3886434 128.175868,41.104937 C126.492844,42.8237467 125.446126,45.1822175 125.446126,47.8306047 L125.446126,51.1038356 C125.446126,53.1581319 123.779037,54.8249412 121.723622,54.8249412 C119.668208,54.8249412 118.000001,53.1581319 118.000001,51.1038356 L118.000001,47.8306047 C117.998882,43.1877497 119.85636,38.9466398 122.864556,35.8875612 C125.034036,33.6713926 127.835629,32.0551859 130.965439,31.3299756 L130.965439,23.4944064 C127.835629,22.7689167 125.034036,21.1541078 122.864556,18.9390575 C119.85636,15.8799788 117.998882,11.6360733 118.000001,6.99629355 L118.000001,3.7219443 C118.000001,1.66625013 119.668208,-3.55271368e-15 121.723622,-3.55271368e-15 C123.779037,-3.55271368e-15 125.446126,1.66625013 125.446126,3.7219443 L125.446126,6.99629355 C125.446126,9.64440114 126.492844,11.9997967 128.175868,13.7205634 C129.870076,15.4362978 132.143277,16.4715535 134.688782,16.4729514 C137.232888,16.4715535 139.508885,15.4362978 141.200577,13.7205634 C142.885838,11.9997967 143.931438,9.64440114 143.932835,6.99629355 L143.932835,3.7219443 C143.932835,1.66625013 145.597129,-3.55271368e-15 147.656457,-3.55271368e-15 C149.711872,-3.55271368e-15 151.377563,1.66625013 151.377563,3.7219443 L151.377563,6.99629355 C151.380079,11.6360733 149.522322,15.8799788 146.513007,18.9390575 Z M134.688782,54.0401821 C131.12843,54.0401821 128.242686,51.1569544 128.242686,47.5954845 C128.242686,44.0340146 131.12843,41.1482707 134.688782,41.1482707 C138.249133,41.1482707 141.134877,44.0340146 141.134877,47.5954845 C141.134877,51.1569544 138.249133,54.0401821 134.688782,54.0401821 Z" id="Combined-Shape"></path>
            </g>
        </g>
    </g>
</svg>