<?xml version="1.0" encoding="UTF-8"?>
<svg width="213px" height="126px" viewBox="0 0 213 126" version="1.1" xmlns="http://www.w3.org/2000/svg" xmlns:xlink="http://www.w3.org/1999/xlink">
    <!-- Generator: Sketch 42 (36781) - http://www.bohemiancoding.com/sketch -->
    <title>logo-vimpelcom</title>
    <desc>Created with Sketch.</desc>
    <defs>
        <polygon id="path-1" points="0.0424175824 42.4189963 0.0424175824 0.294095238 22.7612747 0.294095238 45.4801319 0.294095238 45.4801319 42.4189963 0.0424175824 42.4189963"></polygon>
        <polygon id="path-3" points="0.0399999619 42.4099989 0.0399999619 0.289999962 22.7599993 0.289999962 45.4799986 0.289999962 45.4799986 42.4099989 0.0399999619 42.4099989"></polygon>
    </defs>
    <g id="Logos" stroke="none" stroke-width="1" fill="none" fill-rule="evenodd">
        <g id="vimpelcom">
            <g id="VimpelCom-Colorless" transform="translate(10.000000, 73.000000)">
                <g id="Logo">
                    <mask id="mask-2" fill="white">
                        <use xlink:href="#path-1"></use>
                    </mask>
                    <g id="Clip-3"></g>
                    <path d="M45.4801319,21.3565458 C45.4801319,32.9881538 35.301326,42.4189963 22.738652,42.4189963 C10.1816337,42.4189963 0,32.9881538 0,21.3565458 C0,9.72493773 10.1816337,0.294095238 22.738652,0.294095238 C35.301326,0.294095238 45.4801319,9.72493773 45.4801319,21.3565458" id="Fill-2" fill="#7F7F7F" mask="url(#mask-2)"></path>
                    <path d="M0.704131868,16.1427179 L44.776,16.1427179 C43.7572711,12.4283516 41.6689121,9.10917582 38.8389524,6.47999267 L6.64400733,6.47999267 C3.81121978,9.10917582 1.72356777,12.4283516 0.704131868,16.1427179" id="Fill-5" fill="#929292" mask="url(#mask-2)"></path>
                    <path d="M0.673732601,26.4516044 C1.6019707,29.9121722 3.45491209,33.0348132 5.9759304,35.5841099 L39.5042015,35.5841099 C42.0280476,33.0348132 43.8781612,29.9121722 44.8063993,26.4516044 L0.673732601,26.4516044 Z" id="Fill-6" fill="#929292" mask="url(#mask-2)"></path>
                </g>
                <g id="Name" transform="translate(53.000000, 9.000000)" fill="#929292">
                    <polygon id="Path" points="134.241813 6.59835897 133.988015 6.59835897 133.734216 6.64289744 133.476883 6.64289744 133.225912 6.68460806 132.969286 6.72561172 132.71478 6.77015018 132.460982 6.85569231 132.207183 6.89669597 131.94985 6.9822381 131.698879 7.06848718 131.442253 7.15120147 131.187747 7.23674359 130.171846 7.74504762 129.619004 8.12892674 129.450747 7.95713553 129.279663 7.78605128 129.066868 7.61779487 128.854073 7.49054212 128.600275 7.31945788 128.346476 7.19220513 128.091971 7.10949084 127.838172 6.9822381 127.539835 6.89669597 127.244326 6.85569231 126.945989 6.77015018 126.606648 6.72561172 126.269429 6.68460806 125.930088 6.64289744 125.546209 6.59835897 124.910652 6.59835897 124.656853 6.64289744 124.400227 6.64289744 124.148549 6.68460806 123.891923 6.72561172 123.637418 6.77015018 123.383619 6.85569231 123.129821 6.89669597 122.872487 6.9822381 122.663227 7.06848718 122.405894 7.15120147 122.154923 7.23674359 121.898297 7.36328938 121.135487 7.74504762 121.049945 7.83058974 120.796147 7.19220513 120.751608 7.15120147 120.710604 7.06848718 120.62789 7.02394872 120.583352 6.9822381 120.500637 6.93840659 120.415095 6.89669597 119.014608 6.89669597 118.888062 6.93840659 118.80252 6.9822381 118.716978 7.02394872 118.630729 7.10949084 118.589725 7.19220513 118.548015 7.27774725 118.548015 21.2324249 118.589725 21.317967 118.630729 21.4445128 118.716978 21.4890513 118.80252 21.5717656 118.888062 21.616304 119.014608 21.6573077 121.26274 21.6573077 121.389993 21.616304 121.475535 21.5717656 121.561077 21.4890513 121.602788 21.4445128 121.68833 21.317967 121.68833 10.037011 122.110385 9.82421612 122.450432 9.69696337 122.621516 9.65313187 122.789773 9.61142125 122.958736 9.52587912 123.170824 9.4841685 123.383619 9.440337 123.596414 9.440337 123.809209 9.39862637 124.063007 9.35762271 124.316806 9.35762271 124.571311 9.31308425 125.546209 9.31308425 125.844546 9.35762271 126.140055 9.39862637 126.396681 9.440337 126.521106 9.4841685 126.606648 9.52587912 126.733194 9.57041758 126.818736 9.61142125 127.073242 9.73867399 127.114245 9.82421612 127.200495 9.86592674 127.244326 9.95146886 127.286037 9.99247253 127.329868 10.0780147 127.412582 10.2498059 127.498125 10.3735238 127.539835 10.5446081 127.539835 10.7574029 127.581546 10.9263663 127.581546 21.2324249 127.625377 21.317967 127.667088 21.4445128 127.75263 21.4890513 127.838172 21.5717656 128.006429 21.6573077 130.340103 21.6573077 130.467355 21.616304 130.552897 21.5717656 130.63844 21.4890513 130.679443 21.4445128 130.721154 21.317967 130.762864 21.2324249 130.762864 10.037011 130.848407 9.99247253 131.146744 9.82421612 131.486084 9.69696337 131.654341 9.65313187 131.867136 9.61142125 132.035392 9.52587912 132.248187 9.4841685 132.416443 9.440337 132.673777 9.440337 132.883744 9.39862637 133.14037 9.35762271 133.394168 9.35762271 133.648674 9.31308425 134.581861 9.31308425 134.921201 9.35762271 135.216711 9.39862637 135.474044 9.440337 135.556758 9.4841685 135.684011 9.52587912 135.769553 9.57041758 135.896099 9.61142125 136.065062 9.69696337 136.236147 9.86592674 136.362692 9.99247253 136.407231 10.0780147 136.489945 10.2498059 136.534484 10.3735238 136.575487 10.5446081 136.617198 10.7574029 136.617198 21.1490037 136.658201 21.2324249 136.70274 21.317967 136.744451 21.4445128 136.788282 21.4890513 136.873824 21.5717656 136.956538 21.616304 137.083791 21.6573077 139.372927 21.6573077 139.458469 21.616304 139.544011 21.5717656 139.63026 21.4890513 139.715802 21.4445128 139.756806 21.317967 139.756806 21.2324249 139.801344 21.1490037 139.801344 10.96737 139.756806 10.7135714 139.756806 10.4590659 139.715802 10.1635568 139.63026 9.95146886 139.588549 9.69696337 139.503007 9.4841685 139.417465 9.23036996 139.334751 9.01757509 139.246381 8.84649084 139.121956 8.63652381 138.994703 8.46543956 138.86533 8.29718315 138.52811 7.95713553 138.357026 7.78605128 138.185941 7.65879853 138.016978 7.53225275 137.80489 7.405 137.594923 7.27774725 137.33759 7.19220513 137.125502 7.06848718 136.873824 6.9822381 136.617198 6.89669597 136.362692 6.85569231 136.108894 6.77015018 135.813385 6.72561172 135.216711 6.64289744 134.880198 6.64289744 134.581861 6.59835897"></polygon>
                    <path d="M109.344106,22.1239011 L108.918516,22.1239011 L108.537465,22.0828974 L108.112582,22.038359 L107.775363,21.9973553 L107.391484,21.9118132 L107.052143,21.8283919 L106.714923,21.6990183 L106.372755,21.616304 L106.077245,21.4890513 L105.781736,21.317967 L105.483399,21.1490037 L105.18789,20.9779194 L104.931264,20.809663 L104.721297,20.5968681 L104.463963,20.3430696 L104.251875,20.1302747 L104.041908,19.8764762 L103.829114,19.6219707 L103.489066,19.0281245 L103.36252,18.7304945 L103.191436,18.4349853 L103.108015,18.0949377 L102.981469,17.7555971 L102.854216,17.3745458 L102.768674,17.0344982 L102.724136,16.6534469 L102.641421,16.2285641 L102.600418,15.8468059 L102.555879,15.4219231 L102.555879,13.6820952 L102.600418,13.2593333 L102.641421,12.8344505 L102.724136,12.4533993 L102.768674,12.072348 L102.854216,11.6912967 L103.36252,10.3325201 L103.489066,10.037011 L103.660857,9.73867399 L103.870824,9.4841685 L104.082912,9.1893663 L104.251875,8.93203297 L104.508502,8.7192381 L104.721297,8.46543956 L104.975095,8.25264469 L105.228894,8.08438828 L105.524403,7.91613187 L105.82274,7.74504762 L106.121077,7.57608425 L106.458297,7.44953846 L106.797637,7.31945788 L107.137685,7.19220513 L107.477026,7.10949084 L107.858077,7.06848718 L108.283667,6.9822381 L108.664718,6.93840659 L109.086773,6.93840659 L109.512363,6.89669597 L109.937952,6.93840659 L110.362835,6.93840659 L110.741059,6.9822381 L111.124938,7.06848718 L111.505989,7.10949084 L111.846037,7.19220513 L112.185377,7.31945788 L112.525425,7.44953846 L112.820934,7.57608425 L113.119271,7.703337 L113.41478,7.87159341 L113.671407,8.04267766 L113.922377,8.25264469 L114.179711,8.46543956 L114.433509,8.67823443 L114.646304,8.93203297 L114.856271,9.14482784 L115.027355,9.440337 L115.19844,9.69696337 L115.535659,10.2908095 L115.665033,10.6308571 L115.792286,10.9263663 L115.916711,11.3102454 L116.002253,11.6467582 L116.087795,12.0278095 L116.173337,12.4116886 L116.214341,12.7927399 L116.258879,13.2183297 L116.30059,13.599381 L116.341593,14.0659744 L116.341593,14.913619 L116.30059,15.336381 L116.258879,15.7612637 L116.214341,16.142315 L116.173337,16.5679048 L116.087795,16.948956 L116.002253,17.2890037 L115.875,17.6700549 L115.792286,18.0093956 L115.665033,18.3494432 L115.493949,18.6470733 L115.325692,18.984293 L115.153901,19.2409194 L114.982817,19.5364286 L114.77285,19.7909341 L114.560762,20.0447326 L114.347967,20.301359 L114.093462,20.511326 L113.839663,20.7679524 L113.585864,20.9369158 L113.328531,21.1051722 L113.033022,21.2762564 L112.693681,21.4445128 L112.398172,21.5717656 L112.058832,21.6990183 L111.718784,21.8283919 L111.337733,21.9118132 L110.998392,21.9973553 L110.614513,22.038359 L110.191751,22.0828974 L109.766161,22.1239011 L109.344106,22.1239011 Z M109.470652,9.31308425 L109.045769,9.31308425 L108.835802,9.35762271 L108.664718,9.39862637 L108.451923,9.440337 L108.283667,9.4841685 L108.070872,9.57041758 L107.902615,9.61142125 L107.730824,9.69696337 L107.55974,9.77967766 L107.391484,9.9069304 L107.223227,10.037011 L107.095974,10.1197253 L106.965894,10.2908095 L106.797637,10.4180623 L106.670385,10.5863187 L106.543839,10.7135714 L106.416586,10.9263663 L106.331044,11.0974505 L106.203791,11.3102454 L106.121077,11.4785018 L106.035535,11.6912967 L105.949993,11.9450952 L105.864451,12.1578901 L105.781736,12.6654872 L105.696194,12.9609963 L105.654484,13.2183297 L105.654484,13.5138388 L105.609945,13.809348 L105.609945,15.4219231 L105.654484,15.7202601 L105.696194,16.0157692 L105.737198,16.2695678 L105.82274,16.5261941 L105.864451,16.8217033 L105.949993,17.0344982 L106.035535,17.2890037 L106.121077,17.5010916 L106.203791,17.7138864 L106.331044,17.8821429 L106.416586,18.0949377 L106.543839,18.2631941 L106.670385,18.4349853 L106.797637,18.6032418 L106.92489,18.7304945 L107.095974,18.8570403 L107.223227,18.984293 L107.391484,19.1115458 L107.55974,19.1970879 L107.689821,19.28263 L107.902615,19.3681722 L108.070872,19.4508864 L108.241956,19.4954249 L108.451923,19.5781392 L108.620179,19.6219707 L108.835802,19.6219707 L109.045769,19.6636813 L109.896242,19.6636813 L110.064498,19.6219707 L110.277293,19.6219707 L110.445549,19.5781392 L110.658344,19.4954249 L110.826601,19.4508864 L111.505989,19.1115458 L111.674952,18.984293 L111.801498,18.8570403 L111.931579,18.7304945 L112.058832,18.6032418 L112.185377,18.4349853 L112.31263,18.2631941 L112.439883,18.0949377 L112.525425,17.8821429 L112.651971,17.7138864 L112.820934,17.2890037 L112.861938,17.0344982 L112.94748,16.8217033 L113.033022,16.5261941 L113.119271,16.0157692 L113.160275,15.7202601 L113.204813,15.4219231 L113.204813,13.5138388 L113.160275,13.2183297 L113.033022,12.4533993 L112.861938,11.9450952 L112.779223,11.7323004 L112.610967,11.3102454 L112.525425,11.0974505 L112.398172,10.9263663 L112.31263,10.7574029 L112.185377,10.5863187 L112.058832,10.4180623 L111.931579,10.2908095 L111.801498,10.1635568 L111.633242,10.037011 L111.505989,9.9069304 L111.337733,9.82421612 L111.166648,9.69696337 L110.998392,9.65313187 L110.658344,9.4841685 L110.445549,9.440337 L110.277293,9.39862637 L110.064498,9.35762271 L109.896242,9.31308425 L109.470652,9.31308425 Z" id="Combined-Shape"></path>
                    <polygon id="Path" points="101.49544 20.3840733 101.156099 20.6385788 100.775048 20.8513736 100.435 21.0224579 100.095659 21.2324249 99.7584396 21.3617985 99.4190989 21.4890513 99.1207619 21.616304 98.7807143 21.7428498 98.4413736 21.8283919 98.101326 21.9118132 97.8058168 21.9556447 97.1264286 22.038359 96.7870879 22.0828974 95.5583919 22.0828974 95.0500879 22.038359 94.5834945 21.9973553 94.1169011 21.9118132 93.6474799 21.8283919 93.2247179 21.6990183 92.7991282 21.5307619 92.3770733 21.3617985 91.996022 21.1907143 91.6121429 20.9779194 91.2749231 20.7679524 90.891044 20.4703223 90.592707 20.2158168 90.2971978 19.9174799 89.9988608 19.6219707 89.7033516 19.28263 89.4495531 18.9015788 89.1957546 18.5176996 88.9829597 18.1366484 88.55737 17.2890037 88.3891136 16.8217033 88.2208571 16.3141062 88.0936044 15.8468059 87.836978 14.7425348 87.7542637 14.1932271 87.6687216 13.599381 87.627011 13.0055348 87.5414689 11.7323004 87.5414689 10.6718608 87.5824725 10.2052674 87.5824725 9.73867399 87.627011 9.31308425 87.6687216 8.84649084 87.7542637 8.37989744 87.7952674 7.95713553 87.8779817 7.49054212 88.0080623 7.06848718 88.135315 6.59835897 88.2618608 6.17630403 88.3891136 5.75071429 88.55737 5.32865934 88.7291612 4.9030696 88.9384212 4.52201832 89.1957546 4.09642857 89.4057216 3.71537729 89.662348 3.37603663 89.9578571 3.03598901 90.2561941 2.69664835 90.9355824 2.1028022 91.3166337 1.80729304 91.697685 1.59449817 92.1197399 1.34069963 92.5870403 1.16961538 93.0564615 1.00065201 93.5640586 0.829567766 94.0723626 0.74685348 94.6662088 0.661311355 95.2183443 0.575769231 96.2377802 0.575769231 96.5771209 0.619600733 97.3392234 0.705849817 97.6792711 0.788564103 98.0603223 0.829567766 98.4413736 0.956820513 98.7807143 1.04236264 99.1207619 1.16961538 99.5018132 1.29616117 99.8411538 1.46795238 100.181201 1.63620879 100.479538 1.80729304 100.818879 1.97554945 101.114388 2.18834432 101.412725 2.40113919 101.539978 2.48385348 101.622692 2.5693956 101.663696 2.65493773 101.708234 2.69664835 101.708234 2.78219048 101.749945 2.82672894 101.749945 2.90944322 101.708234 2.95044689 101.708234 2.99498535 101.663696 3.12153114 101.580982 3.24878388 100.435 4.77581685 100.393996 4.81752747 100.352286 4.86135897 100.307747 4.9030696 99.9684066 4.9030696 99.8856923 4.86135897 99.7584396 4.81752747 99.6728974 4.77581685 99.2918462 4.52201832 98.8662564 4.26821978 98.6541685 4.13813919 98.399663 4.01088645 98.1868681 3.8871685 97.9747802 3.80091941 97.7648132 3.71537729 97.5081868 3.62983516 97.2982198 3.54429304 97.0408864 3.50328938 96.5332894 3.41704029 96.2787839 3.37603663 95.7266484 3.37603663 95.4311392 3.41704029 94.9200073 3.50328938 94.4124103 3.67437363 94.1579048 3.75708791 93.9041062 3.84263004 93.6913114 3.96988278 93.4785165 4.13813919 93.2247179 4.26821978 92.6308718 4.86135897 92.4626154 5.07132601 92.2915311 5.28412088 92.0787363 5.53791941 91.9514835 5.79525275 91.7832271 6.04905128 91.6121429 6.34456044 91.4848901 6.64289744 91.4021758 6.9822381 91.2749231 7.27774725 91.1455495 7.65879853 91.0593004 7.99884615 90.9765861 8.37989744 90.9355824 8.76377656 90.891044 9.1893663 90.8083297 9.61142125 90.8083297 10.037011 90.7637912 10.5007766 90.7637912 11.4785018 90.8083297 12.0278095 90.8083297 12.4944029 90.891044 12.9609963 90.9355824 13.4282967 91.0182967 13.8948901 91.1038388 14.3197729 91.189381 14.7008242 91.3166337 15.0818755 91.4431795 15.4657546 91.697685 16.142315 91.8687692 16.440652 92.0370256 16.7361612 92.205989 17.0344982 92.3770733 17.2890037 92.5870403 17.5428022 93.0119231 17.967685 93.2247179 18.1366484 93.4375128 18.3494432 93.6913114 18.5176996 94.1996154 18.774326 94.4562418 18.9015788 94.9645458 19.0698352 95.2600549 19.1115458 95.5583919 19.1970879 95.8121905 19.2409194 97.0408864 19.2409194 97.4664762 19.1553773 97.6792711 19.1115458 97.8892381 19.0698352 98.101326 18.984293 98.2731172 18.9015788 98.4823773 18.8570403 98.698 18.7304945 98.907967 18.6470733 99.1207619 18.5176996 99.3745604 18.3904469 99.5873553 18.2631941 99.8001502 18.0949377 99.8856923 18.0511062 100.010117 17.967685 100.136663 17.9238535 100.222205 17.8821429 100.393996 17.8821429 100.435 17.9238535 100.520542 17.9238535 100.603256 18.0093956 100.647795 18.0949377 101.708234 19.4954249 101.793777 19.6219707 101.835487 19.7492234 101.879319 19.7909341 101.879319 20.003022 101.835487 20.0447326 101.835487 20.0885641 101.793777 20.1719853 101.708234 20.2158168 101.663696 20.2575275 101.580982 20.301359"></polygon>
                    <polygon id="Path" points="84.3156117 1.16961538 84.3156117 1.0869011 84.2746081 1.00065201 84.2300696 0.91510989 84.1890659 0.829567766 84.0201026 0.74685348 83.9345604 0.74685348 83.8080147 0.705849817 81.8992234 0.705849817 81.7726777 0.74685348 81.6871355 0.74685348 81.5598828 0.788564103 81.5153443 0.829567766 81.43263 0.91510989 81.3470879 1.0869011 81.3470879 21.2324249 81.3916264 21.317967 81.43263 21.4445128 81.5153443 21.4890513 81.5598828 21.5717656 81.6871355 21.616304 81.7726777 21.6573077 83.9345604 21.6573077 84.0201026 21.616304 84.1035238 21.5717656 84.1890659 21.4890513 84.2300696 21.4445128 84.2746081 21.317967 84.3156117 21.2324249"></polygon>
                    <path d="M65.5260366,14.405315 L65.5260366,13.2593333 L65.5677473,13.0055348 L65.6087509,12.7071978 L65.6087509,12.4116886 L65.6532894,12.1133516 L65.7388315,11.8178425 L65.7805421,11.4785018 L65.8660842,11.1801648 L65.9516264,10.8846557 L66.0760513,10.5446081 L66.2025971,10.2498059 L66.3326777,9.9069304 L66.5009341,9.61142125 L66.7137289,9.31308425 L66.8848132,9.01757509 L67.1364908,8.7192381 L67.3931172,8.46543956 L67.6886264,8.21164103 L67.9869634,7.99884615 L68.3234762,7.74504762 L68.6663516,7.57608425 L69.0884066,7.36328938 L69.5139963,7.23674359 L69.9805897,7.10949084 L70.4443553,6.9822381 L70.9971978,6.89669597 L71.5493333,6.85569231 L72.6507766,6.85569231 L73.5846703,6.93840659 L74.4351429,7.10949084 L74.8161941,7.23674359 L75.152707,7.36328938 L75.451044,7.53225275 L75.7465531,7.703337 L76.0448901,7.87159341 L76.2993956,8.08438828 L76.5114835,8.29718315 L76.765989,8.50997802 L76.9370733,8.7192381 L77.1053297,8.97657143 L77.2735861,9.27208059 L77.4036667,9.52587912 L77.5719231,9.82421612 L77.6574652,10.1197253 L77.7847179,10.4180623 L77.8674322,10.7135714 L77.9119707,11.0119084 L77.9975128,11.3512491 L78.0385165,11.6912967 L78.0830549,12.0278095 L78.1247656,12.3261465 L78.1247656,12.6654872 L78.1657692,13.0055348 L78.2103077,13.6820952 L78.2103077,15.336381 L78.1657692,15.4219231 L78.1247656,15.5074652 L78.0385165,15.5930073 L77.9975128,15.6757216 L77.9119707,15.7202601 L77.8264286,15.7202601 L77.6991758,15.7612637 L68.6663516,15.7612637 L68.6663516,15.8468059 L68.7073553,16.1868535 L68.7490659,16.4823626 L68.8346081,16.8217033 L68.9201502,17.1200403 L68.9618608,17.2890037 L69.0056923,17.4155495 L69.0884066,17.5866337 L69.1329451,17.7138864 L69.2156593,17.8411392 L69.25737,17.967685 L69.3429121,18.0949377 L69.555,18.3077326 L69.6412491,18.4349853 L69.7677949,18.5176996 L69.8950476,18.6470733 L70.0223004,18.7304945 L70.1488462,18.8160366 L70.3178095,18.9015788 L70.4888938,18.984293 L70.8282344,19.0698352 L71.0410293,19.1115458 L71.2092857,19.1970879 L71.4220806,19.1970879 L71.6758791,19.2409194 L73.4574176,19.2409194 L74.0512637,19.1970879 L74.6033993,19.1553773 L75.152707,19.1115458 L75.6638388,19.0281245 L76.2131465,18.9425824 L76.765989,18.8570403 L76.8925348,18.8160366 L77.064326,18.8160366 L77.1053297,18.8570403 L77.1908718,18.8570403 L77.2325824,18.9015788 L77.2735861,18.9015788 L77.3598352,18.984293 L77.4036667,19.0281245 L77.4036667,19.0698352 L77.4453773,19.1115458 L77.4892088,19.1970879 L77.4892088,20.8952051 L77.4453773,20.9779194 L77.4453773,21.0224579 L77.4036667,21.1051722 L77.3598352,21.1490037 L77.3181245,21.2324249 L77.2325824,21.2324249 L77.1498681,21.2762564 L76.8515311,21.3617985 L76.5114835,21.4445128 L76.2131465,21.5307619 L75.9176374,21.616304 L75.6200073,21.6573077 L75.3683297,21.6990183 L74.7716557,21.7845604 L74.4761465,21.8283919 L74.1785165,21.8283919 L73.8412967,21.8701026 L73.5429597,21.8701026 L72.8635714,21.9118132 L71.5493333,21.9118132 L70.9971978,21.8701026 L70.4443553,21.7845604 L69.9805897,21.6573077 L69.5139963,21.5307619 L69.0884066,21.4035092 L68.6663516,21.1907143 L68.3234762,21.0224579 L67.9869634,20.7679524 L67.6886264,20.5558645 L67.3931172,20.301359 L67.1364908,20.0447326 L66.8848132,19.7492234 L66.7137289,19.4508864 L66.5009341,19.1553773 L66.3326777,18.8570403 L66.2025971,18.5176996 L66.0760513,18.2221905 L65.9516264,17.8821429 L65.8660842,17.5866337 L65.7805421,17.2890037 L65.7388315,16.948956 L65.6532894,16.6534469 L65.6087509,16.3551099 L65.6087509,16.0596007 L65.5677473,15.7612637 L65.5260366,15.5074652 L65.5260366,14.405315 Z M68.6663516,13.1327875 L68.6663516,13.2183297 L75.1117033,13.2183297 L75.0699927,13.1327875 L75.0699927,12.2844359 L74.9844505,11.9005568 L74.9434469,11.5195055 L74.9017363,11.3929597 L74.8571978,11.2239963 L74.8161941,11.0529121 L74.7716557,10.9263663 L74.730652,10.7991136 L74.6451099,10.6718608 L74.6033993,10.5446081 L74.5178571,10.4180623 L74.4351429,10.2908095 L74.2640586,10.1197253 L74.1368059,10.037011 L73.7557546,9.77967766 L73.625674,9.73867399 L73.4574176,9.69696337 L73.3301648,9.65313187 L73.1619084,9.61142125 L72.9491136,9.57041758 L72.7808571,9.52587912 L71.6348755,9.52587912 L71.4220806,9.57041758 L70.9971978,9.65313187 L70.7872308,9.69696337 L70.6154396,9.73867399 L70.4443553,9.82421612 L70.2760989,9.9069304 L70.1488462,9.99247253 L69.9805897,10.0780147 L69.8505092,10.1635568 L69.7267912,10.2908095 L69.6412491,10.3735238 L69.5139963,10.5007766 L69.4284542,10.6308571 L69.25737,10.8846557 L69.1739487,11.0119084 L69.0884066,11.1384542 L69.0474029,11.3102454 L68.9618608,11.4785018 L68.9201502,11.6050476 L68.8763187,11.774011 L68.7900696,12.072348 L68.7073553,12.7517363 L68.6663516,13.1327875 Z" id="Combined-Shape"></path>
                    <path d="M57.1252344,21.7845604 L56.658641,21.7845604 L56.448674,21.7428498 L56.1948755,21.7428498 L55.2616886,21.5717656 L54.7950952,21.4890513 L54.3695055,21.3617985 L53.9439158,21.2324249 L53.5218608,21.1051722 L53.5218608,27.3405568 L53.4773223,27.3850952 L53.4773223,27.4678095 L53.3946081,27.511641 L53.3507766,27.5533516 L53.2673553,27.5533516 L53.1408095,27.5950623 L50.7625971,27.5950623 L50.6388791,27.6388938 L50.553337,27.5950623 L50.5116264,27.5950623 L50.4260842,27.511641 L50.4260842,27.4678095 L50.3815458,27.3850952 L50.3815458,8.29718315 L50.4260842,7.78605128 L50.4260842,7.15120147 L50.4670879,7.06848718 L50.5116264,7.02394872 L50.5943407,6.9822381 L50.6798828,6.89669597 L52.2069158,6.89669597 L52.290337,6.93840659 L52.3341685,6.93840659 L52.3758791,6.9822381 L52.4614212,7.06848718 L52.5024249,7.15120147 L52.6742161,7.44953846 L52.8424725,7.83058974 L53.1408095,7.703337 L53.4363187,7.57608425 L53.7346557,7.44953846 L54.3277949,7.27774725 L54.623304,7.19220513 L54.921641,7.15120147 L55.1761465,7.10949084 L55.7692857,7.02394872 L56.0237912,6.9822381 L56.3221282,6.93840659 L56.8742637,6.93840659 L57.4235714,6.89669597 L57.7190806,6.93840659 L58.061956,6.93840659 L58.3574652,6.9822381 L58.6112637,7.02394872 L58.9096007,7.10949084 L59.1633993,7.19220513 L59.4617363,7.27774725 L59.7134139,7.36328938 L59.9700403,7.49054212 L60.1828352,7.61779487 L60.3928022,7.78605128 L60.6494286,7.95713553 L60.8593956,8.12892674 L61.2432747,8.50997802 L61.4115311,8.7192381 L61.5826154,8.97657143 L61.7508718,9.23036996 L61.8781245,9.4841685 L62.046381,9.73867399 L62.1764615,10.037011 L62.3037143,10.3325201 L62.3864286,10.6718608 L62.5136813,11.0119084 L62.5992234,11.3512491 L62.6430549,11.6912967 L62.7257692,12.072348 L62.7703077,12.4533993 L62.8113114,12.8344505 L62.853022,13.2593333 L62.853022,15.0408718 L62.8113114,15.4657546 L62.7703077,15.8885165 L62.7257692,16.3141062 L62.6430549,16.6951575 L62.4719707,17.4572601 L62.3864286,17.7966007 L62.2591758,18.1366484 L62.1319231,18.4349853 L61.9608388,18.7304945 L61.834293,19.0281245 L61.6653297,19.3236337 L61.4970733,19.5781392 L61.325989,19.8347656 L61.116022,20.0885641 L60.9449377,20.301359 L60.7321429,20.511326 L60.5221758,20.6824103 L60.011044,21.0224579 L59.798956,21.1490037 L59.5034469,21.2762564 L59.2461136,21.4035092 L58.9951429,21.4890513 L58.6968059,21.616304 L58.1029597,21.6990183 L57.763619,21.7428498 L57.4681099,21.7845604 L57.1252344,21.7845604 Z M56.8297253,9.27208059 L55.9410769,9.27208059 L55.4716557,9.35762271 L55.0488938,9.39862637 L54.623304,9.4841685 L54.4550476,9.57041758 L54.2422527,9.61142125 L54.0739963,9.69696337 L53.8612015,9.73867399 L53.6929451,9.82421612 L53.5218608,9.9069304 L53.5218608,18.6887839 L53.9884542,18.8570403 L54.4112161,19.0281245 L54.7950952,19.1115458 L55.1761465,19.2409194 L55.5154872,19.28263 L55.8138242,19.3236337 L56.151044,19.3681722 L56.9159744,19.3681722 L57.1252344,19.3236337 L57.2970256,19.3236337 L57.5091136,19.28263 L57.8491612,19.1970879 L58.0174176,19.1115458 L58.185674,19.0698352 L58.3157546,18.984293 L58.484011,18.9015788 L58.6112637,18.774326 L58.7385165,18.6887839 L58.8650623,18.5615311 L58.9951429,18.4349853 L59.0778571,18.2631941 L59.2051099,18.1366484 L59.3761941,17.7966007 L59.4617363,17.5866337 L59.5444505,17.4155495 L59.6299927,17.2027546 L59.7134139,16.6951575 L59.798956,16.440652 L59.798956,16.1868535 L59.8399597,15.8885165 L59.8844982,15.6347179 L59.8844982,15.2946703 L59.9255018,14.9553297 L59.9255018,13.3448755 L59.8844982,13.0472454 L59.8844982,12.7927399 L59.7134139,11.774011 L59.6299927,11.5612161 L59.588989,11.3512491 L59.5034469,11.1384542 L59.4179048,10.96737 L59.2461136,10.6308571 L59.1633993,10.4590659 L59.0778571,10.2908095 L58.9506044,10.1635568 L58.8650623,10.037011 L58.7385165,9.9069304 L58.6112637,9.82421612 L58.484011,9.69696337 L58.3574652,9.61142125 L58.185674,9.52587912 L58.061956,9.4841685 L57.8901648,9.39862637 L57.7190806,9.35762271 L57.5508242,9.31308425 L57.3825678,9.27208059 L56.8297253,9.27208059 Z" id="Combined-Shape"></path>
                    <polygon id="Path" points="41.4759744 6.59835897 41.218641 6.59835897 40.9676703 6.64289744 40.711044 6.64289744 40.5010769 6.68460806 40.2027399 6.72561172 39.9489414 6.77015018 39.6916081 6.85569231 39.4406374 6.89669597 39.184011 6.9822381 38.675707 7.15120147 38.4212015 7.23674359 37.9136044 7.49054212 37.6562711 7.61779487 37.4024725 7.74504762 36.8531648 8.12892674 36.5102894 7.78605128 36.3003223 7.61779487 36.0882344 7.49054212 35.8337289 7.31945788 35.5799304 7.19220513 35.323304 7.10949084 35.0716264 6.9822381 34.7732894 6.89669597 34.4749524 6.85569231 34.1794432 6.77015018 33.8401026 6.72561172 33.1607143 6.64289744 32.779663 6.59835897 32.1419853 6.59835897 31.8903077 6.64289744 31.6336813 6.64289744 31.1253773 6.72561172 30.8715788 6.77015018 30.6142454 6.85569231 30.4049853 6.89669597 30.147652 6.9822381 29.6400549 7.15120147 29.3855495 7.23674359 28.3696484 7.74504762 28.2423956 7.83058974 28.0267729 7.19220513 27.9857692 7.15120147 27.9440586 7.06848718 27.9002271 7.02394872 27.8168059 6.9822381 27.7312637 6.93840659 27.6902601 6.89669597 26.2487692 6.89669597 26.1215165 6.93840659 26.0359744 6.9822381 25.9504322 7.02394872 25.8648901 7.19220513 25.8231795 7.27774725 25.8231795 21.2324249 25.8648901 21.317967 25.9058938 21.4445128 26.0359744 21.5717656 26.1215165 21.616304 26.2487692 21.6573077 28.5379048 21.6573077 28.6234469 21.616304 28.708989 21.5717656 28.7917033 21.4890513 28.8772454 21.4445128 28.918956 21.317967 28.9606667 21.2324249 28.9606667 10.037011 29.0462088 9.99247253 29.3445458 9.82421612 29.6838864 9.69696337 30.0211062 9.61142125 30.2331941 9.52587912 30.4049853 9.4841685 30.6142454 9.440337 30.8298681 9.440337 31.0398352 9.39862637 31.2936337 9.35762271 31.550967 9.35762271 31.8047656 9.31308425 32.779663 9.31308425 33.078 9.35762271 33.3735092 9.39862637 33.6273077 9.440337 33.7545604 9.4841685 33.8818132 9.52587912 33.9673553 9.57041758 34.0528974 9.61142125 34.2211538 9.69696337 34.306696 9.73867399 34.5604945 9.99247253 34.605033 10.0780147 34.6877473 10.2498059 34.7322857 10.3735238 34.7732894 10.5446081 34.815 10.7574029 34.815 21.1490037 34.8560037 21.2324249 34.8560037 21.317967 34.9422527 21.4445128 35.0716264 21.5717656 35.1543407 21.616304 35.2815934 21.6573077 37.5707289 21.6573077 37.7008095 21.616304 37.7863516 21.5717656 37.9136044 21.4445128 37.9963187 21.317967 37.9963187 21.2324249 38.0373223 21.1490037 38.0373223 10.037011 38.0818608 9.99247253 38.4212015 9.82421612 38.7167106 9.69696337 38.8885018 9.65313187 39.0977619 9.61142125 39.2695531 9.52587912 39.481641 9.4841685 39.6916081 9.440337 39.9072308 9.440337 40.1171978 9.39862637 40.3738242 9.35762271 40.6255018 9.35762271 40.8821282 9.31308425 41.8570256 9.31308425 42.1963663 9.35762271 42.7046703 9.440337 42.8319231 9.4841685 42.9174652 9.52587912 43.044011 9.57041758 43.2158022 9.65313187 43.2985165 9.69696337 43.3840586 9.73867399 43.4257692 9.82421612 43.5113114 9.86592674 43.5551429 9.95146886 43.6378571 9.99247253 43.6823956 10.0780147 43.7233993 10.2498059 43.8068205 10.3735238 43.850652 10.5446081 43.8923626 10.7574029 43.8923626 21.2324249 43.9333663 21.317967 43.9779048 21.4445128 44.0634469 21.4890513 44.148989 21.5717656 44.2317033 21.616304 44.3172454 21.6573077 46.6070879 21.6573077 46.69263 21.616304 46.8191758 21.5717656 46.8637143 21.4890513 46.9464286 21.4445128 46.9881392 21.317967 47.0319707 21.2324249 47.0319707 10.7135714 46.9881392 10.4590659 46.9464286 10.1635568 46.9047179 9.95146886 46.8637143 9.69696337 46.7781722 9.4841685 46.69263 9.23036996 46.6070879 9.01757509 46.4798352 8.84649084 46.3525824 8.63652381 46.2253297 8.46543956 45.9715311 8.12892674 45.6321905 7.78605128 45.4603993 7.65879853 45.2511392 7.53225275 44.8255495 7.27774725 44.6155824 7.19220513 44.358956 7.06848718 44.148989 6.9822381 43.8923626 6.89669597 43.6378571 6.85569231 43.3395201 6.77015018 43.0885495 6.72561172 42.746381 6.68460806 42.4508718 6.64289744 42.1553626 6.64289744 41.8124872 6.59835897"></polygon>
                    <path d="M21.9214689,7.405 L21.9214689,21.2324249 L21.8797582,21.317967 L21.8352198,21.4445128 L21.7496777,21.4890513 L21.6641355,21.5717656 L21.4958791,21.6573077 L19.2477473,21.6573077 L19.165033,21.616304 L19.0356593,21.5717656 L18.9939487,21.4890513 L18.9084066,21.4445128 L18.866696,21.317967 L18.8256923,21.2324249 L18.8256923,7.31945788 L18.866696,7.23674359 L18.9084066,7.15120147 L18.9939487,7.06848718 L19.0356593,6.9822381 L19.165033,6.93840659 L19.2477473,6.93840659 L19.375,6.89669597 L21.3686264,6.89669597 L21.4958791,6.93840659 L21.5814212,6.93840659 L21.6641355,6.9822381 L21.7496777,7.06848718 L21.8352198,7.15120147 L21.8797582,7.23674359 L21.9214689,7.31945788 L21.9214689,7.405 Z M18.568359,2.35660073 L18.568359,2.18834432 L18.6128974,2.01726007 L18.6539011,1.84900366 L18.6984396,1.68004029 L18.7811538,1.55349451 L18.866696,1.42341392 L18.9939487,1.29616117 L19.0794908,1.16961538 L19.2067436,1.04236264 L19.375,0.956820513 L19.5022527,0.874106227 L19.673337,0.788564103 L20.0098498,0.705849817 L20.7337766,0.705849817 L21.0702894,0.788564103 L21.2420806,0.874106227 L21.3686264,0.956820513 L21.4958791,1.04236264 L21.7496777,1.29616117 L21.8352198,1.42341392 L21.9624725,1.55349451 L22.007011,1.68004029 L22.0897253,1.84900366 L22.1307289,2.01726007 L22.1307289,2.69664835 L22.0897253,2.82672894 L22.007011,2.99498535 L21.9624725,3.12153114 L21.8352198,3.29049451 L21.7496777,3.41704029 L21.6231319,3.50328938 L21.4958791,3.62983516 L21.2420806,3.80091941 L21.0702894,3.84263004 L20.902033,3.92817216 L20.7337766,3.96988278 L20.0098498,3.96988278 L19.8415934,3.92817216 L19.673337,3.84263004 L19.5022527,3.80091941 L19.375,3.71537729 L19.2067436,3.62983516 L18.866696,3.29049451 L18.7811538,3.12153114 L18.6984396,2.99498535 L18.6539011,2.82672894 L18.6128974,2.69664835 L18.568359,2.52839194 L18.568359,2.35660073 Z" id="Combined-Shape"></path>
                    <polygon id="Path" points="16.1519707 1.25515751 16.110967 1.16961538 16.110967 1.04236264 16.0254249 0.956820513 15.9837143 0.874106227 15.8981722 0.829567766 15.81263 0.74685348 15.6853773 0.74685348 15.6443736 0.705849817 13.2661612 0.705849817 13.2251575 0.74685348 13.1396154 0.74685348 13.0123626 0.829567766 12.9296484 0.874106227 12.8851099 0.956820513 12.8023956 1.04236264 12.8023956 1.16961538 12.7585641 1.25515751 12.7168535 1.42341392 12.5867729 1.93454579 12.3775128 2.69664835 12.0791758 3.71537729 11.741956 4.9030696 11.3580769 6.21730769 10.9770256 7.65879853 10.5521429 9.14482784 10.129381 10.6308571 9.70379121 12.072348 9.32273993 13.4282967 8.98339927 14.6598205 8.68789011 15.7612637 8.47509524 16.6096154 8.30401099 17.1617509 8.2212967 17.4572601 8.13575458 17.0344982 7.96396337 16.3968205 7.71016484 15.4657546 7.41465568 14.3614835 7.07531502 13.0882491 6.6914359 11.7323004 6.31038462 10.2908095 5.88762271 8.84649084 5.50657143 7.36328938 5.08098168 5.96350916 4.74164103 4.69027473 4.40159341 3.54429304 4.14779487 2.5693956 3.935 1.80729304 3.80774725 1.34069963 3.76674359 1.16961538 3.72220513 1.16961538 3.68120147 1.0869011 3.636663 1.00065201 3.55394872 0.91510989 3.51011722 0.829567766 3.42669597 0.788564103 3.34115385 0.74685348 3.25843956 0.74685348 3.12906593 0.705849817 0.880934066 0.705849817 0.839223443 0.74685348 0.712677656 0.74685348 0.626428571 0.829567766 0.499882784 0.874106227 0.414340659 1.04236264 0.372630037 1.16961538 0.328798535 1.25515751 0.499882784 1.76628938 0.499882784 1.80729304 0.540886447 1.89000733 0.540886447 1.93454579 0.585424908 2.01726007 6.14142125 21.1490037 6.18313187 21.2762564 6.22413553 21.3617985 6.22413553 21.4035092 6.31038462 21.4890513 6.48146886 21.4890513 6.60801465 21.5307619 9.78933333 21.5307619 9.91658608 21.4890513 9.99930037 21.4890513 10.0848425 21.4445128 10.1703846 21.3617985 10.2149231 21.2762564 10.2566337 21.1490037 15.9837143 1.97554945 15.9837143 1.89000733 16.0254249 1.76628938"></polygon>
                </g>
            </g>
            <g id="VimpelCom-Colorful" transform="translate(9.000000, 10.000000)">
                <g id="Logo">
                    <mask id="mask-4" fill="white">
                        <use xlink:href="#path-3"></use>
                    </mask>
                    <g id="Clip-3"></g>
                    <path d="M45.4799995,21.3565458 C45.4799995,32.9881538 35.3012233,42.4189963 22.7385859,42.4189963 C10.1816041,42.4189963 0,32.9881538 0,21.3565458 C0,9.72493773 10.1816041,0.294095238 22.7385859,0.294095238 C35.3012233,0.294095238 45.4799995,9.72493773 45.4799995,21.3565458" id="Fill-2" fill="#000000" mask="url(#mask-4)"></path>
                    <path d="M0.704131868,16.1427179 L44.776,16.1427179 C43.7572711,12.4283516 41.6689121,9.10917582 38.8389524,6.47999267 L6.64400733,6.47999267 C3.81121978,9.10917582 1.72356777,12.4283516 0.704131868,16.1427179" id="Fill-5" fill="#FFCA36" mask="url(#mask-4)"></path>
                    <path d="M0.673732601,26.4516044 C1.6019707,29.9121722 3.45491209,33.0348132 5.9759304,35.5841099 L39.5042015,35.5841099 C42.0280476,33.0348132 43.8781612,29.9121722 44.8063993,26.4516044 L0.673732601,26.4516044 Z" id="Fill-6" fill="#FFCA36" mask="url(#mask-4)"></path>
                </g>
                <g id="Name" transform="translate(54.000000, 9.000000)" fill="#CCCC99">
                    <polygon id="Path" points="134.241813 6.59835897 133.988015 6.59835897 133.734216 6.64289744 133.476883 6.64289744 133.225912 6.68460806 132.969286 6.72561172 132.71478 6.77015018 132.460982 6.85569231 132.207183 6.89669597 131.94985 6.9822381 131.698879 7.06848718 131.442253 7.15120147 131.187747 7.23674359 130.171846 7.74504762 129.619004 8.12892674 129.450747 7.95713553 129.279663 7.78605128 129.066868 7.61779487 128.854073 7.49054212 128.600275 7.31945788 128.346476 7.19220513 128.091971 7.10949084 127.838172 6.9822381 127.539835 6.89669597 127.244326 6.85569231 126.945989 6.77015018 126.606648 6.72561172 126.269429 6.68460806 125.930088 6.64289744 125.546209 6.59835897 124.910652 6.59835897 124.656853 6.64289744 124.400227 6.64289744 124.148549 6.68460806 123.891923 6.72561172 123.637418 6.77015018 123.383619 6.85569231 123.129821 6.89669597 122.872487 6.9822381 122.663227 7.06848718 122.405894 7.15120147 122.154923 7.23674359 121.898297 7.36328938 121.135487 7.74504762 121.049945 7.83058974 120.796147 7.19220513 120.751608 7.15120147 120.710604 7.06848718 120.62789 7.02394872 120.583352 6.9822381 120.500637 6.93840659 120.415095 6.89669597 119.014608 6.89669597 118.888062 6.93840659 118.80252 6.9822381 118.716978 7.02394872 118.630729 7.10949084 118.589725 7.19220513 118.548015 7.27774725 118.548015 21.2324249 118.589725 21.317967 118.630729 21.4445128 118.716978 21.4890513 118.80252 21.5717656 118.888062 21.616304 119.014608 21.6573077 121.26274 21.6573077 121.389993 21.616304 121.475535 21.5717656 121.561077 21.4890513 121.602788 21.4445128 121.68833 21.317967 121.68833 10.037011 122.110385 9.82421612 122.450432 9.69696337 122.621516 9.65313187 122.789773 9.61142125 122.958736 9.52587912 123.170824 9.4841685 123.383619 9.440337 123.596414 9.440337 123.809209 9.39862637 124.063007 9.35762271 124.316806 9.35762271 124.571311 9.31308425 125.546209 9.31308425 125.844546 9.35762271 126.140055 9.39862637 126.396681 9.440337 126.521106 9.4841685 126.606648 9.52587912 126.733194 9.57041758 126.818736 9.61142125 127.073242 9.73867399 127.114245 9.82421612 127.200495 9.86592674 127.244326 9.95146886 127.286037 9.99247253 127.329868 10.0780147 127.412582 10.2498059 127.498125 10.3735238 127.539835 10.5446081 127.539835 10.7574029 127.581546 10.9263663 127.581546 21.2324249 127.625377 21.317967 127.667088 21.4445128 127.75263 21.4890513 127.838172 21.5717656 128.006429 21.6573077 130.340103 21.6573077 130.467355 21.616304 130.552897 21.5717656 130.63844 21.4890513 130.679443 21.4445128 130.721154 21.317967 130.762864 21.2324249 130.762864 10.037011 130.848407 9.99247253 131.146744 9.82421612 131.486084 9.69696337 131.654341 9.65313187 131.867136 9.61142125 132.035392 9.52587912 132.248187 9.4841685 132.416443 9.440337 132.673777 9.440337 132.883744 9.39862637 133.14037 9.35762271 133.394168 9.35762271 133.648674 9.31308425 134.581861 9.31308425 134.921201 9.35762271 135.216711 9.39862637 135.474044 9.440337 135.556758 9.4841685 135.684011 9.52587912 135.769553 9.57041758 135.896099 9.61142125 136.065062 9.69696337 136.236147 9.86592674 136.362692 9.99247253 136.407231 10.0780147 136.489945 10.2498059 136.534484 10.3735238 136.575487 10.5446081 136.617198 10.7574029 136.617198 21.1490037 136.658201 21.2324249 136.70274 21.317967 136.744451 21.4445128 136.788282 21.4890513 136.873824 21.5717656 136.956538 21.616304 137.083791 21.6573077 139.372927 21.6573077 139.458469 21.616304 139.544011 21.5717656 139.63026 21.4890513 139.715802 21.4445128 139.756806 21.317967 139.756806 21.2324249 139.801344 21.1490037 139.801344 10.96737 139.756806 10.7135714 139.756806 10.4590659 139.715802 10.1635568 139.63026 9.95146886 139.588549 9.69696337 139.503007 9.4841685 139.417465 9.23036996 139.334751 9.01757509 139.246381 8.84649084 139.121956 8.63652381 138.994703 8.46543956 138.86533 8.29718315 138.52811 7.95713553 138.357026 7.78605128 138.185941 7.65879853 138.016978 7.53225275 137.80489 7.405 137.594923 7.27774725 137.33759 7.19220513 137.125502 7.06848718 136.873824 6.9822381 136.617198 6.89669597 136.362692 6.85569231 136.108894 6.77015018 135.813385 6.72561172 135.216711 6.64289744 134.880198 6.64289744 134.581861 6.59835897"></polygon>
                    <path d="M109.344106,22.1239011 L108.918516,22.1239011 L108.537465,22.0828974 L108.112582,22.038359 L107.775363,21.9973553 L107.391484,21.9118132 L107.052143,21.8283919 L106.714923,21.6990183 L106.372755,21.616304 L106.077245,21.4890513 L105.781736,21.317967 L105.483399,21.1490037 L105.18789,20.9779194 L104.931264,20.809663 L104.721297,20.5968681 L104.463963,20.3430696 L104.251875,20.1302747 L104.041908,19.8764762 L103.829114,19.6219707 L103.489066,19.0281245 L103.36252,18.7304945 L103.191436,18.4349853 L103.108015,18.0949377 L102.981469,17.7555971 L102.854216,17.3745458 L102.768674,17.0344982 L102.724136,16.6534469 L102.641421,16.2285641 L102.600418,15.8468059 L102.555879,15.4219231 L102.555879,13.6820952 L102.600418,13.2593333 L102.641421,12.8344505 L102.724136,12.4533993 L102.768674,12.072348 L102.854216,11.6912967 L103.36252,10.3325201 L103.489066,10.037011 L103.660857,9.73867399 L103.870824,9.4841685 L104.082912,9.1893663 L104.251875,8.93203297 L104.508502,8.7192381 L104.721297,8.46543956 L104.975095,8.25264469 L105.228894,8.08438828 L105.524403,7.91613187 L105.82274,7.74504762 L106.121077,7.57608425 L106.458297,7.44953846 L106.797637,7.31945788 L107.137685,7.19220513 L107.477026,7.10949084 L107.858077,7.06848718 L108.283667,6.9822381 L108.664718,6.93840659 L109.086773,6.93840659 L109.512363,6.89669597 L109.937952,6.93840659 L110.362835,6.93840659 L110.741059,6.9822381 L111.124938,7.06848718 L111.505989,7.10949084 L111.846037,7.19220513 L112.185377,7.31945788 L112.525425,7.44953846 L112.820934,7.57608425 L113.119271,7.703337 L113.41478,7.87159341 L113.671407,8.04267766 L113.922377,8.25264469 L114.179711,8.46543956 L114.433509,8.67823443 L114.646304,8.93203297 L114.856271,9.14482784 L115.027355,9.440337 L115.19844,9.69696337 L115.535659,10.2908095 L115.665033,10.6308571 L115.792286,10.9263663 L115.916711,11.3102454 L116.002253,11.6467582 L116.087795,12.0278095 L116.173337,12.4116886 L116.214341,12.7927399 L116.258879,13.2183297 L116.30059,13.599381 L116.341593,14.0659744 L116.341593,14.913619 L116.30059,15.336381 L116.258879,15.7612637 L116.214341,16.142315 L116.173337,16.5679048 L116.087795,16.948956 L116.002253,17.2890037 L115.875,17.6700549 L115.792286,18.0093956 L115.665033,18.3494432 L115.493949,18.6470733 L115.325692,18.984293 L115.153901,19.2409194 L114.982817,19.5364286 L114.77285,19.7909341 L114.560762,20.0447326 L114.347967,20.301359 L114.093462,20.511326 L113.839663,20.7679524 L113.585864,20.9369158 L113.328531,21.1051722 L113.033022,21.2762564 L112.693681,21.4445128 L112.398172,21.5717656 L112.058832,21.6990183 L111.718784,21.8283919 L111.337733,21.9118132 L110.998392,21.9973553 L110.614513,22.038359 L110.191751,22.0828974 L109.766161,22.1239011 L109.344106,22.1239011 Z M109.470652,9.31308425 L109.045769,9.31308425 L108.835802,9.35762271 L108.664718,9.39862637 L108.451923,9.440337 L108.283667,9.4841685 L108.070872,9.57041758 L107.902615,9.61142125 L107.730824,9.69696337 L107.55974,9.77967766 L107.391484,9.9069304 L107.223227,10.037011 L107.095974,10.1197253 L106.965894,10.2908095 L106.797637,10.4180623 L106.670385,10.5863187 L106.543839,10.7135714 L106.416586,10.9263663 L106.331044,11.0974505 L106.203791,11.3102454 L106.121077,11.4785018 L106.035535,11.6912967 L105.949993,11.9450952 L105.864451,12.1578901 L105.781736,12.6654872 L105.696194,12.9609963 L105.654484,13.2183297 L105.654484,13.5138388 L105.609945,13.809348 L105.609945,15.4219231 L105.654484,15.7202601 L105.696194,16.0157692 L105.737198,16.2695678 L105.82274,16.5261941 L105.864451,16.8217033 L105.949993,17.0344982 L106.035535,17.2890037 L106.121077,17.5010916 L106.203791,17.7138864 L106.331044,17.8821429 L106.416586,18.0949377 L106.543839,18.2631941 L106.670385,18.4349853 L106.797637,18.6032418 L106.92489,18.7304945 L107.095974,18.8570403 L107.223227,18.984293 L107.391484,19.1115458 L107.55974,19.1970879 L107.689821,19.28263 L107.902615,19.3681722 L108.070872,19.4508864 L108.241956,19.4954249 L108.451923,19.5781392 L108.620179,19.6219707 L108.835802,19.6219707 L109.045769,19.6636813 L109.896242,19.6636813 L110.064498,19.6219707 L110.277293,19.6219707 L110.445549,19.5781392 L110.658344,19.4954249 L110.826601,19.4508864 L111.505989,19.1115458 L111.674952,18.984293 L111.801498,18.8570403 L111.931579,18.7304945 L112.058832,18.6032418 L112.185377,18.4349853 L112.31263,18.2631941 L112.439883,18.0949377 L112.525425,17.8821429 L112.651971,17.7138864 L112.820934,17.2890037 L112.861938,17.0344982 L112.94748,16.8217033 L113.033022,16.5261941 L113.119271,16.0157692 L113.160275,15.7202601 L113.204813,15.4219231 L113.204813,13.5138388 L113.160275,13.2183297 L113.033022,12.4533993 L112.861938,11.9450952 L112.779223,11.7323004 L112.610967,11.3102454 L112.525425,11.0974505 L112.398172,10.9263663 L112.31263,10.7574029 L112.185377,10.5863187 L112.058832,10.4180623 L111.931579,10.2908095 L111.801498,10.1635568 L111.633242,10.037011 L111.505989,9.9069304 L111.337733,9.82421612 L111.166648,9.69696337 L110.998392,9.65313187 L110.658344,9.4841685 L110.445549,9.440337 L110.277293,9.39862637 L110.064498,9.35762271 L109.896242,9.31308425 L109.470652,9.31308425 Z" id="Combined-Shape"></path>
                    <polygon id="Path" points="101.49544 20.3840733 101.156099 20.6385788 100.775048 20.8513736 100.435 21.0224579 100.095659 21.2324249 99.7584396 21.3617985 99.4190989 21.4890513 99.1207619 21.616304 98.7807143 21.7428498 98.4413736 21.8283919 98.101326 21.9118132 97.8058168 21.9556447 97.1264286 22.038359 96.7870879 22.0828974 95.5583919 22.0828974 95.0500879 22.038359 94.5834945 21.9973553 94.1169011 21.9118132 93.6474799 21.8283919 93.2247179 21.6990183 92.7991282 21.5307619 92.3770733 21.3617985 91.996022 21.1907143 91.6121429 20.9779194 91.2749231 20.7679524 90.891044 20.4703223 90.592707 20.2158168 90.2971978 19.9174799 89.9988608 19.6219707 89.7033516 19.28263 89.4495531 18.9015788 89.1957546 18.5176996 88.9829597 18.1366484 88.55737 17.2890037 88.3891136 16.8217033 88.2208571 16.3141062 88.0936044 15.8468059 87.836978 14.7425348 87.7542637 14.1932271 87.6687216 13.599381 87.627011 13.0055348 87.5414689 11.7323004 87.5414689 10.6718608 87.5824725 10.2052674 87.5824725 9.73867399 87.627011 9.31308425 87.6687216 8.84649084 87.7542637 8.37989744 87.7952674 7.95713553 87.8779817 7.49054212 88.0080623 7.06848718 88.135315 6.59835897 88.2618608 6.17630403 88.3891136 5.75071429 88.55737 5.32865934 88.7291612 4.9030696 88.9384212 4.52201832 89.1957546 4.09642857 89.4057216 3.71537729 89.662348 3.37603663 89.9578571 3.03598901 90.2561941 2.69664835 90.9355824 2.1028022 91.3166337 1.80729304 91.697685 1.59449817 92.1197399 1.34069963 92.5870403 1.16961538 93.0564615 1.00065201 93.5640586 0.829567766 94.0723626 0.74685348 94.6662088 0.661311355 95.2183443 0.575769231 96.2377802 0.575769231 96.5771209 0.619600733 97.3392234 0.705849817 97.6792711 0.788564103 98.0603223 0.829567766 98.4413736 0.956820513 98.7807143 1.04236264 99.1207619 1.16961538 99.5018132 1.29616117 99.8411538 1.46795238 100.181201 1.63620879 100.479538 1.80729304 100.818879 1.97554945 101.114388 2.18834432 101.412725 2.40113919 101.539978 2.48385348 101.622692 2.5693956 101.663696 2.65493773 101.708234 2.69664835 101.708234 2.78219048 101.749945 2.82672894 101.749945 2.90944322 101.708234 2.95044689 101.708234 2.99498535 101.663696 3.12153114 101.580982 3.24878388 100.435 4.77581685 100.393996 4.81752747 100.352286 4.86135897 100.307747 4.9030696 99.9684066 4.9030696 99.8856923 4.86135897 99.7584396 4.81752747 99.6728974 4.77581685 99.2918462 4.52201832 98.8662564 4.26821978 98.6541685 4.13813919 98.399663 4.01088645 98.1868681 3.8871685 97.9747802 3.80091941 97.7648132 3.71537729 97.5081868 3.62983516 97.2982198 3.54429304 97.0408864 3.50328938 96.5332894 3.41704029 96.2787839 3.37603663 95.7266484 3.37603663 95.4311392 3.41704029 94.9200073 3.50328938 94.4124103 3.67437363 94.1579048 3.75708791 93.9041062 3.84263004 93.6913114 3.96988278 93.4785165 4.13813919 93.2247179 4.26821978 92.6308718 4.86135897 92.4626154 5.07132601 92.2915311 5.28412088 92.0787363 5.53791941 91.9514835 5.79525275 91.7832271 6.04905128 91.6121429 6.34456044 91.4848901 6.64289744 91.4021758 6.9822381 91.2749231 7.27774725 91.1455495 7.65879853 91.0593004 7.99884615 90.9765861 8.37989744 90.9355824 8.76377656 90.891044 9.1893663 90.8083297 9.61142125 90.8083297 10.037011 90.7637912 10.5007766 90.7637912 11.4785018 90.8083297 12.0278095 90.8083297 12.4944029 90.891044 12.9609963 90.9355824 13.4282967 91.0182967 13.8948901 91.1038388 14.3197729 91.189381 14.7008242 91.3166337 15.0818755 91.4431795 15.4657546 91.697685 16.142315 91.8687692 16.440652 92.0370256 16.7361612 92.205989 17.0344982 92.3770733 17.2890037 92.5870403 17.5428022 93.0119231 17.967685 93.2247179 18.1366484 93.4375128 18.3494432 93.6913114 18.5176996 94.1996154 18.774326 94.4562418 18.9015788 94.9645458 19.0698352 95.2600549 19.1115458 95.5583919 19.1970879 95.8121905 19.2409194 97.0408864 19.2409194 97.4664762 19.1553773 97.6792711 19.1115458 97.8892381 19.0698352 98.101326 18.984293 98.2731172 18.9015788 98.4823773 18.8570403 98.698 18.7304945 98.907967 18.6470733 99.1207619 18.5176996 99.3745604 18.3904469 99.5873553 18.2631941 99.8001502 18.0949377 99.8856923 18.0511062 100.010117 17.967685 100.136663 17.9238535 100.222205 17.8821429 100.393996 17.8821429 100.435 17.9238535 100.520542 17.9238535 100.603256 18.0093956 100.647795 18.0949377 101.708234 19.4954249 101.793777 19.6219707 101.835487 19.7492234 101.879319 19.7909341 101.879319 20.003022 101.835487 20.0447326 101.835487 20.0885641 101.793777 20.1719853 101.708234 20.2158168 101.663696 20.2575275 101.580982 20.301359"></polygon>
                    <polygon id="Path" points="84.3156117 1.16961538 84.3156117 1.0869011 84.2746081 1.00065201 84.2300696 0.91510989 84.1890659 0.829567766 84.0201026 0.74685348 83.9345604 0.74685348 83.8080147 0.705849817 81.8992234 0.705849817 81.7726777 0.74685348 81.6871355 0.74685348 81.5598828 0.788564103 81.5153443 0.829567766 81.43263 0.91510989 81.3470879 1.0869011 81.3470879 21.2324249 81.3916264 21.317967 81.43263 21.4445128 81.5153443 21.4890513 81.5598828 21.5717656 81.6871355 21.616304 81.7726777 21.6573077 83.9345604 21.6573077 84.0201026 21.616304 84.1035238 21.5717656 84.1890659 21.4890513 84.2300696 21.4445128 84.2746081 21.317967 84.3156117 21.2324249"></polygon>
                    <path d="M65.5260366,14.405315 L65.5260366,13.2593333 L65.5677473,13.0055348 L65.6087509,12.7071978 L65.6087509,12.4116886 L65.6532894,12.1133516 L65.7388315,11.8178425 L65.7805421,11.4785018 L65.8660842,11.1801648 L65.9516264,10.8846557 L66.0760513,10.5446081 L66.2025971,10.2498059 L66.3326777,9.9069304 L66.5009341,9.61142125 L66.7137289,9.31308425 L66.8848132,9.01757509 L67.1364908,8.7192381 L67.3931172,8.46543956 L67.6886264,8.21164103 L67.9869634,7.99884615 L68.3234762,7.74504762 L68.6663516,7.57608425 L69.0884066,7.36328938 L69.5139963,7.23674359 L69.9805897,7.10949084 L70.4443553,6.9822381 L70.9971978,6.89669597 L71.5493333,6.85569231 L72.6507766,6.85569231 L73.5846703,6.93840659 L74.4351429,7.10949084 L74.8161941,7.23674359 L75.152707,7.36328938 L75.451044,7.53225275 L75.7465531,7.703337 L76.0448901,7.87159341 L76.2993956,8.08438828 L76.5114835,8.29718315 L76.765989,8.50997802 L76.9370733,8.7192381 L77.1053297,8.97657143 L77.2735861,9.27208059 L77.4036667,9.52587912 L77.5719231,9.82421612 L77.6574652,10.1197253 L77.7847179,10.4180623 L77.8674322,10.7135714 L77.9119707,11.0119084 L77.9975128,11.3512491 L78.0385165,11.6912967 L78.0830549,12.0278095 L78.1247656,12.3261465 L78.1247656,12.6654872 L78.1657692,13.0055348 L78.2103077,13.6820952 L78.2103077,15.336381 L78.1657692,15.4219231 L78.1247656,15.5074652 L78.0385165,15.5930073 L77.9975128,15.6757216 L77.9119707,15.7202601 L77.8264286,15.7202601 L77.6991758,15.7612637 L68.6663516,15.7612637 L68.6663516,15.8468059 L68.7073553,16.1868535 L68.7490659,16.4823626 L68.8346081,16.8217033 L68.9201502,17.1200403 L68.9618608,17.2890037 L69.0056923,17.4155495 L69.0884066,17.5866337 L69.1329451,17.7138864 L69.2156593,17.8411392 L69.25737,17.967685 L69.3429121,18.0949377 L69.555,18.3077326 L69.6412491,18.4349853 L69.7677949,18.5176996 L69.8950476,18.6470733 L70.0223004,18.7304945 L70.1488462,18.8160366 L70.3178095,18.9015788 L70.4888938,18.984293 L70.8282344,19.0698352 L71.0410293,19.1115458 L71.2092857,19.1970879 L71.4220806,19.1970879 L71.6758791,19.2409194 L73.4574176,19.2409194 L74.0512637,19.1970879 L74.6033993,19.1553773 L75.152707,19.1115458 L75.6638388,19.0281245 L76.2131465,18.9425824 L76.765989,18.8570403 L76.8925348,18.8160366 L77.064326,18.8160366 L77.1053297,18.8570403 L77.1908718,18.8570403 L77.2325824,18.9015788 L77.2735861,18.9015788 L77.3598352,18.984293 L77.4036667,19.0281245 L77.4036667,19.0698352 L77.4453773,19.1115458 L77.4892088,19.1970879 L77.4892088,20.8952051 L77.4453773,20.9779194 L77.4453773,21.0224579 L77.4036667,21.1051722 L77.3598352,21.1490037 L77.3181245,21.2324249 L77.2325824,21.2324249 L77.1498681,21.2762564 L76.8515311,21.3617985 L76.5114835,21.4445128 L76.2131465,21.5307619 L75.9176374,21.616304 L75.6200073,21.6573077 L75.3683297,21.6990183 L74.7716557,21.7845604 L74.4761465,21.8283919 L74.1785165,21.8283919 L73.8412967,21.8701026 L73.5429597,21.8701026 L72.8635714,21.9118132 L71.5493333,21.9118132 L70.9971978,21.8701026 L70.4443553,21.7845604 L69.9805897,21.6573077 L69.5139963,21.5307619 L69.0884066,21.4035092 L68.6663516,21.1907143 L68.3234762,21.0224579 L67.9869634,20.7679524 L67.6886264,20.5558645 L67.3931172,20.301359 L67.1364908,20.0447326 L66.8848132,19.7492234 L66.7137289,19.4508864 L66.5009341,19.1553773 L66.3326777,18.8570403 L66.2025971,18.5176996 L66.0760513,18.2221905 L65.9516264,17.8821429 L65.8660842,17.5866337 L65.7805421,17.2890037 L65.7388315,16.948956 L65.6532894,16.6534469 L65.6087509,16.3551099 L65.6087509,16.0596007 L65.5677473,15.7612637 L65.5260366,15.5074652 L65.5260366,14.405315 Z M68.6663516,13.1327875 L68.6663516,13.2183297 L75.1117033,13.2183297 L75.0699927,13.1327875 L75.0699927,12.2844359 L74.9844505,11.9005568 L74.9434469,11.5195055 L74.9017363,11.3929597 L74.8571978,11.2239963 L74.8161941,11.0529121 L74.7716557,10.9263663 L74.730652,10.7991136 L74.6451099,10.6718608 L74.6033993,10.5446081 L74.5178571,10.4180623 L74.4351429,10.2908095 L74.2640586,10.1197253 L74.1368059,10.037011 L73.7557546,9.77967766 L73.625674,9.73867399 L73.4574176,9.69696337 L73.3301648,9.65313187 L73.1619084,9.61142125 L72.9491136,9.57041758 L72.7808571,9.52587912 L71.6348755,9.52587912 L71.4220806,9.57041758 L70.9971978,9.65313187 L70.7872308,9.69696337 L70.6154396,9.73867399 L70.4443553,9.82421612 L70.2760989,9.9069304 L70.1488462,9.99247253 L69.9805897,10.0780147 L69.8505092,10.1635568 L69.7267912,10.2908095 L69.6412491,10.3735238 L69.5139963,10.5007766 L69.4284542,10.6308571 L69.25737,10.8846557 L69.1739487,11.0119084 L69.0884066,11.1384542 L69.0474029,11.3102454 L68.9618608,11.4785018 L68.9201502,11.6050476 L68.8763187,11.774011 L68.7900696,12.072348 L68.7073553,12.7517363 L68.6663516,13.1327875 Z" id="Combined-Shape"></path>
                    <path d="M57.1252344,21.7845604 L56.658641,21.7845604 L56.448674,21.7428498 L56.1948755,21.7428498 L55.2616886,21.5717656 L54.7950952,21.4890513 L54.3695055,21.3617985 L53.9439158,21.2324249 L53.5218608,21.1051722 L53.5218608,27.3405568 L53.4773223,27.3850952 L53.4773223,27.4678095 L53.3946081,27.511641 L53.3507766,27.5533516 L53.2673553,27.5533516 L53.1408095,27.5950623 L50.7625971,27.5950623 L50.6388791,27.6388938 L50.553337,27.5950623 L50.5116264,27.5950623 L50.4260842,27.511641 L50.4260842,27.4678095 L50.3815458,27.3850952 L50.3815458,8.29718315 L50.4260842,7.78605128 L50.4260842,7.15120147 L50.4670879,7.06848718 L50.5116264,7.02394872 L50.5943407,6.9822381 L50.6798828,6.89669597 L52.2069158,6.89669597 L52.290337,6.93840659 L52.3341685,6.93840659 L52.3758791,6.9822381 L52.4614212,7.06848718 L52.5024249,7.15120147 L52.6742161,7.44953846 L52.8424725,7.83058974 L53.1408095,7.703337 L53.4363187,7.57608425 L53.7346557,7.44953846 L54.3277949,7.27774725 L54.623304,7.19220513 L54.921641,7.15120147 L55.1761465,7.10949084 L55.7692857,7.02394872 L56.0237912,6.9822381 L56.3221282,6.93840659 L56.8742637,6.93840659 L57.4235714,6.89669597 L57.7190806,6.93840659 L58.061956,6.93840659 L58.3574652,6.9822381 L58.6112637,7.02394872 L58.9096007,7.10949084 L59.1633993,7.19220513 L59.4617363,7.27774725 L59.7134139,7.36328938 L59.9700403,7.49054212 L60.1828352,7.61779487 L60.3928022,7.78605128 L60.6494286,7.95713553 L60.8593956,8.12892674 L61.2432747,8.50997802 L61.4115311,8.7192381 L61.5826154,8.97657143 L61.7508718,9.23036996 L61.8781245,9.4841685 L62.046381,9.73867399 L62.1764615,10.037011 L62.3037143,10.3325201 L62.3864286,10.6718608 L62.5136813,11.0119084 L62.5992234,11.3512491 L62.6430549,11.6912967 L62.7257692,12.072348 L62.7703077,12.4533993 L62.8113114,12.8344505 L62.853022,13.2593333 L62.853022,15.0408718 L62.8113114,15.4657546 L62.7703077,15.8885165 L62.7257692,16.3141062 L62.6430549,16.6951575 L62.4719707,17.4572601 L62.3864286,17.7966007 L62.2591758,18.1366484 L62.1319231,18.4349853 L61.9608388,18.7304945 L61.834293,19.0281245 L61.6653297,19.3236337 L61.4970733,19.5781392 L61.325989,19.8347656 L61.116022,20.0885641 L60.9449377,20.301359 L60.7321429,20.511326 L60.5221758,20.6824103 L60.011044,21.0224579 L59.798956,21.1490037 L59.5034469,21.2762564 L59.2461136,21.4035092 L58.9951429,21.4890513 L58.6968059,21.616304 L58.1029597,21.6990183 L57.763619,21.7428498 L57.4681099,21.7845604 L57.1252344,21.7845604 Z M56.8297253,9.27208059 L55.9410769,9.27208059 L55.4716557,9.35762271 L55.0488938,9.39862637 L54.623304,9.4841685 L54.4550476,9.57041758 L54.2422527,9.61142125 L54.0739963,9.69696337 L53.8612015,9.73867399 L53.6929451,9.82421612 L53.5218608,9.9069304 L53.5218608,18.6887839 L53.9884542,18.8570403 L54.4112161,19.0281245 L54.7950952,19.1115458 L55.1761465,19.2409194 L55.5154872,19.28263 L55.8138242,19.3236337 L56.151044,19.3681722 L56.9159744,19.3681722 L57.1252344,19.3236337 L57.2970256,19.3236337 L57.5091136,19.28263 L57.8491612,19.1970879 L58.0174176,19.1115458 L58.185674,19.0698352 L58.3157546,18.984293 L58.484011,18.9015788 L58.6112637,18.774326 L58.7385165,18.6887839 L58.8650623,18.5615311 L58.9951429,18.4349853 L59.0778571,18.2631941 L59.2051099,18.1366484 L59.3761941,17.7966007 L59.4617363,17.5866337 L59.5444505,17.4155495 L59.6299927,17.2027546 L59.7134139,16.6951575 L59.798956,16.440652 L59.798956,16.1868535 L59.8399597,15.8885165 L59.8844982,15.6347179 L59.8844982,15.2946703 L59.9255018,14.9553297 L59.9255018,13.3448755 L59.8844982,13.0472454 L59.8844982,12.7927399 L59.7134139,11.774011 L59.6299927,11.5612161 L59.588989,11.3512491 L59.5034469,11.1384542 L59.4179048,10.96737 L59.2461136,10.6308571 L59.1633993,10.4590659 L59.0778571,10.2908095 L58.9506044,10.1635568 L58.8650623,10.037011 L58.7385165,9.9069304 L58.6112637,9.82421612 L58.484011,9.69696337 L58.3574652,9.61142125 L58.185674,9.52587912 L58.061956,9.4841685 L57.8901648,9.39862637 L57.7190806,9.35762271 L57.5508242,9.31308425 L57.3825678,9.27208059 L56.8297253,9.27208059 Z" id="Combined-Shape"></path>
                    <polygon id="Path" points="41.4759744 6.59835897 41.218641 6.59835897 40.9676703 6.64289744 40.711044 6.64289744 40.5010769 6.68460806 40.2027399 6.72561172 39.9489414 6.77015018 39.6916081 6.85569231 39.4406374 6.89669597 39.184011 6.9822381 38.675707 7.15120147 38.4212015 7.23674359 37.9136044 7.49054212 37.6562711 7.61779487 37.4024725 7.74504762 36.8531648 8.12892674 36.5102894 7.78605128 36.3003223 7.61779487 36.0882344 7.49054212 35.8337289 7.31945788 35.5799304 7.19220513 35.323304 7.10949084 35.0716264 6.9822381 34.7732894 6.89669597 34.4749524 6.85569231 34.1794432 6.77015018 33.8401026 6.72561172 33.1607143 6.64289744 32.779663 6.59835897 32.1419853 6.59835897 31.8903077 6.64289744 31.6336813 6.64289744 31.1253773 6.72561172 30.8715788 6.77015018 30.6142454 6.85569231 30.4049853 6.89669597 30.147652 6.9822381 29.6400549 7.15120147 29.3855495 7.23674359 28.3696484 7.74504762 28.2423956 7.83058974 28.0267729 7.19220513 27.9857692 7.15120147 27.9440586 7.06848718 27.9002271 7.02394872 27.8168059 6.9822381 27.7312637 6.93840659 27.6902601 6.89669597 26.2487692 6.89669597 26.1215165 6.93840659 26.0359744 6.9822381 25.9504322 7.02394872 25.8648901 7.19220513 25.8231795 7.27774725 25.8231795 21.2324249 25.8648901 21.317967 25.9058938 21.4445128 26.0359744 21.5717656 26.1215165 21.616304 26.2487692 21.6573077 28.5379048 21.6573077 28.6234469 21.616304 28.708989 21.5717656 28.7917033 21.4890513 28.8772454 21.4445128 28.918956 21.317967 28.9606667 21.2324249 28.9606667 10.037011 29.0462088 9.99247253 29.3445458 9.82421612 29.6838864 9.69696337 30.0211062 9.61142125 30.2331941 9.52587912 30.4049853 9.4841685 30.6142454 9.440337 30.8298681 9.440337 31.0398352 9.39862637 31.2936337 9.35762271 31.550967 9.35762271 31.8047656 9.31308425 32.779663 9.31308425 33.078 9.35762271 33.3735092 9.39862637 33.6273077 9.440337 33.7545604 9.4841685 33.8818132 9.52587912 33.9673553 9.57041758 34.0528974 9.61142125 34.2211538 9.69696337 34.306696 9.73867399 34.5604945 9.99247253 34.605033 10.0780147 34.6877473 10.2498059 34.7322857 10.3735238 34.7732894 10.5446081 34.815 10.7574029 34.815 21.1490037 34.8560037 21.2324249 34.8560037 21.317967 34.9422527 21.4445128 35.0716264 21.5717656 35.1543407 21.616304 35.2815934 21.6573077 37.5707289 21.6573077 37.7008095 21.616304 37.7863516 21.5717656 37.9136044 21.4445128 37.9963187 21.317967 37.9963187 21.2324249 38.0373223 21.1490037 38.0373223 10.037011 38.0818608 9.99247253 38.4212015 9.82421612 38.7167106 9.69696337 38.8885018 9.65313187 39.0977619 9.61142125 39.2695531 9.52587912 39.481641 9.4841685 39.6916081 9.440337 39.9072308 9.440337 40.1171978 9.39862637 40.3738242 9.35762271 40.6255018 9.35762271 40.8821282 9.31308425 41.8570256 9.31308425 42.1963663 9.35762271 42.7046703 9.440337 42.8319231 9.4841685 42.9174652 9.52587912 43.044011 9.57041758 43.2158022 9.65313187 43.2985165 9.69696337 43.3840586 9.73867399 43.4257692 9.82421612 43.5113114 9.86592674 43.5551429 9.95146886 43.6378571 9.99247253 43.6823956 10.0780147 43.7233993 10.2498059 43.8068205 10.3735238 43.850652 10.5446081 43.8923626 10.7574029 43.8923626 21.2324249 43.9333663 21.317967 43.9779048 21.4445128 44.0634469 21.4890513 44.148989 21.5717656 44.2317033 21.616304 44.3172454 21.6573077 46.6070879 21.6573077 46.69263 21.616304 46.8191758 21.5717656 46.8637143 21.4890513 46.9464286 21.4445128 46.9881392 21.317967 47.0319707 21.2324249 47.0319707 10.7135714 46.9881392 10.4590659 46.9464286 10.1635568 46.9047179 9.95146886 46.8637143 9.69696337 46.7781722 9.4841685 46.69263 9.23036996 46.6070879 9.01757509 46.4798352 8.84649084 46.3525824 8.63652381 46.2253297 8.46543956 45.9715311 8.12892674 45.6321905 7.78605128 45.4603993 7.65879853 45.2511392 7.53225275 44.8255495 7.27774725 44.6155824 7.19220513 44.358956 7.06848718 44.148989 6.9822381 43.8923626 6.89669597 43.6378571 6.85569231 43.3395201 6.77015018 43.0885495 6.72561172 42.746381 6.68460806 42.4508718 6.64289744 42.1553626 6.64289744 41.8124872 6.59835897"></polygon>
                    <path d="M21.9214689,7.405 L21.9214689,21.2324249 L21.8797582,21.317967 L21.8352198,21.4445128 L21.7496777,21.4890513 L21.6641355,21.5717656 L21.4958791,21.6573077 L19.2477473,21.6573077 L19.165033,21.616304 L19.0356593,21.5717656 L18.9939487,21.4890513 L18.9084066,21.4445128 L18.866696,21.317967 L18.8256923,21.2324249 L18.8256923,7.31945788 L18.866696,7.23674359 L18.9084066,7.15120147 L18.9939487,7.06848718 L19.0356593,6.9822381 L19.165033,6.93840659 L19.2477473,6.93840659 L19.375,6.89669597 L21.3686264,6.89669597 L21.4958791,6.93840659 L21.5814212,6.93840659 L21.6641355,6.9822381 L21.7496777,7.06848718 L21.8352198,7.15120147 L21.8797582,7.23674359 L21.9214689,7.31945788 L21.9214689,7.405 Z M18.568359,2.35660073 L18.568359,2.18834432 L18.6128974,2.01726007 L18.6539011,1.84900366 L18.6984396,1.68004029 L18.7811538,1.55349451 L18.866696,1.42341392 L18.9939487,1.29616117 L19.0794908,1.16961538 L19.2067436,1.04236264 L19.375,0.956820513 L19.5022527,0.874106227 L19.673337,0.788564103 L20.0098498,0.705849817 L20.7337766,0.705849817 L21.0702894,0.788564103 L21.2420806,0.874106227 L21.3686264,0.956820513 L21.4958791,1.04236264 L21.7496777,1.29616117 L21.8352198,1.42341392 L21.9624725,1.55349451 L22.007011,1.68004029 L22.0897253,1.84900366 L22.1307289,2.01726007 L22.1307289,2.69664835 L22.0897253,2.82672894 L22.007011,2.99498535 L21.9624725,3.12153114 L21.8352198,3.29049451 L21.7496777,3.41704029 L21.6231319,3.50328938 L21.4958791,3.62983516 L21.2420806,3.80091941 L21.0702894,3.84263004 L20.902033,3.92817216 L20.7337766,3.96988278 L20.0098498,3.96988278 L19.8415934,3.92817216 L19.673337,3.84263004 L19.5022527,3.80091941 L19.375,3.71537729 L19.2067436,3.62983516 L18.866696,3.29049451 L18.7811538,3.12153114 L18.6984396,2.99498535 L18.6539011,2.82672894 L18.6128974,2.69664835 L18.568359,2.52839194 L18.568359,2.35660073 Z" id="Combined-Shape"></path>
                    <polygon id="Path" points="16.1519707 1.25515751 16.110967 1.16961538 16.110967 1.04236264 16.0254249 0.956820513 15.9837143 0.874106227 15.8981722 0.829567766 15.81263 0.74685348 15.6853773 0.74685348 15.6443736 0.705849817 13.2661612 0.705849817 13.2251575 0.74685348 13.1396154 0.74685348 13.0123626 0.829567766 12.9296484 0.874106227 12.8851099 0.956820513 12.8023956 1.04236264 12.8023956 1.16961538 12.7585641 1.25515751 12.7168535 1.42341392 12.5867729 1.93454579 12.3775128 2.69664835 12.0791758 3.71537729 11.741956 4.9030696 11.3580769 6.21730769 10.9770256 7.65879853 10.5521429 9.14482784 10.129381 10.6308571 9.70379121 12.072348 9.32273993 13.4282967 8.98339927 14.6598205 8.68789011 15.7612637 8.47509524 16.6096154 8.30401099 17.1617509 8.2212967 17.4572601 8.13575458 17.0344982 7.96396337 16.3968205 7.71016484 15.4657546 7.41465568 14.3614835 7.07531502 13.0882491 6.6914359 11.7323004 6.31038462 10.2908095 5.88762271 8.84649084 5.50657143 7.36328938 5.08098168 5.96350916 4.74164103 4.69027473 4.40159341 3.54429304 4.14779487 2.5693956 3.935 1.80729304 3.80774725 1.34069963 3.76674359 1.16961538 3.72220513 1.16961538 3.68120147 1.0869011 3.636663 1.00065201 3.55394872 0.91510989 3.51011722 0.829567766 3.42669597 0.788564103 3.34115385 0.74685348 3.25843956 0.74685348 3.12906593 0.705849817 0.880934066 0.705849817 0.839223443 0.74685348 0.712677656 0.74685348 0.626428571 0.829567766 0.499882784 0.874106227 0.414340659 1.04236264 0.372630037 1.16961538 0.328798535 1.25515751 0.499882784 1.76628938 0.499882784 1.80729304 0.540886447 1.89000733 0.540886447 1.93454579 0.585424908 2.01726007 6.14142125 21.1490037 6.18313187 21.2762564 6.22413553 21.3617985 6.22413553 21.4035092 6.31038462 21.4890513 6.48146886 21.4890513 6.60801465 21.5307619 9.78933333 21.5307619 9.91658608 21.4890513 9.99930037 21.4890513 10.0848425 21.4445128 10.1703846 21.3617985 10.2149231 21.2762564 10.2566337 21.1490037 15.9837143 1.97554945 15.9837143 1.89000733 16.0254249 1.76628938"></polygon>
                </g>
            </g>
        </g>
    </g>
</svg>