<?xml version="1.0" encoding="UTF-8"?>
<svg width="212px" height="150px" viewBox="0 0 212 150" version="1.1" xmlns="http://www.w3.org/2000/svg" xmlns:xlink="http://www.w3.org/1999/xlink">
    <!-- Generator: Sketch 42 (36781) - http://www.bohemiancoding.com/sketch -->
    <title>logo-avito</title>
    <desc>Created with Sketch.</desc>
    <defs></defs>
    <g id="Logos" stroke="none" stroke-width="1" fill="none" fill-rule="evenodd">
        <g id="avito">
            <g id="Avito-Colorless" transform="translate(10.000000, 85.000000)" fill="#929292">
                <path d="M178.945447,40.4664255 C174.96017,40.4664255 171.725277,37.3037872 171.725277,33.4046809 C171.725277,29.5031489 174.96017,26.3385957 178.945447,26.3385957 C182.937872,26.3385957 186.166255,29.5031489 186.166255,33.4046809 C186.166255,37.3037872 182.937872,40.4664255 178.945447,40.4664255 M178.945447,19.5680426 C171.191149,19.5680426 164.899957,25.7251915 164.899957,33.3074043 C164.899957,40.8937021 171.191149,47.046766 178.945447,47.046766 C186.695787,47.046766 192.994511,40.8937021 192.994511,33.3074043 C192.994511,25.7251915 186.695787,19.5680426 178.945447,19.5680426" id="o"></path>
                <path d="M161.534298,26.0179149 L161.534298,20.2397872 L152.963106,20.2397872 L152.963106,13.0060851 L145.809702,13.0060851 L145.809702,20.2397872 L140.148766,20.2397872 L140.148766,26.0179149 L145.809702,26.0179149 L145.809702,37.2982979 C145.809702,43.1193191 148.723915,47.0019574 156.14617,47.0019574 C159.018894,47.0019574 161.534298,45.9552766 161.534298,45.9552766 L160.668511,40.2893617 C160.668511,40.2893617 159.257872,40.7071915 157.526426,40.7071915 C155.403064,40.7071915 152.963106,39.7967234 152.963106,36.8559574 L152.963106,26.0179149 L161.534298,26.0179149 Z" id="Fill-4"></path>
                <path d="M129.10366,46.4628511 L129.10366,20.2397872 L136.264596,20.2397872 L136.264596,46.4628511 L129.10366,46.4628511 Z M132.689617,17.1704681 C130.136936,17.1704681 128.073957,15.1069787 128.073957,12.5582553 C128.073957,10.013617 130.136936,7.94604255 132.689617,7.94604255 C135.234383,7.94604255 137.30183,10.013617 137.30183,12.5582553 C137.30183,15.1069787 135.234383,17.1704681 132.689617,17.1704681 Z" id="i"></path>
                <polygon id="Fill-2" points="118.961234 20.2397872 111.954 39.3188936 104.946128 20.2397872 97.7897872 20.2397872 107.427574 46.4628511 116.479915 46.4628511 126.114638 20.2397872"></polygon>
                <path d="M78.7719574,33.3463404 L83.2125957,21.2735745 L87.647234,33.3463404 L78.7719574,33.3463404 Z M92.4629362,46.4628511 L100.080128,46.4628511 L85.9702979,8.05225532 L80.4474894,8.05225532 L66.3371489,46.4628511 L73.956766,46.4628511 L76.6470638,39.1339149 L89.7631915,39.1339149 L92.4629362,46.4628511 Z" id="A"></path>
                <g id="Logo">
                    <path d="M54.2822553,39.7164255 C54.2822553,47.8173191 47.712766,54.3827234 39.6118723,54.3827234 C31.5144255,54.3827234 24.9509362,47.8173191 24.9509362,39.7164255 C24.9509362,31.6150213 31.5144255,25.0474468 39.6118723,25.0474468 C47.712766,25.0474468 54.2822553,31.6150213 54.2822553,39.7164255" id="Fill-10"></path>
                    <path d="M18.8886383,39.7164255 C18.8886383,43.488766 15.828766,46.541234 12.0583404,46.541234 C8.28740426,46.541234 5.22753191,43.488766 5.22753191,39.7164255 C5.22753191,35.9434468 8.28740426,32.891617 12.0583404,32.891617 C15.828766,32.891617 18.8886383,35.9434468 18.8886383,39.7164255" id="Fill-12"></path>
                    <path d="M49.0561277,12.1574043 C49.0561277,17.3719149 44.8284255,21.6016596 39.6118723,21.6016596 C34.4027234,21.6016596 30.1750213,17.3719149 30.1750213,12.1574043 C30.1750213,6.94429787 34.4027234,2.718 39.6118723,2.718 C44.8284255,2.718 49.0561277,6.94429787 49.0561277,12.1574043" id="Fill-11"></path>
                    <path d="M24.113234,12.1548921 C24.113234,18.8136155 18.7170638,24.2132325 12.0583404,24.2132325 C5.39961702,24.2132325 0,18.8136155 0,12.1548921 C0,5.49757294 5.39961702,0.0999984741 12.0583404,0.0999984741 C18.7170638,0.0999984741 24.113234,5.49757294 24.113234,12.1548921" id="Fill-8"></path>
                </g>
            </g>
            <g id="Avito-Colorful" transform="translate(10.000000, 10.000000)">
                <path d="M178.945447,40.4664255 C174.96017,40.4664255 171.725277,37.3037872 171.725277,33.4046809 C171.725277,29.5031489 174.96017,26.3385957 178.945447,26.3385957 C182.937872,26.3385957 186.166255,29.5031489 186.166255,33.4046809 C186.166255,37.3037872 182.937872,40.4664255 178.945447,40.4664255 M178.945447,19.5680426 C171.191149,19.5680426 164.899957,25.7251915 164.899957,33.3074043 C164.899957,40.8937021 171.191149,47.046766 178.945447,47.046766 C186.695787,47.046766 192.994511,40.8937021 192.994511,33.3074043 C192.994511,25.7251915 186.695787,19.5680426 178.945447,19.5680426" id="o" fill="#CCCC99"></path>
                <path d="M161.534298,26.0179149 L161.534298,20.2397872 L152.963106,20.2397872 L152.963106,13.0060851 L145.809702,13.0060851 L145.809702,20.2397872 L140.148766,20.2397872 L140.148766,26.0179149 L145.809702,26.0179149 L145.809702,37.2982979 C145.809702,43.1193191 148.723915,47.0019574 156.14617,47.0019574 C159.018894,47.0019574 161.534298,45.9552766 161.534298,45.9552766 L160.668511,40.2893617 C160.668511,40.2893617 159.257872,40.7071915 157.526426,40.7071915 C155.403064,40.7071915 152.963106,39.7967234 152.963106,36.8559574 L152.963106,26.0179149 L161.534298,26.0179149 Z" id="Fill-4" fill="#CCCC99"></path>
                <path d="M129.10366,46.4628511 L129.10366,20.2397872 L136.264596,20.2397872 L136.264596,46.4628511 L129.10366,46.4628511 Z M132.689617,17.1704681 C130.136936,17.1704681 128.073957,15.1069787 128.073957,12.5582553 C128.073957,10.013617 130.136936,7.94604255 132.689617,7.94604255 C135.234383,7.94604255 137.30183,10.013617 137.30183,12.5582553 C137.30183,15.1069787 135.234383,17.1704681 132.689617,17.1704681 Z" id="i" fill="#CCCC99"></path>
                <polygon id="Fill-2" fill="#CCCC99" points="118.961234 20.2397872 111.954 39.3188936 104.946128 20.2397872 97.7897872 20.2397872 107.427574 46.4628511 116.479915 46.4628511 126.114638 20.2397872"></polygon>
                <path d="M78.7719574,33.3463404 L83.2125957,21.2735745 L87.647234,33.3463404 L78.7719574,33.3463404 Z M92.4629362,46.4628511 L100.080128,46.4628511 L85.9702979,8.05225532 L80.4474894,8.05225532 L66.3371489,46.4628511 L73.956766,46.4628511 L76.6470638,39.1339149 L89.7631915,39.1339149 L92.4629362,46.4628511 Z" id="A" fill="#CCCC99"></path>
                <g id="Logo">
                    <path d="M54.2822553,39.7164255 C54.2822553,47.8173191 47.712766,54.3827234 39.6118723,54.3827234 C31.5144255,54.3827234 24.9509362,47.8173191 24.9509362,39.7164255 C24.9509362,31.6150213 31.5144255,25.0474468 39.6118723,25.0474468 C47.712766,25.0474468 54.2822553,31.6150213 54.2822553,39.7164255" id="Fill-10" fill="#97CF26"></path>
                    <path d="M18.8886383,39.7164255 C18.8886383,43.488766 15.828766,46.541234 12.0583404,46.541234 C8.28740426,46.541234 5.22753191,43.488766 5.22753191,39.7164255 C5.22753191,35.9434468 8.28740426,32.891617 12.0583404,32.891617 C15.828766,32.891617 18.8886383,35.9434468 18.8886383,39.7164255" id="Fill-12" fill="#A169F8"></path>
                    <path d="M49.0561277,12.1574043 C49.0561277,17.3719149 44.8284255,21.6016596 39.6118723,21.6016596 C34.4027234,21.6016596 30.1750213,17.3719149 30.1750213,12.1574043 C30.1750213,6.94429787 34.4027234,2.718 39.6118723,2.718 C44.8284255,2.718 49.0561277,6.94429787 49.0561277,12.1574043" id="Fill-11" fill="#FF6163"></path>
                    <path d="M24.113234,12.1574043 C24.113234,18.8161277 18.7170638,24.2157447 12.0583404,24.2157447 C5.39961702,24.2157447 0,18.8161277 0,12.1574043 C0,5.50008511 5.39961702,0.102510638 12.0583404,0.102510638 C18.7170638,0.102510638 24.113234,5.50008511 24.113234,12.1574043" id="Fill-8" fill="#00AAFF"></path>
                </g>
            </g>
        </g>
    </g>
</svg>