<svg width="223" height="52" viewBox="0 0 223 52" fill="none" xmlns="http://www.w3.org/2000/svg">
<path fill-rule="evenodd" clip-rule="evenodd" d="M19.4378 8.42704C22.3964 6.72227 23.8756 5.86988 25.5 5.86988C27.1244 5.86988 28.6036 6.72227 31.5622 8.42704L37.2878 11.7263C40.2464 13.431 41.7256 14.2834 42.5378 15.6874C43.35 17.0914 43.35 18.7961 43.35 22.2057V28.8041C43.35 32.2136 43.35 33.9184 42.5378 35.3224C41.7256 36.7264 40.2464 37.5787 37.2878 39.2835L31.5621 42.5828C28.6037 44.2875 27.1243 45.1399 25.5 45.1399C23.8757 45.1399 22.3963 44.2875 19.4378 42.5827L13.7122 39.2835C10.7536 37.5787 9.27435 36.7264 8.46218 35.3224C7.65 33.9184 7.65 32.2136 7.65 28.8041V22.2057C7.65 18.7961 7.65 17.0914 8.46218 15.6874C9.27435 14.2834 10.7536 13.431 13.7122 11.7263L19.4378 8.42704ZM18.105 18.6199C17.6825 18.6199 17.34 18.9624 17.34 19.3849V22.086C17.34 22.5085 17.6825 22.851 18.105 22.851H22.6194C23.0419 22.851 23.3844 23.1935 23.3844 23.616V34.1749C23.3844 34.5974 23.7269 34.9399 24.1494 34.9399H26.8506C27.2731 34.9399 27.6156 34.5974 27.6156 34.1749V23.616C27.6156 23.1935 27.9581 22.851 28.3806 22.851H32.895C33.3175 22.851 33.66 22.5085 33.66 22.086V19.3849C33.66 18.9624 33.3175 18.6199 32.895 18.6199H18.105Z" fill="white"/>
<path fill-rule="evenodd" clip-rule="evenodd" d="M0 24.2508C0 12.8212 0 7.10634 3.55073 3.55561C7.10146 0.00488281 12.8163 0.00488281 24.2459 0.00488281H26.7541C38.1837 0.00488281 43.8985 0.00488281 47.4493 3.55561C51 7.10634 51 12.8212 51 24.2508V26.759C51 38.1886 51 43.9034 47.4493 47.4542C43.8985 51.0049 38.1837 51.0049 26.7541 51.0049H24.2459C12.8163 51.0049 7.10146 51.0049 3.55073 47.4542C0 43.9034 0 38.1886 0 26.759V24.2508ZM24.2459 1.53488H26.7541C32.5122 1.53488 36.6768 1.53813 39.8524 1.96508C42.984 2.38611 44.9237 3.19378 46.3674 4.63749C47.8111 6.08119 48.6188 8.02089 49.0398 11.1525C49.4668 14.3281 49.47 18.4927 49.47 24.2508V26.759C49.47 32.517 49.4668 36.6817 49.0398 39.8573C48.6188 42.9889 47.8111 44.9286 46.3674 46.3723C44.9237 47.816 42.984 48.6236 39.8524 49.0447C36.6768 49.4716 32.5122 49.4749 26.7541 49.4749H24.2459C18.4878 49.4749 14.3232 49.4716 11.1476 49.0447C8.01601 48.6236 6.07631 47.816 4.6326 46.3723C3.18889 44.9286 2.38123 42.9889 1.9602 39.8573C1.53325 36.6817 1.53 32.517 1.53 26.759V24.2508C1.53 18.4927 1.53325 14.3281 1.9602 11.1525C2.38123 8.02089 3.18889 6.08119 4.6326 4.63749C6.07631 3.19378 8.01601 2.38611 11.1476 1.96508C14.3232 1.53813 18.4878 1.53488 24.2459 1.53488Z" fill="white"/>
<path d="M81.1049 38.5099H76.8821V17.5718H68.4365V13.7009H89.5505V17.5718H81.1049V38.5099Z" fill="white"/>
<path d="M96.1489 19.8592C98.4949 19.8592 100.337 20.5982 101.674 22.0761C103.034 23.5307 103.715 25.5834 103.715 28.2344V38.5099H100.724L99.8791 35.6243C99.3629 36.4923 98.6005 37.2548 97.5917 37.9117C96.5829 38.5451 95.3865 38.8618 94.0023 38.8618C92.7824 38.8618 91.6798 38.6154 90.6945 38.1228C89.7326 37.6301 88.9819 36.9381 88.4423 36.0466C87.9027 35.1551 87.6329 34.1463 87.6329 33.0202C87.6329 31.2842 88.3133 29.9001 89.674 28.8678C91.0581 27.8121 93.0639 27.2843 95.6915 27.2843H99.6327C99.5389 26.0643 99.1635 25.1025 98.5067 24.3987C97.8732 23.6714 97.0169 23.3078 95.9378 23.3078C95.0698 23.3078 94.319 23.5189 93.6856 23.9412C93.0522 24.3635 92.583 24.8796 92.278 25.4896L88.5479 24.8562C88.9936 23.3078 89.9086 22.0879 91.2927 21.1964C92.7003 20.3049 94.319 19.8592 96.1489 19.8592ZM94.9525 35.4483C96.3601 35.4483 97.4979 34.9909 98.3659 34.0759C99.2339 33.161 99.6679 31.9528 99.6679 30.4514H95.8322C93.0874 30.4514 91.715 31.249 91.715 32.8443C91.715 33.6419 92.0082 34.2753 92.5947 34.7445C93.1812 35.2137 93.9671 35.4483 94.9525 35.4483Z" fill="white"/>
<path d="M108.105 38.5099V20.2111H111.131L111.906 22.8503C112.492 21.8885 113.184 21.2081 113.982 20.8093C114.803 20.4105 115.788 20.2111 116.938 20.2111H117.712L118.064 24.082H115.741C113.348 24.082 112.152 25.2902 112.152 27.7065V38.5099H108.105Z" fill="white"/>
<path d="M127.49 19.8592C129.836 19.8592 131.678 20.5982 133.015 22.0761C134.376 23.5307 135.056 25.5834 135.056 28.2344V38.5099H132.065L131.22 35.6243C130.704 36.4923 129.942 37.2548 128.933 37.9117C127.924 38.5451 126.728 38.8618 125.343 38.8618C124.124 38.8618 123.021 38.6154 122.036 38.1228C121.074 37.6301 120.323 36.9381 119.783 36.0466C119.244 35.1551 118.974 34.1463 118.974 33.0202C118.974 31.2842 119.654 29.9001 121.015 28.8678C122.399 27.8121 124.405 27.2843 127.033 27.2843H130.974C130.88 26.0643 130.505 25.1025 129.848 24.3987C129.214 23.6714 128.358 23.3078 127.279 23.3078C126.411 23.3078 125.66 23.5189 125.027 23.9412C124.393 24.3635 123.924 24.8796 123.619 25.4896L119.889 24.8562C120.335 23.3078 121.25 22.0879 122.634 21.1964C124.041 20.3049 125.66 19.8592 127.49 19.8592ZM126.294 35.4483C127.701 35.4483 128.839 34.9909 129.707 34.0759C130.575 33.161 131.009 31.9528 131.009 30.4514H127.173C124.428 30.4514 123.056 31.249 123.056 32.8443C123.056 33.6419 123.349 34.2753 123.936 34.7445C124.522 35.2137 125.308 35.4483 126.294 35.4483Z" fill="white"/>
<path d="M139.446 38.5099V20.2111H142.472L143.282 22.9559C143.868 21.994 144.642 21.2433 145.604 20.7037C146.59 20.1407 147.645 19.8592 148.771 19.8592C150.085 19.8592 151.27 20.1876 152.326 20.8445C153.381 21.5014 154.214 22.4046 154.824 23.5541C155.434 24.7037 155.739 26.0057 155.739 27.4602V38.5099H151.692V27.9177C151.692 26.6039 151.317 25.5365 150.566 24.7154C149.815 23.8943 148.854 23.4837 147.681 23.4837C146.461 23.4837 145.452 23.906 144.654 24.7506C143.88 25.5717 143.493 26.6274 143.493 27.9177V38.5099H139.446Z" fill="white"/>
<path d="M171.043 34.9909L170.691 38.5099H167.278C165.283 38.5099 163.77 38.0407 162.738 37.1023C161.706 36.1404 161.19 34.7563 161.19 32.9499V23.7301H158.199V20.2111H161.19L162.21 14.9326H165.237V20.2111H170.691V23.7301H165.237V32.9499C165.237 34.3105 165.917 34.9909 167.278 34.9909H171.043Z" fill="white"/>
<path d="M182.607 38.8618C180.73 38.8618 179.041 38.463 177.54 37.6653C176.062 36.8442 174.901 35.7181 174.056 34.2871C173.235 32.8326 172.824 31.1904 172.824 29.3605C172.824 27.5306 173.235 25.9001 174.056 24.4691C174.901 23.0145 176.062 21.8885 177.54 21.0908C179.041 20.2697 180.73 19.8592 182.607 19.8592C184.484 19.8592 186.161 20.2697 187.639 21.0908C189.141 21.8885 190.302 23.0145 191.123 24.4691C191.968 25.9001 192.39 27.5306 192.39 29.3605C192.39 31.1904 191.968 32.8326 191.123 34.2871C190.302 35.7181 189.141 36.8442 187.639 37.6653C186.161 38.463 184.484 38.8618 182.607 38.8618ZM182.607 35.1668C184.249 35.1668 185.587 34.639 186.619 33.5833C187.651 32.5041 188.167 31.0965 188.167 29.3605C188.167 27.6244 187.651 26.2286 186.619 25.1729C185.587 24.0937 184.249 23.5541 182.607 23.5541C180.965 23.5541 179.628 24.0937 178.596 25.1729C177.563 26.2286 177.047 27.6244 177.047 29.3605C177.047 31.0965 177.563 32.5041 178.596 33.5833C179.628 34.639 180.965 35.1668 182.607 35.1668Z" fill="white"/>
<path d="M204.635 38.8618C202.759 38.8618 201.069 38.463 199.568 37.6653C198.09 36.8442 196.929 35.7181 196.084 34.2871C195.263 32.8326 194.852 31.1904 194.852 29.3605C194.852 27.5306 195.263 25.9001 196.084 24.4691C196.929 23.0145 198.09 21.8885 199.568 21.0908C201.069 20.2697 202.759 19.8592 204.635 19.8592C206.512 19.8592 208.189 20.2697 209.667 21.0908C211.169 21.8885 212.33 23.0145 213.151 24.4691C213.996 25.9001 214.418 27.5306 214.418 29.3605C214.418 31.1904 213.996 32.8326 213.151 34.2871C212.33 35.7181 211.169 36.8442 209.667 37.6653C208.189 38.463 206.512 38.8618 204.635 38.8618ZM204.635 35.1668C206.278 35.1668 207.615 34.639 208.647 33.5833C209.679 32.5041 210.195 31.0965 210.195 29.3605C210.195 27.6244 209.679 26.2286 208.647 25.1729C207.615 24.0937 206.278 23.5541 204.635 23.5541C202.993 23.5541 201.656 24.0937 200.624 25.1729C199.591 26.2286 199.075 27.6244 199.075 29.3605C199.075 31.0965 199.591 32.5041 200.624 33.5833C201.656 34.639 202.993 35.1668 204.635 35.1668Z" fill="white"/>
<path d="M222.159 38.5099H218.112V13.7009H222.159V38.5099Z" fill="white"/>
</svg>
