<svg width="200" height="200" viewBox="0 0 200 200" fill="none" xmlns="http://www.w3.org/2000/svg">
<path d="M0 95.082C0 50.2599 0 27.8489 13.9244 13.9244C27.8489 0 50.2599 0 95.082 0H104.918C149.74 0 172.151 0 186.076 13.9244C200 27.8489 200 50.2599 200 95.082V104.918C200 149.74 200 172.151 186.076 186.076C172.151 200 149.74 200 104.918 200H95.082C50.2599 200 27.8489 200 13.9244 186.076C0 172.151 0 149.74 0 104.918V95.082Z" fill="#00D9ED"/>
<path d="M76.2311 33.0324C87.8333 26.3471 93.6344 23.0044 100.004 23.0044C106.374 23.0044 112.175 26.3471 123.778 33.0324L146.231 45.9706C157.833 52.6559 163.634 55.9986 166.819 61.5044C170.004 67.0102 170.004 73.6955 170.004 87.0663V112.943C170.004 126.313 170.004 132.999 166.819 138.504C163.634 144.01 157.833 147.353 146.231 154.038L123.778 166.976C112.175 173.662 106.374 177.004 100.004 177.004C93.6344 177.004 87.8333 173.662 76.2311 166.976L53.7776 154.038C42.1755 147.353 36.3744 144.01 33.1894 138.504C30.0044 132.999 30.0044 126.313 30.0044 112.943V87.0663C30.0044 73.6955 30.0044 67.0102 33.1894 61.5044C36.3744 55.9986 42.1755 52.6559 53.7776 45.9706L76.2311 33.0324Z" fill="#0077FF"/>
<path d="M70.9956 73.0078C69.3388 73.0078 67.9956 74.351 67.9956 76.0078V86.6004C67.9956 88.2573 69.3387 89.6004 70.9956 89.6004H88.6993C90.3562 89.6004 91.6993 90.9436 91.6993 92.6004L91.6993 134.008C91.6993 135.665 93.0425 137.008 94.6993 137.008H105.292C106.949 137.008 108.292 135.665 108.292 134.008L108.292 92.6004C108.292 90.9436 109.635 89.6004 111.292 89.6004H128.996C130.652 89.6004 131.996 88.2573 131.996 86.6004V76.0078C131.996 74.351 130.652 73.0078 128.996 73.0078H70.9956Z" fill="white"/>
</svg>
