<svg width="331px" height="50px" viewBox="200 223 331 50" version="1.1" xmlns="http://www.w3.org/2000/svg" xmlns:xlink="http://www.w3.org/1999/xlink">
    <!-- Generator: Sketch 39.1 (31720) - http://www.bohemiancoding.com/sketch -->
    <desc>Created with Sketch.</desc>
    <defs></defs>
    <g id="tarantool_100x29_01" stroke="none" stroke-width="1" fill="none" fill-rule="evenodd" transform="translate(200.000000, 223.000000)">
        <polygon id="Fill-1" fill="#262626" points="0.0749433962 49.9275008 330.325502 49.9275008 330.325502 0.7275 0.0749433962 0.7275"></polygon>
        <path d="M90.1668981,24.47375 L82.5439057,24.47375 L82.5439057,14.55625 L90.0394943,14.55625 C93.7242113,14.55625 96.011234,16.20875 96.011234,19.45125 C96.011234,22.6925 93.850366,24.47375 90.1668981,24.47375 L90.1668981,24.47375 Z M96.3284943,29.87625 C100.872562,28.37125 103.634226,24.065 103.634226,19.1975 C103.634226,17.19125 102.970977,13.77625 100.964992,11.63125 C98.2058264,9.0075 94.4748943,7.6475 90.6752642,7.88125 L74.9846151,7.88125 L74.9846151,42.2725 L82.5439057,42.2725 L82.5439057,31.1475 L88.3882415,31.1475 L95.8838302,42.145 L104.713411,42.145 L96.3284943,29.87625 L96.3284943,29.87625 Z M132.311317,27.775 L127.738521,16.58875 L123.166974,27.775 L132.311317,27.775 L132.311317,27.775 Z M55.8465698,28.15625 L51.2737736,16.97 L46.7009774,28.15625 L55.8465698,28.15625 L55.8465698,28.15625 Z M216.080547,7.88125 L216.080547,14.6825 L205.600962,14.6825 L205.600962,42.13875 L198.04417,42.13875 L198.04417,14.6825 L187.883094,14.6825 L187.883094,7.88125 L216.080547,7.88125 L216.080547,7.88125 Z M131.421989,7.5 L146.15586,42.13875 L138.218106,42.13875 L135.043004,34.44875 L120.498989,34.44875 L117.322638,42.13875 L109.638442,42.13875 L124.372313,7.5 L131.421989,7.5 L131.421989,7.5 Z M306.152517,7.88125 L306.152517,35.21125 L322.983555,35.275 L322.983555,42.26625 L298.278464,42.26625 L298.278464,7.88125 L306.152517,7.88125 L306.152517,7.88125 Z M174.481966,28.9825 L174.292109,7.88125 L181.531642,7.88125 L181.531642,42.13875 L175.181438,42.13875 L158.66766,20.275 L158.66766,42.26625 L151.237023,42.26625 L151.237023,7.88125 L158.224245,7.88125 L174.481966,28.9825 L174.481966,28.9825 Z M34.7612453,7.88125 L34.7612453,14.6825 L24.2816604,14.6825 L24.2816604,42.33 L16.7248679,42.33 L16.7248679,14.8725 L6.24528302,14.8725 L6.24528302,7.88125 L34.7612453,7.88125 L34.7612453,7.88125 Z M54.9572415,7.88125 L69.6911132,42.52 L61.7533585,42.52 L58.5770075,34.82875 L44.0342415,34.82875 L40.8578906,42.52 L33.1736943,42.52 L47.907566,7.88125 L54.9572415,7.88125 L54.9572415,7.88125 Z" id="Fill-3" fill="#FFFFFF"></path>
        <path d="M274.291581,36.30625 C273.376023,36.30625 272.464211,36.19125 271.577381,35.965 C266.21643,34.60375 261.817253,30.585 260.208468,25.2875 L260.208468,25.03375 C262.097042,20.39125 265.824226,16.795 270.498196,14.99125 C271.712279,14.54375 272.997558,14.315 274.291581,14.315 C280.319528,14.315 285.278283,19.27875 285.278283,25.31125 C285.278283,31.3425 280.319528,36.30625 274.291581,36.30625 L274.291581,36.30625 Z M251.492551,25.2875 C249.886264,30.585 245.487087,34.60375 240.126136,35.965 C239.238057,36.19125 238.326245,36.30625 237.411936,36.30625 C231.383989,36.30625 226.423985,31.3425 226.423985,25.31125 C226.423985,19.27875 231.383989,14.315 237.411936,14.315 C238.705958,14.315 239.989989,14.54375 241.205321,14.99125 C245.879291,16.795 249.603977,20.39125 251.492551,25.03375 L251.492551,25.2875 L251.492551,25.2875 Z M274.382762,6.25 C272.213151,6.25 270.061026,6.6275 268.021317,7.365 C263.095038,9.09 258.835755,12.325 255.850509,16.61 C252.867762,12.325 248.608479,9.09 243.6822,7.365 C241.642491,6.6275 239.489117,6.25 237.319506,6.25 C227.042268,6.25 218.584906,14.715 218.584906,25 C218.584906,35.285 227.042268,43.75 237.319506,43.75 C238.409932,43.75 239.496611,43.65375 240.569551,43.465 L241.903543,43.1475 C247.553026,41.425 252.465566,37.855 255.850509,33.0125 C259.236702,37.855 264.149242,41.425 269.798725,43.1475 L271.132717,43.465 C272.205657,43.65375 273.293585,43.75 274.382762,43.75 C284.66,43.75 293.117362,35.285 293.117362,25 C293.117362,14.715 284.66,6.25 274.382762,6.25 L274.382762,6.25 Z" id="Fill-4" fill="#FF272C"></path>
    </g>
</svg>
