<svg xmlns="http://www.w3.org/2000/svg" width="48" height="48" viewBox="0 0 48 48">
    <g fill="none" fill-rule="evenodd">
        <path fill="#FF2E2F" d="M41.314 27.379c0 .48-.39.87-.871.87H7.347c-.48 0-.87-.39-.87-.87V7.347c0-.48.39-.87.87-.87h33.096c.48 0 .87.39.87.87V27.38z"/>
        <path fill="#9B9B9B" fill-rule="nonzero" d="M40.292 43.167a1.917 1.917 0 1 1 0-3.834 1.917 1.917 0 0 1 0 3.834z"/>
        <path stroke="#9B9B9B" stroke-linecap="round" stroke-linejoin="round" stroke-width="2" d="M1.958 47A.959.959 0 0 1 1 46.042v-9.584c0-.529.43-.958.958-.958h44.084c.529 0 .958.43.958.958v9.584c0 .529-.43.958-.958.958H1.958z"/>
        <path stroke="#9B9B9B" stroke-linejoin="round" stroke-width="2" d="M24.958 41.25H5.792"/>
        <path stroke="#9B9B9B" stroke-linecap="round" stroke-linejoin="round" stroke-width="2" d="M47 34.542c0 .529-.43.958-.958.958H1.958A.959.959 0 0 1 1 34.542V1.958C1 1.43 1.43 1 1.958 1h44.084c.529 0 .958.43.958.958v32.584z"/>
        <path fill="#1F1E1E" fill-rule="nonzero" d="M29.517 20.97c-.301 0-.601-.039-.893-.113-1.763-.448-3.21-1.77-3.74-3.512v-.084a5.945 5.945 0 0 1 3.385-3.303 3.61 3.61 0 0 1 1.248-.223c1.983 0 3.614 1.633 3.614 3.617S31.5 20.97 29.517 20.97zm-7.5-3.625c-.528 1.742-1.975 3.064-3.739 3.512a3.617 3.617 0 0 1-.892.112c-1.983 0-3.615-1.633-3.615-3.617s1.632-3.617 3.615-3.617c.425 0 .848.075 1.247.223a5.944 5.944 0 0 1 3.384 3.303v.084zm7.53-6.263c-.714 0-1.422.124-2.093.367a8.17 8.17 0 0 0-4.003 3.041 8.165 8.165 0 0 0-4.003-3.041 6.156 6.156 0 0 0-2.093-.367c-3.38 0-6.163 2.785-6.163 6.168s2.782 6.168 6.163 6.168c.359 0 .716-.032 1.07-.094l.438-.104a8.692 8.692 0 0 0 4.588-3.334 8.694 8.694 0 0 0 4.588 3.334l.439.104c.353.062.71.094 1.069.094 3.38 0 6.163-2.785 6.163-6.168s-2.782-6.168-6.163-6.168z"/>
    </g>
</svg>
