<svg xmlns="http://www.w3.org/2000/svg" width="46" height="32" viewBox="0 0 46 32">
    <g fill="none" fill-rule="evenodd" opacity=".78">
        <path fill="#FF2E2F" fill-rule="nonzero" d="M2.078 11.378C2.738 13.53 7.546 15.5 13.5 15.5c.86 0 1.697-.041 2.5-.118v2.01a28.87 28.87 0 0 1-2.5.108c-4.832 0-9.113-1.173-11.5-3.067v2.692c0 2.337 5.084 4.625 11.5 4.625.86 0 1.697-.041 2.5-.118v2.01a28.87 28.87 0 0 1-2.5.108c-4.832 0-9.113-1.173-11.5-3.067v2.067c0 2.337 5.084 4.625 11.5 4.625 1.423 0 2.78-.113 4.03-.313l.938 1.873c-1.542.286-3.219.44-4.968.44-7.396 0-13.5-2.747-13.5-6.625V10.625h.032A1 1 0 0 1 1 9.875v-.183c2.387-1.894 6.668-3.067 11.5-3.067.853 0 2.689.037 3.5.107v2.011h-1a26.283 26.283 0 0 0-2.5-.118c-4.65 0-8.6 1.202-10.422 2.753zM-.968 19.75H-1h.032z"/>
        <path fill="#1F1E1E" stroke="#FF2E2F" stroke-linejoin="round" stroke-width="2" d="M20 6.625V24.75c0 3.108 5.595 5.625 12.5 5.625S45 27.858 45 24.75V6.625"/>
        <path stroke="#FF2E2F" stroke-linejoin="round" stroke-width="2" d="M32.5 1C25.595 1 20 3.517 20 6.625s5.595 5.625 12.5 5.625S45 9.733 45 6.625 39.405 1 32.5 1z"/>
        <path stroke="#FF2E2F" stroke-linecap="round" stroke-linejoin="round" stroke-width="2" d="M20 19.125c0 3.108 5.595 5.625 12.5 5.625S45 22.233 45 19.125M20 12.875c0 3.108 5.595 5.625 12.5 5.625S45 15.983 45 12.875"/>
    </g>
</svg>
