<svg xmlns="http://www.w3.org/2000/svg" xmlns:xlink="http://www.w3.org/1999/xlink" width="62" height="53" viewBox="0 0 62 53">
    <defs>
        <path id="a" d="M28.21 48.961l-7.793-7.855 2.102-2.12 2.677 2.699a.808.808 0 0 0 .886.178.82.82 0 0 0 .501-.757V21.437h3.252v19.669c0 .33.198.63.501.757a.808.808 0 0 0 .886-.178l2.677-2.699 2.102 2.12-7.792 7.855z"/>
    </defs>
    <g fill="none" fill-rule="evenodd">
        <path stroke="#979797" stroke-width="2" d="M25.92 41.833H3.52a2.036 2.036 0 0 1-2.026-2.041v-6.125m24.327 0H1.494V2.02C1.494 1.458 1.949 1 2.507 1h15.548c.805 0 1.565.314 2.137.886l3.772 3.764a5.02 5.02 0 0 0 3.562 1.475h25.61c.559 0 1.013.458 1.013 1.02v25.522H25.822zm28.264 0v6.125c0 .63.248 1.368.705 2.041H36.713m23.512-2.041a2.036 2.036 0 0 1-2.025 2.041m-2.026-30.625h3.038c.558 0 1.013.428 1.013.953v27.63"/>
        <g stroke-linejoin="round" transform="translate(1 1)">
            <use fill="#FF2E2F" xlink:href="#a"/>
            <path stroke="#1F1E1E" stroke-width="3" d="M25.083 39.442V19.937h6.252v19.505l2.564-2.586 4.215 4.25-9.905 9.985-9.905-9.985 4.215-4.25 2.564 2.586z"/>
        </g>
        <path stroke="#979797" stroke-dasharray="4,7" stroke-linecap="square" stroke-width="2" d="M9.932 12h47.214"/>
    </g>
</svg>
