<?xml version="1.0" encoding="UTF-8" standalone="no"?>
<!-- Created by Syntax-Trax http://kevinpt.github.io/syntax-trax -->
<svg xmlns="http://www.w3.org/2000/svg"
xmlns:xlink="http://www.w3.org/1999/xlink"
xml:space="preserve"
width="705" height="54" version="1.1">
<style type="text/css">
<![CDATA[
.box_font {fill:#000000; text-anchor:middle;
    font-family:Courier; font-size:14pt; font-weight:regular; font-style:normal;}
.name_font {fill:#000000; text-anchor:middle;
    font-family:Courier; font-size:14pt; font-weight:regular; font-style:normal;}
.title_font {fill:#000000; text-anchor:middle;
    font-family:Sans; font-size:22pt; font-weight:bold; font-style:normal;}
.bubble_font {fill:#000000; text-anchor:middle;
    font-family:Courier; font-size:14pt; font-weight:bold; font-style:normal;}
.token_font {fill:#000000; text-anchor:middle;
    font-family:Courier; font-size:14pt; font-weight:bold; font-style:normal;}
.label {fill:#000;
  text-anchor:middle;
  font-size:16pt; font-weight:bold; font-family:Sans;}
.link {fill: #0D47A1;}
.link:hover {fill: #0D47A1; text-decoration:underline;}
.link:visited {fill: #4A148C;}
]]>
</style>
<defs>
  <marker id="arrow" markerWidth="5" markerHeight="4" refX="2.5" refY="2" orient="auto" markerUnits="strokeWidth">
    <path d="M0,0 L0.5,2 L0,4 L4.5,2 z" fill="#FF0000" />
  </marker>
</defs>
<rect width="100%" height="100%" fill="white"/><path d="M41.0,33.0 A13.0,13.0 0 0,1 41.0,7.0 H101.0 A13.0,13.0 0 0,1 101.0,33.0 z" stroke="none" fill-opacity="0.498039215686" fill="#000000"/>
<path d="M144.0,33.0 A13.0,13.0 0 0,1 144.0,7.0 H237.0 A13.0,13.0 0 0,1 237.0,33.0 z" stroke="none" fill-opacity="0.498039215686" fill="#000000"/>
<path d="M308.0,51.0 A13.0,13.0 0 0,1 308.0,25.0 H346.0 A13.0,13.0 0 0,1 346.0,51.0 z" stroke="none" fill-opacity="0.498039215686" fill="#000000"/>
<path d="M389.0,51.0 A13.0,13.0 0 0,1 389.0,25.0 H471.0 A13.0,13.0 0 0,1 471.0,51.0 z" stroke="none" fill-opacity="0.498039215686" fill="#000000"/>
<path d="M542.0,33.0 A13.0,13.0 0 0,1 542.0,7.0 H668.0 A13.0,13.0 0 0,1 668.0,33.0 z" stroke="none" fill-opacity="0.498039215686" fill="#000000"/>
<circle cx="7" cy="17.0" r="2" stroke="#FF0000" stroke-width="1" fill="#FFFFFF"/>
<path d="M39.0,31.0 A13.0,13.0 0 0,1 39.0,5.0 H99.0 A13.0,13.0 0 0,1 99.0,31.0 z" stroke="#FF0000" stroke-width="1" fill="#D3D3D3"/>
<text class="token_font" x="69.0" y="24.0"> DROP </text>
<path d="M142.0,31.0 A13.0,13.0 0 0,1 142.0,5.0 H235.0 A13.0,13.0 0 0,1 235.0,31.0 z" stroke="#FF0000" stroke-width="1" fill="#D3D3D3"/>
<text class="token_font" x="188.5" y="24.0"> TRIGGER </text>
<line x1="111.0" y1="17.0" x2="125.0" y2="17.0" stroke="#FF0000" stroke-width="1" marker-end="url(#arrow)" />
<line x1="387.0" y1="17.0" x2="388.0" y2="17.0" stroke="#FF0000" stroke-width="1" />
<path d="M306.0,49.0 A13.0,13.0 0 0,1 306.0,23.0 H344.0 A13.0,13.0 0 0,1 344.0,49.0 z" stroke="#FF0000" stroke-width="1" fill="#D3D3D3"/>
<text class="token_font" x="325.0" y="42.0"> IF </text>
<path d="M387.0,49.0 A13.0,13.0 0 0,1 387.0,23.0 H469.0 A13.0,13.0 0 0,1 469.0,49.0 z" stroke="#FF0000" stroke-width="1" fill="#D3D3D3"/>
<text class="token_font" x="428.0" y="42.0"> EXISTS </text>
<line x1="356.0" y1="35.0" x2="370.0" y2="35.0" stroke="#FF0000" stroke-width="1" marker-end="url(#arrow)" />
<line x1="265.0" y1="17.0" x2="383.0" y2="17.0" stroke="#FF0000" stroke-width="1" marker-end="url(#arrow)" />
<line x1="388.0" y1="17.0" x2="511.0" y2="17.0" stroke="#FF0000" stroke-width="1" />
<path d="M274.0,26.0 A9.0,9.0 0 0,0 265.0,17.0" stroke="#FF0000" stroke-width="1" fill="none"/>
<line x1="283.0" y1="35.0" x2="289.0" y2="35.0" stroke="#FF0000" stroke-width="1" marker-end="url(#arrow)" />
<line x1="482.0" y1="35.0" x2="488.0" y2="35.0" stroke="#FF0000" stroke-width="1" marker-end="url(#arrow)" />
<path d="M274.0,26.0 A9.0,9.0 0 0,0 283.0,35.0" stroke="#FF0000" stroke-width="1" fill="none"/>
<path d="M492.0,35.0 A9.0,9.0 0 0,0 501.0,26.0" stroke="#FF0000" stroke-width="1" fill="none"/>
<path d="M510.0,17.0 A9.0,9.0 0 0,0 501.0,26.0" stroke="#FF0000" stroke-width="1" fill="none"/>
<line x1="274.0" y1="26.0" x2="274.0" y2="26.0" stroke="#FF0000" stroke-width="1" />
<line x1="501.0" y1="26.0" x2="501.0" y2="26.0" stroke="#FF0000" stroke-width="1" />
<line x1="247.0" y1="17.0" x2="261.0" y2="17.0" stroke="#FF0000" stroke-width="1" marker-end="url(#arrow)" />
<path d="M540.0,31.0 A13.0,13.0 0 0,1 540.0,5.0 H666.0 A13.0,13.0 0 0,1 666.0,31.0 z" stroke="#FF0000" stroke-width="1" fill="#D3D3D3"/>
<text class="name_font" x="603.0" y="24.0">trigger-name</text>
<line x1="509.0" y1="17.0" x2="523.0" y2="17.0" stroke="#FF0000" stroke-width="1" marker-end="url(#arrow)" />
<line x1="8" y1="17.0" x2="22.0" y2="17.0" stroke="#FF0000" stroke-width="1" marker-end="url(#arrow)" />
<circle cx="698.0" cy="17.0" r="2.0" stroke="#FF0000" stroke-width="1" fill="#FFFFFF"/>
<line x1="678.0" y1="17.0" x2="692.0" y2="17.0" stroke="#FF0000" stroke-width="1" marker-end="url(#arrow)" />
</svg>