<?xml version="1.0" encoding="UTF-8" standalone="no"?>
<!-- Created by Syntax-Trax http://kevinpt.github.io/syntax-trax -->
<svg xmlns="http://www.w3.org/2000/svg"
xmlns:xlink="http://www.w3.org/1999/xlink"
xml:space="preserve"
width="941" height="54" version="1.1">
<style type="text/css">
<![CDATA[
.box_font {fill:#000000; text-anchor:middle;
    font-family:Courier; font-size:14pt; font-weight:regular; font-style:normal;}
.name_font {fill:#000000; text-anchor:middle;
    font-family:Courier; font-size:14pt; font-weight:regular; font-style:normal;}
.title_font {fill:#000000; text-anchor:middle;
    font-family:Sans; font-size:22pt; font-weight:bold; font-style:normal;}
.bubble_font {fill:#000000; text-anchor:middle;
    font-family:Courier; font-size:14pt; font-weight:bold; font-style:normal;}
.token_font {fill:#000000; text-anchor:middle;
    font-family:Courier; font-size:14pt; font-weight:bold; font-style:normal;}
.label {fill:#000;
  text-anchor:middle;
  font-size:16pt; font-weight:bold; font-family:Sans;}
.link {fill: #0D47A1;}
.link:hover {fill: #0D47A1; text-decoration:underline;}
.link:visited {fill: #4A148C;}
]]>
</style>
<defs>
  <marker id="arrow" markerWidth="5" markerHeight="4" refX="2.5" refY="2" orient="auto" markerUnits="strokeWidth">
    <path d="M0,0 L0.5,2 L0,4 L4.5,2 z" fill="#FF0000" />
  </marker>
</defs>
<rect width="100%" height="100%" fill="white"/><rect x="28.0" y="7.0" width="188.0" height="26.0" stroke="none" fill-opacity="0.498039215686" fill="#000000"/>
<path d="M246.0,33.0 A13.0,13.0 0 0,1 246.0,7.0 H328.0 A13.0,13.0 0 0,1 328.0,33.0 z" stroke="none" fill-opacity="0.498039215686" fill="#000000"/>
<rect x="358.0" y="7.0" width="188.0" height="26.0" stroke="none" fill-opacity="0.498039215686" fill="#000000"/>
<rect x="591.0" y="25.0" width="298.0" height="26.0" stroke="none" fill-opacity="0.498039215686" fill="#000000"/>
<circle cx="7" cy="17.0" r="2" stroke="#FF0000" stroke-width="1" fill="#FFFFFF"/>
<rect x="26.0" y="5.0" width="188.0" height="26.0" stroke="#FF0000" stroke-width="1" fill="#D3D3D3"/>
<text class="box_font" x="120.0" y="24.0">select-statement</text>
<path d="M244.0,31.0 A13.0,13.0 0 0,1 244.0,5.0 H326.0 A13.0,13.0 0 0,1 326.0,31.0 z" stroke="#FF0000" stroke-width="1" fill="#D3D3D3"/>
<text class="token_font" x="285.0" y="24.0"> EXCEPT </text>
<line x1="213.0" y1="17.0" x2="227.0" y2="17.0" stroke="#FF0000" stroke-width="1" marker-end="url(#arrow)" />
<rect x="356.0" y="5.0" width="188.0" height="26.0" stroke="#FF0000" stroke-width="1" fill="#D3D3D3"/>
<text class="box_font" x="450.0" y="24.0">select-statement</text>
<line x1="338.0" y1="17.0" x2="352.0" y2="17.0" stroke="#FF0000" stroke-width="1" marker-end="url(#arrow)" />
<line x1="737.5" y1="17.0" x2="738.5" y2="17.0" stroke="#FF0000" stroke-width="1" />
<rect x="589.0" y="23.0" width="298.0" height="26.0" stroke="#FF0000" stroke-width="1" fill="#D3D3D3"/>
<text class="box_font" x="738.0" y="42.0">order-by-and-limit-clauses</text>
<line x1="561.0" y1="17.0" x2="733.5" y2="17.0" stroke="#FF0000" stroke-width="1" marker-end="url(#arrow)" />
<line x1="738.5" y1="17.0" x2="916.0" y2="17.0" stroke="#FF0000" stroke-width="1" />
<path d="M570.0,26.0 A9.0,9.0 0 0,0 561.0,17.0" stroke="#FF0000" stroke-width="1" fill="none"/>
<line x1="579.0" y1="35.0" x2="585.0" y2="35.0" stroke="#FF0000" stroke-width="1" marker-end="url(#arrow)" />
<line x1="887.0" y1="35.0" x2="893.0" y2="35.0" stroke="#FF0000" stroke-width="1" marker-end="url(#arrow)" />
<path d="M570.0,26.0 A9.0,9.0 0 0,0 579.0,35.0" stroke="#FF0000" stroke-width="1" fill="none"/>
<path d="M897.0,35.0 A9.0,9.0 0 0,0 906.0,26.0" stroke="#FF0000" stroke-width="1" fill="none"/>
<path d="M915.0,17.0 A9.0,9.0 0 0,0 906.0,26.0" stroke="#FF0000" stroke-width="1" fill="none"/>
<line x1="570.0" y1="26.0" x2="570.0" y2="26.0" stroke="#FF0000" stroke-width="1" />
<line x1="906.0" y1="26.0" x2="906.0" y2="26.0" stroke="#FF0000" stroke-width="1" />
<line x1="543.0" y1="17.0" x2="557.0" y2="17.0" stroke="#FF0000" stroke-width="1" marker-end="url(#arrow)" />
<line x1="8" y1="17.0" x2="22.0" y2="17.0" stroke="#FF0000" stroke-width="1" marker-end="url(#arrow)" />
<circle cx="934.0" cy="17.0" r="2.0" stroke="#FF0000" stroke-width="1" fill="#FFFFFF"/>
<line x1="914.0" y1="17.0" x2="928.0" y2="17.0" stroke="#FF0000" stroke-width="1" marker-end="url(#arrow)" />
</svg>