<?xml version="1.0" encoding="UTF-8" standalone="no"?>
<!-- Created by Syntax-Trax http://kevinpt.github.io/syntax-trax -->
<svg xmlns="http://www.w3.org/2000/svg"
xmlns:xlink="http://www.w3.org/1999/xlink"
xml:space="preserve"
width="974" height="54" version="1.1">
<style type="text/css">
<![CDATA[
.box_font {fill:#000000; text-anchor:middle;
    font-family:Courier; font-size:14pt; font-weight:regular; font-style:normal;}
.name_font {fill:#000000; text-anchor:middle;
    font-family:Courier; font-size:14pt; font-weight:regular; font-style:normal;}
.title_font {fill:#000000; text-anchor:middle;
    font-family:Sans; font-size:22pt; font-weight:bold; font-style:normal;}
.bubble_font {fill:#000000; text-anchor:middle;
    font-family:Courier; font-size:14pt; font-weight:bold; font-style:normal;}
.token_font {fill:#000000; text-anchor:middle;
    font-family:Courier; font-size:14pt; font-weight:bold; font-style:normal;}
.label {fill:#000;
  text-anchor:middle;
  font-size:16pt; font-weight:bold; font-family:Sans;}
.link {fill: #0D47A1;}
.link:hover {fill: #0D47A1; text-decoration:underline;}
.link:visited {fill: #4A148C;}
]]>
</style>
<defs>
  <marker id="arrow" markerWidth="5" markerHeight="4" refX="2.5" refY="2" orient="auto" markerUnits="strokeWidth">
    <path d="M0,0 L0.5,2 L0,4 L4.5,2 z" fill="#FF0000" />
  </marker>
</defs>
<rect width="100%" height="100%" fill="white"/><rect x="28.0" y="7.0" width="188.0" height="26.0" stroke="none" fill-opacity="0.498039215686" fill="#000000"/>
<path d="M246.0,33.0 A13.0,13.0 0 0,1 246.0,7.0 H361.0 A13.0,13.0 0 0,1 361.0,33.0 z" stroke="none" fill-opacity="0.498039215686" fill="#000000"/>
<rect x="391.0" y="7.0" width="188.0" height="26.0" stroke="none" fill-opacity="0.498039215686" fill="#000000"/>
<rect x="624.0" y="25.0" width="298.0" height="26.0" stroke="none" fill-opacity="0.498039215686" fill="#000000"/>
<circle cx="7" cy="17.0" r="2" stroke="#FF0000" stroke-width="1" fill="#FFFFFF"/>
<rect x="26.0" y="5.0" width="188.0" height="26.0" stroke="#FF0000" stroke-width="1" fill="#D3D3D3"/>
<text class="box_font" x="120.0" y="24.0">select-statement</text>
<path d="M244.0,31.0 A13.0,13.0 0 0,1 244.0,5.0 H359.0 A13.0,13.0 0 0,1 359.0,31.0 z" stroke="#FF0000" stroke-width="1" fill="#D3D3D3"/>
<text class="token_font" x="301.5" y="24.0"> INTERSECT </text>
<line x1="213.0" y1="17.0" x2="227.0" y2="17.0" stroke="#FF0000" stroke-width="1" marker-end="url(#arrow)" />
<rect x="389.0" y="5.0" width="188.0" height="26.0" stroke="#FF0000" stroke-width="1" fill="#D3D3D3"/>
<text class="box_font" x="483.0" y="24.0">select-statement</text>
<line x1="371.0" y1="17.0" x2="385.0" y2="17.0" stroke="#FF0000" stroke-width="1" marker-end="url(#arrow)" />
<line x1="770.5" y1="17.0" x2="771.5" y2="17.0" stroke="#FF0000" stroke-width="1" />
<rect x="622.0" y="23.0" width="298.0" height="26.0" stroke="#FF0000" stroke-width="1" fill="#D3D3D3"/>
<text class="box_font" x="771.0" y="42.0">order-by-and-limit-clauses</text>
<line x1="594.0" y1="17.0" x2="766.5" y2="17.0" stroke="#FF0000" stroke-width="1" marker-end="url(#arrow)" />
<line x1="771.5" y1="17.0" x2="949.0" y2="17.0" stroke="#FF0000" stroke-width="1" />
<path d="M603.0,26.0 A9.0,9.0 0 0,0 594.0,17.0" stroke="#FF0000" stroke-width="1" fill="none"/>
<line x1="612.0" y1="35.0" x2="618.0" y2="35.0" stroke="#FF0000" stroke-width="1" marker-end="url(#arrow)" />
<line x1="920.0" y1="35.0" x2="926.0" y2="35.0" stroke="#FF0000" stroke-width="1" marker-end="url(#arrow)" />
<path d="M603.0,26.0 A9.0,9.0 0 0,0 612.0,35.0" stroke="#FF0000" stroke-width="1" fill="none"/>
<path d="M930.0,35.0 A9.0,9.0 0 0,0 939.0,26.0" stroke="#FF0000" stroke-width="1" fill="none"/>
<path d="M948.0,17.0 A9.0,9.0 0 0,0 939.0,26.0" stroke="#FF0000" stroke-width="1" fill="none"/>
<line x1="603.0" y1="26.0" x2="603.0" y2="26.0" stroke="#FF0000" stroke-width="1" />
<line x1="939.0" y1="26.0" x2="939.0" y2="26.0" stroke="#FF0000" stroke-width="1" />
<line x1="576.0" y1="17.0" x2="590.0" y2="17.0" stroke="#FF0000" stroke-width="1" marker-end="url(#arrow)" />
<line x1="8" y1="17.0" x2="22.0" y2="17.0" stroke="#FF0000" stroke-width="1" marker-end="url(#arrow)" />
<circle cx="967.0" cy="17.0" r="2.0" stroke="#FF0000" stroke-width="1" fill="#FFFFFF"/>
<line x1="947.0" y1="17.0" x2="961.0" y2="17.0" stroke="#FF0000" stroke-width="1" marker-end="url(#arrow)" />
</svg>