<?xml version="1.0" encoding="UTF-8" standalone="no"?>
<!-- Created by Syntax-Trax http://kevinpt.github.io/syntax-trax -->
<svg xmlns="http://www.w3.org/2000/svg"
xmlns:xlink="http://www.w3.org/1999/xlink"
xml:space="preserve"
width="506" height="110" version="1.1">
<style type="text/css">
<![CDATA[
.box_font {fill:#000000; text-anchor:middle;
    font-family:Courier; font-size:14pt; font-weight:regular; font-style:normal;}
.name_font {fill:#000000; text-anchor:middle;
    font-family:Courier; font-size:14pt; font-weight:regular; font-style:normal;}
.title_font {fill:#000000; text-anchor:middle;
    font-family:Sans; font-size:22pt; font-weight:bold; font-style:normal;}
.bubble_font {fill:#000000; text-anchor:middle;
    font-family:Courier; font-size:14pt; font-weight:bold; font-style:normal;}
.token_font {fill:#000000; text-anchor:middle;
    font-family:Courier; font-size:14pt; font-weight:bold; font-style:normal;}
.label {fill:#000;
  text-anchor:middle;
  font-size:16pt; font-weight:bold; font-family:Sans;}
.link {fill: #0D47A1;}
.link:hover {fill: #0D47A1; text-decoration:underline;}
.link:visited {fill: #4A148C;}
]]>
</style>
<defs>
  <marker id="arrow" markerWidth="5" markerHeight="4" refX="2.5" refY="2" orient="auto" markerUnits="strokeWidth">
    <path d="M0,0 L0.5,2 L0,4 L4.5,2 z" fill="#FF0000" />
  </marker>
</defs>
<rect width="100%" height="100%" fill="white"/><path d="M41.0,33.0 A13.0,13.0 0 0,1 41.0,7.0 H145.0 A13.0,13.0 0 0,1 145.0,33.0 z" stroke="none" fill-opacity="0.498039215686" fill="#000000"/>
<rect x="192.0" y="7.0" width="122.0" height="26.0" stroke="none" fill-opacity="0.498039215686" fill="#000000"/>
<path d="M372.0,51.0 A13.0,13.0 0 0,1 372.0,25.0 H421.0 A13.0,13.0 0 0,1 421.0,51.0 z" stroke="none" fill-opacity="0.498039215686" fill="#000000"/>
<path d="M372.0,81.0 A13.0,13.0 0 0,1 372.0,55.0 H432.0 A13.0,13.0 0 0,1 432.0,81.0 z" stroke="none" fill-opacity="0.498039215686" fill="#000000"/>
<path d="M330.0,107.0 A13.0,13.0 0 0,1 330.0,81.0 H335.0 A13.0,13.0 0 0,1 335.0,107.0 z" stroke="none" fill-opacity="0.498039215686" fill="#000000"/>
<circle cx="7" cy="17.0" r="2" stroke="#FF0000" stroke-width="1" fill="#FFFFFF"/>
<path d="M39.0,31.0 A13.0,13.0 0 0,1 39.0,5.0 H143.0 A13.0,13.0 0 0,1 143.0,31.0 z" stroke="#FF0000" stroke-width="1" fill="#D3D3D3"/>
<text class="token_font" x="91.0" y="24.0"> ORDER BY </text>
<rect x="190.0" y="5.0" width="122.0" height="26.0" stroke="#FF0000" stroke-width="1" fill="#D3D3D3"/>
<text class="box_font" x="251.0" y="24.0">expression</text>
<line x1="399.5" y1="17.0" x2="400.5" y2="17.0" stroke="#FF0000" stroke-width="1" />
<path d="M370.0,49.0 A13.0,13.0 0 0,1 370.0,23.0 H419.0 A13.0,13.0 0 0,1 419.0,49.0 z" stroke="#FF0000" stroke-width="1" fill="#D3D3D3"/>
<text class="token_font" x="394.5" y="42.0"> ASC </text>
<path d="M370.0,79.0 A13.0,13.0 0 0,1 370.0,53.0 H430.0 A13.0,13.0 0 0,1 430.0,79.0 z" stroke="#FF0000" stroke-width="1" fill="#D3D3D3"/>
<text class="token_font" x="400.0" y="72.0"> DESC </text>
<line x1="329.0" y1="17.0" x2="395.5" y2="17.0" stroke="#FF0000" stroke-width="1" marker-end="url(#arrow)" />
<line x1="400.5" y1="17.0" x2="472.0" y2="17.0" stroke="#FF0000" stroke-width="1" />
<path d="M338.0,26.0 A9.0,9.0 0 0,0 329.0,17.0" stroke="#FF0000" stroke-width="1" fill="none"/>
<line x1="347.0" y1="35.0" x2="353.0" y2="35.0" stroke="#FF0000" stroke-width="1" marker-end="url(#arrow)" />
<line x1="432.0" y1="35.0" x2="449.0" y2="35.0" stroke="#FF0000" stroke-width="1" marker-end="url(#arrow)" />
<path d="M338.0,26.0 A9.0,9.0 0 0,0 347.0,35.0" stroke="#FF0000" stroke-width="1" fill="none"/>
<path d="M453.0,35.0 A9.0,9.0 0 0,0 462.0,26.0" stroke="#FF0000" stroke-width="1" fill="none"/>
<line x1="347.0" y1="65.0" x2="353.0" y2="65.0" stroke="#FF0000" stroke-width="1" marker-end="url(#arrow)" />
<line x1="443.0" y1="65.0" x2="449.0" y2="65.0" stroke="#FF0000" stroke-width="1" marker-end="url(#arrow)" />
<path d="M338.0,56.0 A9.0,9.0 0 0,0 347.0,65.0" stroke="#FF0000" stroke-width="1" fill="none"/>
<path d="M453.0,65.0 A9.0,9.0 0 0,0 462.0,56.0" stroke="#FF0000" stroke-width="1" fill="none"/>
<path d="M471.0,17.0 A9.0,9.0 0 0,0 462.0,26.0" stroke="#FF0000" stroke-width="1" fill="none"/>
<line x1="338.0" y1="56.0" x2="338.0" y2="26.0" stroke="#FF0000" stroke-width="1" />
<line x1="462.0" y1="56.0" x2="462.0" y2="26.0" stroke="#FF0000" stroke-width="1" />
<line x1="311.0" y1="17.0" x2="325.0" y2="17.0" stroke="#FF0000" stroke-width="1" marker-end="url(#arrow)" />
<path d="M328.0,105.0 A13.0,13.0 0 0,1 328.0,79.0 H333.0 A13.0,13.0 0 0,1 333.0,105.0 z" stroke="#FF0000" stroke-width="1" fill="#D3D3D3"/>
<text class="name_font" x="330.5" y="98.0">,</text>
<line x1="190.0" y1="91.0" x2="315.0" y2="91.0" stroke="#FF0000" stroke-width="1" />
<line x1="471.0" y1="91.0" x2="350.0" y2="91.0" stroke="#FF0000" stroke-width="1" marker-end="url(#arrow)" />
<line x1="173.0" y1="17.0" x2="190.0" y2="17.0" stroke="#FF0000" stroke-width="1" />
<path d="M190.0,17.0 A9.0,9.0 0 0,0 181.0,26.0" stroke="#FF0000" stroke-width="1" fill="none"/>
<line x1="181.0" y1="82.0" x2="181.0" y2="58.0" stroke="#FF0000" stroke-width="1" marker-end="url(#arrow)" />
<line x1="181.0" y1="54.0" x2="181.0" y2="26.0" stroke="#FF0000" stroke-width="1" />
<path d="M181.0,82.0 A9.0,9.0 0 0,0 190.0,91.0" stroke="#FF0000" stroke-width="1" fill="none"/>
<path d="M480.0,26.0 A9.0,9.0 0 0,0 471.0,17.0" stroke="#FF0000" stroke-width="1" fill="none"/>
<line x1="480.0" y1="26.0" x2="480.0" y2="50.0" stroke="#FF0000" stroke-width="1" marker-end="url(#arrow)" />
<line x1="480.0" y1="54.0" x2="480.0" y2="82.0" stroke="#FF0000" stroke-width="1" />
<path d="M471.0,91.0 A9.0,9.0 0 0,0 480.0,82.0" stroke="#FF0000" stroke-width="1" fill="none"/>
<line x1="471.0" y1="17.0" x2="480.0" y2="17.0" stroke="#FF0000" stroke-width="1" />
<line x1="155.0" y1="17.0" x2="169.0" y2="17.0" stroke="#FF0000" stroke-width="1" marker-end="url(#arrow)" />
<line x1="8" y1="17.0" x2="22.0" y2="17.0" stroke="#FF0000" stroke-width="1" marker-end="url(#arrow)" />
<circle cx="499.0" cy="17.0" r="2.0" stroke="#FF0000" stroke-width="1" fill="#FFFFFF"/>
<line x1="479.0" y1="17.0" x2="493.0" y2="17.0" stroke="#FF0000" stroke-width="1" marker-end="url(#arrow)" />
</svg>