<?xml version="1.0" encoding="UTF-8" standalone="no"?>
<!-- Created by Syntax-Trax http://kevinpt.github.io/syntax-trax -->
<svg xmlns="http://www.w3.org/2000/svg"
xmlns:xlink="http://www.w3.org/1999/xlink"
xml:space="preserve"
width="704" height="58" version="1.1">
<style type="text/css">
<![CDATA[
.box_font {fill:#000000; text-anchor:middle;
    font-family:Courier; font-size:14pt; font-weight:regular; font-style:normal;}
.name_font {fill:#000000; text-anchor:middle;
    font-family:Courier; font-size:14pt; font-weight:regular; font-style:normal;}
.title_font {fill:#000000; text-anchor:middle;
    font-family:Sans; font-size:22pt; font-weight:bold; font-style:normal;}
.bubble_font {fill:#000000; text-anchor:middle;
    font-family:Courier; font-size:14pt; font-weight:bold; font-style:normal;}
.token_font {fill:#000000; text-anchor:middle;
    font-family:Courier; font-size:14pt; font-weight:bold; font-style:normal;}
.label {fill:#000;
  text-anchor:middle;
  font-size:16pt; font-weight:bold; font-family:Sans;}
.link {fill: #0D47A1;}
.link:hover {fill: #0D47A1; text-decoration:underline;}
.link:visited {fill: #4A148C;}
]]>
</style>
<defs>
  <marker id="arrow" markerWidth="5" markerHeight="4" refX="2.5" refY="2" orient="auto" markerUnits="strokeWidth">
    <path d="M0,0 L0.5,2 L0,4 L4.5,2 z" fill="#FF0000" />
  </marker>
</defs>
<rect width="100%" height="100%" fill="white"/><path d="M41.0,33.0 A13.0,13.0 0 0,1 41.0,7.0 H145.0 A13.0,13.0 0 0,1 145.0,33.0 z" stroke="none" fill-opacity="0.498039215686" fill="#000000"/>
<path d="M216.0,51.0 A13.0,13.0 0 0,1 216.0,25.0 H254.0 A13.0,13.0 0 0,1 254.0,51.0 z" stroke="none" fill-opacity="0.498039215686" fill="#000000"/>
<path d="M315.0,51.0 A13.0,13.0 0 0,1 315.0,25.0 H430.0 A13.0,13.0 0 0,1 430.0,51.0 z" stroke="none" fill-opacity="0.498039215686" fill="#000000"/>
<path d="M491.0,51.0 A13.0,13.0 0 0,1 491.0,25.0 H639.0 A13.0,13.0 0 0,1 639.0,51.0 z" stroke="none" fill-opacity="0.498039215686" fill="#000000"/>
<circle cx="7" cy="17.0" r="2" stroke="#FF0000" stroke-width="1" fill="#FFFFFF"/>
<path d="M39.0,31.0 A13.0,13.0 0 0,1 39.0,5.0 H143.0 A13.0,13.0 0 0,1 143.0,31.0 z" stroke="#FF0000" stroke-width="1" fill="#D3D3D3"/>
<text class="token_font" x="91.0" y="24.0"> ROLLBACK </text>
<line x1="425.0" y1="17.0" x2="426.0" y2="17.0" stroke="#FF0000" stroke-width="1" />
<path d="M214.0,49.0 A13.0,13.0 0 0,1 214.0,23.0 H252.0 A13.0,13.0 0 0,1 252.0,49.0 z" stroke="#FF0000" stroke-width="1" fill="#D3D3D3"/>
<text class="token_font" x="233.0" y="42.0"> TO </text>
<path d="M313.0,49.0 A13.0,13.0 0 0,1 313.0,23.0 H428.0 A13.0,13.0 0 0,1 428.0,49.0 z" stroke="#FF0000" stroke-width="1" fill="#D3D3D3"/>
<text class="token_font" x="370.5" y="42.0"> SAVEPOINT </text>
<line x1="370.0" y1="53.0" x2="371.0" y2="53.0" stroke="#FF0000" stroke-width="1" />
<line x1="282.0" y1="35.0" x2="296.0" y2="35.0" stroke="#FF0000" stroke-width="1" marker-end="url(#arrow)" />
<line x1="441.0" y1="35.0" x2="460.0" y2="35.0" stroke="#FF0000" stroke-width="1" />
<path d="M291.0,44.0 A9.0,9.0 0 0,0 282.0,35.0" stroke="#FF0000" stroke-width="1" fill="none"/>
<line x1="300.0" y1="53.0" x2="366.0" y2="53.0" stroke="#FF0000" stroke-width="1" marker-end="url(#arrow)" />
<line x1="371.0" y1="53.0" x2="437.0" y2="53.0" stroke="#FF0000" stroke-width="1" marker-end="url(#arrow)" />
<path d="M291.0,44.0 A9.0,9.0 0 0,0 300.0,53.0" stroke="#FF0000" stroke-width="1" fill="none"/>
<path d="M441.0,53.0 A9.0,9.0 0 0,0 450.0,44.0" stroke="#FF0000" stroke-width="1" fill="none"/>
<path d="M459.0,35.0 A9.0,9.0 0 0,0 450.0,44.0" stroke="#FF0000" stroke-width="1" fill="none"/>
<line x1="291.0" y1="44.0" x2="291.0" y2="44.0" stroke="#FF0000" stroke-width="1" />
<line x1="450.0" y1="44.0" x2="450.0" y2="44.0" stroke="#FF0000" stroke-width="1" />
<line x1="264.0" y1="35.0" x2="278.0" y2="35.0" stroke="#FF0000" stroke-width="1" marker-end="url(#arrow)" />
<path d="M489.0,49.0 A13.0,13.0 0 0,1 489.0,23.0 H637.0 A13.0,13.0 0 0,1 637.0,49.0 z" stroke="#FF0000" stroke-width="1" fill="#D3D3D3"/>
<text class="name_font" x="563.0" y="42.0">savepoint-name</text>
<line x1="458.0" y1="35.0" x2="472.0" y2="35.0" stroke="#FF0000" stroke-width="1" marker-end="url(#arrow)" />
<line x1="173.0" y1="17.0" x2="421.0" y2="17.0" stroke="#FF0000" stroke-width="1" marker-end="url(#arrow)" />
<line x1="426.0" y1="17.0" x2="679.0" y2="17.0" stroke="#FF0000" stroke-width="1" />
<path d="M182.0,26.0 A9.0,9.0 0 0,0 173.0,17.0" stroke="#FF0000" stroke-width="1" fill="none"/>
<line x1="191.0" y1="35.0" x2="197.0" y2="35.0" stroke="#FF0000" stroke-width="1" marker-end="url(#arrow)" />
<line x1="650.0" y1="35.0" x2="656.0" y2="35.0" stroke="#FF0000" stroke-width="1" marker-end="url(#arrow)" />
<path d="M182.0,26.0 A9.0,9.0 0 0,0 191.0,35.0" stroke="#FF0000" stroke-width="1" fill="none"/>
<path d="M660.0,35.0 A9.0,9.0 0 0,0 669.0,26.0" stroke="#FF0000" stroke-width="1" fill="none"/>
<path d="M678.0,17.0 A9.0,9.0 0 0,0 669.0,26.0" stroke="#FF0000" stroke-width="1" fill="none"/>
<line x1="182.0" y1="26.0" x2="182.0" y2="26.0" stroke="#FF0000" stroke-width="1" />
<line x1="669.0" y1="26.0" x2="669.0" y2="26.0" stroke="#FF0000" stroke-width="1" />
<line x1="155.0" y1="17.0" x2="169.0" y2="17.0" stroke="#FF0000" stroke-width="1" marker-end="url(#arrow)" />
<line x1="8" y1="17.0" x2="22.0" y2="17.0" stroke="#FF0000" stroke-width="1" marker-end="url(#arrow)" />
<circle cx="697.0" cy="17.0" r="2.0" stroke="#FF0000" stroke-width="1" fill="#FFFFFF"/>
<line x1="677.0" y1="17.0" x2="691.0" y2="17.0" stroke="#FF0000" stroke-width="1" marker-end="url(#arrow)" />
</svg>