<?xml version="1.0" encoding="UTF-8" standalone="no"?>
<!-- Created by Syntax-Trax http://kevinpt.github.io/syntax-trax -->
<svg xmlns="http://www.w3.org/2000/svg"
xmlns:xlink="http://www.w3.org/1999/xlink"
xml:space="preserve"
width="562" height="196" version="1.1">
<style type="text/css">
<![CDATA[
.box_font {fill:#000000; text-anchor:middle;
    font-family:Courier; font-size:14pt; font-weight:regular; font-style:normal;}
.name_font {fill:#000000; text-anchor:middle;
    font-family:Courier; font-size:14pt; font-weight:regular; font-style:normal;}
.title_font {fill:#000000; text-anchor:middle;
    font-family:Sans; font-size:22pt; font-weight:bold; font-style:normal;}
.bubble_font {fill:#000000; text-anchor:middle;
    font-family:Courier; font-size:14pt; font-weight:bold; font-style:normal;}
.token_font {fill:#000000; text-anchor:middle;
    font-family:Courier; font-size:14pt; font-weight:bold; font-style:normal;}
.label {fill:#000;
  text-anchor:middle;
  font-size:16pt; font-weight:bold; font-family:Sans;}
.link {fill: #0D47A1;}
.link:hover {fill: #0D47A1; text-decoration:underline;}
.link:visited {fill: #4A148C;}
]]>
</style>
<defs>
  <marker id="arrow" markerWidth="5" markerHeight="4" refX="2.5" refY="2" orient="auto" markerUnits="strokeWidth">
    <path d="M0,0 L0.5,2 L0,4 L4.5,2 z" fill="#FF0000" />
  </marker>
</defs>
<rect width="100%" height="100%" fill="white"/><path d="M41.0,33.0 A13.0,13.0 0 0,1 41.0,7.0 H123.0 A13.0,13.0 0 0,1 123.0,33.0 z" stroke="none" fill-opacity="0.498039215686" fill="#000000"/>
<path d="M166.0,33.0 A13.0,13.0 0 0,1 166.0,7.0 H270.0 A13.0,13.0 0 0,1 270.0,33.0 z" stroke="none" fill-opacity="0.498039215686" fill="#000000"/>
<path d="M77.0,97.0 A13.0,13.0 0 0,1 77.0,71.0 H126.0 A13.0,13.0 0 0,1 126.0,97.0 z" stroke="none" fill-opacity="0.498039215686" fill="#000000"/>
<path d="M186.0,97.0 A13.0,13.0 0 0,1 186.0,71.0 H301.0 A13.0,13.0 0 0,1 301.0,97.0 z" stroke="none" fill-opacity="0.498039215686" fill="#000000"/>
<path d="M344.0,97.0 A13.0,13.0 0 0,1 344.0,71.0 H371.0 A13.0,13.0 0 0,1 371.0,97.0 z" stroke="none" fill-opacity="0.498039215686" fill="#000000"/>
<rect x="401.0" y="71.0" width="122.0" height="26.0" stroke="none" fill-opacity="0.498039215686" fill="#000000"/>
<path d="M345.5,123.0 A13.0,13.0 0 0,1 345.5,97.0 H350.5 A13.0,13.0 0 0,1 350.5,123.0 z" stroke="none" fill-opacity="0.498039215686" fill="#000000"/>
<path d="M105.0,193.5 A13.0,13.0 0 0,1 105.0,167.5 H176.0 A13.0,13.0 0 0,1 176.0,193.5 z" stroke="none" fill-opacity="0.498039215686" fill="#000000"/>
<rect x="206.0" y="167.5" width="188.0" height="26.0" stroke="none" fill-opacity="0.498039215686" fill="#000000"/>
<circle cx="7" cy="17.0" r="2" stroke="#FF0000" stroke-width="1" fill="#FFFFFF"/>
<path d="M39.0,31.0 A13.0,13.0 0 0,1 39.0,5.0 H121.0 A13.0,13.0 0 0,1 121.0,31.0 z" stroke="#FF0000" stroke-width="1" fill="#D3D3D3"/>
<text class="token_font" x="80.0" y="24.0"> UPDATE </text>
<path d="M164.0,31.0 A13.0,13.0 0 0,1 164.0,5.0 H268.0 A13.0,13.0 0 0,1 268.0,31.0 z" stroke="#FF0000" stroke-width="1" fill="#D3D3D3"/>
<text class="name_font" x="216.0" y="24.0">table-name</text>
<line x1="133.0" y1="17.0" x2="147.0" y2="17.0" stroke="#FF0000" stroke-width="1" marker-end="url(#arrow)" />
<path d="M75.0,95.0 A13.0,13.0 0 0,1 75.0,69.0 H124.0 A13.0,13.0 0 0,1 124.0,95.0 z" stroke="#FF0000" stroke-width="1" fill="#D3D3D3"/>
<text class="token_font" x="99.5" y="88.0"> SET </text>
<path d="M184.0,95.0 A13.0,13.0 0 0,1 184.0,69.0 H299.0 A13.0,13.0 0 0,1 299.0,95.0 z" stroke="#FF0000" stroke-width="1" fill="#D3D3D3"/>
<text class="name_font" x="241.5" y="88.0">column-name</text>
<path d="M342.0,95.0 A13.0,13.0 0 0,1 342.0,69.0 H369.0 A13.0,13.0 0 0,1 369.0,95.0 z" stroke="#FF0000" stroke-width="1" fill="#D3D3D3"/>
<text class="token_font" x="355.5" y="88.0"> = </text>
<line x1="311.0" y1="81.0" x2="325.0" y2="81.0" stroke="#FF0000" stroke-width="1" marker-end="url(#arrow)" />
<rect x="399.0" y="69.0" width="122.0" height="26.0" stroke="#FF0000" stroke-width="1" fill="#D3D3D3"/>
<text class="box_font" x="460.0" y="88.0">expression</text>
<line x1="381.0" y1="81.0" x2="395.0" y2="81.0" stroke="#FF0000" stroke-width="1" marker-end="url(#arrow)" />
<path d="M343.5,121.0 A13.0,13.0 0 0,1 343.5,95.0 H348.5 A13.0,13.0 0 0,1 348.5,121.0 z" stroke="#FF0000" stroke-width="1" fill="#D3D3D3"/>
<text class="name_font" x="346.0" y="114.0">,</text>
<line x1="171.0" y1="107.0" x2="330.5" y2="107.0" stroke="#FF0000" stroke-width="1" />
<line x1="521.0" y1="107.0" x2="365.5" y2="107.0" stroke="#FF0000" stroke-width="1" marker-end="url(#arrow)" />
<line x1="154.0" y1="81.0" x2="171.0" y2="81.0" stroke="#FF0000" stroke-width="1" />
<path d="M171.0,81.0 A13.0,13.0 0 0,0 171.0,107.0" stroke="#FF0000" stroke-width="1" fill="none"/>
<path d="M521.0,107.0 A13.0,13.0 0 0,0 521.0,81.0" stroke="#FF0000" stroke-width="1" fill="none"/>
<line x1="521.0" y1="81.0" x2="530.0" y2="81.0" stroke="#FF0000" stroke-width="1" />
<line x1="136.0" y1="81.0" x2="150.0" y2="81.0" stroke="#FF0000" stroke-width="1" marker-end="url(#arrow)" />
<line x1="281.0" y1="17.0" x2="299.0" y2="17.0" stroke="#FF0000" stroke-width="1" />
<path d="M308.0,26.0 A9.0,9.0 0 0,0 299.0,17.0" stroke="#FF0000" stroke-width="1" fill="none"/>
<line x1="308.0" y1="26.0" x2="308.0" y2="41.0" stroke="#FF0000" stroke-width="1" />
<path d="M299.0,50.0 A9.0,9.0 0 0,0 308.0,41.0" stroke="#FF0000" stroke-width="1" fill="none"/>
<line x1="299.0" y1="50.0" x2="175.5" y2="50.0" stroke="#FF0000" stroke-width="1" marker-end="url(#arrow)" />
<line x1="171.5" y1="50.0" x2="44" y2="50.0" stroke="#FF0000" stroke-width="1" />
<path d="M44.0,50.0 A9,9 0 0,0 35.0,59.0" stroke="#FF0000" stroke-width="1" fill="none"/>
<line x1="35" y1="59.0" x2="35" y2="72.0" stroke="#FF0000" stroke-width="1" />
<path d="M35.0,72.0 A9,9 0 0,0 44.0,81.0" stroke="#FF0000" stroke-width="1" fill="none"/>
<line x1="44" y1="81.0" x2="58.0" y2="81.0" stroke="#FF0000" stroke-width="1" marker-end="url(#arrow)" />
<line x1="240.5" y1="159.5" x2="241.5" y2="159.5" stroke="#FF0000" stroke-width="1" />
<path d="M103.0,191.5 A13.0,13.0 0 0,1 103.0,165.5 H174.0 A13.0,13.0 0 0,1 174.0,191.5 z" stroke="#FF0000" stroke-width="1" fill="#D3D3D3"/>
<text class="token_font" x="138.5" y="184.5"> WHERE </text>
<rect x="204.0" y="165.5" width="188.0" height="26.0" stroke="#FF0000" stroke-width="1" fill="#D3D3D3"/>
<text class="box_font" x="298.0" y="184.5">search-condition</text>
<line x1="186.0" y1="177.5" x2="200.0" y2="177.5" stroke="#FF0000" stroke-width="1" marker-end="url(#arrow)" />
<line x1="62" y1="159.5" x2="236.5" y2="159.5" stroke="#FF0000" stroke-width="1" marker-end="url(#arrow)" />
<line x1="241.5" y1="159.5" x2="421.0" y2="159.5" stroke="#FF0000" stroke-width="1" />
<path d="M71.0,168.5 A9,9 0 0,0 62.0,159.5" stroke="#FF0000" stroke-width="1" fill="none"/>
<line x1="80" y1="177.5" x2="86.0" y2="177.5" stroke="#FF0000" stroke-width="1" marker-end="url(#arrow)" />
<line x1="392.0" y1="177.5" x2="398.0" y2="177.5" stroke="#FF0000" stroke-width="1" marker-end="url(#arrow)" />
<path d="M71.0,168.5 A9,9 0 0,0 80.0,177.5" stroke="#FF0000" stroke-width="1" fill="none"/>
<path d="M402.0,177.5 A9.0,9.0 0 0,0 411.0,168.5" stroke="#FF0000" stroke-width="1" fill="none"/>
<path d="M420.0,159.5 A9.0,9.0 0 0,0 411.0,168.5" stroke="#FF0000" stroke-width="1" fill="none"/>
<line x1="71" y1="168.5" x2="71" y2="168.5" stroke="#FF0000" stroke-width="1" />
<line x1="411.0" y1="168.5" x2="411.0" y2="168.5" stroke="#FF0000" stroke-width="1" />
<line x1="530.0" y1="81.0" x2="548.0" y2="81.0" stroke="#FF0000" stroke-width="1" />
<path d="M557.0,90.0 A9.0,9.0 0 0,0 548.0,81.0" stroke="#FF0000" stroke-width="1" fill="none"/>
<line x1="557.0" y1="90.0" x2="557.0" y2="106.5" stroke="#FF0000" stroke-width="1" marker-end="url(#arrow)" />
<line x1="557.0" y1="110.5" x2="557.0" y2="131.0" stroke="#FF0000" stroke-width="1" />
<path d="M548.0,140.0 A9.0,9.0 0 0,0 557.0,131.0" stroke="#FF0000" stroke-width="1" fill="none"/>
<line x1="548.0" y1="140.0" x2="300.0" y2="140.0" stroke="#FF0000" stroke-width="1" marker-end="url(#arrow)" />
<line x1="296.0" y1="140.0" x2="44" y2="140.0" stroke="#FF0000" stroke-width="1" />
<path d="M44.0,140.0 A9.75,9.75 0 0,0 44.0,159.5" stroke="#FF0000" stroke-width="1" fill="none"/>
<line x1="44" y1="159.5" x2="58.0" y2="159.5" stroke="#FF0000" stroke-width="1" marker-end="url(#arrow)" />
<line x1="8" y1="17.0" x2="22.0" y2="17.0" stroke="#FF0000" stroke-width="1" marker-end="url(#arrow)" />
<circle cx="439.0" cy="159.5" r="2.0" stroke="#FF0000" stroke-width="1" fill="#FFFFFF"/>
<line x1="419.0" y1="159.5" x2="433.0" y2="159.5" stroke="#FF0000" stroke-width="1" marker-end="url(#arrow)" />
</svg>