<?xml version="1.0" encoding="UTF-8" standalone="no"?>
<!-- Created by Syntax-Trax http://kevinpt.github.io/syntax-trax -->
<svg xmlns="http://www.w3.org/2000/svg"
xmlns:xlink="http://www.w3.org/1999/xlink"
xml:space="preserve"
width="845" height="182" version="1.1">
<style type="text/css">
<![CDATA[
.box_font {fill:#000000; text-anchor:middle;
    font-family:Courier; font-size:14pt; font-weight:regular; font-style:normal;}
.name_font {fill:#000000; text-anchor:middle;
    font-family:Courier; font-size:14pt; font-weight:regular; font-style:normal;}
.title_font {fill:#000000; text-anchor:middle;
    font-family:Sans; font-size:22pt; font-weight:bold; font-style:normal;}
.bubble_font {fill:#000000; text-anchor:middle;
    font-family:Courier; font-size:14pt; font-weight:bold; font-style:normal;}
.token_font {fill:#000000; text-anchor:middle;
    font-family:Courier; font-size:14pt; font-weight:bold; font-style:normal;}
.label {fill:#000;
  text-anchor:middle;
  font-size:16pt; font-weight:bold; font-family:Sans;}
.link {fill: #0D47A1;}
.link:hover {fill: #0D47A1; text-decoration:underline;}
.link:visited {fill: #4A148C;}
]]>
</style>
<defs>
  <marker id="arrow" markerWidth="5" markerHeight="4" refX="2.5" refY="2" orient="auto" markerUnits="strokeWidth">
    <path d="M0,0 L0.5,2 L0,4 L4.5,2 z" fill="#FF0000" />
  </marker>
</defs>
<rect width="100%" height="100%" fill="white"/><path d="M41.0,33.0 A13.0,13.0 0 0,1 41.0,7.0 H101.0 A13.0,13.0 0 0,1 101.0,33.0 z" stroke="none" fill-opacity="0.498039215686" fill="#000000"/>
<path d="M144.0,33.0 A13.0,13.0 0 0,1 144.0,7.0 H259.0 A13.0,13.0 0 0,1 259.0,33.0 z" stroke="none" fill-opacity="0.498039215686" fill="#000000"/>
<path d="M302.0,33.0 A13.0,13.0 0 0,1 302.0,7.0 H516.0 A13.0,13.0 0 0,1 516.0,33.0 z" stroke="none" fill-opacity="0.498039215686" fill="#000000"/>
<path d="M559.0,33.0 A13.0,13.0 0 0,1 559.0,7.0 H597.0 A13.0,13.0 0 0,1 597.0,33.0 z" stroke="none" fill-opacity="0.498039215686" fill="#000000"/>
<path d="M77.0,97.0 A13.0,13.0 0 0,1 77.0,71.0 H82.0 A13.0,13.0 0 0,1 82.0,97.0 z" stroke="none" fill-opacity="0.498039215686" fill="#000000"/>
<rect x="112.0" y="71.0" width="188.0" height="26.0" stroke="none" fill-opacity="0.498039215686" fill="#000000"/>
<path d="M330.0,97.0 A13.0,13.0 0 0,1 330.0,71.0 H401.0 A13.0,13.0 0 0,1 401.0,97.0 z" stroke="none" fill-opacity="0.498039215686" fill="#000000"/>
<path d="M472.0,115.0 A13.0,13.0 0 0,1 472.0,89.0 H521.0 A13.0,13.0 0 0,1 521.0,115.0 z" stroke="none" fill-opacity="0.498039215686" fill="#000000"/>
<rect x="579.0" y="71.0" width="188.0" height="26.0" stroke="none" fill-opacity="0.498039215686" fill="#000000"/>
<path d="M797.0,97.0 A13.0,13.0 0 0,1 797.0,71.0 H802.0 A13.0,13.0 0 0,1 802.0,97.0 z" stroke="none" fill-opacity="0.498039215686" fill="#000000"/>
<path d="M77.0,179.0 A13.0,13.0 0 0,1 77.0,153.0 H511.0 A13.0,13.0 0 0,1 511.0,179.0 z" stroke="none" fill-opacity="0.498039215686" fill="#000000"/>
<circle cx="7" cy="17.0" r="2" stroke="#FF0000" stroke-width="1" fill="#FFFFFF"/>
<path d="M39.0,31.0 A13.0,13.0 0 0,1 39.0,5.0 H99.0 A13.0,13.0 0 0,1 99.0,31.0 z" stroke="#FF0000" stroke-width="1" fill="#D3D3D3"/>
<text class="token_font" x="69.0" y="24.0"> WITH </text>
<path d="M142.0,31.0 A13.0,13.0 0 0,1 142.0,5.0 H257.0 A13.0,13.0 0 0,1 257.0,31.0 z" stroke="#FF0000" stroke-width="1" fill="#D3D3D3"/>
<text class="token_font" x="199.5" y="24.0"> RECURSIVE </text>
<line x1="111.0" y1="17.0" x2="125.0" y2="17.0" stroke="#FF0000" stroke-width="1" marker-end="url(#arrow)" />
<path d="M300.0,31.0 A13.0,13.0 0 0,1 300.0,5.0 H514.0 A13.0,13.0 0 0,1 514.0,31.0 z" stroke="#FF0000" stroke-width="1" fill="#D3D3D3"/>
<text class="name_font" x="407.0" y="24.0">recursive-table-name</text>
<line x1="269.0" y1="17.0" x2="283.0" y2="17.0" stroke="#FF0000" stroke-width="1" marker-end="url(#arrow)" />
<path d="M557.0,31.0 A13.0,13.0 0 0,1 557.0,5.0 H595.0 A13.0,13.0 0 0,1 595.0,31.0 z" stroke="#FF0000" stroke-width="1" fill="#D3D3D3"/>
<text class="token_font" x="576.0" y="24.0"> AS </text>
<line x1="526.0" y1="17.0" x2="540.0" y2="17.0" stroke="#FF0000" stroke-width="1" marker-end="url(#arrow)" />
<path d="M75.0,95.0 A13.0,13.0 0 0,1 75.0,69.0 H80.0 A13.0,13.0 0 0,1 80.0,95.0 z" stroke="#FF0000" stroke-width="1" fill="#D3D3D3"/>
<text class="name_font" x="77.5" y="88.0">(</text>
<rect x="110.0" y="69.0" width="188.0" height="26.0" stroke="#FF0000" stroke-width="1" fill="#D3D3D3"/>
<text class="box_font" x="204.0" y="88.0">select-statement</text>
<line x1="92.0" y1="81.0" x2="106.0" y2="81.0" stroke="#FF0000" stroke-width="1" marker-end="url(#arrow)" />
<path d="M328.0,95.0 A13.0,13.0 0 0,1 328.0,69.0 H399.0 A13.0,13.0 0 0,1 399.0,95.0 z" stroke="#FF0000" stroke-width="1" fill="#D3D3D3"/>
<text class="token_font" x="363.5" y="88.0"> UNION </text>
<line x1="297.0" y1="81.0" x2="311.0" y2="81.0" stroke="#FF0000" stroke-width="1" marker-end="url(#arrow)" />
<line x1="494.0" y1="81.0" x2="495.0" y2="81.0" stroke="#FF0000" stroke-width="1" />
<path d="M470.0,113.0 A13.0,13.0 0 0,1 470.0,87.0 H519.0 A13.0,13.0 0 0,1 519.0,113.0 z" stroke="#FF0000" stroke-width="1" fill="#D3D3D3"/>
<text class="token_font" x="494.5" y="106.0"> ALL </text>
<line x1="429.0" y1="81.0" x2="490.0" y2="81.0" stroke="#FF0000" stroke-width="1" marker-end="url(#arrow)" />
<line x1="495.0" y1="81.0" x2="561.0" y2="81.0" stroke="#FF0000" stroke-width="1" />
<path d="M438.0,90.0 A9.0,9.0 0 0,0 429.0,81.0" stroke="#FF0000" stroke-width="1" fill="none"/>
<line x1="447.0" y1="99.0" x2="453.0" y2="99.0" stroke="#FF0000" stroke-width="1" marker-end="url(#arrow)" />
<line x1="532.0" y1="99.0" x2="538.0" y2="99.0" stroke="#FF0000" stroke-width="1" marker-end="url(#arrow)" />
<path d="M438.0,90.0 A9.0,9.0 0 0,0 447.0,99.0" stroke="#FF0000" stroke-width="1" fill="none"/>
<path d="M542.0,99.0 A9.0,9.0 0 0,0 551.0,90.0" stroke="#FF0000" stroke-width="1" fill="none"/>
<path d="M560.0,81.0 A9.0,9.0 0 0,0 551.0,90.0" stroke="#FF0000" stroke-width="1" fill="none"/>
<line x1="438.0" y1="90.0" x2="438.0" y2="90.0" stroke="#FF0000" stroke-width="1" />
<line x1="551.0" y1="90.0" x2="551.0" y2="90.0" stroke="#FF0000" stroke-width="1" />
<line x1="411.0" y1="81.0" x2="425.0" y2="81.0" stroke="#FF0000" stroke-width="1" marker-end="url(#arrow)" />
<rect x="577.0" y="69.0" width="188.0" height="26.0" stroke="#FF0000" stroke-width="1" fill="#D3D3D3"/>
<text class="box_font" x="671.0" y="88.0">select-statement</text>
<line x1="559.0" y1="81.0" x2="573.0" y2="81.0" stroke="#FF0000" stroke-width="1" marker-end="url(#arrow)" />
<path d="M795.0,95.0 A13.0,13.0 0 0,1 795.0,69.0 H800.0 A13.0,13.0 0 0,1 800.0,95.0 z" stroke="#FF0000" stroke-width="1" fill="#D3D3D3"/>
<text class="name_font" x="797.5" y="88.0">)</text>
<line x1="764.0" y1="81.0" x2="778.0" y2="81.0" stroke="#FF0000" stroke-width="1" marker-end="url(#arrow)" />
<line x1="608.0" y1="17.0" x2="626.0" y2="17.0" stroke="#FF0000" stroke-width="1" />
<path d="M635.0,26.0 A9.0,9.0 0 0,0 626.0,17.0" stroke="#FF0000" stroke-width="1" fill="none"/>
<line x1="635.0" y1="26.0" x2="635.0" y2="41.0" stroke="#FF0000" stroke-width="1" />
<path d="M626.0,50.0 A9.0,9.0 0 0,0 635.0,41.0" stroke="#FF0000" stroke-width="1" fill="none"/>
<line x1="626.0" y1="50.0" x2="339.0" y2="50.0" stroke="#FF0000" stroke-width="1" marker-end="url(#arrow)" />
<line x1="335.0" y1="50.0" x2="44" y2="50.0" stroke="#FF0000" stroke-width="1" />
<path d="M44.0,50.0 A9,9 0 0,0 35.0,59.0" stroke="#FF0000" stroke-width="1" fill="none"/>
<line x1="35" y1="59.0" x2="35" y2="72.0" stroke="#FF0000" stroke-width="1" />
<path d="M35.0,72.0 A9,9 0 0,0 44.0,81.0" stroke="#FF0000" stroke-width="1" fill="none"/>
<line x1="44" y1="81.0" x2="58.0" y2="81.0" stroke="#FF0000" stroke-width="1" marker-end="url(#arrow)" />
<path d="M75.0,177.0 A13.0,13.0 0 0,1 75.0,151.0 H509.0 A13.0,13.0 0 0,1 509.0,177.0 z" stroke="#FF0000" stroke-width="1" fill="#D3D3D3"/>
<text class="name_font" x="292.0" y="170.0">statement-that-uses-recursive-table-name</text>
<line x1="813.0" y1="81.0" x2="831.0" y2="81.0" stroke="#FF0000" stroke-width="1" />
<path d="M840.0,90.0 A9.0,9.0 0 0,0 831.0,81.0" stroke="#FF0000" stroke-width="1" fill="none"/>
<line x1="840.0" y1="90.0" x2="840.0" y2="102.5" stroke="#FF0000" stroke-width="1" marker-end="url(#arrow)" />
<line x1="840.0" y1="106.5" x2="840.0" y2="123.0" stroke="#FF0000" stroke-width="1" />
<path d="M831.0,132.0 A9.0,9.0 0 0,0 840.0,123.0" stroke="#FF0000" stroke-width="1" fill="none"/>
<line x1="831.0" y1="132.0" x2="441.5" y2="132.0" stroke="#FF0000" stroke-width="1" marker-end="url(#arrow)" />
<line x1="437.5" y1="132.0" x2="44" y2="132.0" stroke="#FF0000" stroke-width="1" />
<path d="M44.0,132.0 A9,9 0 0,0 35.0,141.0" stroke="#FF0000" stroke-width="1" fill="none"/>
<line x1="35" y1="141.0" x2="35" y2="154.0" stroke="#FF0000" stroke-width="1" />
<path d="M35.0,154.0 A9,9 0 0,0 44.0,163.0" stroke="#FF0000" stroke-width="1" fill="none"/>
<line x1="44" y1="163.0" x2="58.0" y2="163.0" stroke="#FF0000" stroke-width="1" marker-end="url(#arrow)" />
<line x1="8" y1="17.0" x2="22.0" y2="17.0" stroke="#FF0000" stroke-width="1" marker-end="url(#arrow)" />
<circle cx="541.0" cy="163.0" r="2.0" stroke="#FF0000" stroke-width="1" fill="#FFFFFF"/>
<line x1="521.0" y1="163.0" x2="535.0" y2="163.0" stroke="#FF0000" stroke-width="1" marker-end="url(#arrow)" />
</svg>