<?xml version="1.0" encoding="UTF-8"?>
<svg width="393px" height="218px" viewBox="0 0 393 218" version="1.1" xmlns="http://www.w3.org/2000/svg" xmlns:xlink="http://www.w3.org/1999/xlink">
    <!-- Generator: Sketch 47.1 (45422) - http://www.bohemiancoding.com/sketch -->
    <title>mm-3m-mesh copy</title>
    <desc>Created with Sketch.</desc>
    <defs></defs>
    <g id="Page-1" stroke="none" stroke-width="1" fill="none" fill-rule="evenodd">
        <g id="mm-3m-mesh-copy">
            <g id="Round_block-Copy-24" transform="translate(137.000000, 125.000000)">
                <rect id="Rectangle-Copy-14" fill="#E1E1E1" x="0" y="0" width="123" height="32" rx="14"></rect>
                <path d="M38.5458984,20 L37.1630859,20 L37.1630859,16.0039062 C37.1630859,15.50781 37.0693369,15.1376965 36.8818359,14.8935547 C36.694335,14.6494128 36.4013692,14.5273438 36.0029297,14.5273438 C35.471677,14.5273438 35.0820325,14.7001936 34.8339844,15.0458984 C34.5859363,15.3916033 34.4619141,15.9667929 34.4619141,16.7714844 L34.4619141,20 L33.0849609,20 L33.0849609,13.5195312 L34.1630859,13.5195312 L34.3564453,14.3691406 L34.4267578,14.3691406 C34.6064462,14.0605453 34.8671858,13.8222665 35.2089844,13.6542969 C35.550783,13.4863273 35.9267558,13.4023438 36.3369141,13.4023438 C37.3330128,13.4023438 37.9931624,13.7421841 38.3173828,14.421875 L38.4111328,14.421875 C38.60254,14.1015609 38.8720686,13.8515634 39.2197266,13.671875 C39.5673846,13.4921866 39.9658181,13.4023438 40.4150391,13.4023438 C41.1884804,13.4023438 41.7519514,13.5976543 42.1054688,13.9882812 C42.4589861,14.3789082 42.6357422,14.9746054 42.6357422,15.7753906 L42.6357422,20 L41.2587891,20 L41.2587891,16.0039062 C41.2587891,15.50781 41.1640634,15.1376965 40.9746094,14.8935547 C40.7851553,14.6494128 40.4912129,14.5273438 40.0927734,14.5273438 C39.5576145,14.5273438 39.1660169,14.6943343 38.9179688,15.0283203 C38.6699206,15.3623064 38.5458984,15.8749965 38.5458984,16.5664062 L38.5458984,20 Z M48.6123047,20 L48.3369141,19.0976562 L48.2900391,19.0976562 C47.9775375,19.4921895 47.6630875,19.7607415 47.3466797,19.9033203 C47.0302719,20.0458992 46.6240259,20.1171875 46.1279297,20.1171875 C45.4912078,20.1171875 44.9941424,19.9453142 44.6367188,19.6015625 C44.2792951,19.2578108 44.1005859,18.7714875 44.1005859,18.1425781 C44.1005859,17.474606 44.3486303,16.9707048 44.8447266,16.6308594 C45.3408228,16.2910139 46.0966746,16.1054689 47.1123047,16.0742188 L48.2314453,16.0390625 L48.2314453,15.6933594 C48.2314453,15.2792948 48.1347666,14.9697276 47.9414062,14.7646484 C47.7480459,14.5595693 47.4482442,14.4570312 47.0419922,14.4570312 C46.7099593,14.4570312 46.3916031,14.5058589 46.0869141,14.6035156 C45.782225,14.7011724 45.4892592,14.8164056 45.2080078,14.9492188 L44.7626953,13.9648438 C45.1142596,13.7812491 45.4990213,13.641602 45.9169922,13.5458984 C46.334963,13.4501948 46.7294903,13.4023438 47.1005859,13.4023438 C47.9248088,13.4023438 48.5468729,13.5820295 48.9667969,13.9414062 C49.3867208,14.300783 49.5966797,14.8652305 49.5966797,15.6347656 L49.5966797,20 L48.6123047,20 Z M46.5615234,19.0625 C47.0615259,19.0625 47.4628891,18.922853 47.765625,18.6435547 C48.0683609,18.3642564 48.2197266,17.9726588 48.2197266,17.46875 L48.2197266,16.90625 L47.3876953,16.9414062 C46.7392546,16.9648439 46.2675796,17.0732412 45.9726562,17.2666016 C45.6777329,17.4599619 45.5302734,17.7558574 45.5302734,18.1542969 C45.5302734,18.4433608 45.6162101,18.6669914 45.7880859,18.8251953 C45.9599618,18.9833992 46.2177717,19.0625 46.5615234,19.0625 Z M55.8720703,18.1542969 C55.8720703,18.7871125 55.6416039,19.2724592 55.1806641,19.6103516 C54.7197243,19.9482439 54.0595746,20.1171875 53.2001953,20.1171875 C52.3369097,20.1171875 51.6435573,19.9863294 51.1201172,19.7246094 L51.1201172,18.5351562 C51.8818397,18.8867205 52.590817,19.0625 53.2470703,19.0625 C54.0947308,19.0625 54.5185547,18.8066432 54.5185547,18.2949219 C54.5185547,18.1308586 54.4716802,17.9941412 54.3779297,17.8847656 C54.2841792,17.7753901 54.1298839,17.66211 53.9150391,17.5449219 C53.7001942,17.4277338 53.4013691,17.2949226 53.0185547,17.1464844 C52.2724572,16.8574204 51.7675794,16.5683608 51.5039062,16.2792969 C51.2402331,15.9902329 51.1083984,15.6152367 51.1083984,15.1542969 C51.1083984,14.5996066 51.332029,14.1689468 51.7792969,13.8623047 C52.2265647,13.5556625 52.8349571,13.4023438 53.6044922,13.4023438 C54.3662147,13.4023438 55.0869107,13.5566391 55.7666016,13.8652344 L55.3212891,14.9023438 C54.6220668,14.6132798 54.0341821,14.46875 53.5576172,14.46875 C52.8310511,14.46875 52.4677734,14.6757792 52.4677734,15.0898438 C52.4677734,15.2929698 52.5624991,15.464843 52.7519531,15.6054688 C52.9414072,15.7460945 53.354489,15.9394519 53.9912109,16.1855469 C54.5263699,16.3925792 54.9150379,16.5820304 55.1572266,16.7539062 C55.3994153,16.9257821 55.579101,17.1240223 55.6962891,17.3486328 C55.8134771,17.5732433 55.8720703,17.8417953 55.8720703,18.1542969 Z M59.7744141,19.0039062 C60.1103532,19.0039062 60.4462874,18.9511724 60.7822266,18.8457031 L60.7822266,19.8828125 C60.6298821,19.9492191 60.433595,20.0048826 60.1933594,20.0498047 C59.9531238,20.0947268 59.7041029,20.1171875 59.4462891,20.1171875 C58.141595,20.1171875 57.4892578,19.4296944 57.4892578,18.0546875 L57.4892578,14.5625 L56.6044922,14.5625 L56.6044922,13.953125 L57.5537109,13.4492188 L58.0224609,12.078125 L58.8720703,12.078125 L58.8720703,13.5195312 L60.7177734,13.5195312 L60.7177734,14.5625 L58.8720703,14.5625 L58.8720703,18.03125 C58.8720703,18.3632829 58.9550773,18.6083976 59.1210938,18.7666016 C59.2871102,18.9248055 59.5048815,19.0039062 59.7744141,19.0039062 Z M64.9072266,20.1171875 C63.899409,20.1171875 63.111331,19.8232451 62.5429688,19.2353516 C61.9746065,18.647458 61.6904297,17.8378958 61.6904297,16.8066406 C61.6904297,15.7480416 61.9540989,14.9160187 62.4814453,14.3105469 C63.0087917,13.7050751 63.7333938,13.4023438 64.6552734,13.4023438 C65.5107465,13.4023438 66.186521,13.6621068 66.6826172,14.1816406 C67.1787134,14.7011745 67.4267578,15.4160111 67.4267578,16.3261719 L67.4267578,17.0703125 L63.1083984,17.0703125 C63.1279298,17.6992219 63.29785,18.1826155 63.6181641,18.5205078 C63.9384782,18.8584001 64.3896455,19.0273438 64.9716797,19.0273438 C65.3544941,19.0273438 65.7109358,18.9912113 66.0410156,18.9189453 C66.3710954,18.8466793 66.725584,18.7265633 67.1044922,18.5585938 L67.1044922,19.6777344 C66.768553,19.8378914 66.4287127,19.9511715 66.0849609,20.0175781 C65.7412092,20.0839847 65.348635,20.1171875 64.9072266,20.1171875 Z M64.6552734,14.4453125 C64.2177712,14.4453125 63.8671888,14.583983 63.6035156,14.8613281 C63.3398424,15.1386733 63.1826174,15.5429661 63.1318359,16.0742188 L66.0732422,16.0742188 C66.0654296,15.5390598 65.9365247,15.1337904 65.6865234,14.8583984 C65.4365222,14.5830064 65.0927756,14.4453125 64.6552734,14.4453125 Z M72.2783203,13.4023438 C72.5556654,13.4023438 72.7841788,13.4218748 72.9638672,13.4609375 L72.8291016,14.7441406 C72.6337881,14.6972654 72.4306651,14.6738281 72.2197266,14.6738281 C71.6689426,14.6738281 71.222658,14.8535138 70.8808594,15.2128906 C70.5390608,15.5722674 70.3681641,16.0390596 70.3681641,16.6132812 L70.3681641,20 L68.9912109,20 L68.9912109,13.5195312 L70.0693359,13.5195312 L70.2509766,14.6621094 L70.3212891,14.6621094 C70.5361339,14.2753887 70.8164045,13.9687511 71.1621094,13.7421875 C71.5078142,13.5156239 71.8798808,13.4023438 72.2783203,13.4023438 Z M82.0927734,14.9023438 L81.7705078,16.5664062 L83.3525391,16.5664062 L83.3525391,17.5507812 L81.5771484,17.5507812 L81.1083984,20 L80.0654297,20 L80.5341797,17.5507812 L79.0810547,17.5507812 L78.6123047,20 L77.5927734,20 L78.0380859,17.5507812 L76.5732422,17.5507812 L76.5732422,16.5664062 L78.2314453,16.5664062 L78.5654297,14.9023438 L77.0185547,14.9023438 L77.0185547,13.9179688 L78.7353516,13.9179688 L79.2041016,11.4453125 L80.2587891,11.4453125 L79.7900391,13.9179688 L81.2666016,13.9179688 L81.7353516,11.4453125 L82.7548828,11.4453125 L82.2861328,13.9179688 L83.7626953,13.9179688 L83.7626953,14.9023438 L82.0927734,14.9023438 Z M79.2626953,16.5664062 L80.7275391,16.5664062 L81.0615234,14.9023438 L79.5966797,14.9023438 L79.2626953,16.5664062 Z M90.0615234,13.4023438 C90.0615234,13.9453152 89.9033219,14.3974591 89.5869141,14.7587891 C89.2705062,15.120119 88.8251982,15.3632806 88.2509766,15.4882812 L88.2509766,15.5351562 C88.93848,15.6210942 89.4540998,15.8349592 89.7978516,16.1767578 C90.1416033,16.5185564 90.3134766,16.9726534 90.3134766,17.5390625 C90.3134766,18.3632854 90.0224638,18.9990212 89.4404297,19.4462891 C88.8583955,19.8935569 88.0302788,20.1171875 86.9560547,20.1171875 C86.0068312,20.1171875 85.2060579,19.9628922 84.5537109,19.6542969 L84.5537109,18.4296875 C84.916994,18.6093759 85.3017558,18.7480464 85.7080078,18.8457031 C86.1142598,18.9433599 86.5048809,18.9921875 86.8798828,18.9921875 C87.5439486,18.9921875 88.0400374,18.8691419 88.3681641,18.6230469 C88.6962907,18.3769519 88.8603516,17.9960963 88.8603516,17.4804688 C88.8603516,17.0234352 88.6787128,16.6875011 88.3154297,16.4726562 C87.9521466,16.2578114 87.3818398,16.1503906 86.6044922,16.1503906 L85.8603516,16.1503906 L85.8603516,15.03125 L86.6162109,15.03125 C87.9834053,15.03125 88.6669922,14.5585985 88.6669922,13.6132812 C88.6669922,13.2460919 88.5478528,12.9628916 88.3095703,12.7636719 C88.0712879,12.5644521 87.7197289,12.4648438 87.2548828,12.4648438 C86.9306624,12.4648438 86.6181656,12.5107417 86.3173828,12.6025391 C86.0166001,12.6943364 85.6611349,12.8730455 85.2509766,13.1386719 L84.5771484,12.1777344 C85.3623086,11.5996065 86.2744089,11.3105469 87.3134766,11.3105469 C88.1767621,11.3105469 88.8505835,11.4960919 89.3349609,11.8671875 C89.8193384,12.2382831 90.0615234,12.7499967 90.0615234,13.4023438 Z" id="text" fill="#1F1E1E"></path>
            </g>
            <g id="Round_block-Copy-42" transform="translate(55.000000, 61.000000)">
                <rect id="Rectangle-Copy-14" fill="#E1E1E1" x="0" y="0" width="124" height="32" rx="14"></rect>
                <path d="M39.0458984,20 L37.6630859,20 L37.6630859,16.0039062 C37.6630859,15.50781 37.5693369,15.1376965 37.3818359,14.8935547 C37.194335,14.6494128 36.9013692,14.5273438 36.5029297,14.5273438 C35.971677,14.5273438 35.5820325,14.7001936 35.3339844,15.0458984 C35.0859363,15.3916033 34.9619141,15.9667929 34.9619141,16.7714844 L34.9619141,20 L33.5849609,20 L33.5849609,13.5195312 L34.6630859,13.5195312 L34.8564453,14.3691406 L34.9267578,14.3691406 C35.1064462,14.0605453 35.3671858,13.8222665 35.7089844,13.6542969 C36.050783,13.4863273 36.4267558,13.4023438 36.8369141,13.4023438 C37.8330128,13.4023438 38.4931624,13.7421841 38.8173828,14.421875 L38.9111328,14.421875 C39.10254,14.1015609 39.3720686,13.8515634 39.7197266,13.671875 C40.0673846,13.4921866 40.4658181,13.4023438 40.9150391,13.4023438 C41.6884804,13.4023438 42.2519514,13.5976543 42.6054688,13.9882812 C42.9589861,14.3789082 43.1357422,14.9746054 43.1357422,15.7753906 L43.1357422,20 L41.7587891,20 L41.7587891,16.0039062 C41.7587891,15.50781 41.6640634,15.1376965 41.4746094,14.8935547 C41.2851553,14.6494128 40.9912129,14.5273438 40.5927734,14.5273438 C40.0576145,14.5273438 39.6660169,14.6943343 39.4179688,15.0283203 C39.1699206,15.3623064 39.0458984,15.8749965 39.0458984,16.5664062 L39.0458984,20 Z M49.1123047,20 L48.8369141,19.0976562 L48.7900391,19.0976562 C48.4775375,19.4921895 48.1630875,19.7607415 47.8466797,19.9033203 C47.5302719,20.0458992 47.1240259,20.1171875 46.6279297,20.1171875 C45.9912078,20.1171875 45.4941424,19.9453142 45.1367188,19.6015625 C44.7792951,19.2578108 44.6005859,18.7714875 44.6005859,18.1425781 C44.6005859,17.474606 44.8486303,16.9707048 45.3447266,16.6308594 C45.8408228,16.2910139 46.5966746,16.1054689 47.6123047,16.0742188 L48.7314453,16.0390625 L48.7314453,15.6933594 C48.7314453,15.2792948 48.6347666,14.9697276 48.4414062,14.7646484 C48.2480459,14.5595693 47.9482442,14.4570312 47.5419922,14.4570312 C47.2099593,14.4570312 46.8916031,14.5058589 46.5869141,14.6035156 C46.282225,14.7011724 45.9892592,14.8164056 45.7080078,14.9492188 L45.2626953,13.9648438 C45.6142596,13.7812491 45.9990213,13.641602 46.4169922,13.5458984 C46.834963,13.4501948 47.2294903,13.4023438 47.6005859,13.4023438 C48.4248088,13.4023438 49.0468729,13.5820295 49.4667969,13.9414062 C49.8867208,14.300783 50.0966797,14.8652305 50.0966797,15.6347656 L50.0966797,20 L49.1123047,20 Z M47.0615234,19.0625 C47.5615259,19.0625 47.9628891,18.922853 48.265625,18.6435547 C48.5683609,18.3642564 48.7197266,17.9726588 48.7197266,17.46875 L48.7197266,16.90625 L47.8876953,16.9414062 C47.2392546,16.9648439 46.7675796,17.0732412 46.4726562,17.2666016 C46.1777329,17.4599619 46.0302734,17.7558574 46.0302734,18.1542969 C46.0302734,18.4433608 46.1162101,18.6669914 46.2880859,18.8251953 C46.4599618,18.9833992 46.7177717,19.0625 47.0615234,19.0625 Z M56.3720703,18.1542969 C56.3720703,18.7871125 56.1416039,19.2724592 55.6806641,19.6103516 C55.2197243,19.9482439 54.5595746,20.1171875 53.7001953,20.1171875 C52.8369097,20.1171875 52.1435573,19.9863294 51.6201172,19.7246094 L51.6201172,18.5351562 C52.3818397,18.8867205 53.090817,19.0625 53.7470703,19.0625 C54.5947308,19.0625 55.0185547,18.8066432 55.0185547,18.2949219 C55.0185547,18.1308586 54.9716802,17.9941412 54.8779297,17.8847656 C54.7841792,17.7753901 54.6298839,17.66211 54.4150391,17.5449219 C54.2001942,17.4277338 53.9013691,17.2949226 53.5185547,17.1464844 C52.7724572,16.8574204 52.2675794,16.5683608 52.0039062,16.2792969 C51.7402331,15.9902329 51.6083984,15.6152367 51.6083984,15.1542969 C51.6083984,14.5996066 51.832029,14.1689468 52.2792969,13.8623047 C52.7265647,13.5556625 53.3349571,13.4023438 54.1044922,13.4023438 C54.8662147,13.4023438 55.5869107,13.5566391 56.2666016,13.8652344 L55.8212891,14.9023438 C55.1220668,14.6132798 54.5341821,14.46875 54.0576172,14.46875 C53.3310511,14.46875 52.9677734,14.6757792 52.9677734,15.0898438 C52.9677734,15.2929698 53.0624991,15.464843 53.2519531,15.6054688 C53.4414072,15.7460945 53.854489,15.9394519 54.4912109,16.1855469 C55.0263699,16.3925792 55.4150379,16.5820304 55.6572266,16.7539062 C55.8994153,16.9257821 56.079101,17.1240223 56.1962891,17.3486328 C56.3134771,17.5732433 56.3720703,17.8417953 56.3720703,18.1542969 Z M60.2744141,19.0039062 C60.6103532,19.0039062 60.9462874,18.9511724 61.2822266,18.8457031 L61.2822266,19.8828125 C61.1298821,19.9492191 60.933595,20.0048826 60.6933594,20.0498047 C60.4531238,20.0947268 60.2041029,20.1171875 59.9462891,20.1171875 C58.641595,20.1171875 57.9892578,19.4296944 57.9892578,18.0546875 L57.9892578,14.5625 L57.1044922,14.5625 L57.1044922,13.953125 L58.0537109,13.4492188 L58.5224609,12.078125 L59.3720703,12.078125 L59.3720703,13.5195312 L61.2177734,13.5195312 L61.2177734,14.5625 L59.3720703,14.5625 L59.3720703,18.03125 C59.3720703,18.3632829 59.4550773,18.6083976 59.6210938,18.7666016 C59.7871102,18.9248055 60.0048815,19.0039062 60.2744141,19.0039062 Z M65.4072266,20.1171875 C64.399409,20.1171875 63.611331,19.8232451 63.0429688,19.2353516 C62.4746065,18.647458 62.1904297,17.8378958 62.1904297,16.8066406 C62.1904297,15.7480416 62.4540989,14.9160187 62.9814453,14.3105469 C63.5087917,13.7050751 64.2333938,13.4023438 65.1552734,13.4023438 C66.0107465,13.4023438 66.686521,13.6621068 67.1826172,14.1816406 C67.6787134,14.7011745 67.9267578,15.4160111 67.9267578,16.3261719 L67.9267578,17.0703125 L63.6083984,17.0703125 C63.6279298,17.6992219 63.79785,18.1826155 64.1181641,18.5205078 C64.4384782,18.8584001 64.8896455,19.0273438 65.4716797,19.0273438 C65.8544941,19.0273438 66.2109358,18.9912113 66.5410156,18.9189453 C66.8710954,18.8466793 67.225584,18.7265633 67.6044922,18.5585938 L67.6044922,19.6777344 C67.268553,19.8378914 66.9287127,19.9511715 66.5849609,20.0175781 C66.2412092,20.0839847 65.848635,20.1171875 65.4072266,20.1171875 Z M65.1552734,14.4453125 C64.7177712,14.4453125 64.3671888,14.583983 64.1035156,14.8613281 C63.8398424,15.1386733 63.6826174,15.5429661 63.6318359,16.0742188 L66.5732422,16.0742188 C66.5654296,15.5390598 66.4365247,15.1337904 66.1865234,14.8583984 C65.9365222,14.5830064 65.5927756,14.4453125 65.1552734,14.4453125 Z M72.7783203,13.4023438 C73.0556654,13.4023438 73.2841788,13.4218748 73.4638672,13.4609375 L73.3291016,14.7441406 C73.1337881,14.6972654 72.9306651,14.6738281 72.7197266,14.6738281 C72.1689426,14.6738281 71.722658,14.8535138 71.3808594,15.2128906 C71.0390608,15.5722674 70.8681641,16.0390596 70.8681641,16.6132812 L70.8681641,20 L69.4912109,20 L69.4912109,13.5195312 L70.5693359,13.5195312 L70.7509766,14.6621094 L70.8212891,14.6621094 C71.0361339,14.2753887 71.3164045,13.9687511 71.6621094,13.7421875 C72.0078142,13.5156239 72.3798808,13.4023438 72.7783203,13.4023438 Z M82.5927734,14.9023438 L82.2705078,16.5664062 L83.8525391,16.5664062 L83.8525391,17.5507812 L82.0771484,17.5507812 L81.6083984,20 L80.5654297,20 L81.0341797,17.5507812 L79.5810547,17.5507812 L79.1123047,20 L78.0927734,20 L78.5380859,17.5507812 L77.0732422,17.5507812 L77.0732422,16.5664062 L78.7314453,16.5664062 L79.0654297,14.9023438 L77.5185547,14.9023438 L77.5185547,13.9179688 L79.2353516,13.9179688 L79.7041016,11.4453125 L80.7587891,11.4453125 L80.2900391,13.9179688 L81.7666016,13.9179688 L82.2353516,11.4453125 L83.2548828,11.4453125 L82.7861328,13.9179688 L84.2626953,13.9179688 L84.2626953,14.9023438 L82.5927734,14.9023438 Z M79.7626953,16.5664062 L81.2275391,16.5664062 L81.5615234,14.9023438 L80.0966797,14.9023438 L79.7626953,16.5664062 Z M89.1201172,20 L87.7431641,20 L87.7431641,14.46875 C87.7431641,13.8085904 87.7587889,13.2851582 87.7900391,12.8984375 C87.7001949,12.992188 87.5898444,13.0957026 87.4589844,13.2089844 C87.3281243,13.3222662 86.8896522,13.6816376 86.1435547,14.2871094 L85.4521484,13.4140625 L87.9716797,11.4335938 L89.1201172,11.4335938 L89.1201172,20 Z" id="text" fill="#1F1E1E"></path>
            </g>
            <g id="Round_block-Copy-43" transform="translate(218.000000, 61.000000)">
                <rect id="Rectangle-Copy-14" fill="#E1E1E1" x="0" y="0" width="124" height="32" rx="14"></rect>
                <path d="M39.0458984,20 L37.6630859,20 L37.6630859,16.0039062 C37.6630859,15.50781 37.5693369,15.1376965 37.3818359,14.8935547 C37.194335,14.6494128 36.9013692,14.5273438 36.5029297,14.5273438 C35.971677,14.5273438 35.5820325,14.7001936 35.3339844,15.0458984 C35.0859363,15.3916033 34.9619141,15.9667929 34.9619141,16.7714844 L34.9619141,20 L33.5849609,20 L33.5849609,13.5195312 L34.6630859,13.5195312 L34.8564453,14.3691406 L34.9267578,14.3691406 C35.1064462,14.0605453 35.3671858,13.8222665 35.7089844,13.6542969 C36.050783,13.4863273 36.4267558,13.4023438 36.8369141,13.4023438 C37.8330128,13.4023438 38.4931624,13.7421841 38.8173828,14.421875 L38.9111328,14.421875 C39.10254,14.1015609 39.3720686,13.8515634 39.7197266,13.671875 C40.0673846,13.4921866 40.4658181,13.4023438 40.9150391,13.4023438 C41.6884804,13.4023438 42.2519514,13.5976543 42.6054688,13.9882812 C42.9589861,14.3789082 43.1357422,14.9746054 43.1357422,15.7753906 L43.1357422,20 L41.7587891,20 L41.7587891,16.0039062 C41.7587891,15.50781 41.6640634,15.1376965 41.4746094,14.8935547 C41.2851553,14.6494128 40.9912129,14.5273438 40.5927734,14.5273438 C40.0576145,14.5273438 39.6660169,14.6943343 39.4179688,15.0283203 C39.1699206,15.3623064 39.0458984,15.8749965 39.0458984,16.5664062 L39.0458984,20 Z M49.1123047,20 L48.8369141,19.0976562 L48.7900391,19.0976562 C48.4775375,19.4921895 48.1630875,19.7607415 47.8466797,19.9033203 C47.5302719,20.0458992 47.1240259,20.1171875 46.6279297,20.1171875 C45.9912078,20.1171875 45.4941424,19.9453142 45.1367188,19.6015625 C44.7792951,19.2578108 44.6005859,18.7714875 44.6005859,18.1425781 C44.6005859,17.474606 44.8486303,16.9707048 45.3447266,16.6308594 C45.8408228,16.2910139 46.5966746,16.1054689 47.6123047,16.0742188 L48.7314453,16.0390625 L48.7314453,15.6933594 C48.7314453,15.2792948 48.6347666,14.9697276 48.4414062,14.7646484 C48.2480459,14.5595693 47.9482442,14.4570312 47.5419922,14.4570312 C47.2099593,14.4570312 46.8916031,14.5058589 46.5869141,14.6035156 C46.282225,14.7011724 45.9892592,14.8164056 45.7080078,14.9492188 L45.2626953,13.9648438 C45.6142596,13.7812491 45.9990213,13.641602 46.4169922,13.5458984 C46.834963,13.4501948 47.2294903,13.4023438 47.6005859,13.4023438 C48.4248088,13.4023438 49.0468729,13.5820295 49.4667969,13.9414062 C49.8867208,14.300783 50.0966797,14.8652305 50.0966797,15.6347656 L50.0966797,20 L49.1123047,20 Z M47.0615234,19.0625 C47.5615259,19.0625 47.9628891,18.922853 48.265625,18.6435547 C48.5683609,18.3642564 48.7197266,17.9726588 48.7197266,17.46875 L48.7197266,16.90625 L47.8876953,16.9414062 C47.2392546,16.9648439 46.7675796,17.0732412 46.4726562,17.2666016 C46.1777329,17.4599619 46.0302734,17.7558574 46.0302734,18.1542969 C46.0302734,18.4433608 46.1162101,18.6669914 46.2880859,18.8251953 C46.4599618,18.9833992 46.7177717,19.0625 47.0615234,19.0625 Z M56.3720703,18.1542969 C56.3720703,18.7871125 56.1416039,19.2724592 55.6806641,19.6103516 C55.2197243,19.9482439 54.5595746,20.1171875 53.7001953,20.1171875 C52.8369097,20.1171875 52.1435573,19.9863294 51.6201172,19.7246094 L51.6201172,18.5351562 C52.3818397,18.8867205 53.090817,19.0625 53.7470703,19.0625 C54.5947308,19.0625 55.0185547,18.8066432 55.0185547,18.2949219 C55.0185547,18.1308586 54.9716802,17.9941412 54.8779297,17.8847656 C54.7841792,17.7753901 54.6298839,17.66211 54.4150391,17.5449219 C54.2001942,17.4277338 53.9013691,17.2949226 53.5185547,17.1464844 C52.7724572,16.8574204 52.2675794,16.5683608 52.0039062,16.2792969 C51.7402331,15.9902329 51.6083984,15.6152367 51.6083984,15.1542969 C51.6083984,14.5996066 51.832029,14.1689468 52.2792969,13.8623047 C52.7265647,13.5556625 53.3349571,13.4023438 54.1044922,13.4023438 C54.8662147,13.4023438 55.5869107,13.5566391 56.2666016,13.8652344 L55.8212891,14.9023438 C55.1220668,14.6132798 54.5341821,14.46875 54.0576172,14.46875 C53.3310511,14.46875 52.9677734,14.6757792 52.9677734,15.0898438 C52.9677734,15.2929698 53.0624991,15.464843 53.2519531,15.6054688 C53.4414072,15.7460945 53.854489,15.9394519 54.4912109,16.1855469 C55.0263699,16.3925792 55.4150379,16.5820304 55.6572266,16.7539062 C55.8994153,16.9257821 56.079101,17.1240223 56.1962891,17.3486328 C56.3134771,17.5732433 56.3720703,17.8417953 56.3720703,18.1542969 Z M60.2744141,19.0039062 C60.6103532,19.0039062 60.9462874,18.9511724 61.2822266,18.8457031 L61.2822266,19.8828125 C61.1298821,19.9492191 60.933595,20.0048826 60.6933594,20.0498047 C60.4531238,20.0947268 60.2041029,20.1171875 59.9462891,20.1171875 C58.641595,20.1171875 57.9892578,19.4296944 57.9892578,18.0546875 L57.9892578,14.5625 L57.1044922,14.5625 L57.1044922,13.953125 L58.0537109,13.4492188 L58.5224609,12.078125 L59.3720703,12.078125 L59.3720703,13.5195312 L61.2177734,13.5195312 L61.2177734,14.5625 L59.3720703,14.5625 L59.3720703,18.03125 C59.3720703,18.3632829 59.4550773,18.6083976 59.6210938,18.7666016 C59.7871102,18.9248055 60.0048815,19.0039062 60.2744141,19.0039062 Z M65.4072266,20.1171875 C64.399409,20.1171875 63.611331,19.8232451 63.0429688,19.2353516 C62.4746065,18.647458 62.1904297,17.8378958 62.1904297,16.8066406 C62.1904297,15.7480416 62.4540989,14.9160187 62.9814453,14.3105469 C63.5087917,13.7050751 64.2333938,13.4023438 65.1552734,13.4023438 C66.0107465,13.4023438 66.686521,13.6621068 67.1826172,14.1816406 C67.6787134,14.7011745 67.9267578,15.4160111 67.9267578,16.3261719 L67.9267578,17.0703125 L63.6083984,17.0703125 C63.6279298,17.6992219 63.79785,18.1826155 64.1181641,18.5205078 C64.4384782,18.8584001 64.8896455,19.0273438 65.4716797,19.0273438 C65.8544941,19.0273438 66.2109358,18.9912113 66.5410156,18.9189453 C66.8710954,18.8466793 67.225584,18.7265633 67.6044922,18.5585938 L67.6044922,19.6777344 C67.268553,19.8378914 66.9287127,19.9511715 66.5849609,20.0175781 C66.2412092,20.0839847 65.848635,20.1171875 65.4072266,20.1171875 Z M65.1552734,14.4453125 C64.7177712,14.4453125 64.3671888,14.583983 64.1035156,14.8613281 C63.8398424,15.1386733 63.6826174,15.5429661 63.6318359,16.0742188 L66.5732422,16.0742188 C66.5654296,15.5390598 66.4365247,15.1337904 66.1865234,14.8583984 C65.9365222,14.5830064 65.5927756,14.4453125 65.1552734,14.4453125 Z M72.7783203,13.4023438 C73.0556654,13.4023438 73.2841788,13.4218748 73.4638672,13.4609375 L73.3291016,14.7441406 C73.1337881,14.6972654 72.9306651,14.6738281 72.7197266,14.6738281 C72.1689426,14.6738281 71.722658,14.8535138 71.3808594,15.2128906 C71.0390608,15.5722674 70.8681641,16.0390596 70.8681641,16.6132812 L70.8681641,20 L69.4912109,20 L69.4912109,13.5195312 L70.5693359,13.5195312 L70.7509766,14.6621094 L70.8212891,14.6621094 C71.0361339,14.2753887 71.3164045,13.9687511 71.6621094,13.7421875 C72.0078142,13.5156239 72.3798808,13.4023438 72.7783203,13.4023438 Z M82.5927734,14.9023438 L82.2705078,16.5664062 L83.8525391,16.5664062 L83.8525391,17.5507812 L82.0771484,17.5507812 L81.6083984,20 L80.5654297,20 L81.0341797,17.5507812 L79.5810547,17.5507812 L79.1123047,20 L78.0927734,20 L78.5380859,17.5507812 L77.0732422,17.5507812 L77.0732422,16.5664062 L78.7314453,16.5664062 L79.0654297,14.9023438 L77.5185547,14.9023438 L77.5185547,13.9179688 L79.2353516,13.9179688 L79.7041016,11.4453125 L80.7587891,11.4453125 L80.2900391,13.9179688 L81.7666016,13.9179688 L82.2353516,11.4453125 L83.2548828,11.4453125 L82.7861328,13.9179688 L84.2626953,13.9179688 L84.2626953,14.9023438 L82.5927734,14.9023438 Z M79.7626953,16.5664062 L81.2275391,16.5664062 L81.5615234,14.9023438 L80.0966797,14.9023438 L79.7626953,16.5664062 Z M90.8837891,20 L85.0771484,20 L85.0771484,18.9570312 L87.2861328,16.7363281 C87.9384798,16.068356 88.3710927,15.594728 88.5839844,15.3154297 C88.7968761,15.0361314 88.9521479,14.7734387 89.0498047,14.5273438 C89.1474614,14.2812488 89.1962891,14.0175795 89.1962891,13.7363281 C89.1962891,13.3496074 89.0800793,13.044923 88.8476562,12.8222656 C88.6152332,12.5996083 88.2939474,12.4882812 87.8837891,12.4882812 C87.5556624,12.4882812 87.2382828,12.5488275 86.9316406,12.6699219 C86.6249985,12.7910162 86.2705098,13.009764 85.8681641,13.3261719 L85.1240234,12.4179688 C85.6005883,12.015623 86.0634743,11.7304696 86.5126953,11.5625 C86.9619163,11.3945304 87.4404271,11.3105469 87.9482422,11.3105469 C88.7451212,11.3105469 89.3837867,11.5185526 89.8642578,11.9345703 C90.344729,12.350588 90.5849609,12.9101527 90.5849609,13.6132812 C90.5849609,14.0000019 90.5156257,14.3671858 90.3769531,14.7148438 C90.2382806,15.0625017 90.0253921,15.4208966 89.7382812,15.7900391 C89.4511704,16.1591815 88.9736362,16.6582 88.3056641,17.2871094 L86.8173828,18.7285156 L86.8173828,18.7871094 L90.8837891,18.7871094 L90.8837891,20 Z" id="text" fill="#1F1E1E"></path>
            </g>
            <g id="Arrow2" transform="translate(112.000000, 95.000000)" stroke="#FF2E2F">
                <path d="M5,6 L5,36 L5,36 C5,41.5228475 9.4771525,46 15,46 L18,46" id="Path-8-Copy-28"></path>
                <g id="Arrow_red" transform="translate(18.000000, 41.500000)" fill="#FF2E2F" stroke-linejoin="round">
                    <polygon id="Path-14-Copy-14" transform="translate(3.000000, 4.500000) rotate(-270.000000) translate(-3.000000, -4.500000) " points="-1 7 3 2 7 7"></polygon>
                </g>
                <g id="Arrow_red" transform="translate(5.000000, 3.000000) scale(-1, 1) rotate(-90.000000) translate(-5.000000, -3.000000) translate(2.000000, -1.500000)" fill="#FF2E2F" stroke-linejoin="round">
                    <polygon id="Path-14-Copy-14" transform="translate(3.000000, 4.500000) rotate(-270.000000) translate(-3.000000, -4.500000) " points="-1 7 3 2 7 7"></polygon>
                </g>
            </g>
            <g id="Arrow3" transform="translate(262.000000, 95.000000)" stroke="#FF2E2F">
                <path d="M5,5 L5,36 L5,36 C5,41.5228475 9.4771525,46 15,46 L18,46" id="Path-8-Copy-27" transform="translate(11.500000, 25.500000) scale(-1, 1) translate(-11.500000, -25.500000) "></path>
                <g id="Arrow_red" transform="translate(18.000000, 3.000000) scale(-1, 1) rotate(-90.000000) translate(-18.000000, -3.000000) translate(15.000000, -1.500000)" fill="#FF2E2F" stroke-linejoin="round">
                    <polygon id="Path-14-Copy-14" transform="translate(3.000000, 4.500000) rotate(-270.000000) translate(-3.000000, -4.500000) " points="-1 7 3 2 7 7"></polygon>
                </g>
                <g id="Arrow_red" transform="translate(3.000000, 46.000000) scale(-1, 1) translate(-3.000000, -46.000000) translate(0.000000, 41.500000)" fill="#FF2E2F" stroke-linejoin="round">
                    <polygon id="Path-14-Copy-14" transform="translate(3.000000, 4.500000) rotate(-270.000000) translate(-3.000000, -4.500000) " points="-1 7 3 2 7 7"></polygon>
                </g>
            </g>
            <g id="Arrow1" transform="translate(181.000000, 72.000000)" stroke="#FF2E2F">
                <g id="Arrow_red" transform="translate(28.000000, 0.500000)" fill="#FF2E2F" stroke-linejoin="round">
                    <polygon id="Path-14-Copy-14" transform="translate(3.000000, 4.500000) rotate(-270.000000) translate(-3.000000, -4.500000) " points="-1 7 3 2 7 7"></polygon>
                </g>
                <g id="Arrow_red" transform="translate(3.000000, 5.000000) scale(-1, 1) translate(-3.000000, -5.000000) translate(0.000000, 0.500000)" fill="#FF2E2F" stroke-linejoin="round">
                    <polygon id="Path-14-Copy-14" transform="translate(3.000000, 4.500000) rotate(-270.000000) translate(-3.000000, -4.500000) " points="-1 7 3 2 7 7"></polygon>
                </g>
                <path d="M5,5 L31,5" id="Path-15-Copy"></path>
            </g>
        </g>
    </g>
</svg>