<?xml version="1.0" encoding="UTF-8"?>
<svg width="633px" height="218px" viewBox="0 0 633 218" version="1.1" xmlns="http://www.w3.org/2000/svg" xmlns:xlink="http://www.w3.org/1999/xlink">
    <!-- Generator: Sketch 47.1 (45422) - http://www.bohemiancoding.com/sketch -->
    <title>no-cascade copy</title>
    <desc>Created with Sketch.</desc>
    <defs>
        <rect id="path-1" x="0" y="0" width="526" height="143" rx="4"></rect>
        <filter x="-299.6%" y="-0.3%" width="699.1%" height="100.6%" filterUnits="objectBoundingBox" id="filter-3">
            <feGaussianBlur stdDeviation="1" in="SourceGraphic"></feGaussianBlur>
        </filter>
        <filter x="-299.6%" y="-0.3%" width="699.1%" height="100.6%" filterUnits="objectBoundingBox" id="filter-4">
            <feGaussianBlur stdDeviation="1" in="SourceGraphic"></feGaussianBlur>
        </filter>
        <filter x="-299.6%" y="-0.3%" width="699.1%" height="100.6%" filterUnits="objectBoundingBox" id="filter-5">
            <feGaussianBlur stdDeviation="1" in="SourceGraphic"></feGaussianBlur>
        </filter>
        <filter x="-299.6%" y="-0.3%" width="699.1%" height="100.6%" filterUnits="objectBoundingBox" id="filter-6">
            <feGaussianBlur stdDeviation="1" in="SourceGraphic"></feGaussianBlur>
        </filter>
        <filter x="-299.6%" y="-0.3%" width="699.1%" height="100.6%" filterUnits="objectBoundingBox" id="filter-7">
            <feGaussianBlur stdDeviation="1" in="SourceGraphic"></feGaussianBlur>
        </filter>
        <filter x="-299.6%" y="-0.3%" width="699.1%" height="100.6%" filterUnits="objectBoundingBox" id="filter-8">
            <feGaussianBlur stdDeviation="1" in="SourceGraphic"></feGaussianBlur>
        </filter>
        <filter x="-299.6%" y="-0.3%" width="699.1%" height="100.6%" filterUnits="objectBoundingBox" id="filter-9">
            <feGaussianBlur stdDeviation="1" in="SourceGraphic"></feGaussianBlur>
        </filter>
        <filter x="-299.6%" y="-0.3%" width="699.1%" height="100.6%" filterUnits="objectBoundingBox" id="filter-10">
            <feGaussianBlur stdDeviation="1" in="SourceGraphic"></feGaussianBlur>
        </filter>
        <filter x="-299.6%" y="-0.3%" width="699.1%" height="100.6%" filterUnits="objectBoundingBox" id="filter-11">
            <feGaussianBlur stdDeviation="1" in="SourceGraphic"></feGaussianBlur>
        </filter>
        <filter x="-299.6%" y="-0.3%" width="699.1%" height="100.6%" filterUnits="objectBoundingBox" id="filter-12">
            <feGaussianBlur stdDeviation="1" in="SourceGraphic"></feGaussianBlur>
        </filter>
        <filter x="-299.6%" y="-0.3%" width="699.1%" height="100.6%" filterUnits="objectBoundingBox" id="filter-13">
            <feGaussianBlur stdDeviation="1" in="SourceGraphic"></feGaussianBlur>
        </filter>
        <filter x="-299.6%" y="-0.3%" width="699.1%" height="100.6%" filterUnits="objectBoundingBox" id="filter-14">
            <feGaussianBlur stdDeviation="1" in="SourceGraphic"></feGaussianBlur>
        </filter>
        <filter x="-299.6%" y="-0.3%" width="699.1%" height="100.6%" filterUnits="objectBoundingBox" id="filter-15">
            <feGaussianBlur stdDeviation="1" in="SourceGraphic"></feGaussianBlur>
        </filter>
        <filter x="-299.6%" y="-0.3%" width="699.1%" height="100.6%" filterUnits="objectBoundingBox" id="filter-16">
            <feGaussianBlur stdDeviation="1" in="SourceGraphic"></feGaussianBlur>
        </filter>
        <filter x="-299.6%" y="-0.3%" width="699.1%" height="100.6%" filterUnits="objectBoundingBox" id="filter-17">
            <feGaussianBlur stdDeviation="1" in="SourceGraphic"></feGaussianBlur>
        </filter>
        <filter x="-299.6%" y="-0.3%" width="699.1%" height="100.6%" filterUnits="objectBoundingBox" id="filter-18">
            <feGaussianBlur stdDeviation="1" in="SourceGraphic"></feGaussianBlur>
        </filter>
        <filter x="-299.6%" y="-0.3%" width="699.1%" height="100.6%" filterUnits="objectBoundingBox" id="filter-19">
            <feGaussianBlur stdDeviation="1" in="SourceGraphic"></feGaussianBlur>
        </filter>
    </defs>
    <g id="Page-1" stroke="none" stroke-width="1" fill="none" fill-rule="evenodd">
        <g id="no-cascade-copy">
            <g id="Rect1_2" transform="translate(51.000000, 42.000000)">
                <path d="M154,71 L166,71" id="Path-5-Copy-15" stroke="#FF2E2F" stroke-linecap="round"></path>
                <path d="M297,71 L374,71" id="Path-5-Copy-14" stroke="#FF2E2F" stroke-linecap="round"></path>
                <g id="Round_block-Copy-15" transform="translate(168.000000, 55.000000)">
                    <rect id="Rectangle-Copy-14" fill="#E1E1E1" x="0" y="0" width="124" height="32" rx="14"></rect>
                    <path d="M31.0244141,20 L29.6474609,20 L29.6474609,13.5195312 L31.0244141,13.5195312 L31.0244141,20 Z M29.5654297,11.8027344 C29.5654297,11.5566394 29.6328118,11.3671882 29.7675781,11.234375 C29.9023444,11.1015618 30.0947253,11.0351562 30.3447266,11.0351562 C30.5869153,11.0351562 30.77539,11.1015618 30.9101562,11.234375 C31.0449225,11.3671882 31.1123047,11.5566394 31.1123047,11.8027344 C31.1123047,12.0371105 31.0449225,12.221679 30.9101562,12.3564453 C30.77539,12.4912116 30.5869153,12.5585938 30.3447266,12.5585938 C30.0947253,12.5585938 29.9023444,12.4912116 29.7675781,12.3564453 C29.6328118,12.221679 29.5654297,12.0371105 29.5654297,11.8027344 Z M38.6943359,20 L37.3115234,20 L37.3115234,16.015625 C37.3115234,15.5156225 37.2109385,15.1425794 37.0097656,14.8964844 C36.8085927,14.6503894 36.48926,14.5273438 36.0517578,14.5273438 C35.4697237,14.5273438 35.0439467,14.699217 34.7744141,15.0429688 C34.5048815,15.3867205 34.3701172,15.9628866 34.3701172,16.7714844 L34.3701172,20 L32.9931641,20 L32.9931641,13.5195312 L34.0712891,13.5195312 L34.2646484,14.3691406 L34.3349609,14.3691406 C34.5302744,14.0605453 34.8076154,13.8222665 35.1669922,13.6542969 C35.526369,13.4863273 35.9248025,13.4023438 36.3623047,13.4023438 C37.917,13.4023438 38.6943359,14.1933515 38.6943359,15.7753906 L38.6943359,20 Z M44.9638672,18.1542969 C44.9638672,18.7871125 44.7334007,19.2724592 44.2724609,19.6103516 C43.8115211,19.9482439 43.1513715,20.1171875 42.2919922,20.1171875 C41.4287066,20.1171875 40.7353542,19.9863294 40.2119141,19.7246094 L40.2119141,18.5351562 C40.9736366,18.8867205 41.6826139,19.0625 42.3388672,19.0625 C43.1865277,19.0625 43.6103516,18.8066432 43.6103516,18.2949219 C43.6103516,18.1308586 43.563477,17.9941412 43.4697266,17.8847656 C43.3759761,17.7753901 43.2216808,17.66211 43.0068359,17.5449219 C42.7919911,17.4277338 42.493166,17.2949226 42.1103516,17.1464844 C41.3642541,16.8574204 40.8593763,16.5683608 40.5957031,16.2792969 C40.3320299,15.9902329 40.2001953,15.6152367 40.2001953,15.1542969 C40.2001953,14.5996066 40.4238259,14.1689468 40.8710938,13.8623047 C41.3183616,13.5556625 41.926754,13.4023438 42.6962891,13.4023438 C43.4580116,13.4023438 44.1787075,13.5566391 44.8583984,13.8652344 L44.4130859,14.9023438 C43.7138637,14.6132798 43.1259789,14.46875 42.6494141,14.46875 C41.9228479,14.46875 41.5595703,14.6757792 41.5595703,15.0898438 C41.5595703,15.2929698 41.6542959,15.464843 41.84375,15.6054688 C42.0332041,15.7460945 42.4462859,15.9394519 43.0830078,16.1855469 C43.6181667,16.3925792 44.0068347,16.5820304 44.2490234,16.7539062 C44.4912121,16.9257821 44.6708979,17.1240223 44.7880859,17.3486328 C44.905274,17.5732433 44.9638672,17.8417953 44.9638672,18.1542969 Z M48.8662109,19.0039062 C49.2021501,19.0039062 49.5380843,18.9511724 49.8740234,18.8457031 L49.8740234,19.8828125 C49.7216789,19.9492191 49.5253918,20.0048826 49.2851562,20.0498047 C49.0449207,20.0947268 48.7958997,20.1171875 48.5380859,20.1171875 C47.2333919,20.1171875 46.5810547,19.4296944 46.5810547,18.0546875 L46.5810547,14.5625 L45.6962891,14.5625 L45.6962891,13.953125 L46.6455078,13.4492188 L47.1142578,12.078125 L47.9638672,12.078125 L47.9638672,13.5195312 L49.8095703,13.5195312 L49.8095703,14.5625 L47.9638672,14.5625 L47.9638672,18.03125 C47.9638672,18.3632829 48.0468742,18.6083976 48.2128906,18.7666016 C48.3789071,18.9248055 48.5966783,19.0039062 48.8662109,19.0039062 Z M55.2236328,20 L54.9482422,19.0976562 L54.9013672,19.0976562 C54.5888656,19.4921895 54.2744156,19.7607415 53.9580078,19.9033203 C53.6416,20.0458992 53.235354,20.1171875 52.7392578,20.1171875 C52.1025359,20.1171875 51.6054705,19.9453142 51.2480469,19.6015625 C50.8906232,19.2578108 50.7119141,18.7714875 50.7119141,18.1425781 C50.7119141,17.474606 50.9599585,16.9707048 51.4560547,16.6308594 C51.9521509,16.2910139 52.7080027,16.1054689 53.7236328,16.0742188 L54.8427734,16.0390625 L54.8427734,15.6933594 C54.8427734,15.2792948 54.7460947,14.9697276 54.5527344,14.7646484 C54.359374,14.5595693 54.0595723,14.4570312 53.6533203,14.4570312 C53.3212874,14.4570312 53.0029312,14.5058589 52.6982422,14.6035156 C52.3935532,14.7011724 52.1005873,14.8164056 51.8193359,14.9492188 L51.3740234,13.9648438 C51.7255877,13.7812491 52.1103495,13.641602 52.5283203,13.5458984 C52.9462912,13.4501948 53.3408185,13.4023438 53.7119141,13.4023438 C54.5361369,13.4023438 55.158201,13.5820295 55.578125,13.9414062 C55.998049,14.300783 56.2080078,14.8652305 56.2080078,15.6347656 L56.2080078,20 L55.2236328,20 Z M53.1728516,19.0625 C53.6728541,19.0625 54.0742172,18.922853 54.3769531,18.6435547 C54.679689,18.3642564 54.8310547,17.9726588 54.8310547,17.46875 L54.8310547,16.90625 L53.9990234,16.9414062 C53.3505827,16.9648439 52.8789077,17.0732412 52.5839844,17.2666016 C52.289061,17.4599619 52.1416016,17.7558574 52.1416016,18.1542969 C52.1416016,18.4433608 52.2275382,18.6669914 52.3994141,18.8251953 C52.5712899,18.9833992 52.8290998,19.0625 53.1728516,19.0625 Z M63.8310547,20 L62.4482422,20 L62.4482422,16.015625 C62.4482422,15.5156225 62.3476573,15.1425794 62.1464844,14.8964844 C61.9453115,14.6503894 61.6259787,14.5273438 61.1884766,14.5273438 C60.6064424,14.5273438 60.1806654,14.699217 59.9111328,15.0429688 C59.6416002,15.3867205 59.5068359,15.9628866 59.5068359,16.7714844 L59.5068359,20 L58.1298828,20 L58.1298828,13.5195312 L59.2080078,13.5195312 L59.4013672,14.3691406 L59.4716797,14.3691406 C59.6669932,14.0605453 59.9443341,13.8222665 60.3037109,13.6542969 C60.6630877,13.4863273 61.0615212,13.4023438 61.4990234,13.4023438 C63.0537187,13.4023438 63.8310547,14.1933515 63.8310547,15.7753906 L63.8310547,20 Z M68.3603516,20.1171875 C67.3798779,20.1171875 66.6347682,19.8310575 66.125,19.2587891 C65.6152318,18.6865206 65.3603516,17.8652397 65.3603516,16.7949219 C65.3603516,15.7050727 65.6269505,14.8671904 66.1601562,14.28125 C66.693362,13.6953096 67.4638621,13.4023438 68.4716797,13.4023438 C69.1552769,13.4023438 69.7705051,13.5292956 70.3173828,13.7832031 L69.9013672,14.890625 C69.319333,14.6640614 68.8388691,14.5507812 68.4599609,14.5507812 C67.3388616,14.5507812 66.7783203,15.2949144 66.7783203,16.7832031 C66.7783203,17.5097693 66.9179674,18.0556622 67.1972656,18.4208984 C67.4765639,18.7861346 67.8857395,18.96875 68.4248047,18.96875 C69.038089,18.96875 69.6181613,18.8164078 70.1650391,18.5117188 L70.1650391,19.7128906 C69.9189441,19.8574226 69.6562514,19.9609372 69.3769531,20.0234375 C69.0976549,20.0859378 68.7587911,20.1171875 68.3603516,20.1171875 Z M74.5185547,20.1171875 C73.5107371,20.1171875 72.7226591,19.8232451 72.1542969,19.2353516 C71.5859347,18.647458 71.3017578,17.8378958 71.3017578,16.8066406 C71.3017578,15.7480416 71.5654271,14.9160187 72.0927734,14.3105469 C72.6201198,13.7050751 73.344722,13.4023438 74.2666016,13.4023438 C75.1220746,13.4023438 75.7978491,13.6621068 76.2939453,14.1816406 C76.7900415,14.7011745 77.0380859,15.4160111 77.0380859,16.3261719 L77.0380859,17.0703125 L72.7197266,17.0703125 C72.7392579,17.6992219 72.9091781,18.1826155 73.2294922,18.5205078 C73.5498063,18.8584001 74.0009737,19.0273438 74.5830078,19.0273438 C74.9658222,19.0273438 75.322264,18.9912113 75.6523438,18.9189453 C75.9824235,18.8466793 76.3369122,18.7265633 76.7158203,18.5585938 L76.7158203,19.6777344 C76.3798811,19.8378914 76.0400408,19.9511715 75.6962891,20.0175781 C75.3525373,20.0839847 74.9599631,20.1171875 74.5185547,20.1171875 Z M74.2666016,14.4453125 C73.8290994,14.4453125 73.4785169,14.583983 73.2148438,14.8613281 C72.9511706,15.1386733 72.7939456,15.5429661 72.7431641,16.0742188 L75.6845703,16.0742188 C75.6767578,15.5390598 75.5478528,15.1337904 75.2978516,14.8583984 C75.0478503,14.5830064 74.7041038,14.4453125 74.2666016,14.4453125 Z M86.5302734,14.9023438 L86.2080078,16.5664062 L87.7900391,16.5664062 L87.7900391,17.5507812 L86.0146484,17.5507812 L85.5458984,20 L84.5029297,20 L84.9716797,17.5507812 L83.5185547,17.5507812 L83.0498047,20 L82.0302734,20 L82.4755859,17.5507812 L81.0107422,17.5507812 L81.0107422,16.5664062 L82.6689453,16.5664062 L83.0029297,14.9023438 L81.4560547,14.9023438 L81.4560547,13.9179688 L83.1728516,13.9179688 L83.6416016,11.4453125 L84.6962891,11.4453125 L84.2275391,13.9179688 L85.7041016,13.9179688 L86.1728516,11.4453125 L87.1923828,11.4453125 L86.7236328,13.9179688 L88.2001953,13.9179688 L88.2001953,14.9023438 L86.5302734,14.9023438 Z M83.7001953,16.5664062 L85.1650391,16.5664062 L85.4990234,14.9023438 L84.0341797,14.9023438 L83.7001953,16.5664062 Z M94.8212891,20 L89.0146484,20 L89.0146484,18.9570312 L91.2236328,16.7363281 C91.8759798,16.068356 92.3085927,15.594728 92.5214844,15.3154297 C92.7343761,15.0361314 92.8896479,14.7734387 92.9873047,14.5273438 C93.0849614,14.2812488 93.1337891,14.0175795 93.1337891,13.7363281 C93.1337891,13.3496074 93.0175793,13.044923 92.7851562,12.8222656 C92.5527332,12.5996083 92.2314474,12.4882812 91.8212891,12.4882812 C91.4931624,12.4882812 91.1757828,12.5488275 90.8691406,12.6699219 C90.5624985,12.7910162 90.2080098,13.009764 89.8056641,13.3261719 L89.0615234,12.4179688 C89.5380883,12.015623 90.0009743,11.7304696 90.4501953,11.5625 C90.8994163,11.3945304 91.3779271,11.3105469 91.8857422,11.3105469 C92.6826212,11.3105469 93.3212867,11.5185526 93.8017578,11.9345703 C94.282229,12.350588 94.5224609,12.9101527 94.5224609,13.6132812 C94.5224609,14.0000019 94.4531257,14.3671858 94.3144531,14.7148438 C94.1757806,15.0625017 93.9628921,15.4208966 93.6757812,15.7900391 C93.3886704,16.1591815 92.9111362,16.6582 92.2431641,17.2871094 L90.7548828,18.7285156 L90.7548828,18.7871094 L94.8212891,18.7871094 L94.8212891,20 Z" id="text" fill="#1F1E1E"></path>
                </g>
                <path d="M316,75 L316,138 C316,140.209139 314.209139,142 312,142 L4,142 C1.790861,142 0,140.209139 0,138 L0,4 C0,1.790861 1.790861,0 4,0 L312,0 C314.209139,0 316,1.790861 316,4 C316,20.0223091 316,32.039041 316,40.0501956 C316,46.2543219 316,55.9042568 316,69" id="Path-Copy-5" stroke="#D7D7D7" stroke-linecap="round"></path>
                <path d="M351,67.9989272 L351,40.1072447 M351,41.2886024 L351,34.0460113 L351,4 C351,1.790861 352.790861,0 355,0 L520,0 C522.209139,0 524,1.790861 524,4 L524,138 C524,140.209139 522.209139,142 520,142 L355,142 C352.790861,142 351,140.209139 351,138 L351,74" id="Path-Copy-4" stroke="#D7D7D7" stroke-linecap="round"></path>
                <g id="Round_block-Copy-19" transform="translate(24.000000, 55.000000)">
                    <rect id="Rectangle-Copy-14" fill="#E1E1E1" x="0" y="0" width="124" height="32" rx="14"></rect>
                    <path d="M31.0244141,20 L29.6474609,20 L29.6474609,13.5195312 L31.0244141,13.5195312 L31.0244141,20 Z M29.5654297,11.8027344 C29.5654297,11.5566394 29.6328118,11.3671882 29.7675781,11.234375 C29.9023444,11.1015618 30.0947253,11.0351562 30.3447266,11.0351562 C30.5869153,11.0351562 30.77539,11.1015618 30.9101562,11.234375 C31.0449225,11.3671882 31.1123047,11.5566394 31.1123047,11.8027344 C31.1123047,12.0371105 31.0449225,12.221679 30.9101562,12.3564453 C30.77539,12.4912116 30.5869153,12.5585938 30.3447266,12.5585938 C30.0947253,12.5585938 29.9023444,12.4912116 29.7675781,12.3564453 C29.6328118,12.221679 29.5654297,12.0371105 29.5654297,11.8027344 Z M38.6943359,20 L37.3115234,20 L37.3115234,16.015625 C37.3115234,15.5156225 37.2109385,15.1425794 37.0097656,14.8964844 C36.8085927,14.6503894 36.48926,14.5273438 36.0517578,14.5273438 C35.4697237,14.5273438 35.0439467,14.699217 34.7744141,15.0429688 C34.5048815,15.3867205 34.3701172,15.9628866 34.3701172,16.7714844 L34.3701172,20 L32.9931641,20 L32.9931641,13.5195312 L34.0712891,13.5195312 L34.2646484,14.3691406 L34.3349609,14.3691406 C34.5302744,14.0605453 34.8076154,13.8222665 35.1669922,13.6542969 C35.526369,13.4863273 35.9248025,13.4023438 36.3623047,13.4023438 C37.917,13.4023438 38.6943359,14.1933515 38.6943359,15.7753906 L38.6943359,20 Z M44.9638672,18.1542969 C44.9638672,18.7871125 44.7334007,19.2724592 44.2724609,19.6103516 C43.8115211,19.9482439 43.1513715,20.1171875 42.2919922,20.1171875 C41.4287066,20.1171875 40.7353542,19.9863294 40.2119141,19.7246094 L40.2119141,18.5351562 C40.9736366,18.8867205 41.6826139,19.0625 42.3388672,19.0625 C43.1865277,19.0625 43.6103516,18.8066432 43.6103516,18.2949219 C43.6103516,18.1308586 43.563477,17.9941412 43.4697266,17.8847656 C43.3759761,17.7753901 43.2216808,17.66211 43.0068359,17.5449219 C42.7919911,17.4277338 42.493166,17.2949226 42.1103516,17.1464844 C41.3642541,16.8574204 40.8593763,16.5683608 40.5957031,16.2792969 C40.3320299,15.9902329 40.2001953,15.6152367 40.2001953,15.1542969 C40.2001953,14.5996066 40.4238259,14.1689468 40.8710938,13.8623047 C41.3183616,13.5556625 41.926754,13.4023438 42.6962891,13.4023438 C43.4580116,13.4023438 44.1787075,13.5566391 44.8583984,13.8652344 L44.4130859,14.9023438 C43.7138637,14.6132798 43.1259789,14.46875 42.6494141,14.46875 C41.9228479,14.46875 41.5595703,14.6757792 41.5595703,15.0898438 C41.5595703,15.2929698 41.6542959,15.464843 41.84375,15.6054688 C42.0332041,15.7460945 42.4462859,15.9394519 43.0830078,16.1855469 C43.6181667,16.3925792 44.0068347,16.5820304 44.2490234,16.7539062 C44.4912121,16.9257821 44.6708979,17.1240223 44.7880859,17.3486328 C44.905274,17.5732433 44.9638672,17.8417953 44.9638672,18.1542969 Z M48.8662109,19.0039062 C49.2021501,19.0039062 49.5380843,18.9511724 49.8740234,18.8457031 L49.8740234,19.8828125 C49.7216789,19.9492191 49.5253918,20.0048826 49.2851562,20.0498047 C49.0449207,20.0947268 48.7958997,20.1171875 48.5380859,20.1171875 C47.2333919,20.1171875 46.5810547,19.4296944 46.5810547,18.0546875 L46.5810547,14.5625 L45.6962891,14.5625 L45.6962891,13.953125 L46.6455078,13.4492188 L47.1142578,12.078125 L47.9638672,12.078125 L47.9638672,13.5195312 L49.8095703,13.5195312 L49.8095703,14.5625 L47.9638672,14.5625 L47.9638672,18.03125 C47.9638672,18.3632829 48.0468742,18.6083976 48.2128906,18.7666016 C48.3789071,18.9248055 48.5966783,19.0039062 48.8662109,19.0039062 Z M55.2236328,20 L54.9482422,19.0976562 L54.9013672,19.0976562 C54.5888656,19.4921895 54.2744156,19.7607415 53.9580078,19.9033203 C53.6416,20.0458992 53.235354,20.1171875 52.7392578,20.1171875 C52.1025359,20.1171875 51.6054705,19.9453142 51.2480469,19.6015625 C50.8906232,19.2578108 50.7119141,18.7714875 50.7119141,18.1425781 C50.7119141,17.474606 50.9599585,16.9707048 51.4560547,16.6308594 C51.9521509,16.2910139 52.7080027,16.1054689 53.7236328,16.0742188 L54.8427734,16.0390625 L54.8427734,15.6933594 C54.8427734,15.2792948 54.7460947,14.9697276 54.5527344,14.7646484 C54.359374,14.5595693 54.0595723,14.4570312 53.6533203,14.4570312 C53.3212874,14.4570312 53.0029312,14.5058589 52.6982422,14.6035156 C52.3935532,14.7011724 52.1005873,14.8164056 51.8193359,14.9492188 L51.3740234,13.9648438 C51.7255877,13.7812491 52.1103495,13.641602 52.5283203,13.5458984 C52.9462912,13.4501948 53.3408185,13.4023438 53.7119141,13.4023438 C54.5361369,13.4023438 55.158201,13.5820295 55.578125,13.9414062 C55.998049,14.300783 56.2080078,14.8652305 56.2080078,15.6347656 L56.2080078,20 L55.2236328,20 Z M53.1728516,19.0625 C53.6728541,19.0625 54.0742172,18.922853 54.3769531,18.6435547 C54.679689,18.3642564 54.8310547,17.9726588 54.8310547,17.46875 L54.8310547,16.90625 L53.9990234,16.9414062 C53.3505827,16.9648439 52.8789077,17.0732412 52.5839844,17.2666016 C52.289061,17.4599619 52.1416016,17.7558574 52.1416016,18.1542969 C52.1416016,18.4433608 52.2275382,18.6669914 52.3994141,18.8251953 C52.5712899,18.9833992 52.8290998,19.0625 53.1728516,19.0625 Z M63.8310547,20 L62.4482422,20 L62.4482422,16.015625 C62.4482422,15.5156225 62.3476573,15.1425794 62.1464844,14.8964844 C61.9453115,14.6503894 61.6259787,14.5273438 61.1884766,14.5273438 C60.6064424,14.5273438 60.1806654,14.699217 59.9111328,15.0429688 C59.6416002,15.3867205 59.5068359,15.9628866 59.5068359,16.7714844 L59.5068359,20 L58.1298828,20 L58.1298828,13.5195312 L59.2080078,13.5195312 L59.4013672,14.3691406 L59.4716797,14.3691406 C59.6669932,14.0605453 59.9443341,13.8222665 60.3037109,13.6542969 C60.6630877,13.4863273 61.0615212,13.4023438 61.4990234,13.4023438 C63.0537187,13.4023438 63.8310547,14.1933515 63.8310547,15.7753906 L63.8310547,20 Z M68.3603516,20.1171875 C67.3798779,20.1171875 66.6347682,19.8310575 66.125,19.2587891 C65.6152318,18.6865206 65.3603516,17.8652397 65.3603516,16.7949219 C65.3603516,15.7050727 65.6269505,14.8671904 66.1601562,14.28125 C66.693362,13.6953096 67.4638621,13.4023438 68.4716797,13.4023438 C69.1552769,13.4023438 69.7705051,13.5292956 70.3173828,13.7832031 L69.9013672,14.890625 C69.319333,14.6640614 68.8388691,14.5507812 68.4599609,14.5507812 C67.3388616,14.5507812 66.7783203,15.2949144 66.7783203,16.7832031 C66.7783203,17.5097693 66.9179674,18.0556622 67.1972656,18.4208984 C67.4765639,18.7861346 67.8857395,18.96875 68.4248047,18.96875 C69.038089,18.96875 69.6181613,18.8164078 70.1650391,18.5117188 L70.1650391,19.7128906 C69.9189441,19.8574226 69.6562514,19.9609372 69.3769531,20.0234375 C69.0976549,20.0859378 68.7587911,20.1171875 68.3603516,20.1171875 Z M74.5185547,20.1171875 C73.5107371,20.1171875 72.7226591,19.8232451 72.1542969,19.2353516 C71.5859347,18.647458 71.3017578,17.8378958 71.3017578,16.8066406 C71.3017578,15.7480416 71.5654271,14.9160187 72.0927734,14.3105469 C72.6201198,13.7050751 73.344722,13.4023438 74.2666016,13.4023438 C75.1220746,13.4023438 75.7978491,13.6621068 76.2939453,14.1816406 C76.7900415,14.7011745 77.0380859,15.4160111 77.0380859,16.3261719 L77.0380859,17.0703125 L72.7197266,17.0703125 C72.7392579,17.6992219 72.9091781,18.1826155 73.2294922,18.5205078 C73.5498063,18.8584001 74.0009737,19.0273438 74.5830078,19.0273438 C74.9658222,19.0273438 75.322264,18.9912113 75.6523438,18.9189453 C75.9824235,18.8466793 76.3369122,18.7265633 76.7158203,18.5585938 L76.7158203,19.6777344 C76.3798811,19.8378914 76.0400408,19.9511715 75.6962891,20.0175781 C75.3525373,20.0839847 74.9599631,20.1171875 74.5185547,20.1171875 Z M74.2666016,14.4453125 C73.8290994,14.4453125 73.4785169,14.583983 73.2148438,14.8613281 C72.9511706,15.1386733 72.7939456,15.5429661 72.7431641,16.0742188 L75.6845703,16.0742188 C75.6767578,15.5390598 75.5478528,15.1337904 75.2978516,14.8583984 C75.0478503,14.5830064 74.7041038,14.4453125 74.2666016,14.4453125 Z M86.5302734,14.9023438 L86.2080078,16.5664062 L87.7900391,16.5664062 L87.7900391,17.5507812 L86.0146484,17.5507812 L85.5458984,20 L84.5029297,20 L84.9716797,17.5507812 L83.5185547,17.5507812 L83.0498047,20 L82.0302734,20 L82.4755859,17.5507812 L81.0107422,17.5507812 L81.0107422,16.5664062 L82.6689453,16.5664062 L83.0029297,14.9023438 L81.4560547,14.9023438 L81.4560547,13.9179688 L83.1728516,13.9179688 L83.6416016,11.4453125 L84.6962891,11.4453125 L84.2275391,13.9179688 L85.7041016,13.9179688 L86.1728516,11.4453125 L87.1923828,11.4453125 L86.7236328,13.9179688 L88.2001953,13.9179688 L88.2001953,14.9023438 L86.5302734,14.9023438 Z M83.7001953,16.5664062 L85.1650391,16.5664062 L85.4990234,14.9023438 L84.0341797,14.9023438 L83.7001953,16.5664062 Z M93.0576172,20 L91.6806641,20 L91.6806641,14.46875 C91.6806641,13.8085904 91.6962889,13.2851582 91.7275391,12.8984375 C91.6376949,12.992188 91.5273444,13.0957026 91.3964844,13.2089844 C91.2656243,13.3222662 90.8271522,13.6816376 90.0810547,14.2871094 L89.3896484,13.4140625 L91.9091797,11.4335938 L93.0576172,11.4335938 L93.0576172,20 Z" id="text" fill="#1F1E1E"></path>
                </g>
                <g id="Round_block-Copy-18" transform="translate(376.000000, 55.000000)">
                    <rect id="Rectangle-Copy-14" fill="#E1E1E1" x="0" y="0" width="124" height="32" rx="14"></rect>
                    <path d="M31.0244141,20 L29.6474609,20 L29.6474609,13.5195312 L31.0244141,13.5195312 L31.0244141,20 Z M29.5654297,11.8027344 C29.5654297,11.5566394 29.6328118,11.3671882 29.7675781,11.234375 C29.9023444,11.1015618 30.0947253,11.0351562 30.3447266,11.0351562 C30.5869153,11.0351562 30.77539,11.1015618 30.9101562,11.234375 C31.0449225,11.3671882 31.1123047,11.5566394 31.1123047,11.8027344 C31.1123047,12.0371105 31.0449225,12.221679 30.9101562,12.3564453 C30.77539,12.4912116 30.5869153,12.5585938 30.3447266,12.5585938 C30.0947253,12.5585938 29.9023444,12.4912116 29.7675781,12.3564453 C29.6328118,12.221679 29.5654297,12.0371105 29.5654297,11.8027344 Z M38.6943359,20 L37.3115234,20 L37.3115234,16.015625 C37.3115234,15.5156225 37.2109385,15.1425794 37.0097656,14.8964844 C36.8085927,14.6503894 36.48926,14.5273438 36.0517578,14.5273438 C35.4697237,14.5273438 35.0439467,14.699217 34.7744141,15.0429688 C34.5048815,15.3867205 34.3701172,15.9628866 34.3701172,16.7714844 L34.3701172,20 L32.9931641,20 L32.9931641,13.5195312 L34.0712891,13.5195312 L34.2646484,14.3691406 L34.3349609,14.3691406 C34.5302744,14.0605453 34.8076154,13.8222665 35.1669922,13.6542969 C35.526369,13.4863273 35.9248025,13.4023438 36.3623047,13.4023438 C37.917,13.4023438 38.6943359,14.1933515 38.6943359,15.7753906 L38.6943359,20 Z M44.9638672,18.1542969 C44.9638672,18.7871125 44.7334007,19.2724592 44.2724609,19.6103516 C43.8115211,19.9482439 43.1513715,20.1171875 42.2919922,20.1171875 C41.4287066,20.1171875 40.7353542,19.9863294 40.2119141,19.7246094 L40.2119141,18.5351562 C40.9736366,18.8867205 41.6826139,19.0625 42.3388672,19.0625 C43.1865277,19.0625 43.6103516,18.8066432 43.6103516,18.2949219 C43.6103516,18.1308586 43.563477,17.9941412 43.4697266,17.8847656 C43.3759761,17.7753901 43.2216808,17.66211 43.0068359,17.5449219 C42.7919911,17.4277338 42.493166,17.2949226 42.1103516,17.1464844 C41.3642541,16.8574204 40.8593763,16.5683608 40.5957031,16.2792969 C40.3320299,15.9902329 40.2001953,15.6152367 40.2001953,15.1542969 C40.2001953,14.5996066 40.4238259,14.1689468 40.8710938,13.8623047 C41.3183616,13.5556625 41.926754,13.4023438 42.6962891,13.4023438 C43.4580116,13.4023438 44.1787075,13.5566391 44.8583984,13.8652344 L44.4130859,14.9023438 C43.7138637,14.6132798 43.1259789,14.46875 42.6494141,14.46875 C41.9228479,14.46875 41.5595703,14.6757792 41.5595703,15.0898438 C41.5595703,15.2929698 41.6542959,15.464843 41.84375,15.6054688 C42.0332041,15.7460945 42.4462859,15.9394519 43.0830078,16.1855469 C43.6181667,16.3925792 44.0068347,16.5820304 44.2490234,16.7539062 C44.4912121,16.9257821 44.6708979,17.1240223 44.7880859,17.3486328 C44.905274,17.5732433 44.9638672,17.8417953 44.9638672,18.1542969 Z M48.8662109,19.0039062 C49.2021501,19.0039062 49.5380843,18.9511724 49.8740234,18.8457031 L49.8740234,19.8828125 C49.7216789,19.9492191 49.5253918,20.0048826 49.2851562,20.0498047 C49.0449207,20.0947268 48.7958997,20.1171875 48.5380859,20.1171875 C47.2333919,20.1171875 46.5810547,19.4296944 46.5810547,18.0546875 L46.5810547,14.5625 L45.6962891,14.5625 L45.6962891,13.953125 L46.6455078,13.4492188 L47.1142578,12.078125 L47.9638672,12.078125 L47.9638672,13.5195312 L49.8095703,13.5195312 L49.8095703,14.5625 L47.9638672,14.5625 L47.9638672,18.03125 C47.9638672,18.3632829 48.0468742,18.6083976 48.2128906,18.7666016 C48.3789071,18.9248055 48.5966783,19.0039062 48.8662109,19.0039062 Z M55.2236328,20 L54.9482422,19.0976562 L54.9013672,19.0976562 C54.5888656,19.4921895 54.2744156,19.7607415 53.9580078,19.9033203 C53.6416,20.0458992 53.235354,20.1171875 52.7392578,20.1171875 C52.1025359,20.1171875 51.6054705,19.9453142 51.2480469,19.6015625 C50.8906232,19.2578108 50.7119141,18.7714875 50.7119141,18.1425781 C50.7119141,17.474606 50.9599585,16.9707048 51.4560547,16.6308594 C51.9521509,16.2910139 52.7080027,16.1054689 53.7236328,16.0742188 L54.8427734,16.0390625 L54.8427734,15.6933594 C54.8427734,15.2792948 54.7460947,14.9697276 54.5527344,14.7646484 C54.359374,14.5595693 54.0595723,14.4570312 53.6533203,14.4570312 C53.3212874,14.4570312 53.0029312,14.5058589 52.6982422,14.6035156 C52.3935532,14.7011724 52.1005873,14.8164056 51.8193359,14.9492188 L51.3740234,13.9648438 C51.7255877,13.7812491 52.1103495,13.641602 52.5283203,13.5458984 C52.9462912,13.4501948 53.3408185,13.4023438 53.7119141,13.4023438 C54.5361369,13.4023438 55.158201,13.5820295 55.578125,13.9414062 C55.998049,14.300783 56.2080078,14.8652305 56.2080078,15.6347656 L56.2080078,20 L55.2236328,20 Z M53.1728516,19.0625 C53.6728541,19.0625 54.0742172,18.922853 54.3769531,18.6435547 C54.679689,18.3642564 54.8310547,17.9726588 54.8310547,17.46875 L54.8310547,16.90625 L53.9990234,16.9414062 C53.3505827,16.9648439 52.8789077,17.0732412 52.5839844,17.2666016 C52.289061,17.4599619 52.1416016,17.7558574 52.1416016,18.1542969 C52.1416016,18.4433608 52.2275382,18.6669914 52.3994141,18.8251953 C52.5712899,18.9833992 52.8290998,19.0625 53.1728516,19.0625 Z M63.8310547,20 L62.4482422,20 L62.4482422,16.015625 C62.4482422,15.5156225 62.3476573,15.1425794 62.1464844,14.8964844 C61.9453115,14.6503894 61.6259787,14.5273438 61.1884766,14.5273438 C60.6064424,14.5273438 60.1806654,14.699217 59.9111328,15.0429688 C59.6416002,15.3867205 59.5068359,15.9628866 59.5068359,16.7714844 L59.5068359,20 L58.1298828,20 L58.1298828,13.5195312 L59.2080078,13.5195312 L59.4013672,14.3691406 L59.4716797,14.3691406 C59.6669932,14.0605453 59.9443341,13.8222665 60.3037109,13.6542969 C60.6630877,13.4863273 61.0615212,13.4023438 61.4990234,13.4023438 C63.0537187,13.4023438 63.8310547,14.1933515 63.8310547,15.7753906 L63.8310547,20 Z M68.3603516,20.1171875 C67.3798779,20.1171875 66.6347682,19.8310575 66.125,19.2587891 C65.6152318,18.6865206 65.3603516,17.8652397 65.3603516,16.7949219 C65.3603516,15.7050727 65.6269505,14.8671904 66.1601562,14.28125 C66.693362,13.6953096 67.4638621,13.4023438 68.4716797,13.4023438 C69.1552769,13.4023438 69.7705051,13.5292956 70.3173828,13.7832031 L69.9013672,14.890625 C69.319333,14.6640614 68.8388691,14.5507812 68.4599609,14.5507812 C67.3388616,14.5507812 66.7783203,15.2949144 66.7783203,16.7832031 C66.7783203,17.5097693 66.9179674,18.0556622 67.1972656,18.4208984 C67.4765639,18.7861346 67.8857395,18.96875 68.4248047,18.96875 C69.038089,18.96875 69.6181613,18.8164078 70.1650391,18.5117188 L70.1650391,19.7128906 C69.9189441,19.8574226 69.6562514,19.9609372 69.3769531,20.0234375 C69.0976549,20.0859378 68.7587911,20.1171875 68.3603516,20.1171875 Z M74.5185547,20.1171875 C73.5107371,20.1171875 72.7226591,19.8232451 72.1542969,19.2353516 C71.5859347,18.647458 71.3017578,17.8378958 71.3017578,16.8066406 C71.3017578,15.7480416 71.5654271,14.9160187 72.0927734,14.3105469 C72.6201198,13.7050751 73.344722,13.4023438 74.2666016,13.4023438 C75.1220746,13.4023438 75.7978491,13.6621068 76.2939453,14.1816406 C76.7900415,14.7011745 77.0380859,15.4160111 77.0380859,16.3261719 L77.0380859,17.0703125 L72.7197266,17.0703125 C72.7392579,17.6992219 72.9091781,18.1826155 73.2294922,18.5205078 C73.5498063,18.8584001 74.0009737,19.0273438 74.5830078,19.0273438 C74.9658222,19.0273438 75.322264,18.9912113 75.6523438,18.9189453 C75.9824235,18.8466793 76.3369122,18.7265633 76.7158203,18.5585938 L76.7158203,19.6777344 C76.3798811,19.8378914 76.0400408,19.9511715 75.6962891,20.0175781 C75.3525373,20.0839847 74.9599631,20.1171875 74.5185547,20.1171875 Z M74.2666016,14.4453125 C73.8290994,14.4453125 73.4785169,14.583983 73.2148438,14.8613281 C72.9511706,15.1386733 72.7939456,15.5429661 72.7431641,16.0742188 L75.6845703,16.0742188 C75.6767578,15.5390598 75.5478528,15.1337904 75.2978516,14.8583984 C75.0478503,14.5830064 74.7041038,14.4453125 74.2666016,14.4453125 Z M86.5302734,14.9023438 L86.2080078,16.5664062 L87.7900391,16.5664062 L87.7900391,17.5507812 L86.0146484,17.5507812 L85.5458984,20 L84.5029297,20 L84.9716797,17.5507812 L83.5185547,17.5507812 L83.0498047,20 L82.0302734,20 L82.4755859,17.5507812 L81.0107422,17.5507812 L81.0107422,16.5664062 L82.6689453,16.5664062 L83.0029297,14.9023438 L81.4560547,14.9023438 L81.4560547,13.9179688 L83.1728516,13.9179688 L83.6416016,11.4453125 L84.6962891,11.4453125 L84.2275391,13.9179688 L85.7041016,13.9179688 L86.1728516,11.4453125 L87.1923828,11.4453125 L86.7236328,13.9179688 L88.2001953,13.9179688 L88.2001953,14.9023438 L86.5302734,14.9023438 Z M83.7001953,16.5664062 L85.1650391,16.5664062 L85.4990234,14.9023438 L84.0341797,14.9023438 L83.7001953,16.5664062 Z M94.4990234,13.4023438 C94.4990234,13.9453152 94.3408219,14.3974591 94.0244141,14.7587891 C93.7080062,15.120119 93.2626982,15.3632806 92.6884766,15.4882812 L92.6884766,15.5351562 C93.37598,15.6210942 93.8915998,15.8349592 94.2353516,16.1767578 C94.5791033,16.5185564 94.7509766,16.9726534 94.7509766,17.5390625 C94.7509766,18.3632854 94.4599638,18.9990212 93.8779297,19.4462891 C93.2958955,19.8935569 92.4677788,20.1171875 91.3935547,20.1171875 C90.4443312,20.1171875 89.6435579,19.9628922 88.9912109,19.6542969 L88.9912109,18.4296875 C89.354494,18.6093759 89.7392558,18.7480464 90.1455078,18.8457031 C90.5517598,18.9433599 90.9423809,18.9921875 91.3173828,18.9921875 C91.9814486,18.9921875 92.4775374,18.8691419 92.8056641,18.6230469 C93.1337907,18.3769519 93.2978516,17.9960963 93.2978516,17.4804688 C93.2978516,17.0234352 93.1162128,16.6875011 92.7529297,16.4726562 C92.3896466,16.2578114 91.8193398,16.1503906 91.0419922,16.1503906 L90.2978516,16.1503906 L90.2978516,15.03125 L91.0537109,15.03125 C92.4209053,15.03125 93.1044922,14.5585985 93.1044922,13.6132812 C93.1044922,13.2460919 92.9853528,12.9628916 92.7470703,12.7636719 C92.5087879,12.5644521 92.1572289,12.4648438 91.6923828,12.4648438 C91.3681624,12.4648438 91.0556656,12.5107417 90.7548828,12.6025391 C90.4541001,12.6943364 90.0986349,12.8730455 89.6884766,13.1386719 L89.0146484,12.1777344 C89.7998086,11.5996065 90.7119089,11.3105469 91.7509766,11.3105469 C92.6142621,11.3105469 93.2880835,11.4960919 93.7724609,11.8671875 C94.2568384,12.2382831 94.4990234,12.7499967 94.4990234,13.4023438 Z" id="text" fill="#1F1E1E"></path>
                </g>
                <path d="M18.5615234,15.6347656 C18.5615234,17.0449289 18.1601603,18.1249963 17.3574219,18.875 C16.5546835,19.6250037 15.3955154,20 13.8798828,20 L11.4541016,20 L11.4541016,11.4335938 L14.1435547,11.4335938 C15.5419992,11.4335938 16.6279258,11.8027307 17.4013672,12.5410156 C18.1748086,13.2793006 18.5615234,14.3105403 18.5615234,15.6347656 Z M16.6748047,15.6816406 C16.6748047,13.8417877 15.8623128,12.921875 14.2373047,12.921875 L13.2705078,12.921875 L13.2705078,18.5 L14.0498047,18.5 C15.7998134,18.5 16.6748047,17.5605563 16.6748047,15.6816406 Z M23.9755859,12.8222656 C23.2919888,12.8222656 22.7626972,13.079099 22.3876953,13.5927734 C22.0126934,14.1064479 21.8251953,14.822261 21.8251953,15.7402344 C21.8251953,17.6504002 22.541985,18.6054688 23.9755859,18.6054688 C24.5771514,18.6054688 25.3056598,18.4550796 26.1611328,18.1542969 L26.1611328,19.6777344 C25.4580043,19.9707046 24.6728559,20.1171875 23.8056641,20.1171875 C22.5595641,20.1171875 21.6064486,19.7392616 20.9462891,18.9833984 C20.2861295,18.2275353 19.9560547,17.1425852 19.9560547,15.7285156 C19.9560547,14.8378862 20.1181624,14.0576205 20.4423828,13.3876953 C20.7666032,12.7177701 21.2324188,12.2041033 21.8398438,11.8466797 C22.4472687,11.489256 23.1591756,11.3105469 23.9755859,11.3105469 C24.8076213,11.3105469 25.6435505,11.5117167 26.4833984,11.9140625 L25.8974609,13.390625 C25.5771468,13.2382805 25.2548844,13.1054693 24.9306641,12.9921875 C24.6064437,12.8789057 24.2880875,12.8222656 23.9755859,12.8222656 Z M35.8759766,15.0546875 L35.6005859,16.4140625 L37.1123047,16.4140625 L37.1123047,17.6210938 L35.3720703,17.6210938 L34.9208984,20 L33.6318359,20 L34.0888672,17.6210938 L32.9521484,17.6210938 L32.5068359,20 L31.2470703,20 L31.6806641,17.6210938 L30.2861328,17.6210938 L30.2861328,16.4140625 L31.9091797,16.4140625 L32.1845703,15.0546875 L30.7080078,15.0546875 L30.7080078,13.8300781 L32.4013672,13.8300781 L32.8525391,11.4453125 L34.1357422,11.4453125 L33.6845703,13.8300781 L34.8447266,13.8300781 L35.3017578,11.4453125 L36.5615234,11.4453125 L36.1044922,13.8300781 L37.5107422,13.8300781 L37.5107422,15.0546875 L35.8759766,15.0546875 Z M33.1806641,16.4140625 L34.3291016,16.4140625 L34.6044922,15.0546875 L33.4560547,15.0546875 L33.1806641,16.4140625 Z M42.7314453,20 L40.9208984,20 L40.9208984,15.0429688 L40.9384766,14.2285156 L40.9677734,13.3378906 C40.6669907,13.6386734 40.4580084,13.835937 40.3408203,13.9296875 L39.3564453,14.7207031 L38.4833984,13.6308594 L41.2431641,11.4335938 L42.7314453,11.4335938 L42.7314453,20 Z" id="DC-#1-Copy-4" fill="#595959"></path>
                <path d="M369.561523,15.6347656 C369.561523,17.0449289 369.16016,18.1249963 368.357422,18.875 C367.554683,19.6250037 366.395515,20 364.879883,20 L362.454102,20 L362.454102,11.4335938 L365.143555,11.4335938 C366.541999,11.4335938 367.627926,11.8027307 368.401367,12.5410156 C369.174809,13.2793006 369.561523,14.3105403 369.561523,15.6347656 Z M367.674805,15.6816406 C367.674805,13.8417877 366.862313,12.921875 365.237305,12.921875 L364.270508,12.921875 L364.270508,18.5 L365.049805,18.5 C366.799813,18.5 367.674805,17.5605563 367.674805,15.6816406 Z M374.975586,12.8222656 C374.291989,12.8222656 373.762697,13.079099 373.387695,13.5927734 C373.012693,14.1064479 372.825195,14.822261 372.825195,15.7402344 C372.825195,17.6504002 373.541985,18.6054688 374.975586,18.6054688 C375.577151,18.6054688 376.30566,18.4550796 377.161133,18.1542969 L377.161133,19.6777344 C376.458004,19.9707046 375.672856,20.1171875 374.805664,20.1171875 C373.559564,20.1171875 372.606449,19.7392616 371.946289,18.9833984 C371.28613,18.2275353 370.956055,17.1425852 370.956055,15.7285156 C370.956055,14.8378862 371.118162,14.0576205 371.442383,13.3876953 C371.766603,12.7177701 372.232419,12.2041033 372.839844,11.8466797 C373.447269,11.489256 374.159176,11.3105469 374.975586,11.3105469 C375.807621,11.3105469 376.64355,11.5117167 377.483398,11.9140625 L376.897461,13.390625 C376.577147,13.2382805 376.254884,13.1054693 375.930664,12.9921875 C375.606444,12.8789057 375.288088,12.8222656 374.975586,12.8222656 Z M386.875977,15.0546875 L386.600586,16.4140625 L388.112305,16.4140625 L388.112305,17.6210938 L386.37207,17.6210938 L385.920898,20 L384.631836,20 L385.088867,17.6210938 L383.952148,17.6210938 L383.506836,20 L382.24707,20 L382.680664,17.6210938 L381.286133,17.6210938 L381.286133,16.4140625 L382.90918,16.4140625 L383.18457,15.0546875 L381.708008,15.0546875 L381.708008,13.8300781 L383.401367,13.8300781 L383.852539,11.4453125 L385.135742,11.4453125 L384.68457,13.8300781 L385.844727,13.8300781 L386.301758,11.4453125 L387.561523,11.4453125 L387.104492,13.8300781 L388.510742,13.8300781 L388.510742,15.0546875 L386.875977,15.0546875 Z M384.180664,16.4140625 L385.329102,16.4140625 L385.604492,15.0546875 L384.456055,15.0546875 L384.180664,16.4140625 Z M395.243164,20 L389.254883,20 L389.254883,18.7402344 L391.405273,16.5664062 C392.041995,15.9140592 392.458007,15.4619153 392.65332,15.2099609 C392.848634,14.9580066 392.989257,14.7246104 393.075195,14.5097656 C393.161133,14.2949208 393.204102,14.0722668 393.204102,13.8417969 C393.204102,13.4980452 393.109376,13.2421883 392.919922,13.0742188 C392.730468,12.9062492 392.477541,12.8222656 392.161133,12.8222656 C391.8291,12.8222656 391.506838,12.8984367 391.194336,13.0507812 C390.881834,13.2031258 390.555666,13.4199205 390.21582,13.7011719 L389.231445,12.5351562 C389.653322,12.1757795 390.002928,11.9218757 390.280273,11.7734375 C390.557619,11.6249993 390.86035,11.5107426 391.188477,11.4306641 C391.516603,11.3505855 391.883787,11.3105469 392.290039,11.3105469 C392.825198,11.3105469 393.29785,11.4082021 393.708008,11.6035156 C394.118166,11.7988291 394.436522,12.0722639 394.663086,12.4238281 C394.88965,12.7753924 395.00293,13.1777321 395.00293,13.6308594 C395.00293,14.0253926 394.933594,14.3955061 394.794922,14.7412109 C394.656249,15.0869158 394.441408,15.4414044 394.150391,15.8046875 C393.859374,16.1679706 393.346683,16.6855435 392.612305,17.3574219 L391.510742,18.3945312 L391.510742,18.4765625 L395.243164,18.4765625 L395.243164,20 Z" id="DC-#2-Copy-2" fill="#595959"></path>
                <g id="Arrow_red" transform="translate(153.000000, 71.500000) scale(-1, 1) translate(-153.000000, -71.500000) translate(150.000000, 67.000000)" stroke="#FF2E2F" fill="#FF2E2F" stroke-linejoin="round">
                    <polygon id="Path-14-Copy-14" transform="translate(3.000000, 4.500000) rotate(-270.000000) translate(-3.000000, -4.500000) " points="-1 7 3 2 7 7"></polygon>
                </g>
                <g id="Arrow_red" transform="translate(297.000000, 71.500000) scale(-1, 1) translate(-297.000000, -71.500000) translate(294.000000, 67.000000)" stroke="#FF2E2F" fill="#FF2E2F" stroke-linejoin="round">
                    <polygon id="Path-14-Copy-14" transform="translate(3.000000, 4.500000) rotate(-270.000000) translate(-3.000000, -4.500000) " points="-1 7 3 2 7 7"></polygon>
                </g>
            </g>
            <g id="Mask" transform="translate(50.000000, 42.000000)">
                <mask id="mask-2" fill="white">
                    <use xlink:href="#path-1"></use>
                </mask>
                <use fill-opacity="0.75" fill="#FFF9F9" xlink:href="#path-1"></use>
                <g id="Line" mask="url(#mask-2)" fill="#E2E2E2">
                    <g transform="translate(-76.435946, 32.000000)" id="Rectangle-5">
                        <rect filter="url(#filter-3)" transform="translate(348.260267, 399.446819) rotate(-41.000000) translate(-348.260267, -399.446819) " x="347.759548" y="-129.391306" width="1.00143678" height="1057.67625" rx="0.500718391"></rect>
                    </g>
                </g>
                <g id="Line" mask="url(#mask-2)" fill="#E2E2E2">
                    <g transform="translate(-55.315488, 12.000000)" id="Rectangle-5">
                        <rect filter="url(#filter-4)" transform="translate(348.260267, 399.446819) rotate(-41.000000) translate(-348.260267, -399.446819) " x="347.759548" y="-129.391306" width="1.00143678" height="1057.67625" rx="0.500718391"></rect>
                    </g>
                </g>
                <g id="Line" mask="url(#mask-2)" fill="#E2E2E2">
                    <g transform="translate(-36.206501, -8.000000)" id="Rectangle-5">
                        <rect filter="url(#filter-5)" transform="translate(348.260267, 399.446819) rotate(-41.000000) translate(-348.260267, -399.446819) " x="347.759548" y="-129.391306" width="1.00143678" height="1057.67625" rx="0.500718391"></rect>
                    </g>
                </g>
                <g id="Line" mask="url(#mask-2)" fill="#E2E2E2">
                    <g transform="translate(-16.091778, -28.000000)" id="Rectangle-5">
                        <rect filter="url(#filter-6)" transform="translate(348.260267, 399.446819) rotate(-41.000000) translate(-348.260267, -399.446819) " x="347.759548" y="-129.391306" width="1.00143678" height="1057.67625" rx="0.500718391"></rect>
                    </g>
                </g>
                <g id="Line" mask="url(#mask-2)" fill="#E2E2E2">
                    <g transform="translate(4.022945, -48.000000)" id="Rectangle-5">
                        <rect filter="url(#filter-7)" transform="translate(348.260267, 399.446819) rotate(-41.000000) translate(-348.260267, -399.446819) " x="347.759548" y="-129.391306" width="1.00143678" height="1057.67625" rx="0.500718391"></rect>
                    </g>
                </g>
                <g id="Line" mask="url(#mask-2)" fill="#E2E2E2">
                    <g transform="translate(24.137667, -68.000000)" id="Rectangle-5">
                        <rect filter="url(#filter-8)" transform="translate(348.260267, 399.446819) rotate(-41.000000) translate(-348.260267, -399.446819) " x="347.759548" y="-129.391306" width="1.00143678" height="1057.67625" rx="0.500718391"></rect>
                    </g>
                </g>
                <g id="Line" mask="url(#mask-2)" fill="#E2E2E2">
                    <g transform="translate(44.252390, -87.000000)" id="Rectangle-5">
                        <rect filter="url(#filter-9)" transform="translate(348.260267, 399.446819) rotate(-41.000000) translate(-348.260267, -399.446819) " x="347.759548" y="-129.391306" width="1.00143678" height="1057.67625" rx="0.500718391"></rect>
                    </g>
                </g>
                <g id="Line" mask="url(#mask-2)" fill="#E2E2E2">
                    <g transform="translate(63.361377, -108.000000)" id="Rectangle-5">
                        <rect filter="url(#filter-10)" transform="translate(348.260267, 399.446819) rotate(-41.000000) translate(-348.260267, -399.446819) " x="347.759548" y="-129.391306" width="1.00143678" height="1057.67625" rx="0.500718391"></rect>
                    </g>
                </g>
                <g id="Line" mask="url(#mask-2)" fill="#E2E2E2">
                    <g transform="translate(84.481836, -129.000000)" id="Rectangle-5">
                        <rect filter="url(#filter-11)" transform="translate(348.260267, 399.446819) rotate(-41.000000) translate(-348.260267, -399.446819) " x="347.759548" y="-129.391306" width="1.00143678" height="1057.67625" rx="0.500718391"></rect>
                    </g>
                </g>
                <g id="Line" mask="url(#mask-2)" fill="#E2E2E2">
                    <g transform="translate(104.596558, -148.000000)" id="Rectangle-5">
                        <rect filter="url(#filter-12)" transform="translate(348.260267, 399.446819) rotate(-41.000000) translate(-348.260267, -399.446819) " x="347.759548" y="-129.391306" width="1.00143678" height="1057.67625" rx="0.500718391"></rect>
                    </g>
                </g>
                <g id="Line" mask="url(#mask-2)" fill="#E2E2E2">
                    <g transform="translate(124.711281, -168.000000)" id="Rectangle-5">
                        <rect filter="url(#filter-13)" transform="translate(348.260267, 399.446819) rotate(-41.000000) translate(-348.260267, -399.446819) " x="347.759548" y="-129.391306" width="1.00143678" height="1057.67625" rx="0.500718391"></rect>
                    </g>
                </g>
                <g id="Line" mask="url(#mask-2)" fill="#E2E2E2">
                    <g transform="translate(143.820268, -188.000000)" id="Rectangle-5">
                        <rect filter="url(#filter-14)" transform="translate(348.260267, 399.446819) rotate(-41.000000) translate(-348.260267, -399.446819) " x="347.759548" y="-129.391306" width="1.00143678" height="1057.67625" rx="0.500718391"></rect>
                    </g>
                </g>
                <g id="Line" mask="url(#mask-2)" fill="#E2E2E2">
                    <g transform="translate(163.934990, -208.000000)" id="Rectangle-5">
                        <rect filter="url(#filter-15)" transform="translate(348.260267, 399.446819) rotate(-41.000000) translate(-348.260267, -399.446819) " x="347.759548" y="-129.391306" width="1.00143678" height="1057.67625" rx="0.500718391"></rect>
                    </g>
                </g>
                <g id="Line" mask="url(#mask-2)" fill="#E2E2E2">
                    <g transform="translate(184.049713, -227.000000)" id="Rectangle-5">
                        <rect filter="url(#filter-16)" transform="translate(348.260267, 399.446819) rotate(-41.000000) translate(-348.260267, -399.446819) " x="347.759548" y="-129.391306" width="1.00143678" height="1057.67625" rx="0.500718391"></rect>
                    </g>
                </g>
                <g id="Line" mask="url(#mask-2)" fill="#E2E2E2">
                    <g transform="translate(205.170172, -248.000000)" id="Rectangle-5">
                        <rect filter="url(#filter-17)" transform="translate(348.260267, 399.446819) rotate(-41.000000) translate(-348.260267, -399.446819) " x="347.759548" y="-129.391306" width="1.00143678" height="1057.67625" rx="0.500718391"></rect>
                    </g>
                </g>
                <g id="Line" mask="url(#mask-2)" fill="#E2E2E2">
                    <g transform="translate(224.279159, -268.000000)" id="Rectangle-5">
                        <rect filter="url(#filter-18)" transform="translate(348.260267, 399.446819) rotate(-41.000000) translate(-348.260267, -399.446819) " x="347.759548" y="-129.391306" width="1.00143678" height="1057.67625" rx="0.500718391"></rect>
                    </g>
                </g>
                <g id="Line" mask="url(#mask-2)" fill="#E2E2E2">
                    <g transform="translate(244.393881, -288.000000)" id="Rectangle-5">
                        <rect filter="url(#filter-19)" transform="translate(348.260267, 399.446819) rotate(-41.000000) translate(-348.260267, -399.446819) " x="347.759548" y="-129.391306" width="1.00143678" height="1057.67625" rx="0.500718391"></rect>
                    </g>
                </g>
            </g>
            <g id="Stop" transform="translate(546.500000, 71.500000) rotate(-360.000000) translate(-546.500000, -71.500000) translate(529.000000, 54.000000)">
                <path d="M17.5,35 C7.85116972,35 0,27.1505988 0,17.5 C0,7.85116972 7.85116972,0 17.5,0 C27.1505988,0 35,7.85116972 35,17.5 C35,27.1505988 27.1505988,35 17.5,35" id="Fill-1" fill="#F44336"></path>
                <path d="M17.5,35 C7.85116972,35 0,27.1505988 0,17.5 C0,7.85116972 7.85116972,0 17.5,0 C27.1505988,0 35,7.85116972 35,17.5 C35,27.1505988 27.1505988,35 17.5,35" id="Fill-1-Copy" fill="#F44336"></path>
                <polygon id="Fill-2" fill="#FFFFFF" points="7 22 28 22 28 14 7 14"></polygon>
            </g>
        </g>
    </g>
</svg>