<?xml version="1.0" encoding="UTF-8"?>
<svg width="393px" height="200px" viewBox="0 0 393 200" version="1.1" xmlns="http://www.w3.org/2000/svg" xmlns:xlink="http://www.w3.org/1999/xlink">
    <!-- Generator: Sketch 47.1 (45422) - http://www.bohemiancoding.com/sketch -->
    <title>mr-1m-2r-oneway copy</title>
    <desc>Created with Sketch.</desc>
    <defs></defs>
    <g id="Page-1" stroke="none" stroke-width="1" fill="none" fill-rule="evenodd">
        <g id="mr-1m-2r-oneway-copy">
            <g id="Round_block-Copy-21" transform="translate(66.000000, 75.000000)">
                <rect id="Rectangle-Copy-14" fill="#E1E1E1" x="0" y="0" width="123" height="32" rx="14"></rect>
                <path d="M38.5458984,20 L37.1630859,20 L37.1630859,16.0039062 C37.1630859,15.50781 37.0693369,15.1376965 36.8818359,14.8935547 C36.694335,14.6494128 36.4013692,14.5273438 36.0029297,14.5273438 C35.471677,14.5273438 35.0820325,14.7001936 34.8339844,15.0458984 C34.5859363,15.3916033 34.4619141,15.9667929 34.4619141,16.7714844 L34.4619141,20 L33.0849609,20 L33.0849609,13.5195312 L34.1630859,13.5195312 L34.3564453,14.3691406 L34.4267578,14.3691406 C34.6064462,14.0605453 34.8671858,13.8222665 35.2089844,13.6542969 C35.550783,13.4863273 35.9267558,13.4023438 36.3369141,13.4023438 C37.3330128,13.4023438 37.9931624,13.7421841 38.3173828,14.421875 L38.4111328,14.421875 C38.60254,14.1015609 38.8720686,13.8515634 39.2197266,13.671875 C39.5673846,13.4921866 39.9658181,13.4023438 40.4150391,13.4023438 C41.1884804,13.4023438 41.7519514,13.5976543 42.1054688,13.9882812 C42.4589861,14.3789082 42.6357422,14.9746054 42.6357422,15.7753906 L42.6357422,20 L41.2587891,20 L41.2587891,16.0039062 C41.2587891,15.50781 41.1640634,15.1376965 40.9746094,14.8935547 C40.7851553,14.6494128 40.4912129,14.5273438 40.0927734,14.5273438 C39.5576145,14.5273438 39.1660169,14.6943343 38.9179688,15.0283203 C38.6699206,15.3623064 38.5458984,15.8749965 38.5458984,16.5664062 L38.5458984,20 Z M48.6123047,20 L48.3369141,19.0976562 L48.2900391,19.0976562 C47.9775375,19.4921895 47.6630875,19.7607415 47.3466797,19.9033203 C47.0302719,20.0458992 46.6240259,20.1171875 46.1279297,20.1171875 C45.4912078,20.1171875 44.9941424,19.9453142 44.6367188,19.6015625 C44.2792951,19.2578108 44.1005859,18.7714875 44.1005859,18.1425781 C44.1005859,17.474606 44.3486303,16.9707048 44.8447266,16.6308594 C45.3408228,16.2910139 46.0966746,16.1054689 47.1123047,16.0742188 L48.2314453,16.0390625 L48.2314453,15.6933594 C48.2314453,15.2792948 48.1347666,14.9697276 47.9414062,14.7646484 C47.7480459,14.5595693 47.4482442,14.4570312 47.0419922,14.4570312 C46.7099593,14.4570312 46.3916031,14.5058589 46.0869141,14.6035156 C45.782225,14.7011724 45.4892592,14.8164056 45.2080078,14.9492188 L44.7626953,13.9648438 C45.1142596,13.7812491 45.4990213,13.641602 45.9169922,13.5458984 C46.334963,13.4501948 46.7294903,13.4023438 47.1005859,13.4023438 C47.9248088,13.4023438 48.5468729,13.5820295 48.9667969,13.9414062 C49.3867208,14.300783 49.5966797,14.8652305 49.5966797,15.6347656 L49.5966797,20 L48.6123047,20 Z M46.5615234,19.0625 C47.0615259,19.0625 47.4628891,18.922853 47.765625,18.6435547 C48.0683609,18.3642564 48.2197266,17.9726588 48.2197266,17.46875 L48.2197266,16.90625 L47.3876953,16.9414062 C46.7392546,16.9648439 46.2675796,17.0732412 45.9726562,17.2666016 C45.6777329,17.4599619 45.5302734,17.7558574 45.5302734,18.1542969 C45.5302734,18.4433608 45.6162101,18.6669914 45.7880859,18.8251953 C45.9599618,18.9833992 46.2177717,19.0625 46.5615234,19.0625 Z M55.8720703,18.1542969 C55.8720703,18.7871125 55.6416039,19.2724592 55.1806641,19.6103516 C54.7197243,19.9482439 54.0595746,20.1171875 53.2001953,20.1171875 C52.3369097,20.1171875 51.6435573,19.9863294 51.1201172,19.7246094 L51.1201172,18.5351562 C51.8818397,18.8867205 52.590817,19.0625 53.2470703,19.0625 C54.0947308,19.0625 54.5185547,18.8066432 54.5185547,18.2949219 C54.5185547,18.1308586 54.4716802,17.9941412 54.3779297,17.8847656 C54.2841792,17.7753901 54.1298839,17.66211 53.9150391,17.5449219 C53.7001942,17.4277338 53.4013691,17.2949226 53.0185547,17.1464844 C52.2724572,16.8574204 51.7675794,16.5683608 51.5039062,16.2792969 C51.2402331,15.9902329 51.1083984,15.6152367 51.1083984,15.1542969 C51.1083984,14.5996066 51.332029,14.1689468 51.7792969,13.8623047 C52.2265647,13.5556625 52.8349571,13.4023438 53.6044922,13.4023438 C54.3662147,13.4023438 55.0869107,13.5566391 55.7666016,13.8652344 L55.3212891,14.9023438 C54.6220668,14.6132798 54.0341821,14.46875 53.5576172,14.46875 C52.8310511,14.46875 52.4677734,14.6757792 52.4677734,15.0898438 C52.4677734,15.2929698 52.5624991,15.464843 52.7519531,15.6054688 C52.9414072,15.7460945 53.354489,15.9394519 53.9912109,16.1855469 C54.5263699,16.3925792 54.9150379,16.5820304 55.1572266,16.7539062 C55.3994153,16.9257821 55.579101,17.1240223 55.6962891,17.3486328 C55.8134771,17.5732433 55.8720703,17.8417953 55.8720703,18.1542969 Z M59.7744141,19.0039062 C60.1103532,19.0039062 60.4462874,18.9511724 60.7822266,18.8457031 L60.7822266,19.8828125 C60.6298821,19.9492191 60.433595,20.0048826 60.1933594,20.0498047 C59.9531238,20.0947268 59.7041029,20.1171875 59.4462891,20.1171875 C58.141595,20.1171875 57.4892578,19.4296944 57.4892578,18.0546875 L57.4892578,14.5625 L56.6044922,14.5625 L56.6044922,13.953125 L57.5537109,13.4492188 L58.0224609,12.078125 L58.8720703,12.078125 L58.8720703,13.5195312 L60.7177734,13.5195312 L60.7177734,14.5625 L58.8720703,14.5625 L58.8720703,18.03125 C58.8720703,18.3632829 58.9550773,18.6083976 59.1210938,18.7666016 C59.2871102,18.9248055 59.5048815,19.0039062 59.7744141,19.0039062 Z M64.9072266,20.1171875 C63.899409,20.1171875 63.111331,19.8232451 62.5429688,19.2353516 C61.9746065,18.647458 61.6904297,17.8378958 61.6904297,16.8066406 C61.6904297,15.7480416 61.9540989,14.9160187 62.4814453,14.3105469 C63.0087917,13.7050751 63.7333938,13.4023438 64.6552734,13.4023438 C65.5107465,13.4023438 66.186521,13.6621068 66.6826172,14.1816406 C67.1787134,14.7011745 67.4267578,15.4160111 67.4267578,16.3261719 L67.4267578,17.0703125 L63.1083984,17.0703125 C63.1279298,17.6992219 63.29785,18.1826155 63.6181641,18.5205078 C63.9384782,18.8584001 64.3896455,19.0273438 64.9716797,19.0273438 C65.3544941,19.0273438 65.7109358,18.9912113 66.0410156,18.9189453 C66.3710954,18.8466793 66.725584,18.7265633 67.1044922,18.5585938 L67.1044922,19.6777344 C66.768553,19.8378914 66.4287127,19.9511715 66.0849609,20.0175781 C65.7412092,20.0839847 65.348635,20.1171875 64.9072266,20.1171875 Z M64.6552734,14.4453125 C64.2177712,14.4453125 63.8671888,14.583983 63.6035156,14.8613281 C63.3398424,15.1386733 63.1826174,15.5429661 63.1318359,16.0742188 L66.0732422,16.0742188 C66.0654296,15.5390598 65.9365247,15.1337904 65.6865234,14.8583984 C65.4365222,14.5830064 65.0927756,14.4453125 64.6552734,14.4453125 Z M72.2783203,13.4023438 C72.5556654,13.4023438 72.7841788,13.4218748 72.9638672,13.4609375 L72.8291016,14.7441406 C72.6337881,14.6972654 72.4306651,14.6738281 72.2197266,14.6738281 C71.6689426,14.6738281 71.222658,14.8535138 70.8808594,15.2128906 C70.5390608,15.5722674 70.3681641,16.0390596 70.3681641,16.6132812 L70.3681641,20 L68.9912109,20 L68.9912109,13.5195312 L70.0693359,13.5195312 L70.2509766,14.6621094 L70.3212891,14.6621094 C70.5361339,14.2753887 70.8164045,13.9687511 71.1621094,13.7421875 C71.5078142,13.5156239 71.8798808,13.4023438 72.2783203,13.4023438 Z M82.0927734,14.9023438 L81.7705078,16.5664062 L83.3525391,16.5664062 L83.3525391,17.5507812 L81.5771484,17.5507812 L81.1083984,20 L80.0654297,20 L80.5341797,17.5507812 L79.0810547,17.5507812 L78.6123047,20 L77.5927734,20 L78.0380859,17.5507812 L76.5732422,17.5507812 L76.5732422,16.5664062 L78.2314453,16.5664062 L78.5654297,14.9023438 L77.0185547,14.9023438 L77.0185547,13.9179688 L78.7353516,13.9179688 L79.2041016,11.4453125 L80.2587891,11.4453125 L79.7900391,13.9179688 L81.2666016,13.9179688 L81.7353516,11.4453125 L82.7548828,11.4453125 L82.2861328,13.9179688 L83.7626953,13.9179688 L83.7626953,14.9023438 L82.0927734,14.9023438 Z M79.2626953,16.5664062 L80.7275391,16.5664062 L81.0615234,14.9023438 L79.5966797,14.9023438 L79.2626953,16.5664062 Z M88.6201172,20 L87.2431641,20 L87.2431641,14.46875 C87.2431641,13.8085904 87.2587889,13.2851582 87.2900391,12.8984375 C87.2001949,12.992188 87.0898444,13.0957026 86.9589844,13.2089844 C86.8281243,13.3222662 86.3896522,13.6816376 85.6435547,14.2871094 L84.9521484,13.4140625 L87.4716797,11.4335938 L88.6201172,11.4335938 L88.6201172,20 Z" id="text" fill="#1F1E1E"></path>
            </g>
            <g id="Round_block-Copy-22" transform="translate(219.000000, 43.000000)">
                <rect id="Rectangle-Copy-14" fill="#E1E1E1" x="0" y="0" width="123" height="32" rx="14"></rect>
                <path d="M37.453125,13.4023438 C37.7304701,13.4023438 37.9589835,13.4218748 38.1386719,13.4609375 L38.0039062,14.7441406 C37.8085928,14.6972654 37.6054698,14.6738281 37.3945312,14.6738281 C36.8437472,14.6738281 36.3974626,14.8535138 36.0556641,15.2128906 C35.7138655,15.5722674 35.5429688,16.0390596 35.5429688,16.6132812 L35.5429688,20 L34.1660156,20 L34.1660156,13.5195312 L35.2441406,13.5195312 L35.4257812,14.6621094 L35.4960938,14.6621094 C35.7109386,14.2753887 35.9912092,13.9687511 36.3369141,13.7421875 C36.6826189,13.5156239 37.0546855,13.4023438 37.453125,13.4023438 Z M41.9296875,20.1171875 C40.92187,20.1171875 40.1337919,19.8232451 39.5654297,19.2353516 C38.9970675,18.647458 38.7128906,17.8378958 38.7128906,16.8066406 C38.7128906,15.7480416 38.9765599,14.9160187 39.5039062,14.3105469 C40.0312526,13.7050751 40.7558548,13.4023438 41.6777344,13.4023438 C42.5332074,13.4023438 43.2089819,13.6621068 43.7050781,14.1816406 C44.2011744,14.7011745 44.4492188,15.4160111 44.4492188,16.3261719 L44.4492188,17.0703125 L40.1308594,17.0703125 C40.1503907,17.6992219 40.3203109,18.1826155 40.640625,18.5205078 C40.9609391,18.8584001 41.4121065,19.0273438 41.9941406,19.0273438 C42.376955,19.0273438 42.7333968,18.9912113 43.0634766,18.9189453 C43.3935563,18.8466793 43.748045,18.7265633 44.1269531,18.5585938 L44.1269531,19.6777344 C43.7910139,19.8378914 43.4511736,19.9511715 43.1074219,20.0175781 C42.7636702,20.0839847 42.371096,20.1171875 41.9296875,20.1171875 Z M41.6777344,14.4453125 C41.2402322,14.4453125 40.8896498,14.583983 40.6259766,14.8613281 C40.3623034,15.1386733 40.2050784,15.5429661 40.1542969,16.0742188 L43.0957031,16.0742188 C43.0878906,15.5390598 42.9589856,15.1337904 42.7089844,14.8583984 C42.4589831,14.5830064 42.1152366,14.4453125 41.6777344,14.4453125 Z M49.3007812,20.1171875 C48.4804646,20.1171875 47.8437523,19.8222686 47.390625,19.2324219 L47.3085938,19.2324219 C47.3632815,19.7792996 47.390625,20.1113275 47.390625,20.2285156 L47.390625,22.8828125 L46.0136719,22.8828125 L46.0136719,13.5195312 L47.1269531,13.5195312 C47.1582033,13.6406256 47.2226558,13.9296852 47.3203125,14.3867188 L47.390625,14.3867188 C47.8203146,13.7304655 48.4648395,13.4023438 49.3242188,13.4023438 C50.1328165,13.4023438 50.7626931,13.6953096 51.2138672,14.28125 C51.6650413,14.8671904 51.890625,15.6894478 51.890625,16.7480469 C51.890625,17.8066459 51.6611351,18.6328095 51.2021484,19.2265625 C50.7431618,19.8203155 50.109379,20.1171875 49.3007812,20.1171875 Z M48.9667969,14.5273438 C48.4199191,14.5273438 48.0205091,14.6874984 47.7685547,15.0078125 C47.5166003,15.3281266 47.390625,15.8398402 47.390625,16.5429688 L47.390625,16.7480469 C47.390625,17.5371133 47.5156238,18.1083967 47.765625,18.4619141 C48.0156263,18.8154315 48.4238253,18.9921875 48.9902344,18.9921875 C49.4667993,18.9921875 49.8339831,18.796877 50.0917969,18.40625 C50.3496107,18.015623 50.4785156,17.458988 50.4785156,16.7363281 C50.4785156,16.009762 50.3505872,15.4599628 50.0947266,15.0869141 C49.8388659,14.7138653 49.4628931,14.5273438 48.9667969,14.5273438 Z M54.8671875,20 L53.4902344,20 L53.4902344,10.8828125 L54.8671875,10.8828125 L54.8671875,20 Z M58.2128906,20 L56.8359375,20 L56.8359375,13.5195312 L58.2128906,13.5195312 L58.2128906,20 Z M56.7539062,11.8027344 C56.7539062,11.5566394 56.8212884,11.3671882 56.9560547,11.234375 C57.090821,11.1015618 57.2832019,11.0351562 57.5332031,11.0351562 C57.7753918,11.0351562 57.9638665,11.1015618 58.0986328,11.234375 C58.2333991,11.3671882 58.3007812,11.5566394 58.3007812,11.8027344 C58.3007812,12.0371105 58.2333991,12.221679 58.0986328,12.3564453 C57.9638665,12.4912116 57.7753918,12.5585938 57.5332031,12.5585938 C57.2832019,12.5585938 57.090821,12.4912116 56.9560547,12.3564453 C56.8212884,12.221679 56.7539062,12.0371105 56.7539062,11.8027344 Z M62.7949219,20.1171875 C61.8144482,20.1171875 61.0693385,19.8310575 60.5595703,19.2587891 C60.0498021,18.6865206 59.7949219,17.8652397 59.7949219,16.7949219 C59.7949219,15.7050727 60.0615208,14.8671904 60.5947266,14.28125 C61.1279324,13.6953096 61.8984325,13.4023438 62.90625,13.4023438 C63.5898472,13.4023438 64.2050754,13.5292956 64.7519531,13.7832031 L64.3359375,14.890625 C63.7539033,14.6640614 63.2734394,14.5507812 62.8945312,14.5507812 C61.7734319,14.5507812 61.2128906,15.2949144 61.2128906,16.7832031 C61.2128906,17.5097693 61.3525377,18.0556622 61.6318359,18.4208984 C61.9111342,18.7861346 62.3203098,18.96875 62.859375,18.96875 C63.4726593,18.96875 64.0527316,18.8164078 64.5996094,18.5117188 L64.5996094,19.7128906 C64.3535144,19.8574226 64.0908217,19.9609372 63.8115234,20.0234375 C63.5322252,20.0859378 63.1933614,20.1171875 62.7949219,20.1171875 Z M70.1777344,20 L69.9023438,19.0976562 L69.8554688,19.0976562 C69.5429672,19.4921895 69.2285172,19.7607415 68.9121094,19.9033203 C68.5957015,20.0458992 68.1894556,20.1171875 67.6933594,20.1171875 C67.0566374,20.1171875 66.5595721,19.9453142 66.2021484,19.6015625 C65.8447248,19.2578108 65.6660156,18.7714875 65.6660156,18.1425781 C65.6660156,17.474606 65.91406,16.9707048 66.4101562,16.6308594 C66.9062525,16.2910139 67.6621043,16.1054689 68.6777344,16.0742188 L69.796875,16.0390625 L69.796875,15.6933594 C69.796875,15.2792948 69.7001963,14.9697276 69.5068359,14.7646484 C69.3134756,14.5595693 69.0136739,14.4570312 68.6074219,14.4570312 C68.275389,14.4570312 67.9570328,14.5058589 67.6523438,14.6035156 C67.3476547,14.7011724 67.0546889,14.8164056 66.7734375,14.9492188 L66.328125,13.9648438 C66.6796893,13.7812491 67.064451,13.641602 67.4824219,13.5458984 C67.9003927,13.4501948 68.29492,13.4023438 68.6660156,13.4023438 C69.4902385,13.4023438 70.1123026,13.5820295 70.5322266,13.9414062 C70.9521505,14.300783 71.1621094,14.8652305 71.1621094,15.6347656 L71.1621094,20 L70.1777344,20 Z M68.1269531,19.0625 C68.6269556,19.0625 69.0283188,18.922853 69.3310547,18.6435547 C69.6337906,18.3642564 69.7851562,17.9726588 69.7851562,17.46875 L69.7851562,16.90625 L68.953125,16.9414062 C68.3046843,16.9648439 67.8330093,17.0732412 67.5380859,17.2666016 C67.2431626,17.4599619 67.0957031,17.7558574 67.0957031,18.1542969 C67.0957031,18.4433608 67.1816398,18.6669914 67.3535156,18.8251953 C67.5253915,18.9833992 67.7832014,19.0625 68.1269531,19.0625 Z M81.0117188,14.9023438 L80.6894531,16.5664062 L82.2714844,16.5664062 L82.2714844,17.5507812 L80.4960938,17.5507812 L80.0273438,20 L78.984375,20 L79.453125,17.5507812 L78,17.5507812 L77.53125,20 L76.5117188,20 L76.9570312,17.5507812 L75.4921875,17.5507812 L75.4921875,16.5664062 L77.1503906,16.5664062 L77.484375,14.9023438 L75.9375,14.9023438 L75.9375,13.9179688 L77.6542969,13.9179688 L78.1230469,11.4453125 L79.1777344,11.4453125 L78.7089844,13.9179688 L80.1855469,13.9179688 L80.6542969,11.4453125 L81.6738281,11.4453125 L81.2050781,13.9179688 L82.6816406,13.9179688 L82.6816406,14.9023438 L81.0117188,14.9023438 Z M78.1816406,16.5664062 L79.6464844,16.5664062 L79.9804688,14.9023438 L78.515625,14.9023438 L78.1816406,16.5664062 Z M87.5390625,20 L86.1621094,20 L86.1621094,14.46875 C86.1621094,13.8085904 86.1777342,13.2851582 86.2089844,12.8984375 C86.1191402,12.992188 86.0087897,13.0957026 85.8779297,13.2089844 C85.7470697,13.3222662 85.3085975,13.6816376 84.5625,14.2871094 L83.8710938,13.4140625 L86.390625,11.4335938 L87.5390625,11.4335938 L87.5390625,20 Z" id="text" fill="#1F1E1E"></path>
            </g>
            <g id="Round_block-Copy-23" transform="translate(219.000000, 107.000000)">
                <rect id="Rectangle-Copy-14" fill="#E1E1E1" x="0" y="0" width="123" height="32" rx="14"></rect>
                <path d="M37.453125,13.4023438 C37.7304701,13.4023438 37.9589835,13.4218748 38.1386719,13.4609375 L38.0039062,14.7441406 C37.8085928,14.6972654 37.6054698,14.6738281 37.3945312,14.6738281 C36.8437472,14.6738281 36.3974626,14.8535138 36.0556641,15.2128906 C35.7138655,15.5722674 35.5429688,16.0390596 35.5429688,16.6132812 L35.5429688,20 L34.1660156,20 L34.1660156,13.5195312 L35.2441406,13.5195312 L35.4257812,14.6621094 L35.4960938,14.6621094 C35.7109386,14.2753887 35.9912092,13.9687511 36.3369141,13.7421875 C36.6826189,13.5156239 37.0546855,13.4023438 37.453125,13.4023438 Z M41.9296875,20.1171875 C40.92187,20.1171875 40.1337919,19.8232451 39.5654297,19.2353516 C38.9970675,18.647458 38.7128906,17.8378958 38.7128906,16.8066406 C38.7128906,15.7480416 38.9765599,14.9160187 39.5039062,14.3105469 C40.0312526,13.7050751 40.7558548,13.4023438 41.6777344,13.4023438 C42.5332074,13.4023438 43.2089819,13.6621068 43.7050781,14.1816406 C44.2011744,14.7011745 44.4492188,15.4160111 44.4492188,16.3261719 L44.4492188,17.0703125 L40.1308594,17.0703125 C40.1503907,17.6992219 40.3203109,18.1826155 40.640625,18.5205078 C40.9609391,18.8584001 41.4121065,19.0273438 41.9941406,19.0273438 C42.376955,19.0273438 42.7333968,18.9912113 43.0634766,18.9189453 C43.3935563,18.8466793 43.748045,18.7265633 44.1269531,18.5585938 L44.1269531,19.6777344 C43.7910139,19.8378914 43.4511736,19.9511715 43.1074219,20.0175781 C42.7636702,20.0839847 42.371096,20.1171875 41.9296875,20.1171875 Z M41.6777344,14.4453125 C41.2402322,14.4453125 40.8896498,14.583983 40.6259766,14.8613281 C40.3623034,15.1386733 40.2050784,15.5429661 40.1542969,16.0742188 L43.0957031,16.0742188 C43.0878906,15.5390598 42.9589856,15.1337904 42.7089844,14.8583984 C42.4589831,14.5830064 42.1152366,14.4453125 41.6777344,14.4453125 Z M49.3007812,20.1171875 C48.4804646,20.1171875 47.8437523,19.8222686 47.390625,19.2324219 L47.3085938,19.2324219 C47.3632815,19.7792996 47.390625,20.1113275 47.390625,20.2285156 L47.390625,22.8828125 L46.0136719,22.8828125 L46.0136719,13.5195312 L47.1269531,13.5195312 C47.1582033,13.6406256 47.2226558,13.9296852 47.3203125,14.3867188 L47.390625,14.3867188 C47.8203146,13.7304655 48.4648395,13.4023438 49.3242188,13.4023438 C50.1328165,13.4023438 50.7626931,13.6953096 51.2138672,14.28125 C51.6650413,14.8671904 51.890625,15.6894478 51.890625,16.7480469 C51.890625,17.8066459 51.6611351,18.6328095 51.2021484,19.2265625 C50.7431618,19.8203155 50.109379,20.1171875 49.3007812,20.1171875 Z M48.9667969,14.5273438 C48.4199191,14.5273438 48.0205091,14.6874984 47.7685547,15.0078125 C47.5166003,15.3281266 47.390625,15.8398402 47.390625,16.5429688 L47.390625,16.7480469 C47.390625,17.5371133 47.5156238,18.1083967 47.765625,18.4619141 C48.0156263,18.8154315 48.4238253,18.9921875 48.9902344,18.9921875 C49.4667993,18.9921875 49.8339831,18.796877 50.0917969,18.40625 C50.3496107,18.015623 50.4785156,17.458988 50.4785156,16.7363281 C50.4785156,16.009762 50.3505872,15.4599628 50.0947266,15.0869141 C49.8388659,14.7138653 49.4628931,14.5273438 48.9667969,14.5273438 Z M54.8671875,20 L53.4902344,20 L53.4902344,10.8828125 L54.8671875,10.8828125 L54.8671875,20 Z M58.2128906,20 L56.8359375,20 L56.8359375,13.5195312 L58.2128906,13.5195312 L58.2128906,20 Z M56.7539062,11.8027344 C56.7539062,11.5566394 56.8212884,11.3671882 56.9560547,11.234375 C57.090821,11.1015618 57.2832019,11.0351562 57.5332031,11.0351562 C57.7753918,11.0351562 57.9638665,11.1015618 58.0986328,11.234375 C58.2333991,11.3671882 58.3007812,11.5566394 58.3007812,11.8027344 C58.3007812,12.0371105 58.2333991,12.221679 58.0986328,12.3564453 C57.9638665,12.4912116 57.7753918,12.5585938 57.5332031,12.5585938 C57.2832019,12.5585938 57.090821,12.4912116 56.9560547,12.3564453 C56.8212884,12.221679 56.7539062,12.0371105 56.7539062,11.8027344 Z M62.7949219,20.1171875 C61.8144482,20.1171875 61.0693385,19.8310575 60.5595703,19.2587891 C60.0498021,18.6865206 59.7949219,17.8652397 59.7949219,16.7949219 C59.7949219,15.7050727 60.0615208,14.8671904 60.5947266,14.28125 C61.1279324,13.6953096 61.8984325,13.4023438 62.90625,13.4023438 C63.5898472,13.4023438 64.2050754,13.5292956 64.7519531,13.7832031 L64.3359375,14.890625 C63.7539033,14.6640614 63.2734394,14.5507812 62.8945312,14.5507812 C61.7734319,14.5507812 61.2128906,15.2949144 61.2128906,16.7832031 C61.2128906,17.5097693 61.3525377,18.0556622 61.6318359,18.4208984 C61.9111342,18.7861346 62.3203098,18.96875 62.859375,18.96875 C63.4726593,18.96875 64.0527316,18.8164078 64.5996094,18.5117188 L64.5996094,19.7128906 C64.3535144,19.8574226 64.0908217,19.9609372 63.8115234,20.0234375 C63.5322252,20.0859378 63.1933614,20.1171875 62.7949219,20.1171875 Z M70.1777344,20 L69.9023438,19.0976562 L69.8554688,19.0976562 C69.5429672,19.4921895 69.2285172,19.7607415 68.9121094,19.9033203 C68.5957015,20.0458992 68.1894556,20.1171875 67.6933594,20.1171875 C67.0566374,20.1171875 66.5595721,19.9453142 66.2021484,19.6015625 C65.8447248,19.2578108 65.6660156,18.7714875 65.6660156,18.1425781 C65.6660156,17.474606 65.91406,16.9707048 66.4101562,16.6308594 C66.9062525,16.2910139 67.6621043,16.1054689 68.6777344,16.0742188 L69.796875,16.0390625 L69.796875,15.6933594 C69.796875,15.2792948 69.7001963,14.9697276 69.5068359,14.7646484 C69.3134756,14.5595693 69.0136739,14.4570312 68.6074219,14.4570312 C68.275389,14.4570312 67.9570328,14.5058589 67.6523438,14.6035156 C67.3476547,14.7011724 67.0546889,14.8164056 66.7734375,14.9492188 L66.328125,13.9648438 C66.6796893,13.7812491 67.064451,13.641602 67.4824219,13.5458984 C67.9003927,13.4501948 68.29492,13.4023438 68.6660156,13.4023438 C69.4902385,13.4023438 70.1123026,13.5820295 70.5322266,13.9414062 C70.9521505,14.300783 71.1621094,14.8652305 71.1621094,15.6347656 L71.1621094,20 L70.1777344,20 Z M68.1269531,19.0625 C68.6269556,19.0625 69.0283188,18.922853 69.3310547,18.6435547 C69.6337906,18.3642564 69.7851562,17.9726588 69.7851562,17.46875 L69.7851562,16.90625 L68.953125,16.9414062 C68.3046843,16.9648439 67.8330093,17.0732412 67.5380859,17.2666016 C67.2431626,17.4599619 67.0957031,17.7558574 67.0957031,18.1542969 C67.0957031,18.4433608 67.1816398,18.6669914 67.3535156,18.8251953 C67.5253915,18.9833992 67.7832014,19.0625 68.1269531,19.0625 Z M81.0117188,14.9023438 L80.6894531,16.5664062 L82.2714844,16.5664062 L82.2714844,17.5507812 L80.4960938,17.5507812 L80.0273438,20 L78.984375,20 L79.453125,17.5507812 L78,17.5507812 L77.53125,20 L76.5117188,20 L76.9570312,17.5507812 L75.4921875,17.5507812 L75.4921875,16.5664062 L77.1503906,16.5664062 L77.484375,14.9023438 L75.9375,14.9023438 L75.9375,13.9179688 L77.6542969,13.9179688 L78.1230469,11.4453125 L79.1777344,11.4453125 L78.7089844,13.9179688 L80.1855469,13.9179688 L80.6542969,11.4453125 L81.6738281,11.4453125 L81.2050781,13.9179688 L82.6816406,13.9179688 L82.6816406,14.9023438 L81.0117188,14.9023438 Z M78.1816406,16.5664062 L79.6464844,16.5664062 L79.9804688,14.9023438 L78.515625,14.9023438 L78.1816406,16.5664062 Z M89.3027344,20 L83.4960938,20 L83.4960938,18.9570312 L85.7050781,16.7363281 C86.3574251,16.068356 86.790038,15.594728 87.0029297,15.3154297 C87.2158214,15.0361314 87.3710933,14.7734387 87.46875,14.5273438 C87.5664067,14.2812488 87.6152344,14.0175795 87.6152344,13.7363281 C87.6152344,13.3496074 87.4990246,13.044923 87.2666016,12.8222656 C87.0341785,12.5996083 86.7128927,12.4882812 86.3027344,12.4882812 C85.9746077,12.4882812 85.6572281,12.5488275 85.3505859,12.6699219 C85.0439438,12.7910162 84.6894551,13.009764 84.2871094,13.3261719 L83.5429688,12.4179688 C84.0195336,12.015623 84.4824196,11.7304696 84.9316406,11.5625 C85.3808616,11.3945304 85.8593725,11.3105469 86.3671875,11.3105469 C87.1640665,11.3105469 87.802732,11.5185526 88.2832031,11.9345703 C88.7636743,12.350588 89.0039062,12.9101527 89.0039062,13.6132812 C89.0039062,14.0000019 88.934571,14.3671858 88.7958984,14.7148438 C88.6572259,15.0625017 88.4443374,15.4208966 88.1572266,15.7900391 C87.8701158,16.1591815 87.3925815,16.6582 86.7246094,17.2871094 L85.2363281,18.7285156 L85.2363281,18.7871094 L89.3027344,18.7871094 L89.3027344,20 Z" id="text" fill="#1F1E1E"></path>
            </g>
            <g id="Arrow2" transform="translate(191.000000, 91.000000)" stroke="#FF2E2F">
                <path d="M0,0 L0,0 L-6.73291956e-16,0 C4.69442037,-8.62351033e-16 8.5,3.80557963 8.5,8.5 L8.5,22 L8.49657232,22 C8.49657232,27.5228475 12.9737248,32 18.4965723,32 C18.4977151,32 18.4988578,31.9999998 18.5000006,31.9999994 L19,31.9964003" id="Path-8-Copy-19" stroke-linecap="round"></path>
                <g id="Arrow_red" transform="translate(19.000000, 27.500000)" fill="#FF2E2F" stroke-linejoin="round">
                    <polygon id="Path-14-Copy-14" transform="translate(3.000000, 4.500000) rotate(-270.000000) translate(-3.000000, -4.500000) " points="-1 7 3 2 7 7"></polygon>
                </g>
            </g>
            <g id="Arrow1" transform="translate(191.000000, 54.000000)" stroke="#FF2E2F">
                <path d="M-1.0658141e-14,5 L-1.0658141e-14,5 L-1.0658141e-14,5 C4.69442037,5 8.5,8.80557963 8.5,13.5 L8.5,27 L8.5,27 C8.5,32.5228475 12.9771525,37 18.5,37 L19,37" id="Path-8-Copy-20" stroke-linecap="round" transform="translate(9.500000, 21.000000) scale(1, -1) translate(-9.500000, -21.000000) "></path>
                <g id="Arrow_red" transform="translate(19.000000, 0.500000)" fill="#FF2E2F" stroke-linejoin="round">
                    <polygon id="Path-14-Copy-14" transform="translate(3.000000, 4.500000) rotate(-270.000000) translate(-3.000000, -4.500000) " points="-1 7 3 2 7 7"></polygon>
                </g>
            </g>
        </g>
    </g>
</svg>