<?xml version="1.0" encoding="UTF-8" standalone="no"?><!-- Generator: Gravit.io --><svg xmlns="http://www.w3.org/2000/svg" xmlns:xlink="http://www.w3.org/1999/xlink" style="isolation:isolate" viewBox="0 0 721 121" width="721pt" height="121pt"><defs><clipPath id="_clipPath_Jbmj07da55yf04m98P9ZVML30DlrOC2j"><rect width="721" height="121"/></clipPath></defs><g clip-path="url(#_clipPath_Jbmj07da55yf04m98P9ZVML30DlrOC2j)"><rect x="240" y="40" width="481" height="41" transform="matrix(1,0,0,1,0,0)" fill="rgb(134,240,135)"/><rect x="240" y="81" width="241" height="40" transform="matrix(1,0,0,1,0,0)" fill="rgb(134,240,135)"/><rect x="481" y="81" width="240" height="40" transform="matrix(1,0,0,1,0,0)" fill="rgb(242,73,67)" fill-opacity="0.9"/><line x1="0" y1="40" x2="720" y2="40" vector-effect="non-scaling-stroke" stroke-width="1" stroke="rgb(46,46,46)" stroke-linejoin="miter" stroke-linecap="square" stroke-miterlimit="3"/><line x1="240" y1="0" x2="240" y2="130" vector-effect="non-scaling-stroke" stroke-width="1" stroke="rgb(46,46,46)" stroke-linejoin="miter" stroke-linecap="square" stroke-miterlimit="3"/><line x1="481" y1="-4" x2="481" y2="126" vector-effect="non-scaling-stroke" stroke-width="1" stroke="rgb(46,46,46)" stroke-linejoin="miter" stroke-linecap="square" stroke-miterlimit="3"/><text transform="matrix(1,0,0,1,250,27.377)" style="font-family:'Open Sans';font-weight:400;font-size:20px;font-style:normal;fill:#000000;stroke:none;">Arena_used_ratio &#x3E; 0.5</text><line x1="0" y1="81" x2="720" y2="81" vector-effect="non-scaling-stroke" stroke-width="1" stroke="rgb(46,46,46)" stroke-linejoin="miter" stroke-linecap="square" stroke-miterlimit="3"/><text transform="matrix(1,0,0,1,493,27.377)" style="font-family:'Open Sans';font-weight:400;font-size:20px;font-style:normal;fill:#000000;stroke:none;">Arena_used_ratio &#x3E; 0.9</text><text transform="matrix(1,0,0,1,12,68.759)" style="font-family:'Open Sans';font-weight:400;font-size:20px;font-style:normal;fill:#000000;stroke:none;">Quota_used_ratio &#x3E; 0.5</text><text transform="matrix(1,0,0,1,12,108.759)" style="font-family:'Open Sans';font-weight:400;font-size:20px;font-style:normal;fill:#000000;stroke:none;">Quota_used_ratio &#x3E; 0.9</text></g></svg>